%TF.GenerationSoftware,KiCad,Pcbnew,(6.0.2)*%
%TF.CreationDate,2022-03-06T23:22:22-05:00*%
%TF.ProjectId,aquabotsBMS,61717561-626f-4747-9342-4d532e6b6963,rev?*%
%TF.SameCoordinates,Original*%
%TF.FileFunction,Copper,L4,Bot*%
%TF.FilePolarity,Positive*%
%FSLAX46Y46*%
G04 Gerber Fmt 4.6, Leading zero omitted, Abs format (unit mm)*
G04 Created by KiCad (PCBNEW (6.0.2)) date 2022-03-06 23:22:22*
%MOMM*%
%LPD*%
G01*
G04 APERTURE LIST*
G04 Aperture macros list*
%AMRoundRect*
0 Rectangle with rounded corners*
0 $1 Rounding radius*
0 $2 $3 $4 $5 $6 $7 $8 $9 X,Y pos of 4 corners*
0 Add a 4 corners polygon primitive as box body*
4,1,4,$2,$3,$4,$5,$6,$7,$8,$9,$2,$3,0*
0 Add four circle primitives for the rounded corners*
1,1,$1+$1,$2,$3*
1,1,$1+$1,$4,$5*
1,1,$1+$1,$6,$7*
1,1,$1+$1,$8,$9*
0 Add four rect primitives between the rounded corners*
20,1,$1+$1,$2,$3,$4,$5,0*
20,1,$1+$1,$4,$5,$6,$7,0*
20,1,$1+$1,$6,$7,$8,$9,0*
20,1,$1+$1,$8,$9,$2,$3,0*%
G04 Aperture macros list end*
%TA.AperFunction,ComponentPad*%
%ADD10O,1.000000X1.600000*%
%TD*%
%TA.AperFunction,ComponentPad*%
%ADD11O,1.000000X2.100000*%
%TD*%
%TA.AperFunction,ComponentPad*%
%ADD12RoundRect,0.250000X-0.350000X-0.625000X0.350000X-0.625000X0.350000X0.625000X-0.350000X0.625000X0*%
%TD*%
%TA.AperFunction,ComponentPad*%
%ADD13O,1.200000X1.750000*%
%TD*%
%TA.AperFunction,ComponentPad*%
%ADD14R,1.700000X1.700000*%
%TD*%
%TA.AperFunction,ComponentPad*%
%ADD15O,1.700000X1.700000*%
%TD*%
%TA.AperFunction,ViaPad*%
%ADD16C,0.800000*%
%TD*%
%TA.AperFunction,Conductor*%
%ADD17C,0.500000*%
%TD*%
%TA.AperFunction,Conductor*%
%ADD18C,0.250000*%
%TD*%
G04 APERTURE END LIST*
D10*
%TO.P,J1,S1*%
%TO.N,Net-(C5-Pad1)*%
X154320000Y-130300000D03*
X145680000Y-130300000D03*
D11*
X145680000Y-126120000D03*
X154320000Y-126120000D03*
%TD*%
D12*
%TO.P,J2,1*%
%TO.N,Net-(J2-Pad1)*%
X165000000Y-126250000D03*
D13*
%TO.P,J2,2*%
%TO.N,Net-(J2-Pad2)*%
X167000000Y-126250000D03*
%TD*%
%TO.P,J3,2*%
%TO.N,+3V3*%
X135000000Y-126250000D03*
D12*
%TO.P,J3,1*%
%TO.N,/MODULE_RX*%
X133000000Y-126250000D03*
%TD*%
%TO.P,J5,1*%
%TO.N,/I2C_SDA*%
X158000000Y-126250000D03*
D13*
%TO.P,J5,2*%
%TO.N,/I2C_SCL*%
X160000000Y-126250000D03*
%TD*%
D14*
%TO.P,J4,1*%
%TO.N,GND*%
X142250000Y-130750000D03*
D15*
%TO.P,J4,2*%
%TO.N,+BATT*%
X139710000Y-130750000D03*
%TD*%
D16*
%TO.N,GND*%
X145000000Y-107100000D03*
X143800000Y-107100000D03*
X143800000Y-105300000D03*
X145000000Y-105300000D03*
X142600000Y-107100000D03*
X142600000Y-105300000D03*
X148250000Y-128500000D03*
X152000000Y-128500000D03*
X162250000Y-79500000D03*
X141600000Y-127000000D03*
X142900000Y-127000000D03*
X141600000Y-128300000D03*
X142900000Y-128300000D03*
X160000000Y-130500000D03*
X165000000Y-130750000D03*
X163500000Y-69750000D03*
X166500000Y-69750000D03*
X166500000Y-72000000D03*
X163500000Y-72000000D03*
X139700000Y-106200000D03*
X140800000Y-106200000D03*
X147100000Y-105300000D03*
X147100000Y-106600000D03*
X151000000Y-106600000D03*
X151000000Y-105300000D03*
X151000000Y-103300000D03*
X151000000Y-101000000D03*
X146100000Y-116000000D03*
X149100000Y-116000000D03*
X138800000Y-93700000D03*
X140500000Y-93700000D03*
X144400000Y-69100000D03*
X163400000Y-73500000D03*
X162100000Y-73100000D03*
X166300000Y-81800000D03*
X156500000Y-106500000D03*
X141600000Y-125700000D03*
X142900000Y-125700000D03*
X145900000Y-119600000D03*
X147400000Y-119600000D03*
X152600000Y-119600000D03*
X154100000Y-119600000D03*
X155600000Y-119600000D03*
X150000000Y-123200000D03*
X136975000Y-113775000D03*
X140600000Y-97500000D03*
X152500000Y-99200000D03*
X159100000Y-97900000D03*
X165000000Y-88700000D03*
X137500000Y-72600000D03*
X137500000Y-87300000D03*
X147500000Y-99200000D03*
X155400000Y-76200000D03*
X155400000Y-83700000D03*
X140400000Y-83700000D03*
X140400000Y-76200000D03*
X165100000Y-92900000D03*
X166700000Y-77700000D03*
X166700000Y-75300000D03*
X166800000Y-85000000D03*
X169100000Y-85000000D03*
X166800000Y-94000000D03*
X169100000Y-94000000D03*
X166800000Y-103000000D03*
X169100000Y-103000000D03*
X166400000Y-108300000D03*
X168000000Y-110000000D03*
X160900000Y-114000000D03*
X162200000Y-115500000D03*
X157200000Y-116400000D03*
X157200000Y-118700000D03*
X167300000Y-115500000D03*
X165400000Y-113900000D03*
X138000000Y-122000000D03*
X131500000Y-122000000D03*
X131100000Y-108000000D03*
X137000000Y-97500000D03*
X132000000Y-95900000D03*
X154200000Y-94000000D03*
X148600000Y-94000000D03*
X161500000Y-96000000D03*
X161500000Y-102000000D03*
X145800000Y-124100000D03*
X153300000Y-123700000D03*
%TO.N,+3V3*%
X138900000Y-89900000D03*
X166300000Y-80300000D03*
X142000000Y-91200000D03*
X138900000Y-87300000D03*
X137600000Y-69100000D03*
X153500000Y-113500000D03*
X153500000Y-112000000D03*
X159500000Y-112000000D03*
X159500000Y-113500000D03*
X159500000Y-110500000D03*
X153500000Y-110600000D03*
X153500000Y-108500000D03*
X156500000Y-108500000D03*
X159500000Y-108500000D03*
X153500000Y-106500000D03*
X159500000Y-106500000D03*
X140000000Y-113300000D03*
X135000000Y-124400000D03*
%TO.N,/MODULE_TX*%
X168500000Y-112100000D03*
X153900000Y-90900000D03*
%TO.N,/I2C_SDA*%
X164000003Y-108000000D03*
%TO.N,/I2C_SCL*%
X163000000Y-108000000D03*
%TO.N,VBUS*%
X144400000Y-119600000D03*
X135000000Y-102400000D03*
%TO.N,Net-(C6-Pad1)*%
X150000000Y-121100000D03*
X147006250Y-123493750D03*
%TO.N,/EN*%
X140250000Y-73000000D03*
X149750000Y-95750000D03*
%TO.N,/IO0*%
X147500000Y-95500000D03*
X142250000Y-87000000D03*
%TO.N,Net-(C12-Pad2)*%
X149000000Y-102500000D03*
X145700000Y-110400000D03*
%TD*%
D17*
%TO.N,GND*%
X159100000Y-97900000D02*
X159200000Y-97800000D01*
D18*
%TO.N,/MODULE_TX*%
X155000000Y-90900000D02*
X153900000Y-90900000D01*
X168500000Y-112100000D02*
X165400000Y-109000000D01*
X165400000Y-101300000D02*
X155000000Y-90900000D01*
X165400000Y-109000000D02*
X165400000Y-101300000D01*
%TO.N,/I2C_SDA*%
X164000003Y-108000000D02*
X164000003Y-124899997D01*
X164000003Y-124899997D02*
X160900000Y-128000000D01*
X160900000Y-128000000D02*
X159200000Y-128000000D01*
X158000000Y-126800000D02*
X158000000Y-126250000D01*
X159200000Y-128000000D02*
X158000000Y-126800000D01*
%TO.N,/I2C_SCL*%
X163000000Y-123250000D02*
X160000000Y-126250000D01*
X163000000Y-108000000D02*
X163000000Y-123250000D01*
D17*
%TO.N,VBUS*%
X144400000Y-119600000D02*
X141000000Y-119600000D01*
X141000000Y-119600000D02*
X135000000Y-113600000D01*
X135000000Y-113600000D02*
X135000000Y-102400000D01*
%TO.N,Net-(C6-Pad1)*%
X149400000Y-121100000D02*
X147006250Y-123493750D01*
X150000000Y-121100000D02*
X149400000Y-121100000D01*
D18*
%TO.N,/EN*%
X149750000Y-95750000D02*
X149750000Y-78550000D01*
X144200000Y-73000000D02*
X149750000Y-78550000D01*
X140250000Y-73000000D02*
X144200000Y-73000000D01*
%TO.N,/IO0*%
X147500000Y-95500000D02*
X147500000Y-92250000D01*
X147500000Y-92250000D02*
X147500000Y-88250000D01*
X147500000Y-88250000D02*
X146250000Y-87000000D01*
X146250000Y-87000000D02*
X142250000Y-87000000D01*
%TO.N,Net-(C12-Pad2)*%
X149000000Y-107100000D02*
X145700000Y-110400000D01*
X149000000Y-102500000D02*
X149000000Y-107100000D01*
%TD*%
%TA.AperFunction,Conductor*%
%TO.N,GND*%
G36*
X168696740Y-68531239D02*
G01*
X168864699Y-68650412D01*
X168875740Y-68659216D01*
X168960239Y-68734729D01*
X169116044Y-68873965D01*
X169126034Y-68883955D01*
X169340784Y-69124260D01*
X169349588Y-69135301D01*
X169468761Y-69303260D01*
X169492000Y-69376172D01*
X169492000Y-111530957D01*
X169471998Y-111599078D01*
X169418342Y-111645571D01*
X169348068Y-111655675D01*
X169283488Y-111626181D01*
X169256881Y-111593958D01*
X169239040Y-111563056D01*
X169111253Y-111421134D01*
X169012157Y-111349136D01*
X168962094Y-111312763D01*
X168962093Y-111312762D01*
X168956752Y-111308882D01*
X168950724Y-111306198D01*
X168950722Y-111306197D01*
X168788319Y-111233891D01*
X168788318Y-111233891D01*
X168782288Y-111231206D01*
X168688888Y-111211353D01*
X168601944Y-111192872D01*
X168601939Y-111192872D01*
X168595487Y-111191500D01*
X168539594Y-111191500D01*
X168471473Y-111171498D01*
X168450499Y-111154595D01*
X166070405Y-108774500D01*
X166036379Y-108712188D01*
X166033500Y-108685405D01*
X166033500Y-101378767D01*
X166034027Y-101367584D01*
X166035702Y-101360091D01*
X166033562Y-101292014D01*
X166033500Y-101288055D01*
X166033500Y-101260144D01*
X166032995Y-101256144D01*
X166032062Y-101244301D01*
X166030922Y-101208030D01*
X166030673Y-101200111D01*
X166025021Y-101180657D01*
X166021013Y-101161300D01*
X166019468Y-101149070D01*
X166019468Y-101149069D01*
X166018474Y-101141203D01*
X166015555Y-101133830D01*
X166002196Y-101100088D01*
X165998351Y-101088858D01*
X165988229Y-101054017D01*
X165988229Y-101054016D01*
X165986018Y-101046407D01*
X165981985Y-101039588D01*
X165981983Y-101039583D01*
X165975707Y-101028972D01*
X165967012Y-101011224D01*
X165959552Y-100992383D01*
X165933564Y-100956613D01*
X165927048Y-100946693D01*
X165908580Y-100915465D01*
X165908578Y-100915462D01*
X165904542Y-100908638D01*
X165890221Y-100894317D01*
X165877380Y-100879283D01*
X165870131Y-100869306D01*
X165865472Y-100862893D01*
X165831395Y-100834702D01*
X165822616Y-100826712D01*
X155503652Y-90507747D01*
X155496112Y-90499461D01*
X155492000Y-90492982D01*
X155442348Y-90446356D01*
X155439507Y-90443602D01*
X155419770Y-90423865D01*
X155416573Y-90421385D01*
X155407551Y-90413680D01*
X155375321Y-90383414D01*
X155368375Y-90379595D01*
X155368372Y-90379593D01*
X155357566Y-90373652D01*
X155341047Y-90362801D01*
X155335048Y-90358148D01*
X155325041Y-90350386D01*
X155317772Y-90347241D01*
X155317768Y-90347238D01*
X155284463Y-90332826D01*
X155273813Y-90327609D01*
X155235060Y-90306305D01*
X155215437Y-90301267D01*
X155196734Y-90294863D01*
X155185420Y-90289967D01*
X155185419Y-90289967D01*
X155178145Y-90286819D01*
X155170322Y-90285580D01*
X155170312Y-90285577D01*
X155134476Y-90279901D01*
X155122856Y-90277495D01*
X155087711Y-90268472D01*
X155087710Y-90268472D01*
X155080030Y-90266500D01*
X155059776Y-90266500D01*
X155040065Y-90264949D01*
X155027886Y-90263020D01*
X155020057Y-90261780D01*
X154983127Y-90265271D01*
X154976039Y-90265941D01*
X154964181Y-90266500D01*
X154608200Y-90266500D01*
X154540079Y-90246498D01*
X154520853Y-90230157D01*
X154520580Y-90230460D01*
X154515668Y-90226037D01*
X154511253Y-90221134D01*
X154356752Y-90108882D01*
X154350724Y-90106198D01*
X154350722Y-90106197D01*
X154188319Y-90033891D01*
X154188318Y-90033891D01*
X154182288Y-90031206D01*
X154088887Y-90011353D01*
X154001944Y-89992872D01*
X154001939Y-89992872D01*
X153995487Y-89991500D01*
X153804513Y-89991500D01*
X153798061Y-89992872D01*
X153798056Y-89992872D01*
X153711112Y-90011353D01*
X153617712Y-90031206D01*
X153611682Y-90033891D01*
X153611681Y-90033891D01*
X153449278Y-90106197D01*
X153449276Y-90106198D01*
X153443248Y-90108882D01*
X153288747Y-90221134D01*
X153284326Y-90226044D01*
X153284325Y-90226045D01*
X153175203Y-90347238D01*
X153160960Y-90363056D01*
X153065473Y-90528444D01*
X153006458Y-90710072D01*
X152986496Y-90900000D01*
X153006458Y-91089928D01*
X153065473Y-91271556D01*
X153160960Y-91436944D01*
X153288747Y-91578866D01*
X153443248Y-91691118D01*
X153449276Y-91693802D01*
X153449278Y-91693803D01*
X153533332Y-91731226D01*
X153617712Y-91768794D01*
X153711112Y-91788647D01*
X153798056Y-91807128D01*
X153798061Y-91807128D01*
X153804513Y-91808500D01*
X153995487Y-91808500D01*
X154001939Y-91807128D01*
X154001944Y-91807128D01*
X154088887Y-91788647D01*
X154182288Y-91768794D01*
X154266668Y-91731226D01*
X154350722Y-91693803D01*
X154350724Y-91693802D01*
X154356752Y-91691118D01*
X154511253Y-91578866D01*
X154515668Y-91573963D01*
X154520580Y-91569540D01*
X154521705Y-91570789D01*
X154575014Y-91537949D01*
X154608200Y-91533500D01*
X154685406Y-91533500D01*
X154753527Y-91553502D01*
X154774501Y-91570405D01*
X164729595Y-101525500D01*
X164763621Y-101587812D01*
X164766500Y-101614595D01*
X164766500Y-107186636D01*
X164746498Y-107254757D01*
X164692842Y-107301250D01*
X164622568Y-107311354D01*
X164566439Y-107288572D01*
X164462097Y-107212763D01*
X164462096Y-107212762D01*
X164456755Y-107208882D01*
X164450727Y-107206198D01*
X164450725Y-107206197D01*
X164288322Y-107133891D01*
X164288321Y-107133891D01*
X164282291Y-107131206D01*
X164188891Y-107111353D01*
X164101947Y-107092872D01*
X164101942Y-107092872D01*
X164095490Y-107091500D01*
X163904516Y-107091500D01*
X163898064Y-107092872D01*
X163898059Y-107092872D01*
X163811115Y-107111353D01*
X163717715Y-107131206D01*
X163711688Y-107133889D01*
X163711680Y-107133892D01*
X163551249Y-107205320D01*
X163480882Y-107214754D01*
X163448752Y-107205320D01*
X163288319Y-107133891D01*
X163288318Y-107133891D01*
X163282288Y-107131206D01*
X163188888Y-107111353D01*
X163101944Y-107092872D01*
X163101939Y-107092872D01*
X163095487Y-107091500D01*
X162904513Y-107091500D01*
X162898061Y-107092872D01*
X162898056Y-107092872D01*
X162811112Y-107111353D01*
X162717712Y-107131206D01*
X162711682Y-107133891D01*
X162711681Y-107133891D01*
X162549278Y-107206197D01*
X162549276Y-107206198D01*
X162543248Y-107208882D01*
X162537907Y-107212762D01*
X162537906Y-107212763D01*
X162516093Y-107228611D01*
X162388747Y-107321134D01*
X162384326Y-107326044D01*
X162384325Y-107326045D01*
X162341325Y-107373802D01*
X162260960Y-107463056D01*
X162230057Y-107516581D01*
X162186011Y-107592872D01*
X162165473Y-107628444D01*
X162106458Y-107810072D01*
X162086496Y-108000000D01*
X162106458Y-108189928D01*
X162165473Y-108371556D01*
X162260960Y-108536944D01*
X162334137Y-108618215D01*
X162364853Y-108682221D01*
X162366500Y-108702524D01*
X162366500Y-122935406D01*
X162346498Y-123003527D01*
X162329595Y-123024501D01*
X160465957Y-124888139D01*
X160403645Y-124922165D01*
X160335529Y-124918072D01*
X160269394Y-124895106D01*
X160269392Y-124895105D01*
X160263729Y-124893139D01*
X160257794Y-124892278D01*
X160257792Y-124892278D01*
X160060336Y-124863648D01*
X160060333Y-124863648D01*
X160054396Y-124862787D01*
X159843101Y-124872567D01*
X159711923Y-124904181D01*
X159643299Y-124920719D01*
X159643297Y-124920720D01*
X159637466Y-124922125D01*
X159632008Y-124924607D01*
X159632004Y-124924608D01*
X159516959Y-124976916D01*
X159444913Y-125009674D01*
X159272389Y-125132054D01*
X159268247Y-125136381D01*
X159268241Y-125136386D01*
X159181194Y-125227317D01*
X159119639Y-125262694D01*
X159048730Y-125259175D01*
X158990979Y-125217879D01*
X158983032Y-125206491D01*
X158948478Y-125150652D01*
X158823303Y-125025695D01*
X158786286Y-125002877D01*
X158678968Y-124936725D01*
X158678966Y-124936724D01*
X158672738Y-124932885D01*
X158550311Y-124892278D01*
X158511389Y-124879368D01*
X158511387Y-124879368D01*
X158504861Y-124877203D01*
X158498025Y-124876503D01*
X158498022Y-124876502D01*
X158454969Y-124872091D01*
X158400400Y-124866500D01*
X157599600Y-124866500D01*
X157596354Y-124866837D01*
X157596350Y-124866837D01*
X157500692Y-124876762D01*
X157500688Y-124876763D01*
X157493834Y-124877474D01*
X157487298Y-124879655D01*
X157487296Y-124879655D01*
X157372147Y-124918072D01*
X157326054Y-124933450D01*
X157175652Y-125026522D01*
X157050695Y-125151697D01*
X157046855Y-125157927D01*
X157046854Y-125157928D01*
X157009900Y-125217879D01*
X156957885Y-125302262D01*
X156902203Y-125470139D01*
X156891500Y-125574600D01*
X156891500Y-126925400D01*
X156891837Y-126928646D01*
X156891837Y-126928650D01*
X156899307Y-127000639D01*
X156902474Y-127031166D01*
X156904655Y-127037702D01*
X156904655Y-127037704D01*
X156916967Y-127074608D01*
X156958450Y-127198946D01*
X157051522Y-127349348D01*
X157176697Y-127474305D01*
X157182927Y-127478145D01*
X157182928Y-127478146D01*
X157320090Y-127562694D01*
X157327262Y-127567115D01*
X157352217Y-127575392D01*
X157488611Y-127620632D01*
X157488613Y-127620632D01*
X157495139Y-127622797D01*
X157501975Y-127623497D01*
X157501978Y-127623498D01*
X157540386Y-127627433D01*
X157599600Y-127633500D01*
X157885406Y-127633500D01*
X157953527Y-127653502D01*
X157974501Y-127670405D01*
X158696343Y-128392247D01*
X158703887Y-128400537D01*
X158708000Y-128407018D01*
X158713777Y-128412443D01*
X158757667Y-128453658D01*
X158760509Y-128456413D01*
X158780230Y-128476134D01*
X158783425Y-128478612D01*
X158792447Y-128486318D01*
X158824679Y-128516586D01*
X158831628Y-128520406D01*
X158842432Y-128526346D01*
X158858956Y-128537199D01*
X158874959Y-128549613D01*
X158915543Y-128567176D01*
X158926173Y-128572383D01*
X158964940Y-128593695D01*
X158972617Y-128595666D01*
X158972622Y-128595668D01*
X158984558Y-128598732D01*
X159003266Y-128605137D01*
X159021855Y-128613181D01*
X159029683Y-128614421D01*
X159029690Y-128614423D01*
X159065524Y-128620099D01*
X159077144Y-128622505D01*
X159108959Y-128630673D01*
X159119970Y-128633500D01*
X159140224Y-128633500D01*
X159159934Y-128635051D01*
X159179943Y-128638220D01*
X159187835Y-128637474D01*
X159206580Y-128635702D01*
X159223962Y-128634059D01*
X159235819Y-128633500D01*
X160821233Y-128633500D01*
X160832416Y-128634027D01*
X160839909Y-128635702D01*
X160847835Y-128635453D01*
X160847836Y-128635453D01*
X160907986Y-128633562D01*
X160911945Y-128633500D01*
X160939856Y-128633500D01*
X160943791Y-128633003D01*
X160943856Y-128632995D01*
X160955693Y-128632062D01*
X160987951Y-128631048D01*
X160991970Y-128630922D01*
X160999889Y-128630673D01*
X161019343Y-128625021D01*
X161038700Y-128621013D01*
X161050930Y-128619468D01*
X161050931Y-128619468D01*
X161058797Y-128618474D01*
X161066168Y-128615555D01*
X161066170Y-128615555D01*
X161099912Y-128602196D01*
X161111142Y-128598351D01*
X161145983Y-128588229D01*
X161145984Y-128588229D01*
X161153593Y-128586018D01*
X161160412Y-128581985D01*
X161160417Y-128581983D01*
X161171028Y-128575707D01*
X161188776Y-128567012D01*
X161207617Y-128559552D01*
X161227987Y-128544753D01*
X161243387Y-128533564D01*
X161253307Y-128527048D01*
X161284535Y-128508580D01*
X161284538Y-128508578D01*
X161291362Y-128504542D01*
X161305683Y-128490221D01*
X161320717Y-128477380D01*
X161322432Y-128476134D01*
X161337107Y-128465472D01*
X161365298Y-128431395D01*
X161373288Y-128422616D01*
X163676405Y-126119499D01*
X163738717Y-126085473D01*
X163809532Y-126090538D01*
X163866368Y-126133085D01*
X163891179Y-126199605D01*
X163891500Y-126208594D01*
X163891500Y-126925400D01*
X163891837Y-126928646D01*
X163891837Y-126928650D01*
X163899307Y-127000639D01*
X163902474Y-127031166D01*
X163904655Y-127037702D01*
X163904655Y-127037704D01*
X163916967Y-127074608D01*
X163958450Y-127198946D01*
X164051522Y-127349348D01*
X164176697Y-127474305D01*
X164182927Y-127478145D01*
X164182928Y-127478146D01*
X164320090Y-127562694D01*
X164327262Y-127567115D01*
X164352217Y-127575392D01*
X164488611Y-127620632D01*
X164488613Y-127620632D01*
X164495139Y-127622797D01*
X164501975Y-127623497D01*
X164501978Y-127623498D01*
X164540386Y-127627433D01*
X164599600Y-127633500D01*
X165400400Y-127633500D01*
X165403646Y-127633163D01*
X165403650Y-127633163D01*
X165499308Y-127623238D01*
X165499312Y-127623237D01*
X165506166Y-127622526D01*
X165512702Y-127620345D01*
X165512704Y-127620345D01*
X165647443Y-127575392D01*
X165673946Y-127566550D01*
X165824348Y-127473478D01*
X165949305Y-127348303D01*
X165981075Y-127296764D01*
X166033846Y-127249271D01*
X166103918Y-127237847D01*
X166169042Y-127266121D01*
X166187418Y-127285045D01*
X166193604Y-127292920D01*
X166198135Y-127296852D01*
X166198138Y-127296855D01*
X166284058Y-127371412D01*
X166353363Y-127431552D01*
X166358549Y-127434552D01*
X166358553Y-127434555D01*
X166507656Y-127520813D01*
X166536454Y-127537473D01*
X166736271Y-127606861D01*
X166742206Y-127607722D01*
X166742208Y-127607722D01*
X166939664Y-127636352D01*
X166939667Y-127636352D01*
X166945604Y-127637213D01*
X167156899Y-127627433D01*
X167288077Y-127595819D01*
X167356701Y-127579281D01*
X167356703Y-127579280D01*
X167362534Y-127577875D01*
X167367992Y-127575393D01*
X167367996Y-127575392D01*
X167505084Y-127513061D01*
X167555087Y-127490326D01*
X167727611Y-127367946D01*
X167852260Y-127237736D01*
X167869736Y-127219480D01*
X167873881Y-127215150D01*
X167988620Y-127037452D01*
X168035094Y-126922134D01*
X168065442Y-126846832D01*
X168065443Y-126846829D01*
X168067686Y-126841263D01*
X168108228Y-126633663D01*
X168108500Y-126628101D01*
X168108500Y-125922154D01*
X168093452Y-125764434D01*
X168033908Y-125561466D01*
X167986872Y-125470139D01*
X167939804Y-125378751D01*
X167939802Y-125378748D01*
X167937058Y-125373420D01*
X167806396Y-125207080D01*
X167801865Y-125203148D01*
X167801862Y-125203145D01*
X167651167Y-125072379D01*
X167646637Y-125068448D01*
X167641451Y-125065448D01*
X167641447Y-125065445D01*
X167468742Y-124965533D01*
X167463546Y-124962527D01*
X167263729Y-124893139D01*
X167257794Y-124892278D01*
X167257792Y-124892278D01*
X167060336Y-124863648D01*
X167060333Y-124863648D01*
X167054396Y-124862787D01*
X166843101Y-124872567D01*
X166711923Y-124904181D01*
X166643299Y-124920719D01*
X166643297Y-124920720D01*
X166637466Y-124922125D01*
X166632008Y-124924607D01*
X166632004Y-124924608D01*
X166516959Y-124976916D01*
X166444913Y-125009674D01*
X166272389Y-125132054D01*
X166268247Y-125136381D01*
X166268241Y-125136386D01*
X166181194Y-125227317D01*
X166119639Y-125262694D01*
X166048730Y-125259175D01*
X165990979Y-125217879D01*
X165983032Y-125206491D01*
X165948478Y-125150652D01*
X165823303Y-125025695D01*
X165786286Y-125002877D01*
X165678968Y-124936725D01*
X165678966Y-124936724D01*
X165672738Y-124932885D01*
X165550311Y-124892278D01*
X165511389Y-124879368D01*
X165511387Y-124879368D01*
X165504861Y-124877203D01*
X165498025Y-124876503D01*
X165498022Y-124876502D01*
X165454969Y-124872091D01*
X165400400Y-124866500D01*
X164759503Y-124866500D01*
X164691382Y-124846498D01*
X164644889Y-124792842D01*
X164633503Y-124740500D01*
X164633503Y-109410570D01*
X164653505Y-109342449D01*
X164707161Y-109295956D01*
X164777435Y-109285852D01*
X164842015Y-109315346D01*
X164861442Y-109336513D01*
X164866438Y-109343390D01*
X164872952Y-109353307D01*
X164882923Y-109370166D01*
X164895458Y-109391362D01*
X164909779Y-109405683D01*
X164922619Y-109420716D01*
X164934528Y-109437107D01*
X164958006Y-109456530D01*
X164968605Y-109465298D01*
X164977384Y-109473288D01*
X167552878Y-112048783D01*
X167586904Y-112111095D01*
X167589093Y-112124706D01*
X167606458Y-112289928D01*
X167665473Y-112471556D01*
X167760960Y-112636944D01*
X167888747Y-112778866D01*
X168043248Y-112891118D01*
X168049276Y-112893802D01*
X168049278Y-112893803D01*
X168204824Y-112963056D01*
X168217712Y-112968794D01*
X168311112Y-112988647D01*
X168398056Y-113007128D01*
X168398061Y-113007128D01*
X168404513Y-113008500D01*
X168595487Y-113008500D01*
X168601939Y-113007128D01*
X168601944Y-113007128D01*
X168688888Y-112988647D01*
X168782288Y-112968794D01*
X168795176Y-112963056D01*
X168950722Y-112893803D01*
X168950724Y-112893802D01*
X168956752Y-112891118D01*
X169111253Y-112778866D01*
X169239040Y-112636944D01*
X169256882Y-112606041D01*
X169308264Y-112557049D01*
X169377978Y-112543614D01*
X169443889Y-112570001D01*
X169485070Y-112627833D01*
X169492000Y-112669043D01*
X169492000Y-131623828D01*
X169468761Y-131696740D01*
X169349588Y-131864699D01*
X169340784Y-131875740D01*
X169126035Y-132116044D01*
X169116045Y-132126034D01*
X168875740Y-132340784D01*
X168864699Y-132349588D01*
X168696740Y-132468761D01*
X168623828Y-132492000D01*
X131376172Y-132492000D01*
X131303260Y-132468761D01*
X131135301Y-132349588D01*
X131124260Y-132340784D01*
X130883955Y-132126034D01*
X130873965Y-132116044D01*
X130659216Y-131875740D01*
X130650412Y-131864699D01*
X130531239Y-131696740D01*
X130508000Y-131623828D01*
X130508000Y-130716695D01*
X138347251Y-130716695D01*
X138347548Y-130721848D01*
X138347548Y-130721851D01*
X138352212Y-130802736D01*
X138360110Y-130939715D01*
X138361247Y-130944761D01*
X138361248Y-130944767D01*
X138375606Y-131008475D01*
X138409222Y-131157639D01*
X138493266Y-131364616D01*
X138495965Y-131369020D01*
X138597186Y-131534198D01*
X138609987Y-131555088D01*
X138756250Y-131723938D01*
X138928126Y-131866632D01*
X139121000Y-131979338D01*
X139329692Y-132059030D01*
X139334760Y-132060061D01*
X139334763Y-132060062D01*
X139442017Y-132081883D01*
X139548597Y-132103567D01*
X139553772Y-132103757D01*
X139553774Y-132103757D01*
X139766673Y-132111564D01*
X139766677Y-132111564D01*
X139771837Y-132111753D01*
X139776957Y-132111097D01*
X139776959Y-132111097D01*
X139988288Y-132084025D01*
X139988289Y-132084025D01*
X139993416Y-132083368D01*
X139998366Y-132081883D01*
X140202429Y-132020661D01*
X140202434Y-132020659D01*
X140207384Y-132019174D01*
X140407994Y-131920896D01*
X140589860Y-131791173D01*
X140657331Y-131723938D01*
X140698479Y-131682933D01*
X140760851Y-131649017D01*
X140831658Y-131654205D01*
X140888419Y-131696851D01*
X140905401Y-131727954D01*
X140946676Y-131838054D01*
X140955214Y-131853649D01*
X141031715Y-131955724D01*
X141044276Y-131968285D01*
X141146351Y-132044786D01*
X141161946Y-132053324D01*
X141282394Y-132098478D01*
X141297649Y-132102105D01*
X141348514Y-132107631D01*
X141355328Y-132108000D01*
X141977885Y-132108000D01*
X141993124Y-132103525D01*
X141994329Y-132102135D01*
X141996000Y-132094452D01*
X141996000Y-132089884D01*
X142504000Y-132089884D01*
X142508475Y-132105123D01*
X142509865Y-132106328D01*
X142517548Y-132107999D01*
X143144669Y-132107999D01*
X143151490Y-132107629D01*
X143202352Y-132102105D01*
X143217604Y-132098479D01*
X143338054Y-132053324D01*
X143353649Y-132044786D01*
X143455724Y-131968285D01*
X143468285Y-131955724D01*
X143544786Y-131853649D01*
X143553324Y-131838054D01*
X143598478Y-131717606D01*
X143602105Y-131702351D01*
X143607631Y-131651486D01*
X143608000Y-131644672D01*
X143608000Y-131022115D01*
X143603525Y-131006876D01*
X143602135Y-131005671D01*
X143594452Y-131004000D01*
X142522115Y-131004000D01*
X142506876Y-131008475D01*
X142505671Y-131009865D01*
X142504000Y-131017548D01*
X142504000Y-132089884D01*
X141996000Y-132089884D01*
X141996000Y-130649769D01*
X144671500Y-130649769D01*
X144671800Y-130652825D01*
X144671800Y-130652832D01*
X144672530Y-130660273D01*
X144685920Y-130796833D01*
X144743084Y-130986169D01*
X144835934Y-131160796D01*
X144906291Y-131247062D01*
X144957040Y-131309287D01*
X144957043Y-131309290D01*
X144960935Y-131314062D01*
X144965682Y-131317989D01*
X144965684Y-131317991D01*
X145108575Y-131436201D01*
X145108579Y-131436203D01*
X145113325Y-131440130D01*
X145287299Y-131534198D01*
X145476232Y-131592682D01*
X145482357Y-131593326D01*
X145482358Y-131593326D01*
X145666796Y-131612711D01*
X145666798Y-131612711D01*
X145672925Y-131613355D01*
X145755424Y-131605847D01*
X145863749Y-131595989D01*
X145863752Y-131595988D01*
X145869888Y-131595430D01*
X145875794Y-131593692D01*
X145875798Y-131593691D01*
X146021907Y-131550689D01*
X146059619Y-131539590D01*
X146065077Y-131536737D01*
X146065081Y-131536735D01*
X146155853Y-131489280D01*
X146234890Y-131447960D01*
X146389025Y-131324032D01*
X146516154Y-131172526D01*
X146519121Y-131167128D01*
X146519125Y-131167123D01*
X146608467Y-131004608D01*
X146611433Y-130999213D01*
X146613846Y-130991608D01*
X146669373Y-130816564D01*
X146669373Y-130816563D01*
X146671235Y-130810694D01*
X146688500Y-130656773D01*
X146688500Y-130649769D01*
X153311500Y-130649769D01*
X153311800Y-130652825D01*
X153311800Y-130652832D01*
X153312530Y-130660273D01*
X153325920Y-130796833D01*
X153383084Y-130986169D01*
X153475934Y-131160796D01*
X153546291Y-131247062D01*
X153597040Y-131309287D01*
X153597043Y-131309290D01*
X153600935Y-131314062D01*
X153605682Y-131317989D01*
X153605684Y-131317991D01*
X153748575Y-131436201D01*
X153748579Y-131436203D01*
X153753325Y-131440130D01*
X153927299Y-131534198D01*
X154116232Y-131592682D01*
X154122357Y-131593326D01*
X154122358Y-131593326D01*
X154306796Y-131612711D01*
X154306798Y-131612711D01*
X154312925Y-131613355D01*
X154395424Y-131605847D01*
X154503749Y-131595989D01*
X154503752Y-131595988D01*
X154509888Y-131595430D01*
X154515794Y-131593692D01*
X154515798Y-131593691D01*
X154661907Y-131550689D01*
X154699619Y-131539590D01*
X154705077Y-131536737D01*
X154705081Y-131536735D01*
X154795853Y-131489280D01*
X154874890Y-131447960D01*
X155029025Y-131324032D01*
X155156154Y-131172526D01*
X155159121Y-131167128D01*
X155159125Y-131167123D01*
X155248467Y-131004608D01*
X155251433Y-130999213D01*
X155253846Y-130991608D01*
X155309373Y-130816564D01*
X155309373Y-130816563D01*
X155311235Y-130810694D01*
X155328500Y-130656773D01*
X155328500Y-129950231D01*
X155327814Y-129943227D01*
X155317552Y-129838578D01*
X155314080Y-129803167D01*
X155256916Y-129613831D01*
X155164066Y-129439204D01*
X155093709Y-129352938D01*
X155042960Y-129290713D01*
X155042957Y-129290710D01*
X155039065Y-129285938D01*
X155032724Y-129280692D01*
X154891425Y-129163799D01*
X154891421Y-129163797D01*
X154886675Y-129159870D01*
X154712701Y-129065802D01*
X154523768Y-129007318D01*
X154517643Y-129006674D01*
X154517642Y-129006674D01*
X154333204Y-128987289D01*
X154333202Y-128987289D01*
X154327075Y-128986645D01*
X154244576Y-128994153D01*
X154136251Y-129004011D01*
X154136248Y-129004012D01*
X154130112Y-129004570D01*
X154124206Y-129006308D01*
X154124202Y-129006309D01*
X154019076Y-129037249D01*
X153940381Y-129060410D01*
X153934923Y-129063263D01*
X153934919Y-129063265D01*
X153844147Y-129110720D01*
X153765110Y-129152040D01*
X153610975Y-129275968D01*
X153483846Y-129427474D01*
X153480879Y-129432872D01*
X153480875Y-129432877D01*
X153426539Y-129531715D01*
X153388567Y-129600787D01*
X153386706Y-129606654D01*
X153386705Y-129606656D01*
X153346191Y-129734373D01*
X153328765Y-129789306D01*
X153311500Y-129943227D01*
X153311500Y-130649769D01*
X146688500Y-130649769D01*
X146688500Y-129950231D01*
X146687814Y-129943227D01*
X146677552Y-129838578D01*
X146674080Y-129803167D01*
X146616916Y-129613831D01*
X146524066Y-129439204D01*
X146453709Y-129352938D01*
X146402960Y-129290713D01*
X146402957Y-129290710D01*
X146399065Y-129285938D01*
X146392724Y-129280692D01*
X146251425Y-129163799D01*
X146251421Y-129163797D01*
X146246675Y-129159870D01*
X146072701Y-129065802D01*
X145883768Y-129007318D01*
X145877643Y-129006674D01*
X145877642Y-129006674D01*
X145693204Y-128987289D01*
X145693202Y-128987289D01*
X145687075Y-128986645D01*
X145604576Y-128994153D01*
X145496251Y-129004011D01*
X145496248Y-129004012D01*
X145490112Y-129004570D01*
X145484206Y-129006308D01*
X145484202Y-129006309D01*
X145379076Y-129037249D01*
X145300381Y-129060410D01*
X145294923Y-129063263D01*
X145294919Y-129063265D01*
X145204147Y-129110720D01*
X145125110Y-129152040D01*
X144970975Y-129275968D01*
X144843846Y-129427474D01*
X144840879Y-129432872D01*
X144840875Y-129432877D01*
X144786539Y-129531715D01*
X144748567Y-129600787D01*
X144746706Y-129606654D01*
X144746705Y-129606656D01*
X144706191Y-129734373D01*
X144688765Y-129789306D01*
X144671500Y-129943227D01*
X144671500Y-130649769D01*
X141996000Y-130649769D01*
X141996000Y-130477885D01*
X142504000Y-130477885D01*
X142508475Y-130493124D01*
X142509865Y-130494329D01*
X142517548Y-130496000D01*
X143589884Y-130496000D01*
X143605123Y-130491525D01*
X143606328Y-130490135D01*
X143607999Y-130482452D01*
X143607999Y-129855331D01*
X143607629Y-129848510D01*
X143602105Y-129797648D01*
X143598479Y-129782396D01*
X143553324Y-129661946D01*
X143544786Y-129646351D01*
X143468285Y-129544276D01*
X143455724Y-129531715D01*
X143353649Y-129455214D01*
X143338054Y-129446676D01*
X143217606Y-129401522D01*
X143202351Y-129397895D01*
X143151486Y-129392369D01*
X143144672Y-129392000D01*
X142522115Y-129392000D01*
X142506876Y-129396475D01*
X142505671Y-129397865D01*
X142504000Y-129405548D01*
X142504000Y-130477885D01*
X141996000Y-130477885D01*
X141996000Y-129410116D01*
X141991525Y-129394877D01*
X141990135Y-129393672D01*
X141982452Y-129392001D01*
X141355331Y-129392001D01*
X141348510Y-129392371D01*
X141297648Y-129397895D01*
X141282396Y-129401521D01*
X141161946Y-129446676D01*
X141146351Y-129455214D01*
X141044276Y-129531715D01*
X141031715Y-129544276D01*
X140955214Y-129646351D01*
X140946676Y-129661946D01*
X140905297Y-129772322D01*
X140862655Y-129829087D01*
X140796093Y-129853786D01*
X140726744Y-129838578D01*
X140694121Y-129812891D01*
X140643151Y-129756876D01*
X140643148Y-129756873D01*
X140639670Y-129753051D01*
X140635619Y-129749852D01*
X140635615Y-129749848D01*
X140468414Y-129617800D01*
X140468410Y-129617798D01*
X140464359Y-129614598D01*
X140439341Y-129600787D01*
X140336970Y-129544276D01*
X140268789Y-129506638D01*
X140263920Y-129504914D01*
X140263916Y-129504912D01*
X140063087Y-129433795D01*
X140063083Y-129433794D01*
X140058212Y-129432069D01*
X140053119Y-129431162D01*
X140053116Y-129431161D01*
X139843373Y-129393800D01*
X139843367Y-129393799D01*
X139838284Y-129392894D01*
X139764452Y-129391992D01*
X139620081Y-129390228D01*
X139620079Y-129390228D01*
X139614911Y-129390165D01*
X139394091Y-129423955D01*
X139181756Y-129493357D01*
X138983607Y-129596507D01*
X138979474Y-129599610D01*
X138979471Y-129599612D01*
X138896450Y-129661946D01*
X138804965Y-129730635D01*
X138650629Y-129892138D01*
X138647715Y-129896410D01*
X138647714Y-129896411D01*
X138613090Y-129947168D01*
X138524743Y-130076680D01*
X138430688Y-130279305D01*
X138370989Y-130494570D01*
X138347251Y-130716695D01*
X130508000Y-130716695D01*
X130508000Y-126925400D01*
X131891500Y-126925400D01*
X131891837Y-126928646D01*
X131891837Y-126928650D01*
X131899307Y-127000639D01*
X131902474Y-127031166D01*
X131904655Y-127037702D01*
X131904655Y-127037704D01*
X131916967Y-127074608D01*
X131958450Y-127198946D01*
X132051522Y-127349348D01*
X132176697Y-127474305D01*
X132182927Y-127478145D01*
X132182928Y-127478146D01*
X132320090Y-127562694D01*
X132327262Y-127567115D01*
X132352217Y-127575392D01*
X132488611Y-127620632D01*
X132488613Y-127620632D01*
X132495139Y-127622797D01*
X132501975Y-127623497D01*
X132501978Y-127623498D01*
X132540386Y-127627433D01*
X132599600Y-127633500D01*
X133400400Y-127633500D01*
X133403646Y-127633163D01*
X133403650Y-127633163D01*
X133499308Y-127623238D01*
X133499312Y-127623237D01*
X133506166Y-127622526D01*
X133512702Y-127620345D01*
X133512704Y-127620345D01*
X133647443Y-127575392D01*
X133673946Y-127566550D01*
X133824348Y-127473478D01*
X133949305Y-127348303D01*
X133981075Y-127296764D01*
X134033846Y-127249271D01*
X134103918Y-127237847D01*
X134169042Y-127266121D01*
X134187418Y-127285045D01*
X134193604Y-127292920D01*
X134198135Y-127296852D01*
X134198138Y-127296855D01*
X134284058Y-127371412D01*
X134353363Y-127431552D01*
X134358549Y-127434552D01*
X134358553Y-127434555D01*
X134507656Y-127520813D01*
X134536454Y-127537473D01*
X134736271Y-127606861D01*
X134742206Y-127607722D01*
X134742208Y-127607722D01*
X134939664Y-127636352D01*
X134939667Y-127636352D01*
X134945604Y-127637213D01*
X135156899Y-127627433D01*
X135288077Y-127595819D01*
X135356701Y-127579281D01*
X135356703Y-127579280D01*
X135362534Y-127577875D01*
X135367992Y-127575393D01*
X135367996Y-127575392D01*
X135505084Y-127513061D01*
X135555087Y-127490326D01*
X135727611Y-127367946D01*
X135852260Y-127237736D01*
X135869736Y-127219480D01*
X135873881Y-127215150D01*
X135988620Y-127037452D01*
X136035094Y-126922134D01*
X136065442Y-126846832D01*
X136065443Y-126846829D01*
X136067686Y-126841263D01*
X136091412Y-126719769D01*
X144671500Y-126719769D01*
X144671800Y-126722825D01*
X144671800Y-126722832D01*
X144672530Y-126730273D01*
X144685920Y-126866833D01*
X144743084Y-127056169D01*
X144835934Y-127230796D01*
X144900421Y-127309865D01*
X144957040Y-127379287D01*
X144957043Y-127379290D01*
X144960935Y-127384062D01*
X144965682Y-127387989D01*
X144965684Y-127387991D01*
X145108575Y-127506201D01*
X145108579Y-127506203D01*
X145113325Y-127510130D01*
X145287299Y-127604198D01*
X145476232Y-127662682D01*
X145482357Y-127663326D01*
X145482358Y-127663326D01*
X145666796Y-127682711D01*
X145666798Y-127682711D01*
X145672925Y-127683355D01*
X145755424Y-127675847D01*
X145863749Y-127665989D01*
X145863752Y-127665988D01*
X145869888Y-127665430D01*
X145875794Y-127663692D01*
X145875798Y-127663691D01*
X145980924Y-127632751D01*
X146059619Y-127609590D01*
X146065077Y-127606737D01*
X146065081Y-127606735D01*
X146155853Y-127559280D01*
X146234890Y-127517960D01*
X146389025Y-127394032D01*
X146437400Y-127336381D01*
X146496507Y-127297056D01*
X146567494Y-127295930D01*
X146610448Y-127317278D01*
X146670257Y-127363006D01*
X146670261Y-127363009D01*
X146675678Y-127367150D01*
X146762372Y-127407576D01*
X146833631Y-127440805D01*
X146833634Y-127440806D01*
X146839808Y-127443685D01*
X146846456Y-127445171D01*
X146846459Y-127445172D01*
X146949911Y-127468296D01*
X147016543Y-127483190D01*
X147022088Y-127483500D01*
X147155244Y-127483500D01*
X147290037Y-127468857D01*
X147412566Y-127427621D01*
X147455204Y-127413272D01*
X147455206Y-127413271D01*
X147461675Y-127411094D01*
X147616905Y-127317823D01*
X147621862Y-127313135D01*
X147621865Y-127313133D01*
X147743527Y-127198082D01*
X147743529Y-127198080D01*
X147748485Y-127193393D01*
X147752317Y-127187755D01*
X147752320Y-127187751D01*
X147846442Y-127049255D01*
X147850277Y-127043612D01*
X147917530Y-126875466D01*
X147918644Y-126868738D01*
X147918645Y-126868734D01*
X147945993Y-126703539D01*
X147945993Y-126703536D01*
X147947108Y-126696802D01*
X147943508Y-126628101D01*
X147942203Y-126603198D01*
X152052892Y-126603198D01*
X152053249Y-126610015D01*
X152053249Y-126610019D01*
X152058840Y-126716687D01*
X152062370Y-126784047D01*
X152064181Y-126790620D01*
X152064181Y-126790623D01*
X152086799Y-126872736D01*
X152110461Y-126958641D01*
X152194922Y-127118836D01*
X152199327Y-127124049D01*
X152199330Y-127124053D01*
X152307406Y-127251943D01*
X152307410Y-127251947D01*
X152311813Y-127257157D01*
X152317237Y-127261304D01*
X152317238Y-127261305D01*
X152450257Y-127363006D01*
X152450261Y-127363009D01*
X152455678Y-127367150D01*
X152542372Y-127407576D01*
X152613631Y-127440805D01*
X152613634Y-127440806D01*
X152619808Y-127443685D01*
X152626456Y-127445171D01*
X152626459Y-127445172D01*
X152729911Y-127468296D01*
X152796543Y-127483190D01*
X152802088Y-127483500D01*
X152935244Y-127483500D01*
X153070037Y-127468857D01*
X153192566Y-127427621D01*
X153235204Y-127413272D01*
X153235206Y-127413271D01*
X153241675Y-127411094D01*
X153396905Y-127317823D01*
X153397329Y-127318528D01*
X153458520Y-127295238D01*
X153527993Y-127309865D01*
X153565992Y-127341218D01*
X153572623Y-127349348D01*
X153600935Y-127384062D01*
X153605682Y-127387989D01*
X153605684Y-127387991D01*
X153748575Y-127506201D01*
X153748579Y-127506203D01*
X153753325Y-127510130D01*
X153927299Y-127604198D01*
X154116232Y-127662682D01*
X154122357Y-127663326D01*
X154122358Y-127663326D01*
X154306796Y-127682711D01*
X154306798Y-127682711D01*
X154312925Y-127683355D01*
X154395424Y-127675847D01*
X154503749Y-127665989D01*
X154503752Y-127665988D01*
X154509888Y-127665430D01*
X154515794Y-127663692D01*
X154515798Y-127663691D01*
X154620924Y-127632751D01*
X154699619Y-127609590D01*
X154705077Y-127606737D01*
X154705081Y-127606735D01*
X154795853Y-127559280D01*
X154874890Y-127517960D01*
X155029025Y-127394032D01*
X155156154Y-127242526D01*
X155159121Y-127237128D01*
X155159125Y-127237123D01*
X155248467Y-127074608D01*
X155251433Y-127069213D01*
X155253846Y-127061608D01*
X155309373Y-126886564D01*
X155309373Y-126886563D01*
X155311235Y-126880694D01*
X155328500Y-126726773D01*
X155328500Y-125520231D01*
X155327814Y-125513227D01*
X155314681Y-125379301D01*
X155314080Y-125373167D01*
X155292673Y-125302262D01*
X155270045Y-125227317D01*
X155256916Y-125183831D01*
X155164066Y-125009204D01*
X155071010Y-124895106D01*
X155042960Y-124860713D01*
X155042957Y-124860710D01*
X155039065Y-124855938D01*
X155027654Y-124846498D01*
X154891425Y-124733799D01*
X154891421Y-124733797D01*
X154886675Y-124729870D01*
X154712701Y-124635802D01*
X154523768Y-124577318D01*
X154517643Y-124576674D01*
X154517642Y-124576674D01*
X154333204Y-124557289D01*
X154333202Y-124557289D01*
X154327075Y-124556645D01*
X154244576Y-124564153D01*
X154136251Y-124574011D01*
X154136248Y-124574012D01*
X154130112Y-124574570D01*
X154124206Y-124576308D01*
X154124202Y-124576309D01*
X154056598Y-124596206D01*
X153940381Y-124630410D01*
X153934923Y-124633263D01*
X153934919Y-124633265D01*
X153896170Y-124653523D01*
X153765110Y-124722040D01*
X153610975Y-124845968D01*
X153483846Y-124997474D01*
X153480879Y-125002872D01*
X153480875Y-125002877D01*
X153407479Y-125136386D01*
X153388567Y-125170787D01*
X153386706Y-125176654D01*
X153386705Y-125176656D01*
X153359412Y-125262694D01*
X153328765Y-125359306D01*
X153311500Y-125513227D01*
X153311500Y-125732862D01*
X153291498Y-125800983D01*
X153237842Y-125847476D01*
X153167568Y-125857580D01*
X153158014Y-125855828D01*
X152988494Y-125817936D01*
X152988495Y-125817936D01*
X152983457Y-125816810D01*
X152977912Y-125816500D01*
X152844756Y-125816500D01*
X152709963Y-125831143D01*
X152591810Y-125870906D01*
X152544796Y-125886728D01*
X152544794Y-125886729D01*
X152538325Y-125888906D01*
X152383095Y-125982177D01*
X152378138Y-125986865D01*
X152378135Y-125986867D01*
X152268507Y-126090538D01*
X152251515Y-126106607D01*
X152247683Y-126112245D01*
X152247680Y-126112249D01*
X152196740Y-126187205D01*
X152149723Y-126256388D01*
X152082470Y-126424534D01*
X152081356Y-126431262D01*
X152081355Y-126431266D01*
X152054844Y-126591405D01*
X152052892Y-126603198D01*
X147942203Y-126603198D01*
X147937987Y-126522766D01*
X147937630Y-126515953D01*
X147914304Y-126431266D01*
X147891352Y-126347941D01*
X147889539Y-126341359D01*
X147805078Y-126181164D01*
X147800673Y-126175951D01*
X147800670Y-126175947D01*
X147692594Y-126048057D01*
X147692590Y-126048053D01*
X147688187Y-126042843D01*
X147681073Y-126037404D01*
X147549743Y-125936994D01*
X147549739Y-125936991D01*
X147544322Y-125932850D01*
X147386478Y-125859246D01*
X147386369Y-125859195D01*
X147386366Y-125859194D01*
X147380192Y-125856315D01*
X147373544Y-125854829D01*
X147373541Y-125854828D01*
X147208494Y-125817936D01*
X147208495Y-125817936D01*
X147203457Y-125816810D01*
X147197912Y-125816500D01*
X147064756Y-125816500D01*
X146929963Y-125831143D01*
X146854688Y-125856476D01*
X146783747Y-125859246D01*
X146722568Y-125823223D01*
X146690577Y-125759842D01*
X146688500Y-125737057D01*
X146688500Y-125520231D01*
X146687814Y-125513227D01*
X146674681Y-125379301D01*
X146674080Y-125373167D01*
X146652673Y-125302262D01*
X146630045Y-125227317D01*
X146616916Y-125183831D01*
X146524066Y-125009204D01*
X146431010Y-124895106D01*
X146402960Y-124860713D01*
X146402957Y-124860710D01*
X146399065Y-124855938D01*
X146387654Y-124846498D01*
X146251425Y-124733799D01*
X146251421Y-124733797D01*
X146246675Y-124729870D01*
X146072701Y-124635802D01*
X145883768Y-124577318D01*
X145877643Y-124576674D01*
X145877642Y-124576674D01*
X145693204Y-124557289D01*
X145693202Y-124557289D01*
X145687075Y-124556645D01*
X145604576Y-124564153D01*
X145496251Y-124574011D01*
X145496248Y-124574012D01*
X145490112Y-124574570D01*
X145484206Y-124576308D01*
X145484202Y-124576309D01*
X145416598Y-124596206D01*
X145300381Y-124630410D01*
X145294923Y-124633263D01*
X145294919Y-124633265D01*
X145256170Y-124653523D01*
X145125110Y-124722040D01*
X144970975Y-124845968D01*
X144843846Y-124997474D01*
X144840879Y-125002872D01*
X144840875Y-125002877D01*
X144767479Y-125136386D01*
X144748567Y-125170787D01*
X144746706Y-125176654D01*
X144746705Y-125176656D01*
X144719412Y-125262694D01*
X144688765Y-125359306D01*
X144671500Y-125513227D01*
X144671500Y-126719769D01*
X136091412Y-126719769D01*
X136108228Y-126633663D01*
X136108500Y-126628101D01*
X136108500Y-125922154D01*
X136093452Y-125764434D01*
X136033908Y-125561466D01*
X135986872Y-125470139D01*
X135939804Y-125378751D01*
X135939802Y-125378748D01*
X135937058Y-125373420D01*
X135806396Y-125207080D01*
X135728963Y-125139887D01*
X135690624Y-125080136D01*
X135690674Y-125009140D01*
X135717908Y-124960415D01*
X135734617Y-124941857D01*
X135734621Y-124941852D01*
X135739040Y-124936944D01*
X135793796Y-124842104D01*
X135831223Y-124777279D01*
X135831224Y-124777278D01*
X135834527Y-124771556D01*
X135893542Y-124589928D01*
X135894868Y-124577318D01*
X135912814Y-124406565D01*
X135913504Y-124400000D01*
X135909285Y-124359859D01*
X135894232Y-124216635D01*
X135894232Y-124216633D01*
X135893542Y-124210072D01*
X135834527Y-124028444D01*
X135739040Y-123863056D01*
X135611253Y-123721134D01*
X135456752Y-123608882D01*
X135450724Y-123606198D01*
X135450722Y-123606197D01*
X135288319Y-123533891D01*
X135288318Y-123533891D01*
X135282288Y-123531206D01*
X135188887Y-123511353D01*
X135106075Y-123493750D01*
X146092746Y-123493750D01*
X146093436Y-123500315D01*
X146105255Y-123612763D01*
X146112708Y-123683678D01*
X146171723Y-123865306D01*
X146267210Y-124030694D01*
X146271628Y-124035601D01*
X146271629Y-124035602D01*
X146390575Y-124167705D01*
X146394997Y-124172616D01*
X146549498Y-124284868D01*
X146555526Y-124287552D01*
X146555528Y-124287553D01*
X146717931Y-124359859D01*
X146723962Y-124362544D01*
X146817362Y-124382397D01*
X146904306Y-124400878D01*
X146904311Y-124400878D01*
X146910763Y-124402250D01*
X147101737Y-124402250D01*
X147108189Y-124400878D01*
X147108194Y-124400878D01*
X147195138Y-124382397D01*
X147288538Y-124362544D01*
X147294569Y-124359859D01*
X147456972Y-124287553D01*
X147456974Y-124287552D01*
X147463002Y-124284868D01*
X147617503Y-124172616D01*
X147621925Y-124167705D01*
X147740871Y-124035602D01*
X147740872Y-124035601D01*
X147745290Y-124030694D01*
X147840777Y-123865306D01*
X147895637Y-123696464D01*
X147926375Y-123646306D01*
X149577751Y-121994930D01*
X149640063Y-121960904D01*
X149705785Y-121964193D01*
X149711681Y-121966109D01*
X149717712Y-121968794D01*
X149724168Y-121970166D01*
X149724167Y-121970166D01*
X149898056Y-122007128D01*
X149898061Y-122007128D01*
X149904513Y-122008500D01*
X150095487Y-122008500D01*
X150101939Y-122007128D01*
X150101944Y-122007128D01*
X150188887Y-121988647D01*
X150282288Y-121968794D01*
X150292622Y-121964193D01*
X150450722Y-121893803D01*
X150450724Y-121893802D01*
X150456752Y-121891118D01*
X150611253Y-121778866D01*
X150739040Y-121636944D01*
X150834527Y-121471556D01*
X150893542Y-121289928D01*
X150913504Y-121100000D01*
X150893542Y-120910072D01*
X150834527Y-120728444D01*
X150739040Y-120563056D01*
X150699783Y-120519456D01*
X150615675Y-120426045D01*
X150615674Y-120426044D01*
X150611253Y-120421134D01*
X150501647Y-120341500D01*
X150462094Y-120312763D01*
X150462093Y-120312762D01*
X150456752Y-120308882D01*
X150450724Y-120306198D01*
X150450722Y-120306197D01*
X150288319Y-120233891D01*
X150288318Y-120233891D01*
X150282288Y-120231206D01*
X150188888Y-120211353D01*
X150101944Y-120192872D01*
X150101939Y-120192872D01*
X150095487Y-120191500D01*
X149904513Y-120191500D01*
X149898061Y-120192872D01*
X149898056Y-120192872D01*
X149811112Y-120211353D01*
X149717712Y-120231206D01*
X149711682Y-120233891D01*
X149711681Y-120233891D01*
X149549278Y-120306197D01*
X149549276Y-120306198D01*
X149543248Y-120308882D01*
X149537904Y-120312764D01*
X149537905Y-120312764D01*
X149533142Y-120316224D01*
X149466274Y-120340080D01*
X149440138Y-120338852D01*
X149433890Y-120337902D01*
X149433888Y-120337902D01*
X149426651Y-120336801D01*
X149419359Y-120337394D01*
X149419356Y-120337394D01*
X149373982Y-120341085D01*
X149363767Y-120341500D01*
X149355707Y-120341500D01*
X149352073Y-120341924D01*
X149352067Y-120341924D01*
X149339042Y-120343443D01*
X149327480Y-120344791D01*
X149323132Y-120345221D01*
X149250364Y-120351140D01*
X149243403Y-120353395D01*
X149237463Y-120354582D01*
X149231588Y-120355971D01*
X149224319Y-120356818D01*
X149155670Y-120381736D01*
X149151542Y-120383153D01*
X149089064Y-120403393D01*
X149089062Y-120403394D01*
X149082101Y-120405649D01*
X149075846Y-120409445D01*
X149070372Y-120411951D01*
X149064942Y-120414670D01*
X149058063Y-120417167D01*
X149051943Y-120421180D01*
X149051942Y-120421180D01*
X148997024Y-120457186D01*
X148993320Y-120459523D01*
X148930893Y-120497405D01*
X148922516Y-120504803D01*
X148922492Y-120504776D01*
X148919500Y-120507429D01*
X148916267Y-120510132D01*
X148910148Y-120514144D01*
X148905116Y-120519456D01*
X148856872Y-120570383D01*
X148854494Y-120572825D01*
X146849919Y-122577400D01*
X146787022Y-122611551D01*
X146730426Y-122623581D01*
X146730417Y-122623584D01*
X146723962Y-122624956D01*
X146717932Y-122627641D01*
X146717931Y-122627641D01*
X146555528Y-122699947D01*
X146555526Y-122699948D01*
X146549498Y-122702632D01*
X146394997Y-122814884D01*
X146390576Y-122819794D01*
X146390575Y-122819795D01*
X146286479Y-122935406D01*
X146267210Y-122956806D01*
X146171723Y-123122194D01*
X146112708Y-123303822D01*
X146092746Y-123493750D01*
X135106075Y-123493750D01*
X135101944Y-123492872D01*
X135101939Y-123492872D01*
X135095487Y-123491500D01*
X134904513Y-123491500D01*
X134898061Y-123492872D01*
X134898056Y-123492872D01*
X134811113Y-123511353D01*
X134717712Y-123531206D01*
X134711682Y-123533891D01*
X134711681Y-123533891D01*
X134549278Y-123606197D01*
X134549276Y-123606198D01*
X134543248Y-123608882D01*
X134388747Y-123721134D01*
X134260960Y-123863056D01*
X134165473Y-124028444D01*
X134106458Y-124210072D01*
X134105768Y-124216633D01*
X134105768Y-124216635D01*
X134090715Y-124359859D01*
X134086496Y-124400000D01*
X134087186Y-124406565D01*
X134105133Y-124577318D01*
X134106458Y-124589928D01*
X134165473Y-124771556D01*
X134168776Y-124777278D01*
X134168777Y-124777279D01*
X134202686Y-124836010D01*
X134260960Y-124936944D01*
X134265378Y-124941851D01*
X134265379Y-124941852D01*
X134279095Y-124957085D01*
X134309813Y-125021092D01*
X134301048Y-125091546D01*
X134271726Y-125131419D01*
X134272389Y-125132053D01*
X134181194Y-125227317D01*
X134119639Y-125262694D01*
X134048730Y-125259175D01*
X133990979Y-125217879D01*
X133983032Y-125206491D01*
X133948478Y-125150652D01*
X133823303Y-125025695D01*
X133786286Y-125002877D01*
X133678968Y-124936725D01*
X133678966Y-124936724D01*
X133672738Y-124932885D01*
X133550311Y-124892278D01*
X133511389Y-124879368D01*
X133511387Y-124879368D01*
X133504861Y-124877203D01*
X133498025Y-124876503D01*
X133498022Y-124876502D01*
X133454969Y-124872091D01*
X133400400Y-124866500D01*
X132599600Y-124866500D01*
X132596354Y-124866837D01*
X132596350Y-124866837D01*
X132500692Y-124876762D01*
X132500688Y-124876763D01*
X132493834Y-124877474D01*
X132487298Y-124879655D01*
X132487296Y-124879655D01*
X132372147Y-124918072D01*
X132326054Y-124933450D01*
X132175652Y-125026522D01*
X132050695Y-125151697D01*
X132046855Y-125157927D01*
X132046854Y-125157928D01*
X132009900Y-125217879D01*
X131957885Y-125302262D01*
X131902203Y-125470139D01*
X131891500Y-125574600D01*
X131891500Y-126925400D01*
X130508000Y-126925400D01*
X130508000Y-102400000D01*
X134086496Y-102400000D01*
X134106458Y-102589928D01*
X134165473Y-102771556D01*
X134223209Y-102871556D01*
X134224619Y-102873999D01*
X134241500Y-102936999D01*
X134241500Y-113532930D01*
X134240067Y-113551880D01*
X134236801Y-113573349D01*
X134237394Y-113580641D01*
X134237394Y-113580644D01*
X134241085Y-113626018D01*
X134241500Y-113636233D01*
X134241500Y-113644293D01*
X134241925Y-113647937D01*
X134244789Y-113672507D01*
X134245222Y-113676882D01*
X134251140Y-113749637D01*
X134253396Y-113756601D01*
X134254587Y-113762560D01*
X134255971Y-113768415D01*
X134256818Y-113775681D01*
X134281735Y-113844327D01*
X134283152Y-113848455D01*
X134305649Y-113917899D01*
X134309445Y-113924154D01*
X134311951Y-113929628D01*
X134314670Y-113935058D01*
X134317167Y-113941937D01*
X134321180Y-113948057D01*
X134321180Y-113948058D01*
X134357186Y-114002976D01*
X134359523Y-114006680D01*
X134397405Y-114069107D01*
X134401121Y-114073315D01*
X134401122Y-114073316D01*
X134404803Y-114077484D01*
X134404776Y-114077508D01*
X134407429Y-114080500D01*
X134410132Y-114083733D01*
X134414144Y-114089852D01*
X134419456Y-114094884D01*
X134470383Y-114143128D01*
X134472825Y-114145506D01*
X140416230Y-120088911D01*
X140428616Y-120103323D01*
X140437149Y-120114918D01*
X140437154Y-120114923D01*
X140441492Y-120120818D01*
X140447070Y-120125557D01*
X140447073Y-120125560D01*
X140481768Y-120155035D01*
X140489284Y-120161965D01*
X140494979Y-120167660D01*
X140497861Y-120169940D01*
X140517251Y-120185281D01*
X140520655Y-120188072D01*
X140569812Y-120229834D01*
X140576285Y-120235333D01*
X140582801Y-120238661D01*
X140587850Y-120242028D01*
X140592979Y-120245195D01*
X140598716Y-120249734D01*
X140664875Y-120280655D01*
X140668769Y-120282558D01*
X140733808Y-120315769D01*
X140740916Y-120317508D01*
X140746559Y-120319607D01*
X140752322Y-120321524D01*
X140758950Y-120324622D01*
X140827364Y-120338852D01*
X140830412Y-120339486D01*
X140834696Y-120340456D01*
X140905610Y-120357808D01*
X140911212Y-120358156D01*
X140911215Y-120358156D01*
X140916764Y-120358500D01*
X140916762Y-120358536D01*
X140920755Y-120358775D01*
X140924947Y-120359149D01*
X140932115Y-120360640D01*
X141009520Y-120358546D01*
X141012928Y-120358500D01*
X143857413Y-120358500D01*
X143931472Y-120382563D01*
X143937902Y-120387235D01*
X143937909Y-120387239D01*
X143943248Y-120391118D01*
X143949276Y-120393802D01*
X143949278Y-120393803D01*
X144094344Y-120458390D01*
X144117712Y-120468794D01*
X144211112Y-120488647D01*
X144298056Y-120507128D01*
X144298061Y-120507128D01*
X144304513Y-120508500D01*
X144495487Y-120508500D01*
X144501939Y-120507128D01*
X144501944Y-120507128D01*
X144588888Y-120488647D01*
X144682288Y-120468794D01*
X144705656Y-120458390D01*
X144850722Y-120393803D01*
X144850724Y-120393802D01*
X144856752Y-120391118D01*
X144862097Y-120387235D01*
X144926999Y-120340080D01*
X145011253Y-120278866D01*
X145116511Y-120161965D01*
X145134621Y-120141852D01*
X145134622Y-120141851D01*
X145139040Y-120136944D01*
X145234527Y-119971556D01*
X145293542Y-119789928D01*
X145313504Y-119600000D01*
X145293542Y-119410072D01*
X145234527Y-119228444D01*
X145139040Y-119063056D01*
X145011253Y-118921134D01*
X144901647Y-118841500D01*
X144862094Y-118812763D01*
X144862093Y-118812762D01*
X144856752Y-118808882D01*
X144850724Y-118806198D01*
X144850722Y-118806197D01*
X144688319Y-118733891D01*
X144688318Y-118733891D01*
X144682288Y-118731206D01*
X144588887Y-118711353D01*
X144501944Y-118692872D01*
X144501939Y-118692872D01*
X144495487Y-118691500D01*
X144304513Y-118691500D01*
X144298061Y-118692872D01*
X144298056Y-118692872D01*
X144211113Y-118711353D01*
X144117712Y-118731206D01*
X144111682Y-118733891D01*
X144111681Y-118733891D01*
X143949278Y-118806197D01*
X143949276Y-118806198D01*
X143943248Y-118808882D01*
X143937909Y-118812761D01*
X143937902Y-118812765D01*
X143931472Y-118817437D01*
X143857413Y-118841500D01*
X141366371Y-118841500D01*
X141298250Y-118821498D01*
X141277276Y-118804595D01*
X135795405Y-113322724D01*
X135782996Y-113300000D01*
X139086496Y-113300000D01*
X139106458Y-113489928D01*
X139165473Y-113671556D01*
X139260960Y-113836944D01*
X139265378Y-113841851D01*
X139265379Y-113841852D01*
X139333852Y-113917899D01*
X139388747Y-113978866D01*
X139487843Y-114050864D01*
X139528634Y-114080500D01*
X139543248Y-114091118D01*
X139549276Y-114093802D01*
X139549278Y-114093803D01*
X139662650Y-114144279D01*
X139717712Y-114168794D01*
X139783365Y-114182749D01*
X139898056Y-114207128D01*
X139898061Y-114207128D01*
X139904513Y-114208500D01*
X140095487Y-114208500D01*
X140101939Y-114207128D01*
X140101944Y-114207128D01*
X140216635Y-114182749D01*
X140282288Y-114168794D01*
X140337350Y-114144279D01*
X140450722Y-114093803D01*
X140450724Y-114093802D01*
X140456752Y-114091118D01*
X140471367Y-114080500D01*
X140512157Y-114050864D01*
X140611253Y-113978866D01*
X140666148Y-113917899D01*
X140734621Y-113841852D01*
X140734622Y-113841851D01*
X140739040Y-113836944D01*
X140834527Y-113671556D01*
X140890269Y-113500000D01*
X152586496Y-113500000D01*
X152587186Y-113506565D01*
X152605129Y-113677279D01*
X152606458Y-113689928D01*
X152665473Y-113871556D01*
X152760960Y-114036944D01*
X152765378Y-114041851D01*
X152765379Y-114041852D01*
X152879678Y-114168794D01*
X152888747Y-114178866D01*
X153043248Y-114291118D01*
X153049276Y-114293802D01*
X153049278Y-114293803D01*
X153211681Y-114366109D01*
X153217712Y-114368794D01*
X153311113Y-114388647D01*
X153398056Y-114407128D01*
X153398061Y-114407128D01*
X153404513Y-114408500D01*
X153595487Y-114408500D01*
X153601939Y-114407128D01*
X153601944Y-114407128D01*
X153688887Y-114388647D01*
X153782288Y-114368794D01*
X153788319Y-114366109D01*
X153950722Y-114293803D01*
X153950724Y-114293802D01*
X153956752Y-114291118D01*
X154111253Y-114178866D01*
X154120322Y-114168794D01*
X154234621Y-114041852D01*
X154234622Y-114041851D01*
X154239040Y-114036944D01*
X154334527Y-113871556D01*
X154393542Y-113689928D01*
X154394872Y-113677279D01*
X154412814Y-113506565D01*
X154413504Y-113500000D01*
X158586496Y-113500000D01*
X158587186Y-113506565D01*
X158605129Y-113677279D01*
X158606458Y-113689928D01*
X158665473Y-113871556D01*
X158760960Y-114036944D01*
X158765378Y-114041851D01*
X158765379Y-114041852D01*
X158879678Y-114168794D01*
X158888747Y-114178866D01*
X159043248Y-114291118D01*
X159049276Y-114293802D01*
X159049278Y-114293803D01*
X159211681Y-114366109D01*
X159217712Y-114368794D01*
X159311113Y-114388647D01*
X159398056Y-114407128D01*
X159398061Y-114407128D01*
X159404513Y-114408500D01*
X159595487Y-114408500D01*
X159601939Y-114407128D01*
X159601944Y-114407128D01*
X159688887Y-114388647D01*
X159782288Y-114368794D01*
X159788319Y-114366109D01*
X159950722Y-114293803D01*
X159950724Y-114293802D01*
X159956752Y-114291118D01*
X160111253Y-114178866D01*
X160120322Y-114168794D01*
X160234621Y-114041852D01*
X160234622Y-114041851D01*
X160239040Y-114036944D01*
X160334527Y-113871556D01*
X160393542Y-113689928D01*
X160394872Y-113677279D01*
X160412814Y-113506565D01*
X160413504Y-113500000D01*
X160393542Y-113310072D01*
X160334527Y-113128444D01*
X160239040Y-112963056D01*
X160202722Y-112922721D01*
X160123117Y-112834310D01*
X160092399Y-112770303D01*
X160101164Y-112699849D01*
X160123117Y-112665690D01*
X160234621Y-112541852D01*
X160234622Y-112541851D01*
X160239040Y-112536944D01*
X160334527Y-112371556D01*
X160393542Y-112189928D01*
X160404668Y-112084075D01*
X160412814Y-112006565D01*
X160413504Y-112000000D01*
X160393542Y-111810072D01*
X160334527Y-111628444D01*
X160317573Y-111599078D01*
X160296775Y-111563056D01*
X160239040Y-111463056D01*
X160205715Y-111426045D01*
X160123117Y-111334310D01*
X160092399Y-111270303D01*
X160101164Y-111199849D01*
X160123117Y-111165690D01*
X160234621Y-111041852D01*
X160234622Y-111041851D01*
X160239040Y-111036944D01*
X160334527Y-110871556D01*
X160393542Y-110689928D01*
X160403393Y-110596206D01*
X160412814Y-110506565D01*
X160413504Y-110500000D01*
X160412814Y-110493435D01*
X160394232Y-110316635D01*
X160394232Y-110316633D01*
X160393542Y-110310072D01*
X160334527Y-110128444D01*
X160239040Y-109963056D01*
X160111253Y-109821134D01*
X159980375Y-109726045D01*
X159962094Y-109712763D01*
X159962093Y-109712762D01*
X159956752Y-109708882D01*
X159950724Y-109706198D01*
X159950722Y-109706197D01*
X159788319Y-109633891D01*
X159788318Y-109633891D01*
X159782288Y-109631206D01*
X159744844Y-109623247D01*
X159682371Y-109589518D01*
X159648049Y-109527369D01*
X159652777Y-109456530D01*
X159695053Y-109399492D01*
X159744844Y-109376753D01*
X159782288Y-109368794D01*
X159817073Y-109353307D01*
X159950722Y-109293803D01*
X159950724Y-109293802D01*
X159956752Y-109291118D01*
X160111253Y-109178866D01*
X160182364Y-109099889D01*
X160234621Y-109041852D01*
X160234622Y-109041851D01*
X160239040Y-109036944D01*
X160334527Y-108871556D01*
X160393542Y-108689928D01*
X160401080Y-108618213D01*
X160412814Y-108506565D01*
X160413504Y-108500000D01*
X160393542Y-108310072D01*
X160334527Y-108128444D01*
X160239040Y-107963056D01*
X160111253Y-107821134D01*
X159956752Y-107708882D01*
X159950724Y-107706198D01*
X159950722Y-107706197D01*
X159788319Y-107633891D01*
X159788318Y-107633891D01*
X159782288Y-107631206D01*
X159744844Y-107623247D01*
X159682371Y-107589518D01*
X159648049Y-107527369D01*
X159652777Y-107456530D01*
X159695053Y-107399492D01*
X159744844Y-107376753D01*
X159782288Y-107368794D01*
X159788319Y-107366109D01*
X159950722Y-107293803D01*
X159950724Y-107293802D01*
X159956752Y-107291118D01*
X160111253Y-107178866D01*
X160239040Y-107036944D01*
X160334527Y-106871556D01*
X160393542Y-106689928D01*
X160413504Y-106500000D01*
X160393542Y-106310072D01*
X160334527Y-106128444D01*
X160239040Y-105963056D01*
X160111253Y-105821134D01*
X159956752Y-105708882D01*
X159950724Y-105706198D01*
X159950722Y-105706197D01*
X159788319Y-105633891D01*
X159788318Y-105633891D01*
X159782288Y-105631206D01*
X159688887Y-105611353D01*
X159601944Y-105592872D01*
X159601939Y-105592872D01*
X159595487Y-105591500D01*
X159404513Y-105591500D01*
X159398061Y-105592872D01*
X159398056Y-105592872D01*
X159311112Y-105611353D01*
X159217712Y-105631206D01*
X159211682Y-105633891D01*
X159211681Y-105633891D01*
X159049278Y-105706197D01*
X159049276Y-105706198D01*
X159043248Y-105708882D01*
X158888747Y-105821134D01*
X158760960Y-105963056D01*
X158665473Y-106128444D01*
X158606458Y-106310072D01*
X158586496Y-106500000D01*
X158606458Y-106689928D01*
X158665473Y-106871556D01*
X158760960Y-107036944D01*
X158888747Y-107178866D01*
X159043248Y-107291118D01*
X159049276Y-107293802D01*
X159049278Y-107293803D01*
X159211681Y-107366109D01*
X159217712Y-107368794D01*
X159255156Y-107376753D01*
X159317629Y-107410482D01*
X159351951Y-107472631D01*
X159347223Y-107543470D01*
X159304947Y-107600508D01*
X159255156Y-107623247D01*
X159217712Y-107631206D01*
X159211682Y-107633891D01*
X159211681Y-107633891D01*
X159049278Y-107706197D01*
X159049276Y-107706198D01*
X159043248Y-107708882D01*
X158888747Y-107821134D01*
X158760960Y-107963056D01*
X158665473Y-108128444D01*
X158606458Y-108310072D01*
X158586496Y-108500000D01*
X158587186Y-108506565D01*
X158598921Y-108618213D01*
X158606458Y-108689928D01*
X158665473Y-108871556D01*
X158760960Y-109036944D01*
X158765378Y-109041851D01*
X158765379Y-109041852D01*
X158817636Y-109099889D01*
X158888747Y-109178866D01*
X159043248Y-109291118D01*
X159049276Y-109293802D01*
X159049278Y-109293803D01*
X159182927Y-109353307D01*
X159217712Y-109368794D01*
X159255156Y-109376753D01*
X159317629Y-109410482D01*
X159351951Y-109472631D01*
X159347223Y-109543470D01*
X159304947Y-109600508D01*
X159255156Y-109623247D01*
X159217712Y-109631206D01*
X159211682Y-109633891D01*
X159211681Y-109633891D01*
X159049278Y-109706197D01*
X159049276Y-109706198D01*
X159043248Y-109708882D01*
X159037907Y-109712762D01*
X159037906Y-109712763D01*
X159019625Y-109726045D01*
X158888747Y-109821134D01*
X158760960Y-109963056D01*
X158665473Y-110128444D01*
X158606458Y-110310072D01*
X158605768Y-110316633D01*
X158605768Y-110316635D01*
X158587186Y-110493435D01*
X158586496Y-110500000D01*
X158587186Y-110506565D01*
X158596608Y-110596206D01*
X158606458Y-110689928D01*
X158665473Y-110871556D01*
X158760960Y-111036944D01*
X158765378Y-111041851D01*
X158765379Y-111041852D01*
X158876883Y-111165690D01*
X158907601Y-111229697D01*
X158898836Y-111300151D01*
X158876883Y-111334310D01*
X158794285Y-111426045D01*
X158760960Y-111463056D01*
X158703225Y-111563056D01*
X158682428Y-111599078D01*
X158665473Y-111628444D01*
X158606458Y-111810072D01*
X158586496Y-112000000D01*
X158587186Y-112006565D01*
X158595333Y-112084075D01*
X158606458Y-112189928D01*
X158665473Y-112371556D01*
X158760960Y-112536944D01*
X158765378Y-112541851D01*
X158765379Y-112541852D01*
X158876883Y-112665690D01*
X158907601Y-112729697D01*
X158898836Y-112800151D01*
X158876883Y-112834310D01*
X158797278Y-112922721D01*
X158760960Y-112963056D01*
X158665473Y-113128444D01*
X158606458Y-113310072D01*
X158586496Y-113500000D01*
X154413504Y-113500000D01*
X154393542Y-113310072D01*
X154334527Y-113128444D01*
X154239040Y-112963056D01*
X154202722Y-112922721D01*
X154123117Y-112834310D01*
X154092399Y-112770303D01*
X154101164Y-112699849D01*
X154123117Y-112665690D01*
X154234621Y-112541852D01*
X154234622Y-112541851D01*
X154239040Y-112536944D01*
X154334527Y-112371556D01*
X154393542Y-112189928D01*
X154404668Y-112084075D01*
X154412814Y-112006565D01*
X154413504Y-112000000D01*
X154393542Y-111810072D01*
X154334527Y-111628444D01*
X154317573Y-111599078D01*
X154296775Y-111563056D01*
X154239040Y-111463056D01*
X154168137Y-111384310D01*
X154137419Y-111320303D01*
X154146184Y-111249849D01*
X154168137Y-111215690D01*
X154234621Y-111141852D01*
X154234622Y-111141851D01*
X154239040Y-111136944D01*
X154334527Y-110971556D01*
X154393542Y-110789928D01*
X154394872Y-110777279D01*
X154412814Y-110606565D01*
X154413504Y-110600000D01*
X154393542Y-110410072D01*
X154334527Y-110228444D01*
X154239040Y-110063056D01*
X154111253Y-109921134D01*
X153980375Y-109826045D01*
X153962094Y-109812763D01*
X153962093Y-109812762D01*
X153956752Y-109808882D01*
X153950724Y-109806198D01*
X153950722Y-109806197D01*
X153788319Y-109733891D01*
X153788318Y-109733891D01*
X153782288Y-109731206D01*
X153688887Y-109711353D01*
X153601944Y-109692872D01*
X153601939Y-109692872D01*
X153595487Y-109691500D01*
X153404513Y-109691500D01*
X153398061Y-109692872D01*
X153398056Y-109692872D01*
X153311113Y-109711353D01*
X153217712Y-109731206D01*
X153211682Y-109733891D01*
X153211681Y-109733891D01*
X153049278Y-109806197D01*
X153049276Y-109806198D01*
X153043248Y-109808882D01*
X153037907Y-109812762D01*
X153037906Y-109812763D01*
X153019625Y-109826045D01*
X152888747Y-109921134D01*
X152760960Y-110063056D01*
X152665473Y-110228444D01*
X152606458Y-110410072D01*
X152586496Y-110600000D01*
X152587186Y-110606565D01*
X152605129Y-110777279D01*
X152606458Y-110789928D01*
X152665473Y-110971556D01*
X152760960Y-111136944D01*
X152765378Y-111141851D01*
X152765379Y-111141852D01*
X152831863Y-111215690D01*
X152862581Y-111279697D01*
X152853816Y-111350151D01*
X152831863Y-111384310D01*
X152760960Y-111463056D01*
X152703225Y-111563056D01*
X152682428Y-111599078D01*
X152665473Y-111628444D01*
X152606458Y-111810072D01*
X152586496Y-112000000D01*
X152587186Y-112006565D01*
X152595333Y-112084075D01*
X152606458Y-112189928D01*
X152665473Y-112371556D01*
X152760960Y-112536944D01*
X152765378Y-112541851D01*
X152765379Y-112541852D01*
X152876883Y-112665690D01*
X152907601Y-112729697D01*
X152898836Y-112800151D01*
X152876883Y-112834310D01*
X152797278Y-112922721D01*
X152760960Y-112963056D01*
X152665473Y-113128444D01*
X152606458Y-113310072D01*
X152586496Y-113500000D01*
X140890269Y-113500000D01*
X140893542Y-113489928D01*
X140913504Y-113300000D01*
X140895473Y-113128444D01*
X140894232Y-113116635D01*
X140894232Y-113116633D01*
X140893542Y-113110072D01*
X140834527Y-112928444D01*
X140739040Y-112763056D01*
X140727285Y-112750000D01*
X140615675Y-112626045D01*
X140615674Y-112626044D01*
X140611253Y-112621134D01*
X140456752Y-112508882D01*
X140450724Y-112506198D01*
X140450722Y-112506197D01*
X140288319Y-112433891D01*
X140288318Y-112433891D01*
X140282288Y-112431206D01*
X140188887Y-112411353D01*
X140101944Y-112392872D01*
X140101939Y-112392872D01*
X140095487Y-112391500D01*
X139904513Y-112391500D01*
X139898061Y-112392872D01*
X139898056Y-112392872D01*
X139811113Y-112411353D01*
X139717712Y-112431206D01*
X139711682Y-112433891D01*
X139711681Y-112433891D01*
X139549278Y-112506197D01*
X139549276Y-112506198D01*
X139543248Y-112508882D01*
X139388747Y-112621134D01*
X139384326Y-112626044D01*
X139384325Y-112626045D01*
X139272716Y-112750000D01*
X139260960Y-112763056D01*
X139165473Y-112928444D01*
X139106458Y-113110072D01*
X139105768Y-113116633D01*
X139105768Y-113116635D01*
X139104527Y-113128444D01*
X139086496Y-113300000D01*
X135782996Y-113300000D01*
X135761379Y-113260412D01*
X135758500Y-113233629D01*
X135758500Y-110400000D01*
X144786496Y-110400000D01*
X144806458Y-110589928D01*
X144865473Y-110771556D01*
X144960960Y-110936944D01*
X145088747Y-111078866D01*
X145187843Y-111150864D01*
X145226385Y-111178866D01*
X145243248Y-111191118D01*
X145249276Y-111193802D01*
X145249278Y-111193803D01*
X145411681Y-111266109D01*
X145417712Y-111268794D01*
X145511113Y-111288647D01*
X145598056Y-111307128D01*
X145598061Y-111307128D01*
X145604513Y-111308500D01*
X145795487Y-111308500D01*
X145801939Y-111307128D01*
X145801944Y-111307128D01*
X145888887Y-111288647D01*
X145982288Y-111268794D01*
X145988319Y-111266109D01*
X146150722Y-111193803D01*
X146150724Y-111193802D01*
X146156752Y-111191118D01*
X146173616Y-111178866D01*
X146212157Y-111150864D01*
X146311253Y-111078866D01*
X146439040Y-110936944D01*
X146534527Y-110771556D01*
X146593542Y-110589928D01*
X146610907Y-110424706D01*
X146637920Y-110359050D01*
X146647122Y-110348782D01*
X148495905Y-108500000D01*
X152586496Y-108500000D01*
X152587186Y-108506565D01*
X152598921Y-108618213D01*
X152606458Y-108689928D01*
X152665473Y-108871556D01*
X152760960Y-109036944D01*
X152765378Y-109041851D01*
X152765379Y-109041852D01*
X152817636Y-109099889D01*
X152888747Y-109178866D01*
X153043248Y-109291118D01*
X153049276Y-109293802D01*
X153049278Y-109293803D01*
X153182927Y-109353307D01*
X153217712Y-109368794D01*
X153311113Y-109388647D01*
X153398056Y-109407128D01*
X153398061Y-109407128D01*
X153404513Y-109408500D01*
X153595487Y-109408500D01*
X153601939Y-109407128D01*
X153601944Y-109407128D01*
X153688888Y-109388647D01*
X153782288Y-109368794D01*
X153817073Y-109353307D01*
X153950722Y-109293803D01*
X153950724Y-109293802D01*
X153956752Y-109291118D01*
X154111253Y-109178866D01*
X154182364Y-109099889D01*
X154234621Y-109041852D01*
X154234622Y-109041851D01*
X154239040Y-109036944D01*
X154334527Y-108871556D01*
X154393542Y-108689928D01*
X154401080Y-108618213D01*
X154412814Y-108506565D01*
X154413504Y-108500000D01*
X155586496Y-108500000D01*
X155587186Y-108506565D01*
X155598921Y-108618213D01*
X155606458Y-108689928D01*
X155665473Y-108871556D01*
X155760960Y-109036944D01*
X155765378Y-109041851D01*
X155765379Y-109041852D01*
X155817636Y-109099889D01*
X155888747Y-109178866D01*
X156043248Y-109291118D01*
X156049276Y-109293802D01*
X156049278Y-109293803D01*
X156182927Y-109353307D01*
X156217712Y-109368794D01*
X156311113Y-109388647D01*
X156398056Y-109407128D01*
X156398061Y-109407128D01*
X156404513Y-109408500D01*
X156595487Y-109408500D01*
X156601939Y-109407128D01*
X156601944Y-109407128D01*
X156688888Y-109388647D01*
X156782288Y-109368794D01*
X156817073Y-109353307D01*
X156950722Y-109293803D01*
X156950724Y-109293802D01*
X156956752Y-109291118D01*
X157111253Y-109178866D01*
X157182364Y-109099889D01*
X157234621Y-109041852D01*
X157234622Y-109041851D01*
X157239040Y-109036944D01*
X157334527Y-108871556D01*
X157393542Y-108689928D01*
X157401080Y-108618213D01*
X157412814Y-108506565D01*
X157413504Y-108500000D01*
X157393542Y-108310072D01*
X157334527Y-108128444D01*
X157239040Y-107963056D01*
X157111253Y-107821134D01*
X156956752Y-107708882D01*
X156950724Y-107706198D01*
X156950722Y-107706197D01*
X156788319Y-107633891D01*
X156788318Y-107633891D01*
X156782288Y-107631206D01*
X156688887Y-107611353D01*
X156601944Y-107592872D01*
X156601939Y-107592872D01*
X156595487Y-107591500D01*
X156404513Y-107591500D01*
X156398061Y-107592872D01*
X156398056Y-107592872D01*
X156311113Y-107611353D01*
X156217712Y-107631206D01*
X156211682Y-107633891D01*
X156211681Y-107633891D01*
X156049278Y-107706197D01*
X156049276Y-107706198D01*
X156043248Y-107708882D01*
X155888747Y-107821134D01*
X155760960Y-107963056D01*
X155665473Y-108128444D01*
X155606458Y-108310072D01*
X155586496Y-108500000D01*
X154413504Y-108500000D01*
X154393542Y-108310072D01*
X154334527Y-108128444D01*
X154239040Y-107963056D01*
X154111253Y-107821134D01*
X153956752Y-107708882D01*
X153950724Y-107706198D01*
X153950722Y-107706197D01*
X153788319Y-107633891D01*
X153788318Y-107633891D01*
X153782288Y-107631206D01*
X153744844Y-107623247D01*
X153682371Y-107589518D01*
X153648049Y-107527369D01*
X153652777Y-107456530D01*
X153695053Y-107399492D01*
X153744844Y-107376753D01*
X153782288Y-107368794D01*
X153788319Y-107366109D01*
X153950722Y-107293803D01*
X153950724Y-107293802D01*
X153956752Y-107291118D01*
X154111253Y-107178866D01*
X154239040Y-107036944D01*
X154334527Y-106871556D01*
X154393542Y-106689928D01*
X154413504Y-106500000D01*
X154393542Y-106310072D01*
X154334527Y-106128444D01*
X154239040Y-105963056D01*
X154111253Y-105821134D01*
X153956752Y-105708882D01*
X153950724Y-105706198D01*
X153950722Y-105706197D01*
X153788319Y-105633891D01*
X153788318Y-105633891D01*
X153782288Y-105631206D01*
X153688887Y-105611353D01*
X153601944Y-105592872D01*
X153601939Y-105592872D01*
X153595487Y-105591500D01*
X153404513Y-105591500D01*
X153398061Y-105592872D01*
X153398056Y-105592872D01*
X153311112Y-105611353D01*
X153217712Y-105631206D01*
X153211682Y-105633891D01*
X153211681Y-105633891D01*
X153049278Y-105706197D01*
X153049276Y-105706198D01*
X153043248Y-105708882D01*
X152888747Y-105821134D01*
X152760960Y-105963056D01*
X152665473Y-106128444D01*
X152606458Y-106310072D01*
X152586496Y-106500000D01*
X152606458Y-106689928D01*
X152665473Y-106871556D01*
X152760960Y-107036944D01*
X152888747Y-107178866D01*
X153043248Y-107291118D01*
X153049276Y-107293802D01*
X153049278Y-107293803D01*
X153211681Y-107366109D01*
X153217712Y-107368794D01*
X153255156Y-107376753D01*
X153317629Y-107410482D01*
X153351951Y-107472631D01*
X153347223Y-107543470D01*
X153304947Y-107600508D01*
X153255156Y-107623247D01*
X153217712Y-107631206D01*
X153211682Y-107633891D01*
X153211681Y-107633891D01*
X153049278Y-107706197D01*
X153049276Y-107706198D01*
X153043248Y-107708882D01*
X152888747Y-107821134D01*
X152760960Y-107963056D01*
X152665473Y-108128444D01*
X152606458Y-108310072D01*
X152586496Y-108500000D01*
X148495905Y-108500000D01*
X149392253Y-107603652D01*
X149400539Y-107596112D01*
X149407018Y-107592000D01*
X149453644Y-107542348D01*
X149456398Y-107539507D01*
X149476135Y-107519770D01*
X149478615Y-107516573D01*
X149486320Y-107507551D01*
X149511159Y-107481100D01*
X149516586Y-107475321D01*
X149520405Y-107468375D01*
X149520407Y-107468372D01*
X149526348Y-107457566D01*
X149537199Y-107441047D01*
X149544758Y-107431301D01*
X149549614Y-107425041D01*
X149552759Y-107417772D01*
X149552762Y-107417768D01*
X149567174Y-107384463D01*
X149572391Y-107373813D01*
X149593695Y-107335060D01*
X149598733Y-107315437D01*
X149605137Y-107296734D01*
X149610033Y-107285420D01*
X149610033Y-107285419D01*
X149613181Y-107278145D01*
X149614420Y-107270322D01*
X149614423Y-107270312D01*
X149620099Y-107234476D01*
X149622505Y-107222856D01*
X149631528Y-107187711D01*
X149631528Y-107187710D01*
X149633500Y-107180030D01*
X149633500Y-107159776D01*
X149635051Y-107140065D01*
X149636980Y-107127886D01*
X149638220Y-107120057D01*
X149634059Y-107076038D01*
X149633500Y-107064181D01*
X149633500Y-103202524D01*
X149653502Y-103134403D01*
X149665858Y-103118221D01*
X149739040Y-103036944D01*
X149834527Y-102871556D01*
X149893542Y-102689928D01*
X149903393Y-102596206D01*
X149912814Y-102506565D01*
X149913504Y-102500000D01*
X149893542Y-102310072D01*
X149834527Y-102128444D01*
X149739040Y-101963056D01*
X149611253Y-101821134D01*
X149480375Y-101726045D01*
X149462094Y-101712763D01*
X149462093Y-101712762D01*
X149456752Y-101708882D01*
X149450724Y-101706198D01*
X149450722Y-101706197D01*
X149288319Y-101633891D01*
X149288318Y-101633891D01*
X149282288Y-101631206D01*
X149188887Y-101611353D01*
X149101944Y-101592872D01*
X149101939Y-101592872D01*
X149095487Y-101591500D01*
X148904513Y-101591500D01*
X148898061Y-101592872D01*
X148898056Y-101592872D01*
X148811113Y-101611353D01*
X148717712Y-101631206D01*
X148711682Y-101633891D01*
X148711681Y-101633891D01*
X148549278Y-101706197D01*
X148549276Y-101706198D01*
X148543248Y-101708882D01*
X148537907Y-101712762D01*
X148537906Y-101712763D01*
X148519625Y-101726045D01*
X148388747Y-101821134D01*
X148260960Y-101963056D01*
X148165473Y-102128444D01*
X148106458Y-102310072D01*
X148086496Y-102500000D01*
X148087186Y-102506565D01*
X148096608Y-102596206D01*
X148106458Y-102689928D01*
X148165473Y-102871556D01*
X148260960Y-103036944D01*
X148334137Y-103118215D01*
X148364853Y-103182221D01*
X148366500Y-103202524D01*
X148366500Y-106785406D01*
X148346498Y-106853527D01*
X148329595Y-106874501D01*
X145749500Y-109454595D01*
X145687188Y-109488621D01*
X145660405Y-109491500D01*
X145604513Y-109491500D01*
X145598061Y-109492872D01*
X145598056Y-109492872D01*
X145511113Y-109511353D01*
X145417712Y-109531206D01*
X145411682Y-109533891D01*
X145411681Y-109533891D01*
X145249278Y-109606197D01*
X145249276Y-109606198D01*
X145243248Y-109608882D01*
X145088747Y-109721134D01*
X145084326Y-109726044D01*
X145084325Y-109726045D01*
X145077261Y-109733891D01*
X144960960Y-109863056D01*
X144865473Y-110028444D01*
X144806458Y-110210072D01*
X144805768Y-110216633D01*
X144805768Y-110216635D01*
X144795948Y-110310072D01*
X144786496Y-110400000D01*
X135758500Y-110400000D01*
X135758500Y-102936999D01*
X135775381Y-102873999D01*
X135776792Y-102871556D01*
X135834527Y-102771556D01*
X135893542Y-102589928D01*
X135913504Y-102400000D01*
X135904052Y-102310072D01*
X135894232Y-102216635D01*
X135894232Y-102216633D01*
X135893542Y-102210072D01*
X135834527Y-102028444D01*
X135739040Y-101863056D01*
X135611253Y-101721134D01*
X135485590Y-101629834D01*
X135462094Y-101612763D01*
X135462093Y-101612762D01*
X135456752Y-101608882D01*
X135450724Y-101606198D01*
X135450722Y-101606197D01*
X135288319Y-101533891D01*
X135288318Y-101533891D01*
X135282288Y-101531206D01*
X135188887Y-101511353D01*
X135101944Y-101492872D01*
X135101939Y-101492872D01*
X135095487Y-101491500D01*
X134904513Y-101491500D01*
X134898061Y-101492872D01*
X134898056Y-101492872D01*
X134811113Y-101511353D01*
X134717712Y-101531206D01*
X134711682Y-101533891D01*
X134711681Y-101533891D01*
X134549278Y-101606197D01*
X134549276Y-101606198D01*
X134543248Y-101608882D01*
X134537907Y-101612762D01*
X134537906Y-101612763D01*
X134514410Y-101629834D01*
X134388747Y-101721134D01*
X134260960Y-101863056D01*
X134165473Y-102028444D01*
X134106458Y-102210072D01*
X134105768Y-102216633D01*
X134105768Y-102216635D01*
X134095948Y-102310072D01*
X134086496Y-102400000D01*
X130508000Y-102400000D01*
X130508000Y-95376172D01*
X130531239Y-95303260D01*
X130650412Y-95135301D01*
X130659216Y-95124260D01*
X130873966Y-94883955D01*
X130883956Y-94873965D01*
X130969547Y-94797476D01*
X131124260Y-94659216D01*
X131135301Y-94650412D01*
X131303260Y-94531239D01*
X131376172Y-94508000D01*
X136291298Y-94508000D01*
X136292069Y-94508002D01*
X136369652Y-94508476D01*
X136378281Y-94506010D01*
X136378286Y-94506009D01*
X136398048Y-94500361D01*
X136414809Y-94496783D01*
X136435152Y-94493870D01*
X136435162Y-94493867D01*
X136444045Y-94492595D01*
X136467395Y-94481979D01*
X136484907Y-94475536D01*
X136500937Y-94470954D01*
X136509565Y-94468488D01*
X136534548Y-94452726D01*
X136549614Y-94444596D01*
X136576510Y-94432367D01*
X136595939Y-94415626D01*
X136610947Y-94404521D01*
X136625039Y-94395630D01*
X136632631Y-94390840D01*
X136652182Y-94368703D01*
X136664374Y-94356659D01*
X136679949Y-94343239D01*
X136679950Y-94343237D01*
X136686747Y-94337381D01*
X136691626Y-94329853D01*
X136691629Y-94329850D01*
X136700696Y-94315861D01*
X136711986Y-94300987D01*
X136723012Y-94288502D01*
X136728956Y-94281772D01*
X136741510Y-94255034D01*
X136749824Y-94240065D01*
X136765893Y-94215273D01*
X136773239Y-94190709D01*
X136779901Y-94173264D01*
X136786983Y-94158179D01*
X136790799Y-94150052D01*
X136795343Y-94120870D01*
X136799126Y-94104151D01*
X136805014Y-94084464D01*
X136805015Y-94084461D01*
X136807587Y-94075859D01*
X136807797Y-94041444D01*
X136807830Y-94040672D01*
X136808000Y-94039577D01*
X136808000Y-94008702D01*
X136808002Y-94007932D01*
X136808452Y-93934284D01*
X136808452Y-93934283D01*
X136808476Y-93930348D01*
X136808092Y-93929004D01*
X136808000Y-93927659D01*
X136808000Y-91200000D01*
X141086496Y-91200000D01*
X141106458Y-91389928D01*
X141165473Y-91571556D01*
X141260960Y-91736944D01*
X141388747Y-91878866D01*
X141543248Y-91991118D01*
X141549276Y-91993802D01*
X141549278Y-91993803D01*
X141711681Y-92066109D01*
X141717712Y-92068794D01*
X141811112Y-92088647D01*
X141898056Y-92107128D01*
X141898061Y-92107128D01*
X141904513Y-92108500D01*
X142095487Y-92108500D01*
X142101939Y-92107128D01*
X142101944Y-92107128D01*
X142188888Y-92088647D01*
X142282288Y-92068794D01*
X142288319Y-92066109D01*
X142450722Y-91993803D01*
X142450724Y-91993802D01*
X142456752Y-91991118D01*
X142611253Y-91878866D01*
X142739040Y-91736944D01*
X142834527Y-91571556D01*
X142893542Y-91389928D01*
X142913504Y-91200000D01*
X142893542Y-91010072D01*
X142834527Y-90828444D01*
X142739040Y-90663056D01*
X142611253Y-90521134D01*
X142474038Y-90421441D01*
X142462094Y-90412763D01*
X142462093Y-90412762D01*
X142456752Y-90408882D01*
X142450724Y-90406198D01*
X142450722Y-90406197D01*
X142288319Y-90333891D01*
X142288318Y-90333891D01*
X142282288Y-90331206D01*
X142188887Y-90311353D01*
X142101944Y-90292872D01*
X142101939Y-90292872D01*
X142095487Y-90291500D01*
X141904513Y-90291500D01*
X141898061Y-90292872D01*
X141898056Y-90292872D01*
X141811113Y-90311353D01*
X141717712Y-90331206D01*
X141711682Y-90333891D01*
X141711681Y-90333891D01*
X141549278Y-90406197D01*
X141549276Y-90406198D01*
X141543248Y-90408882D01*
X141537907Y-90412762D01*
X141537906Y-90412763D01*
X141525962Y-90421441D01*
X141388747Y-90521134D01*
X141260960Y-90663056D01*
X141165473Y-90828444D01*
X141106458Y-91010072D01*
X141086496Y-91200000D01*
X136808000Y-91200000D01*
X136808000Y-89900000D01*
X137986496Y-89900000D01*
X138006458Y-90089928D01*
X138065473Y-90271556D01*
X138068776Y-90277278D01*
X138068777Y-90277279D01*
X138097832Y-90327604D01*
X138160960Y-90436944D01*
X138165378Y-90441851D01*
X138165379Y-90441852D01*
X138219088Y-90501502D01*
X138288747Y-90578866D01*
X138443248Y-90691118D01*
X138449276Y-90693802D01*
X138449278Y-90693803D01*
X138500560Y-90716635D01*
X138617712Y-90768794D01*
X138711112Y-90788647D01*
X138798056Y-90807128D01*
X138798061Y-90807128D01*
X138804513Y-90808500D01*
X138995487Y-90808500D01*
X139001939Y-90807128D01*
X139001944Y-90807128D01*
X139088888Y-90788647D01*
X139182288Y-90768794D01*
X139299440Y-90716635D01*
X139350722Y-90693803D01*
X139350724Y-90693802D01*
X139356752Y-90691118D01*
X139511253Y-90578866D01*
X139580912Y-90501502D01*
X139634621Y-90441852D01*
X139634622Y-90441851D01*
X139639040Y-90436944D01*
X139702168Y-90327604D01*
X139731223Y-90277279D01*
X139731224Y-90277278D01*
X139734527Y-90271556D01*
X139793542Y-90089928D01*
X139813504Y-89900000D01*
X139793542Y-89710072D01*
X139734527Y-89528444D01*
X139639040Y-89363056D01*
X139511253Y-89221134D01*
X139356752Y-89108882D01*
X139350724Y-89106198D01*
X139350722Y-89106197D01*
X139188319Y-89033891D01*
X139188318Y-89033891D01*
X139182288Y-89031206D01*
X139088888Y-89011353D01*
X139001944Y-88992872D01*
X139001939Y-88992872D01*
X138995487Y-88991500D01*
X138804513Y-88991500D01*
X138798061Y-88992872D01*
X138798056Y-88992872D01*
X138711113Y-89011353D01*
X138617712Y-89031206D01*
X138611682Y-89033891D01*
X138611681Y-89033891D01*
X138449278Y-89106197D01*
X138449276Y-89106198D01*
X138443248Y-89108882D01*
X138288747Y-89221134D01*
X138160960Y-89363056D01*
X138065473Y-89528444D01*
X138006458Y-89710072D01*
X137986496Y-89900000D01*
X136808000Y-89900000D01*
X136808000Y-87300000D01*
X137986496Y-87300000D01*
X138006458Y-87489928D01*
X138065473Y-87671556D01*
X138160960Y-87836944D01*
X138165378Y-87841851D01*
X138165379Y-87841852D01*
X138284325Y-87973955D01*
X138288747Y-87978866D01*
X138443248Y-88091118D01*
X138449276Y-88093802D01*
X138449278Y-88093803D01*
X138558636Y-88142492D01*
X138617712Y-88168794D01*
X138711112Y-88188647D01*
X138798056Y-88207128D01*
X138798061Y-88207128D01*
X138804513Y-88208500D01*
X138995487Y-88208500D01*
X139001939Y-88207128D01*
X139001944Y-88207128D01*
X139088887Y-88188647D01*
X139182288Y-88168794D01*
X139241364Y-88142492D01*
X139350722Y-88093803D01*
X139350724Y-88093802D01*
X139356752Y-88091118D01*
X139511253Y-87978866D01*
X139515675Y-87973955D01*
X139634621Y-87841852D01*
X139634622Y-87841851D01*
X139639040Y-87836944D01*
X139734527Y-87671556D01*
X139793542Y-87489928D01*
X139813504Y-87300000D01*
X139793542Y-87110072D01*
X139757777Y-87000000D01*
X141336496Y-87000000D01*
X141356458Y-87189928D01*
X141415473Y-87371556D01*
X141510960Y-87536944D01*
X141638747Y-87678866D01*
X141793248Y-87791118D01*
X141799276Y-87793802D01*
X141799278Y-87793803D01*
X141944901Y-87858638D01*
X141967712Y-87868794D01*
X142061113Y-87888647D01*
X142148056Y-87907128D01*
X142148061Y-87907128D01*
X142154513Y-87908500D01*
X142345487Y-87908500D01*
X142351939Y-87907128D01*
X142351944Y-87907128D01*
X142438887Y-87888647D01*
X142532288Y-87868794D01*
X142555099Y-87858638D01*
X142700722Y-87793803D01*
X142700724Y-87793802D01*
X142706752Y-87791118D01*
X142861253Y-87678866D01*
X142865668Y-87673963D01*
X142870580Y-87669540D01*
X142871705Y-87670789D01*
X142925014Y-87637949D01*
X142958200Y-87633500D01*
X145935405Y-87633500D01*
X146003526Y-87653502D01*
X146024501Y-87670405D01*
X146829596Y-88475501D01*
X146863621Y-88537813D01*
X146866500Y-88564596D01*
X146866500Y-94797476D01*
X146846498Y-94865597D01*
X146834142Y-94881779D01*
X146760960Y-94963056D01*
X146665473Y-95128444D01*
X146606458Y-95310072D01*
X146586496Y-95500000D01*
X146587186Y-95506565D01*
X146593500Y-95566635D01*
X146606458Y-95689928D01*
X146665473Y-95871556D01*
X146760960Y-96036944D01*
X146888747Y-96178866D01*
X147043248Y-96291118D01*
X147049276Y-96293802D01*
X147049278Y-96293803D01*
X147211681Y-96366109D01*
X147217712Y-96368794D01*
X147311113Y-96388647D01*
X147398056Y-96407128D01*
X147398061Y-96407128D01*
X147404513Y-96408500D01*
X147595487Y-96408500D01*
X147601939Y-96407128D01*
X147601944Y-96407128D01*
X147688887Y-96388647D01*
X147782288Y-96368794D01*
X147788319Y-96366109D01*
X147950722Y-96293803D01*
X147950724Y-96293802D01*
X147956752Y-96291118D01*
X148111253Y-96178866D01*
X148239040Y-96036944D01*
X148334527Y-95871556D01*
X148393542Y-95689928D01*
X148406501Y-95566635D01*
X148412814Y-95506565D01*
X148413504Y-95500000D01*
X148393542Y-95310072D01*
X148334527Y-95128444D01*
X148239040Y-94963056D01*
X148165863Y-94881785D01*
X148135147Y-94817779D01*
X148133500Y-94797476D01*
X148133500Y-88328767D01*
X148134027Y-88317584D01*
X148135702Y-88310091D01*
X148133562Y-88242000D01*
X148133500Y-88238043D01*
X148133500Y-88210144D01*
X148132996Y-88206153D01*
X148132063Y-88194311D01*
X148130923Y-88158036D01*
X148130674Y-88150111D01*
X148128462Y-88142497D01*
X148128461Y-88142492D01*
X148125023Y-88130659D01*
X148121012Y-88111295D01*
X148119467Y-88099064D01*
X148118474Y-88091203D01*
X148115557Y-88083836D01*
X148115556Y-88083831D01*
X148102198Y-88050092D01*
X148098354Y-88038865D01*
X148088230Y-88004022D01*
X148086018Y-87996407D01*
X148081697Y-87989100D01*
X148075707Y-87978972D01*
X148067012Y-87961224D01*
X148059552Y-87942383D01*
X148033564Y-87906613D01*
X148027048Y-87896693D01*
X148008580Y-87865465D01*
X148008578Y-87865462D01*
X148004542Y-87858638D01*
X147990221Y-87844317D01*
X147977380Y-87829283D01*
X147970131Y-87819306D01*
X147965472Y-87812893D01*
X147931395Y-87784702D01*
X147922616Y-87776712D01*
X146753652Y-86607747D01*
X146746112Y-86599461D01*
X146742000Y-86592982D01*
X146692348Y-86546356D01*
X146689507Y-86543602D01*
X146669770Y-86523865D01*
X146666573Y-86521385D01*
X146657551Y-86513680D01*
X146625321Y-86483414D01*
X146618375Y-86479595D01*
X146618372Y-86479593D01*
X146607566Y-86473652D01*
X146591047Y-86462801D01*
X146585048Y-86458148D01*
X146575041Y-86450386D01*
X146567772Y-86447241D01*
X146567768Y-86447238D01*
X146534463Y-86432826D01*
X146523813Y-86427609D01*
X146485060Y-86406305D01*
X146465437Y-86401267D01*
X146446734Y-86394863D01*
X146435420Y-86389967D01*
X146435419Y-86389967D01*
X146428145Y-86386819D01*
X146420322Y-86385580D01*
X146420312Y-86385577D01*
X146384476Y-86379901D01*
X146372856Y-86377495D01*
X146337711Y-86368472D01*
X146337710Y-86368472D01*
X146330030Y-86366500D01*
X146309776Y-86366500D01*
X146290065Y-86364949D01*
X146277886Y-86363020D01*
X146270057Y-86361780D01*
X146262165Y-86362526D01*
X146226039Y-86365941D01*
X146214181Y-86366500D01*
X142958200Y-86366500D01*
X142890079Y-86346498D01*
X142870853Y-86330157D01*
X142870580Y-86330460D01*
X142865668Y-86326037D01*
X142861253Y-86321134D01*
X142706752Y-86208882D01*
X142700724Y-86206198D01*
X142700722Y-86206197D01*
X142538319Y-86133891D01*
X142538318Y-86133891D01*
X142532288Y-86131206D01*
X142438888Y-86111353D01*
X142351944Y-86092872D01*
X142351939Y-86092872D01*
X142345487Y-86091500D01*
X142154513Y-86091500D01*
X142148061Y-86092872D01*
X142148056Y-86092872D01*
X142061112Y-86111353D01*
X141967712Y-86131206D01*
X141961682Y-86133891D01*
X141961681Y-86133891D01*
X141799278Y-86206197D01*
X141799276Y-86206198D01*
X141793248Y-86208882D01*
X141638747Y-86321134D01*
X141634326Y-86326044D01*
X141634325Y-86326045D01*
X141525203Y-86447238D01*
X141510960Y-86463056D01*
X141415473Y-86628444D01*
X141356458Y-86810072D01*
X141336496Y-87000000D01*
X139757777Y-87000000D01*
X139734527Y-86928444D01*
X139639040Y-86763056D01*
X139511253Y-86621134D01*
X139374038Y-86521441D01*
X139362094Y-86512763D01*
X139362093Y-86512762D01*
X139356752Y-86508882D01*
X139350724Y-86506198D01*
X139350722Y-86506197D01*
X139188319Y-86433891D01*
X139188318Y-86433891D01*
X139182288Y-86431206D01*
X139088887Y-86411353D01*
X139001944Y-86392872D01*
X139001939Y-86392872D01*
X138995487Y-86391500D01*
X138804513Y-86391500D01*
X138798061Y-86392872D01*
X138798056Y-86392872D01*
X138711113Y-86411353D01*
X138617712Y-86431206D01*
X138611682Y-86433891D01*
X138611681Y-86433891D01*
X138449278Y-86506197D01*
X138449276Y-86506198D01*
X138443248Y-86508882D01*
X138437907Y-86512762D01*
X138437906Y-86512763D01*
X138425962Y-86521441D01*
X138288747Y-86621134D01*
X138160960Y-86763056D01*
X138065473Y-86928444D01*
X138006458Y-87110072D01*
X137986496Y-87300000D01*
X136808000Y-87300000D01*
X136808000Y-73000000D01*
X139336496Y-73000000D01*
X139356458Y-73189928D01*
X139415473Y-73371556D01*
X139510960Y-73536944D01*
X139638747Y-73678866D01*
X139793248Y-73791118D01*
X139799276Y-73793802D01*
X139799278Y-73793803D01*
X139961681Y-73866109D01*
X139967712Y-73868794D01*
X140061112Y-73888647D01*
X140148056Y-73907128D01*
X140148061Y-73907128D01*
X140154513Y-73908500D01*
X140345487Y-73908500D01*
X140351939Y-73907128D01*
X140351944Y-73907128D01*
X140438888Y-73888647D01*
X140532288Y-73868794D01*
X140538319Y-73866109D01*
X140700722Y-73793803D01*
X140700724Y-73793802D01*
X140706752Y-73791118D01*
X140861253Y-73678866D01*
X140865668Y-73673963D01*
X140870580Y-73669540D01*
X140871705Y-73670789D01*
X140925014Y-73637949D01*
X140958200Y-73633500D01*
X143885406Y-73633500D01*
X143953527Y-73653502D01*
X143974501Y-73670405D01*
X149079595Y-78775499D01*
X149113621Y-78837811D01*
X149116500Y-78864594D01*
X149116500Y-95047476D01*
X149096498Y-95115597D01*
X149084142Y-95131779D01*
X149010960Y-95213056D01*
X148915473Y-95378444D01*
X148856458Y-95560072D01*
X148855768Y-95566633D01*
X148855768Y-95566635D01*
X148842810Y-95689928D01*
X148836496Y-95750000D01*
X148856458Y-95939928D01*
X148915473Y-96121556D01*
X149010960Y-96286944D01*
X149138747Y-96428866D01*
X149293248Y-96541118D01*
X149299276Y-96543802D01*
X149299278Y-96543803D01*
X149461681Y-96616109D01*
X149467712Y-96618794D01*
X149561113Y-96638647D01*
X149648056Y-96657128D01*
X149648061Y-96657128D01*
X149654513Y-96658500D01*
X149845487Y-96658500D01*
X149851939Y-96657128D01*
X149851944Y-96657128D01*
X149938888Y-96638647D01*
X150032288Y-96618794D01*
X150038319Y-96616109D01*
X150200722Y-96543803D01*
X150200724Y-96543802D01*
X150206752Y-96541118D01*
X150361253Y-96428866D01*
X150489040Y-96286944D01*
X150584527Y-96121556D01*
X150643542Y-95939928D01*
X150663504Y-95750000D01*
X150657190Y-95689928D01*
X150644232Y-95566635D01*
X150644232Y-95566633D01*
X150643542Y-95560072D01*
X150584527Y-95378444D01*
X150489040Y-95213056D01*
X150415863Y-95131785D01*
X150385147Y-95067779D01*
X150383500Y-95047476D01*
X150383500Y-80300000D01*
X165386496Y-80300000D01*
X165406458Y-80489928D01*
X165465473Y-80671556D01*
X165560960Y-80836944D01*
X165688747Y-80978866D01*
X165843248Y-81091118D01*
X165849276Y-81093802D01*
X165849278Y-81093803D01*
X166011681Y-81166109D01*
X166017712Y-81168794D01*
X166111113Y-81188647D01*
X166198056Y-81207128D01*
X166198061Y-81207128D01*
X166204513Y-81208500D01*
X166395487Y-81208500D01*
X166401939Y-81207128D01*
X166401944Y-81207128D01*
X166488887Y-81188647D01*
X166582288Y-81168794D01*
X166588319Y-81166109D01*
X166750722Y-81093803D01*
X166750724Y-81093802D01*
X166756752Y-81091118D01*
X166911253Y-80978866D01*
X167039040Y-80836944D01*
X167134527Y-80671556D01*
X167193542Y-80489928D01*
X167213504Y-80300000D01*
X167193542Y-80110072D01*
X167134527Y-79928444D01*
X167039040Y-79763056D01*
X166911253Y-79621134D01*
X166756752Y-79508882D01*
X166750724Y-79506198D01*
X166750722Y-79506197D01*
X166588319Y-79433891D01*
X166588318Y-79433891D01*
X166582288Y-79431206D01*
X166488887Y-79411353D01*
X166401944Y-79392872D01*
X166401939Y-79392872D01*
X166395487Y-79391500D01*
X166204513Y-79391500D01*
X166198061Y-79392872D01*
X166198056Y-79392872D01*
X166111112Y-79411353D01*
X166017712Y-79431206D01*
X166011682Y-79433891D01*
X166011681Y-79433891D01*
X165849278Y-79506197D01*
X165849276Y-79506198D01*
X165843248Y-79508882D01*
X165688747Y-79621134D01*
X165560960Y-79763056D01*
X165465473Y-79928444D01*
X165406458Y-80110072D01*
X165386496Y-80300000D01*
X150383500Y-80300000D01*
X150383500Y-78628767D01*
X150384027Y-78617584D01*
X150385702Y-78610091D01*
X150383562Y-78542014D01*
X150383500Y-78538055D01*
X150383500Y-78510144D01*
X150382995Y-78506144D01*
X150382062Y-78494301D01*
X150380922Y-78458029D01*
X150380673Y-78450110D01*
X150375022Y-78430658D01*
X150371014Y-78411306D01*
X150369467Y-78399063D01*
X150368474Y-78391203D01*
X150365556Y-78383832D01*
X150352200Y-78350097D01*
X150348355Y-78338870D01*
X150347721Y-78336687D01*
X150336018Y-78296407D01*
X150331984Y-78289585D01*
X150331981Y-78289579D01*
X150325706Y-78278968D01*
X150317010Y-78261218D01*
X150312472Y-78249756D01*
X150312469Y-78249751D01*
X150309552Y-78242383D01*
X150283573Y-78206625D01*
X150277057Y-78196707D01*
X150258575Y-78165457D01*
X150254542Y-78158637D01*
X150240218Y-78144313D01*
X150227376Y-78129278D01*
X150215472Y-78112893D01*
X150181406Y-78084711D01*
X150172627Y-78076722D01*
X144703652Y-72607747D01*
X144696112Y-72599461D01*
X144692000Y-72592982D01*
X144642348Y-72546356D01*
X144639507Y-72543602D01*
X144619770Y-72523865D01*
X144616573Y-72521385D01*
X144607551Y-72513680D01*
X144581100Y-72488841D01*
X144575321Y-72483414D01*
X144568375Y-72479595D01*
X144568372Y-72479593D01*
X144557566Y-72473652D01*
X144541047Y-72462801D01*
X144535048Y-72458148D01*
X144525041Y-72450386D01*
X144517772Y-72447241D01*
X144517768Y-72447238D01*
X144484463Y-72432826D01*
X144473813Y-72427609D01*
X144435060Y-72406305D01*
X144415437Y-72401267D01*
X144396734Y-72394863D01*
X144385420Y-72389967D01*
X144385419Y-72389967D01*
X144378145Y-72386819D01*
X144370322Y-72385580D01*
X144370312Y-72385577D01*
X144334476Y-72379901D01*
X144322856Y-72377495D01*
X144287711Y-72368472D01*
X144287710Y-72368472D01*
X144280030Y-72366500D01*
X144259776Y-72366500D01*
X144240065Y-72364949D01*
X144227886Y-72363020D01*
X144220057Y-72361780D01*
X144212165Y-72362526D01*
X144176039Y-72365941D01*
X144164181Y-72366500D01*
X140958200Y-72366500D01*
X140890079Y-72346498D01*
X140870853Y-72330157D01*
X140870580Y-72330460D01*
X140865668Y-72326037D01*
X140861253Y-72321134D01*
X140706752Y-72208882D01*
X140700724Y-72206198D01*
X140700722Y-72206197D01*
X140538319Y-72133891D01*
X140538318Y-72133891D01*
X140532288Y-72131206D01*
X140438888Y-72111353D01*
X140351944Y-72092872D01*
X140351939Y-72092872D01*
X140345487Y-72091500D01*
X140154513Y-72091500D01*
X140148061Y-72092872D01*
X140148056Y-72092872D01*
X140061112Y-72111353D01*
X139967712Y-72131206D01*
X139961682Y-72133891D01*
X139961681Y-72133891D01*
X139799278Y-72206197D01*
X139799276Y-72206198D01*
X139793248Y-72208882D01*
X139638747Y-72321134D01*
X139634326Y-72326044D01*
X139634325Y-72326045D01*
X139525203Y-72447238D01*
X139510960Y-72463056D01*
X139415473Y-72628444D01*
X139356458Y-72810072D01*
X139336496Y-73000000D01*
X136808000Y-73000000D01*
X136808000Y-69894834D01*
X136828002Y-69826713D01*
X136881658Y-69780220D01*
X136951932Y-69770116D01*
X137008059Y-69792897D01*
X137143248Y-69891118D01*
X137149276Y-69893802D01*
X137149278Y-69893803D01*
X137151594Y-69894834D01*
X137317712Y-69968794D01*
X137411112Y-69988647D01*
X137498056Y-70007128D01*
X137498061Y-70007128D01*
X137504513Y-70008500D01*
X137695487Y-70008500D01*
X137701939Y-70007128D01*
X137701944Y-70007128D01*
X137788888Y-69988647D01*
X137882288Y-69968794D01*
X138048406Y-69894834D01*
X138050722Y-69893803D01*
X138050724Y-69893802D01*
X138056752Y-69891118D01*
X138211253Y-69778866D01*
X138339040Y-69636944D01*
X138434527Y-69471556D01*
X138493542Y-69289928D01*
X138513504Y-69100000D01*
X138493542Y-68910072D01*
X138434527Y-68728444D01*
X138416372Y-68696998D01*
X138399635Y-68628004D01*
X138422856Y-68560912D01*
X138478663Y-68517025D01*
X138525492Y-68508000D01*
X168623828Y-68508000D01*
X168696740Y-68531239D01*
G37*
%TD.AperFunction*%
%TD*%
M02*
