M48
; DRILL file {KiCad (6.0.2)} date Mon Mar 14 11:31:18 2022
; FORMAT={-:-/ absolute / inch / decimal}
; #@! TF.CreationDate,2022-03-14T11:31:18-04:00
; #@! TF.GenerationSoftware,Kicad,Pcbnew,(6.0.2)
; #@! TF.FileFunction,Plated,1,4,PTH
FMAT,2
INCH
; #@! TA.AperFunction,Plated,PTH,ViaDrill
T1C0.0157
; #@! TA.AperFunction,Plated,PTH,ComponentDrill
T2C0.0236
; #@! TA.AperFunction,Plated,PTH,ComponentDrill
T3C0.0295
; #@! TA.AperFunction,Plated,PTH,ComponentDrill
T4C0.0394
%
G90
G05
T1
X5.1614Y-4.252
X5.1772Y-4.8031
X5.1969Y-3.7756
X5.315Y-4.0315
X5.315Y-4.8976
X5.3927Y-4.4793
X5.3937Y-3.8386
X5.4134Y-2.8583
X5.4134Y-3.437
X5.4173Y-2.7205
X5.4331Y-4.8031
X5.4646Y-3.689
X5.4685Y-3.437
X5.4685Y-3.5394
X5.5Y-4.1811
X5.5118Y-4.4606
X5.5217Y-2.874
X5.5276Y-3.0
X5.5276Y-3.2953
X5.5315Y-3.689
X5.5354Y-3.8386
X5.5433Y-4.1811
X5.5748Y-4.9488
X5.5748Y-5.0
X5.5748Y-5.0512
X5.5906Y-3.5906
X5.6004Y-3.4252
X5.6142Y-4.1457
X5.6142Y-4.2165
X5.626Y-4.9488
X5.626Y-5.0
X5.626Y-5.0512
X5.6614Y-4.1457
X5.6614Y-4.2165
X5.685Y-2.7205
X5.685Y-4.7087
X5.7087Y-4.1457
X5.7087Y-4.2165
X5.7362Y-4.3465
X5.7402Y-4.8858
X5.7441Y-4.7087
X5.752Y-4.5669
X5.7876Y-4.862
X5.7913Y-4.1457
X5.7913Y-4.1969
X5.8031Y-4.7087
X5.8071Y-3.7598
X5.8071Y-3.9055
X5.8366Y-5.0591
X5.8504Y-3.7008
X5.8661Y-4.0354
X5.8701Y-4.5669
X5.8957Y-3.7697
X5.9055Y-4.7677
X5.9055Y-4.8504
X5.9449Y-3.9764
X5.9449Y-4.0669
X5.9449Y-4.1457
X5.9449Y-4.1969
X5.9843Y-5.0591
X6.0039Y-3.9055
X6.0079Y-4.7087
X6.0354Y-4.8701
X6.0433Y-4.1929
X6.0433Y-4.2717
X6.0433Y-4.3543
X6.0433Y-4.4094
X6.0433Y-4.4685
X6.0591Y-3.5787
X6.0669Y-4.7087
X6.0709Y-3.7008
X6.1181Y-3.0
X6.1181Y-3.2953
X6.126Y-4.7087
X6.1614Y-4.1929
X6.1614Y-4.2717
X6.189Y-4.5827
X6.189Y-4.6732
X6.2638Y-3.8543
X6.2795Y-4.1929
X6.2795Y-4.2717
X6.2795Y-4.3504
X6.2795Y-4.4094
X6.2795Y-4.4685
X6.2992Y-5.1378
X6.3346Y-4.4882
X6.3583Y-3.7795
X6.3583Y-4.0157
X6.3819Y-2.878
X6.3858Y-4.5472
X6.3878Y-3.1299
X6.4173Y-4.252
X6.4331Y-2.8937
X6.437Y-2.7461
X6.437Y-2.8346
X6.4567Y-4.252
X6.4961Y-3.4921
X6.4961Y-5.1476
X6.5Y-3.6575
X6.5118Y-4.4843
X6.5472Y-3.1614
X6.5472Y-3.2205
X6.5512Y-4.2638
X6.5551Y-2.7461
X6.5551Y-2.8346
X6.563Y-2.9646
X6.563Y-3.0591
X6.5669Y-3.3465
X6.5669Y-3.7008
X6.5669Y-4.0551
X6.5866Y-4.5472
X6.6142Y-4.3307
X6.6339Y-4.4134
X6.6575Y-3.3465
X6.6575Y-3.7008
X6.6575Y-4.0551
T3
X5.2362Y-4.9705
X5.315Y-4.9705
X6.2205Y-4.9705
X6.2992Y-4.9705
X6.4961Y-4.9705
X6.5748Y-4.9705
T4
X5.5004Y-5.1476
X5.6004Y-5.1476
T2
G00X5.7354Y-4.9437
M15
G01X5.7354Y-4.987
M16
G05
G00X5.7354Y-5.1181
M15
G01X5.7354Y-5.1417
M16
G05
G00X6.0756Y-4.9437
M15
G01X6.0756Y-4.987
M16
G05
G00X6.0756Y-5.1181
M15
G01X6.0756Y-5.1417
M16
G05
T0
M30
