%TF.GenerationSoftware,KiCad,Pcbnew,(6.0.2)*%
%TF.CreationDate,2022-03-14T11:31:15-04:00*%
%TF.ProjectId,aquabotsBMS,61717561-626f-4747-9342-4d532e6b6963,rev?*%
%TF.SameCoordinates,Original*%
%TF.FileFunction,Copper,L2,Inr*%
%TF.FilePolarity,Positive*%
%FSLAX46Y46*%
G04 Gerber Fmt 4.6, Leading zero omitted, Abs format (unit mm)*
G04 Created by KiCad (PCBNEW (6.0.2)) date 2022-03-14 11:31:15*
%MOMM*%
%LPD*%
G01*
G04 APERTURE LIST*
G04 Aperture macros list*
%AMRoundRect*
0 Rectangle with rounded corners*
0 $1 Rounding radius*
0 $2 $3 $4 $5 $6 $7 $8 $9 X,Y pos of 4 corners*
0 Add a 4 corners polygon primitive as box body*
4,1,4,$2,$3,$4,$5,$6,$7,$8,$9,$2,$3,0*
0 Add four circle primitives for the rounded corners*
1,1,$1+$1,$2,$3*
1,1,$1+$1,$4,$5*
1,1,$1+$1,$6,$7*
1,1,$1+$1,$8,$9*
0 Add four rect primitives between the rounded corners*
20,1,$1+$1,$2,$3,$4,$5,0*
20,1,$1+$1,$4,$5,$6,$7,0*
20,1,$1+$1,$6,$7,$8,$9,0*
20,1,$1+$1,$8,$9,$2,$3,0*%
G04 Aperture macros list end*
%TA.AperFunction,ComponentPad*%
%ADD10RoundRect,0.250000X-0.350000X-0.625000X0.350000X-0.625000X0.350000X0.625000X-0.350000X0.625000X0*%
%TD*%
%TA.AperFunction,ComponentPad*%
%ADD11O,1.200000X1.750000*%
%TD*%
%TA.AperFunction,ComponentPad*%
%ADD12R,1.700000X1.700000*%
%TD*%
%TA.AperFunction,ComponentPad*%
%ADD13O,1.700000X1.700000*%
%TD*%
%TA.AperFunction,ComponentPad*%
%ADD14O,1.000000X2.100000*%
%TD*%
%TA.AperFunction,ComponentPad*%
%ADD15O,1.000000X1.600000*%
%TD*%
%TA.AperFunction,ViaPad*%
%ADD16C,0.800000*%
%TD*%
G04 APERTURE END LIST*
D10*
%TO.N,/I2C_SDA*%
%TO.C,J5*%
X158000000Y-126250000D03*
D11*
%TO.N,/I2C_SCL*%
X160000000Y-126250000D03*
%TD*%
D10*
%TO.N,Net-(J2-Pad1)*%
%TO.C,J2*%
X165000000Y-126250000D03*
D11*
%TO.N,Net-(J2-Pad2)*%
X167000000Y-126250000D03*
%TD*%
D10*
%TO.N,/MODULE_RX*%
%TO.C,J3*%
X133000000Y-126250000D03*
D11*
%TO.N,+3V3*%
X135000000Y-126250000D03*
%TD*%
D12*
%TO.N,GND*%
%TO.C,J4*%
X142250000Y-130750000D03*
D13*
%TO.N,+BATT*%
X139710000Y-130750000D03*
%TD*%
D14*
%TO.N,Net-(C5-Pad1)*%
%TO.C,J1*%
X154320000Y-126120000D03*
D15*
X154320000Y-130300000D03*
X145680000Y-130300000D03*
D14*
X145680000Y-126120000D03*
%TD*%
D16*
%TO.N,GND*%
X166800000Y-85000000D03*
X166700000Y-75300000D03*
X151000000Y-106600000D03*
X147400000Y-119600000D03*
X162200000Y-115500000D03*
X142900000Y-125700000D03*
X145000000Y-107100000D03*
X141600000Y-125700000D03*
X160900000Y-114000000D03*
X151000000Y-103300000D03*
X140600000Y-97500000D03*
X162100000Y-73100000D03*
X169100000Y-85000000D03*
X142600000Y-107100000D03*
X163500000Y-72000000D03*
X139700000Y-106200000D03*
X146100000Y-116000000D03*
X141600000Y-128300000D03*
X143800000Y-105300000D03*
X138800000Y-93700000D03*
X155400000Y-83700000D03*
X163400000Y-73500000D03*
X155600000Y-119600000D03*
X145900000Y-119600000D03*
X153300000Y-123700000D03*
X142600000Y-105300000D03*
X140800000Y-106200000D03*
X149100000Y-116000000D03*
X140400000Y-83700000D03*
X147100000Y-105300000D03*
X147500000Y-99200000D03*
X166500000Y-69750000D03*
X166500000Y-72000000D03*
X156500000Y-106500000D03*
X162250000Y-79500000D03*
X169100000Y-103000000D03*
X166300000Y-81800000D03*
X152000000Y-128500000D03*
X145000000Y-105300000D03*
X140500000Y-93700000D03*
X137500000Y-87300000D03*
X167300000Y-115500000D03*
X154100000Y-119600000D03*
X165100000Y-92900000D03*
X155400000Y-76200000D03*
X169100000Y-94000000D03*
X137000000Y-97500000D03*
X160000000Y-130500000D03*
X140400000Y-76200000D03*
X150000000Y-123200000D03*
X148600000Y-94000000D03*
X138000000Y-122000000D03*
X166800000Y-94000000D03*
X142900000Y-127000000D03*
X142900000Y-128300000D03*
X163500000Y-69750000D03*
X152600000Y-119600000D03*
X159100000Y-97900000D03*
X145800000Y-124100000D03*
X136975000Y-113775000D03*
X154200000Y-94000000D03*
X161500000Y-102000000D03*
X131100000Y-108000000D03*
X165400000Y-113900000D03*
X144400000Y-69100000D03*
X151000000Y-101000000D03*
X143800000Y-107100000D03*
X151000000Y-105300000D03*
X152500000Y-99200000D03*
X166700000Y-77700000D03*
X166800000Y-103000000D03*
X131500000Y-122000000D03*
X165000000Y-130750000D03*
X147100000Y-106600000D03*
X132000000Y-95900000D03*
X165000000Y-88700000D03*
X141600000Y-127000000D03*
X148250000Y-128500000D03*
X168000000Y-110000000D03*
X137500000Y-72600000D03*
X157200000Y-118700000D03*
X166400000Y-108300000D03*
X161500000Y-96000000D03*
X157200000Y-116400000D03*
%TO.N,+3V3*%
X159500000Y-110500000D03*
X153500000Y-112000000D03*
X159500000Y-113500000D03*
X166300000Y-80300000D03*
X138900000Y-89900000D03*
X156500000Y-108500000D03*
X153500000Y-108500000D03*
X137600000Y-69100000D03*
X153500000Y-113500000D03*
X153500000Y-110600000D03*
X138900000Y-87300000D03*
X135000000Y-124400000D03*
X142000000Y-91200000D03*
X159500000Y-108500000D03*
X153500000Y-106500000D03*
X159500000Y-112000000D03*
X140000000Y-113300000D03*
X159500000Y-106500000D03*
%TO.N,/MODULE_TX*%
X168500000Y-112100000D03*
X153900000Y-90900000D03*
%TO.N,/I2C_SDA*%
X164000003Y-108000000D03*
%TO.N,/I2C_SCL*%
X163000000Y-108000000D03*
%TO.N,VBUS*%
X135000000Y-102400000D03*
X144400000Y-119600000D03*
%TO.N,Net-(C6-Pad1)*%
X147006250Y-123493750D03*
X150000000Y-121100000D03*
%TO.N,/EN*%
X149750000Y-95750000D03*
X140250000Y-73000000D03*
%TO.N,/IO0*%
X142250000Y-87000000D03*
X147500000Y-95500000D03*
%TO.N,Net-(C12-Pad2)*%
X149000000Y-102500000D03*
X145700000Y-110400000D03*
%TD*%
%TA.AperFunction,Conductor*%
%TO.N,+3V3*%
G36*
X143542629Y-68528002D02*
G01*
X143589122Y-68581658D01*
X143599226Y-68651932D01*
X143583628Y-68696998D01*
X143565473Y-68728444D01*
X143506458Y-68910072D01*
X143486496Y-69100000D01*
X143487186Y-69106565D01*
X143498980Y-69218774D01*
X143506458Y-69289928D01*
X143565473Y-69471556D01*
X143660960Y-69636944D01*
X143788747Y-69778866D01*
X143943248Y-69891118D01*
X143949276Y-69893802D01*
X143949278Y-69893803D01*
X144066978Y-69946206D01*
X144117712Y-69968794D01*
X144211112Y-69988647D01*
X144298056Y-70007128D01*
X144298061Y-70007128D01*
X144304513Y-70008500D01*
X144495487Y-70008500D01*
X144501939Y-70007128D01*
X144501944Y-70007128D01*
X144588888Y-69988647D01*
X144682288Y-69968794D01*
X144733022Y-69946206D01*
X144850722Y-69893803D01*
X144850724Y-69893802D01*
X144856752Y-69891118D01*
X145011253Y-69778866D01*
X145037244Y-69750000D01*
X162586496Y-69750000D01*
X162606458Y-69939928D01*
X162665473Y-70121556D01*
X162760960Y-70286944D01*
X162888747Y-70428866D01*
X163043248Y-70541118D01*
X163049276Y-70543802D01*
X163049278Y-70543803D01*
X163211681Y-70616109D01*
X163217712Y-70618794D01*
X163311112Y-70638647D01*
X163398056Y-70657128D01*
X163398061Y-70657128D01*
X163404513Y-70658500D01*
X163595487Y-70658500D01*
X163601939Y-70657128D01*
X163601944Y-70657128D01*
X163688888Y-70638647D01*
X163782288Y-70618794D01*
X163788319Y-70616109D01*
X163950722Y-70543803D01*
X163950724Y-70543802D01*
X163956752Y-70541118D01*
X164111253Y-70428866D01*
X164239040Y-70286944D01*
X164334527Y-70121556D01*
X164393542Y-69939928D01*
X164413504Y-69750000D01*
X165586496Y-69750000D01*
X165606458Y-69939928D01*
X165665473Y-70121556D01*
X165760960Y-70286944D01*
X165888747Y-70428866D01*
X166043248Y-70541118D01*
X166049276Y-70543802D01*
X166049278Y-70543803D01*
X166211681Y-70616109D01*
X166217712Y-70618794D01*
X166311112Y-70638647D01*
X166398056Y-70657128D01*
X166398061Y-70657128D01*
X166404513Y-70658500D01*
X166595487Y-70658500D01*
X166601939Y-70657128D01*
X166601944Y-70657128D01*
X166688888Y-70638647D01*
X166782288Y-70618794D01*
X166788319Y-70616109D01*
X166950722Y-70543803D01*
X166950724Y-70543802D01*
X166956752Y-70541118D01*
X167111253Y-70428866D01*
X167239040Y-70286944D01*
X167334527Y-70121556D01*
X167393542Y-69939928D01*
X167413504Y-69750000D01*
X167402137Y-69641852D01*
X167394232Y-69566635D01*
X167394232Y-69566633D01*
X167393542Y-69560072D01*
X167334527Y-69378444D01*
X167239040Y-69213056D01*
X167111253Y-69071134D01*
X166956752Y-68958882D01*
X166950724Y-68956198D01*
X166950722Y-68956197D01*
X166788319Y-68883891D01*
X166788318Y-68883891D01*
X166782288Y-68881206D01*
X166688887Y-68861353D01*
X166601944Y-68842872D01*
X166601939Y-68842872D01*
X166595487Y-68841500D01*
X166404513Y-68841500D01*
X166398061Y-68842872D01*
X166398056Y-68842872D01*
X166311113Y-68861353D01*
X166217712Y-68881206D01*
X166211682Y-68883891D01*
X166211681Y-68883891D01*
X166049278Y-68956197D01*
X166049276Y-68956198D01*
X166043248Y-68958882D01*
X165888747Y-69071134D01*
X165760960Y-69213056D01*
X165665473Y-69378444D01*
X165606458Y-69560072D01*
X165605768Y-69566633D01*
X165605768Y-69566635D01*
X165597863Y-69641852D01*
X165586496Y-69750000D01*
X164413504Y-69750000D01*
X164402137Y-69641852D01*
X164394232Y-69566635D01*
X164394232Y-69566633D01*
X164393542Y-69560072D01*
X164334527Y-69378444D01*
X164239040Y-69213056D01*
X164111253Y-69071134D01*
X163956752Y-68958882D01*
X163950724Y-68956198D01*
X163950722Y-68956197D01*
X163788319Y-68883891D01*
X163788318Y-68883891D01*
X163782288Y-68881206D01*
X163688887Y-68861353D01*
X163601944Y-68842872D01*
X163601939Y-68842872D01*
X163595487Y-68841500D01*
X163404513Y-68841500D01*
X163398061Y-68842872D01*
X163398056Y-68842872D01*
X163311113Y-68861353D01*
X163217712Y-68881206D01*
X163211682Y-68883891D01*
X163211681Y-68883891D01*
X163049278Y-68956197D01*
X163049276Y-68956198D01*
X163043248Y-68958882D01*
X162888747Y-69071134D01*
X162760960Y-69213056D01*
X162665473Y-69378444D01*
X162606458Y-69560072D01*
X162605768Y-69566633D01*
X162605768Y-69566635D01*
X162597863Y-69641852D01*
X162586496Y-69750000D01*
X145037244Y-69750000D01*
X145139040Y-69636944D01*
X145234527Y-69471556D01*
X145293542Y-69289928D01*
X145301021Y-69218774D01*
X145312814Y-69106565D01*
X145313504Y-69100000D01*
X145293542Y-68910072D01*
X145234527Y-68728444D01*
X145216372Y-68696998D01*
X145199635Y-68628004D01*
X145222856Y-68560912D01*
X145278663Y-68517025D01*
X145325492Y-68508000D01*
X168623828Y-68508000D01*
X168696740Y-68531239D01*
X168864699Y-68650412D01*
X168875740Y-68659216D01*
X168960239Y-68734729D01*
X169116044Y-68873965D01*
X169126034Y-68883955D01*
X169340784Y-69124260D01*
X169349588Y-69135301D01*
X169468761Y-69303260D01*
X169492000Y-69376172D01*
X169492000Y-83998928D01*
X169471998Y-84067049D01*
X169418342Y-84113542D01*
X169348068Y-84123646D01*
X169339803Y-84122175D01*
X169201944Y-84092872D01*
X169201939Y-84092872D01*
X169195487Y-84091500D01*
X169004513Y-84091500D01*
X168998061Y-84092872D01*
X168998056Y-84092872D01*
X168911112Y-84111353D01*
X168817712Y-84131206D01*
X168811682Y-84133891D01*
X168811681Y-84133891D01*
X168649278Y-84206197D01*
X168649276Y-84206198D01*
X168643248Y-84208882D01*
X168488747Y-84321134D01*
X168360960Y-84463056D01*
X168265473Y-84628444D01*
X168206458Y-84810072D01*
X168186496Y-85000000D01*
X168206458Y-85189928D01*
X168265473Y-85371556D01*
X168360960Y-85536944D01*
X168488747Y-85678866D01*
X168643248Y-85791118D01*
X168649276Y-85793802D01*
X168649278Y-85793803D01*
X168707999Y-85819947D01*
X168817712Y-85868794D01*
X168885614Y-85883227D01*
X168998056Y-85907128D01*
X168998061Y-85907128D01*
X169004513Y-85908500D01*
X169195487Y-85908500D01*
X169201939Y-85907128D01*
X169201944Y-85907128D01*
X169339803Y-85877825D01*
X169410594Y-85883227D01*
X169467227Y-85926044D01*
X169491720Y-85992682D01*
X169492000Y-86001072D01*
X169492000Y-92998928D01*
X169471998Y-93067049D01*
X169418342Y-93113542D01*
X169348068Y-93123646D01*
X169339803Y-93122175D01*
X169201944Y-93092872D01*
X169201939Y-93092872D01*
X169195487Y-93091500D01*
X169004513Y-93091500D01*
X168998061Y-93092872D01*
X168998056Y-93092872D01*
X168911112Y-93111353D01*
X168817712Y-93131206D01*
X168811682Y-93133891D01*
X168811681Y-93133891D01*
X168649278Y-93206197D01*
X168649276Y-93206198D01*
X168643248Y-93208882D01*
X168637907Y-93212762D01*
X168637906Y-93212763D01*
X168618165Y-93227106D01*
X168488747Y-93321134D01*
X168484326Y-93326044D01*
X168484325Y-93326045D01*
X168401221Y-93418342D01*
X168360960Y-93463056D01*
X168321437Y-93531512D01*
X168271270Y-93618404D01*
X168265473Y-93628444D01*
X168206458Y-93810072D01*
X168186496Y-94000000D01*
X168187186Y-94006565D01*
X168204707Y-94173264D01*
X168206458Y-94189928D01*
X168265473Y-94371556D01*
X168360960Y-94536944D01*
X168488747Y-94678866D01*
X168643248Y-94791118D01*
X168649276Y-94793802D01*
X168649278Y-94793803D01*
X168756408Y-94841500D01*
X168817712Y-94868794D01*
X168911112Y-94888647D01*
X168998056Y-94907128D01*
X168998061Y-94907128D01*
X169004513Y-94908500D01*
X169195487Y-94908500D01*
X169201939Y-94907128D01*
X169201944Y-94907128D01*
X169339803Y-94877825D01*
X169410594Y-94883227D01*
X169467227Y-94926044D01*
X169491720Y-94992682D01*
X169492000Y-95001072D01*
X169492000Y-101998928D01*
X169471998Y-102067049D01*
X169418342Y-102113542D01*
X169348068Y-102123646D01*
X169339803Y-102122175D01*
X169201944Y-102092872D01*
X169201939Y-102092872D01*
X169195487Y-102091500D01*
X169004513Y-102091500D01*
X168998061Y-102092872D01*
X168998056Y-102092872D01*
X168911112Y-102111353D01*
X168817712Y-102131206D01*
X168811682Y-102133891D01*
X168811681Y-102133891D01*
X168649278Y-102206197D01*
X168649276Y-102206198D01*
X168643248Y-102208882D01*
X168488747Y-102321134D01*
X168360960Y-102463056D01*
X168265473Y-102628444D01*
X168206458Y-102810072D01*
X168205768Y-102816633D01*
X168205768Y-102816635D01*
X168187186Y-102993435D01*
X168186496Y-103000000D01*
X168206458Y-103189928D01*
X168265473Y-103371556D01*
X168268776Y-103377278D01*
X168268777Y-103377279D01*
X168286803Y-103408500D01*
X168360960Y-103536944D01*
X168488747Y-103678866D01*
X168643248Y-103791118D01*
X168649276Y-103793802D01*
X168649278Y-103793803D01*
X168707999Y-103819947D01*
X168817712Y-103868794D01*
X168885614Y-103883227D01*
X168998056Y-103907128D01*
X168998061Y-103907128D01*
X169004513Y-103908500D01*
X169195487Y-103908500D01*
X169201939Y-103907128D01*
X169201944Y-103907128D01*
X169339803Y-103877825D01*
X169410594Y-103883227D01*
X169467227Y-103926044D01*
X169491720Y-103992682D01*
X169492000Y-104001072D01*
X169492000Y-111530957D01*
X169471998Y-111599078D01*
X169418342Y-111645571D01*
X169348068Y-111655675D01*
X169283488Y-111626181D01*
X169256881Y-111593958D01*
X169242341Y-111568774D01*
X169239040Y-111563056D01*
X169111253Y-111421134D01*
X168956752Y-111308882D01*
X168950724Y-111306198D01*
X168950722Y-111306197D01*
X168788319Y-111233891D01*
X168788318Y-111233891D01*
X168782288Y-111231206D01*
X168688888Y-111211353D01*
X168601944Y-111192872D01*
X168601939Y-111192872D01*
X168595487Y-111191500D01*
X168404513Y-111191500D01*
X168398061Y-111192872D01*
X168398056Y-111192872D01*
X168311113Y-111211353D01*
X168217712Y-111231206D01*
X168211682Y-111233891D01*
X168211681Y-111233891D01*
X168049278Y-111306197D01*
X168049276Y-111306198D01*
X168043248Y-111308882D01*
X167888747Y-111421134D01*
X167760960Y-111563056D01*
X167665473Y-111728444D01*
X167606458Y-111910072D01*
X167586496Y-112100000D01*
X167606458Y-112289928D01*
X167665473Y-112471556D01*
X167760960Y-112636944D01*
X167888747Y-112778866D01*
X168043248Y-112891118D01*
X168049276Y-112893802D01*
X168049278Y-112893803D01*
X168211681Y-112966109D01*
X168217712Y-112968794D01*
X168306954Y-112987763D01*
X168398056Y-113007128D01*
X168398061Y-113007128D01*
X168404513Y-113008500D01*
X168595487Y-113008500D01*
X168601939Y-113007128D01*
X168601944Y-113007128D01*
X168693046Y-112987763D01*
X168782288Y-112968794D01*
X168788319Y-112966109D01*
X168950722Y-112893803D01*
X168950724Y-112893802D01*
X168956752Y-112891118D01*
X169111253Y-112778866D01*
X169239040Y-112636944D01*
X169256882Y-112606041D01*
X169308264Y-112557049D01*
X169377978Y-112543614D01*
X169443889Y-112570001D01*
X169485070Y-112627833D01*
X169492000Y-112669043D01*
X169492000Y-131623828D01*
X169468761Y-131696740D01*
X169349588Y-131864699D01*
X169340784Y-131875740D01*
X169126035Y-132116044D01*
X169116045Y-132126034D01*
X168875740Y-132340784D01*
X168864699Y-132349588D01*
X168696740Y-132468761D01*
X168623828Y-132492000D01*
X131376172Y-132492000D01*
X131303260Y-132468761D01*
X131135301Y-132349588D01*
X131124260Y-132340784D01*
X130883955Y-132126034D01*
X130873965Y-132116044D01*
X130659216Y-131875740D01*
X130650412Y-131864699D01*
X130531239Y-131696740D01*
X130508000Y-131623828D01*
X130508000Y-130716695D01*
X138347251Y-130716695D01*
X138347548Y-130721848D01*
X138347548Y-130721851D01*
X138352212Y-130802736D01*
X138360110Y-130939715D01*
X138361247Y-130944761D01*
X138361248Y-130944767D01*
X138374734Y-131004608D01*
X138409222Y-131157639D01*
X138493266Y-131364616D01*
X138495965Y-131369020D01*
X138603072Y-131543803D01*
X138609987Y-131555088D01*
X138756250Y-131723938D01*
X138928126Y-131866632D01*
X139121000Y-131979338D01*
X139329692Y-132059030D01*
X139334760Y-132060061D01*
X139334763Y-132060062D01*
X139442017Y-132081883D01*
X139548597Y-132103567D01*
X139553772Y-132103757D01*
X139553774Y-132103757D01*
X139766673Y-132111564D01*
X139766677Y-132111564D01*
X139771837Y-132111753D01*
X139776957Y-132111097D01*
X139776959Y-132111097D01*
X139988288Y-132084025D01*
X139988289Y-132084025D01*
X139993416Y-132083368D01*
X139998366Y-132081883D01*
X140202429Y-132020661D01*
X140202434Y-132020659D01*
X140207384Y-132019174D01*
X140407994Y-131920896D01*
X140589860Y-131791173D01*
X140698091Y-131683319D01*
X140760462Y-131649404D01*
X140831268Y-131654592D01*
X140888030Y-131697238D01*
X140905012Y-131728341D01*
X140949385Y-131846705D01*
X141036739Y-131963261D01*
X141153295Y-132050615D01*
X141289684Y-132101745D01*
X141351866Y-132108500D01*
X143148134Y-132108500D01*
X143210316Y-132101745D01*
X143346705Y-132050615D01*
X143463261Y-131963261D01*
X143550615Y-131846705D01*
X143601745Y-131710316D01*
X143608500Y-131648134D01*
X143608500Y-130649769D01*
X144671500Y-130649769D01*
X144671800Y-130652825D01*
X144671800Y-130652832D01*
X144672530Y-130660273D01*
X144685920Y-130796833D01*
X144743084Y-130986169D01*
X144835934Y-131160796D01*
X144906291Y-131247062D01*
X144957040Y-131309287D01*
X144957043Y-131309290D01*
X144960935Y-131314062D01*
X144965682Y-131317989D01*
X144965684Y-131317991D01*
X145108575Y-131436201D01*
X145108579Y-131436203D01*
X145113325Y-131440130D01*
X145287299Y-131534198D01*
X145476232Y-131592682D01*
X145482357Y-131593326D01*
X145482358Y-131593326D01*
X145666796Y-131612711D01*
X145666798Y-131612711D01*
X145672925Y-131613355D01*
X145755424Y-131605847D01*
X145863749Y-131595989D01*
X145863752Y-131595988D01*
X145869888Y-131595430D01*
X145875794Y-131593692D01*
X145875798Y-131593691D01*
X146021907Y-131550689D01*
X146059619Y-131539590D01*
X146065077Y-131536737D01*
X146065081Y-131536735D01*
X146155853Y-131489280D01*
X146234890Y-131447960D01*
X146389025Y-131324032D01*
X146516154Y-131172526D01*
X146519121Y-131167128D01*
X146519125Y-131167123D01*
X146608467Y-131004608D01*
X146611433Y-130999213D01*
X146613846Y-130991608D01*
X146669373Y-130816564D01*
X146669373Y-130816563D01*
X146671235Y-130810694D01*
X146688500Y-130656773D01*
X146688500Y-130649769D01*
X153311500Y-130649769D01*
X153311800Y-130652825D01*
X153311800Y-130652832D01*
X153312530Y-130660273D01*
X153325920Y-130796833D01*
X153383084Y-130986169D01*
X153475934Y-131160796D01*
X153546291Y-131247062D01*
X153597040Y-131309287D01*
X153597043Y-131309290D01*
X153600935Y-131314062D01*
X153605682Y-131317989D01*
X153605684Y-131317991D01*
X153748575Y-131436201D01*
X153748579Y-131436203D01*
X153753325Y-131440130D01*
X153927299Y-131534198D01*
X154116232Y-131592682D01*
X154122357Y-131593326D01*
X154122358Y-131593326D01*
X154306796Y-131612711D01*
X154306798Y-131612711D01*
X154312925Y-131613355D01*
X154395424Y-131605847D01*
X154503749Y-131595989D01*
X154503752Y-131595988D01*
X154509888Y-131595430D01*
X154515794Y-131593692D01*
X154515798Y-131593691D01*
X154661907Y-131550689D01*
X154699619Y-131539590D01*
X154705077Y-131536737D01*
X154705081Y-131536735D01*
X154795853Y-131489280D01*
X154874890Y-131447960D01*
X155029025Y-131324032D01*
X155156154Y-131172526D01*
X155159121Y-131167128D01*
X155159125Y-131167123D01*
X155248467Y-131004608D01*
X155251433Y-130999213D01*
X155253846Y-130991608D01*
X155309373Y-130816564D01*
X155309373Y-130816563D01*
X155311235Y-130810694D01*
X155328500Y-130656773D01*
X155328500Y-130500000D01*
X159086496Y-130500000D01*
X159087186Y-130506565D01*
X159093500Y-130566635D01*
X159106458Y-130689928D01*
X159165473Y-130871556D01*
X159260960Y-131036944D01*
X159265378Y-131041851D01*
X159265379Y-131041852D01*
X159383038Y-131172526D01*
X159388747Y-131178866D01*
X159543248Y-131291118D01*
X159549276Y-131293802D01*
X159549278Y-131293803D01*
X159606564Y-131319308D01*
X159717712Y-131368794D01*
X159811112Y-131388647D01*
X159898056Y-131407128D01*
X159898061Y-131407128D01*
X159904513Y-131408500D01*
X160095487Y-131408500D01*
X160101939Y-131407128D01*
X160101944Y-131407128D01*
X160188888Y-131388647D01*
X160282288Y-131368794D01*
X160393436Y-131319308D01*
X160450722Y-131293803D01*
X160450724Y-131293802D01*
X160456752Y-131291118D01*
X160611253Y-131178866D01*
X160616962Y-131172526D01*
X160734621Y-131041852D01*
X160734622Y-131041851D01*
X160739040Y-131036944D01*
X160834527Y-130871556D01*
X160874023Y-130750000D01*
X164086496Y-130750000D01*
X164106458Y-130939928D01*
X164165473Y-131121556D01*
X164168776Y-131127278D01*
X164168777Y-131127279D01*
X164188128Y-131160796D01*
X164260960Y-131286944D01*
X164265378Y-131291851D01*
X164265379Y-131291852D01*
X164294354Y-131324032D01*
X164388747Y-131428866D01*
X164420694Y-131452077D01*
X164529691Y-131531268D01*
X164543248Y-131541118D01*
X164549276Y-131543802D01*
X164549278Y-131543803D01*
X164711681Y-131616109D01*
X164717712Y-131618794D01*
X164811112Y-131638647D01*
X164898056Y-131657128D01*
X164898061Y-131657128D01*
X164904513Y-131658500D01*
X165095487Y-131658500D01*
X165101939Y-131657128D01*
X165101944Y-131657128D01*
X165188888Y-131638647D01*
X165282288Y-131618794D01*
X165288319Y-131616109D01*
X165450722Y-131543803D01*
X165450724Y-131543802D01*
X165456752Y-131541118D01*
X165470310Y-131531268D01*
X165579306Y-131452077D01*
X165611253Y-131428866D01*
X165705646Y-131324032D01*
X165734621Y-131291852D01*
X165734622Y-131291851D01*
X165739040Y-131286944D01*
X165811872Y-131160796D01*
X165831223Y-131127279D01*
X165831224Y-131127278D01*
X165834527Y-131121556D01*
X165893542Y-130939928D01*
X165913504Y-130750000D01*
X165907190Y-130689928D01*
X165894232Y-130566635D01*
X165894232Y-130566633D01*
X165893542Y-130560072D01*
X165834527Y-130378444D01*
X165739040Y-130213056D01*
X165611253Y-130071134D01*
X165456752Y-129958882D01*
X165450724Y-129956198D01*
X165450722Y-129956197D01*
X165288319Y-129883891D01*
X165288318Y-129883891D01*
X165282288Y-129881206D01*
X165160331Y-129855283D01*
X165101944Y-129842872D01*
X165101939Y-129842872D01*
X165095487Y-129841500D01*
X164904513Y-129841500D01*
X164898061Y-129842872D01*
X164898056Y-129842872D01*
X164839669Y-129855283D01*
X164717712Y-129881206D01*
X164711682Y-129883891D01*
X164711681Y-129883891D01*
X164549278Y-129956197D01*
X164549276Y-129956198D01*
X164543248Y-129958882D01*
X164388747Y-130071134D01*
X164260960Y-130213056D01*
X164165473Y-130378444D01*
X164106458Y-130560072D01*
X164105768Y-130566633D01*
X164105768Y-130566635D01*
X164092810Y-130689928D01*
X164086496Y-130750000D01*
X160874023Y-130750000D01*
X160893542Y-130689928D01*
X160906501Y-130566635D01*
X160912814Y-130506565D01*
X160913504Y-130500000D01*
X160893542Y-130310072D01*
X160834527Y-130128444D01*
X160802171Y-130072401D01*
X160742341Y-129968774D01*
X160739040Y-129963056D01*
X160730268Y-129953313D01*
X160615675Y-129826045D01*
X160615674Y-129826044D01*
X160611253Y-129821134D01*
X160456752Y-129708882D01*
X160450724Y-129706198D01*
X160450722Y-129706197D01*
X160288319Y-129633891D01*
X160288318Y-129633891D01*
X160282288Y-129631206D01*
X160188887Y-129611353D01*
X160101944Y-129592872D01*
X160101939Y-129592872D01*
X160095487Y-129591500D01*
X159904513Y-129591500D01*
X159898061Y-129592872D01*
X159898056Y-129592872D01*
X159811113Y-129611353D01*
X159717712Y-129631206D01*
X159711682Y-129633891D01*
X159711681Y-129633891D01*
X159549278Y-129706197D01*
X159549276Y-129706198D01*
X159543248Y-129708882D01*
X159388747Y-129821134D01*
X159384326Y-129826044D01*
X159384325Y-129826045D01*
X159269733Y-129953313D01*
X159260960Y-129963056D01*
X159257659Y-129968774D01*
X159197830Y-130072401D01*
X159165473Y-130128444D01*
X159106458Y-130310072D01*
X159086496Y-130500000D01*
X155328500Y-130500000D01*
X155328500Y-129950231D01*
X155327814Y-129943227D01*
X155319190Y-129855283D01*
X155314080Y-129803167D01*
X155307776Y-129782285D01*
X155262162Y-129631206D01*
X155256916Y-129613831D01*
X155164066Y-129439204D01*
X155077129Y-129332609D01*
X155042960Y-129290713D01*
X155042957Y-129290710D01*
X155039065Y-129285938D01*
X155028359Y-129277081D01*
X154891425Y-129163799D01*
X154891421Y-129163797D01*
X154886675Y-129159870D01*
X154712701Y-129065802D01*
X154523768Y-129007318D01*
X154517643Y-129006674D01*
X154517642Y-129006674D01*
X154333204Y-128987289D01*
X154333202Y-128987289D01*
X154327075Y-128986645D01*
X154244576Y-128994153D01*
X154136251Y-129004011D01*
X154136248Y-129004012D01*
X154130112Y-129004570D01*
X154124206Y-129006308D01*
X154124202Y-129006309D01*
X154039541Y-129031226D01*
X153940381Y-129060410D01*
X153934923Y-129063263D01*
X153934919Y-129063265D01*
X153889066Y-129087237D01*
X153765110Y-129152040D01*
X153610975Y-129275968D01*
X153483846Y-129427474D01*
X153480879Y-129432872D01*
X153480875Y-129432877D01*
X153423777Y-129536739D01*
X153388567Y-129600787D01*
X153386706Y-129606654D01*
X153386705Y-129606656D01*
X153346191Y-129734373D01*
X153328765Y-129789306D01*
X153311500Y-129943227D01*
X153311500Y-130649769D01*
X146688500Y-130649769D01*
X146688500Y-129950231D01*
X146687814Y-129943227D01*
X146679190Y-129855283D01*
X146674080Y-129803167D01*
X146667776Y-129782285D01*
X146622162Y-129631206D01*
X146616916Y-129613831D01*
X146524066Y-129439204D01*
X146437129Y-129332609D01*
X146402960Y-129290713D01*
X146402957Y-129290710D01*
X146399065Y-129285938D01*
X146388359Y-129277081D01*
X146251425Y-129163799D01*
X146251421Y-129163797D01*
X146246675Y-129159870D01*
X146072701Y-129065802D01*
X145883768Y-129007318D01*
X145877643Y-129006674D01*
X145877642Y-129006674D01*
X145693204Y-128987289D01*
X145693202Y-128987289D01*
X145687075Y-128986645D01*
X145604576Y-128994153D01*
X145496251Y-129004011D01*
X145496248Y-129004012D01*
X145490112Y-129004570D01*
X145484206Y-129006308D01*
X145484202Y-129006309D01*
X145399541Y-129031226D01*
X145300381Y-129060410D01*
X145294923Y-129063263D01*
X145294919Y-129063265D01*
X145249066Y-129087237D01*
X145125110Y-129152040D01*
X144970975Y-129275968D01*
X144843846Y-129427474D01*
X144840879Y-129432872D01*
X144840875Y-129432877D01*
X144783777Y-129536739D01*
X144748567Y-129600787D01*
X144746706Y-129606654D01*
X144746705Y-129606656D01*
X144706191Y-129734373D01*
X144688765Y-129789306D01*
X144671500Y-129943227D01*
X144671500Y-130649769D01*
X143608500Y-130649769D01*
X143608500Y-129851866D01*
X143601745Y-129789684D01*
X143550615Y-129653295D01*
X143463261Y-129536739D01*
X143346705Y-129449385D01*
X143288258Y-129427474D01*
X143217711Y-129401027D01*
X143217709Y-129401027D01*
X143210316Y-129398255D01*
X143210693Y-129397249D01*
X143155373Y-129365648D01*
X143122551Y-129302693D01*
X143128975Y-129231988D01*
X143172606Y-129175980D01*
X143194914Y-129163173D01*
X143350722Y-129093803D01*
X143350724Y-129093802D01*
X143356752Y-129091118D01*
X143511253Y-128978866D01*
X143639040Y-128836944D01*
X143734527Y-128671556D01*
X143790269Y-128500000D01*
X147336496Y-128500000D01*
X147337186Y-128506565D01*
X147355129Y-128677279D01*
X147356458Y-128689928D01*
X147415473Y-128871556D01*
X147510960Y-129036944D01*
X147515378Y-129041851D01*
X147515379Y-129041852D01*
X147535303Y-129063980D01*
X147638747Y-129178866D01*
X147711863Y-129231988D01*
X147780711Y-129282009D01*
X147793248Y-129291118D01*
X147799276Y-129293802D01*
X147799278Y-129293803D01*
X147915143Y-129345389D01*
X147967712Y-129368794D01*
X148061113Y-129388647D01*
X148148056Y-129407128D01*
X148148061Y-129407128D01*
X148154513Y-129408500D01*
X148345487Y-129408500D01*
X148351939Y-129407128D01*
X148351944Y-129407128D01*
X148438887Y-129388647D01*
X148532288Y-129368794D01*
X148584857Y-129345389D01*
X148700722Y-129293803D01*
X148700724Y-129293802D01*
X148706752Y-129291118D01*
X148719290Y-129282009D01*
X148788137Y-129231988D01*
X148861253Y-129178866D01*
X148964697Y-129063980D01*
X148984621Y-129041852D01*
X148984622Y-129041851D01*
X148989040Y-129036944D01*
X149084527Y-128871556D01*
X149143542Y-128689928D01*
X149144872Y-128677279D01*
X149162814Y-128506565D01*
X149163504Y-128500000D01*
X151086496Y-128500000D01*
X151087186Y-128506565D01*
X151105129Y-128677279D01*
X151106458Y-128689928D01*
X151165473Y-128871556D01*
X151260960Y-129036944D01*
X151265378Y-129041851D01*
X151265379Y-129041852D01*
X151285303Y-129063980D01*
X151388747Y-129178866D01*
X151461863Y-129231988D01*
X151530711Y-129282009D01*
X151543248Y-129291118D01*
X151549276Y-129293802D01*
X151549278Y-129293803D01*
X151665143Y-129345389D01*
X151717712Y-129368794D01*
X151811113Y-129388647D01*
X151898056Y-129407128D01*
X151898061Y-129407128D01*
X151904513Y-129408500D01*
X152095487Y-129408500D01*
X152101939Y-129407128D01*
X152101944Y-129407128D01*
X152188887Y-129388647D01*
X152282288Y-129368794D01*
X152334857Y-129345389D01*
X152450722Y-129293803D01*
X152450724Y-129293802D01*
X152456752Y-129291118D01*
X152469290Y-129282009D01*
X152538137Y-129231988D01*
X152611253Y-129178866D01*
X152714697Y-129063980D01*
X152734621Y-129041852D01*
X152734622Y-129041851D01*
X152739040Y-129036944D01*
X152834527Y-128871556D01*
X152893542Y-128689928D01*
X152894872Y-128677279D01*
X152912814Y-128506565D01*
X152913504Y-128500000D01*
X152893542Y-128310072D01*
X152834527Y-128128444D01*
X152739040Y-127963056D01*
X152611253Y-127821134D01*
X152512157Y-127749136D01*
X152462094Y-127712763D01*
X152462093Y-127712762D01*
X152456752Y-127708882D01*
X152450724Y-127706198D01*
X152450722Y-127706197D01*
X152288319Y-127633891D01*
X152288318Y-127633891D01*
X152282288Y-127631206D01*
X152188779Y-127611330D01*
X152101944Y-127592872D01*
X152101939Y-127592872D01*
X152095487Y-127591500D01*
X151904513Y-127591500D01*
X151898061Y-127592872D01*
X151898056Y-127592872D01*
X151811221Y-127611330D01*
X151717712Y-127631206D01*
X151711682Y-127633891D01*
X151711681Y-127633891D01*
X151549278Y-127706197D01*
X151549276Y-127706198D01*
X151543248Y-127708882D01*
X151537907Y-127712762D01*
X151537906Y-127712763D01*
X151487843Y-127749136D01*
X151388747Y-127821134D01*
X151260960Y-127963056D01*
X151165473Y-128128444D01*
X151106458Y-128310072D01*
X151086496Y-128500000D01*
X149163504Y-128500000D01*
X149143542Y-128310072D01*
X149084527Y-128128444D01*
X148989040Y-127963056D01*
X148861253Y-127821134D01*
X148762157Y-127749136D01*
X148712094Y-127712763D01*
X148712093Y-127712762D01*
X148706752Y-127708882D01*
X148700724Y-127706198D01*
X148700722Y-127706197D01*
X148538319Y-127633891D01*
X148538318Y-127633891D01*
X148532288Y-127631206D01*
X148438779Y-127611330D01*
X148351944Y-127592872D01*
X148351939Y-127592872D01*
X148345487Y-127591500D01*
X148154513Y-127591500D01*
X148148061Y-127592872D01*
X148148056Y-127592872D01*
X148061221Y-127611330D01*
X147967712Y-127631206D01*
X147961682Y-127633891D01*
X147961681Y-127633891D01*
X147799278Y-127706197D01*
X147799276Y-127706198D01*
X147793248Y-127708882D01*
X147787907Y-127712762D01*
X147787906Y-127712763D01*
X147737843Y-127749136D01*
X147638747Y-127821134D01*
X147510960Y-127963056D01*
X147415473Y-128128444D01*
X147356458Y-128310072D01*
X147336496Y-128500000D01*
X143790269Y-128500000D01*
X143793542Y-128489928D01*
X143813504Y-128300000D01*
X143795473Y-128128444D01*
X143794232Y-128116635D01*
X143794232Y-128116633D01*
X143793542Y-128110072D01*
X143734527Y-127928444D01*
X143639040Y-127763056D01*
X143613157Y-127734310D01*
X143582439Y-127670303D01*
X143591204Y-127599849D01*
X143613157Y-127565690D01*
X143634621Y-127541852D01*
X143634622Y-127541851D01*
X143639040Y-127536944D01*
X143719320Y-127397896D01*
X143731223Y-127377279D01*
X143731224Y-127377278D01*
X143734527Y-127371556D01*
X143793542Y-127189928D01*
X143805663Y-127074608D01*
X143812814Y-127006565D01*
X143813504Y-127000000D01*
X143800415Y-126875466D01*
X143794232Y-126816635D01*
X143794232Y-126816633D01*
X143793542Y-126810072D01*
X143764201Y-126719769D01*
X144671500Y-126719769D01*
X144671800Y-126722825D01*
X144671800Y-126722832D01*
X144672530Y-126730273D01*
X144685920Y-126866833D01*
X144743084Y-127056169D01*
X144835934Y-127230796D01*
X144900421Y-127309865D01*
X144957040Y-127379287D01*
X144957043Y-127379290D01*
X144960935Y-127384062D01*
X144965682Y-127387989D01*
X144965684Y-127387991D01*
X145108575Y-127506201D01*
X145108579Y-127506203D01*
X145113325Y-127510130D01*
X145287299Y-127604198D01*
X145476232Y-127662682D01*
X145482357Y-127663326D01*
X145482358Y-127663326D01*
X145666796Y-127682711D01*
X145666798Y-127682711D01*
X145672925Y-127683355D01*
X145755424Y-127675847D01*
X145863749Y-127665989D01*
X145863752Y-127665988D01*
X145869888Y-127665430D01*
X145875794Y-127663692D01*
X145875798Y-127663691D01*
X145991300Y-127629697D01*
X146059619Y-127609590D01*
X146065077Y-127606737D01*
X146065081Y-127606735D01*
X146189189Y-127541852D01*
X146234890Y-127517960D01*
X146389025Y-127394032D01*
X146437400Y-127336381D01*
X146496507Y-127297056D01*
X146567494Y-127295930D01*
X146610448Y-127317278D01*
X146670257Y-127363006D01*
X146670261Y-127363009D01*
X146675678Y-127367150D01*
X146762372Y-127407576D01*
X146833631Y-127440805D01*
X146833634Y-127440806D01*
X146839808Y-127443685D01*
X146846456Y-127445171D01*
X146846459Y-127445172D01*
X146949911Y-127468296D01*
X147016543Y-127483190D01*
X147022088Y-127483500D01*
X147155244Y-127483500D01*
X147290037Y-127468857D01*
X147413782Y-127427212D01*
X147455204Y-127413272D01*
X147455206Y-127413271D01*
X147461675Y-127411094D01*
X147616905Y-127317823D01*
X147621862Y-127313135D01*
X147621865Y-127313133D01*
X147743527Y-127198082D01*
X147743529Y-127198080D01*
X147748485Y-127193393D01*
X147752317Y-127187755D01*
X147752320Y-127187751D01*
X147846442Y-127049255D01*
X147850277Y-127043612D01*
X147917530Y-126875466D01*
X147918644Y-126868738D01*
X147918645Y-126868734D01*
X147945993Y-126703539D01*
X147945993Y-126703536D01*
X147947108Y-126696802D01*
X147943526Y-126628444D01*
X147942203Y-126603198D01*
X152052892Y-126603198D01*
X152053249Y-126610015D01*
X152053249Y-126610019D01*
X152058151Y-126703539D01*
X152062370Y-126784047D01*
X152064181Y-126790620D01*
X152064181Y-126790623D01*
X152086799Y-126872736D01*
X152110461Y-126958641D01*
X152194922Y-127118836D01*
X152199327Y-127124049D01*
X152199330Y-127124053D01*
X152307406Y-127251943D01*
X152307410Y-127251947D01*
X152311813Y-127257157D01*
X152317237Y-127261304D01*
X152317238Y-127261305D01*
X152450257Y-127363006D01*
X152450261Y-127363009D01*
X152455678Y-127367150D01*
X152542372Y-127407576D01*
X152613631Y-127440805D01*
X152613634Y-127440806D01*
X152619808Y-127443685D01*
X152626456Y-127445171D01*
X152626459Y-127445172D01*
X152729911Y-127468296D01*
X152796543Y-127483190D01*
X152802088Y-127483500D01*
X152935244Y-127483500D01*
X153070037Y-127468857D01*
X153193782Y-127427212D01*
X153235204Y-127413272D01*
X153235206Y-127413271D01*
X153241675Y-127411094D01*
X153396905Y-127317823D01*
X153397329Y-127318528D01*
X153458520Y-127295238D01*
X153527993Y-127309865D01*
X153565992Y-127341218D01*
X153572623Y-127349348D01*
X153600935Y-127384062D01*
X153605682Y-127387989D01*
X153605684Y-127387991D01*
X153748575Y-127506201D01*
X153748579Y-127506203D01*
X153753325Y-127510130D01*
X153927299Y-127604198D01*
X154116232Y-127662682D01*
X154122357Y-127663326D01*
X154122358Y-127663326D01*
X154306796Y-127682711D01*
X154306798Y-127682711D01*
X154312925Y-127683355D01*
X154395424Y-127675847D01*
X154503749Y-127665989D01*
X154503752Y-127665988D01*
X154509888Y-127665430D01*
X154515794Y-127663692D01*
X154515798Y-127663691D01*
X154631300Y-127629697D01*
X154699619Y-127609590D01*
X154705077Y-127606737D01*
X154705081Y-127606735D01*
X154829189Y-127541852D01*
X154874890Y-127517960D01*
X155029025Y-127394032D01*
X155043083Y-127377279D01*
X155090022Y-127321339D01*
X155156154Y-127242526D01*
X155159121Y-127237128D01*
X155159125Y-127237123D01*
X155248467Y-127074608D01*
X155251433Y-127069213D01*
X155253846Y-127061608D01*
X155297054Y-126925400D01*
X156891500Y-126925400D01*
X156891837Y-126928646D01*
X156891837Y-126928650D01*
X156895576Y-126964680D01*
X156902474Y-127031166D01*
X156904655Y-127037702D01*
X156904655Y-127037704D01*
X156916967Y-127074608D01*
X156958450Y-127198946D01*
X157051522Y-127349348D01*
X157176697Y-127474305D01*
X157182927Y-127478145D01*
X157182928Y-127478146D01*
X157320090Y-127562694D01*
X157327262Y-127567115D01*
X157363942Y-127579281D01*
X157488611Y-127620632D01*
X157488613Y-127620632D01*
X157495139Y-127622797D01*
X157501975Y-127623497D01*
X157501978Y-127623498D01*
X157540386Y-127627433D01*
X157599600Y-127633500D01*
X158400400Y-127633500D01*
X158403646Y-127633163D01*
X158403650Y-127633163D01*
X158499308Y-127623238D01*
X158499312Y-127623237D01*
X158506166Y-127622526D01*
X158512702Y-127620345D01*
X158512704Y-127620345D01*
X158648867Y-127574917D01*
X158673946Y-127566550D01*
X158824348Y-127473478D01*
X158949305Y-127348303D01*
X158981075Y-127296764D01*
X159033846Y-127249271D01*
X159103918Y-127237847D01*
X159169042Y-127266121D01*
X159187418Y-127285045D01*
X159193604Y-127292920D01*
X159198135Y-127296852D01*
X159198138Y-127296855D01*
X159283620Y-127371032D01*
X159353363Y-127431552D01*
X159358549Y-127434552D01*
X159358553Y-127434555D01*
X159507656Y-127520813D01*
X159536454Y-127537473D01*
X159736271Y-127606861D01*
X159742206Y-127607722D01*
X159742208Y-127607722D01*
X159939664Y-127636352D01*
X159939667Y-127636352D01*
X159945604Y-127637213D01*
X160156899Y-127627433D01*
X160305999Y-127591500D01*
X160356701Y-127579281D01*
X160356703Y-127579280D01*
X160362534Y-127577875D01*
X160367992Y-127575393D01*
X160367996Y-127575392D01*
X160505084Y-127513061D01*
X160555087Y-127490326D01*
X160727611Y-127367946D01*
X160852586Y-127237395D01*
X160869736Y-127219480D01*
X160873881Y-127215150D01*
X160988620Y-127037452D01*
X161033778Y-126925400D01*
X163891500Y-126925400D01*
X163891837Y-126928646D01*
X163891837Y-126928650D01*
X163895576Y-126964680D01*
X163902474Y-127031166D01*
X163904655Y-127037702D01*
X163904655Y-127037704D01*
X163916967Y-127074608D01*
X163958450Y-127198946D01*
X164051522Y-127349348D01*
X164176697Y-127474305D01*
X164182927Y-127478145D01*
X164182928Y-127478146D01*
X164320090Y-127562694D01*
X164327262Y-127567115D01*
X164363942Y-127579281D01*
X164488611Y-127620632D01*
X164488613Y-127620632D01*
X164495139Y-127622797D01*
X164501975Y-127623497D01*
X164501978Y-127623498D01*
X164540386Y-127627433D01*
X164599600Y-127633500D01*
X165400400Y-127633500D01*
X165403646Y-127633163D01*
X165403650Y-127633163D01*
X165499308Y-127623238D01*
X165499312Y-127623237D01*
X165506166Y-127622526D01*
X165512702Y-127620345D01*
X165512704Y-127620345D01*
X165648867Y-127574917D01*
X165673946Y-127566550D01*
X165824348Y-127473478D01*
X165949305Y-127348303D01*
X165981075Y-127296764D01*
X166033846Y-127249271D01*
X166103918Y-127237847D01*
X166169042Y-127266121D01*
X166187418Y-127285045D01*
X166193604Y-127292920D01*
X166198135Y-127296852D01*
X166198138Y-127296855D01*
X166283620Y-127371032D01*
X166353363Y-127431552D01*
X166358549Y-127434552D01*
X166358553Y-127434555D01*
X166507656Y-127520813D01*
X166536454Y-127537473D01*
X166736271Y-127606861D01*
X166742206Y-127607722D01*
X166742208Y-127607722D01*
X166939664Y-127636352D01*
X166939667Y-127636352D01*
X166945604Y-127637213D01*
X167156899Y-127627433D01*
X167305999Y-127591500D01*
X167356701Y-127579281D01*
X167356703Y-127579280D01*
X167362534Y-127577875D01*
X167367992Y-127575393D01*
X167367996Y-127575392D01*
X167505084Y-127513061D01*
X167555087Y-127490326D01*
X167727611Y-127367946D01*
X167852586Y-127237395D01*
X167869736Y-127219480D01*
X167873881Y-127215150D01*
X167988620Y-127037452D01*
X168035094Y-126922134D01*
X168065442Y-126846832D01*
X168065443Y-126846829D01*
X168067686Y-126841263D01*
X168108228Y-126633663D01*
X168108500Y-126628101D01*
X168108500Y-125922154D01*
X168093452Y-125764434D01*
X168033908Y-125561466D01*
X168009063Y-125513227D01*
X167939804Y-125378751D01*
X167939802Y-125378748D01*
X167937058Y-125373420D01*
X167806396Y-125207080D01*
X167801865Y-125203148D01*
X167801862Y-125203145D01*
X167651167Y-125072379D01*
X167646637Y-125068448D01*
X167641451Y-125065448D01*
X167641447Y-125065445D01*
X167468742Y-124965533D01*
X167463546Y-124962527D01*
X167263729Y-124893139D01*
X167257794Y-124892278D01*
X167257792Y-124892278D01*
X167060336Y-124863648D01*
X167060333Y-124863648D01*
X167054396Y-124862787D01*
X166843101Y-124872567D01*
X166730466Y-124899712D01*
X166643299Y-124920719D01*
X166643297Y-124920720D01*
X166637466Y-124922125D01*
X166632008Y-124924607D01*
X166632004Y-124924608D01*
X166540990Y-124965990D01*
X166444913Y-125009674D01*
X166272389Y-125132054D01*
X166268247Y-125136381D01*
X166268241Y-125136386D01*
X166181194Y-125227317D01*
X166119639Y-125262694D01*
X166048730Y-125259175D01*
X165990979Y-125217879D01*
X165983032Y-125206491D01*
X165948478Y-125150652D01*
X165823303Y-125025695D01*
X165812985Y-125019335D01*
X165678968Y-124936725D01*
X165678966Y-124936724D01*
X165672738Y-124932885D01*
X165564005Y-124896820D01*
X165511389Y-124879368D01*
X165511387Y-124879368D01*
X165504861Y-124877203D01*
X165498025Y-124876503D01*
X165498022Y-124876502D01*
X165454969Y-124872091D01*
X165400400Y-124866500D01*
X164599600Y-124866500D01*
X164596354Y-124866837D01*
X164596350Y-124866837D01*
X164500692Y-124876762D01*
X164500688Y-124876763D01*
X164493834Y-124877474D01*
X164487298Y-124879655D01*
X164487296Y-124879655D01*
X164423117Y-124901067D01*
X164326054Y-124933450D01*
X164175652Y-125026522D01*
X164050695Y-125151697D01*
X164046855Y-125157927D01*
X164046854Y-125157928D01*
X163982005Y-125263133D01*
X163957885Y-125302262D01*
X163902203Y-125470139D01*
X163891500Y-125574600D01*
X163891500Y-126925400D01*
X161033778Y-126925400D01*
X161035094Y-126922134D01*
X161065442Y-126846832D01*
X161065443Y-126846829D01*
X161067686Y-126841263D01*
X161108228Y-126633663D01*
X161108500Y-126628101D01*
X161108500Y-125922154D01*
X161093452Y-125764434D01*
X161033908Y-125561466D01*
X161009063Y-125513227D01*
X160939804Y-125378751D01*
X160939802Y-125378748D01*
X160937058Y-125373420D01*
X160806396Y-125207080D01*
X160801865Y-125203148D01*
X160801862Y-125203145D01*
X160651167Y-125072379D01*
X160646637Y-125068448D01*
X160641451Y-125065448D01*
X160641447Y-125065445D01*
X160468742Y-124965533D01*
X160463546Y-124962527D01*
X160263729Y-124893139D01*
X160257794Y-124892278D01*
X160257792Y-124892278D01*
X160060336Y-124863648D01*
X160060333Y-124863648D01*
X160054396Y-124862787D01*
X159843101Y-124872567D01*
X159730466Y-124899712D01*
X159643299Y-124920719D01*
X159643297Y-124920720D01*
X159637466Y-124922125D01*
X159632008Y-124924607D01*
X159632004Y-124924608D01*
X159540990Y-124965990D01*
X159444913Y-125009674D01*
X159272389Y-125132054D01*
X159268247Y-125136381D01*
X159268241Y-125136386D01*
X159181194Y-125227317D01*
X159119639Y-125262694D01*
X159048730Y-125259175D01*
X158990979Y-125217879D01*
X158983032Y-125206491D01*
X158948478Y-125150652D01*
X158823303Y-125025695D01*
X158812985Y-125019335D01*
X158678968Y-124936725D01*
X158678966Y-124936724D01*
X158672738Y-124932885D01*
X158564005Y-124896820D01*
X158511389Y-124879368D01*
X158511387Y-124879368D01*
X158504861Y-124877203D01*
X158498025Y-124876503D01*
X158498022Y-124876502D01*
X158454969Y-124872091D01*
X158400400Y-124866500D01*
X157599600Y-124866500D01*
X157596354Y-124866837D01*
X157596350Y-124866837D01*
X157500692Y-124876762D01*
X157500688Y-124876763D01*
X157493834Y-124877474D01*
X157487298Y-124879655D01*
X157487296Y-124879655D01*
X157423117Y-124901067D01*
X157326054Y-124933450D01*
X157175652Y-125026522D01*
X157050695Y-125151697D01*
X157046855Y-125157927D01*
X157046854Y-125157928D01*
X156982005Y-125263133D01*
X156957885Y-125302262D01*
X156902203Y-125470139D01*
X156891500Y-125574600D01*
X156891500Y-126925400D01*
X155297054Y-126925400D01*
X155309373Y-126886564D01*
X155309373Y-126886563D01*
X155311235Y-126880694D01*
X155328500Y-126726773D01*
X155328500Y-125520231D01*
X155328148Y-125516635D01*
X155314681Y-125379301D01*
X155314080Y-125373167D01*
X155298850Y-125322721D01*
X155267328Y-125218317D01*
X155256916Y-125183831D01*
X155164066Y-125009204D01*
X155086907Y-124914598D01*
X155042960Y-124860713D01*
X155042957Y-124860710D01*
X155039065Y-124855938D01*
X155032724Y-124850692D01*
X154891425Y-124733799D01*
X154891421Y-124733797D01*
X154886675Y-124729870D01*
X154712701Y-124635802D01*
X154523768Y-124577318D01*
X154517643Y-124576674D01*
X154517642Y-124576674D01*
X154333204Y-124557289D01*
X154333202Y-124557289D01*
X154327075Y-124556645D01*
X154244576Y-124564153D01*
X154136251Y-124574011D01*
X154136248Y-124574012D01*
X154130112Y-124574570D01*
X154124206Y-124576308D01*
X154124202Y-124576309D01*
X154009230Y-124610147D01*
X153938233Y-124610191D01*
X153878483Y-124571846D01*
X153848949Y-124507283D01*
X153859008Y-124437003D01*
X153899593Y-124387338D01*
X153905906Y-124382751D01*
X153905907Y-124382750D01*
X153911253Y-124378866D01*
X153924714Y-124363916D01*
X154034621Y-124241852D01*
X154034622Y-124241851D01*
X154039040Y-124236944D01*
X154113197Y-124108500D01*
X154131223Y-124077279D01*
X154131224Y-124077278D01*
X154134527Y-124071556D01*
X154193542Y-123889928D01*
X154195529Y-123871029D01*
X154212814Y-123706565D01*
X154213504Y-123700000D01*
X154193542Y-123510072D01*
X154134527Y-123328444D01*
X154120312Y-123303822D01*
X154079937Y-123233891D01*
X154039040Y-123163056D01*
X153911253Y-123021134D01*
X153756752Y-122908882D01*
X153750724Y-122906198D01*
X153750722Y-122906197D01*
X153588319Y-122833891D01*
X153588318Y-122833891D01*
X153582288Y-122831206D01*
X153488887Y-122811353D01*
X153401944Y-122792872D01*
X153401939Y-122792872D01*
X153395487Y-122791500D01*
X153204513Y-122791500D01*
X153198061Y-122792872D01*
X153198056Y-122792872D01*
X153111113Y-122811353D01*
X153017712Y-122831206D01*
X153011682Y-122833891D01*
X153011681Y-122833891D01*
X152849278Y-122906197D01*
X152849276Y-122906198D01*
X152843248Y-122908882D01*
X152688747Y-123021134D01*
X152560960Y-123163056D01*
X152520063Y-123233891D01*
X152479689Y-123303822D01*
X152465473Y-123328444D01*
X152406458Y-123510072D01*
X152386496Y-123700000D01*
X152387186Y-123706565D01*
X152404472Y-123871029D01*
X152406458Y-123889928D01*
X152465473Y-124071556D01*
X152468776Y-124077278D01*
X152468777Y-124077279D01*
X152486803Y-124108500D01*
X152560960Y-124236944D01*
X152565378Y-124241851D01*
X152565379Y-124241852D01*
X152675286Y-124363916D01*
X152688747Y-124378866D01*
X152787843Y-124450864D01*
X152824198Y-124477277D01*
X152843248Y-124491118D01*
X152849276Y-124493802D01*
X152849278Y-124493803D01*
X152991680Y-124557204D01*
X153017712Y-124568794D01*
X153111113Y-124588647D01*
X153198056Y-124607128D01*
X153198061Y-124607128D01*
X153204513Y-124608500D01*
X153395487Y-124608500D01*
X153401939Y-124607128D01*
X153401944Y-124607128D01*
X153572573Y-124570859D01*
X153643364Y-124576261D01*
X153699996Y-124619078D01*
X153724490Y-124685715D01*
X153709069Y-124755017D01*
X153677725Y-124792300D01*
X153610975Y-124845968D01*
X153483846Y-124997474D01*
X153480879Y-125002872D01*
X153480875Y-125002877D01*
X153407479Y-125136386D01*
X153388567Y-125170787D01*
X153386706Y-125176654D01*
X153386705Y-125176656D01*
X153360389Y-125259614D01*
X153328765Y-125359306D01*
X153311500Y-125513227D01*
X153311500Y-125732862D01*
X153291498Y-125800983D01*
X153237842Y-125847476D01*
X153167568Y-125857580D01*
X153158014Y-125855828D01*
X152988494Y-125817936D01*
X152988495Y-125817936D01*
X152983457Y-125816810D01*
X152977912Y-125816500D01*
X152844756Y-125816500D01*
X152709963Y-125831143D01*
X152591810Y-125870906D01*
X152544796Y-125886728D01*
X152544794Y-125886729D01*
X152538325Y-125888906D01*
X152383095Y-125982177D01*
X152378138Y-125986865D01*
X152378135Y-125986867D01*
X152323329Y-126038695D01*
X152251515Y-126106607D01*
X152247683Y-126112245D01*
X152247680Y-126112249D01*
X152196740Y-126187205D01*
X152149723Y-126256388D01*
X152082470Y-126424534D01*
X152081356Y-126431262D01*
X152081355Y-126431266D01*
X152054007Y-126596461D01*
X152052892Y-126603198D01*
X147942203Y-126603198D01*
X147937987Y-126522766D01*
X147937630Y-126515953D01*
X147935571Y-126508475D01*
X147891352Y-126347941D01*
X147889539Y-126341359D01*
X147805078Y-126181164D01*
X147800673Y-126175951D01*
X147800670Y-126175947D01*
X147692594Y-126048057D01*
X147692590Y-126048053D01*
X147688187Y-126042843D01*
X147626919Y-125996000D01*
X147549743Y-125936994D01*
X147549739Y-125936991D01*
X147544322Y-125932850D01*
X147386478Y-125859246D01*
X147386369Y-125859195D01*
X147386366Y-125859194D01*
X147380192Y-125856315D01*
X147373544Y-125854829D01*
X147373541Y-125854828D01*
X147208494Y-125817936D01*
X147208495Y-125817936D01*
X147203457Y-125816810D01*
X147197912Y-125816500D01*
X147064756Y-125816500D01*
X146929963Y-125831143D01*
X146854688Y-125856476D01*
X146783747Y-125859246D01*
X146722568Y-125823223D01*
X146690577Y-125759842D01*
X146688500Y-125737057D01*
X146688500Y-125520231D01*
X146688148Y-125516635D01*
X146674681Y-125379301D01*
X146674080Y-125373167D01*
X146658850Y-125322721D01*
X146627328Y-125218317D01*
X146616916Y-125183831D01*
X146524066Y-125009204D01*
X146440131Y-124906290D01*
X146412577Y-124840858D01*
X146424772Y-124770917D01*
X146444135Y-124742346D01*
X146539040Y-124636944D01*
X146634527Y-124471556D01*
X146636570Y-124465271D01*
X146638380Y-124459699D01*
X146678455Y-124401095D01*
X146743853Y-124373460D01*
X146784409Y-124375393D01*
X146904297Y-124400877D01*
X146904310Y-124400878D01*
X146910763Y-124402250D01*
X147101737Y-124402250D01*
X147108189Y-124400878D01*
X147108194Y-124400878D01*
X147211749Y-124378866D01*
X147288538Y-124362544D01*
X147294569Y-124359859D01*
X147456972Y-124287553D01*
X147456974Y-124287552D01*
X147463002Y-124284868D01*
X147617503Y-124172616D01*
X147745290Y-124030694D01*
X147822937Y-123896206D01*
X147837473Y-123871029D01*
X147837474Y-123871028D01*
X147840777Y-123865306D01*
X147899792Y-123683678D01*
X147919754Y-123493750D01*
X147908152Y-123383365D01*
X147900482Y-123310385D01*
X147900482Y-123310383D01*
X147899792Y-123303822D01*
X147866058Y-123200000D01*
X149086496Y-123200000D01*
X149106458Y-123389928D01*
X149165473Y-123571556D01*
X149260960Y-123736944D01*
X149265378Y-123741851D01*
X149265379Y-123741852D01*
X149384325Y-123873955D01*
X149388747Y-123878866D01*
X149543248Y-123991118D01*
X149549276Y-123993802D01*
X149549278Y-123993803D01*
X149643161Y-124035602D01*
X149717712Y-124068794D01*
X149811112Y-124088647D01*
X149898056Y-124107128D01*
X149898061Y-124107128D01*
X149904513Y-124108500D01*
X150095487Y-124108500D01*
X150101939Y-124107128D01*
X150101944Y-124107128D01*
X150188888Y-124088647D01*
X150282288Y-124068794D01*
X150356839Y-124035602D01*
X150450722Y-123993803D01*
X150450724Y-123993802D01*
X150456752Y-123991118D01*
X150611253Y-123878866D01*
X150615675Y-123873955D01*
X150734621Y-123741852D01*
X150734622Y-123741851D01*
X150739040Y-123736944D01*
X150834527Y-123571556D01*
X150893542Y-123389928D01*
X150913504Y-123200000D01*
X150893542Y-123010072D01*
X150834527Y-122828444D01*
X150829534Y-122819795D01*
X150748168Y-122678866D01*
X150739040Y-122663056D01*
X150654391Y-122569043D01*
X150615675Y-122526045D01*
X150615674Y-122526044D01*
X150611253Y-122521134D01*
X150456752Y-122408882D01*
X150450724Y-122406198D01*
X150450722Y-122406197D01*
X150288319Y-122333891D01*
X150288318Y-122333891D01*
X150282288Y-122331206D01*
X150188888Y-122311353D01*
X150101944Y-122292872D01*
X150101939Y-122292872D01*
X150095487Y-122291500D01*
X149904513Y-122291500D01*
X149898061Y-122292872D01*
X149898056Y-122292872D01*
X149811112Y-122311353D01*
X149717712Y-122331206D01*
X149711682Y-122333891D01*
X149711681Y-122333891D01*
X149549278Y-122406197D01*
X149549276Y-122406198D01*
X149543248Y-122408882D01*
X149388747Y-122521134D01*
X149384326Y-122526044D01*
X149384325Y-122526045D01*
X149345610Y-122569043D01*
X149260960Y-122663056D01*
X149251832Y-122678866D01*
X149170467Y-122819795D01*
X149165473Y-122828444D01*
X149106458Y-123010072D01*
X149086496Y-123200000D01*
X147866058Y-123200000D01*
X147840777Y-123122194D01*
X147745290Y-122956806D01*
X147635372Y-122834729D01*
X147621925Y-122819795D01*
X147621924Y-122819794D01*
X147617503Y-122814884D01*
X147463002Y-122702632D01*
X147456974Y-122699948D01*
X147456972Y-122699947D01*
X147294569Y-122627641D01*
X147294568Y-122627641D01*
X147288538Y-122624956D01*
X147195137Y-122605103D01*
X147108194Y-122586622D01*
X147108189Y-122586622D01*
X147101737Y-122585250D01*
X146910763Y-122585250D01*
X146904311Y-122586622D01*
X146904306Y-122586622D01*
X146817363Y-122605103D01*
X146723962Y-122624956D01*
X146717932Y-122627641D01*
X146717931Y-122627641D01*
X146555528Y-122699947D01*
X146555526Y-122699948D01*
X146549498Y-122702632D01*
X146394997Y-122814884D01*
X146390576Y-122819794D01*
X146390575Y-122819795D01*
X146377129Y-122834729D01*
X146267210Y-122956806D01*
X146171723Y-123122194D01*
X146169683Y-123128473D01*
X146169681Y-123128477D01*
X146167870Y-123134051D01*
X146127795Y-123192655D01*
X146062397Y-123220290D01*
X146021841Y-123218357D01*
X145901953Y-123192873D01*
X145901940Y-123192872D01*
X145895487Y-123191500D01*
X145704513Y-123191500D01*
X145698061Y-123192872D01*
X145698056Y-123192872D01*
X145633638Y-123206565D01*
X145517712Y-123231206D01*
X145511682Y-123233891D01*
X145511681Y-123233891D01*
X145349278Y-123306197D01*
X145349276Y-123306198D01*
X145343248Y-123308882D01*
X145188747Y-123421134D01*
X145184326Y-123426044D01*
X145184325Y-123426045D01*
X145102758Y-123516635D01*
X145060960Y-123563056D01*
X144965473Y-123728444D01*
X144906458Y-123910072D01*
X144886496Y-124100000D01*
X144906458Y-124289928D01*
X144965473Y-124471556D01*
X144968776Y-124477277D01*
X144968777Y-124477279D01*
X145060855Y-124636762D01*
X145077593Y-124705757D01*
X145054373Y-124772849D01*
X145030694Y-124797952D01*
X144970975Y-124845968D01*
X144843846Y-124997474D01*
X144840879Y-125002872D01*
X144840875Y-125002877D01*
X144767479Y-125136386D01*
X144748567Y-125170787D01*
X144746706Y-125176654D01*
X144746705Y-125176656D01*
X144720389Y-125259614D01*
X144688765Y-125359306D01*
X144671500Y-125513227D01*
X144671500Y-126719769D01*
X143764201Y-126719769D01*
X143734527Y-126628444D01*
X143639040Y-126463056D01*
X143613157Y-126434310D01*
X143582439Y-126370303D01*
X143591204Y-126299849D01*
X143613157Y-126265690D01*
X143634621Y-126241852D01*
X143634622Y-126241851D01*
X143639040Y-126236944D01*
X143714290Y-126106607D01*
X143731223Y-126077279D01*
X143731224Y-126077278D01*
X143734527Y-126071556D01*
X143793542Y-125889928D01*
X143799721Y-125831143D01*
X143812814Y-125706565D01*
X143813504Y-125700000D01*
X143799988Y-125571402D01*
X143794232Y-125516635D01*
X143794232Y-125516633D01*
X143793542Y-125510072D01*
X143734527Y-125328444D01*
X143639040Y-125163056D01*
X143633477Y-125156877D01*
X143515675Y-125026045D01*
X143515674Y-125026044D01*
X143511253Y-125021134D01*
X143395874Y-124937306D01*
X143362094Y-124912763D01*
X143362093Y-124912762D01*
X143356752Y-124908882D01*
X143350724Y-124906198D01*
X143350722Y-124906197D01*
X143188319Y-124833891D01*
X143188318Y-124833891D01*
X143182288Y-124831206D01*
X143088887Y-124811353D01*
X143001944Y-124792872D01*
X143001939Y-124792872D01*
X142995487Y-124791500D01*
X142804513Y-124791500D01*
X142798061Y-124792872D01*
X142798056Y-124792872D01*
X142711113Y-124811353D01*
X142617712Y-124831206D01*
X142611682Y-124833891D01*
X142611681Y-124833891D01*
X142449278Y-124906197D01*
X142449276Y-124906198D01*
X142443248Y-124908882D01*
X142437907Y-124912762D01*
X142437906Y-124912763D01*
X142324061Y-124995477D01*
X142257194Y-125019335D01*
X142188042Y-125003255D01*
X142175939Y-124995477D01*
X142062094Y-124912763D01*
X142062093Y-124912762D01*
X142056752Y-124908882D01*
X142050724Y-124906198D01*
X142050722Y-124906197D01*
X141888319Y-124833891D01*
X141888318Y-124833891D01*
X141882288Y-124831206D01*
X141788887Y-124811353D01*
X141701944Y-124792872D01*
X141701939Y-124792872D01*
X141695487Y-124791500D01*
X141504513Y-124791500D01*
X141498061Y-124792872D01*
X141498056Y-124792872D01*
X141411113Y-124811353D01*
X141317712Y-124831206D01*
X141311682Y-124833891D01*
X141311681Y-124833891D01*
X141149278Y-124906197D01*
X141149276Y-124906198D01*
X141143248Y-124908882D01*
X141137907Y-124912762D01*
X141137906Y-124912763D01*
X141104126Y-124937306D01*
X140988747Y-125021134D01*
X140984326Y-125026044D01*
X140984325Y-125026045D01*
X140866524Y-125156877D01*
X140860960Y-125163056D01*
X140765473Y-125328444D01*
X140706458Y-125510072D01*
X140705768Y-125516633D01*
X140705768Y-125516635D01*
X140700012Y-125571402D01*
X140686496Y-125700000D01*
X140687186Y-125706565D01*
X140700280Y-125831143D01*
X140706458Y-125889928D01*
X140765473Y-126071556D01*
X140768776Y-126077278D01*
X140768777Y-126077279D01*
X140785710Y-126106607D01*
X140860960Y-126236944D01*
X140865378Y-126241851D01*
X140865379Y-126241852D01*
X140886843Y-126265690D01*
X140917561Y-126329697D01*
X140908796Y-126400151D01*
X140886843Y-126434310D01*
X140860960Y-126463056D01*
X140765473Y-126628444D01*
X140706458Y-126810072D01*
X140705768Y-126816633D01*
X140705768Y-126816635D01*
X140699585Y-126875466D01*
X140686496Y-127000000D01*
X140687186Y-127006565D01*
X140694338Y-127074608D01*
X140706458Y-127189928D01*
X140765473Y-127371556D01*
X140768776Y-127377278D01*
X140768777Y-127377279D01*
X140780680Y-127397896D01*
X140860960Y-127536944D01*
X140865378Y-127541851D01*
X140865379Y-127541852D01*
X140886843Y-127565690D01*
X140917561Y-127629697D01*
X140908796Y-127700151D01*
X140886843Y-127734310D01*
X140860960Y-127763056D01*
X140765473Y-127928444D01*
X140706458Y-128110072D01*
X140705768Y-128116633D01*
X140705768Y-128116635D01*
X140704527Y-128128444D01*
X140686496Y-128300000D01*
X140706458Y-128489928D01*
X140765473Y-128671556D01*
X140860960Y-128836944D01*
X140988747Y-128978866D01*
X141143248Y-129091118D01*
X141149276Y-129093802D01*
X141149278Y-129093803D01*
X141305086Y-129163173D01*
X141359182Y-129209153D01*
X141379831Y-129277081D01*
X141360479Y-129345389D01*
X141307268Y-129392390D01*
X141290805Y-129398133D01*
X141289684Y-129398255D01*
X141282291Y-129401027D01*
X141282289Y-129401027D01*
X141211742Y-129427474D01*
X141153295Y-129449385D01*
X141036739Y-129536739D01*
X140949385Y-129653295D01*
X140946233Y-129661703D01*
X140904919Y-129771907D01*
X140862277Y-129828671D01*
X140795716Y-129853371D01*
X140726367Y-129838163D01*
X140693743Y-129812476D01*
X140643151Y-129756875D01*
X140643142Y-129756866D01*
X140639670Y-129753051D01*
X140635619Y-129749852D01*
X140635615Y-129749848D01*
X140468414Y-129617800D01*
X140468410Y-129617798D01*
X140464359Y-129614598D01*
X140439341Y-129600787D01*
X140412136Y-129585769D01*
X140268789Y-129506638D01*
X140263920Y-129504914D01*
X140263916Y-129504912D01*
X140063087Y-129433795D01*
X140063083Y-129433794D01*
X140058212Y-129432069D01*
X140053119Y-129431162D01*
X140053116Y-129431161D01*
X139843373Y-129393800D01*
X139843367Y-129393799D01*
X139838284Y-129392894D01*
X139764452Y-129391992D01*
X139620081Y-129390228D01*
X139620079Y-129390228D01*
X139614911Y-129390165D01*
X139394091Y-129423955D01*
X139181756Y-129493357D01*
X138983607Y-129596507D01*
X138979474Y-129599610D01*
X138979471Y-129599612D01*
X138837513Y-129706197D01*
X138804965Y-129730635D01*
X138765525Y-129771907D01*
X138711280Y-129828671D01*
X138650629Y-129892138D01*
X138647715Y-129896410D01*
X138647714Y-129896411D01*
X138613090Y-129947168D01*
X138524743Y-130076680D01*
X138430688Y-130279305D01*
X138370989Y-130494570D01*
X138347251Y-130716695D01*
X130508000Y-130716695D01*
X130508000Y-126925400D01*
X131891500Y-126925400D01*
X131891837Y-126928646D01*
X131891837Y-126928650D01*
X131895576Y-126964680D01*
X131902474Y-127031166D01*
X131904655Y-127037702D01*
X131904655Y-127037704D01*
X131916967Y-127074608D01*
X131958450Y-127198946D01*
X132051522Y-127349348D01*
X132176697Y-127474305D01*
X132182927Y-127478145D01*
X132182928Y-127478146D01*
X132320090Y-127562694D01*
X132327262Y-127567115D01*
X132363942Y-127579281D01*
X132488611Y-127620632D01*
X132488613Y-127620632D01*
X132495139Y-127622797D01*
X132501975Y-127623497D01*
X132501978Y-127623498D01*
X132540386Y-127627433D01*
X132599600Y-127633500D01*
X133400400Y-127633500D01*
X133403646Y-127633163D01*
X133403650Y-127633163D01*
X133499308Y-127623238D01*
X133499312Y-127623237D01*
X133506166Y-127622526D01*
X133512702Y-127620345D01*
X133512704Y-127620345D01*
X133648867Y-127574917D01*
X133673946Y-127566550D01*
X133824348Y-127473478D01*
X133949305Y-127348303D01*
X133953148Y-127342069D01*
X133981355Y-127296310D01*
X134034127Y-127248817D01*
X134104199Y-127237395D01*
X134169323Y-127265669D01*
X134187702Y-127284597D01*
X134190262Y-127287856D01*
X134198499Y-127296506D01*
X134349123Y-127427212D01*
X134358847Y-127434147D01*
X134531467Y-127534010D01*
X134542331Y-127538984D01*
X134730727Y-127604407D01*
X134731716Y-127604648D01*
X134742008Y-127603180D01*
X134746000Y-127589615D01*
X134746000Y-127585402D01*
X135254000Y-127585402D01*
X135257973Y-127598933D01*
X135267399Y-127600288D01*
X135356537Y-127578806D01*
X135367832Y-127574917D01*
X135549382Y-127492371D01*
X135559724Y-127486424D01*
X135722397Y-127371032D01*
X135731425Y-127363239D01*
X135869342Y-127219169D01*
X135876738Y-127209804D01*
X135984921Y-127042259D01*
X135990417Y-127031655D01*
X136064961Y-126846688D01*
X136068355Y-126835230D01*
X136106857Y-126638072D01*
X136107934Y-126629209D01*
X136108000Y-126626500D01*
X136108000Y-126522115D01*
X136103525Y-126506876D01*
X136102135Y-126505671D01*
X136094452Y-126504000D01*
X135272115Y-126504000D01*
X135256876Y-126508475D01*
X135255671Y-126509865D01*
X135254000Y-126517548D01*
X135254000Y-127585402D01*
X134746000Y-127585402D01*
X134746000Y-125977885D01*
X135254000Y-125977885D01*
X135258475Y-125993124D01*
X135259865Y-125994329D01*
X135267548Y-125996000D01*
X136089885Y-125996000D01*
X136105124Y-125991525D01*
X136106329Y-125990135D01*
X136108000Y-125982452D01*
X136108000Y-125925168D01*
X136107715Y-125919192D01*
X136093529Y-125770506D01*
X136091270Y-125758772D01*
X136035128Y-125567401D01*
X136030698Y-125556325D01*
X135939381Y-125379022D01*
X135932931Y-125368976D01*
X135809738Y-125212143D01*
X135801501Y-125203494D01*
X135650877Y-125072788D01*
X135641153Y-125065853D01*
X135468533Y-124965990D01*
X135457669Y-124961016D01*
X135269273Y-124895593D01*
X135268284Y-124895352D01*
X135257992Y-124896820D01*
X135254000Y-124910385D01*
X135254000Y-125977885D01*
X134746000Y-125977885D01*
X134746000Y-124914598D01*
X134742027Y-124901067D01*
X134732601Y-124899712D01*
X134643463Y-124921194D01*
X134632168Y-124925083D01*
X134450618Y-125007629D01*
X134440276Y-125013576D01*
X134277603Y-125128968D01*
X134268575Y-125136761D01*
X134181465Y-125227757D01*
X134119910Y-125263133D01*
X134049000Y-125259614D01*
X133991250Y-125218317D01*
X133983315Y-125206947D01*
X133948478Y-125150652D01*
X133823303Y-125025695D01*
X133812985Y-125019335D01*
X133678968Y-124936725D01*
X133678966Y-124936724D01*
X133672738Y-124932885D01*
X133564005Y-124896820D01*
X133511389Y-124879368D01*
X133511387Y-124879368D01*
X133504861Y-124877203D01*
X133498025Y-124876503D01*
X133498022Y-124876502D01*
X133454969Y-124872091D01*
X133400400Y-124866500D01*
X132599600Y-124866500D01*
X132596354Y-124866837D01*
X132596350Y-124866837D01*
X132500692Y-124876762D01*
X132500688Y-124876763D01*
X132493834Y-124877474D01*
X132487298Y-124879655D01*
X132487296Y-124879655D01*
X132423117Y-124901067D01*
X132326054Y-124933450D01*
X132175652Y-125026522D01*
X132050695Y-125151697D01*
X132046855Y-125157927D01*
X132046854Y-125157928D01*
X131982005Y-125263133D01*
X131957885Y-125302262D01*
X131902203Y-125470139D01*
X131891500Y-125574600D01*
X131891500Y-126925400D01*
X130508000Y-126925400D01*
X130508000Y-122569043D01*
X130528002Y-122500922D01*
X130581658Y-122454429D01*
X130651932Y-122444325D01*
X130716512Y-122473819D01*
X130743118Y-122506041D01*
X130760960Y-122536944D01*
X130888747Y-122678866D01*
X131043248Y-122791118D01*
X131049276Y-122793802D01*
X131049278Y-122793803D01*
X131139318Y-122833891D01*
X131217712Y-122868794D01*
X131311112Y-122888647D01*
X131398056Y-122907128D01*
X131398061Y-122907128D01*
X131404513Y-122908500D01*
X131595487Y-122908500D01*
X131601939Y-122907128D01*
X131601944Y-122907128D01*
X131688888Y-122888647D01*
X131782288Y-122868794D01*
X131860682Y-122833891D01*
X131950722Y-122793803D01*
X131950724Y-122793802D01*
X131956752Y-122791118D01*
X132111253Y-122678866D01*
X132239040Y-122536944D01*
X132334527Y-122371556D01*
X132393542Y-122189928D01*
X132413504Y-122000000D01*
X137086496Y-122000000D01*
X137106458Y-122189928D01*
X137165473Y-122371556D01*
X137260960Y-122536944D01*
X137388747Y-122678866D01*
X137543248Y-122791118D01*
X137549276Y-122793802D01*
X137549278Y-122793803D01*
X137639318Y-122833891D01*
X137717712Y-122868794D01*
X137811112Y-122888647D01*
X137898056Y-122907128D01*
X137898061Y-122907128D01*
X137904513Y-122908500D01*
X138095487Y-122908500D01*
X138101939Y-122907128D01*
X138101944Y-122907128D01*
X138188888Y-122888647D01*
X138282288Y-122868794D01*
X138360682Y-122833891D01*
X138450722Y-122793803D01*
X138450724Y-122793802D01*
X138456752Y-122791118D01*
X138611253Y-122678866D01*
X138739040Y-122536944D01*
X138834527Y-122371556D01*
X138893542Y-122189928D01*
X138913504Y-122000000D01*
X138893542Y-121810072D01*
X138834527Y-121628444D01*
X138739040Y-121463056D01*
X138611253Y-121321134D01*
X138456752Y-121208882D01*
X138450724Y-121206198D01*
X138450722Y-121206197D01*
X138288319Y-121133891D01*
X138288318Y-121133891D01*
X138282288Y-121131206D01*
X138166362Y-121106565D01*
X138135477Y-121100000D01*
X149086496Y-121100000D01*
X149106458Y-121289928D01*
X149165473Y-121471556D01*
X149260960Y-121636944D01*
X149388747Y-121778866D01*
X149543248Y-121891118D01*
X149549276Y-121893802D01*
X149549278Y-121893803D01*
X149711681Y-121966109D01*
X149717712Y-121968794D01*
X149811113Y-121988647D01*
X149898056Y-122007128D01*
X149898061Y-122007128D01*
X149904513Y-122008500D01*
X150095487Y-122008500D01*
X150101939Y-122007128D01*
X150101944Y-122007128D01*
X150188887Y-121988647D01*
X150282288Y-121968794D01*
X150288319Y-121966109D01*
X150450722Y-121893803D01*
X150450724Y-121893802D01*
X150456752Y-121891118D01*
X150611253Y-121778866D01*
X150739040Y-121636944D01*
X150834527Y-121471556D01*
X150893542Y-121289928D01*
X150913504Y-121100000D01*
X150893542Y-120910072D01*
X150834527Y-120728444D01*
X150739040Y-120563056D01*
X150611253Y-120421134D01*
X150456752Y-120308882D01*
X150450724Y-120306198D01*
X150450722Y-120306197D01*
X150288319Y-120233891D01*
X150288318Y-120233891D01*
X150282288Y-120231206D01*
X150188888Y-120211353D01*
X150101944Y-120192872D01*
X150101939Y-120192872D01*
X150095487Y-120191500D01*
X149904513Y-120191500D01*
X149898061Y-120192872D01*
X149898056Y-120192872D01*
X149811112Y-120211353D01*
X149717712Y-120231206D01*
X149711682Y-120233891D01*
X149711681Y-120233891D01*
X149549278Y-120306197D01*
X149549276Y-120306198D01*
X149543248Y-120308882D01*
X149388747Y-120421134D01*
X149260960Y-120563056D01*
X149165473Y-120728444D01*
X149106458Y-120910072D01*
X149086496Y-121100000D01*
X138135477Y-121100000D01*
X138101944Y-121092872D01*
X138101939Y-121092872D01*
X138095487Y-121091500D01*
X137904513Y-121091500D01*
X137898061Y-121092872D01*
X137898056Y-121092872D01*
X137833638Y-121106565D01*
X137717712Y-121131206D01*
X137711682Y-121133891D01*
X137711681Y-121133891D01*
X137549278Y-121206197D01*
X137549276Y-121206198D01*
X137543248Y-121208882D01*
X137388747Y-121321134D01*
X137260960Y-121463056D01*
X137165473Y-121628444D01*
X137106458Y-121810072D01*
X137086496Y-122000000D01*
X132413504Y-122000000D01*
X132393542Y-121810072D01*
X132334527Y-121628444D01*
X132239040Y-121463056D01*
X132111253Y-121321134D01*
X131956752Y-121208882D01*
X131950724Y-121206198D01*
X131950722Y-121206197D01*
X131788319Y-121133891D01*
X131788318Y-121133891D01*
X131782288Y-121131206D01*
X131666362Y-121106565D01*
X131601944Y-121092872D01*
X131601939Y-121092872D01*
X131595487Y-121091500D01*
X131404513Y-121091500D01*
X131398061Y-121092872D01*
X131398056Y-121092872D01*
X131333638Y-121106565D01*
X131217712Y-121131206D01*
X131211682Y-121133891D01*
X131211681Y-121133891D01*
X131049278Y-121206197D01*
X131049276Y-121206198D01*
X131043248Y-121208882D01*
X130888747Y-121321134D01*
X130760960Y-121463056D01*
X130743119Y-121493958D01*
X130691736Y-121542951D01*
X130622022Y-121556386D01*
X130556111Y-121529999D01*
X130514930Y-121472167D01*
X130508000Y-121430957D01*
X130508000Y-119600000D01*
X143486496Y-119600000D01*
X143506458Y-119789928D01*
X143565473Y-119971556D01*
X143660960Y-120136944D01*
X143788747Y-120278866D01*
X143943248Y-120391118D01*
X143949276Y-120393802D01*
X143949278Y-120393803D01*
X144111681Y-120466109D01*
X144117712Y-120468794D01*
X144211112Y-120488647D01*
X144298056Y-120507128D01*
X144298061Y-120507128D01*
X144304513Y-120508500D01*
X144495487Y-120508500D01*
X144501939Y-120507128D01*
X144501944Y-120507128D01*
X144588888Y-120488647D01*
X144682288Y-120468794D01*
X144688319Y-120466109D01*
X144850722Y-120393803D01*
X144850724Y-120393802D01*
X144856752Y-120391118D01*
X145011253Y-120278866D01*
X145056364Y-120228765D01*
X145116810Y-120191525D01*
X145187793Y-120192877D01*
X145243636Y-120228765D01*
X145288747Y-120278866D01*
X145443248Y-120391118D01*
X145449276Y-120393802D01*
X145449278Y-120393803D01*
X145611681Y-120466109D01*
X145617712Y-120468794D01*
X145711112Y-120488647D01*
X145798056Y-120507128D01*
X145798061Y-120507128D01*
X145804513Y-120508500D01*
X145995487Y-120508500D01*
X146001939Y-120507128D01*
X146001944Y-120507128D01*
X146088888Y-120488647D01*
X146182288Y-120468794D01*
X146188319Y-120466109D01*
X146350722Y-120393803D01*
X146350724Y-120393802D01*
X146356752Y-120391118D01*
X146511253Y-120278866D01*
X146556364Y-120228765D01*
X146616810Y-120191525D01*
X146687793Y-120192877D01*
X146743636Y-120228765D01*
X146788747Y-120278866D01*
X146943248Y-120391118D01*
X146949276Y-120393802D01*
X146949278Y-120393803D01*
X147111681Y-120466109D01*
X147117712Y-120468794D01*
X147211112Y-120488647D01*
X147298056Y-120507128D01*
X147298061Y-120507128D01*
X147304513Y-120508500D01*
X147495487Y-120508500D01*
X147501939Y-120507128D01*
X147501944Y-120507128D01*
X147588888Y-120488647D01*
X147682288Y-120468794D01*
X147688319Y-120466109D01*
X147850722Y-120393803D01*
X147850724Y-120393802D01*
X147856752Y-120391118D01*
X148011253Y-120278866D01*
X148139040Y-120136944D01*
X148234527Y-119971556D01*
X148293542Y-119789928D01*
X148313504Y-119600000D01*
X151686496Y-119600000D01*
X151706458Y-119789928D01*
X151765473Y-119971556D01*
X151860960Y-120136944D01*
X151988747Y-120278866D01*
X152143248Y-120391118D01*
X152149276Y-120393802D01*
X152149278Y-120393803D01*
X152311681Y-120466109D01*
X152317712Y-120468794D01*
X152411112Y-120488647D01*
X152498056Y-120507128D01*
X152498061Y-120507128D01*
X152504513Y-120508500D01*
X152695487Y-120508500D01*
X152701939Y-120507128D01*
X152701944Y-120507128D01*
X152788888Y-120488647D01*
X152882288Y-120468794D01*
X152888319Y-120466109D01*
X153050722Y-120393803D01*
X153050724Y-120393802D01*
X153056752Y-120391118D01*
X153211253Y-120278866D01*
X153256364Y-120228765D01*
X153316810Y-120191525D01*
X153387793Y-120192877D01*
X153443636Y-120228765D01*
X153488747Y-120278866D01*
X153643248Y-120391118D01*
X153649276Y-120393802D01*
X153649278Y-120393803D01*
X153811681Y-120466109D01*
X153817712Y-120468794D01*
X153911112Y-120488647D01*
X153998056Y-120507128D01*
X153998061Y-120507128D01*
X154004513Y-120508500D01*
X154195487Y-120508500D01*
X154201939Y-120507128D01*
X154201944Y-120507128D01*
X154288888Y-120488647D01*
X154382288Y-120468794D01*
X154388319Y-120466109D01*
X154550722Y-120393803D01*
X154550724Y-120393802D01*
X154556752Y-120391118D01*
X154711253Y-120278866D01*
X154756364Y-120228765D01*
X154816810Y-120191525D01*
X154887793Y-120192877D01*
X154943636Y-120228765D01*
X154988747Y-120278866D01*
X155143248Y-120391118D01*
X155149276Y-120393802D01*
X155149278Y-120393803D01*
X155311681Y-120466109D01*
X155317712Y-120468794D01*
X155411112Y-120488647D01*
X155498056Y-120507128D01*
X155498061Y-120507128D01*
X155504513Y-120508500D01*
X155695487Y-120508500D01*
X155701939Y-120507128D01*
X155701944Y-120507128D01*
X155788888Y-120488647D01*
X155882288Y-120468794D01*
X155888319Y-120466109D01*
X156050722Y-120393803D01*
X156050724Y-120393802D01*
X156056752Y-120391118D01*
X156211253Y-120278866D01*
X156339040Y-120136944D01*
X156434527Y-119971556D01*
X156493542Y-119789928D01*
X156513504Y-119600000D01*
X156511701Y-119582848D01*
X156524473Y-119513010D01*
X156572974Y-119461163D01*
X156641807Y-119443768D01*
X156711071Y-119467741D01*
X156737901Y-119487234D01*
X156737907Y-119487237D01*
X156743248Y-119491118D01*
X156749276Y-119493802D01*
X156749278Y-119493803D01*
X156792418Y-119513010D01*
X156917712Y-119568794D01*
X157011113Y-119588647D01*
X157098056Y-119607128D01*
X157098061Y-119607128D01*
X157104513Y-119608500D01*
X157295487Y-119608500D01*
X157301939Y-119607128D01*
X157301944Y-119607128D01*
X157388887Y-119588647D01*
X157482288Y-119568794D01*
X157607582Y-119513010D01*
X157650722Y-119493803D01*
X157650724Y-119493802D01*
X157656752Y-119491118D01*
X157811253Y-119378866D01*
X157939040Y-119236944D01*
X158034527Y-119071556D01*
X158093542Y-118889928D01*
X158113504Y-118700000D01*
X158093542Y-118510072D01*
X158034527Y-118328444D01*
X157939040Y-118163056D01*
X157811253Y-118021134D01*
X157656752Y-117908882D01*
X157650724Y-117906198D01*
X157650722Y-117906197D01*
X157488319Y-117833891D01*
X157488318Y-117833891D01*
X157482288Y-117831206D01*
X157388888Y-117811353D01*
X157301944Y-117792872D01*
X157301939Y-117792872D01*
X157295487Y-117791500D01*
X157104513Y-117791500D01*
X157098061Y-117792872D01*
X157098056Y-117792872D01*
X157011112Y-117811353D01*
X156917712Y-117831206D01*
X156911682Y-117833891D01*
X156911681Y-117833891D01*
X156749278Y-117906197D01*
X156749276Y-117906198D01*
X156743248Y-117908882D01*
X156588747Y-118021134D01*
X156460960Y-118163056D01*
X156365473Y-118328444D01*
X156306458Y-118510072D01*
X156286496Y-118700000D01*
X156287186Y-118706562D01*
X156288299Y-118717151D01*
X156275527Y-118786990D01*
X156227026Y-118838837D01*
X156158193Y-118856232D01*
X156088929Y-118832259D01*
X156062099Y-118812766D01*
X156062093Y-118812763D01*
X156056752Y-118808882D01*
X156050724Y-118806198D01*
X156050722Y-118806197D01*
X155888319Y-118733891D01*
X155888318Y-118733891D01*
X155882288Y-118731206D01*
X155766348Y-118706562D01*
X155701944Y-118692872D01*
X155701939Y-118692872D01*
X155695487Y-118691500D01*
X155504513Y-118691500D01*
X155498061Y-118692872D01*
X155498056Y-118692872D01*
X155433652Y-118706562D01*
X155317712Y-118731206D01*
X155311682Y-118733891D01*
X155311681Y-118733891D01*
X155149278Y-118806197D01*
X155149276Y-118806198D01*
X155143248Y-118808882D01*
X154988747Y-118921134D01*
X154984326Y-118926044D01*
X154984325Y-118926045D01*
X154943636Y-118971235D01*
X154883190Y-119008475D01*
X154812207Y-119007123D01*
X154756364Y-118971235D01*
X154715675Y-118926045D01*
X154715674Y-118926044D01*
X154711253Y-118921134D01*
X154556752Y-118808882D01*
X154550724Y-118806198D01*
X154550722Y-118806197D01*
X154388319Y-118733891D01*
X154388318Y-118733891D01*
X154382288Y-118731206D01*
X154266348Y-118706562D01*
X154201944Y-118692872D01*
X154201939Y-118692872D01*
X154195487Y-118691500D01*
X154004513Y-118691500D01*
X153998061Y-118692872D01*
X153998056Y-118692872D01*
X153933652Y-118706562D01*
X153817712Y-118731206D01*
X153811682Y-118733891D01*
X153811681Y-118733891D01*
X153649278Y-118806197D01*
X153649276Y-118806198D01*
X153643248Y-118808882D01*
X153488747Y-118921134D01*
X153484326Y-118926044D01*
X153484325Y-118926045D01*
X153443636Y-118971235D01*
X153383190Y-119008475D01*
X153312207Y-119007123D01*
X153256364Y-118971235D01*
X153215675Y-118926045D01*
X153215674Y-118926044D01*
X153211253Y-118921134D01*
X153056752Y-118808882D01*
X153050724Y-118806198D01*
X153050722Y-118806197D01*
X152888319Y-118733891D01*
X152888318Y-118733891D01*
X152882288Y-118731206D01*
X152766348Y-118706562D01*
X152701944Y-118692872D01*
X152701939Y-118692872D01*
X152695487Y-118691500D01*
X152504513Y-118691500D01*
X152498061Y-118692872D01*
X152498056Y-118692872D01*
X152433652Y-118706562D01*
X152317712Y-118731206D01*
X152311682Y-118733891D01*
X152311681Y-118733891D01*
X152149278Y-118806197D01*
X152149276Y-118806198D01*
X152143248Y-118808882D01*
X151988747Y-118921134D01*
X151860960Y-119063056D01*
X151765473Y-119228444D01*
X151706458Y-119410072D01*
X151686496Y-119600000D01*
X148313504Y-119600000D01*
X148293542Y-119410072D01*
X148234527Y-119228444D01*
X148139040Y-119063056D01*
X148011253Y-118921134D01*
X147856752Y-118808882D01*
X147850724Y-118806198D01*
X147850722Y-118806197D01*
X147688319Y-118733891D01*
X147688318Y-118733891D01*
X147682288Y-118731206D01*
X147566348Y-118706562D01*
X147501944Y-118692872D01*
X147501939Y-118692872D01*
X147495487Y-118691500D01*
X147304513Y-118691500D01*
X147298061Y-118692872D01*
X147298056Y-118692872D01*
X147233652Y-118706562D01*
X147117712Y-118731206D01*
X147111682Y-118733891D01*
X147111681Y-118733891D01*
X146949278Y-118806197D01*
X146949276Y-118806198D01*
X146943248Y-118808882D01*
X146788747Y-118921134D01*
X146784326Y-118926044D01*
X146784325Y-118926045D01*
X146743636Y-118971235D01*
X146683190Y-119008475D01*
X146612207Y-119007123D01*
X146556364Y-118971235D01*
X146515675Y-118926045D01*
X146515674Y-118926044D01*
X146511253Y-118921134D01*
X146356752Y-118808882D01*
X146350724Y-118806198D01*
X146350722Y-118806197D01*
X146188319Y-118733891D01*
X146188318Y-118733891D01*
X146182288Y-118731206D01*
X146066348Y-118706562D01*
X146001944Y-118692872D01*
X146001939Y-118692872D01*
X145995487Y-118691500D01*
X145804513Y-118691500D01*
X145798061Y-118692872D01*
X145798056Y-118692872D01*
X145733652Y-118706562D01*
X145617712Y-118731206D01*
X145611682Y-118733891D01*
X145611681Y-118733891D01*
X145449278Y-118806197D01*
X145449276Y-118806198D01*
X145443248Y-118808882D01*
X145288747Y-118921134D01*
X145284326Y-118926044D01*
X145284325Y-118926045D01*
X145243636Y-118971235D01*
X145183190Y-119008475D01*
X145112207Y-119007123D01*
X145056364Y-118971235D01*
X145015675Y-118926045D01*
X145015674Y-118926044D01*
X145011253Y-118921134D01*
X144856752Y-118808882D01*
X144850724Y-118806198D01*
X144850722Y-118806197D01*
X144688319Y-118733891D01*
X144688318Y-118733891D01*
X144682288Y-118731206D01*
X144566348Y-118706562D01*
X144501944Y-118692872D01*
X144501939Y-118692872D01*
X144495487Y-118691500D01*
X144304513Y-118691500D01*
X144298061Y-118692872D01*
X144298056Y-118692872D01*
X144233652Y-118706562D01*
X144117712Y-118731206D01*
X144111682Y-118733891D01*
X144111681Y-118733891D01*
X143949278Y-118806197D01*
X143949276Y-118806198D01*
X143943248Y-118808882D01*
X143788747Y-118921134D01*
X143660960Y-119063056D01*
X143565473Y-119228444D01*
X143506458Y-119410072D01*
X143486496Y-119600000D01*
X130508000Y-119600000D01*
X130508000Y-116000000D01*
X145186496Y-116000000D01*
X145206458Y-116189928D01*
X145265473Y-116371556D01*
X145268776Y-116377278D01*
X145268777Y-116377279D01*
X145286803Y-116408500D01*
X145360960Y-116536944D01*
X145365378Y-116541851D01*
X145365379Y-116541852D01*
X145408667Y-116589928D01*
X145488747Y-116678866D01*
X145643248Y-116791118D01*
X145649276Y-116793802D01*
X145649278Y-116793803D01*
X145811681Y-116866109D01*
X145817712Y-116868794D01*
X145911113Y-116888647D01*
X145998056Y-116907128D01*
X145998061Y-116907128D01*
X146004513Y-116908500D01*
X146195487Y-116908500D01*
X146201939Y-116907128D01*
X146201944Y-116907128D01*
X146288887Y-116888647D01*
X146382288Y-116868794D01*
X146388319Y-116866109D01*
X146550722Y-116793803D01*
X146550724Y-116793802D01*
X146556752Y-116791118D01*
X146711253Y-116678866D01*
X146791333Y-116589928D01*
X146834621Y-116541852D01*
X146834622Y-116541851D01*
X146839040Y-116536944D01*
X146913197Y-116408500D01*
X146931223Y-116377279D01*
X146931224Y-116377278D01*
X146934527Y-116371556D01*
X146993542Y-116189928D01*
X147013504Y-116000000D01*
X148186496Y-116000000D01*
X148206458Y-116189928D01*
X148265473Y-116371556D01*
X148268776Y-116377278D01*
X148268777Y-116377279D01*
X148286803Y-116408500D01*
X148360960Y-116536944D01*
X148365378Y-116541851D01*
X148365379Y-116541852D01*
X148408667Y-116589928D01*
X148488747Y-116678866D01*
X148643248Y-116791118D01*
X148649276Y-116793802D01*
X148649278Y-116793803D01*
X148811681Y-116866109D01*
X148817712Y-116868794D01*
X148911113Y-116888647D01*
X148998056Y-116907128D01*
X148998061Y-116907128D01*
X149004513Y-116908500D01*
X149195487Y-116908500D01*
X149201939Y-116907128D01*
X149201944Y-116907128D01*
X149288887Y-116888647D01*
X149382288Y-116868794D01*
X149388319Y-116866109D01*
X149550722Y-116793803D01*
X149550724Y-116793802D01*
X149556752Y-116791118D01*
X149711253Y-116678866D01*
X149791333Y-116589928D01*
X149834621Y-116541852D01*
X149834622Y-116541851D01*
X149839040Y-116536944D01*
X149913197Y-116408500D01*
X149918105Y-116400000D01*
X156286496Y-116400000D01*
X156306458Y-116589928D01*
X156365473Y-116771556D01*
X156460960Y-116936944D01*
X156588747Y-117078866D01*
X156743248Y-117191118D01*
X156749276Y-117193802D01*
X156749278Y-117193803D01*
X156911681Y-117266109D01*
X156917712Y-117268794D01*
X157011113Y-117288647D01*
X157098056Y-117307128D01*
X157098061Y-117307128D01*
X157104513Y-117308500D01*
X157295487Y-117308500D01*
X157301939Y-117307128D01*
X157301944Y-117307128D01*
X157388887Y-117288647D01*
X157482288Y-117268794D01*
X157488319Y-117266109D01*
X157650722Y-117193803D01*
X157650724Y-117193802D01*
X157656752Y-117191118D01*
X157811253Y-117078866D01*
X157939040Y-116936944D01*
X158034527Y-116771556D01*
X158093542Y-116589928D01*
X158113504Y-116400000D01*
X158093542Y-116210072D01*
X158034527Y-116028444D01*
X157939040Y-115863056D01*
X157897243Y-115816635D01*
X157815675Y-115726045D01*
X157815674Y-115726044D01*
X157811253Y-115721134D01*
X157656752Y-115608882D01*
X157650724Y-115606198D01*
X157650722Y-115606197D01*
X157488319Y-115533891D01*
X157488318Y-115533891D01*
X157482288Y-115531206D01*
X157366362Y-115506565D01*
X157301944Y-115492872D01*
X157301939Y-115492872D01*
X157295487Y-115491500D01*
X157104513Y-115491500D01*
X157098061Y-115492872D01*
X157098056Y-115492872D01*
X157033638Y-115506565D01*
X156917712Y-115531206D01*
X156911682Y-115533891D01*
X156911681Y-115533891D01*
X156749278Y-115606197D01*
X156749276Y-115606198D01*
X156743248Y-115608882D01*
X156588747Y-115721134D01*
X156584326Y-115726044D01*
X156584325Y-115726045D01*
X156502758Y-115816635D01*
X156460960Y-115863056D01*
X156365473Y-116028444D01*
X156306458Y-116210072D01*
X156286496Y-116400000D01*
X149918105Y-116400000D01*
X149931223Y-116377279D01*
X149931224Y-116377278D01*
X149934527Y-116371556D01*
X149993542Y-116189928D01*
X150013504Y-116000000D01*
X149993542Y-115810072D01*
X149934527Y-115628444D01*
X149839040Y-115463056D01*
X149711253Y-115321134D01*
X149556752Y-115208882D01*
X149550724Y-115206198D01*
X149550722Y-115206197D01*
X149388319Y-115133891D01*
X149388318Y-115133891D01*
X149382288Y-115131206D01*
X149288888Y-115111353D01*
X149201944Y-115092872D01*
X149201939Y-115092872D01*
X149195487Y-115091500D01*
X149004513Y-115091500D01*
X148998061Y-115092872D01*
X148998056Y-115092872D01*
X148911112Y-115111353D01*
X148817712Y-115131206D01*
X148811682Y-115133891D01*
X148811681Y-115133891D01*
X148649278Y-115206197D01*
X148649276Y-115206198D01*
X148643248Y-115208882D01*
X148488747Y-115321134D01*
X148360960Y-115463056D01*
X148265473Y-115628444D01*
X148206458Y-115810072D01*
X148186496Y-116000000D01*
X147013504Y-116000000D01*
X146993542Y-115810072D01*
X146934527Y-115628444D01*
X146839040Y-115463056D01*
X146711253Y-115321134D01*
X146556752Y-115208882D01*
X146550724Y-115206198D01*
X146550722Y-115206197D01*
X146388319Y-115133891D01*
X146388318Y-115133891D01*
X146382288Y-115131206D01*
X146288888Y-115111353D01*
X146201944Y-115092872D01*
X146201939Y-115092872D01*
X146195487Y-115091500D01*
X146004513Y-115091500D01*
X145998061Y-115092872D01*
X145998056Y-115092872D01*
X145911112Y-115111353D01*
X145817712Y-115131206D01*
X145811682Y-115133891D01*
X145811681Y-115133891D01*
X145649278Y-115206197D01*
X145649276Y-115206198D01*
X145643248Y-115208882D01*
X145488747Y-115321134D01*
X145360960Y-115463056D01*
X145265473Y-115628444D01*
X145206458Y-115810072D01*
X145186496Y-116000000D01*
X130508000Y-116000000D01*
X130508000Y-113775000D01*
X136061496Y-113775000D01*
X136081458Y-113964928D01*
X136140473Y-114146556D01*
X136235960Y-114311944D01*
X136240378Y-114316851D01*
X136240379Y-114316852D01*
X136359325Y-114448955D01*
X136363747Y-114453866D01*
X136518248Y-114566118D01*
X136524276Y-114568802D01*
X136524278Y-114568803D01*
X136670469Y-114633891D01*
X136692712Y-114643794D01*
X136786112Y-114663647D01*
X136873056Y-114682128D01*
X136873061Y-114682128D01*
X136879513Y-114683500D01*
X137070487Y-114683500D01*
X137076939Y-114682128D01*
X137076944Y-114682128D01*
X137163888Y-114663647D01*
X137257288Y-114643794D01*
X137279531Y-114633891D01*
X137425722Y-114568803D01*
X137425724Y-114568802D01*
X137431752Y-114566118D01*
X137586253Y-114453866D01*
X137590675Y-114448955D01*
X137709621Y-114316852D01*
X137709622Y-114316851D01*
X137714040Y-114311944D01*
X137809527Y-114146556D01*
X137857146Y-114000000D01*
X159986496Y-114000000D01*
X159987186Y-114006565D01*
X159996608Y-114096206D01*
X160006458Y-114189928D01*
X160065473Y-114371556D01*
X160160960Y-114536944D01*
X160165378Y-114541851D01*
X160165379Y-114541852D01*
X160211318Y-114592872D01*
X160288747Y-114678866D01*
X160443248Y-114791118D01*
X160449276Y-114793802D01*
X160449278Y-114793803D01*
X160570062Y-114847579D01*
X160617712Y-114868794D01*
X160711112Y-114888647D01*
X160798056Y-114907128D01*
X160798061Y-114907128D01*
X160804513Y-114908500D01*
X160995487Y-114908500D01*
X161001939Y-114907128D01*
X161001944Y-114907128D01*
X161088888Y-114888647D01*
X161182288Y-114868794D01*
X161276369Y-114826907D01*
X161346734Y-114817473D01*
X161411031Y-114847579D01*
X161448844Y-114907668D01*
X161448169Y-114978661D01*
X161436735Y-115005014D01*
X161368777Y-115122721D01*
X161365473Y-115128444D01*
X161306458Y-115310072D01*
X161286496Y-115500000D01*
X161306458Y-115689928D01*
X161365473Y-115871556D01*
X161460960Y-116036944D01*
X161588747Y-116178866D01*
X161743248Y-116291118D01*
X161749276Y-116293802D01*
X161749278Y-116293803D01*
X161909799Y-116365271D01*
X161917712Y-116368794D01*
X162011113Y-116388647D01*
X162098056Y-116407128D01*
X162098061Y-116407128D01*
X162104513Y-116408500D01*
X162295487Y-116408500D01*
X162301939Y-116407128D01*
X162301944Y-116407128D01*
X162388887Y-116388647D01*
X162482288Y-116368794D01*
X162490201Y-116365271D01*
X162650722Y-116293803D01*
X162650724Y-116293802D01*
X162656752Y-116291118D01*
X162811253Y-116178866D01*
X162939040Y-116036944D01*
X163034527Y-115871556D01*
X163093542Y-115689928D01*
X163113504Y-115500000D01*
X166386496Y-115500000D01*
X166406458Y-115689928D01*
X166465473Y-115871556D01*
X166560960Y-116036944D01*
X166688747Y-116178866D01*
X166843248Y-116291118D01*
X166849276Y-116293802D01*
X166849278Y-116293803D01*
X167009799Y-116365271D01*
X167017712Y-116368794D01*
X167111113Y-116388647D01*
X167198056Y-116407128D01*
X167198061Y-116407128D01*
X167204513Y-116408500D01*
X167395487Y-116408500D01*
X167401939Y-116407128D01*
X167401944Y-116407128D01*
X167488887Y-116388647D01*
X167582288Y-116368794D01*
X167590201Y-116365271D01*
X167750722Y-116293803D01*
X167750724Y-116293802D01*
X167756752Y-116291118D01*
X167911253Y-116178866D01*
X168039040Y-116036944D01*
X168134527Y-115871556D01*
X168193542Y-115689928D01*
X168213504Y-115500000D01*
X168193542Y-115310072D01*
X168134527Y-115128444D01*
X168113990Y-115092872D01*
X168097314Y-115063990D01*
X168039040Y-114963056D01*
X167989169Y-114907668D01*
X167915675Y-114826045D01*
X167915674Y-114826044D01*
X167911253Y-114821134D01*
X167756752Y-114708882D01*
X167750724Y-114706198D01*
X167750722Y-114706197D01*
X167588319Y-114633891D01*
X167588318Y-114633891D01*
X167582288Y-114631206D01*
X167488887Y-114611353D01*
X167401944Y-114592872D01*
X167401939Y-114592872D01*
X167395487Y-114591500D01*
X167204513Y-114591500D01*
X167198061Y-114592872D01*
X167198056Y-114592872D01*
X167111113Y-114611353D01*
X167017712Y-114631206D01*
X167011682Y-114633891D01*
X167011681Y-114633891D01*
X166849278Y-114706197D01*
X166849276Y-114706198D01*
X166843248Y-114708882D01*
X166688747Y-114821134D01*
X166684326Y-114826044D01*
X166684325Y-114826045D01*
X166610832Y-114907668D01*
X166560960Y-114963056D01*
X166502686Y-115063990D01*
X166486011Y-115092872D01*
X166465473Y-115128444D01*
X166406458Y-115310072D01*
X166386496Y-115500000D01*
X163113504Y-115500000D01*
X163093542Y-115310072D01*
X163034527Y-115128444D01*
X163013990Y-115092872D01*
X162997314Y-115063990D01*
X162939040Y-114963056D01*
X162889169Y-114907668D01*
X162815675Y-114826045D01*
X162815674Y-114826044D01*
X162811253Y-114821134D01*
X162656752Y-114708882D01*
X162650724Y-114706198D01*
X162650722Y-114706197D01*
X162488319Y-114633891D01*
X162488318Y-114633891D01*
X162482288Y-114631206D01*
X162388887Y-114611353D01*
X162301944Y-114592872D01*
X162301939Y-114592872D01*
X162295487Y-114591500D01*
X162104513Y-114591500D01*
X162098061Y-114592872D01*
X162098056Y-114592872D01*
X162011113Y-114611353D01*
X161917712Y-114631206D01*
X161823631Y-114673093D01*
X161753266Y-114682527D01*
X161688969Y-114652421D01*
X161651156Y-114592332D01*
X161651831Y-114521339D01*
X161663265Y-114494986D01*
X161731223Y-114377279D01*
X161731224Y-114377278D01*
X161734527Y-114371556D01*
X161793542Y-114189928D01*
X161803393Y-114096206D01*
X161812814Y-114006565D01*
X161813504Y-114000000D01*
X161802994Y-113900000D01*
X164486496Y-113900000D01*
X164506458Y-114089928D01*
X164565473Y-114271556D01*
X164660960Y-114436944D01*
X164665378Y-114441851D01*
X164665379Y-114441852D01*
X164745852Y-114531226D01*
X164788747Y-114578866D01*
X164808025Y-114592872D01*
X164931424Y-114682527D01*
X164943248Y-114691118D01*
X164949276Y-114693802D01*
X164949278Y-114693803D01*
X165111681Y-114766109D01*
X165117712Y-114768794D01*
X165204479Y-114787237D01*
X165298056Y-114807128D01*
X165298061Y-114807128D01*
X165304513Y-114808500D01*
X165495487Y-114808500D01*
X165501939Y-114807128D01*
X165501944Y-114807128D01*
X165595521Y-114787237D01*
X165682288Y-114768794D01*
X165688319Y-114766109D01*
X165850722Y-114693803D01*
X165850724Y-114693802D01*
X165856752Y-114691118D01*
X165868577Y-114682527D01*
X165991975Y-114592872D01*
X166011253Y-114578866D01*
X166054148Y-114531226D01*
X166134621Y-114441852D01*
X166134622Y-114441851D01*
X166139040Y-114436944D01*
X166234527Y-114271556D01*
X166293542Y-114089928D01*
X166313504Y-113900000D01*
X166304052Y-113810072D01*
X166294232Y-113716635D01*
X166294232Y-113716633D01*
X166293542Y-113710072D01*
X166234527Y-113528444D01*
X166139040Y-113363056D01*
X166022071Y-113233148D01*
X166015675Y-113226045D01*
X166015674Y-113226044D01*
X166011253Y-113221134D01*
X165856752Y-113108882D01*
X165850724Y-113106198D01*
X165850722Y-113106197D01*
X165688319Y-113033891D01*
X165688318Y-113033891D01*
X165682288Y-113031206D01*
X165588887Y-113011353D01*
X165501944Y-112992872D01*
X165501939Y-112992872D01*
X165495487Y-112991500D01*
X165304513Y-112991500D01*
X165298061Y-112992872D01*
X165298056Y-112992872D01*
X165211113Y-113011353D01*
X165117712Y-113031206D01*
X165111682Y-113033891D01*
X165111681Y-113033891D01*
X164949278Y-113106197D01*
X164949276Y-113106198D01*
X164943248Y-113108882D01*
X164788747Y-113221134D01*
X164784326Y-113226044D01*
X164784325Y-113226045D01*
X164777930Y-113233148D01*
X164660960Y-113363056D01*
X164565473Y-113528444D01*
X164506458Y-113710072D01*
X164505768Y-113716633D01*
X164505768Y-113716635D01*
X164495948Y-113810072D01*
X164486496Y-113900000D01*
X161802994Y-113900000D01*
X161793542Y-113810072D01*
X161734527Y-113628444D01*
X161639040Y-113463056D01*
X161511253Y-113321134D01*
X161380375Y-113226045D01*
X161362094Y-113212763D01*
X161362093Y-113212762D01*
X161356752Y-113208882D01*
X161350724Y-113206198D01*
X161350722Y-113206197D01*
X161188319Y-113133891D01*
X161188318Y-113133891D01*
X161182288Y-113131206D01*
X161088888Y-113111353D01*
X161001944Y-113092872D01*
X161001939Y-113092872D01*
X160995487Y-113091500D01*
X160804513Y-113091500D01*
X160798061Y-113092872D01*
X160798056Y-113092872D01*
X160711112Y-113111353D01*
X160617712Y-113131206D01*
X160611682Y-113133891D01*
X160611681Y-113133891D01*
X160449278Y-113206197D01*
X160449276Y-113206198D01*
X160443248Y-113208882D01*
X160437907Y-113212762D01*
X160437906Y-113212763D01*
X160419625Y-113226045D01*
X160288747Y-113321134D01*
X160160960Y-113463056D01*
X160065473Y-113628444D01*
X160006458Y-113810072D01*
X159986496Y-114000000D01*
X137857146Y-114000000D01*
X137868542Y-113964928D01*
X137888504Y-113775000D01*
X137868542Y-113585072D01*
X137809527Y-113403444D01*
X137714040Y-113238056D01*
X137698804Y-113221134D01*
X137590675Y-113101045D01*
X137590674Y-113101044D01*
X137586253Y-113096134D01*
X137431752Y-112983882D01*
X137425724Y-112981198D01*
X137425722Y-112981197D01*
X137263319Y-112908891D01*
X137263318Y-112908891D01*
X137257288Y-112906206D01*
X137163888Y-112886353D01*
X137076944Y-112867872D01*
X137076939Y-112867872D01*
X137070487Y-112866500D01*
X136879513Y-112866500D01*
X136873061Y-112867872D01*
X136873056Y-112867872D01*
X136786112Y-112886353D01*
X136692712Y-112906206D01*
X136686682Y-112908891D01*
X136686681Y-112908891D01*
X136524278Y-112981197D01*
X136524276Y-112981198D01*
X136518248Y-112983882D01*
X136363747Y-113096134D01*
X136359326Y-113101044D01*
X136359325Y-113101045D01*
X136251197Y-113221134D01*
X136235960Y-113238056D01*
X136140473Y-113403444D01*
X136081458Y-113585072D01*
X136061496Y-113775000D01*
X130508000Y-113775000D01*
X130508000Y-110400000D01*
X144786496Y-110400000D01*
X144806458Y-110589928D01*
X144865473Y-110771556D01*
X144960960Y-110936944D01*
X145088747Y-111078866D01*
X145243248Y-111191118D01*
X145249276Y-111193802D01*
X145249278Y-111193803D01*
X145339318Y-111233891D01*
X145417712Y-111268794D01*
X145511113Y-111288647D01*
X145598056Y-111307128D01*
X145598061Y-111307128D01*
X145604513Y-111308500D01*
X145795487Y-111308500D01*
X145801939Y-111307128D01*
X145801944Y-111307128D01*
X145888887Y-111288647D01*
X145982288Y-111268794D01*
X146060682Y-111233891D01*
X146150722Y-111193803D01*
X146150724Y-111193802D01*
X146156752Y-111191118D01*
X146311253Y-111078866D01*
X146439040Y-110936944D01*
X146534527Y-110771556D01*
X146593542Y-110589928D01*
X146613504Y-110400000D01*
X146593542Y-110210072D01*
X146534527Y-110028444D01*
X146518105Y-110000000D01*
X167086496Y-110000000D01*
X167106458Y-110189928D01*
X167165473Y-110371556D01*
X167260960Y-110536944D01*
X167265378Y-110541851D01*
X167265379Y-110541852D01*
X167308667Y-110589928D01*
X167388747Y-110678866D01*
X167543248Y-110791118D01*
X167549276Y-110793802D01*
X167549278Y-110793803D01*
X167711681Y-110866109D01*
X167717712Y-110868794D01*
X167811113Y-110888647D01*
X167898056Y-110907128D01*
X167898061Y-110907128D01*
X167904513Y-110908500D01*
X168095487Y-110908500D01*
X168101939Y-110907128D01*
X168101944Y-110907128D01*
X168188887Y-110888647D01*
X168282288Y-110868794D01*
X168288319Y-110866109D01*
X168450722Y-110793803D01*
X168450724Y-110793802D01*
X168456752Y-110791118D01*
X168611253Y-110678866D01*
X168691333Y-110589928D01*
X168734621Y-110541852D01*
X168734622Y-110541851D01*
X168739040Y-110536944D01*
X168834527Y-110371556D01*
X168893542Y-110189928D01*
X168913504Y-110000000D01*
X168893542Y-109810072D01*
X168834527Y-109628444D01*
X168739040Y-109463056D01*
X168611253Y-109321134D01*
X168456752Y-109208882D01*
X168450724Y-109206198D01*
X168450722Y-109206197D01*
X168288319Y-109133891D01*
X168288318Y-109133891D01*
X168282288Y-109131206D01*
X168188888Y-109111353D01*
X168101944Y-109092872D01*
X168101939Y-109092872D01*
X168095487Y-109091500D01*
X167904513Y-109091500D01*
X167898061Y-109092872D01*
X167898056Y-109092872D01*
X167811112Y-109111353D01*
X167717712Y-109131206D01*
X167711682Y-109133891D01*
X167711681Y-109133891D01*
X167549278Y-109206197D01*
X167549276Y-109206198D01*
X167543248Y-109208882D01*
X167388747Y-109321134D01*
X167260960Y-109463056D01*
X167165473Y-109628444D01*
X167106458Y-109810072D01*
X167086496Y-110000000D01*
X146518105Y-110000000D01*
X146439040Y-109863056D01*
X146397243Y-109816635D01*
X146315675Y-109726045D01*
X146315674Y-109726044D01*
X146311253Y-109721134D01*
X146156752Y-109608882D01*
X146150724Y-109606198D01*
X146150722Y-109606197D01*
X145988319Y-109533891D01*
X145988318Y-109533891D01*
X145982288Y-109531206D01*
X145888887Y-109511353D01*
X145801944Y-109492872D01*
X145801939Y-109492872D01*
X145795487Y-109491500D01*
X145604513Y-109491500D01*
X145598061Y-109492872D01*
X145598056Y-109492872D01*
X145511113Y-109511353D01*
X145417712Y-109531206D01*
X145411682Y-109533891D01*
X145411681Y-109533891D01*
X145249278Y-109606197D01*
X145249276Y-109606198D01*
X145243248Y-109608882D01*
X145088747Y-109721134D01*
X145084326Y-109726044D01*
X145084325Y-109726045D01*
X145002758Y-109816635D01*
X144960960Y-109863056D01*
X144865473Y-110028444D01*
X144806458Y-110210072D01*
X144786496Y-110400000D01*
X130508000Y-110400000D01*
X130508000Y-108924925D01*
X130528002Y-108856804D01*
X130581658Y-108810311D01*
X130651932Y-108800207D01*
X130685249Y-108809818D01*
X130817712Y-108868794D01*
X130911113Y-108888647D01*
X130998056Y-108907128D01*
X130998061Y-108907128D01*
X131004513Y-108908500D01*
X131195487Y-108908500D01*
X131201939Y-108907128D01*
X131201944Y-108907128D01*
X131288887Y-108888647D01*
X131382288Y-108868794D01*
X131388321Y-108866108D01*
X131550722Y-108793803D01*
X131550724Y-108793802D01*
X131556752Y-108791118D01*
X131711253Y-108678866D01*
X131839040Y-108536944D01*
X131934527Y-108371556D01*
X131993542Y-108189928D01*
X132013504Y-108000000D01*
X131996777Y-107840851D01*
X131994232Y-107816635D01*
X131994232Y-107816633D01*
X131993542Y-107810072D01*
X131934527Y-107628444D01*
X131839040Y-107463056D01*
X131776685Y-107393803D01*
X131715675Y-107326045D01*
X131715674Y-107326044D01*
X131711253Y-107321134D01*
X131556752Y-107208882D01*
X131550724Y-107206198D01*
X131550722Y-107206197D01*
X131388319Y-107133891D01*
X131388318Y-107133891D01*
X131382288Y-107131206D01*
X131279798Y-107109421D01*
X131201944Y-107092872D01*
X131201939Y-107092872D01*
X131195487Y-107091500D01*
X131004513Y-107091500D01*
X130998061Y-107092872D01*
X130998056Y-107092872D01*
X130920202Y-107109421D01*
X130817712Y-107131206D01*
X130811682Y-107133891D01*
X130811681Y-107133891D01*
X130685249Y-107190182D01*
X130614882Y-107199616D01*
X130550585Y-107169509D01*
X130512771Y-107109421D01*
X130508000Y-107075075D01*
X130508000Y-106200000D01*
X138786496Y-106200000D01*
X138787186Y-106206565D01*
X138805768Y-106383360D01*
X138806458Y-106389928D01*
X138865473Y-106571556D01*
X138960960Y-106736944D01*
X138965378Y-106741851D01*
X138965379Y-106741852D01*
X139007361Y-106788478D01*
X139088747Y-106878866D01*
X139243248Y-106991118D01*
X139249276Y-106993802D01*
X139249278Y-106993803D01*
X139333332Y-107031226D01*
X139417712Y-107068794D01*
X139511112Y-107088647D01*
X139598056Y-107107128D01*
X139598061Y-107107128D01*
X139604513Y-107108500D01*
X139795487Y-107108500D01*
X139801939Y-107107128D01*
X139801944Y-107107128D01*
X139888887Y-107088647D01*
X139982288Y-107068794D01*
X140066668Y-107031226D01*
X140150722Y-106993803D01*
X140150724Y-106993802D01*
X140156752Y-106991118D01*
X140175940Y-106977177D01*
X140242808Y-106953319D01*
X140311959Y-106969400D01*
X140324060Y-106977177D01*
X140343248Y-106991118D01*
X140349276Y-106993802D01*
X140349278Y-106993803D01*
X140433332Y-107031226D01*
X140517712Y-107068794D01*
X140611112Y-107088647D01*
X140698056Y-107107128D01*
X140698061Y-107107128D01*
X140704513Y-107108500D01*
X140895487Y-107108500D01*
X140901939Y-107107128D01*
X140901944Y-107107128D01*
X140988887Y-107088647D01*
X141082288Y-107068794D01*
X141166668Y-107031226D01*
X141250722Y-106993803D01*
X141250724Y-106993802D01*
X141256752Y-106991118D01*
X141411253Y-106878866D01*
X141492639Y-106788477D01*
X141553084Y-106751239D01*
X141624068Y-106752591D01*
X141683052Y-106792105D01*
X141711310Y-106857235D01*
X141709520Y-106898989D01*
X141708500Y-106903787D01*
X141706458Y-106910072D01*
X141686496Y-107100000D01*
X141706458Y-107289928D01*
X141765473Y-107471556D01*
X141768776Y-107477278D01*
X141768777Y-107477279D01*
X141786803Y-107508500D01*
X141860960Y-107636944D01*
X141988747Y-107778866D01*
X142143248Y-107891118D01*
X142149276Y-107893802D01*
X142149278Y-107893803D01*
X142241200Y-107934729D01*
X142317712Y-107968794D01*
X142411113Y-107988647D01*
X142498056Y-108007128D01*
X142498061Y-108007128D01*
X142504513Y-108008500D01*
X142695487Y-108008500D01*
X142701939Y-108007128D01*
X142701944Y-108007128D01*
X142788887Y-107988647D01*
X142882288Y-107968794D01*
X142958800Y-107934729D01*
X143050722Y-107893803D01*
X143050724Y-107893802D01*
X143056752Y-107891118D01*
X143062094Y-107887237D01*
X143125939Y-107840851D01*
X143192807Y-107816992D01*
X143261959Y-107833073D01*
X143274061Y-107840851D01*
X143337906Y-107887237D01*
X143343248Y-107891118D01*
X143349276Y-107893802D01*
X143349278Y-107893803D01*
X143441200Y-107934729D01*
X143517712Y-107968794D01*
X143611113Y-107988647D01*
X143698056Y-108007128D01*
X143698061Y-108007128D01*
X143704513Y-108008500D01*
X143895487Y-108008500D01*
X143901939Y-108007128D01*
X143901944Y-108007128D01*
X143988887Y-107988647D01*
X144082288Y-107968794D01*
X144158800Y-107934729D01*
X144250722Y-107893803D01*
X144250724Y-107893802D01*
X144256752Y-107891118D01*
X144262094Y-107887237D01*
X144325939Y-107840851D01*
X144392807Y-107816992D01*
X144461959Y-107833073D01*
X144474061Y-107840851D01*
X144537906Y-107887237D01*
X144543248Y-107891118D01*
X144549276Y-107893802D01*
X144549278Y-107893803D01*
X144641200Y-107934729D01*
X144717712Y-107968794D01*
X144811113Y-107988647D01*
X144898056Y-108007128D01*
X144898061Y-108007128D01*
X144904513Y-108008500D01*
X145095487Y-108008500D01*
X145101939Y-108007128D01*
X145101944Y-108007128D01*
X145135477Y-108000000D01*
X162086496Y-108000000D01*
X162106458Y-108189928D01*
X162165473Y-108371556D01*
X162260960Y-108536944D01*
X162388747Y-108678866D01*
X162543248Y-108791118D01*
X162549276Y-108793802D01*
X162549278Y-108793803D01*
X162711679Y-108866108D01*
X162717712Y-108868794D01*
X162811113Y-108888647D01*
X162898056Y-108907128D01*
X162898061Y-108907128D01*
X162904513Y-108908500D01*
X163095487Y-108908500D01*
X163101939Y-108907128D01*
X163101944Y-108907128D01*
X163188887Y-108888647D01*
X163282288Y-108868794D01*
X163288315Y-108866111D01*
X163288323Y-108866108D01*
X163448754Y-108794680D01*
X163519121Y-108785246D01*
X163551252Y-108794680D01*
X163717715Y-108868794D01*
X163811116Y-108888647D01*
X163898059Y-108907128D01*
X163898064Y-108907128D01*
X163904516Y-108908500D01*
X164095490Y-108908500D01*
X164101942Y-108907128D01*
X164101947Y-108907128D01*
X164188890Y-108888647D01*
X164282291Y-108868794D01*
X164288324Y-108866108D01*
X164450725Y-108793803D01*
X164450727Y-108793802D01*
X164456755Y-108791118D01*
X164611256Y-108678866D01*
X164739043Y-108536944D01*
X164834530Y-108371556D01*
X164857780Y-108300000D01*
X165486496Y-108300000D01*
X165506458Y-108489928D01*
X165565473Y-108671556D01*
X165660960Y-108836944D01*
X165788747Y-108978866D01*
X165943248Y-109091118D01*
X165949276Y-109093802D01*
X165949278Y-109093803D01*
X166039318Y-109133891D01*
X166117712Y-109168794D01*
X166211113Y-109188647D01*
X166298056Y-109207128D01*
X166298061Y-109207128D01*
X166304513Y-109208500D01*
X166495487Y-109208500D01*
X166501939Y-109207128D01*
X166501944Y-109207128D01*
X166588888Y-109188647D01*
X166682288Y-109168794D01*
X166760682Y-109133891D01*
X166850722Y-109093803D01*
X166850724Y-109093802D01*
X166856752Y-109091118D01*
X167011253Y-108978866D01*
X167139040Y-108836944D01*
X167234527Y-108671556D01*
X167293542Y-108489928D01*
X167313504Y-108300000D01*
X167293542Y-108110072D01*
X167234527Y-107928444D01*
X167139040Y-107763056D01*
X167011253Y-107621134D01*
X166856752Y-107508882D01*
X166850724Y-107506198D01*
X166850722Y-107506197D01*
X166688319Y-107433891D01*
X166688318Y-107433891D01*
X166682288Y-107431206D01*
X166588887Y-107411353D01*
X166501944Y-107392872D01*
X166501939Y-107392872D01*
X166495487Y-107391500D01*
X166304513Y-107391500D01*
X166298061Y-107392872D01*
X166298056Y-107392872D01*
X166211113Y-107411353D01*
X166117712Y-107431206D01*
X166111682Y-107433891D01*
X166111681Y-107433891D01*
X165949278Y-107506197D01*
X165949276Y-107506198D01*
X165943248Y-107508882D01*
X165788747Y-107621134D01*
X165660960Y-107763056D01*
X165565473Y-107928444D01*
X165506458Y-108110072D01*
X165486496Y-108300000D01*
X164857780Y-108300000D01*
X164893545Y-108189928D01*
X164913507Y-108000000D01*
X164896780Y-107840851D01*
X164894235Y-107816635D01*
X164894235Y-107816633D01*
X164893545Y-107810072D01*
X164834530Y-107628444D01*
X164739043Y-107463056D01*
X164676688Y-107393803D01*
X164615678Y-107326045D01*
X164615677Y-107326044D01*
X164611256Y-107321134D01*
X164456755Y-107208882D01*
X164450727Y-107206198D01*
X164450725Y-107206197D01*
X164288322Y-107133891D01*
X164288321Y-107133891D01*
X164282291Y-107131206D01*
X164179801Y-107109421D01*
X164101947Y-107092872D01*
X164101942Y-107092872D01*
X164095490Y-107091500D01*
X163904516Y-107091500D01*
X163898064Y-107092872D01*
X163898059Y-107092872D01*
X163820205Y-107109421D01*
X163717715Y-107131206D01*
X163711688Y-107133889D01*
X163711680Y-107133892D01*
X163551249Y-107205320D01*
X163480882Y-107214754D01*
X163448752Y-107205320D01*
X163288319Y-107133891D01*
X163288318Y-107133891D01*
X163282288Y-107131206D01*
X163179798Y-107109421D01*
X163101944Y-107092872D01*
X163101939Y-107092872D01*
X163095487Y-107091500D01*
X162904513Y-107091500D01*
X162898061Y-107092872D01*
X162898056Y-107092872D01*
X162820202Y-107109421D01*
X162717712Y-107131206D01*
X162711682Y-107133891D01*
X162711681Y-107133891D01*
X162549278Y-107206197D01*
X162549276Y-107206198D01*
X162543248Y-107208882D01*
X162388747Y-107321134D01*
X162384326Y-107326044D01*
X162384325Y-107326045D01*
X162323316Y-107393803D01*
X162260960Y-107463056D01*
X162165473Y-107628444D01*
X162106458Y-107810072D01*
X162105768Y-107816633D01*
X162105768Y-107816635D01*
X162103223Y-107840851D01*
X162086496Y-108000000D01*
X145135477Y-108000000D01*
X145188887Y-107988647D01*
X145282288Y-107968794D01*
X145358800Y-107934729D01*
X145450722Y-107893803D01*
X145450724Y-107893802D01*
X145456752Y-107891118D01*
X145611253Y-107778866D01*
X145739040Y-107636944D01*
X145813197Y-107508500D01*
X145831223Y-107477279D01*
X145831224Y-107477278D01*
X145834527Y-107471556D01*
X145893542Y-107289928D01*
X145913504Y-107100000D01*
X145909942Y-107066109D01*
X145894232Y-106916635D01*
X145894232Y-106916633D01*
X145893542Y-106910072D01*
X145834527Y-106728444D01*
X145760370Y-106600000D01*
X146186496Y-106600000D01*
X146187186Y-106606565D01*
X146202392Y-106751239D01*
X146206458Y-106789928D01*
X146265473Y-106971556D01*
X146360960Y-107136944D01*
X146365378Y-107141851D01*
X146365379Y-107141852D01*
X146484325Y-107273955D01*
X146488747Y-107278866D01*
X146643248Y-107391118D01*
X146649276Y-107393802D01*
X146649278Y-107393803D01*
X146804824Y-107463056D01*
X146817712Y-107468794D01*
X146911113Y-107488647D01*
X146998056Y-107507128D01*
X146998061Y-107507128D01*
X147004513Y-107508500D01*
X147195487Y-107508500D01*
X147201939Y-107507128D01*
X147201944Y-107507128D01*
X147288887Y-107488647D01*
X147382288Y-107468794D01*
X147395176Y-107463056D01*
X147550722Y-107393803D01*
X147550724Y-107393802D01*
X147556752Y-107391118D01*
X147711253Y-107278866D01*
X147715675Y-107273955D01*
X147834621Y-107141852D01*
X147834622Y-107141851D01*
X147839040Y-107136944D01*
X147934527Y-106971556D01*
X147993542Y-106789928D01*
X147997609Y-106751239D01*
X148012814Y-106606565D01*
X148013504Y-106600000D01*
X150086496Y-106600000D01*
X150087186Y-106606565D01*
X150102392Y-106751239D01*
X150106458Y-106789928D01*
X150165473Y-106971556D01*
X150260960Y-107136944D01*
X150265378Y-107141851D01*
X150265379Y-107141852D01*
X150384325Y-107273955D01*
X150388747Y-107278866D01*
X150543248Y-107391118D01*
X150549276Y-107393802D01*
X150549278Y-107393803D01*
X150704824Y-107463056D01*
X150717712Y-107468794D01*
X150811113Y-107488647D01*
X150898056Y-107507128D01*
X150898061Y-107507128D01*
X150904513Y-107508500D01*
X151095487Y-107508500D01*
X151101939Y-107507128D01*
X151101944Y-107507128D01*
X151188887Y-107488647D01*
X151282288Y-107468794D01*
X151295176Y-107463056D01*
X151450722Y-107393803D01*
X151450724Y-107393802D01*
X151456752Y-107391118D01*
X151611253Y-107278866D01*
X151615675Y-107273955D01*
X151734621Y-107141852D01*
X151734622Y-107141851D01*
X151739040Y-107136944D01*
X151834527Y-106971556D01*
X151893542Y-106789928D01*
X151897609Y-106751239D01*
X151912814Y-106606565D01*
X151913504Y-106600000D01*
X151904205Y-106511522D01*
X151902994Y-106500000D01*
X155586496Y-106500000D01*
X155587186Y-106506565D01*
X155592608Y-106558148D01*
X155606458Y-106689928D01*
X155665473Y-106871556D01*
X155760960Y-107036944D01*
X155765378Y-107041851D01*
X155765379Y-107041852D01*
X155844598Y-107129834D01*
X155888747Y-107178866D01*
X155973310Y-107240305D01*
X156026385Y-107278866D01*
X156043248Y-107291118D01*
X156049276Y-107293802D01*
X156049278Y-107293803D01*
X156211681Y-107366109D01*
X156217712Y-107368794D01*
X156304479Y-107387237D01*
X156398056Y-107407128D01*
X156398061Y-107407128D01*
X156404513Y-107408500D01*
X156595487Y-107408500D01*
X156601939Y-107407128D01*
X156601944Y-107407128D01*
X156695521Y-107387237D01*
X156782288Y-107368794D01*
X156788319Y-107366109D01*
X156950722Y-107293803D01*
X156950724Y-107293802D01*
X156956752Y-107291118D01*
X156973616Y-107278866D01*
X157026690Y-107240305D01*
X157111253Y-107178866D01*
X157155402Y-107129834D01*
X157234621Y-107041852D01*
X157234622Y-107041851D01*
X157239040Y-107036944D01*
X157334527Y-106871556D01*
X157393542Y-106689928D01*
X157407393Y-106558148D01*
X157412814Y-106506565D01*
X157413504Y-106500000D01*
X157404052Y-106410072D01*
X157394232Y-106316635D01*
X157394232Y-106316633D01*
X157393542Y-106310072D01*
X157334527Y-106128444D01*
X157330870Y-106122109D01*
X157296775Y-106063056D01*
X157239040Y-105963056D01*
X157227285Y-105950000D01*
X157115675Y-105826045D01*
X157115674Y-105826044D01*
X157111253Y-105821134D01*
X156956752Y-105708882D01*
X156950724Y-105706198D01*
X156950722Y-105706197D01*
X156788319Y-105633891D01*
X156788318Y-105633891D01*
X156782288Y-105631206D01*
X156688887Y-105611353D01*
X156601944Y-105592872D01*
X156601939Y-105592872D01*
X156595487Y-105591500D01*
X156404513Y-105591500D01*
X156398061Y-105592872D01*
X156398056Y-105592872D01*
X156311112Y-105611353D01*
X156217712Y-105631206D01*
X156211682Y-105633891D01*
X156211681Y-105633891D01*
X156049278Y-105706197D01*
X156049276Y-105706198D01*
X156043248Y-105708882D01*
X155888747Y-105821134D01*
X155884326Y-105826044D01*
X155884325Y-105826045D01*
X155772716Y-105950000D01*
X155760960Y-105963056D01*
X155703225Y-106063056D01*
X155669131Y-106122109D01*
X155665473Y-106128444D01*
X155606458Y-106310072D01*
X155605768Y-106316633D01*
X155605768Y-106316635D01*
X155595948Y-106410072D01*
X155586496Y-106500000D01*
X151902994Y-106500000D01*
X151894232Y-106416635D01*
X151894232Y-106416633D01*
X151893542Y-106410072D01*
X151834527Y-106228444D01*
X151739040Y-106063056D01*
X151713157Y-106034310D01*
X151682439Y-105970303D01*
X151691204Y-105899849D01*
X151713157Y-105865690D01*
X151734621Y-105841852D01*
X151734622Y-105841851D01*
X151739040Y-105836944D01*
X151834527Y-105671556D01*
X151893542Y-105489928D01*
X151894233Y-105483360D01*
X151912814Y-105306565D01*
X151913504Y-105300000D01*
X151893542Y-105110072D01*
X151834527Y-104928444D01*
X151739040Y-104763056D01*
X151611253Y-104621134D01*
X151456752Y-104508882D01*
X151450724Y-104506198D01*
X151450722Y-104506197D01*
X151288319Y-104433891D01*
X151288318Y-104433891D01*
X151282288Y-104431206D01*
X151244844Y-104423247D01*
X151182371Y-104389518D01*
X151148049Y-104327369D01*
X151152777Y-104256530D01*
X151195053Y-104199492D01*
X151244844Y-104176753D01*
X151282288Y-104168794D01*
X151288319Y-104166109D01*
X151450722Y-104093803D01*
X151450724Y-104093802D01*
X151456752Y-104091118D01*
X151611253Y-103978866D01*
X151739040Y-103836944D01*
X151834527Y-103671556D01*
X151893542Y-103489928D01*
X151913504Y-103300000D01*
X151901181Y-103182749D01*
X151894232Y-103116635D01*
X151894232Y-103116633D01*
X151893542Y-103110072D01*
X151857777Y-103000000D01*
X165886496Y-103000000D01*
X165906458Y-103189928D01*
X165965473Y-103371556D01*
X165968776Y-103377278D01*
X165968777Y-103377279D01*
X165986803Y-103408500D01*
X166060960Y-103536944D01*
X166188747Y-103678866D01*
X166343248Y-103791118D01*
X166349276Y-103793802D01*
X166349278Y-103793803D01*
X166407999Y-103819947D01*
X166517712Y-103868794D01*
X166585614Y-103883227D01*
X166698056Y-103907128D01*
X166698061Y-103907128D01*
X166704513Y-103908500D01*
X166895487Y-103908500D01*
X166901939Y-103907128D01*
X166901944Y-103907128D01*
X167014386Y-103883227D01*
X167082288Y-103868794D01*
X167192001Y-103819947D01*
X167250722Y-103793803D01*
X167250724Y-103793802D01*
X167256752Y-103791118D01*
X167411253Y-103678866D01*
X167539040Y-103536944D01*
X167613197Y-103408500D01*
X167631223Y-103377279D01*
X167631224Y-103377278D01*
X167634527Y-103371556D01*
X167693542Y-103189928D01*
X167713504Y-103000000D01*
X167712814Y-102993435D01*
X167694232Y-102816635D01*
X167694232Y-102816633D01*
X167693542Y-102810072D01*
X167634527Y-102628444D01*
X167539040Y-102463056D01*
X167411253Y-102321134D01*
X167256752Y-102208882D01*
X167250724Y-102206198D01*
X167250722Y-102206197D01*
X167088319Y-102133891D01*
X167088318Y-102133891D01*
X167082288Y-102131206D01*
X166988887Y-102111353D01*
X166901944Y-102092872D01*
X166901939Y-102092872D01*
X166895487Y-102091500D01*
X166704513Y-102091500D01*
X166698061Y-102092872D01*
X166698056Y-102092872D01*
X166611112Y-102111353D01*
X166517712Y-102131206D01*
X166511682Y-102133891D01*
X166511681Y-102133891D01*
X166349278Y-102206197D01*
X166349276Y-102206198D01*
X166343248Y-102208882D01*
X166188747Y-102321134D01*
X166060960Y-102463056D01*
X165965473Y-102628444D01*
X165906458Y-102810072D01*
X165905768Y-102816633D01*
X165905768Y-102816635D01*
X165887186Y-102993435D01*
X165886496Y-103000000D01*
X151857777Y-103000000D01*
X151834527Y-102928444D01*
X151739040Y-102763056D01*
X151611253Y-102621134D01*
X151456752Y-102508882D01*
X151450724Y-102506198D01*
X151450722Y-102506197D01*
X151288319Y-102433891D01*
X151288318Y-102433891D01*
X151282288Y-102431206D01*
X151166362Y-102406565D01*
X151101944Y-102392872D01*
X151101939Y-102392872D01*
X151095487Y-102391500D01*
X150904513Y-102391500D01*
X150898061Y-102392872D01*
X150898056Y-102392872D01*
X150833638Y-102406565D01*
X150717712Y-102431206D01*
X150711682Y-102433891D01*
X150711681Y-102433891D01*
X150549278Y-102506197D01*
X150549276Y-102506198D01*
X150543248Y-102508882D01*
X150388747Y-102621134D01*
X150260960Y-102763056D01*
X150165473Y-102928444D01*
X150106458Y-103110072D01*
X150105768Y-103116633D01*
X150105768Y-103116635D01*
X150098819Y-103182749D01*
X150086496Y-103300000D01*
X150106458Y-103489928D01*
X150165473Y-103671556D01*
X150260960Y-103836944D01*
X150388747Y-103978866D01*
X150543248Y-104091118D01*
X150549276Y-104093802D01*
X150549278Y-104093803D01*
X150711681Y-104166109D01*
X150717712Y-104168794D01*
X150755156Y-104176753D01*
X150817629Y-104210482D01*
X150851951Y-104272631D01*
X150847223Y-104343470D01*
X150804947Y-104400508D01*
X150755156Y-104423247D01*
X150717712Y-104431206D01*
X150711682Y-104433891D01*
X150711681Y-104433891D01*
X150549278Y-104506197D01*
X150549276Y-104506198D01*
X150543248Y-104508882D01*
X150388747Y-104621134D01*
X150260960Y-104763056D01*
X150165473Y-104928444D01*
X150106458Y-105110072D01*
X150086496Y-105300000D01*
X150087186Y-105306565D01*
X150105768Y-105483360D01*
X150106458Y-105489928D01*
X150165473Y-105671556D01*
X150260960Y-105836944D01*
X150265378Y-105841851D01*
X150265379Y-105841852D01*
X150286843Y-105865690D01*
X150317561Y-105929697D01*
X150308796Y-106000151D01*
X150286843Y-106034310D01*
X150260960Y-106063056D01*
X150165473Y-106228444D01*
X150106458Y-106410072D01*
X150105768Y-106416633D01*
X150105768Y-106416635D01*
X150095795Y-106511522D01*
X150086496Y-106600000D01*
X148013504Y-106600000D01*
X148004205Y-106511522D01*
X147994232Y-106416635D01*
X147994232Y-106416633D01*
X147993542Y-106410072D01*
X147934527Y-106228444D01*
X147839040Y-106063056D01*
X147813157Y-106034310D01*
X147782439Y-105970303D01*
X147791204Y-105899849D01*
X147813157Y-105865690D01*
X147834621Y-105841852D01*
X147834622Y-105841851D01*
X147839040Y-105836944D01*
X147934527Y-105671556D01*
X147993542Y-105489928D01*
X147994233Y-105483360D01*
X148012814Y-105306565D01*
X148013504Y-105300000D01*
X147993542Y-105110072D01*
X147934527Y-104928444D01*
X147839040Y-104763056D01*
X147711253Y-104621134D01*
X147556752Y-104508882D01*
X147550724Y-104506198D01*
X147550722Y-104506197D01*
X147388319Y-104433891D01*
X147388318Y-104433891D01*
X147382288Y-104431206D01*
X147288887Y-104411353D01*
X147201944Y-104392872D01*
X147201939Y-104392872D01*
X147195487Y-104391500D01*
X147004513Y-104391500D01*
X146998061Y-104392872D01*
X146998056Y-104392872D01*
X146911113Y-104411353D01*
X146817712Y-104431206D01*
X146811682Y-104433891D01*
X146811681Y-104433891D01*
X146649278Y-104506197D01*
X146649276Y-104506198D01*
X146643248Y-104508882D01*
X146488747Y-104621134D01*
X146360960Y-104763056D01*
X146265473Y-104928444D01*
X146206458Y-105110072D01*
X146186496Y-105300000D01*
X146187186Y-105306565D01*
X146205768Y-105483360D01*
X146206458Y-105489928D01*
X146265473Y-105671556D01*
X146360960Y-105836944D01*
X146365378Y-105841851D01*
X146365379Y-105841852D01*
X146386843Y-105865690D01*
X146417561Y-105929697D01*
X146408796Y-106000151D01*
X146386843Y-106034310D01*
X146360960Y-106063056D01*
X146265473Y-106228444D01*
X146206458Y-106410072D01*
X146205768Y-106416633D01*
X146205768Y-106416635D01*
X146195795Y-106511522D01*
X146186496Y-106600000D01*
X145760370Y-106600000D01*
X145739040Y-106563056D01*
X145724952Y-106547409D01*
X145615675Y-106426045D01*
X145615671Y-106426041D01*
X145611253Y-106421134D01*
X145456752Y-106308882D01*
X145454674Y-106307957D01*
X145406788Y-106257733D01*
X145393354Y-106188019D01*
X145419743Y-106122109D01*
X145454195Y-106092256D01*
X145456752Y-106091118D01*
X145611253Y-105978866D01*
X145716039Y-105862489D01*
X145734621Y-105841852D01*
X145734622Y-105841851D01*
X145739040Y-105836944D01*
X145834527Y-105671556D01*
X145893542Y-105489928D01*
X145894233Y-105483360D01*
X145912814Y-105306565D01*
X145913504Y-105300000D01*
X145893542Y-105110072D01*
X145834527Y-104928444D01*
X145739040Y-104763056D01*
X145611253Y-104621134D01*
X145456752Y-104508882D01*
X145450724Y-104506198D01*
X145450722Y-104506197D01*
X145288319Y-104433891D01*
X145288318Y-104433891D01*
X145282288Y-104431206D01*
X145188887Y-104411353D01*
X145101944Y-104392872D01*
X145101939Y-104392872D01*
X145095487Y-104391500D01*
X144904513Y-104391500D01*
X144898061Y-104392872D01*
X144898056Y-104392872D01*
X144811113Y-104411353D01*
X144717712Y-104431206D01*
X144711682Y-104433891D01*
X144711681Y-104433891D01*
X144549278Y-104506197D01*
X144549276Y-104506198D01*
X144543248Y-104508882D01*
X144537907Y-104512762D01*
X144537906Y-104512763D01*
X144474061Y-104559149D01*
X144407193Y-104583008D01*
X144338041Y-104566927D01*
X144325939Y-104559149D01*
X144262094Y-104512763D01*
X144262093Y-104512762D01*
X144256752Y-104508882D01*
X144250724Y-104506198D01*
X144250722Y-104506197D01*
X144088319Y-104433891D01*
X144088318Y-104433891D01*
X144082288Y-104431206D01*
X143988887Y-104411353D01*
X143901944Y-104392872D01*
X143901939Y-104392872D01*
X143895487Y-104391500D01*
X143704513Y-104391500D01*
X143698061Y-104392872D01*
X143698056Y-104392872D01*
X143611113Y-104411353D01*
X143517712Y-104431206D01*
X143511682Y-104433891D01*
X143511681Y-104433891D01*
X143349278Y-104506197D01*
X143349276Y-104506198D01*
X143343248Y-104508882D01*
X143337907Y-104512762D01*
X143337906Y-104512763D01*
X143274061Y-104559149D01*
X143207193Y-104583008D01*
X143138041Y-104566927D01*
X143125939Y-104559149D01*
X143062094Y-104512763D01*
X143062093Y-104512762D01*
X143056752Y-104508882D01*
X143050724Y-104506198D01*
X143050722Y-104506197D01*
X142888319Y-104433891D01*
X142888318Y-104433891D01*
X142882288Y-104431206D01*
X142788887Y-104411353D01*
X142701944Y-104392872D01*
X142701939Y-104392872D01*
X142695487Y-104391500D01*
X142504513Y-104391500D01*
X142498061Y-104392872D01*
X142498056Y-104392872D01*
X142411113Y-104411353D01*
X142317712Y-104431206D01*
X142311682Y-104433891D01*
X142311681Y-104433891D01*
X142149278Y-104506197D01*
X142149276Y-104506198D01*
X142143248Y-104508882D01*
X141988747Y-104621134D01*
X141860960Y-104763056D01*
X141765473Y-104928444D01*
X141706458Y-105110072D01*
X141686496Y-105300000D01*
X141706458Y-105489928D01*
X141708500Y-105496213D01*
X141709520Y-105501011D01*
X141704120Y-105571802D01*
X141661305Y-105628436D01*
X141594668Y-105652931D01*
X141525366Y-105637511D01*
X141492640Y-105611524D01*
X141411253Y-105521134D01*
X141256752Y-105408882D01*
X141250724Y-105406198D01*
X141250722Y-105406197D01*
X141088319Y-105333891D01*
X141088318Y-105333891D01*
X141082288Y-105331206D01*
X140966362Y-105306565D01*
X140901944Y-105292872D01*
X140901939Y-105292872D01*
X140895487Y-105291500D01*
X140704513Y-105291500D01*
X140698061Y-105292872D01*
X140698056Y-105292872D01*
X140633638Y-105306565D01*
X140517712Y-105331206D01*
X140511682Y-105333891D01*
X140511681Y-105333891D01*
X140349278Y-105406197D01*
X140349276Y-105406198D01*
X140343248Y-105408882D01*
X140324060Y-105422823D01*
X140257192Y-105446681D01*
X140188041Y-105430600D01*
X140175940Y-105422823D01*
X140156752Y-105408882D01*
X140150724Y-105406198D01*
X140150722Y-105406197D01*
X139988319Y-105333891D01*
X139988318Y-105333891D01*
X139982288Y-105331206D01*
X139866362Y-105306565D01*
X139801944Y-105292872D01*
X139801939Y-105292872D01*
X139795487Y-105291500D01*
X139604513Y-105291500D01*
X139598061Y-105292872D01*
X139598056Y-105292872D01*
X139533638Y-105306565D01*
X139417712Y-105331206D01*
X139411682Y-105333891D01*
X139411681Y-105333891D01*
X139249278Y-105406197D01*
X139249276Y-105406198D01*
X139243248Y-105408882D01*
X139088747Y-105521134D01*
X139084329Y-105526041D01*
X139084325Y-105526045D01*
X138970077Y-105652931D01*
X138960960Y-105663056D01*
X138865473Y-105828444D01*
X138806458Y-106010072D01*
X138805768Y-106016633D01*
X138805768Y-106016635D01*
X138794618Y-106122721D01*
X138786496Y-106200000D01*
X130508000Y-106200000D01*
X130508000Y-102400000D01*
X134086496Y-102400000D01*
X134087186Y-102406565D01*
X134092608Y-102458148D01*
X134106458Y-102589928D01*
X134165473Y-102771556D01*
X134260960Y-102936944D01*
X134388747Y-103078866D01*
X134487843Y-103150864D01*
X134526385Y-103178866D01*
X134543248Y-103191118D01*
X134549276Y-103193802D01*
X134549278Y-103193803D01*
X134711681Y-103266109D01*
X134717712Y-103268794D01*
X134804479Y-103287237D01*
X134898056Y-103307128D01*
X134898061Y-103307128D01*
X134904513Y-103308500D01*
X135095487Y-103308500D01*
X135101939Y-103307128D01*
X135101944Y-103307128D01*
X135195521Y-103287237D01*
X135282288Y-103268794D01*
X135288319Y-103266109D01*
X135450722Y-103193803D01*
X135450724Y-103193802D01*
X135456752Y-103191118D01*
X135473616Y-103178866D01*
X135512157Y-103150864D01*
X135611253Y-103078866D01*
X135739040Y-102936944D01*
X135834527Y-102771556D01*
X135893542Y-102589928D01*
X135902994Y-102500000D01*
X148086496Y-102500000D01*
X148087186Y-102506565D01*
X148099228Y-102621134D01*
X148106458Y-102689928D01*
X148165473Y-102871556D01*
X148168776Y-102877278D01*
X148168777Y-102877279D01*
X148186803Y-102908500D01*
X148260960Y-103036944D01*
X148388747Y-103178866D01*
X148543248Y-103291118D01*
X148549276Y-103293802D01*
X148549278Y-103293803D01*
X148709799Y-103365271D01*
X148717712Y-103368794D01*
X148811113Y-103388647D01*
X148898056Y-103407128D01*
X148898061Y-103407128D01*
X148904513Y-103408500D01*
X149095487Y-103408500D01*
X149101939Y-103407128D01*
X149101944Y-103407128D01*
X149188888Y-103388647D01*
X149282288Y-103368794D01*
X149290201Y-103365271D01*
X149450722Y-103293803D01*
X149450724Y-103293802D01*
X149456752Y-103291118D01*
X149611253Y-103178866D01*
X149739040Y-103036944D01*
X149813197Y-102908500D01*
X149831223Y-102877279D01*
X149831224Y-102877278D01*
X149834527Y-102871556D01*
X149893542Y-102689928D01*
X149900773Y-102621134D01*
X149912814Y-102506565D01*
X149913504Y-102500000D01*
X149893542Y-102310072D01*
X149834527Y-102128444D01*
X149813990Y-102092872D01*
X149797314Y-102063990D01*
X149760370Y-102000000D01*
X160586496Y-102000000D01*
X160587186Y-102006565D01*
X160599492Y-102123646D01*
X160606458Y-102189928D01*
X160665473Y-102371556D01*
X160760960Y-102536944D01*
X160765378Y-102541851D01*
X160765379Y-102541852D01*
X160808667Y-102589928D01*
X160888747Y-102678866D01*
X161043248Y-102791118D01*
X161049276Y-102793802D01*
X161049278Y-102793803D01*
X161100560Y-102816635D01*
X161217712Y-102868794D01*
X161311112Y-102888647D01*
X161398056Y-102907128D01*
X161398061Y-102907128D01*
X161404513Y-102908500D01*
X161595487Y-102908500D01*
X161601939Y-102907128D01*
X161601944Y-102907128D01*
X161688887Y-102888647D01*
X161782288Y-102868794D01*
X161899440Y-102816635D01*
X161950722Y-102793803D01*
X161950724Y-102793802D01*
X161956752Y-102791118D01*
X162111253Y-102678866D01*
X162191333Y-102589928D01*
X162234621Y-102541852D01*
X162234622Y-102541851D01*
X162239040Y-102536944D01*
X162334527Y-102371556D01*
X162393542Y-102189928D01*
X162400509Y-102123646D01*
X162412814Y-102006565D01*
X162413504Y-102000000D01*
X162393542Y-101810072D01*
X162334527Y-101628444D01*
X162313990Y-101592872D01*
X162278398Y-101531226D01*
X162239040Y-101463056D01*
X162111253Y-101321134D01*
X161956752Y-101208882D01*
X161950724Y-101206198D01*
X161950722Y-101206197D01*
X161788319Y-101133891D01*
X161788318Y-101133891D01*
X161782288Y-101131206D01*
X161688888Y-101111353D01*
X161601944Y-101092872D01*
X161601939Y-101092872D01*
X161595487Y-101091500D01*
X161404513Y-101091500D01*
X161398061Y-101092872D01*
X161398056Y-101092872D01*
X161311112Y-101111353D01*
X161217712Y-101131206D01*
X161211682Y-101133891D01*
X161211681Y-101133891D01*
X161049278Y-101206197D01*
X161049276Y-101206198D01*
X161043248Y-101208882D01*
X160888747Y-101321134D01*
X160760960Y-101463056D01*
X160721602Y-101531226D01*
X160686011Y-101592872D01*
X160665473Y-101628444D01*
X160606458Y-101810072D01*
X160586496Y-102000000D01*
X149760370Y-102000000D01*
X149739040Y-101963056D01*
X149611253Y-101821134D01*
X149480375Y-101726045D01*
X149462094Y-101712763D01*
X149462093Y-101712762D01*
X149456752Y-101708882D01*
X149450724Y-101706198D01*
X149450722Y-101706197D01*
X149288319Y-101633891D01*
X149288318Y-101633891D01*
X149282288Y-101631206D01*
X149188887Y-101611353D01*
X149101944Y-101592872D01*
X149101939Y-101592872D01*
X149095487Y-101591500D01*
X148904513Y-101591500D01*
X148898061Y-101592872D01*
X148898056Y-101592872D01*
X148811113Y-101611353D01*
X148717712Y-101631206D01*
X148711682Y-101633891D01*
X148711681Y-101633891D01*
X148549278Y-101706197D01*
X148549276Y-101706198D01*
X148543248Y-101708882D01*
X148537907Y-101712762D01*
X148537906Y-101712763D01*
X148519625Y-101726045D01*
X148388747Y-101821134D01*
X148260960Y-101963056D01*
X148202686Y-102063990D01*
X148186011Y-102092872D01*
X148165473Y-102128444D01*
X148106458Y-102310072D01*
X148086496Y-102500000D01*
X135902994Y-102500000D01*
X135907393Y-102458148D01*
X135912814Y-102406565D01*
X135913504Y-102400000D01*
X135904052Y-102310072D01*
X135894232Y-102216635D01*
X135894232Y-102216633D01*
X135893542Y-102210072D01*
X135834527Y-102028444D01*
X135739040Y-101863056D01*
X135697243Y-101816635D01*
X135615675Y-101726045D01*
X135615674Y-101726044D01*
X135611253Y-101721134D01*
X135456752Y-101608882D01*
X135450724Y-101606198D01*
X135450722Y-101606197D01*
X135288319Y-101533891D01*
X135288318Y-101533891D01*
X135282288Y-101531206D01*
X135188887Y-101511353D01*
X135101944Y-101492872D01*
X135101939Y-101492872D01*
X135095487Y-101491500D01*
X134904513Y-101491500D01*
X134898061Y-101492872D01*
X134898056Y-101492872D01*
X134811113Y-101511353D01*
X134717712Y-101531206D01*
X134711682Y-101533891D01*
X134711681Y-101533891D01*
X134549278Y-101606197D01*
X134549276Y-101606198D01*
X134543248Y-101608882D01*
X134388747Y-101721134D01*
X134384326Y-101726044D01*
X134384325Y-101726045D01*
X134302758Y-101816635D01*
X134260960Y-101863056D01*
X134165473Y-102028444D01*
X134106458Y-102210072D01*
X134105768Y-102216633D01*
X134105768Y-102216635D01*
X134095948Y-102310072D01*
X134086496Y-102400000D01*
X130508000Y-102400000D01*
X130508000Y-101000000D01*
X150086496Y-101000000D01*
X150106458Y-101189928D01*
X150165473Y-101371556D01*
X150260960Y-101536944D01*
X150265378Y-101541851D01*
X150265379Y-101541852D01*
X150325733Y-101608882D01*
X150388747Y-101678866D01*
X150543248Y-101791118D01*
X150549276Y-101793802D01*
X150549278Y-101793803D01*
X150704824Y-101863056D01*
X150717712Y-101868794D01*
X150811112Y-101888647D01*
X150898056Y-101907128D01*
X150898061Y-101907128D01*
X150904513Y-101908500D01*
X151095487Y-101908500D01*
X151101939Y-101907128D01*
X151101944Y-101907128D01*
X151188888Y-101888647D01*
X151282288Y-101868794D01*
X151295176Y-101863056D01*
X151450722Y-101793803D01*
X151450724Y-101793802D01*
X151456752Y-101791118D01*
X151611253Y-101678866D01*
X151674267Y-101608882D01*
X151734621Y-101541852D01*
X151734622Y-101541851D01*
X151739040Y-101536944D01*
X151834527Y-101371556D01*
X151893542Y-101189928D01*
X151913504Y-101000000D01*
X151893542Y-100810072D01*
X151834527Y-100628444D01*
X151739040Y-100463056D01*
X151611253Y-100321134D01*
X151456752Y-100208882D01*
X151450724Y-100206198D01*
X151450722Y-100206197D01*
X151288319Y-100133891D01*
X151288318Y-100133891D01*
X151282288Y-100131206D01*
X151188887Y-100111353D01*
X151101944Y-100092872D01*
X151101939Y-100092872D01*
X151095487Y-100091500D01*
X150904513Y-100091500D01*
X150898061Y-100092872D01*
X150898056Y-100092872D01*
X150811113Y-100111353D01*
X150717712Y-100131206D01*
X150711682Y-100133891D01*
X150711681Y-100133891D01*
X150549278Y-100206197D01*
X150549276Y-100206198D01*
X150543248Y-100208882D01*
X150388747Y-100321134D01*
X150260960Y-100463056D01*
X150165473Y-100628444D01*
X150106458Y-100810072D01*
X150086496Y-101000000D01*
X130508000Y-101000000D01*
X130508000Y-99200000D01*
X146586496Y-99200000D01*
X146606458Y-99389928D01*
X146665473Y-99571556D01*
X146760960Y-99736944D01*
X146888747Y-99878866D01*
X147043248Y-99991118D01*
X147049276Y-99993802D01*
X147049278Y-99993803D01*
X147211681Y-100066109D01*
X147217712Y-100068794D01*
X147311113Y-100088647D01*
X147398056Y-100107128D01*
X147398061Y-100107128D01*
X147404513Y-100108500D01*
X147595487Y-100108500D01*
X147601939Y-100107128D01*
X147601944Y-100107128D01*
X147688888Y-100088647D01*
X147782288Y-100068794D01*
X147788319Y-100066109D01*
X147950722Y-99993803D01*
X147950724Y-99993802D01*
X147956752Y-99991118D01*
X148111253Y-99878866D01*
X148239040Y-99736944D01*
X148334527Y-99571556D01*
X148393542Y-99389928D01*
X148413504Y-99200000D01*
X151586496Y-99200000D01*
X151606458Y-99389928D01*
X151665473Y-99571556D01*
X151760960Y-99736944D01*
X151888747Y-99878866D01*
X152043248Y-99991118D01*
X152049276Y-99993802D01*
X152049278Y-99993803D01*
X152211681Y-100066109D01*
X152217712Y-100068794D01*
X152311113Y-100088647D01*
X152398056Y-100107128D01*
X152398061Y-100107128D01*
X152404513Y-100108500D01*
X152595487Y-100108500D01*
X152601939Y-100107128D01*
X152601944Y-100107128D01*
X152688888Y-100088647D01*
X152782288Y-100068794D01*
X152788319Y-100066109D01*
X152950722Y-99993803D01*
X152950724Y-99993802D01*
X152956752Y-99991118D01*
X153111253Y-99878866D01*
X153239040Y-99736944D01*
X153334527Y-99571556D01*
X153393542Y-99389928D01*
X153413504Y-99200000D01*
X153393542Y-99010072D01*
X153334527Y-98828444D01*
X153239040Y-98663056D01*
X153111253Y-98521134D01*
X152956752Y-98408882D01*
X152950724Y-98406198D01*
X152950722Y-98406197D01*
X152788319Y-98333891D01*
X152788318Y-98333891D01*
X152782288Y-98331206D01*
X152688887Y-98311353D01*
X152601944Y-98292872D01*
X152601939Y-98292872D01*
X152595487Y-98291500D01*
X152404513Y-98291500D01*
X152398061Y-98292872D01*
X152398056Y-98292872D01*
X152311113Y-98311353D01*
X152217712Y-98331206D01*
X152211682Y-98333891D01*
X152211681Y-98333891D01*
X152049278Y-98406197D01*
X152049276Y-98406198D01*
X152043248Y-98408882D01*
X151888747Y-98521134D01*
X151760960Y-98663056D01*
X151665473Y-98828444D01*
X151606458Y-99010072D01*
X151586496Y-99200000D01*
X148413504Y-99200000D01*
X148393542Y-99010072D01*
X148334527Y-98828444D01*
X148239040Y-98663056D01*
X148111253Y-98521134D01*
X147956752Y-98408882D01*
X147950724Y-98406198D01*
X147950722Y-98406197D01*
X147788319Y-98333891D01*
X147788318Y-98333891D01*
X147782288Y-98331206D01*
X147688887Y-98311353D01*
X147601944Y-98292872D01*
X147601939Y-98292872D01*
X147595487Y-98291500D01*
X147404513Y-98291500D01*
X147398061Y-98292872D01*
X147398056Y-98292872D01*
X147311113Y-98311353D01*
X147217712Y-98331206D01*
X147211682Y-98333891D01*
X147211681Y-98333891D01*
X147049278Y-98406197D01*
X147049276Y-98406198D01*
X147043248Y-98408882D01*
X146888747Y-98521134D01*
X146760960Y-98663056D01*
X146665473Y-98828444D01*
X146606458Y-99010072D01*
X146586496Y-99200000D01*
X130508000Y-99200000D01*
X130508000Y-97500000D01*
X136086496Y-97500000D01*
X136106458Y-97689928D01*
X136165473Y-97871556D01*
X136260960Y-98036944D01*
X136265378Y-98041851D01*
X136265379Y-98041852D01*
X136308667Y-98089928D01*
X136388747Y-98178866D01*
X136543248Y-98291118D01*
X136549276Y-98293802D01*
X136549278Y-98293803D01*
X136639318Y-98333891D01*
X136717712Y-98368794D01*
X136811113Y-98388647D01*
X136898056Y-98407128D01*
X136898061Y-98407128D01*
X136904513Y-98408500D01*
X137095487Y-98408500D01*
X137101939Y-98407128D01*
X137101944Y-98407128D01*
X137188887Y-98388647D01*
X137282288Y-98368794D01*
X137360682Y-98333891D01*
X137450722Y-98293803D01*
X137450724Y-98293802D01*
X137456752Y-98291118D01*
X137611253Y-98178866D01*
X137691333Y-98089928D01*
X137734621Y-98041852D01*
X137734622Y-98041851D01*
X137739040Y-98036944D01*
X137834527Y-97871556D01*
X137893542Y-97689928D01*
X137913504Y-97500000D01*
X139686496Y-97500000D01*
X139706458Y-97689928D01*
X139765473Y-97871556D01*
X139860960Y-98036944D01*
X139865378Y-98041851D01*
X139865379Y-98041852D01*
X139908667Y-98089928D01*
X139988747Y-98178866D01*
X140143248Y-98291118D01*
X140149276Y-98293802D01*
X140149278Y-98293803D01*
X140239318Y-98333891D01*
X140317712Y-98368794D01*
X140411113Y-98388647D01*
X140498056Y-98407128D01*
X140498061Y-98407128D01*
X140504513Y-98408500D01*
X140695487Y-98408500D01*
X140701939Y-98407128D01*
X140701944Y-98407128D01*
X140788887Y-98388647D01*
X140882288Y-98368794D01*
X140960682Y-98333891D01*
X141050722Y-98293803D01*
X141050724Y-98293802D01*
X141056752Y-98291118D01*
X141211253Y-98178866D01*
X141291333Y-98089928D01*
X141334621Y-98041852D01*
X141334622Y-98041851D01*
X141339040Y-98036944D01*
X141418105Y-97900000D01*
X158186496Y-97900000D01*
X158206458Y-98089928D01*
X158265473Y-98271556D01*
X158360960Y-98436944D01*
X158488747Y-98578866D01*
X158643248Y-98691118D01*
X158649276Y-98693802D01*
X158649278Y-98693803D01*
X158811681Y-98766109D01*
X158817712Y-98768794D01*
X158911113Y-98788647D01*
X158998056Y-98807128D01*
X158998061Y-98807128D01*
X159004513Y-98808500D01*
X159195487Y-98808500D01*
X159201939Y-98807128D01*
X159201944Y-98807128D01*
X159288888Y-98788647D01*
X159382288Y-98768794D01*
X159388319Y-98766109D01*
X159550722Y-98693803D01*
X159550724Y-98693802D01*
X159556752Y-98691118D01*
X159711253Y-98578866D01*
X159839040Y-98436944D01*
X159934527Y-98271556D01*
X159993542Y-98089928D01*
X160013504Y-97900000D01*
X159993542Y-97710072D01*
X159934527Y-97528444D01*
X159839040Y-97363056D01*
X159797243Y-97316635D01*
X159715675Y-97226045D01*
X159715674Y-97226044D01*
X159711253Y-97221134D01*
X159556752Y-97108882D01*
X159550724Y-97106198D01*
X159550722Y-97106197D01*
X159388319Y-97033891D01*
X159388318Y-97033891D01*
X159382288Y-97031206D01*
X159288888Y-97011353D01*
X159201944Y-96992872D01*
X159201939Y-96992872D01*
X159195487Y-96991500D01*
X159004513Y-96991500D01*
X158998061Y-96992872D01*
X158998056Y-96992872D01*
X158911113Y-97011353D01*
X158817712Y-97031206D01*
X158811682Y-97033891D01*
X158811681Y-97033891D01*
X158649278Y-97106197D01*
X158649276Y-97106198D01*
X158643248Y-97108882D01*
X158488747Y-97221134D01*
X158484326Y-97226044D01*
X158484325Y-97226045D01*
X158402758Y-97316635D01*
X158360960Y-97363056D01*
X158265473Y-97528444D01*
X158206458Y-97710072D01*
X158186496Y-97900000D01*
X141418105Y-97900000D01*
X141434527Y-97871556D01*
X141493542Y-97689928D01*
X141513504Y-97500000D01*
X141493542Y-97310072D01*
X141434527Y-97128444D01*
X141339040Y-96963056D01*
X141211253Y-96821134D01*
X141056752Y-96708882D01*
X141050724Y-96706198D01*
X141050722Y-96706197D01*
X140888319Y-96633891D01*
X140888318Y-96633891D01*
X140882288Y-96631206D01*
X140788888Y-96611353D01*
X140701944Y-96592872D01*
X140701939Y-96592872D01*
X140695487Y-96591500D01*
X140504513Y-96591500D01*
X140498061Y-96592872D01*
X140498056Y-96592872D01*
X140411112Y-96611353D01*
X140317712Y-96631206D01*
X140311682Y-96633891D01*
X140311681Y-96633891D01*
X140149278Y-96706197D01*
X140149276Y-96706198D01*
X140143248Y-96708882D01*
X139988747Y-96821134D01*
X139860960Y-96963056D01*
X139765473Y-97128444D01*
X139706458Y-97310072D01*
X139686496Y-97500000D01*
X137913504Y-97500000D01*
X137893542Y-97310072D01*
X137834527Y-97128444D01*
X137739040Y-96963056D01*
X137611253Y-96821134D01*
X137456752Y-96708882D01*
X137450724Y-96706198D01*
X137450722Y-96706197D01*
X137288319Y-96633891D01*
X137288318Y-96633891D01*
X137282288Y-96631206D01*
X137188888Y-96611353D01*
X137101944Y-96592872D01*
X137101939Y-96592872D01*
X137095487Y-96591500D01*
X136904513Y-96591500D01*
X136898061Y-96592872D01*
X136898056Y-96592872D01*
X136811112Y-96611353D01*
X136717712Y-96631206D01*
X136711682Y-96633891D01*
X136711681Y-96633891D01*
X136549278Y-96706197D01*
X136549276Y-96706198D01*
X136543248Y-96708882D01*
X136388747Y-96821134D01*
X136260960Y-96963056D01*
X136165473Y-97128444D01*
X136106458Y-97310072D01*
X136086496Y-97500000D01*
X130508000Y-97500000D01*
X130508000Y-95900000D01*
X131086496Y-95900000D01*
X131106458Y-96089928D01*
X131165473Y-96271556D01*
X131260960Y-96436944D01*
X131265378Y-96441851D01*
X131265379Y-96441852D01*
X131355419Y-96541852D01*
X131388747Y-96578866D01*
X131458898Y-96629834D01*
X131526385Y-96678866D01*
X131543248Y-96691118D01*
X131549276Y-96693802D01*
X131549278Y-96693803D01*
X131711681Y-96766109D01*
X131717712Y-96768794D01*
X131804479Y-96787237D01*
X131898056Y-96807128D01*
X131898061Y-96807128D01*
X131904513Y-96808500D01*
X132095487Y-96808500D01*
X132101939Y-96807128D01*
X132101944Y-96807128D01*
X132195521Y-96787237D01*
X132282288Y-96768794D01*
X132288319Y-96766109D01*
X132450722Y-96693803D01*
X132450724Y-96693802D01*
X132456752Y-96691118D01*
X132473616Y-96678866D01*
X132541102Y-96629834D01*
X132611253Y-96578866D01*
X132644581Y-96541852D01*
X132734621Y-96441852D01*
X132734622Y-96441851D01*
X132739040Y-96436944D01*
X132834527Y-96271556D01*
X132893542Y-96089928D01*
X132913504Y-95900000D01*
X132904052Y-95810072D01*
X132894232Y-95716635D01*
X132894232Y-95716633D01*
X132893542Y-95710072D01*
X132834527Y-95528444D01*
X132818105Y-95500000D01*
X146586496Y-95500000D01*
X146587186Y-95506565D01*
X146593500Y-95566635D01*
X146606458Y-95689928D01*
X146665473Y-95871556D01*
X146760960Y-96036944D01*
X146765378Y-96041851D01*
X146765379Y-96041852D01*
X146808667Y-96089928D01*
X146888747Y-96178866D01*
X147043248Y-96291118D01*
X147049276Y-96293802D01*
X147049278Y-96293803D01*
X147209799Y-96365271D01*
X147217712Y-96368794D01*
X147311113Y-96388647D01*
X147398056Y-96407128D01*
X147398061Y-96407128D01*
X147404513Y-96408500D01*
X147595487Y-96408500D01*
X147601939Y-96407128D01*
X147601944Y-96407128D01*
X147688887Y-96388647D01*
X147782288Y-96368794D01*
X147790201Y-96365271D01*
X147950722Y-96293803D01*
X147950724Y-96293802D01*
X147956752Y-96291118D01*
X148111253Y-96178866D01*
X148191333Y-96089928D01*
X148234621Y-96041852D01*
X148234622Y-96041851D01*
X148239040Y-96036944D01*
X148334527Y-95871556D01*
X148374023Y-95750000D01*
X148836496Y-95750000D01*
X148837186Y-95756565D01*
X148843500Y-95816635D01*
X148856458Y-95939928D01*
X148915473Y-96121556D01*
X149010960Y-96286944D01*
X149138747Y-96428866D01*
X149293248Y-96541118D01*
X149299276Y-96543802D01*
X149299278Y-96543803D01*
X149386753Y-96582749D01*
X149467712Y-96618794D01*
X149561113Y-96638647D01*
X149648056Y-96657128D01*
X149648061Y-96657128D01*
X149654513Y-96658500D01*
X149845487Y-96658500D01*
X149851939Y-96657128D01*
X149851944Y-96657128D01*
X149938888Y-96638647D01*
X150032288Y-96618794D01*
X150113247Y-96582749D01*
X150200722Y-96543803D01*
X150200724Y-96543802D01*
X150206752Y-96541118D01*
X150361253Y-96428866D01*
X150489040Y-96286944D01*
X150584527Y-96121556D01*
X150624023Y-96000000D01*
X160586496Y-96000000D01*
X160587186Y-96006565D01*
X160596608Y-96096206D01*
X160606458Y-96189928D01*
X160665473Y-96371556D01*
X160668776Y-96377278D01*
X160668777Y-96377279D01*
X160686803Y-96408500D01*
X160760960Y-96536944D01*
X160888747Y-96678866D01*
X161043248Y-96791118D01*
X161049276Y-96793802D01*
X161049278Y-96793803D01*
X161211681Y-96866109D01*
X161217712Y-96868794D01*
X161311112Y-96888647D01*
X161398056Y-96907128D01*
X161398061Y-96907128D01*
X161404513Y-96908500D01*
X161595487Y-96908500D01*
X161601939Y-96907128D01*
X161601944Y-96907128D01*
X161688888Y-96888647D01*
X161782288Y-96868794D01*
X161788319Y-96866109D01*
X161950722Y-96793803D01*
X161950724Y-96793802D01*
X161956752Y-96791118D01*
X162111253Y-96678866D01*
X162239040Y-96536944D01*
X162313197Y-96408500D01*
X162331223Y-96377279D01*
X162331224Y-96377278D01*
X162334527Y-96371556D01*
X162393542Y-96189928D01*
X162403393Y-96096206D01*
X162412814Y-96006565D01*
X162413504Y-96000000D01*
X162407190Y-95939928D01*
X162394232Y-95816635D01*
X162394232Y-95816633D01*
X162393542Y-95810072D01*
X162334527Y-95628444D01*
X162239040Y-95463056D01*
X162160810Y-95376172D01*
X162115675Y-95326045D01*
X162115674Y-95326044D01*
X162111253Y-95321134D01*
X161980375Y-95226045D01*
X161962094Y-95212763D01*
X161962093Y-95212762D01*
X161956752Y-95208882D01*
X161950724Y-95206198D01*
X161950722Y-95206197D01*
X161788319Y-95133891D01*
X161788318Y-95133891D01*
X161782288Y-95131206D01*
X161688888Y-95111353D01*
X161601944Y-95092872D01*
X161601939Y-95092872D01*
X161595487Y-95091500D01*
X161404513Y-95091500D01*
X161398061Y-95092872D01*
X161398056Y-95092872D01*
X161311112Y-95111353D01*
X161217712Y-95131206D01*
X161211682Y-95133891D01*
X161211681Y-95133891D01*
X161049278Y-95206197D01*
X161049276Y-95206198D01*
X161043248Y-95208882D01*
X161037907Y-95212762D01*
X161037906Y-95212763D01*
X161019625Y-95226045D01*
X160888747Y-95321134D01*
X160884326Y-95326044D01*
X160884325Y-95326045D01*
X160839191Y-95376172D01*
X160760960Y-95463056D01*
X160665473Y-95628444D01*
X160606458Y-95810072D01*
X160605768Y-95816633D01*
X160605768Y-95816635D01*
X160592810Y-95939928D01*
X160586496Y-96000000D01*
X150624023Y-96000000D01*
X150643542Y-95939928D01*
X150656501Y-95816635D01*
X150662814Y-95756565D01*
X150663504Y-95750000D01*
X150657190Y-95689928D01*
X150644232Y-95566635D01*
X150644232Y-95566633D01*
X150643542Y-95560072D01*
X150584527Y-95378444D01*
X150489040Y-95213056D01*
X150395242Y-95108882D01*
X150365675Y-95076045D01*
X150365674Y-95076044D01*
X150361253Y-95071134D01*
X150206752Y-94958882D01*
X150200724Y-94956198D01*
X150200722Y-94956197D01*
X150038319Y-94883891D01*
X150038318Y-94883891D01*
X150032288Y-94881206D01*
X149938887Y-94861353D01*
X149851944Y-94842872D01*
X149851939Y-94842872D01*
X149845487Y-94841500D01*
X149654513Y-94841500D01*
X149648061Y-94842872D01*
X149648056Y-94842872D01*
X149561113Y-94861353D01*
X149467712Y-94881206D01*
X149461682Y-94883891D01*
X149461681Y-94883891D01*
X149299278Y-94956197D01*
X149299276Y-94956198D01*
X149293248Y-94958882D01*
X149138747Y-95071134D01*
X149134326Y-95076044D01*
X149134325Y-95076045D01*
X149104759Y-95108882D01*
X149010960Y-95213056D01*
X148915473Y-95378444D01*
X148856458Y-95560072D01*
X148855768Y-95566633D01*
X148855768Y-95566635D01*
X148842810Y-95689928D01*
X148836496Y-95750000D01*
X148374023Y-95750000D01*
X148393542Y-95689928D01*
X148406501Y-95566635D01*
X148412814Y-95506565D01*
X148413504Y-95500000D01*
X148393542Y-95310072D01*
X148334527Y-95128444D01*
X148307500Y-95081632D01*
X148290763Y-95012637D01*
X148313984Y-94945545D01*
X148369791Y-94901658D01*
X148442817Y-94895386D01*
X148498056Y-94907128D01*
X148498061Y-94907128D01*
X148504513Y-94908500D01*
X148695487Y-94908500D01*
X148701939Y-94907128D01*
X148701944Y-94907128D01*
X148788887Y-94888647D01*
X148882288Y-94868794D01*
X148943592Y-94841500D01*
X149050722Y-94793803D01*
X149050724Y-94793802D01*
X149056752Y-94791118D01*
X149211253Y-94678866D01*
X149339040Y-94536944D01*
X149434527Y-94371556D01*
X149493542Y-94189928D01*
X149495294Y-94173264D01*
X149512814Y-94006565D01*
X149513504Y-94000000D01*
X153286496Y-94000000D01*
X153287186Y-94006565D01*
X153304707Y-94173264D01*
X153306458Y-94189928D01*
X153365473Y-94371556D01*
X153460960Y-94536944D01*
X153588747Y-94678866D01*
X153743248Y-94791118D01*
X153749276Y-94793802D01*
X153749278Y-94793803D01*
X153856408Y-94841500D01*
X153917712Y-94868794D01*
X154011112Y-94888647D01*
X154098056Y-94907128D01*
X154098061Y-94907128D01*
X154104513Y-94908500D01*
X154295487Y-94908500D01*
X154301939Y-94907128D01*
X154301944Y-94907128D01*
X154388887Y-94888647D01*
X154482288Y-94868794D01*
X154543592Y-94841500D01*
X154650722Y-94793803D01*
X154650724Y-94793802D01*
X154656752Y-94791118D01*
X154811253Y-94678866D01*
X154939040Y-94536944D01*
X155034527Y-94371556D01*
X155093542Y-94189928D01*
X155095294Y-94173264D01*
X155112814Y-94006565D01*
X155113504Y-94000000D01*
X155093542Y-93810072D01*
X155034527Y-93628444D01*
X155028731Y-93618404D01*
X154978563Y-93531512D01*
X154939040Y-93463056D01*
X154898780Y-93418342D01*
X154815675Y-93326045D01*
X154815674Y-93326044D01*
X154811253Y-93321134D01*
X154681835Y-93227106D01*
X154662094Y-93212763D01*
X154662093Y-93212762D01*
X154656752Y-93208882D01*
X154650724Y-93206198D01*
X154650722Y-93206197D01*
X154488319Y-93133891D01*
X154488318Y-93133891D01*
X154482288Y-93131206D01*
X154388888Y-93111353D01*
X154301944Y-93092872D01*
X154301939Y-93092872D01*
X154295487Y-93091500D01*
X154104513Y-93091500D01*
X154098061Y-93092872D01*
X154098056Y-93092872D01*
X154011112Y-93111353D01*
X153917712Y-93131206D01*
X153911682Y-93133891D01*
X153911681Y-93133891D01*
X153749278Y-93206197D01*
X153749276Y-93206198D01*
X153743248Y-93208882D01*
X153737907Y-93212762D01*
X153737906Y-93212763D01*
X153718165Y-93227106D01*
X153588747Y-93321134D01*
X153584326Y-93326044D01*
X153584325Y-93326045D01*
X153501221Y-93418342D01*
X153460960Y-93463056D01*
X153421437Y-93531512D01*
X153371270Y-93618404D01*
X153365473Y-93628444D01*
X153306458Y-93810072D01*
X153286496Y-94000000D01*
X149513504Y-94000000D01*
X149493542Y-93810072D01*
X149434527Y-93628444D01*
X149428731Y-93618404D01*
X149378563Y-93531512D01*
X149339040Y-93463056D01*
X149298780Y-93418342D01*
X149215675Y-93326045D01*
X149215674Y-93326044D01*
X149211253Y-93321134D01*
X149081835Y-93227106D01*
X149062094Y-93212763D01*
X149062093Y-93212762D01*
X149056752Y-93208882D01*
X149050724Y-93206198D01*
X149050722Y-93206197D01*
X148888319Y-93133891D01*
X148888318Y-93133891D01*
X148882288Y-93131206D01*
X148788888Y-93111353D01*
X148701944Y-93092872D01*
X148701939Y-93092872D01*
X148695487Y-93091500D01*
X148504513Y-93091500D01*
X148498061Y-93092872D01*
X148498056Y-93092872D01*
X148411112Y-93111353D01*
X148317712Y-93131206D01*
X148311682Y-93133891D01*
X148311681Y-93133891D01*
X148149278Y-93206197D01*
X148149276Y-93206198D01*
X148143248Y-93208882D01*
X148137907Y-93212762D01*
X148137906Y-93212763D01*
X148118165Y-93227106D01*
X147988747Y-93321134D01*
X147984326Y-93326044D01*
X147984325Y-93326045D01*
X147901221Y-93418342D01*
X147860960Y-93463056D01*
X147821437Y-93531512D01*
X147771270Y-93618404D01*
X147765473Y-93628444D01*
X147706458Y-93810072D01*
X147686496Y-94000000D01*
X147687186Y-94006565D01*
X147704707Y-94173264D01*
X147706458Y-94189928D01*
X147765473Y-94371556D01*
X147790921Y-94415633D01*
X147792500Y-94418368D01*
X147809237Y-94487363D01*
X147786016Y-94554455D01*
X147730209Y-94598342D01*
X147657183Y-94604614D01*
X147601944Y-94592872D01*
X147601939Y-94592872D01*
X147595487Y-94591500D01*
X147404513Y-94591500D01*
X147398061Y-94592872D01*
X147398056Y-94592872D01*
X147311113Y-94611353D01*
X147217712Y-94631206D01*
X147211682Y-94633891D01*
X147211681Y-94633891D01*
X147049278Y-94706197D01*
X147049276Y-94706198D01*
X147043248Y-94708882D01*
X146888747Y-94821134D01*
X146760960Y-94963056D01*
X146720063Y-95033891D01*
X146686011Y-95092872D01*
X146665473Y-95128444D01*
X146606458Y-95310072D01*
X146586496Y-95500000D01*
X132818105Y-95500000D01*
X132739040Y-95363056D01*
X132697243Y-95316635D01*
X132615675Y-95226045D01*
X132615674Y-95226044D01*
X132611253Y-95221134D01*
X132512157Y-95149136D01*
X132462094Y-95112763D01*
X132462093Y-95112762D01*
X132456752Y-95108882D01*
X132450724Y-95106198D01*
X132450722Y-95106197D01*
X132288319Y-95033891D01*
X132288318Y-95033891D01*
X132282288Y-95031206D01*
X132188888Y-95011353D01*
X132101944Y-94992872D01*
X132101939Y-94992872D01*
X132095487Y-94991500D01*
X131904513Y-94991500D01*
X131898061Y-94992872D01*
X131898056Y-94992872D01*
X131811112Y-95011353D01*
X131717712Y-95031206D01*
X131711682Y-95033891D01*
X131711681Y-95033891D01*
X131549278Y-95106197D01*
X131549276Y-95106198D01*
X131543248Y-95108882D01*
X131537907Y-95112762D01*
X131537906Y-95112763D01*
X131487843Y-95149136D01*
X131388747Y-95221134D01*
X131384326Y-95226044D01*
X131384325Y-95226045D01*
X131302758Y-95316635D01*
X131260960Y-95363056D01*
X131165473Y-95528444D01*
X131106458Y-95710072D01*
X131105768Y-95716633D01*
X131105768Y-95716635D01*
X131095948Y-95810072D01*
X131086496Y-95900000D01*
X130508000Y-95900000D01*
X130508000Y-95376172D01*
X130531239Y-95303260D01*
X130650412Y-95135301D01*
X130659216Y-95124260D01*
X130873966Y-94883955D01*
X130883956Y-94873965D01*
X130920284Y-94841500D01*
X131124260Y-94659216D01*
X131135301Y-94650412D01*
X131303260Y-94531239D01*
X131376172Y-94508000D01*
X136291298Y-94508000D01*
X136292069Y-94508002D01*
X136369652Y-94508476D01*
X136378281Y-94506010D01*
X136378286Y-94506009D01*
X136398048Y-94500361D01*
X136414809Y-94496783D01*
X136435152Y-94493870D01*
X136435162Y-94493867D01*
X136444045Y-94492595D01*
X136467395Y-94481979D01*
X136484907Y-94475536D01*
X136500937Y-94470954D01*
X136509565Y-94468488D01*
X136534548Y-94452726D01*
X136549614Y-94444596D01*
X136576510Y-94432367D01*
X136595939Y-94415626D01*
X136610947Y-94404521D01*
X136625039Y-94395630D01*
X136632631Y-94390840D01*
X136652182Y-94368703D01*
X136664374Y-94356659D01*
X136679949Y-94343239D01*
X136679950Y-94343237D01*
X136686747Y-94337381D01*
X136691626Y-94329853D01*
X136691629Y-94329850D01*
X136700696Y-94315861D01*
X136711986Y-94300987D01*
X136723012Y-94288502D01*
X136728956Y-94281772D01*
X136741510Y-94255034D01*
X136749824Y-94240065D01*
X136765893Y-94215273D01*
X136773239Y-94190709D01*
X136779901Y-94173264D01*
X136786983Y-94158179D01*
X136790799Y-94150052D01*
X136795343Y-94120870D01*
X136799126Y-94104151D01*
X136805014Y-94084464D01*
X136805015Y-94084461D01*
X136807587Y-94075859D01*
X136807797Y-94041444D01*
X136807830Y-94040672D01*
X136808000Y-94039577D01*
X136808000Y-94008702D01*
X136808002Y-94007932D01*
X136808452Y-93934284D01*
X136808452Y-93934283D01*
X136808476Y-93930348D01*
X136808092Y-93929004D01*
X136808000Y-93927659D01*
X136808000Y-93700000D01*
X137886496Y-93700000D01*
X137887186Y-93706565D01*
X137898926Y-93818261D01*
X137906458Y-93889928D01*
X137965473Y-94071556D01*
X138060960Y-94236944D01*
X138065378Y-94241851D01*
X138065379Y-94241852D01*
X138124945Y-94308007D01*
X138188747Y-94378866D01*
X138243117Y-94418368D01*
X138312101Y-94468488D01*
X138343248Y-94491118D01*
X138349276Y-94493802D01*
X138349278Y-94493803D01*
X138446175Y-94536944D01*
X138517712Y-94568794D01*
X138611112Y-94588647D01*
X138698056Y-94607128D01*
X138698061Y-94607128D01*
X138704513Y-94608500D01*
X138895487Y-94608500D01*
X138901939Y-94607128D01*
X138901944Y-94607128D01*
X138988887Y-94588647D01*
X139082288Y-94568794D01*
X139153825Y-94536944D01*
X139250722Y-94493803D01*
X139250724Y-94493802D01*
X139256752Y-94491118D01*
X139287900Y-94468488D01*
X139356883Y-94418368D01*
X139411253Y-94378866D01*
X139475055Y-94308007D01*
X139534621Y-94241852D01*
X139534622Y-94241851D01*
X139539040Y-94236944D01*
X139542341Y-94231226D01*
X139546224Y-94225882D01*
X139547878Y-94227084D01*
X139592259Y-94184764D01*
X139661972Y-94171325D01*
X139727884Y-94197709D01*
X139752868Y-94226542D01*
X139753776Y-94225882D01*
X139757659Y-94231226D01*
X139760960Y-94236944D01*
X139765378Y-94241851D01*
X139765379Y-94241852D01*
X139824945Y-94308007D01*
X139888747Y-94378866D01*
X139943117Y-94418368D01*
X140012101Y-94468488D01*
X140043248Y-94491118D01*
X140049276Y-94493802D01*
X140049278Y-94493803D01*
X140146175Y-94536944D01*
X140217712Y-94568794D01*
X140311112Y-94588647D01*
X140398056Y-94607128D01*
X140398061Y-94607128D01*
X140404513Y-94608500D01*
X140595487Y-94608500D01*
X140601939Y-94607128D01*
X140601944Y-94607128D01*
X140688887Y-94588647D01*
X140782288Y-94568794D01*
X140853825Y-94536944D01*
X140950722Y-94493803D01*
X140950724Y-94493802D01*
X140956752Y-94491118D01*
X140987900Y-94468488D01*
X141056883Y-94418368D01*
X141111253Y-94378866D01*
X141175055Y-94308007D01*
X141234621Y-94241852D01*
X141234622Y-94241851D01*
X141239040Y-94236944D01*
X141334527Y-94071556D01*
X141393542Y-93889928D01*
X141401075Y-93818261D01*
X141412814Y-93706565D01*
X141413504Y-93700000D01*
X141404928Y-93618404D01*
X141394232Y-93516635D01*
X141394232Y-93516633D01*
X141393542Y-93510072D01*
X141334527Y-93328444D01*
X141239040Y-93163056D01*
X141194458Y-93113542D01*
X141115675Y-93026045D01*
X141115674Y-93026044D01*
X141111253Y-93021134D01*
X140956752Y-92908882D01*
X140950724Y-92906198D01*
X140950722Y-92906197D01*
X140936803Y-92900000D01*
X164186496Y-92900000D01*
X164187186Y-92906565D01*
X164200855Y-93036614D01*
X164206458Y-93089928D01*
X164265473Y-93271556D01*
X164268776Y-93277278D01*
X164268777Y-93277279D01*
X164272362Y-93283488D01*
X164360960Y-93436944D01*
X164365378Y-93441851D01*
X164365379Y-93441852D01*
X164421152Y-93503794D01*
X164488747Y-93578866D01*
X164643248Y-93691118D01*
X164649276Y-93693802D01*
X164649278Y-93693803D01*
X164704138Y-93718228D01*
X164817712Y-93768794D01*
X164911112Y-93788647D01*
X164998056Y-93807128D01*
X164998061Y-93807128D01*
X165004513Y-93808500D01*
X165195487Y-93808500D01*
X165201939Y-93807128D01*
X165201944Y-93807128D01*
X165288888Y-93788647D01*
X165382288Y-93768794D01*
X165495862Y-93718228D01*
X165550722Y-93693803D01*
X165550724Y-93693802D01*
X165556752Y-93691118D01*
X165711253Y-93578866D01*
X165737561Y-93549648D01*
X165798007Y-93512408D01*
X165868991Y-93513760D01*
X165927975Y-93553273D01*
X165956233Y-93618404D01*
X165951030Y-93672894D01*
X165944356Y-93693435D01*
X165906458Y-93810072D01*
X165886496Y-94000000D01*
X165887186Y-94006565D01*
X165904707Y-94173264D01*
X165906458Y-94189928D01*
X165965473Y-94371556D01*
X166060960Y-94536944D01*
X166188747Y-94678866D01*
X166343248Y-94791118D01*
X166349276Y-94793802D01*
X166349278Y-94793803D01*
X166456408Y-94841500D01*
X166517712Y-94868794D01*
X166611112Y-94888647D01*
X166698056Y-94907128D01*
X166698061Y-94907128D01*
X166704513Y-94908500D01*
X166895487Y-94908500D01*
X166901939Y-94907128D01*
X166901944Y-94907128D01*
X166988887Y-94888647D01*
X167082288Y-94868794D01*
X167143592Y-94841500D01*
X167250722Y-94793803D01*
X167250724Y-94793802D01*
X167256752Y-94791118D01*
X167411253Y-94678866D01*
X167539040Y-94536944D01*
X167634527Y-94371556D01*
X167693542Y-94189928D01*
X167695294Y-94173264D01*
X167712814Y-94006565D01*
X167713504Y-94000000D01*
X167693542Y-93810072D01*
X167634527Y-93628444D01*
X167628731Y-93618404D01*
X167578563Y-93531512D01*
X167539040Y-93463056D01*
X167498780Y-93418342D01*
X167415675Y-93326045D01*
X167415674Y-93326044D01*
X167411253Y-93321134D01*
X167281835Y-93227106D01*
X167262094Y-93212763D01*
X167262093Y-93212762D01*
X167256752Y-93208882D01*
X167250724Y-93206198D01*
X167250722Y-93206197D01*
X167088319Y-93133891D01*
X167088318Y-93133891D01*
X167082288Y-93131206D01*
X166988888Y-93111353D01*
X166901944Y-93092872D01*
X166901939Y-93092872D01*
X166895487Y-93091500D01*
X166704513Y-93091500D01*
X166698061Y-93092872D01*
X166698056Y-93092872D01*
X166611112Y-93111353D01*
X166517712Y-93131206D01*
X166511682Y-93133891D01*
X166511681Y-93133891D01*
X166349278Y-93206197D01*
X166349276Y-93206198D01*
X166343248Y-93208882D01*
X166337907Y-93212762D01*
X166337906Y-93212763D01*
X166318165Y-93227106D01*
X166188747Y-93321134D01*
X166184326Y-93326044D01*
X166184325Y-93326045D01*
X166162439Y-93350352D01*
X166101993Y-93387592D01*
X166031009Y-93386240D01*
X165972025Y-93346727D01*
X165943767Y-93281596D01*
X165948970Y-93227106D01*
X165991502Y-93096206D01*
X165993542Y-93089928D01*
X165999146Y-93036614D01*
X166012814Y-92906565D01*
X166013504Y-92900000D01*
X165993542Y-92710072D01*
X165934527Y-92528444D01*
X165839040Y-92363056D01*
X165711253Y-92221134D01*
X165556752Y-92108882D01*
X165550724Y-92106198D01*
X165550722Y-92106197D01*
X165388319Y-92033891D01*
X165388318Y-92033891D01*
X165382288Y-92031206D01*
X165288887Y-92011353D01*
X165201944Y-91992872D01*
X165201939Y-91992872D01*
X165195487Y-91991500D01*
X165004513Y-91991500D01*
X164998061Y-91992872D01*
X164998056Y-91992872D01*
X164911113Y-92011353D01*
X164817712Y-92031206D01*
X164811682Y-92033891D01*
X164811681Y-92033891D01*
X164649278Y-92106197D01*
X164649276Y-92106198D01*
X164643248Y-92108882D01*
X164488747Y-92221134D01*
X164360960Y-92363056D01*
X164265473Y-92528444D01*
X164206458Y-92710072D01*
X164186496Y-92900000D01*
X140936803Y-92900000D01*
X140788319Y-92833891D01*
X140788318Y-92833891D01*
X140782288Y-92831206D01*
X140688887Y-92811353D01*
X140601944Y-92792872D01*
X140601939Y-92792872D01*
X140595487Y-92791500D01*
X140404513Y-92791500D01*
X140398061Y-92792872D01*
X140398056Y-92792872D01*
X140311112Y-92811353D01*
X140217712Y-92831206D01*
X140211682Y-92833891D01*
X140211681Y-92833891D01*
X140049278Y-92906197D01*
X140049276Y-92906198D01*
X140043248Y-92908882D01*
X139888747Y-93021134D01*
X139884326Y-93026044D01*
X139884325Y-93026045D01*
X139805543Y-93113542D01*
X139760960Y-93163056D01*
X139757659Y-93168774D01*
X139753776Y-93174118D01*
X139752122Y-93172916D01*
X139707741Y-93215236D01*
X139638028Y-93228675D01*
X139572116Y-93202291D01*
X139547132Y-93173458D01*
X139546224Y-93174118D01*
X139542341Y-93168774D01*
X139539040Y-93163056D01*
X139494458Y-93113542D01*
X139415675Y-93026045D01*
X139415674Y-93026044D01*
X139411253Y-93021134D01*
X139256752Y-92908882D01*
X139250724Y-92906198D01*
X139250722Y-92906197D01*
X139088319Y-92833891D01*
X139088318Y-92833891D01*
X139082288Y-92831206D01*
X138988887Y-92811353D01*
X138901944Y-92792872D01*
X138901939Y-92792872D01*
X138895487Y-92791500D01*
X138704513Y-92791500D01*
X138698061Y-92792872D01*
X138698056Y-92792872D01*
X138611112Y-92811353D01*
X138517712Y-92831206D01*
X138511682Y-92833891D01*
X138511681Y-92833891D01*
X138349278Y-92906197D01*
X138349276Y-92906198D01*
X138343248Y-92908882D01*
X138188747Y-93021134D01*
X138184326Y-93026044D01*
X138184325Y-93026045D01*
X138105543Y-93113542D01*
X138060960Y-93163056D01*
X137965473Y-93328444D01*
X137906458Y-93510072D01*
X137905768Y-93516633D01*
X137905768Y-93516635D01*
X137895072Y-93618404D01*
X137886496Y-93700000D01*
X136808000Y-93700000D01*
X136808000Y-90900000D01*
X152986496Y-90900000D01*
X153006458Y-91089928D01*
X153065473Y-91271556D01*
X153160960Y-91436944D01*
X153288747Y-91578866D01*
X153443248Y-91691118D01*
X153449276Y-91693802D01*
X153449278Y-91693803D01*
X153611681Y-91766109D01*
X153617712Y-91768794D01*
X153711112Y-91788647D01*
X153798056Y-91807128D01*
X153798061Y-91807128D01*
X153804513Y-91808500D01*
X153995487Y-91808500D01*
X154001939Y-91807128D01*
X154001944Y-91807128D01*
X154088887Y-91788647D01*
X154182288Y-91768794D01*
X154188319Y-91766109D01*
X154350722Y-91693803D01*
X154350724Y-91693802D01*
X154356752Y-91691118D01*
X154511253Y-91578866D01*
X154639040Y-91436944D01*
X154734527Y-91271556D01*
X154793542Y-91089928D01*
X154813504Y-90900000D01*
X154793542Y-90710072D01*
X154734527Y-90528444D01*
X154639040Y-90363056D01*
X154511253Y-90221134D01*
X154356752Y-90108882D01*
X154350724Y-90106198D01*
X154350722Y-90106197D01*
X154188319Y-90033891D01*
X154188318Y-90033891D01*
X154182288Y-90031206D01*
X154088887Y-90011353D01*
X154001944Y-89992872D01*
X154001939Y-89992872D01*
X153995487Y-89991500D01*
X153804513Y-89991500D01*
X153798061Y-89992872D01*
X153798056Y-89992872D01*
X153711112Y-90011353D01*
X153617712Y-90031206D01*
X153611682Y-90033891D01*
X153611681Y-90033891D01*
X153449278Y-90106197D01*
X153449276Y-90106198D01*
X153443248Y-90108882D01*
X153288747Y-90221134D01*
X153160960Y-90363056D01*
X153065473Y-90528444D01*
X153006458Y-90710072D01*
X152986496Y-90900000D01*
X136808000Y-90900000D01*
X136808000Y-88700000D01*
X164086496Y-88700000D01*
X164106458Y-88889928D01*
X164165473Y-89071556D01*
X164260960Y-89236944D01*
X164388747Y-89378866D01*
X164543248Y-89491118D01*
X164549276Y-89493802D01*
X164549278Y-89493803D01*
X164711681Y-89566109D01*
X164717712Y-89568794D01*
X164811112Y-89588647D01*
X164898056Y-89607128D01*
X164898061Y-89607128D01*
X164904513Y-89608500D01*
X165095487Y-89608500D01*
X165101939Y-89607128D01*
X165101944Y-89607128D01*
X165188888Y-89588647D01*
X165282288Y-89568794D01*
X165288319Y-89566109D01*
X165450722Y-89493803D01*
X165450724Y-89493802D01*
X165456752Y-89491118D01*
X165611253Y-89378866D01*
X165739040Y-89236944D01*
X165834527Y-89071556D01*
X165893542Y-88889928D01*
X165913504Y-88700000D01*
X165893542Y-88510072D01*
X165834527Y-88328444D01*
X165739040Y-88163056D01*
X165676685Y-88093803D01*
X165615675Y-88026045D01*
X165615674Y-88026044D01*
X165611253Y-88021134D01*
X165456752Y-87908882D01*
X165450724Y-87906198D01*
X165450722Y-87906197D01*
X165288319Y-87833891D01*
X165288318Y-87833891D01*
X165282288Y-87831206D01*
X165188888Y-87811353D01*
X165101944Y-87792872D01*
X165101939Y-87792872D01*
X165095487Y-87791500D01*
X164904513Y-87791500D01*
X164898061Y-87792872D01*
X164898056Y-87792872D01*
X164811112Y-87811353D01*
X164717712Y-87831206D01*
X164711682Y-87833891D01*
X164711681Y-87833891D01*
X164549278Y-87906197D01*
X164549276Y-87906198D01*
X164543248Y-87908882D01*
X164388747Y-88021134D01*
X164384326Y-88026044D01*
X164384325Y-88026045D01*
X164323316Y-88093803D01*
X164260960Y-88163056D01*
X164165473Y-88328444D01*
X164106458Y-88510072D01*
X164086496Y-88700000D01*
X136808000Y-88700000D01*
X136808000Y-88167489D01*
X136828002Y-88099368D01*
X136881658Y-88052875D01*
X136951932Y-88042771D01*
X137008061Y-88065553D01*
X137043248Y-88091118D01*
X137049276Y-88093802D01*
X137049278Y-88093803D01*
X137204824Y-88163056D01*
X137217712Y-88168794D01*
X137311112Y-88188647D01*
X137398056Y-88207128D01*
X137398061Y-88207128D01*
X137404513Y-88208500D01*
X137595487Y-88208500D01*
X137601939Y-88207128D01*
X137601944Y-88207128D01*
X137688887Y-88188647D01*
X137782288Y-88168794D01*
X137795176Y-88163056D01*
X137950722Y-88093803D01*
X137950724Y-88093802D01*
X137956752Y-88091118D01*
X138111253Y-87978866D01*
X138175846Y-87907128D01*
X138234621Y-87841852D01*
X138234622Y-87841851D01*
X138239040Y-87836944D01*
X138334527Y-87671556D01*
X138393542Y-87489928D01*
X138413504Y-87300000D01*
X138393542Y-87110072D01*
X138357777Y-87000000D01*
X141336496Y-87000000D01*
X141356458Y-87189928D01*
X141415473Y-87371556D01*
X141510960Y-87536944D01*
X141638747Y-87678866D01*
X141793248Y-87791118D01*
X141799276Y-87793802D01*
X141799278Y-87793803D01*
X141883332Y-87831226D01*
X141967712Y-87868794D01*
X142061113Y-87888647D01*
X142148056Y-87907128D01*
X142148061Y-87907128D01*
X142154513Y-87908500D01*
X142345487Y-87908500D01*
X142351939Y-87907128D01*
X142351944Y-87907128D01*
X142438887Y-87888647D01*
X142532288Y-87868794D01*
X142616668Y-87831226D01*
X142700722Y-87793803D01*
X142700724Y-87793802D01*
X142706752Y-87791118D01*
X142861253Y-87678866D01*
X142989040Y-87536944D01*
X143084527Y-87371556D01*
X143143542Y-87189928D01*
X143163504Y-87000000D01*
X143143542Y-86810072D01*
X143084527Y-86628444D01*
X142989040Y-86463056D01*
X142861253Y-86321134D01*
X142706752Y-86208882D01*
X142700724Y-86206198D01*
X142700722Y-86206197D01*
X142538319Y-86133891D01*
X142538318Y-86133891D01*
X142532288Y-86131206D01*
X142438888Y-86111353D01*
X142351944Y-86092872D01*
X142351939Y-86092872D01*
X142345487Y-86091500D01*
X142154513Y-86091500D01*
X142148061Y-86092872D01*
X142148056Y-86092872D01*
X142061112Y-86111353D01*
X141967712Y-86131206D01*
X141961682Y-86133891D01*
X141961681Y-86133891D01*
X141799278Y-86206197D01*
X141799276Y-86206198D01*
X141793248Y-86208882D01*
X141638747Y-86321134D01*
X141510960Y-86463056D01*
X141415473Y-86628444D01*
X141356458Y-86810072D01*
X141336496Y-87000000D01*
X138357777Y-87000000D01*
X138334527Y-86928444D01*
X138239040Y-86763056D01*
X138111253Y-86621134D01*
X137956752Y-86508882D01*
X137950724Y-86506198D01*
X137950722Y-86506197D01*
X137788319Y-86433891D01*
X137788318Y-86433891D01*
X137782288Y-86431206D01*
X137688887Y-86411353D01*
X137601944Y-86392872D01*
X137601939Y-86392872D01*
X137595487Y-86391500D01*
X137404513Y-86391500D01*
X137398061Y-86392872D01*
X137398056Y-86392872D01*
X137311113Y-86411353D01*
X137217712Y-86431206D01*
X137211682Y-86433891D01*
X137211681Y-86433891D01*
X137049278Y-86506197D01*
X137049276Y-86506198D01*
X137043248Y-86508882D01*
X137037907Y-86512762D01*
X137037906Y-86512763D01*
X137008061Y-86534447D01*
X136941194Y-86558305D01*
X136872042Y-86542225D01*
X136822562Y-86491311D01*
X136808000Y-86432511D01*
X136808000Y-85000000D01*
X165886496Y-85000000D01*
X165906458Y-85189928D01*
X165965473Y-85371556D01*
X166060960Y-85536944D01*
X166188747Y-85678866D01*
X166343248Y-85791118D01*
X166349276Y-85793802D01*
X166349278Y-85793803D01*
X166407999Y-85819947D01*
X166517712Y-85868794D01*
X166585614Y-85883227D01*
X166698056Y-85907128D01*
X166698061Y-85907128D01*
X166704513Y-85908500D01*
X166895487Y-85908500D01*
X166901939Y-85907128D01*
X166901944Y-85907128D01*
X167014386Y-85883227D01*
X167082288Y-85868794D01*
X167192001Y-85819947D01*
X167250722Y-85793803D01*
X167250724Y-85793802D01*
X167256752Y-85791118D01*
X167411253Y-85678866D01*
X167539040Y-85536944D01*
X167634527Y-85371556D01*
X167693542Y-85189928D01*
X167713504Y-85000000D01*
X167693542Y-84810072D01*
X167634527Y-84628444D01*
X167539040Y-84463056D01*
X167411253Y-84321134D01*
X167256752Y-84208882D01*
X167250724Y-84206198D01*
X167250722Y-84206197D01*
X167088319Y-84133891D01*
X167088318Y-84133891D01*
X167082288Y-84131206D01*
X166988888Y-84111353D01*
X166901944Y-84092872D01*
X166901939Y-84092872D01*
X166895487Y-84091500D01*
X166704513Y-84091500D01*
X166698061Y-84092872D01*
X166698056Y-84092872D01*
X166611112Y-84111353D01*
X166517712Y-84131206D01*
X166511682Y-84133891D01*
X166511681Y-84133891D01*
X166349278Y-84206197D01*
X166349276Y-84206198D01*
X166343248Y-84208882D01*
X166188747Y-84321134D01*
X166060960Y-84463056D01*
X165965473Y-84628444D01*
X165906458Y-84810072D01*
X165886496Y-85000000D01*
X136808000Y-85000000D01*
X136808000Y-83700000D01*
X139486496Y-83700000D01*
X139506458Y-83889928D01*
X139565473Y-84071556D01*
X139660960Y-84236944D01*
X139788747Y-84378866D01*
X139943248Y-84491118D01*
X139949276Y-84493802D01*
X139949278Y-84493803D01*
X140111681Y-84566109D01*
X140117712Y-84568794D01*
X140211113Y-84588647D01*
X140298056Y-84607128D01*
X140298061Y-84607128D01*
X140304513Y-84608500D01*
X140495487Y-84608500D01*
X140501939Y-84607128D01*
X140501944Y-84607128D01*
X140588887Y-84588647D01*
X140682288Y-84568794D01*
X140688319Y-84566109D01*
X140850722Y-84493803D01*
X140850724Y-84493802D01*
X140856752Y-84491118D01*
X141011253Y-84378866D01*
X141139040Y-84236944D01*
X141234527Y-84071556D01*
X141293542Y-83889928D01*
X141313504Y-83700000D01*
X154486496Y-83700000D01*
X154506458Y-83889928D01*
X154565473Y-84071556D01*
X154660960Y-84236944D01*
X154788747Y-84378866D01*
X154943248Y-84491118D01*
X154949276Y-84493802D01*
X154949278Y-84493803D01*
X155111681Y-84566109D01*
X155117712Y-84568794D01*
X155211113Y-84588647D01*
X155298056Y-84607128D01*
X155298061Y-84607128D01*
X155304513Y-84608500D01*
X155495487Y-84608500D01*
X155501939Y-84607128D01*
X155501944Y-84607128D01*
X155588887Y-84588647D01*
X155682288Y-84568794D01*
X155688319Y-84566109D01*
X155850722Y-84493803D01*
X155850724Y-84493802D01*
X155856752Y-84491118D01*
X156011253Y-84378866D01*
X156139040Y-84236944D01*
X156234527Y-84071556D01*
X156293542Y-83889928D01*
X156313504Y-83700000D01*
X156293542Y-83510072D01*
X156234527Y-83328444D01*
X156139040Y-83163056D01*
X156011253Y-83021134D01*
X155856752Y-82908882D01*
X155850724Y-82906198D01*
X155850722Y-82906197D01*
X155688319Y-82833891D01*
X155688318Y-82833891D01*
X155682288Y-82831206D01*
X155588887Y-82811353D01*
X155501944Y-82792872D01*
X155501939Y-82792872D01*
X155495487Y-82791500D01*
X155304513Y-82791500D01*
X155298061Y-82792872D01*
X155298056Y-82792872D01*
X155211113Y-82811353D01*
X155117712Y-82831206D01*
X155111682Y-82833891D01*
X155111681Y-82833891D01*
X154949278Y-82906197D01*
X154949276Y-82906198D01*
X154943248Y-82908882D01*
X154788747Y-83021134D01*
X154660960Y-83163056D01*
X154565473Y-83328444D01*
X154506458Y-83510072D01*
X154486496Y-83700000D01*
X141313504Y-83700000D01*
X141293542Y-83510072D01*
X141234527Y-83328444D01*
X141139040Y-83163056D01*
X141011253Y-83021134D01*
X140856752Y-82908882D01*
X140850724Y-82906198D01*
X140850722Y-82906197D01*
X140688319Y-82833891D01*
X140688318Y-82833891D01*
X140682288Y-82831206D01*
X140588887Y-82811353D01*
X140501944Y-82792872D01*
X140501939Y-82792872D01*
X140495487Y-82791500D01*
X140304513Y-82791500D01*
X140298061Y-82792872D01*
X140298056Y-82792872D01*
X140211113Y-82811353D01*
X140117712Y-82831206D01*
X140111682Y-82833891D01*
X140111681Y-82833891D01*
X139949278Y-82906197D01*
X139949276Y-82906198D01*
X139943248Y-82908882D01*
X139788747Y-83021134D01*
X139660960Y-83163056D01*
X139565473Y-83328444D01*
X139506458Y-83510072D01*
X139486496Y-83700000D01*
X136808000Y-83700000D01*
X136808000Y-81800000D01*
X165386496Y-81800000D01*
X165406458Y-81989928D01*
X165465473Y-82171556D01*
X165560960Y-82336944D01*
X165688747Y-82478866D01*
X165843248Y-82591118D01*
X165849276Y-82593802D01*
X165849278Y-82593803D01*
X166011681Y-82666109D01*
X166017712Y-82668794D01*
X166111112Y-82688647D01*
X166198056Y-82707128D01*
X166198061Y-82707128D01*
X166204513Y-82708500D01*
X166395487Y-82708500D01*
X166401939Y-82707128D01*
X166401944Y-82707128D01*
X166488887Y-82688647D01*
X166582288Y-82668794D01*
X166588319Y-82666109D01*
X166750722Y-82593803D01*
X166750724Y-82593802D01*
X166756752Y-82591118D01*
X166911253Y-82478866D01*
X167039040Y-82336944D01*
X167134527Y-82171556D01*
X167193542Y-81989928D01*
X167213504Y-81800000D01*
X167193542Y-81610072D01*
X167134527Y-81428444D01*
X167039040Y-81263056D01*
X166911253Y-81121134D01*
X166756752Y-81008882D01*
X166750724Y-81006198D01*
X166750722Y-81006197D01*
X166588319Y-80933891D01*
X166588318Y-80933891D01*
X166582288Y-80931206D01*
X166488888Y-80911353D01*
X166401944Y-80892872D01*
X166401939Y-80892872D01*
X166395487Y-80891500D01*
X166204513Y-80891500D01*
X166198061Y-80892872D01*
X166198056Y-80892872D01*
X166111112Y-80911353D01*
X166017712Y-80931206D01*
X166011682Y-80933891D01*
X166011681Y-80933891D01*
X165849278Y-81006197D01*
X165849276Y-81006198D01*
X165843248Y-81008882D01*
X165688747Y-81121134D01*
X165560960Y-81263056D01*
X165465473Y-81428444D01*
X165406458Y-81610072D01*
X165386496Y-81800000D01*
X136808000Y-81800000D01*
X136808000Y-79500000D01*
X161336496Y-79500000D01*
X161356458Y-79689928D01*
X161415473Y-79871556D01*
X161510960Y-80036944D01*
X161638747Y-80178866D01*
X161793248Y-80291118D01*
X161799276Y-80293802D01*
X161799278Y-80293803D01*
X161961681Y-80366109D01*
X161967712Y-80368794D01*
X162061113Y-80388647D01*
X162148056Y-80407128D01*
X162148061Y-80407128D01*
X162154513Y-80408500D01*
X162345487Y-80408500D01*
X162351939Y-80407128D01*
X162351944Y-80407128D01*
X162438887Y-80388647D01*
X162532288Y-80368794D01*
X162538319Y-80366109D01*
X162700722Y-80293803D01*
X162700724Y-80293802D01*
X162706752Y-80291118D01*
X162861253Y-80178866D01*
X162989040Y-80036944D01*
X163084527Y-79871556D01*
X163143542Y-79689928D01*
X163163504Y-79500000D01*
X163143542Y-79310072D01*
X163084527Y-79128444D01*
X162989040Y-78963056D01*
X162861253Y-78821134D01*
X162706752Y-78708882D01*
X162700724Y-78706198D01*
X162700722Y-78706197D01*
X162538319Y-78633891D01*
X162538318Y-78633891D01*
X162532288Y-78631206D01*
X162438887Y-78611353D01*
X162351944Y-78592872D01*
X162351939Y-78592872D01*
X162345487Y-78591500D01*
X162154513Y-78591500D01*
X162148061Y-78592872D01*
X162148056Y-78592872D01*
X162061113Y-78611353D01*
X161967712Y-78631206D01*
X161961682Y-78633891D01*
X161961681Y-78633891D01*
X161799278Y-78706197D01*
X161799276Y-78706198D01*
X161793248Y-78708882D01*
X161638747Y-78821134D01*
X161510960Y-78963056D01*
X161415473Y-79128444D01*
X161356458Y-79310072D01*
X161336496Y-79500000D01*
X136808000Y-79500000D01*
X136808000Y-77700000D01*
X165786496Y-77700000D01*
X165806458Y-77889928D01*
X165865473Y-78071556D01*
X165960960Y-78236944D01*
X166088747Y-78378866D01*
X166243248Y-78491118D01*
X166249276Y-78493802D01*
X166249278Y-78493803D01*
X166411681Y-78566109D01*
X166417712Y-78568794D01*
X166511112Y-78588647D01*
X166598056Y-78607128D01*
X166598061Y-78607128D01*
X166604513Y-78608500D01*
X166795487Y-78608500D01*
X166801939Y-78607128D01*
X166801944Y-78607128D01*
X166888888Y-78588647D01*
X166982288Y-78568794D01*
X166988319Y-78566109D01*
X167150722Y-78493803D01*
X167150724Y-78493802D01*
X167156752Y-78491118D01*
X167311253Y-78378866D01*
X167439040Y-78236944D01*
X167534527Y-78071556D01*
X167593542Y-77889928D01*
X167613504Y-77700000D01*
X167593542Y-77510072D01*
X167534527Y-77328444D01*
X167439040Y-77163056D01*
X167311253Y-77021134D01*
X167156752Y-76908882D01*
X167150724Y-76906198D01*
X167150722Y-76906197D01*
X166988319Y-76833891D01*
X166988318Y-76833891D01*
X166982288Y-76831206D01*
X166888888Y-76811353D01*
X166801944Y-76792872D01*
X166801939Y-76792872D01*
X166795487Y-76791500D01*
X166604513Y-76791500D01*
X166598061Y-76792872D01*
X166598056Y-76792872D01*
X166511112Y-76811353D01*
X166417712Y-76831206D01*
X166411682Y-76833891D01*
X166411681Y-76833891D01*
X166249278Y-76906197D01*
X166249276Y-76906198D01*
X166243248Y-76908882D01*
X166088747Y-77021134D01*
X165960960Y-77163056D01*
X165865473Y-77328444D01*
X165806458Y-77510072D01*
X165786496Y-77700000D01*
X136808000Y-77700000D01*
X136808000Y-76200000D01*
X139486496Y-76200000D01*
X139506458Y-76389928D01*
X139565473Y-76571556D01*
X139660960Y-76736944D01*
X139788747Y-76878866D01*
X139943248Y-76991118D01*
X139949276Y-76993802D01*
X139949278Y-76993803D01*
X140111681Y-77066109D01*
X140117712Y-77068794D01*
X140211113Y-77088647D01*
X140298056Y-77107128D01*
X140298061Y-77107128D01*
X140304513Y-77108500D01*
X140495487Y-77108500D01*
X140501939Y-77107128D01*
X140501944Y-77107128D01*
X140588887Y-77088647D01*
X140682288Y-77068794D01*
X140688319Y-77066109D01*
X140850722Y-76993803D01*
X140850724Y-76993802D01*
X140856752Y-76991118D01*
X141011253Y-76878866D01*
X141139040Y-76736944D01*
X141234527Y-76571556D01*
X141293542Y-76389928D01*
X141313504Y-76200000D01*
X154486496Y-76200000D01*
X154506458Y-76389928D01*
X154565473Y-76571556D01*
X154660960Y-76736944D01*
X154788747Y-76878866D01*
X154943248Y-76991118D01*
X154949276Y-76993802D01*
X154949278Y-76993803D01*
X155111681Y-77066109D01*
X155117712Y-77068794D01*
X155211113Y-77088647D01*
X155298056Y-77107128D01*
X155298061Y-77107128D01*
X155304513Y-77108500D01*
X155495487Y-77108500D01*
X155501939Y-77107128D01*
X155501944Y-77107128D01*
X155588887Y-77088647D01*
X155682288Y-77068794D01*
X155688319Y-77066109D01*
X155850722Y-76993803D01*
X155850724Y-76993802D01*
X155856752Y-76991118D01*
X156011253Y-76878866D01*
X156139040Y-76736944D01*
X156234527Y-76571556D01*
X156293542Y-76389928D01*
X156313504Y-76200000D01*
X156293542Y-76010072D01*
X156234527Y-75828444D01*
X156139040Y-75663056D01*
X156011253Y-75521134D01*
X155856752Y-75408882D01*
X155850724Y-75406198D01*
X155850722Y-75406197D01*
X155688319Y-75333891D01*
X155688318Y-75333891D01*
X155682288Y-75331206D01*
X155566362Y-75306565D01*
X155535477Y-75300000D01*
X165786496Y-75300000D01*
X165806458Y-75489928D01*
X165865473Y-75671556D01*
X165960960Y-75836944D01*
X166088747Y-75978866D01*
X166243248Y-76091118D01*
X166249276Y-76093802D01*
X166249278Y-76093803D01*
X166411681Y-76166109D01*
X166417712Y-76168794D01*
X166511113Y-76188647D01*
X166598056Y-76207128D01*
X166598061Y-76207128D01*
X166604513Y-76208500D01*
X166795487Y-76208500D01*
X166801939Y-76207128D01*
X166801944Y-76207128D01*
X166888887Y-76188647D01*
X166982288Y-76168794D01*
X166988319Y-76166109D01*
X167150722Y-76093803D01*
X167150724Y-76093802D01*
X167156752Y-76091118D01*
X167311253Y-75978866D01*
X167439040Y-75836944D01*
X167534527Y-75671556D01*
X167593542Y-75489928D01*
X167613504Y-75300000D01*
X167593542Y-75110072D01*
X167534527Y-74928444D01*
X167439040Y-74763056D01*
X167311253Y-74621134D01*
X167156752Y-74508882D01*
X167150724Y-74506198D01*
X167150722Y-74506197D01*
X166988319Y-74433891D01*
X166988318Y-74433891D01*
X166982288Y-74431206D01*
X166888888Y-74411353D01*
X166801944Y-74392872D01*
X166801939Y-74392872D01*
X166795487Y-74391500D01*
X166604513Y-74391500D01*
X166598061Y-74392872D01*
X166598056Y-74392872D01*
X166511112Y-74411353D01*
X166417712Y-74431206D01*
X166411682Y-74433891D01*
X166411681Y-74433891D01*
X166249278Y-74506197D01*
X166249276Y-74506198D01*
X166243248Y-74508882D01*
X166088747Y-74621134D01*
X165960960Y-74763056D01*
X165865473Y-74928444D01*
X165806458Y-75110072D01*
X165786496Y-75300000D01*
X155535477Y-75300000D01*
X155501944Y-75292872D01*
X155501939Y-75292872D01*
X155495487Y-75291500D01*
X155304513Y-75291500D01*
X155298061Y-75292872D01*
X155298056Y-75292872D01*
X155233638Y-75306565D01*
X155117712Y-75331206D01*
X155111682Y-75333891D01*
X155111681Y-75333891D01*
X154949278Y-75406197D01*
X154949276Y-75406198D01*
X154943248Y-75408882D01*
X154788747Y-75521134D01*
X154660960Y-75663056D01*
X154565473Y-75828444D01*
X154506458Y-76010072D01*
X154486496Y-76200000D01*
X141313504Y-76200000D01*
X141293542Y-76010072D01*
X141234527Y-75828444D01*
X141139040Y-75663056D01*
X141011253Y-75521134D01*
X140856752Y-75408882D01*
X140850724Y-75406198D01*
X140850722Y-75406197D01*
X140688319Y-75333891D01*
X140688318Y-75333891D01*
X140682288Y-75331206D01*
X140566362Y-75306565D01*
X140501944Y-75292872D01*
X140501939Y-75292872D01*
X140495487Y-75291500D01*
X140304513Y-75291500D01*
X140298061Y-75292872D01*
X140298056Y-75292872D01*
X140233638Y-75306565D01*
X140117712Y-75331206D01*
X140111682Y-75333891D01*
X140111681Y-75333891D01*
X139949278Y-75406197D01*
X139949276Y-75406198D01*
X139943248Y-75408882D01*
X139788747Y-75521134D01*
X139660960Y-75663056D01*
X139565473Y-75828444D01*
X139506458Y-76010072D01*
X139486496Y-76200000D01*
X136808000Y-76200000D01*
X136808000Y-73467489D01*
X136828002Y-73399368D01*
X136881658Y-73352875D01*
X136951932Y-73342771D01*
X137008061Y-73365553D01*
X137043248Y-73391118D01*
X137049276Y-73393802D01*
X137049278Y-73393803D01*
X137209799Y-73465271D01*
X137217712Y-73468794D01*
X137311112Y-73488647D01*
X137398056Y-73507128D01*
X137398061Y-73507128D01*
X137404513Y-73508500D01*
X137595487Y-73508500D01*
X137601939Y-73507128D01*
X137601944Y-73507128D01*
X137688888Y-73488647D01*
X137782288Y-73468794D01*
X137790201Y-73465271D01*
X137950722Y-73393803D01*
X137950724Y-73393802D01*
X137956752Y-73391118D01*
X138111253Y-73278866D01*
X138192000Y-73189187D01*
X138234621Y-73141852D01*
X138234622Y-73141851D01*
X138239040Y-73136944D01*
X138318105Y-73000000D01*
X139336496Y-73000000D01*
X139356458Y-73189928D01*
X139415473Y-73371556D01*
X139510960Y-73536944D01*
X139638747Y-73678866D01*
X139737843Y-73750864D01*
X139776385Y-73778866D01*
X139793248Y-73791118D01*
X139799276Y-73793802D01*
X139799278Y-73793803D01*
X139959799Y-73865271D01*
X139967712Y-73868794D01*
X140054479Y-73887237D01*
X140148056Y-73907128D01*
X140148061Y-73907128D01*
X140154513Y-73908500D01*
X140345487Y-73908500D01*
X140351939Y-73907128D01*
X140351944Y-73907128D01*
X140445521Y-73887237D01*
X140532288Y-73868794D01*
X140540201Y-73865271D01*
X140700722Y-73793803D01*
X140700724Y-73793802D01*
X140706752Y-73791118D01*
X140723616Y-73778866D01*
X140762157Y-73750864D01*
X140861253Y-73678866D01*
X140989040Y-73536944D01*
X141084527Y-73371556D01*
X141143542Y-73189928D01*
X141152994Y-73100000D01*
X161186496Y-73100000D01*
X161187186Y-73106565D01*
X161196608Y-73196206D01*
X161206458Y-73289928D01*
X161265473Y-73471556D01*
X161268776Y-73477278D01*
X161268777Y-73477279D01*
X161286803Y-73508500D01*
X161360960Y-73636944D01*
X161365378Y-73641851D01*
X161365379Y-73641852D01*
X161408667Y-73689928D01*
X161488747Y-73778866D01*
X161643248Y-73891118D01*
X161649276Y-73893802D01*
X161649278Y-73893803D01*
X161811681Y-73966109D01*
X161817712Y-73968794D01*
X161911112Y-73988647D01*
X161998056Y-74007128D01*
X161998061Y-74007128D01*
X162004513Y-74008500D01*
X162195487Y-74008500D01*
X162201939Y-74007128D01*
X162201944Y-74007128D01*
X162288888Y-73988647D01*
X162382288Y-73968794D01*
X162469033Y-73930173D01*
X162539399Y-73920739D01*
X162603696Y-73950845D01*
X162629399Y-73982278D01*
X162660960Y-74036944D01*
X162788747Y-74178866D01*
X162943248Y-74291118D01*
X162949276Y-74293802D01*
X162949278Y-74293803D01*
X163111681Y-74366109D01*
X163117712Y-74368794D01*
X163211113Y-74388647D01*
X163298056Y-74407128D01*
X163298061Y-74407128D01*
X163304513Y-74408500D01*
X163495487Y-74408500D01*
X163501939Y-74407128D01*
X163501944Y-74407128D01*
X163588887Y-74388647D01*
X163682288Y-74368794D01*
X163688319Y-74366109D01*
X163850722Y-74293803D01*
X163850724Y-74293802D01*
X163856752Y-74291118D01*
X164011253Y-74178866D01*
X164139040Y-74036944D01*
X164213197Y-73908500D01*
X164231223Y-73877279D01*
X164231224Y-73877278D01*
X164234527Y-73871556D01*
X164293542Y-73689928D01*
X164313504Y-73500000D01*
X164293542Y-73310072D01*
X164234527Y-73128444D01*
X164139040Y-72963056D01*
X164066997Y-72883044D01*
X164036279Y-72819037D01*
X164045044Y-72748583D01*
X164086572Y-72696798D01*
X164092256Y-72692668D01*
X164111253Y-72678866D01*
X164239040Y-72536944D01*
X164334527Y-72371556D01*
X164393542Y-72189928D01*
X164407393Y-72058148D01*
X164412814Y-72006565D01*
X164412814Y-72006564D01*
X164413504Y-72000000D01*
X165586496Y-72000000D01*
X165587186Y-72006564D01*
X165587186Y-72006565D01*
X165592608Y-72058148D01*
X165606458Y-72189928D01*
X165665473Y-72371556D01*
X165760960Y-72536944D01*
X165888747Y-72678866D01*
X166043248Y-72791118D01*
X166049276Y-72793802D01*
X166049278Y-72793803D01*
X166100560Y-72816635D01*
X166217712Y-72868794D01*
X166284753Y-72883044D01*
X166398056Y-72907128D01*
X166398061Y-72907128D01*
X166404513Y-72908500D01*
X166595487Y-72908500D01*
X166601939Y-72907128D01*
X166601944Y-72907128D01*
X166715247Y-72883044D01*
X166782288Y-72868794D01*
X166899440Y-72816635D01*
X166950722Y-72793803D01*
X166950724Y-72793802D01*
X166956752Y-72791118D01*
X167111253Y-72678866D01*
X167239040Y-72536944D01*
X167334527Y-72371556D01*
X167393542Y-72189928D01*
X167407393Y-72058148D01*
X167412814Y-72006565D01*
X167412814Y-72006564D01*
X167413504Y-72000000D01*
X167404807Y-71917251D01*
X167394232Y-71816635D01*
X167394232Y-71816633D01*
X167393542Y-71810072D01*
X167334527Y-71628444D01*
X167239040Y-71463056D01*
X167111253Y-71321134D01*
X166956752Y-71208882D01*
X166950724Y-71206198D01*
X166950722Y-71206197D01*
X166788319Y-71133891D01*
X166788318Y-71133891D01*
X166782288Y-71131206D01*
X166688887Y-71111353D01*
X166601944Y-71092872D01*
X166601939Y-71092872D01*
X166595487Y-71091500D01*
X166404513Y-71091500D01*
X166398061Y-71092872D01*
X166398056Y-71092872D01*
X166311113Y-71111353D01*
X166217712Y-71131206D01*
X166211682Y-71133891D01*
X166211681Y-71133891D01*
X166049278Y-71206197D01*
X166049276Y-71206198D01*
X166043248Y-71208882D01*
X165888747Y-71321134D01*
X165760960Y-71463056D01*
X165665473Y-71628444D01*
X165606458Y-71810072D01*
X165605768Y-71816633D01*
X165605768Y-71816635D01*
X165595193Y-71917251D01*
X165586496Y-72000000D01*
X164413504Y-72000000D01*
X164404807Y-71917251D01*
X164394232Y-71816635D01*
X164394232Y-71816633D01*
X164393542Y-71810072D01*
X164334527Y-71628444D01*
X164239040Y-71463056D01*
X164111253Y-71321134D01*
X163956752Y-71208882D01*
X163950724Y-71206198D01*
X163950722Y-71206197D01*
X163788319Y-71133891D01*
X163788318Y-71133891D01*
X163782288Y-71131206D01*
X163688887Y-71111353D01*
X163601944Y-71092872D01*
X163601939Y-71092872D01*
X163595487Y-71091500D01*
X163404513Y-71091500D01*
X163398061Y-71092872D01*
X163398056Y-71092872D01*
X163311113Y-71111353D01*
X163217712Y-71131206D01*
X163211682Y-71133891D01*
X163211681Y-71133891D01*
X163049278Y-71206197D01*
X163049276Y-71206198D01*
X163043248Y-71208882D01*
X162888747Y-71321134D01*
X162760960Y-71463056D01*
X162665473Y-71628444D01*
X162606458Y-71810072D01*
X162605768Y-71816633D01*
X162605768Y-71816635D01*
X162595193Y-71917251D01*
X162586496Y-72000000D01*
X162599203Y-72120897D01*
X162586431Y-72190733D01*
X162537929Y-72242580D01*
X162469096Y-72259975D01*
X162422646Y-72249173D01*
X162388327Y-72233894D01*
X162388321Y-72233892D01*
X162382288Y-72231206D01*
X162288887Y-72211353D01*
X162201944Y-72192872D01*
X162201939Y-72192872D01*
X162195487Y-72191500D01*
X162004513Y-72191500D01*
X161998061Y-72192872D01*
X161998056Y-72192872D01*
X161911113Y-72211353D01*
X161817712Y-72231206D01*
X161811682Y-72233891D01*
X161811681Y-72233891D01*
X161649278Y-72306197D01*
X161649276Y-72306198D01*
X161643248Y-72308882D01*
X161637907Y-72312762D01*
X161637906Y-72312763D01*
X161619625Y-72326045D01*
X161488747Y-72421134D01*
X161360960Y-72563056D01*
X161265473Y-72728444D01*
X161206458Y-72910072D01*
X161186496Y-73100000D01*
X141152994Y-73100000D01*
X141163504Y-73000000D01*
X141153743Y-72907128D01*
X141144232Y-72816635D01*
X141144232Y-72816633D01*
X141143542Y-72810072D01*
X141084527Y-72628444D01*
X140989040Y-72463056D01*
X140947243Y-72416635D01*
X140865675Y-72326045D01*
X140865674Y-72326044D01*
X140861253Y-72321134D01*
X140706752Y-72208882D01*
X140700724Y-72206198D01*
X140700722Y-72206197D01*
X140538319Y-72133891D01*
X140538318Y-72133891D01*
X140532288Y-72131206D01*
X140438888Y-72111353D01*
X140351944Y-72092872D01*
X140351939Y-72092872D01*
X140345487Y-72091500D01*
X140154513Y-72091500D01*
X140148061Y-72092872D01*
X140148056Y-72092872D01*
X140061112Y-72111353D01*
X139967712Y-72131206D01*
X139961682Y-72133891D01*
X139961681Y-72133891D01*
X139799278Y-72206197D01*
X139799276Y-72206198D01*
X139793248Y-72208882D01*
X139638747Y-72321134D01*
X139634326Y-72326044D01*
X139634325Y-72326045D01*
X139552758Y-72416635D01*
X139510960Y-72463056D01*
X139415473Y-72628444D01*
X139356458Y-72810072D01*
X139355768Y-72816633D01*
X139355768Y-72816635D01*
X139346257Y-72907128D01*
X139336496Y-73000000D01*
X138318105Y-73000000D01*
X138334527Y-72971556D01*
X138393542Y-72789928D01*
X138397888Y-72748583D01*
X138412814Y-72606565D01*
X138413504Y-72600000D01*
X138409105Y-72558148D01*
X138394232Y-72416635D01*
X138394232Y-72416633D01*
X138393542Y-72410072D01*
X138334527Y-72228444D01*
X138313990Y-72192872D01*
X138279937Y-72133891D01*
X138239040Y-72063056D01*
X138188175Y-72006564D01*
X138115675Y-71926045D01*
X138115674Y-71926044D01*
X138111253Y-71921134D01*
X137956752Y-71808882D01*
X137950724Y-71806198D01*
X137950722Y-71806197D01*
X137788319Y-71733891D01*
X137788318Y-71733891D01*
X137782288Y-71731206D01*
X137688888Y-71711353D01*
X137601944Y-71692872D01*
X137601939Y-71692872D01*
X137595487Y-71691500D01*
X137404513Y-71691500D01*
X137398061Y-71692872D01*
X137398056Y-71692872D01*
X137311112Y-71711353D01*
X137217712Y-71731206D01*
X137211682Y-71733891D01*
X137211681Y-71733891D01*
X137049278Y-71806197D01*
X137049276Y-71806198D01*
X137043248Y-71808882D01*
X137037907Y-71812762D01*
X137037906Y-71812763D01*
X137008061Y-71834447D01*
X136941194Y-71858305D01*
X136872042Y-71842225D01*
X136822562Y-71791311D01*
X136808000Y-71732511D01*
X136808000Y-69376172D01*
X136831239Y-69303260D01*
X136950412Y-69135301D01*
X136959216Y-69124260D01*
X137173966Y-68883955D01*
X137183956Y-68873965D01*
X137339761Y-68734729D01*
X137424260Y-68659216D01*
X137435301Y-68650412D01*
X137603260Y-68531239D01*
X137676172Y-68508000D01*
X143474508Y-68508000D01*
X143542629Y-68528002D01*
G37*
%TD.AperFunction*%
%TD*%
M02*
