%TF.GenerationSoftware,KiCad,Pcbnew,(6.0.2)*%
%TF.CreationDate,2022-03-06T23:22:22-05:00*%
%TF.ProjectId,aquabotsBMS,61717561-626f-4747-9342-4d532e6b6963,rev?*%
%TF.SameCoordinates,Original*%
%TF.FileFunction,Paste,Top*%
%TF.FilePolarity,Positive*%
%FSLAX46Y46*%
G04 Gerber Fmt 4.6, Leading zero omitted, Abs format (unit mm)*
G04 Created by KiCad (PCBNEW (6.0.2)) date 2022-03-06 23:22:22*
%MOMM*%
%LPD*%
G01*
G04 APERTURE LIST*
G04 Aperture macros list*
%AMRoundRect*
0 Rectangle with rounded corners*
0 $1 Rounding radius*
0 $2 $3 $4 $5 $6 $7 $8 $9 X,Y pos of 4 corners*
0 Add a 4 corners polygon primitive as box body*
4,1,4,$2,$3,$4,$5,$6,$7,$8,$9,$2,$3,0*
0 Add four circle primitives for the rounded corners*
1,1,$1+$1,$2,$3*
1,1,$1+$1,$4,$5*
1,1,$1+$1,$6,$7*
1,1,$1+$1,$8,$9*
0 Add four rect primitives between the rounded corners*
20,1,$1+$1,$2,$3,$4,$5,0*
20,1,$1+$1,$4,$5,$6,$7,0*
20,1,$1+$1,$6,$7,$8,$9,0*
20,1,$1+$1,$8,$9,$2,$3,0*%
G04 Aperture macros list end*
%ADD10C,0.100000*%
%ADD11R,0.558800X1.447800*%
%ADD12RoundRect,0.100000X0.100000X-0.712500X0.100000X0.712500X-0.100000X0.712500X-0.100000X-0.712500X0*%
%ADD13RoundRect,0.218750X0.256250X-0.218750X0.256250X0.218750X-0.256250X0.218750X-0.256250X-0.218750X0*%
%ADD14R,3.850000X4.000000*%
%ADD15RoundRect,0.250000X0.625000X-0.375000X0.625000X0.375000X-0.625000X0.375000X-0.625000X-0.375000X0*%
%ADD16RoundRect,0.218750X-0.256250X0.218750X-0.256250X-0.218750X0.256250X-0.218750X0.256250X0.218750X0*%
%ADD17RoundRect,0.218750X-0.218750X-0.256250X0.218750X-0.256250X0.218750X0.256250X-0.218750X0.256250X0*%
%ADD18RoundRect,0.250000X0.375000X0.625000X-0.375000X0.625000X-0.375000X-0.625000X0.375000X-0.625000X0*%
%ADD19RoundRect,0.218750X0.218750X0.256250X-0.218750X0.256250X-0.218750X-0.256250X0.218750X-0.256250X0*%
%ADD20R,2.500000X1.800000*%
%ADD21R,0.300000X1.450000*%
%ADD22R,0.600000X1.450000*%
%ADD23R,0.800000X0.900000*%
%ADD24R,1.100000X1.100000*%
%ADD25R,0.900000X1.500000*%
%ADD26R,1.500000X0.900000*%
%ADD27R,0.650000X1.060000*%
%ADD28RoundRect,0.150000X-0.150000X0.662500X-0.150000X-0.662500X0.150000X-0.662500X0.150000X0.662500X0*%
%ADD29R,1.800000X1.000000*%
%ADD30RoundRect,0.200000X-0.200000X-0.800000X0.200000X-0.800000X0.200000X0.800000X-0.200000X0.800000X0*%
%ADD31RoundRect,0.200000X0.200000X0.800000X-0.200000X0.800000X-0.200000X-0.800000X0.200000X-0.800000X0*%
G04 APERTURE END LIST*
D10*
%TO.C,U5*%
X143700000Y-106300000D02*
X142223600Y-106300000D01*
X142223600Y-106300000D02*
X142223600Y-107458900D01*
X142223600Y-107458900D02*
X143700000Y-107458900D01*
X143700000Y-107458900D02*
X143700000Y-106300000D01*
G36*
X143700000Y-107458900D02*
G01*
X142223600Y-107458900D01*
X142223600Y-106300000D01*
X143700000Y-106300000D01*
X143700000Y-107458900D01*
G37*
X143700000Y-107458900D02*
X142223600Y-107458900D01*
X142223600Y-106300000D01*
X143700000Y-106300000D01*
X143700000Y-107458900D01*
X145376400Y-106300000D02*
X143900000Y-106300000D01*
X143900000Y-106300000D02*
X143900000Y-107458900D01*
X143900000Y-107458900D02*
X145376400Y-107458900D01*
X145376400Y-107458900D02*
X145376400Y-106300000D01*
G36*
X145376400Y-107458900D02*
G01*
X143900000Y-107458900D01*
X143900000Y-106300000D01*
X145376400Y-106300000D01*
X145376400Y-107458900D01*
G37*
X145376400Y-107458900D02*
X143900000Y-107458900D01*
X143900000Y-106300000D01*
X145376400Y-106300000D01*
X145376400Y-107458900D01*
X143700000Y-104941100D02*
X142223600Y-104941100D01*
X142223600Y-104941100D02*
X142223600Y-106100000D01*
X142223600Y-106100000D02*
X143700000Y-106100000D01*
X143700000Y-106100000D02*
X143700000Y-104941100D01*
G36*
X143700000Y-106100000D02*
G01*
X142223600Y-106100000D01*
X142223600Y-104941100D01*
X143700000Y-104941100D01*
X143700000Y-106100000D01*
G37*
X143700000Y-106100000D02*
X142223600Y-106100000D01*
X142223600Y-104941100D01*
X143700000Y-104941100D01*
X143700000Y-106100000D01*
X145376400Y-104941100D02*
X143900000Y-104941100D01*
X143900000Y-104941100D02*
X143900000Y-106100000D01*
X143900000Y-106100000D02*
X145376400Y-106100000D01*
X145376400Y-106100000D02*
X145376400Y-104941100D01*
G36*
X145376400Y-106100000D02*
G01*
X143900000Y-106100000D01*
X143900000Y-104941100D01*
X145376400Y-104941100D01*
X145376400Y-106100000D01*
G37*
X145376400Y-106100000D02*
X143900000Y-106100000D01*
X143900000Y-104941100D01*
X145376400Y-104941100D01*
X145376400Y-106100000D01*
%TD*%
D11*
%TO.C,U5*%
X145705000Y-108879700D03*
X144435000Y-108879700D03*
X143165000Y-108879700D03*
X141895000Y-108879700D03*
X141895000Y-103520300D03*
X143165000Y-103520300D03*
X144435000Y-103520300D03*
X145705000Y-103520300D03*
%TD*%
D12*
%TO.C,U3*%
X135675000Y-111762500D03*
X136325000Y-111762500D03*
X136975000Y-111762500D03*
X137625000Y-111762500D03*
X137625000Y-107537500D03*
X136975000Y-107537500D03*
X136325000Y-107537500D03*
X135675000Y-107537500D03*
%TD*%
D13*
%TO.C,R11*%
X140000000Y-108887500D03*
X140000000Y-107312500D03*
%TD*%
%TO.C,R10*%
X140000000Y-112087500D03*
X140000000Y-110512500D03*
%TD*%
%TO.C,R9*%
X142700000Y-112287500D03*
X142700000Y-110712500D03*
%TD*%
D14*
%TO.C,L1*%
X148875000Y-112100000D03*
X156525000Y-112100000D03*
%TD*%
D15*
%TO.C,C19*%
X158700000Y-101300000D03*
X158700000Y-104100000D03*
%TD*%
%TO.C,C18*%
X156100000Y-101300000D03*
X156100000Y-104100000D03*
%TD*%
%TO.C,C17*%
X153500000Y-101300000D03*
X153500000Y-104100000D03*
%TD*%
D16*
%TO.C,C13*%
X144400000Y-110712500D03*
X144400000Y-112287500D03*
%TD*%
D17*
%TO.C,C12*%
X147412500Y-103400000D03*
X148987500Y-103400000D03*
%TD*%
D13*
%TO.C,C11*%
X140000000Y-105087500D03*
X140000000Y-103512500D03*
%TD*%
D18*
%TO.C,C10*%
X147300000Y-101200000D03*
X144500000Y-101200000D03*
%TD*%
D16*
%TO.C,C1*%
X140500000Y-92787500D03*
X140500000Y-91212500D03*
%TD*%
D17*
%TO.C,C2*%
X163412500Y-87750000D03*
X164987500Y-87750000D03*
%TD*%
D19*
%TO.C,C3*%
X163412500Y-81750000D03*
X164987500Y-81750000D03*
%TD*%
D16*
%TO.C,C4*%
X138750000Y-91212500D03*
X138750000Y-92787500D03*
%TD*%
D13*
%TO.C,C5*%
X154100000Y-120812500D03*
X154100000Y-122387500D03*
%TD*%
%TO.C,C6*%
X145900000Y-122387500D03*
X145900000Y-120812500D03*
%TD*%
D19*
%TO.C,C7*%
X141700000Y-69100000D03*
X143275000Y-69100000D03*
%TD*%
D17*
%TO.C,C8*%
X164987500Y-74250000D03*
X163412500Y-74250000D03*
%TD*%
D19*
%TO.C,C9*%
X164987500Y-78750000D03*
X163412500Y-78750000D03*
%TD*%
D20*
%TO.C,D1*%
X139000000Y-100600000D03*
X135000000Y-100600000D03*
%TD*%
D16*
%TO.C,FB1*%
X155600000Y-122387500D03*
X155600000Y-120812500D03*
%TD*%
%TO.C,FB2*%
X144400000Y-120812500D03*
X144400000Y-122387500D03*
%TD*%
D21*
%TO.C,J1*%
X149750000Y-125205000D03*
X151750000Y-125205000D03*
X151250000Y-125205000D03*
X150750000Y-125205000D03*
X150250000Y-125205000D03*
X149250000Y-125205000D03*
X148750000Y-125205000D03*
X148250000Y-125205000D03*
D22*
X153250000Y-125205000D03*
X152450000Y-125205000D03*
X147550000Y-125205000D03*
X146750000Y-125205000D03*
X146750000Y-125205000D03*
X147550000Y-125205000D03*
X152450000Y-125205000D03*
X153250000Y-125205000D03*
%TD*%
D23*
%TO.C,Q1*%
X135700000Y-105650000D03*
X137600000Y-105650000D03*
X136650000Y-103650000D03*
%TD*%
D16*
%TO.C,R1*%
X147400000Y-122387500D03*
X147400000Y-120812500D03*
%TD*%
%TO.C,R2*%
X152600000Y-120812500D03*
X152600000Y-122387500D03*
%TD*%
D17*
%TO.C,R3*%
X163412500Y-80250000D03*
X164987500Y-80250000D03*
%TD*%
D19*
%TO.C,R4*%
X164987500Y-75750000D03*
X163412500Y-75750000D03*
%TD*%
D17*
%TO.C,R5*%
X164987500Y-77250000D03*
X163412500Y-77250000D03*
%TD*%
%TO.C,R6*%
X138450000Y-69100000D03*
X140025000Y-69100000D03*
%TD*%
D13*
%TO.C,R7*%
X168500000Y-113212500D03*
X168500000Y-114787500D03*
%TD*%
%TO.C,R8*%
X152250000Y-92575000D03*
X152250000Y-91000000D03*
%TD*%
D24*
%TO.C,U1*%
X143971000Y-82590000D03*
X145471000Y-82590000D03*
X146971000Y-82590000D03*
X143971000Y-79590000D03*
X145471000Y-79590000D03*
X146971000Y-79590000D03*
X146971000Y-81090000D03*
X143971000Y-81090000D03*
X145471000Y-81090000D03*
D25*
X153921000Y-71150000D03*
X137421000Y-71150000D03*
X159921000Y-71150000D03*
X138921000Y-71150000D03*
X155421000Y-71150000D03*
X149421000Y-71150000D03*
X158421000Y-71150000D03*
X152421000Y-71150000D03*
X144921000Y-71150000D03*
X156921000Y-71150000D03*
X143421000Y-71150000D03*
X146421000Y-71150000D03*
X150921000Y-71150000D03*
X147921000Y-71150000D03*
X141921000Y-71150000D03*
X140421000Y-71150000D03*
D26*
X160671000Y-74650000D03*
X160671000Y-73150000D03*
X160671000Y-77650000D03*
X160671000Y-76150000D03*
X160671000Y-80650000D03*
X160671000Y-79150000D03*
X160671000Y-83650000D03*
X160671000Y-82150000D03*
X160671000Y-85150000D03*
X160671000Y-86650000D03*
D25*
X158421000Y-88650000D03*
X159921000Y-88650000D03*
X155421000Y-88650000D03*
X156921000Y-88650000D03*
X152421000Y-88650000D03*
X153921000Y-88650000D03*
X149421000Y-88650000D03*
X150921000Y-88650000D03*
X146421000Y-88650000D03*
X147921000Y-88650000D03*
X143421000Y-88650000D03*
X144921000Y-88650000D03*
X140421000Y-88650000D03*
X141921000Y-88650000D03*
X138921000Y-88650000D03*
X137421000Y-88650000D03*
%TD*%
D27*
%TO.C,U2*%
X149050000Y-122300000D03*
X150000000Y-122300000D03*
X150950000Y-122300000D03*
X150950000Y-120100000D03*
X149050000Y-120100000D03*
X150000000Y-120100000D03*
%TD*%
D28*
%TO.C,U4*%
X168535000Y-116812500D03*
X167265000Y-116812500D03*
X167265000Y-123187500D03*
X168535000Y-123187500D03*
%TD*%
D29*
%TO.C,Y1*%
X164000000Y-86000000D03*
X164000000Y-83500000D03*
%TD*%
D16*
%TO.C,C14*%
X152500000Y-96712500D03*
X152500000Y-98287500D03*
%TD*%
%TO.C,C15*%
X147500000Y-96712500D03*
X147500000Y-98287500D03*
%TD*%
D30*
%TO.C,SW1*%
X158100000Y-97500000D03*
X153900000Y-97500000D03*
%TD*%
D31*
%TO.C,SW2*%
X146100000Y-97500000D03*
X141900000Y-97500000D03*
%TD*%
M02*
