%TF.GenerationSoftware,KiCad,Pcbnew,(6.0.1-0)*%
%TF.CreationDate,2022-02-25T00:15:47-05:00*%
%TF.ProjectId,aquabotsBMSModule,61717561-626f-4747-9342-4d534d6f6475,rev?*%
%TF.SameCoordinates,Original*%
%TF.FileFunction,Copper,L1,Top*%
%TF.FilePolarity,Positive*%
%FSLAX46Y46*%
G04 Gerber Fmt 4.6, Leading zero omitted, Abs format (unit mm)*
G04 Created by KiCad (PCBNEW (6.0.1-0)) date 2022-02-25 00:15:47*
%MOMM*%
%LPD*%
G01*
G04 APERTURE LIST*
G04 Aperture macros list*
%AMRoundRect*
0 Rectangle with rounded corners*
0 $1 Rounding radius*
0 $2 $3 $4 $5 $6 $7 $8 $9 X,Y pos of 4 corners*
0 Add a 4 corners polygon primitive as box body*
4,1,4,$2,$3,$4,$5,$6,$7,$8,$9,$2,$3,0*
0 Add four circle primitives for the rounded corners*
1,1,$1+$1,$2,$3*
1,1,$1+$1,$4,$5*
1,1,$1+$1,$6,$7*
1,1,$1+$1,$8,$9*
0 Add four rect primitives between the rounded corners*
20,1,$1+$1,$2,$3,$4,$5,0*
20,1,$1+$1,$4,$5,$6,$7,0*
20,1,$1+$1,$6,$7,$8,$9,0*
20,1,$1+$1,$8,$9,$2,$3,0*%
G04 Aperture macros list end*
%TA.AperFunction,SMDPad,CuDef*%
%ADD10R,2.000000X2.400000*%
%TD*%
%TA.AperFunction,SMDPad,CuDef*%
%ADD11R,2.800000X2.400000*%
%TD*%
%TA.AperFunction,SMDPad,CuDef*%
%ADD12RoundRect,0.150000X-0.825000X-0.150000X0.825000X-0.150000X0.825000X0.150000X-0.825000X0.150000X0*%
%TD*%
%TA.AperFunction,SMDPad,CuDef*%
%ADD13RoundRect,0.243750X-0.243750X-0.456250X0.243750X-0.456250X0.243750X0.456250X-0.243750X0.456250X0*%
%TD*%
%TA.AperFunction,SMDPad,CuDef*%
%ADD14RoundRect,0.243750X0.243750X0.456250X-0.243750X0.456250X-0.243750X-0.456250X0.243750X-0.456250X0*%
%TD*%
%TA.AperFunction,SMDPad,CuDef*%
%ADD15RoundRect,0.250000X-1.450000X0.312500X-1.450000X-0.312500X1.450000X-0.312500X1.450000X0.312500X0*%
%TD*%
%TA.AperFunction,ComponentPad*%
%ADD16RoundRect,0.250000X-0.350000X-0.625000X0.350000X-0.625000X0.350000X0.625000X-0.350000X0.625000X0*%
%TD*%
%TA.AperFunction,ComponentPad*%
%ADD17O,1.200000X1.750000*%
%TD*%
%TA.AperFunction,SMDPad,CuDef*%
%ADD18R,0.800000X0.900000*%
%TD*%
%TA.AperFunction,SMDPad,CuDef*%
%ADD19RoundRect,0.250000X-1.075000X0.425000X-1.075000X-0.425000X1.075000X-0.425000X1.075000X0.425000X0*%
%TD*%
%TA.AperFunction,SMDPad,CuDef*%
%ADD20RoundRect,0.243750X0.456250X-0.243750X0.456250X0.243750X-0.456250X0.243750X-0.456250X-0.243750X0*%
%TD*%
%TA.AperFunction,ComponentPad*%
%ADD21RoundRect,0.250000X0.350000X0.625000X-0.350000X0.625000X-0.350000X-0.625000X0.350000X-0.625000X0*%
%TD*%
%TA.AperFunction,SMDPad,CuDef*%
%ADD22RoundRect,0.150000X-0.662500X-0.150000X0.662500X-0.150000X0.662500X0.150000X-0.662500X0.150000X0*%
%TD*%
%TA.AperFunction,ViaPad*%
%ADD23C,0.800000*%
%TD*%
%TA.AperFunction,Conductor*%
%ADD24C,0.250000*%
%TD*%
%TA.AperFunction,Conductor*%
%ADD25C,0.500000*%
%TD*%
%TA.AperFunction,Conductor*%
%ADD26C,1.000000*%
%TD*%
G04 APERTURE END LIST*
D10*
%TO.P,Y1,2*%
%TO.N,Net-(ATTINY841-Pad2)*%
X132100000Y-57250000D03*
%TO.P,Y1,1*%
%TO.N,Net-(ATTINY841-Pad3)*%
X127900000Y-57250000D03*
%TD*%
D11*
%TO.P,D2,1*%
%TO.N,VCC*%
X124000000Y-98200000D03*
%TO.P,D2,2*%
%TO.N,GND*%
X124000000Y-102800000D03*
%TD*%
D12*
%TO.P,ATTINY841,1*%
%TO.N,VCC*%
X127525000Y-60290000D03*
%TO.P,ATTINY841,2*%
%TO.N,Net-(ATTINY841-Pad2)*%
X127525000Y-61560000D03*
%TO.P,ATTINY841,3*%
%TO.N,Net-(ATTINY841-Pad3)*%
X127525000Y-62830000D03*
%TO.P,ATTINY841,4*%
%TO.N,Net-(ATTINY841-Pad4)*%
X127525000Y-64100000D03*
%TO.P,ATTINY841,5*%
%TO.N,DUMP_LOAD_ENABLE*%
X127525000Y-65370000D03*
%TO.P,ATTINY841,6*%
%TO.N,ENABLE*%
X127525000Y-66640000D03*
%TO.P,ATTINY841,7*%
%TO.N,Net-(ATTINY841-Pad7)*%
X127525000Y-67910000D03*
%TO.P,ATTINY841,8*%
%TO.N,MISO*%
X132475000Y-67910000D03*
%TO.P,ATTINY841,9*%
%TO.N,SCK*%
X132475000Y-66640000D03*
%TO.P,ATTINY841,10*%
%TO.N,Net-(ATTINY841-Pad10)*%
X132475000Y-65370000D03*
%TO.P,ATTINY841,11*%
%TO.N,RXD0*%
X132475000Y-64100000D03*
%TO.P,ATTINY841,12*%
%TO.N,TXD0*%
X132475000Y-62830000D03*
%TO.P,ATTINY841,13*%
%TO.N,VREF*%
X132475000Y-61560000D03*
%TO.P,ATTINY841,14*%
%TO.N,GND*%
X132475000Y-60290000D03*
%TD*%
D13*
%TO.P,C2,1*%
%TO.N,VCC*%
X123125000Y-66167855D03*
%TO.P,C2,2*%
%TO.N,GND*%
X125000000Y-66167855D03*
%TD*%
D14*
%TO.P,C5,1*%
%TO.N,Net-(ATTINY841-Pad3)*%
X125000000Y-60187142D03*
%TO.P,C5,2*%
%TO.N,GND*%
X123125000Y-60187142D03*
%TD*%
D15*
%TO.P,F1,1*%
%TO.N,VCC*%
X136000000Y-100612500D03*
%TO.P,F1,2*%
%TO.N,Net-(F1-Pad2)*%
X136000000Y-104887500D03*
%TD*%
D16*
%TO.P,POWER1,1*%
%TO.N,GND*%
X129000000Y-100000000D03*
D17*
%TO.P,POWER1,2*%
%TO.N,Net-(F1-Pad2)*%
X131000000Y-100000000D03*
%TD*%
D18*
%TO.P,Q1,1*%
%TO.N,Net-(Q1-Pad1)*%
X134800000Y-98750000D03*
%TO.P,Q1,2*%
%TO.N,GND*%
X136700000Y-98750000D03*
%TO.P,Q1,3*%
%TO.N,Net-(Q1-Pad3)*%
X135750000Y-96750000D03*
%TD*%
D13*
%TO.P,R3,1*%
%TO.N,ENABLE*%
X135000000Y-64200000D03*
%TO.P,R3,2*%
%TO.N,Net-(ATTINY841-Pad10)*%
X136875000Y-64200000D03*
%TD*%
%TO.P,R4,1*%
%TO.N,Net-(ATTINY841-Pad10)*%
X135000000Y-66200000D03*
%TO.P,R4,2*%
%TO.N,GND*%
X136875000Y-66200000D03*
%TD*%
%TO.P,R5,1*%
%TO.N,Net-(R5-Pad1)*%
X123125000Y-56200000D03*
%TO.P,R5,2*%
%TO.N,TXD0*%
X125000000Y-56200000D03*
%TD*%
D19*
%TO.P,R8,1*%
%TO.N,Net-(R6-Pad2)*%
X135500000Y-82000000D03*
%TO.P,R8,2*%
%TO.N,Net-(R12-Pad1)*%
X135500000Y-86500000D03*
%TD*%
%TO.P,R12,1*%
%TO.N,Net-(R12-Pad1)*%
X135500000Y-89500000D03*
%TO.P,R12,2*%
%TO.N,Net-(Q1-Pad3)*%
X135500000Y-94000000D03*
%TD*%
D13*
%TO.P,R16,1*%
%TO.N,GND*%
X123125000Y-58200000D03*
%TO.P,R16,2*%
%TO.N,RXD0*%
X125000000Y-58200000D03*
%TD*%
D14*
%TO.P,R18,1*%
%TO.N,GND*%
X125000000Y-68161426D03*
%TO.P,R18,2*%
%TO.N,Net-(D4-Pad1)*%
X123125000Y-68161426D03*
%TD*%
D20*
%TO.P,R19,1*%
%TO.N,VREF*%
X132750000Y-85125000D03*
%TO.P,R19,2*%
%TO.N,SCK*%
X132750000Y-83250000D03*
%TD*%
D13*
%TO.P,R20,1*%
%TO.N,SCK*%
X135000000Y-68161426D03*
%TO.P,R20,2*%
%TO.N,GND*%
X136875000Y-68161426D03*
%TD*%
D19*
%TO.P,R25,1*%
%TO.N,Net-(R22-Pad2)*%
X130000000Y-82000000D03*
%TO.P,R25,2*%
%TO.N,Net-(R25-Pad2)*%
X130000000Y-86500000D03*
%TD*%
%TO.P,R26,1*%
%TO.N,Net-(R24-Pad2)*%
X124500000Y-82000000D03*
%TO.P,R26,2*%
%TO.N,Net-(R26-Pad2)*%
X124500000Y-86500000D03*
%TD*%
%TO.P,R29,1*%
%TO.N,Net-(R25-Pad2)*%
X130000000Y-89500000D03*
%TO.P,R29,2*%
%TO.N,Net-(Q1-Pad3)*%
X130000000Y-94000000D03*
%TD*%
%TO.P,R30,1*%
%TO.N,Net-(R26-Pad2)*%
X124500000Y-89500000D03*
%TO.P,R30,2*%
%TO.N,Net-(Q1-Pad3)*%
X124500000Y-94000000D03*
%TD*%
D21*
%TO.P,RX1,1*%
%TO.N,RXD0*%
X126750000Y-49000000D03*
D17*
%TO.P,RX1,2*%
%TO.N,VCC*%
X124750000Y-49000000D03*
%TD*%
D21*
%TO.P,TX1,1*%
%TO.N,Net-(TX1-Pad1)*%
X135250000Y-49000000D03*
D17*
%TO.P,TX1,2*%
%TO.N,Net-(TX1-Pad2)*%
X133250000Y-49000000D03*
%TD*%
D13*
%TO.P,D4,1*%
%TO.N,Net-(D4-Pad1)*%
X123125000Y-70200000D03*
%TO.P,D4,2*%
%TO.N,Net-(ATTINY841-Pad7)*%
X125000000Y-70200000D03*
%TD*%
D19*
%TO.P,R24,1*%
%TO.N,VCC*%
X124500000Y-74500000D03*
%TO.P,R24,2*%
%TO.N,Net-(R24-Pad2)*%
X124500000Y-79000000D03*
%TD*%
%TO.P,R6,1*%
%TO.N,VCC*%
X135500000Y-74500000D03*
%TO.P,R6,2*%
%TO.N,Net-(R6-Pad2)*%
X135500000Y-79000000D03*
%TD*%
%TO.P,R22,1*%
%TO.N,VCC*%
X130000000Y-74500000D03*
%TO.P,R22,2*%
%TO.N,Net-(R22-Pad2)*%
X130000000Y-79000000D03*
%TD*%
D13*
%TO.P,C4,1*%
%TO.N,Net-(ATTINY841-Pad2)*%
X135000000Y-56200000D03*
%TO.P,C4,2*%
%TO.N,GND*%
X136875000Y-56200000D03*
%TD*%
%TO.P,C1,1*%
%TO.N,VCC*%
X123125000Y-64174284D03*
%TO.P,C1,2*%
%TO.N,GND*%
X125000000Y-64174284D03*
%TD*%
D22*
%TO.P,U1,1*%
%TO.N,Net-(R5-Pad1)*%
X126812500Y-52615000D03*
%TO.P,U1,2*%
%TO.N,GND*%
X126812500Y-53885000D03*
%TO.P,U1,3*%
%TO.N,Net-(TX1-Pad1)*%
X133187500Y-53885000D03*
%TO.P,U1,4*%
%TO.N,Net-(TX1-Pad2)*%
X133187500Y-52615000D03*
%TD*%
D13*
%TO.P,R1,1*%
%TO.N,VCC*%
X123125000Y-62180713D03*
%TO.P,R1,2*%
%TO.N,Net-(ATTINY841-Pad4)*%
X125000000Y-62180713D03*
%TD*%
%TO.P,R2,1*%
%TO.N,ENABLE*%
X135000000Y-62170000D03*
%TO.P,R2,2*%
%TO.N,VREF*%
X136875000Y-62170000D03*
%TD*%
D18*
%TO.P,D1,1*%
%TO.N,VREF*%
X135057500Y-60000000D03*
%TO.P,D1,2*%
X136957500Y-60000000D03*
%TO.P,D1,3*%
%TO.N,GND*%
X136007500Y-58000000D03*
%TD*%
D13*
%TO.P,R14,1*%
%TO.N,Net-(Q1-Pad1)*%
X130832500Y-97000000D03*
%TO.P,R14,2*%
%TO.N,DUMP_LOAD_ENABLE*%
X132707500Y-97000000D03*
%TD*%
D14*
%TO.P,R15,1*%
%TO.N,Net-(Q1-Pad1)*%
X129167500Y-97000000D03*
%TO.P,R15,2*%
%TO.N,GND*%
X127292500Y-97000000D03*
%TD*%
D23*
%TO.N,GND*%
X135250000Y-44750000D03*
X136900000Y-53700000D03*
X127200000Y-91400000D03*
X130100000Y-104500000D03*
X130300000Y-67200000D03*
X131000000Y-54100000D03*
X125600000Y-51100000D03*
X130000000Y-48800000D03*
X127300000Y-98700000D03*
X131000000Y-52450000D03*
X132700000Y-91400000D03*
X127200000Y-76800000D03*
X130000000Y-44750000D03*
X137600000Y-58100000D03*
X128375000Y-53200000D03*
X126200000Y-69000000D03*
X136300000Y-70100000D03*
X124800000Y-44750000D03*
X136400000Y-102900000D03*
X135900000Y-84400000D03*
X137700000Y-77000000D03*
X127300000Y-104500000D03*
X132700000Y-91400000D03*
X134200000Y-58200000D03*
X127200000Y-84300000D03*
%TO.N,VREF*%
X137800000Y-63200000D03*
X133900000Y-84100000D03*
%TO.N,TXD0*%
X130900000Y-60900000D03*
X129800000Y-55500000D03*
%TO.N,RXD0*%
X126200000Y-58200000D03*
X129500000Y-63200000D03*
%TO.N,VCC*%
X132750000Y-74500000D03*
X127250000Y-74500000D03*
X122000000Y-66900000D03*
X129700000Y-59200000D03*
X122000000Y-96500000D03*
X123500000Y-76250000D03*
%TO.N,Net-(F1-Pad2)*%
X133500000Y-104500000D03*
%TO.N,Net-(Q1-Pad3)*%
X127250000Y-94000000D03*
X135750000Y-95450000D03*
X132750000Y-94000000D03*
%TD*%
D24*
%TO.N,GND*%
X123950010Y-63124294D02*
X125000000Y-64174284D01*
X125000000Y-68161426D02*
X125000000Y-66167855D01*
X136007500Y-58000000D02*
X136007500Y-57067500D01*
X125000000Y-66167855D02*
X125000000Y-64174284D01*
X126812500Y-53885000D02*
X127690000Y-53885000D01*
X136007500Y-57067500D02*
X136875000Y-56200000D01*
X123950010Y-61012152D02*
X123950010Y-63124294D01*
X123125000Y-60187142D02*
X123950010Y-61012152D01*
X125000000Y-68161426D02*
X125161426Y-68161426D01*
D25*
X125838574Y-69000000D02*
X125000000Y-68161426D01*
X126200000Y-69000000D02*
X125838574Y-69000000D01*
D24*
X127690000Y-53885000D02*
X128375000Y-53200000D01*
D25*
X125161426Y-68161426D02*
X126100000Y-69100000D01*
D24*
X124000000Y-101900000D02*
X123900000Y-101900000D01*
%TO.N,VREF*%
X135057500Y-60000000D02*
X133497500Y-61560000D01*
X132750000Y-85125000D02*
X132875000Y-85125000D01*
X136875000Y-60082500D02*
X136957500Y-60000000D01*
X133497500Y-61560000D02*
X132475000Y-61560000D01*
X136875000Y-62275000D02*
X137800000Y-63200000D01*
X132875000Y-85125000D02*
X133900000Y-84100000D01*
X136875000Y-62170000D02*
X136875000Y-60082500D01*
X135057500Y-60000000D02*
X136957500Y-60000000D01*
X136875000Y-62170000D02*
X136875000Y-62275000D01*
%TO.N,TXD0*%
X132475000Y-62830000D02*
X131500000Y-62830000D01*
X125700000Y-55500000D02*
X129800000Y-55500000D01*
X125000000Y-56200000D02*
X125700000Y-55500000D01*
X130900000Y-62230000D02*
X130900000Y-60900000D01*
X131500000Y-62830000D02*
X130900000Y-62230000D01*
%TO.N,RXD0*%
X124187490Y-57387490D02*
X124187490Y-55508160D01*
X125185640Y-54510010D02*
X128571758Y-54510010D01*
X126200000Y-58200000D02*
X125000000Y-58200000D01*
X124187490Y-55508160D02*
X125185640Y-54510010D01*
X127500000Y-49000000D02*
X126750000Y-49000000D01*
X128571758Y-54510010D02*
X129100000Y-53981768D01*
X132475000Y-64100000D02*
X130400000Y-64100000D01*
X129100000Y-50600000D02*
X127500000Y-49000000D01*
X129100000Y-53981768D02*
X129100000Y-50600000D01*
X130400000Y-64100000D02*
X129500000Y-63200000D01*
X125000000Y-58200000D02*
X124187490Y-57387490D01*
%TO.N,Net-(ATTINY841-Pad10)*%
X134170000Y-65370000D02*
X135000000Y-66200000D01*
X136875000Y-64200000D02*
X135000000Y-66075000D01*
X135000000Y-66075000D02*
X135000000Y-66200000D01*
X132475000Y-65370000D02*
X134170000Y-65370000D01*
%TO.N,SCK*%
X135313190Y-77086810D02*
X137300000Y-75100000D01*
X134100000Y-77100000D02*
X135313190Y-77100000D01*
X135000000Y-68161426D02*
X135000000Y-70900000D01*
X137300000Y-75100000D02*
X137300000Y-73200000D01*
X135000000Y-70900000D02*
X137300000Y-73200000D01*
X132750000Y-83250000D02*
X132750000Y-78450000D01*
X133478574Y-66640000D02*
X135000000Y-68161426D01*
X132750000Y-78450000D02*
X134100000Y-77100000D01*
X132475000Y-66640000D02*
X133478574Y-66640000D01*
%TO.N,Net-(ATTINY841-Pad7)*%
X125000000Y-70200000D02*
X126600000Y-70200000D01*
X126600000Y-70200000D02*
X127525000Y-69275000D01*
X127525000Y-69275000D02*
X127525000Y-67910000D01*
%TO.N,ENABLE*%
X134474990Y-64725010D02*
X135000000Y-64200000D01*
X126550000Y-66640000D02*
X126224990Y-66314990D01*
X127525000Y-66640000D02*
X126550000Y-66640000D01*
X126224990Y-65023242D02*
X126523222Y-64725010D01*
X126523222Y-64725010D02*
X134474990Y-64725010D01*
X126224990Y-66314990D02*
X126224990Y-65023242D01*
X135000000Y-64200000D02*
X135000000Y-62170000D01*
%TO.N,DUMP_LOAD_ENABLE*%
X128825010Y-68611400D02*
X125836410Y-71600000D01*
X122000000Y-95250000D02*
X122250000Y-95500000D01*
X132707500Y-97000000D02*
X131207500Y-95500000D01*
X127525000Y-65370000D02*
X128500000Y-65370000D01*
X122000000Y-73762546D02*
X122000000Y-95250000D01*
X128500000Y-65370000D02*
X128825010Y-65695010D01*
X124162546Y-71600000D02*
X122000000Y-73762546D01*
X125836410Y-71600000D02*
X124162546Y-71600000D01*
X131207500Y-95500000D02*
X122250000Y-95500000D01*
X128825010Y-65695010D02*
X128825010Y-68611400D01*
%TO.N,Net-(ATTINY841-Pad4)*%
X127525000Y-64100000D02*
X126919287Y-64100000D01*
X126919287Y-64100000D02*
X125000000Y-62180713D01*
%TO.N,Net-(ATTINY841-Pad3)*%
X125000000Y-60187142D02*
X125487500Y-60187142D01*
X128150000Y-57524642D02*
X128150000Y-57250000D01*
X125812510Y-62092510D02*
X125812510Y-60999652D01*
X126550000Y-62830000D02*
X125812510Y-62092510D01*
X127525000Y-62830000D02*
X126550000Y-62830000D01*
X125812510Y-60999652D02*
X125000000Y-60187142D01*
X125487500Y-60187142D02*
X128150000Y-57524642D01*
%TO.N,Net-(ATTINY841-Pad2)*%
X132900000Y-56200000D02*
X131850000Y-57250000D01*
X127525000Y-61560000D02*
X128500000Y-61560000D01*
X128500000Y-61560000D02*
X131850000Y-58210000D01*
X135000000Y-56200000D02*
X132900000Y-56200000D01*
X131850000Y-58210000D02*
X131850000Y-57250000D01*
D26*
%TO.N,VCC*%
X127900010Y-101900000D02*
X127550000Y-101900000D01*
X136000000Y-100612500D02*
X134712500Y-101900000D01*
X122500000Y-97000000D02*
X122000000Y-96500000D01*
X123850000Y-98350000D02*
X122500000Y-97000000D01*
X124500000Y-74500000D02*
X124500000Y-75250000D01*
D25*
X128610000Y-60290000D02*
X129700000Y-59200000D01*
D26*
X135500000Y-74500000D02*
X130000000Y-74500000D01*
X127550000Y-101900000D02*
X124000000Y-98350000D01*
X124500000Y-74500000D02*
X130000000Y-74500000D01*
X134712500Y-101900000D02*
X133300000Y-101900000D01*
D25*
X127525000Y-60290000D02*
X128610000Y-60290000D01*
D26*
X123125000Y-66167855D02*
X122732145Y-66167855D01*
X123125000Y-66167855D02*
X123125000Y-64174284D01*
X122732145Y-66167855D02*
X122000000Y-66900000D01*
X123125000Y-62180713D02*
X123125000Y-64174284D01*
X124000000Y-98350000D02*
X123850000Y-98350000D01*
X133300000Y-101900000D02*
X127900010Y-101900000D01*
X124500000Y-75250000D02*
X123500000Y-76250000D01*
D24*
%TO.N,Net-(D4-Pad1)*%
X123125000Y-68161426D02*
X123125000Y-70200000D01*
D26*
%TO.N,Net-(F1-Pad2)*%
X136000000Y-104887500D02*
X133887500Y-104887500D01*
X133887500Y-104887500D02*
X133500000Y-104500000D01*
%TO.N,Net-(Q1-Pad3)*%
X135750000Y-95450000D02*
X135750000Y-94250000D01*
X132800000Y-94000000D02*
X130000000Y-94000000D01*
X127200000Y-94000000D02*
X124500000Y-94000000D01*
X135750000Y-94250000D02*
X135500000Y-94000000D01*
X135500000Y-94000000D02*
X132800000Y-94000000D01*
X135750000Y-96750000D02*
X135750000Y-95450000D01*
X130000000Y-94000000D02*
X127200000Y-94000000D01*
D24*
%TO.N,Net-(Q1-Pad1)*%
X132582500Y-98750000D02*
X130832500Y-97000000D01*
X130832500Y-97000000D02*
X129167500Y-97000000D01*
X134800000Y-98750000D02*
X132582500Y-98750000D01*
%TO.N,Net-(R5-Pad1)*%
X123125000Y-56200000D02*
X123125000Y-55500000D01*
X123125000Y-55500000D02*
X126010000Y-52615000D01*
X126010000Y-52615000D02*
X126812500Y-52615000D01*
D26*
%TO.N,Net-(R6-Pad2)*%
X135500000Y-79000000D02*
X135500000Y-82000000D01*
%TO.N,Net-(R12-Pad1)*%
X135500000Y-89500000D02*
X135500000Y-86500000D01*
%TO.N,Net-(R22-Pad2)*%
X130000000Y-79000000D02*
X130000000Y-82000000D01*
%TO.N,Net-(R24-Pad2)*%
X124500000Y-79000000D02*
X124500000Y-82000000D01*
%TO.N,Net-(R25-Pad2)*%
X130000000Y-89500000D02*
X130000000Y-86500000D01*
%TO.N,Net-(R26-Pad2)*%
X124500000Y-89500000D02*
X124500000Y-86500000D01*
D24*
%TO.N,Net-(TX1-Pad2)*%
X133187500Y-49062500D02*
X133250000Y-49000000D01*
X133187500Y-52615000D02*
X133187500Y-49062500D01*
%TO.N,Net-(TX1-Pad1)*%
X135250000Y-52635000D02*
X135250000Y-49000000D01*
X133187500Y-53885000D02*
X134000000Y-53885000D01*
X134000000Y-53885000D02*
X135250000Y-52635000D01*
%TD*%
%TA.AperFunction,Conductor*%
%TO.N,GND*%
G36*
X138427958Y-63957775D02*
G01*
X138477438Y-64008689D01*
X138492000Y-64067489D01*
X138492000Y-106366000D01*
X138471998Y-106434121D01*
X138418342Y-106480614D01*
X138366000Y-106492000D01*
X121634000Y-106492000D01*
X121565879Y-106471998D01*
X121519386Y-106418342D01*
X121508000Y-106366000D01*
X121508000Y-104044669D01*
X122092001Y-104044669D01*
X122092371Y-104051490D01*
X122097895Y-104102352D01*
X122101521Y-104117604D01*
X122146676Y-104238054D01*
X122155214Y-104253649D01*
X122231715Y-104355724D01*
X122244276Y-104368285D01*
X122346351Y-104444786D01*
X122361946Y-104453324D01*
X122482394Y-104498478D01*
X122497649Y-104502105D01*
X122548514Y-104507631D01*
X122555328Y-104508000D01*
X123727885Y-104508000D01*
X123743124Y-104503525D01*
X123744329Y-104502135D01*
X123746000Y-104494452D01*
X123746000Y-104489884D01*
X124254000Y-104489884D01*
X124258475Y-104505123D01*
X124259865Y-104506328D01*
X124267548Y-104507999D01*
X125444669Y-104507999D01*
X125451490Y-104507629D01*
X125502352Y-104502105D01*
X125517604Y-104498479D01*
X125541854Y-104489388D01*
X132486676Y-104489388D01*
X132503913Y-104686413D01*
X132505632Y-104692330D01*
X132505633Y-104692335D01*
X132543614Y-104823064D01*
X132559091Y-104876336D01*
X132650108Y-105051926D01*
X132653948Y-105056736D01*
X132744542Y-105170223D01*
X132744549Y-105170230D01*
X132746738Y-105172973D01*
X133130652Y-105556887D01*
X133139742Y-105567017D01*
X133163468Y-105596525D01*
X133168192Y-105600489D01*
X133201921Y-105628791D01*
X133205569Y-105631972D01*
X133207381Y-105633615D01*
X133209575Y-105635809D01*
X133242849Y-105663142D01*
X133243647Y-105663804D01*
X133314974Y-105723654D01*
X133319644Y-105726222D01*
X133323761Y-105729603D01*
X133405620Y-105773495D01*
X133406780Y-105774124D01*
X133482889Y-105815966D01*
X133482894Y-105815968D01*
X133488287Y-105818933D01*
X133493365Y-105820544D01*
X133498063Y-105823063D01*
X133586998Y-105850253D01*
X133588202Y-105850628D01*
X133676806Y-105878735D01*
X133682097Y-105879328D01*
X133687198Y-105880888D01*
X133779811Y-105890295D01*
X133780931Y-105890415D01*
X133830727Y-105896000D01*
X133834256Y-105896000D01*
X133835239Y-105896055D01*
X133840926Y-105896503D01*
X133861183Y-105898560D01*
X133877836Y-105900252D01*
X133877839Y-105900252D01*
X133883963Y-105900874D01*
X133929612Y-105896559D01*
X133941469Y-105896000D01*
X134218625Y-105896000D01*
X134258292Y-105902407D01*
X134388611Y-105945632D01*
X134388613Y-105945632D01*
X134395139Y-105947797D01*
X134401975Y-105948497D01*
X134401978Y-105948498D01*
X134445031Y-105952909D01*
X134499600Y-105958500D01*
X137500400Y-105958500D01*
X137503646Y-105958163D01*
X137503650Y-105958163D01*
X137599308Y-105948238D01*
X137599312Y-105948237D01*
X137606166Y-105947526D01*
X137612702Y-105945345D01*
X137612704Y-105945345D01*
X137766998Y-105893868D01*
X137773946Y-105891550D01*
X137924348Y-105798478D01*
X137949288Y-105773495D01*
X138044134Y-105678483D01*
X138049305Y-105673303D01*
X138076743Y-105628791D01*
X138138275Y-105528968D01*
X138138276Y-105528966D01*
X138142115Y-105522738D01*
X138197797Y-105354861D01*
X138208500Y-105250400D01*
X138208500Y-104524600D01*
X138206778Y-104507999D01*
X138198238Y-104425692D01*
X138198237Y-104425688D01*
X138197526Y-104418834D01*
X138180662Y-104368285D01*
X138143868Y-104258002D01*
X138141550Y-104251054D01*
X138048478Y-104100652D01*
X137923303Y-103975695D01*
X137917072Y-103971854D01*
X137778968Y-103886725D01*
X137778966Y-103886724D01*
X137772738Y-103882885D01*
X137644833Y-103840461D01*
X137611389Y-103829368D01*
X137611387Y-103829368D01*
X137604861Y-103827203D01*
X137598025Y-103826503D01*
X137598022Y-103826502D01*
X137554969Y-103822091D01*
X137500400Y-103816500D01*
X134499600Y-103816500D01*
X134496354Y-103816837D01*
X134496350Y-103816837D01*
X134466417Y-103819943D01*
X134393834Y-103827474D01*
X134369902Y-103835459D01*
X134362652Y-103837877D01*
X134291702Y-103840461D01*
X134233682Y-103807448D01*
X134177925Y-103751691D01*
X134063739Y-103657897D01*
X133889437Y-103564438D01*
X133780781Y-103531218D01*
X133706200Y-103508416D01*
X133706198Y-103508416D01*
X133700302Y-103506613D01*
X133642449Y-103500736D01*
X133509666Y-103487248D01*
X133509661Y-103487248D01*
X133503538Y-103486626D01*
X133379475Y-103498354D01*
X133312771Y-103504659D01*
X133312769Y-103504659D01*
X133306638Y-103505239D01*
X133211871Y-103533490D01*
X133123007Y-103559981D01*
X133123005Y-103559982D01*
X133117104Y-103561741D01*
X132942154Y-103653982D01*
X132788453Y-103778447D01*
X132784508Y-103783182D01*
X132701439Y-103882885D01*
X132661854Y-103930396D01*
X132567178Y-104104041D01*
X132565335Y-104109923D01*
X132523060Y-104244824D01*
X132508035Y-104292768D01*
X132507370Y-104298891D01*
X132507369Y-104298895D01*
X132487341Y-104483263D01*
X132486676Y-104489388D01*
X125541854Y-104489388D01*
X125638054Y-104453324D01*
X125653649Y-104444786D01*
X125755724Y-104368285D01*
X125768285Y-104355724D01*
X125844786Y-104253649D01*
X125853324Y-104238054D01*
X125898478Y-104117606D01*
X125902105Y-104102351D01*
X125907631Y-104051486D01*
X125908000Y-104044672D01*
X125908000Y-103072115D01*
X125903525Y-103056876D01*
X125902135Y-103055671D01*
X125894452Y-103054000D01*
X124272115Y-103054000D01*
X124256876Y-103058475D01*
X124255671Y-103059865D01*
X124254000Y-103067548D01*
X124254000Y-104489884D01*
X123746000Y-104489884D01*
X123746000Y-103072115D01*
X123741525Y-103056876D01*
X123740135Y-103055671D01*
X123732452Y-103054000D01*
X122110116Y-103054000D01*
X122094877Y-103058475D01*
X122093672Y-103059865D01*
X122092001Y-103067548D01*
X122092001Y-104044669D01*
X121508000Y-104044669D01*
X121508000Y-102527885D01*
X122092000Y-102527885D01*
X122096475Y-102543124D01*
X122097865Y-102544329D01*
X122105548Y-102546000D01*
X123727885Y-102546000D01*
X123743124Y-102541525D01*
X123744329Y-102540135D01*
X123746000Y-102532452D01*
X123746000Y-101110116D01*
X123741525Y-101094877D01*
X123740135Y-101093672D01*
X123732452Y-101092001D01*
X122555331Y-101092001D01*
X122548510Y-101092371D01*
X122497648Y-101097895D01*
X122482396Y-101101521D01*
X122361946Y-101146676D01*
X122346351Y-101155214D01*
X122244276Y-101231715D01*
X122231715Y-101244276D01*
X122155214Y-101346351D01*
X122146676Y-101361946D01*
X122101522Y-101482394D01*
X122097895Y-101497649D01*
X122092369Y-101548514D01*
X122092000Y-101555328D01*
X122092000Y-102527885D01*
X121508000Y-102527885D01*
X121508000Y-97738425D01*
X121528002Y-97670304D01*
X121581658Y-97623811D01*
X121651932Y-97613707D01*
X121716512Y-97643201D01*
X121723095Y-97649330D01*
X122054595Y-97980830D01*
X122088621Y-98043142D01*
X122091500Y-98069925D01*
X122091500Y-99448134D01*
X122098255Y-99510316D01*
X122149385Y-99646705D01*
X122236739Y-99763261D01*
X122353295Y-99850615D01*
X122489684Y-99901745D01*
X122551866Y-99908500D01*
X124080075Y-99908500D01*
X124148196Y-99928502D01*
X124169170Y-99945405D01*
X125100670Y-100876905D01*
X125134696Y-100939217D01*
X125129631Y-101010032D01*
X125087084Y-101066868D01*
X125020564Y-101091679D01*
X125011575Y-101092000D01*
X124272115Y-101092000D01*
X124256876Y-101096475D01*
X124255671Y-101097865D01*
X124254000Y-101105548D01*
X124254000Y-102527885D01*
X124258475Y-102543124D01*
X124259865Y-102544329D01*
X124267548Y-102546000D01*
X125889884Y-102546000D01*
X125905123Y-102541525D01*
X125906328Y-102540135D01*
X125907999Y-102532452D01*
X125907999Y-101988423D01*
X125928001Y-101920302D01*
X125981657Y-101873809D01*
X126051931Y-101863705D01*
X126116511Y-101893199D01*
X126123094Y-101899328D01*
X126793145Y-102569379D01*
X126802247Y-102579522D01*
X126825968Y-102609025D01*
X126837933Y-102619065D01*
X126864421Y-102641291D01*
X126868069Y-102644472D01*
X126869881Y-102646115D01*
X126872075Y-102648309D01*
X126905349Y-102675642D01*
X126906147Y-102676304D01*
X126977474Y-102736154D01*
X126982144Y-102738722D01*
X126986261Y-102742103D01*
X127006079Y-102752729D01*
X127068086Y-102785977D01*
X127069245Y-102786606D01*
X127145381Y-102828462D01*
X127145389Y-102828465D01*
X127150787Y-102831433D01*
X127155869Y-102833045D01*
X127160563Y-102835562D01*
X127249531Y-102862762D01*
X127250559Y-102863082D01*
X127339306Y-102891235D01*
X127344602Y-102891829D01*
X127349698Y-102893387D01*
X127442257Y-102902790D01*
X127443393Y-102902911D01*
X127477008Y-102906681D01*
X127489730Y-102908108D01*
X127489734Y-102908108D01*
X127493227Y-102908500D01*
X127496754Y-102908500D01*
X127497739Y-102908555D01*
X127503419Y-102909002D01*
X127532825Y-102911989D01*
X127540337Y-102912752D01*
X127540339Y-102912752D01*
X127546462Y-102913374D01*
X127592108Y-102909059D01*
X127603967Y-102908500D01*
X134650657Y-102908500D01*
X134664264Y-102909237D01*
X134695762Y-102912659D01*
X134695767Y-102912659D01*
X134701888Y-102913324D01*
X134728138Y-102911027D01*
X134751888Y-102908950D01*
X134756714Y-102908621D01*
X134759186Y-102908500D01*
X134762269Y-102908500D01*
X134774238Y-102907326D01*
X134805006Y-102904310D01*
X134806319Y-102904188D01*
X134850584Y-102900315D01*
X134898913Y-102896087D01*
X134904032Y-102894600D01*
X134909333Y-102894080D01*
X134998334Y-102867209D01*
X134999467Y-102866874D01*
X135082914Y-102842630D01*
X135082918Y-102842628D01*
X135088836Y-102840909D01*
X135093568Y-102838456D01*
X135098669Y-102836916D01*
X135105673Y-102833192D01*
X135180760Y-102793269D01*
X135181926Y-102792657D01*
X135258953Y-102752729D01*
X135264426Y-102749892D01*
X135268589Y-102746569D01*
X135273296Y-102744066D01*
X135345418Y-102685245D01*
X135346274Y-102684554D01*
X135385473Y-102653262D01*
X135387977Y-102650758D01*
X135388695Y-102650116D01*
X135393028Y-102646415D01*
X135426562Y-102619065D01*
X135455791Y-102583733D01*
X135463772Y-102574963D01*
X136318329Y-101720405D01*
X136380642Y-101686380D01*
X136407425Y-101683500D01*
X137500400Y-101683500D01*
X137503646Y-101683163D01*
X137503650Y-101683163D01*
X137599308Y-101673238D01*
X137599312Y-101673237D01*
X137606166Y-101672526D01*
X137612702Y-101670345D01*
X137612704Y-101670345D01*
X137766998Y-101618868D01*
X137773946Y-101616550D01*
X137924348Y-101523478D01*
X138049305Y-101398303D01*
X138142115Y-101247738D01*
X138190613Y-101101521D01*
X138195632Y-101086389D01*
X138195632Y-101086387D01*
X138197797Y-101079861D01*
X138208500Y-100975400D01*
X138208500Y-100249600D01*
X138197526Y-100143834D01*
X138192244Y-100128000D01*
X138143868Y-99983002D01*
X138141550Y-99976054D01*
X138048478Y-99825652D01*
X137923303Y-99700695D01*
X137872160Y-99669170D01*
X137778968Y-99611725D01*
X137778966Y-99611724D01*
X137772738Y-99607885D01*
X137645240Y-99565596D01*
X137586880Y-99525166D01*
X137559643Y-99459601D01*
X137566925Y-99401773D01*
X137598478Y-99317606D01*
X137602105Y-99302351D01*
X137607631Y-99251486D01*
X137608000Y-99244672D01*
X137608000Y-99022115D01*
X137603525Y-99006876D01*
X137602135Y-99005671D01*
X137594452Y-99004000D01*
X136572000Y-99004000D01*
X136503879Y-98983998D01*
X136457386Y-98930342D01*
X136446000Y-98878000D01*
X136446000Y-98477885D01*
X136954000Y-98477885D01*
X136958475Y-98493124D01*
X136959865Y-98494329D01*
X136967548Y-98496000D01*
X137589884Y-98496000D01*
X137605123Y-98491525D01*
X137606328Y-98490135D01*
X137607999Y-98482452D01*
X137607999Y-98255331D01*
X137607629Y-98248510D01*
X137602105Y-98197648D01*
X137598479Y-98182396D01*
X137553324Y-98061946D01*
X137544786Y-98046351D01*
X137468285Y-97944276D01*
X137455724Y-97931715D01*
X137353649Y-97855214D01*
X137338054Y-97846676D01*
X137217606Y-97801522D01*
X137202351Y-97797895D01*
X137151486Y-97792369D01*
X137144672Y-97792000D01*
X136972115Y-97792000D01*
X136956876Y-97796475D01*
X136955671Y-97797865D01*
X136954000Y-97805548D01*
X136954000Y-98477885D01*
X136446000Y-98477885D01*
X136446000Y-97810116D01*
X136438528Y-97784669D01*
X136411181Y-97742115D01*
X136411181Y-97671118D01*
X136449566Y-97611393D01*
X136456512Y-97605792D01*
X136506081Y-97568642D01*
X136513261Y-97563261D01*
X136600615Y-97446705D01*
X136651745Y-97310316D01*
X136658500Y-97248134D01*
X136658500Y-97223280D01*
X136674085Y-97162579D01*
X136678467Y-97154608D01*
X136681433Y-97149213D01*
X136683846Y-97141608D01*
X136739373Y-96966564D01*
X136739373Y-96966563D01*
X136741235Y-96960694D01*
X136758500Y-96806773D01*
X136758500Y-95254197D01*
X136778502Y-95186076D01*
X136832158Y-95139583D01*
X136844623Y-95134674D01*
X136892002Y-95118867D01*
X136892004Y-95118866D01*
X136898946Y-95116550D01*
X137049348Y-95023478D01*
X137174305Y-94898303D01*
X137267115Y-94747738D01*
X137322797Y-94579861D01*
X137333500Y-94475400D01*
X137333500Y-93524600D01*
X137322526Y-93418834D01*
X137266550Y-93251054D01*
X137173478Y-93100652D01*
X137048303Y-92975695D01*
X137042072Y-92971854D01*
X136903968Y-92886725D01*
X136903966Y-92886724D01*
X136897738Y-92882885D01*
X136737254Y-92829655D01*
X136736389Y-92829368D01*
X136736387Y-92829368D01*
X136729861Y-92827203D01*
X136723025Y-92826503D01*
X136723022Y-92826502D01*
X136679969Y-92822091D01*
X136625400Y-92816500D01*
X134374600Y-92816500D01*
X134371354Y-92816837D01*
X134371350Y-92816837D01*
X134275692Y-92826762D01*
X134275688Y-92826763D01*
X134268834Y-92827474D01*
X134262298Y-92829655D01*
X134262296Y-92829655D01*
X134130194Y-92873728D01*
X134101054Y-92883450D01*
X133956919Y-92972644D01*
X133890616Y-92991500D01*
X131609658Y-92991500D01*
X131543542Y-92972760D01*
X131403968Y-92886725D01*
X131403966Y-92886724D01*
X131397738Y-92882885D01*
X131237254Y-92829655D01*
X131236389Y-92829368D01*
X131236387Y-92829368D01*
X131229861Y-92827203D01*
X131223025Y-92826503D01*
X131223022Y-92826502D01*
X131179969Y-92822091D01*
X131125400Y-92816500D01*
X128874600Y-92816500D01*
X128871354Y-92816837D01*
X128871350Y-92816837D01*
X128775692Y-92826762D01*
X128775688Y-92826763D01*
X128768834Y-92827474D01*
X128762298Y-92829655D01*
X128762296Y-92829655D01*
X128630194Y-92873728D01*
X128601054Y-92883450D01*
X128456919Y-92972644D01*
X128390616Y-92991500D01*
X126109658Y-92991500D01*
X126043542Y-92972760D01*
X125903968Y-92886725D01*
X125903966Y-92886724D01*
X125897738Y-92882885D01*
X125737254Y-92829655D01*
X125736389Y-92829368D01*
X125736387Y-92829368D01*
X125729861Y-92827203D01*
X125723025Y-92826503D01*
X125723022Y-92826502D01*
X125679969Y-92822091D01*
X125625400Y-92816500D01*
X123374600Y-92816500D01*
X123371354Y-92816837D01*
X123371350Y-92816837D01*
X123275692Y-92826762D01*
X123275688Y-92826763D01*
X123268834Y-92827474D01*
X123262298Y-92829655D01*
X123262296Y-92829655D01*
X123130194Y-92873728D01*
X123101054Y-92883450D01*
X122950652Y-92976522D01*
X122945479Y-92981704D01*
X122848673Y-93078679D01*
X122786391Y-93112758D01*
X122715570Y-93107755D01*
X122658698Y-93065258D01*
X122633829Y-92998759D01*
X122633500Y-92989661D01*
X122633500Y-90510479D01*
X122653502Y-90442358D01*
X122707158Y-90395865D01*
X122777432Y-90385761D01*
X122842012Y-90415255D01*
X122848518Y-90421306D01*
X122951697Y-90524305D01*
X122957927Y-90528145D01*
X122957928Y-90528146D01*
X123095090Y-90612694D01*
X123102262Y-90617115D01*
X123182005Y-90643564D01*
X123263611Y-90670632D01*
X123263613Y-90670632D01*
X123270139Y-90672797D01*
X123276975Y-90673497D01*
X123276978Y-90673498D01*
X123320031Y-90677909D01*
X123374600Y-90683500D01*
X125625400Y-90683500D01*
X125628646Y-90683163D01*
X125628650Y-90683163D01*
X125724308Y-90673238D01*
X125724312Y-90673237D01*
X125731166Y-90672526D01*
X125737702Y-90670345D01*
X125737704Y-90670345D01*
X125869806Y-90626272D01*
X125898946Y-90616550D01*
X126049348Y-90523478D01*
X126174305Y-90398303D01*
X126267115Y-90247738D01*
X126322797Y-90079861D01*
X126333500Y-89975400D01*
X126333500Y-89024600D01*
X126322526Y-88918834D01*
X126266550Y-88751054D01*
X126173478Y-88600652D01*
X126048303Y-88475695D01*
X126042072Y-88471854D01*
X125903968Y-88386725D01*
X125903966Y-88386724D01*
X125897738Y-88382885D01*
X125737254Y-88329655D01*
X125736389Y-88329368D01*
X125736387Y-88329368D01*
X125729861Y-88327203D01*
X125723025Y-88326503D01*
X125723022Y-88326502D01*
X125628594Y-88316827D01*
X125628589Y-88316827D01*
X125625400Y-88316500D01*
X125625463Y-88315886D01*
X125561066Y-88293354D01*
X125517368Y-88237398D01*
X125508500Y-88190965D01*
X125508500Y-87809029D01*
X125528502Y-87740908D01*
X125582158Y-87694415D01*
X125625433Y-87683823D01*
X125625400Y-87683500D01*
X125627745Y-87683257D01*
X125627747Y-87683256D01*
X125628646Y-87683163D01*
X125628650Y-87683163D01*
X125724308Y-87673238D01*
X125724312Y-87673237D01*
X125731166Y-87672526D01*
X125737702Y-87670345D01*
X125737704Y-87670345D01*
X125869806Y-87626272D01*
X125898946Y-87616550D01*
X126049348Y-87523478D01*
X126174305Y-87398303D01*
X126267115Y-87247738D01*
X126322797Y-87079861D01*
X126333500Y-86975400D01*
X126333500Y-86024600D01*
X126333163Y-86021350D01*
X126323238Y-85925692D01*
X126323237Y-85925688D01*
X126322526Y-85918834D01*
X126266550Y-85751054D01*
X126173478Y-85600652D01*
X126048303Y-85475695D01*
X125955889Y-85418730D01*
X125903968Y-85386725D01*
X125903966Y-85386724D01*
X125897738Y-85382885D01*
X125737254Y-85329655D01*
X125736389Y-85329368D01*
X125736387Y-85329368D01*
X125729861Y-85327203D01*
X125723025Y-85326503D01*
X125723022Y-85326502D01*
X125679969Y-85322091D01*
X125625400Y-85316500D01*
X123374600Y-85316500D01*
X123371354Y-85316837D01*
X123371350Y-85316837D01*
X123275692Y-85326762D01*
X123275688Y-85326763D01*
X123268834Y-85327474D01*
X123262298Y-85329655D01*
X123262296Y-85329655D01*
X123139447Y-85370641D01*
X123101054Y-85383450D01*
X122950652Y-85476522D01*
X122945479Y-85481704D01*
X122848673Y-85578679D01*
X122786391Y-85612758D01*
X122715570Y-85607755D01*
X122658698Y-85565258D01*
X122633829Y-85498759D01*
X122633500Y-85489661D01*
X122633500Y-83010479D01*
X122653502Y-82942358D01*
X122707158Y-82895865D01*
X122777432Y-82885761D01*
X122842012Y-82915255D01*
X122848518Y-82921306D01*
X122951697Y-83024305D01*
X122957927Y-83028145D01*
X122957928Y-83028146D01*
X123095090Y-83112694D01*
X123102262Y-83117115D01*
X123124018Y-83124331D01*
X123263611Y-83170632D01*
X123263613Y-83170632D01*
X123270139Y-83172797D01*
X123276975Y-83173497D01*
X123276978Y-83173498D01*
X123320031Y-83177909D01*
X123374600Y-83183500D01*
X125625400Y-83183500D01*
X125628646Y-83183163D01*
X125628650Y-83183163D01*
X125724308Y-83173238D01*
X125724312Y-83173237D01*
X125731166Y-83172526D01*
X125737702Y-83170345D01*
X125737704Y-83170345D01*
X125883369Y-83121747D01*
X125898946Y-83116550D01*
X126049348Y-83023478D01*
X126174305Y-82898303D01*
X126267115Y-82747738D01*
X126322797Y-82579861D01*
X126333500Y-82475400D01*
X126333500Y-81524600D01*
X126322526Y-81418834D01*
X126266550Y-81251054D01*
X126173478Y-81100652D01*
X126048303Y-80975695D01*
X126042072Y-80971854D01*
X125903968Y-80886725D01*
X125903966Y-80886724D01*
X125897738Y-80882885D01*
X125737254Y-80829655D01*
X125736389Y-80829368D01*
X125736387Y-80829368D01*
X125729861Y-80827203D01*
X125723025Y-80826503D01*
X125723022Y-80826502D01*
X125628594Y-80816827D01*
X125628589Y-80816827D01*
X125625400Y-80816500D01*
X125625463Y-80815886D01*
X125561066Y-80793354D01*
X125517368Y-80737398D01*
X125508500Y-80690965D01*
X125508500Y-80309029D01*
X125528502Y-80240908D01*
X125582158Y-80194415D01*
X125625433Y-80183823D01*
X125625400Y-80183500D01*
X125627745Y-80183257D01*
X125627747Y-80183256D01*
X125628646Y-80183163D01*
X125628650Y-80183163D01*
X125724308Y-80173238D01*
X125724312Y-80173237D01*
X125731166Y-80172526D01*
X125737702Y-80170345D01*
X125737704Y-80170345D01*
X125869806Y-80126272D01*
X125898946Y-80116550D01*
X126049348Y-80023478D01*
X126174305Y-79898303D01*
X126267115Y-79747738D01*
X126322797Y-79579861D01*
X126333500Y-79475400D01*
X126333500Y-78524600D01*
X126329476Y-78485819D01*
X126323238Y-78425692D01*
X126323237Y-78425688D01*
X126322526Y-78418834D01*
X126266550Y-78251054D01*
X126173478Y-78100652D01*
X126048303Y-77975695D01*
X126000694Y-77946348D01*
X125903968Y-77886725D01*
X125903966Y-77886724D01*
X125897738Y-77882885D01*
X125737254Y-77829655D01*
X125736389Y-77829368D01*
X125736387Y-77829368D01*
X125729861Y-77827203D01*
X125723025Y-77826503D01*
X125723022Y-77826502D01*
X125679969Y-77822091D01*
X125625400Y-77816500D01*
X123374600Y-77816500D01*
X123371354Y-77816837D01*
X123371350Y-77816837D01*
X123275692Y-77826762D01*
X123275688Y-77826763D01*
X123268834Y-77827474D01*
X123262298Y-77829655D01*
X123262296Y-77829655D01*
X123130194Y-77873728D01*
X123101054Y-77883450D01*
X122950652Y-77976522D01*
X122945479Y-77981704D01*
X122848673Y-78078679D01*
X122786391Y-78112758D01*
X122715570Y-78107755D01*
X122658698Y-78065258D01*
X122633829Y-77998759D01*
X122633500Y-77989661D01*
X122633500Y-77109763D01*
X122653502Y-77041642D01*
X122707158Y-76995149D01*
X122777432Y-76985045D01*
X122840153Y-77012959D01*
X122930396Y-77088146D01*
X123104041Y-77182822D01*
X123198404Y-77212393D01*
X123286886Y-77240122D01*
X123286889Y-77240123D01*
X123292768Y-77241965D01*
X123298891Y-77242630D01*
X123298895Y-77242631D01*
X123483263Y-77262659D01*
X123483267Y-77262659D01*
X123489388Y-77263324D01*
X123686413Y-77246087D01*
X123692330Y-77244368D01*
X123692335Y-77244367D01*
X123823064Y-77206386D01*
X123876336Y-77190909D01*
X124051926Y-77099892D01*
X124124895Y-77041642D01*
X124170223Y-77005458D01*
X124170230Y-77005451D01*
X124172973Y-77003262D01*
X125169379Y-76006855D01*
X125179522Y-75997753D01*
X125204218Y-75977897D01*
X125209025Y-75974032D01*
X125241292Y-75935578D01*
X125244473Y-75931930D01*
X125246117Y-75930117D01*
X125248309Y-75927925D01*
X125275580Y-75894724D01*
X125276362Y-75893782D01*
X125277848Y-75892012D01*
X125305915Y-75858563D01*
X125332193Y-75827247D01*
X125332195Y-75827244D01*
X125336154Y-75822526D01*
X125338723Y-75817853D01*
X125342103Y-75813738D01*
X125376302Y-75749958D01*
X125426121Y-75699375D01*
X125487346Y-75683500D01*
X125625400Y-75683500D01*
X125628646Y-75683163D01*
X125628650Y-75683163D01*
X125724308Y-75673238D01*
X125724312Y-75673237D01*
X125731166Y-75672526D01*
X125737702Y-75670345D01*
X125737704Y-75670345D01*
X125869806Y-75626272D01*
X125898946Y-75616550D01*
X126043081Y-75527356D01*
X126109384Y-75508500D01*
X128390342Y-75508500D01*
X128456458Y-75527240D01*
X128596032Y-75613275D01*
X128602262Y-75617115D01*
X128682005Y-75643564D01*
X128763611Y-75670632D01*
X128763613Y-75670632D01*
X128770139Y-75672797D01*
X128776975Y-75673497D01*
X128776978Y-75673498D01*
X128820031Y-75677909D01*
X128874600Y-75683500D01*
X131125400Y-75683500D01*
X131128646Y-75683163D01*
X131128650Y-75683163D01*
X131224308Y-75673238D01*
X131224312Y-75673237D01*
X131231166Y-75672526D01*
X131237702Y-75670345D01*
X131237704Y-75670345D01*
X131369806Y-75626272D01*
X131398946Y-75616550D01*
X131543081Y-75527356D01*
X131609384Y-75508500D01*
X133890342Y-75508500D01*
X133956458Y-75527240D01*
X134096032Y-75613275D01*
X134102262Y-75617115D01*
X134182005Y-75643564D01*
X134263611Y-75670632D01*
X134263613Y-75670632D01*
X134270139Y-75672797D01*
X134276975Y-75673497D01*
X134276978Y-75673498D01*
X134320031Y-75677909D01*
X134374600Y-75683500D01*
X135516405Y-75683500D01*
X135584526Y-75703502D01*
X135631019Y-75757158D01*
X135641123Y-75827432D01*
X135611629Y-75892012D01*
X135605500Y-75898595D01*
X135074500Y-76429595D01*
X135012188Y-76463621D01*
X134985405Y-76466500D01*
X134178767Y-76466500D01*
X134167584Y-76465973D01*
X134160091Y-76464298D01*
X134152165Y-76464547D01*
X134152164Y-76464547D01*
X134092014Y-76466438D01*
X134088055Y-76466500D01*
X134060144Y-76466500D01*
X134056210Y-76466997D01*
X134056209Y-76466997D01*
X134056144Y-76467005D01*
X134044307Y-76467938D01*
X134012490Y-76468938D01*
X134008029Y-76469078D01*
X134000110Y-76469327D01*
X133982454Y-76474456D01*
X133980658Y-76474978D01*
X133961306Y-76478986D01*
X133954235Y-76479880D01*
X133941203Y-76481526D01*
X133933834Y-76484443D01*
X133933832Y-76484444D01*
X133900097Y-76497800D01*
X133888869Y-76501645D01*
X133846407Y-76513982D01*
X133839585Y-76518016D01*
X133839579Y-76518019D01*
X133828968Y-76524294D01*
X133811218Y-76532990D01*
X133799756Y-76537528D01*
X133799751Y-76537531D01*
X133792383Y-76540448D01*
X133785968Y-76545109D01*
X133756625Y-76566427D01*
X133746707Y-76572943D01*
X133728019Y-76583995D01*
X133708637Y-76595458D01*
X133694313Y-76609782D01*
X133679281Y-76622621D01*
X133662893Y-76634528D01*
X133634712Y-76668593D01*
X133626722Y-76677373D01*
X132357747Y-77946348D01*
X132349461Y-77953888D01*
X132342982Y-77958000D01*
X132337557Y-77963777D01*
X132296357Y-78007651D01*
X132293602Y-78010493D01*
X132273865Y-78030230D01*
X132271385Y-78033427D01*
X132263682Y-78042447D01*
X132233414Y-78074679D01*
X132229595Y-78081625D01*
X132229593Y-78081628D01*
X132223652Y-78092434D01*
X132212801Y-78108953D01*
X132200386Y-78124959D01*
X132197241Y-78132228D01*
X132197238Y-78132232D01*
X132182826Y-78165537D01*
X132177609Y-78176187D01*
X132156305Y-78214940D01*
X132154334Y-78222615D01*
X132154334Y-78222616D01*
X132151267Y-78234562D01*
X132144863Y-78253266D01*
X132136819Y-78271855D01*
X132135580Y-78279678D01*
X132135577Y-78279688D01*
X132129901Y-78315524D01*
X132127495Y-78327144D01*
X132116500Y-78369970D01*
X132116500Y-78390224D01*
X132114949Y-78409934D01*
X132111780Y-78429943D01*
X132112526Y-78437835D01*
X132115941Y-78473961D01*
X132116500Y-78485819D01*
X132116500Y-82181556D01*
X132096498Y-82249677D01*
X132042842Y-82296170D01*
X132030378Y-82301079D01*
X131999378Y-82311422D01*
X131928429Y-82314008D01*
X131867344Y-82277825D01*
X131835518Y-82214361D01*
X131833500Y-82191899D01*
X131833500Y-81524600D01*
X131822526Y-81418834D01*
X131766550Y-81251054D01*
X131673478Y-81100652D01*
X131548303Y-80975695D01*
X131542072Y-80971854D01*
X131403968Y-80886725D01*
X131403966Y-80886724D01*
X131397738Y-80882885D01*
X131237254Y-80829655D01*
X131236389Y-80829368D01*
X131236387Y-80829368D01*
X131229861Y-80827203D01*
X131223025Y-80826503D01*
X131223022Y-80826502D01*
X131128594Y-80816827D01*
X131128589Y-80816827D01*
X131125400Y-80816500D01*
X131125463Y-80815886D01*
X131061066Y-80793354D01*
X131017368Y-80737398D01*
X131008500Y-80690965D01*
X131008500Y-80309029D01*
X131028502Y-80240908D01*
X131082158Y-80194415D01*
X131125433Y-80183823D01*
X131125400Y-80183500D01*
X131127745Y-80183257D01*
X131127747Y-80183256D01*
X131128646Y-80183163D01*
X131128650Y-80183163D01*
X131224308Y-80173238D01*
X131224312Y-80173237D01*
X131231166Y-80172526D01*
X131237702Y-80170345D01*
X131237704Y-80170345D01*
X131369806Y-80126272D01*
X131398946Y-80116550D01*
X131549348Y-80023478D01*
X131674305Y-79898303D01*
X131767115Y-79747738D01*
X131822797Y-79579861D01*
X131833500Y-79475400D01*
X131833500Y-78524600D01*
X131829476Y-78485819D01*
X131823238Y-78425692D01*
X131823237Y-78425688D01*
X131822526Y-78418834D01*
X131766550Y-78251054D01*
X131673478Y-78100652D01*
X131548303Y-77975695D01*
X131500694Y-77946348D01*
X131403968Y-77886725D01*
X131403966Y-77886724D01*
X131397738Y-77882885D01*
X131237254Y-77829655D01*
X131236389Y-77829368D01*
X131236387Y-77829368D01*
X131229861Y-77827203D01*
X131223025Y-77826503D01*
X131223022Y-77826502D01*
X131179969Y-77822091D01*
X131125400Y-77816500D01*
X128874600Y-77816500D01*
X128871354Y-77816837D01*
X128871350Y-77816837D01*
X128775692Y-77826762D01*
X128775688Y-77826763D01*
X128768834Y-77827474D01*
X128762298Y-77829655D01*
X128762296Y-77829655D01*
X128630194Y-77873728D01*
X128601054Y-77883450D01*
X128450652Y-77976522D01*
X128325695Y-78101697D01*
X128321855Y-78107927D01*
X128321854Y-78107928D01*
X128255891Y-78214940D01*
X128232885Y-78252262D01*
X128226386Y-78271855D01*
X128183836Y-78400142D01*
X128177203Y-78420139D01*
X128166500Y-78524600D01*
X128166500Y-79475400D01*
X128177474Y-79581166D01*
X128233450Y-79748946D01*
X128326522Y-79899348D01*
X128451697Y-80024305D01*
X128457927Y-80028145D01*
X128457928Y-80028146D01*
X128595090Y-80112694D01*
X128602262Y-80117115D01*
X128682005Y-80143564D01*
X128763611Y-80170632D01*
X128763613Y-80170632D01*
X128770139Y-80172797D01*
X128776975Y-80173497D01*
X128776978Y-80173498D01*
X128871406Y-80183173D01*
X128871411Y-80183173D01*
X128874600Y-80183500D01*
X128874537Y-80184114D01*
X128938934Y-80206646D01*
X128982632Y-80262602D01*
X128991500Y-80309035D01*
X128991500Y-80690971D01*
X128971498Y-80759092D01*
X128917842Y-80805585D01*
X128874567Y-80816177D01*
X128874600Y-80816500D01*
X128872255Y-80816743D01*
X128872253Y-80816744D01*
X128871354Y-80816837D01*
X128871350Y-80816837D01*
X128775692Y-80826762D01*
X128775688Y-80826763D01*
X128768834Y-80827474D01*
X128762298Y-80829655D01*
X128762296Y-80829655D01*
X128630194Y-80873728D01*
X128601054Y-80883450D01*
X128450652Y-80976522D01*
X128325695Y-81101697D01*
X128232885Y-81252262D01*
X128177203Y-81420139D01*
X128166500Y-81524600D01*
X128166500Y-82475400D01*
X128177474Y-82581166D01*
X128233450Y-82748946D01*
X128326522Y-82899348D01*
X128451697Y-83024305D01*
X128457927Y-83028145D01*
X128457928Y-83028146D01*
X128595090Y-83112694D01*
X128602262Y-83117115D01*
X128624018Y-83124331D01*
X128763611Y-83170632D01*
X128763613Y-83170632D01*
X128770139Y-83172797D01*
X128776975Y-83173497D01*
X128776978Y-83173498D01*
X128820031Y-83177909D01*
X128874600Y-83183500D01*
X131125400Y-83183500D01*
X131128646Y-83183163D01*
X131128650Y-83183163D01*
X131224308Y-83173238D01*
X131224312Y-83173237D01*
X131231166Y-83172526D01*
X131237702Y-83170345D01*
X131237704Y-83170345D01*
X131375624Y-83124331D01*
X131446573Y-83121747D01*
X131507657Y-83157930D01*
X131539482Y-83221395D01*
X131541500Y-83243855D01*
X131541501Y-83411436D01*
X131541501Y-83543730D01*
X131552384Y-83648629D01*
X131554563Y-83655160D01*
X131554564Y-83655165D01*
X131577103Y-83722721D01*
X131607898Y-83815026D01*
X131700203Y-83964189D01*
X131824347Y-84088117D01*
X131827270Y-84089919D01*
X131867408Y-84146529D01*
X131870642Y-84217452D01*
X131835018Y-84278864D01*
X131828622Y-84284416D01*
X131823311Y-84287703D01*
X131699383Y-84411847D01*
X131607339Y-84561171D01*
X131605034Y-84568119D01*
X131605034Y-84568120D01*
X131584103Y-84631226D01*
X131552115Y-84727665D01*
X131541500Y-84831269D01*
X131541501Y-85118396D01*
X131541501Y-85256027D01*
X131521499Y-85324147D01*
X131467844Y-85370641D01*
X131397570Y-85380745D01*
X131375836Y-85375620D01*
X131229861Y-85327203D01*
X131223025Y-85326503D01*
X131223022Y-85326502D01*
X131179969Y-85322091D01*
X131125400Y-85316500D01*
X128874600Y-85316500D01*
X128871354Y-85316837D01*
X128871350Y-85316837D01*
X128775692Y-85326762D01*
X128775688Y-85326763D01*
X128768834Y-85327474D01*
X128762298Y-85329655D01*
X128762296Y-85329655D01*
X128639447Y-85370641D01*
X128601054Y-85383450D01*
X128450652Y-85476522D01*
X128325695Y-85601697D01*
X128232885Y-85752262D01*
X128177203Y-85920139D01*
X128166500Y-86024600D01*
X128166500Y-86975400D01*
X128177474Y-87081166D01*
X128233450Y-87248946D01*
X128326522Y-87399348D01*
X128451697Y-87524305D01*
X128457927Y-87528145D01*
X128457928Y-87528146D01*
X128595090Y-87612694D01*
X128602262Y-87617115D01*
X128682005Y-87643564D01*
X128763611Y-87670632D01*
X128763613Y-87670632D01*
X128770139Y-87672797D01*
X128776975Y-87673497D01*
X128776978Y-87673498D01*
X128871406Y-87683173D01*
X128871411Y-87683173D01*
X128874600Y-87683500D01*
X128874537Y-87684114D01*
X128938934Y-87706646D01*
X128982632Y-87762602D01*
X128991500Y-87809035D01*
X128991500Y-88190971D01*
X128971498Y-88259092D01*
X128917842Y-88305585D01*
X128874567Y-88316177D01*
X128874600Y-88316500D01*
X128872255Y-88316743D01*
X128872253Y-88316744D01*
X128871354Y-88316837D01*
X128871350Y-88316837D01*
X128775692Y-88326762D01*
X128775688Y-88326763D01*
X128768834Y-88327474D01*
X128762298Y-88329655D01*
X128762296Y-88329655D01*
X128630194Y-88373728D01*
X128601054Y-88383450D01*
X128450652Y-88476522D01*
X128325695Y-88601697D01*
X128232885Y-88752262D01*
X128177203Y-88920139D01*
X128166500Y-89024600D01*
X128166500Y-89975400D01*
X128177474Y-90081166D01*
X128233450Y-90248946D01*
X128326522Y-90399348D01*
X128451697Y-90524305D01*
X128457927Y-90528145D01*
X128457928Y-90528146D01*
X128595090Y-90612694D01*
X128602262Y-90617115D01*
X128682005Y-90643564D01*
X128763611Y-90670632D01*
X128763613Y-90670632D01*
X128770139Y-90672797D01*
X128776975Y-90673497D01*
X128776978Y-90673498D01*
X128820031Y-90677909D01*
X128874600Y-90683500D01*
X131125400Y-90683500D01*
X131128646Y-90683163D01*
X131128650Y-90683163D01*
X131224308Y-90673238D01*
X131224312Y-90673237D01*
X131231166Y-90672526D01*
X131237702Y-90670345D01*
X131237704Y-90670345D01*
X131369806Y-90626272D01*
X131398946Y-90616550D01*
X131549348Y-90523478D01*
X131674305Y-90398303D01*
X131767115Y-90247738D01*
X131822797Y-90079861D01*
X131833500Y-89975400D01*
X131833500Y-89024600D01*
X131822526Y-88918834D01*
X131766550Y-88751054D01*
X131673478Y-88600652D01*
X131548303Y-88475695D01*
X131542072Y-88471854D01*
X131403968Y-88386725D01*
X131403966Y-88386724D01*
X131397738Y-88382885D01*
X131237254Y-88329655D01*
X131236389Y-88329368D01*
X131236387Y-88329368D01*
X131229861Y-88327203D01*
X131223025Y-88326503D01*
X131223022Y-88326502D01*
X131128594Y-88316827D01*
X131128589Y-88316827D01*
X131125400Y-88316500D01*
X131125463Y-88315886D01*
X131061066Y-88293354D01*
X131017368Y-88237398D01*
X131008500Y-88190965D01*
X131008500Y-87809029D01*
X131028502Y-87740908D01*
X131082158Y-87694415D01*
X131125433Y-87683823D01*
X131125400Y-87683500D01*
X131127745Y-87683257D01*
X131127747Y-87683256D01*
X131128646Y-87683163D01*
X131128650Y-87683163D01*
X131224308Y-87673238D01*
X131224312Y-87673237D01*
X131231166Y-87672526D01*
X131237702Y-87670345D01*
X131237704Y-87670345D01*
X131369806Y-87626272D01*
X131398946Y-87616550D01*
X131549348Y-87523478D01*
X131674305Y-87398303D01*
X131767115Y-87247738D01*
X131822797Y-87079861D01*
X131833500Y-86975400D01*
X131833500Y-86183211D01*
X131853502Y-86115090D01*
X131907158Y-86068597D01*
X131977432Y-86058493D01*
X131999168Y-86063618D01*
X132133634Y-86108219D01*
X132133636Y-86108219D01*
X132140165Y-86110385D01*
X132243769Y-86121000D01*
X132746096Y-86121000D01*
X133256230Y-86120999D01*
X133361129Y-86110116D01*
X133367660Y-86107937D01*
X133367665Y-86107936D01*
X133473098Y-86072761D01*
X133500624Y-86063577D01*
X133571573Y-86060993D01*
X133632657Y-86097177D01*
X133664482Y-86160641D01*
X133666500Y-86183101D01*
X133666500Y-86975400D01*
X133677474Y-87081166D01*
X133733450Y-87248946D01*
X133826522Y-87399348D01*
X133951697Y-87524305D01*
X133957927Y-87528145D01*
X133957928Y-87528146D01*
X134095090Y-87612694D01*
X134102262Y-87617115D01*
X134182005Y-87643564D01*
X134263611Y-87670632D01*
X134263613Y-87670632D01*
X134270139Y-87672797D01*
X134276975Y-87673497D01*
X134276978Y-87673498D01*
X134371406Y-87683173D01*
X134371411Y-87683173D01*
X134374600Y-87683500D01*
X134374537Y-87684114D01*
X134438934Y-87706646D01*
X134482632Y-87762602D01*
X134491500Y-87809035D01*
X134491500Y-88190971D01*
X134471498Y-88259092D01*
X134417842Y-88305585D01*
X134374567Y-88316177D01*
X134374600Y-88316500D01*
X134372255Y-88316743D01*
X134372253Y-88316744D01*
X134371354Y-88316837D01*
X134371350Y-88316837D01*
X134275692Y-88326762D01*
X134275688Y-88326763D01*
X134268834Y-88327474D01*
X134262298Y-88329655D01*
X134262296Y-88329655D01*
X134130194Y-88373728D01*
X134101054Y-88383450D01*
X133950652Y-88476522D01*
X133825695Y-88601697D01*
X133732885Y-88752262D01*
X133677203Y-88920139D01*
X133666500Y-89024600D01*
X133666500Y-89975400D01*
X133677474Y-90081166D01*
X133733450Y-90248946D01*
X133826522Y-90399348D01*
X133951697Y-90524305D01*
X133957927Y-90528145D01*
X133957928Y-90528146D01*
X134095090Y-90612694D01*
X134102262Y-90617115D01*
X134182005Y-90643564D01*
X134263611Y-90670632D01*
X134263613Y-90670632D01*
X134270139Y-90672797D01*
X134276975Y-90673497D01*
X134276978Y-90673498D01*
X134320031Y-90677909D01*
X134374600Y-90683500D01*
X136625400Y-90683500D01*
X136628646Y-90683163D01*
X136628650Y-90683163D01*
X136724308Y-90673238D01*
X136724312Y-90673237D01*
X136731166Y-90672526D01*
X136737702Y-90670345D01*
X136737704Y-90670345D01*
X136869806Y-90626272D01*
X136898946Y-90616550D01*
X137049348Y-90523478D01*
X137174305Y-90398303D01*
X137267115Y-90247738D01*
X137322797Y-90079861D01*
X137333500Y-89975400D01*
X137333500Y-89024600D01*
X137322526Y-88918834D01*
X137266550Y-88751054D01*
X137173478Y-88600652D01*
X137048303Y-88475695D01*
X137042072Y-88471854D01*
X136903968Y-88386725D01*
X136903966Y-88386724D01*
X136897738Y-88382885D01*
X136737254Y-88329655D01*
X136736389Y-88329368D01*
X136736387Y-88329368D01*
X136729861Y-88327203D01*
X136723025Y-88326503D01*
X136723022Y-88326502D01*
X136628594Y-88316827D01*
X136628589Y-88316827D01*
X136625400Y-88316500D01*
X136625463Y-88315886D01*
X136561066Y-88293354D01*
X136517368Y-88237398D01*
X136508500Y-88190965D01*
X136508500Y-87809029D01*
X136528502Y-87740908D01*
X136582158Y-87694415D01*
X136625433Y-87683823D01*
X136625400Y-87683500D01*
X136627745Y-87683257D01*
X136627747Y-87683256D01*
X136628646Y-87683163D01*
X136628650Y-87683163D01*
X136724308Y-87673238D01*
X136724312Y-87673237D01*
X136731166Y-87672526D01*
X136737702Y-87670345D01*
X136737704Y-87670345D01*
X136869806Y-87626272D01*
X136898946Y-87616550D01*
X137049348Y-87523478D01*
X137174305Y-87398303D01*
X137267115Y-87247738D01*
X137322797Y-87079861D01*
X137333500Y-86975400D01*
X137333500Y-86024600D01*
X137333163Y-86021350D01*
X137323238Y-85925692D01*
X137323237Y-85925688D01*
X137322526Y-85918834D01*
X137266550Y-85751054D01*
X137173478Y-85600652D01*
X137048303Y-85475695D01*
X136955889Y-85418730D01*
X136903968Y-85386725D01*
X136903966Y-85386724D01*
X136897738Y-85382885D01*
X136737254Y-85329655D01*
X136736389Y-85329368D01*
X136736387Y-85329368D01*
X136729861Y-85327203D01*
X136723025Y-85326503D01*
X136723022Y-85326502D01*
X136679969Y-85322091D01*
X136625400Y-85316500D01*
X134374600Y-85316500D01*
X134371354Y-85316837D01*
X134371350Y-85316837D01*
X134275692Y-85326762D01*
X134275688Y-85326763D01*
X134268834Y-85327474D01*
X134262298Y-85329655D01*
X134262296Y-85329655D01*
X134124376Y-85375669D01*
X134053427Y-85378253D01*
X133992343Y-85342070D01*
X133960518Y-85278605D01*
X133958500Y-85256146D01*
X133958499Y-85118396D01*
X133978501Y-85050275D01*
X134032156Y-85003782D01*
X134058300Y-84995149D01*
X134182288Y-84968794D01*
X134188319Y-84966109D01*
X134350722Y-84893803D01*
X134350724Y-84893802D01*
X134356752Y-84891118D01*
X134511253Y-84778866D01*
X134639040Y-84636944D01*
X134734527Y-84471556D01*
X134793542Y-84289928D01*
X134801160Y-84217452D01*
X134812814Y-84106565D01*
X134813504Y-84100000D01*
X134793542Y-83910072D01*
X134734527Y-83728444D01*
X134639040Y-83563056D01*
X134511253Y-83421134D01*
X134497905Y-83411436D01*
X134454551Y-83355213D01*
X134448476Y-83284477D01*
X134481608Y-83221685D01*
X134543428Y-83186774D01*
X134571966Y-83183500D01*
X136625400Y-83183500D01*
X136628646Y-83183163D01*
X136628650Y-83183163D01*
X136724308Y-83173238D01*
X136724312Y-83173237D01*
X136731166Y-83172526D01*
X136737702Y-83170345D01*
X136737704Y-83170345D01*
X136883369Y-83121747D01*
X136898946Y-83116550D01*
X137049348Y-83023478D01*
X137174305Y-82898303D01*
X137267115Y-82747738D01*
X137322797Y-82579861D01*
X137333500Y-82475400D01*
X137333500Y-81524600D01*
X137322526Y-81418834D01*
X137266550Y-81251054D01*
X137173478Y-81100652D01*
X137048303Y-80975695D01*
X137042072Y-80971854D01*
X136903968Y-80886725D01*
X136903966Y-80886724D01*
X136897738Y-80882885D01*
X136737254Y-80829655D01*
X136736389Y-80829368D01*
X136736387Y-80829368D01*
X136729861Y-80827203D01*
X136723025Y-80826503D01*
X136723022Y-80826502D01*
X136628594Y-80816827D01*
X136628589Y-80816827D01*
X136625400Y-80816500D01*
X136625463Y-80815886D01*
X136561066Y-80793354D01*
X136517368Y-80737398D01*
X136508500Y-80690965D01*
X136508500Y-80309029D01*
X136528502Y-80240908D01*
X136582158Y-80194415D01*
X136625433Y-80183823D01*
X136625400Y-80183500D01*
X136627745Y-80183257D01*
X136627747Y-80183256D01*
X136628646Y-80183163D01*
X136628650Y-80183163D01*
X136724308Y-80173238D01*
X136724312Y-80173237D01*
X136731166Y-80172526D01*
X136737702Y-80170345D01*
X136737704Y-80170345D01*
X136869806Y-80126272D01*
X136898946Y-80116550D01*
X137049348Y-80023478D01*
X137174305Y-79898303D01*
X137267115Y-79747738D01*
X137322797Y-79579861D01*
X137333500Y-79475400D01*
X137333500Y-78524600D01*
X137329476Y-78485819D01*
X137323238Y-78425692D01*
X137323237Y-78425688D01*
X137322526Y-78418834D01*
X137266550Y-78251054D01*
X137173478Y-78100652D01*
X137048303Y-77975695D01*
X137000694Y-77946348D01*
X136903968Y-77886725D01*
X136903966Y-77886724D01*
X136897738Y-77882885D01*
X136737254Y-77829655D01*
X136736389Y-77829368D01*
X136736387Y-77829368D01*
X136729861Y-77827203D01*
X136723025Y-77826503D01*
X136723022Y-77826502D01*
X136679969Y-77822091D01*
X136625400Y-77816500D01*
X135792575Y-77816500D01*
X135724454Y-77796498D01*
X135677961Y-77742842D01*
X135667857Y-77672568D01*
X135697351Y-77607988D01*
X135718511Y-77588566D01*
X135750297Y-77565472D01*
X135841657Y-77455037D01*
X135849646Y-77446258D01*
X137692247Y-75603657D01*
X137700537Y-75596113D01*
X137707018Y-75592000D01*
X137753659Y-75542332D01*
X137756413Y-75539491D01*
X137776135Y-75519769D01*
X137778612Y-75516576D01*
X137786317Y-75507555D01*
X137811159Y-75481100D01*
X137816586Y-75475321D01*
X137820407Y-75468371D01*
X137826346Y-75457568D01*
X137837202Y-75441041D01*
X137844757Y-75431302D01*
X137844758Y-75431300D01*
X137849614Y-75425040D01*
X137867174Y-75384460D01*
X137872391Y-75373812D01*
X137889875Y-75342009D01*
X137889876Y-75342007D01*
X137893695Y-75335060D01*
X137898733Y-75315437D01*
X137905137Y-75296734D01*
X137910033Y-75285420D01*
X137910033Y-75285419D01*
X137913181Y-75278145D01*
X137914420Y-75270322D01*
X137914423Y-75270312D01*
X137920099Y-75234476D01*
X137922505Y-75222856D01*
X137931528Y-75187711D01*
X137931528Y-75187710D01*
X137933500Y-75180030D01*
X137933500Y-75159776D01*
X137935051Y-75140065D01*
X137936980Y-75127886D01*
X137938220Y-75120057D01*
X137934059Y-75076038D01*
X137933500Y-75064181D01*
X137933500Y-73278767D01*
X137934027Y-73267584D01*
X137935702Y-73260091D01*
X137933562Y-73192014D01*
X137933500Y-73188055D01*
X137933500Y-73160144D01*
X137932995Y-73156144D01*
X137932062Y-73144301D01*
X137932039Y-73143546D01*
X137930673Y-73100110D01*
X137925022Y-73080658D01*
X137921014Y-73061306D01*
X137919467Y-73049063D01*
X137918474Y-73041203D01*
X137915556Y-73033832D01*
X137902200Y-73000097D01*
X137898355Y-72988870D01*
X137897721Y-72986687D01*
X137886018Y-72946407D01*
X137881984Y-72939585D01*
X137881981Y-72939579D01*
X137875706Y-72928968D01*
X137867010Y-72911218D01*
X137862472Y-72899756D01*
X137862469Y-72899751D01*
X137859552Y-72892383D01*
X137833573Y-72856625D01*
X137827057Y-72846707D01*
X137808575Y-72815457D01*
X137804542Y-72808637D01*
X137790218Y-72794313D01*
X137777376Y-72779278D01*
X137765472Y-72762893D01*
X137731406Y-72734711D01*
X137722627Y-72726722D01*
X135670405Y-70674500D01*
X135636379Y-70612188D01*
X135633500Y-70585405D01*
X135633500Y-69331357D01*
X135653502Y-69263236D01*
X135693196Y-69224214D01*
X135714189Y-69211223D01*
X135838117Y-69087079D01*
X135840114Y-69083839D01*
X135896852Y-69043612D01*
X135967775Y-69040379D01*
X136029187Y-69076004D01*
X136036566Y-69084504D01*
X136043282Y-69092978D01*
X136156979Y-69206477D01*
X136168390Y-69215489D01*
X136305154Y-69299791D01*
X136318332Y-69305935D01*
X136471240Y-69356653D01*
X136484606Y-69359519D01*
X136578101Y-69369098D01*
X136584516Y-69369426D01*
X136602885Y-69369426D01*
X136618124Y-69364951D01*
X136619329Y-69363561D01*
X136621000Y-69355878D01*
X136621000Y-69351310D01*
X137129000Y-69351310D01*
X137133475Y-69366549D01*
X137134865Y-69367754D01*
X137142548Y-69369425D01*
X137165433Y-69369425D01*
X137171952Y-69369088D01*
X137266670Y-69359260D01*
X137280064Y-69356368D01*
X137432865Y-69305390D01*
X137446043Y-69299216D01*
X137582649Y-69214682D01*
X137594050Y-69205646D01*
X137707551Y-69091947D01*
X137716563Y-69080536D01*
X137800865Y-68943772D01*
X137807009Y-68930594D01*
X137857727Y-68777686D01*
X137860593Y-68764320D01*
X137870172Y-68670825D01*
X137870500Y-68664410D01*
X137870500Y-68433541D01*
X137866025Y-68418302D01*
X137864635Y-68417097D01*
X137856952Y-68415426D01*
X137147115Y-68415426D01*
X137131876Y-68419901D01*
X137130671Y-68421291D01*
X137129000Y-68428974D01*
X137129000Y-69351310D01*
X136621000Y-69351310D01*
X136621000Y-67889311D01*
X137129000Y-67889311D01*
X137133475Y-67904550D01*
X137134865Y-67905755D01*
X137142548Y-67907426D01*
X137852384Y-67907426D01*
X137867623Y-67902951D01*
X137868828Y-67901561D01*
X137870499Y-67893878D01*
X137870499Y-67658493D01*
X137870162Y-67651974D01*
X137860334Y-67557256D01*
X137857442Y-67543862D01*
X137806464Y-67391061D01*
X137800290Y-67377883D01*
X137719384Y-67247140D01*
X137700546Y-67178688D01*
X137719268Y-67114721D01*
X137800865Y-66982346D01*
X137807009Y-66969168D01*
X137857727Y-66816260D01*
X137860593Y-66802894D01*
X137870172Y-66709399D01*
X137870500Y-66702984D01*
X137870500Y-66472115D01*
X137866025Y-66456876D01*
X137864635Y-66455671D01*
X137856952Y-66454000D01*
X137147115Y-66454000D01*
X137131876Y-66458475D01*
X137130671Y-66459865D01*
X137129000Y-66467548D01*
X137129000Y-67889311D01*
X136621000Y-67889311D01*
X136621000Y-66072000D01*
X136641002Y-66003879D01*
X136694658Y-65957386D01*
X136747000Y-65946000D01*
X137852384Y-65946000D01*
X137867623Y-65941525D01*
X137868828Y-65940135D01*
X137870499Y-65932452D01*
X137870499Y-65697067D01*
X137870162Y-65690548D01*
X137860334Y-65595830D01*
X137857442Y-65582436D01*
X137806464Y-65429635D01*
X137800290Y-65416457D01*
X137715754Y-65279847D01*
X137714812Y-65278659D01*
X137714422Y-65277695D01*
X137711902Y-65273623D01*
X137712599Y-65273192D01*
X137688177Y-65212848D01*
X137701351Y-65143084D01*
X137711484Y-65127289D01*
X137713117Y-65125653D01*
X137805161Y-64976329D01*
X137807466Y-64969380D01*
X137858219Y-64816366D01*
X137858219Y-64816364D01*
X137860385Y-64809835D01*
X137871000Y-64706231D01*
X137870999Y-64215737D01*
X137891001Y-64147617D01*
X137944656Y-64101124D01*
X137970800Y-64092492D01*
X138082288Y-64068794D01*
X138217287Y-64008689D01*
X138250722Y-63993803D01*
X138250724Y-63993802D01*
X138256752Y-63991118D01*
X138291939Y-63965553D01*
X138358806Y-63941695D01*
X138427958Y-63957775D01*
G37*
%TD.AperFunction*%
%TA.AperFunction,Conductor*%
G36*
X126286353Y-96153502D02*
G01*
X126332846Y-96207158D01*
X126342950Y-96277432D01*
X126337825Y-96299168D01*
X126309772Y-96383743D01*
X126306907Y-96397106D01*
X126297328Y-96490601D01*
X126297000Y-96497016D01*
X126297000Y-96727885D01*
X126301475Y-96743124D01*
X126302865Y-96744329D01*
X126310548Y-96746000D01*
X127420500Y-96746000D01*
X127488621Y-96766002D01*
X127535114Y-96819658D01*
X127546500Y-96872000D01*
X127546500Y-98189884D01*
X127550975Y-98205123D01*
X127552365Y-98206328D01*
X127560048Y-98207999D01*
X127582933Y-98207999D01*
X127589452Y-98207662D01*
X127684170Y-98197834D01*
X127697564Y-98194942D01*
X127850365Y-98143964D01*
X127863543Y-98137790D01*
X128000149Y-98053256D01*
X128011550Y-98044220D01*
X128125051Y-97930521D01*
X128130794Y-97923249D01*
X128188711Y-97882186D01*
X128259634Y-97878954D01*
X128321046Y-97914579D01*
X128326840Y-97921254D01*
X128330203Y-97926689D01*
X128454347Y-98050617D01*
X128603671Y-98142661D01*
X128610619Y-98144966D01*
X128610620Y-98144966D01*
X128763634Y-98195719D01*
X128763636Y-98195719D01*
X128770165Y-98197885D01*
X128873769Y-98208500D01*
X129165234Y-98208500D01*
X129461230Y-98208499D01*
X129566129Y-98197616D01*
X129572660Y-98195437D01*
X129572665Y-98195436D01*
X129725578Y-98144420D01*
X129732526Y-98142102D01*
X129881689Y-98049797D01*
X129910883Y-98020552D01*
X129973165Y-97986473D01*
X130043985Y-97991476D01*
X130089073Y-98020397D01*
X130114162Y-98045442D01*
X130114167Y-98045446D01*
X130119347Y-98050617D01*
X130268671Y-98142661D01*
X130275619Y-98144966D01*
X130275620Y-98144966D01*
X130428634Y-98195719D01*
X130428636Y-98195719D01*
X130435165Y-98197885D01*
X130538769Y-98208500D01*
X130590485Y-98208500D01*
X131092904Y-98208499D01*
X131161025Y-98228501D01*
X131181999Y-98245404D01*
X131365102Y-98428507D01*
X131399128Y-98490819D01*
X131394063Y-98561634D01*
X131351516Y-98618470D01*
X131284996Y-98643281D01*
X131257929Y-98642298D01*
X131154193Y-98627257D01*
X131060336Y-98613648D01*
X131060333Y-98613648D01*
X131054396Y-98612787D01*
X130843101Y-98622567D01*
X130757151Y-98643281D01*
X130643299Y-98670719D01*
X130643297Y-98670720D01*
X130637466Y-98672125D01*
X130632008Y-98674607D01*
X130632004Y-98674608D01*
X130548607Y-98712527D01*
X130444913Y-98759674D01*
X130272389Y-98882054D01*
X130268251Y-98886377D01*
X130268246Y-98886381D01*
X130180836Y-98977691D01*
X130119280Y-99013067D01*
X130048371Y-99009548D01*
X129990621Y-98968251D01*
X129982674Y-98956863D01*
X129951937Y-98907193D01*
X129942901Y-98895792D01*
X129828171Y-98781261D01*
X129816760Y-98772249D01*
X129678757Y-98687184D01*
X129665576Y-98681037D01*
X129511290Y-98629862D01*
X129497914Y-98626995D01*
X129403562Y-98617328D01*
X129397145Y-98617000D01*
X129272115Y-98617000D01*
X129256876Y-98621475D01*
X129255671Y-98622865D01*
X129254000Y-98630548D01*
X129254000Y-100128000D01*
X129233998Y-100196121D01*
X129180342Y-100242614D01*
X129128000Y-100254000D01*
X127910116Y-100254000D01*
X127894877Y-100258475D01*
X127893672Y-100259865D01*
X127892001Y-100267548D01*
X127892001Y-100511576D01*
X127871999Y-100579697D01*
X127818343Y-100626190D01*
X127748069Y-100636294D01*
X127683489Y-100606800D01*
X127676906Y-100600671D01*
X126804119Y-99727885D01*
X127892000Y-99727885D01*
X127896475Y-99743124D01*
X127897865Y-99744329D01*
X127905548Y-99746000D01*
X128727885Y-99746000D01*
X128743124Y-99741525D01*
X128744329Y-99740135D01*
X128746000Y-99732452D01*
X128746000Y-98635116D01*
X128741525Y-98619877D01*
X128740135Y-98618672D01*
X128732452Y-98617001D01*
X128602905Y-98617001D01*
X128596386Y-98617338D01*
X128500794Y-98627257D01*
X128487400Y-98630149D01*
X128333216Y-98681588D01*
X128320038Y-98687761D01*
X128182193Y-98773063D01*
X128170792Y-98782099D01*
X128056261Y-98896829D01*
X128047249Y-98908240D01*
X127962184Y-99046243D01*
X127956037Y-99059424D01*
X127904862Y-99213710D01*
X127901995Y-99227086D01*
X127892328Y-99321438D01*
X127892000Y-99327855D01*
X127892000Y-99727885D01*
X126804119Y-99727885D01*
X125945405Y-98869171D01*
X125911380Y-98806859D01*
X125908500Y-98780076D01*
X125908500Y-97502933D01*
X126297001Y-97502933D01*
X126297338Y-97509452D01*
X126307166Y-97604170D01*
X126310058Y-97617564D01*
X126361036Y-97770365D01*
X126367210Y-97783543D01*
X126451744Y-97920149D01*
X126460780Y-97931550D01*
X126574479Y-98045051D01*
X126585890Y-98054063D01*
X126722654Y-98138365D01*
X126735832Y-98144509D01*
X126888740Y-98195227D01*
X126902106Y-98198093D01*
X126995601Y-98207672D01*
X127002016Y-98208000D01*
X127020385Y-98208000D01*
X127035624Y-98203525D01*
X127036829Y-98202135D01*
X127038500Y-98194452D01*
X127038500Y-97272115D01*
X127034025Y-97256876D01*
X127032635Y-97255671D01*
X127024952Y-97254000D01*
X126315116Y-97254000D01*
X126299877Y-97258475D01*
X126298672Y-97259865D01*
X126297001Y-97267548D01*
X126297001Y-97502933D01*
X125908500Y-97502933D01*
X125908500Y-96951866D01*
X125901745Y-96889684D01*
X125850615Y-96753295D01*
X125763261Y-96636739D01*
X125646705Y-96549385D01*
X125510316Y-96498255D01*
X125448134Y-96491500D01*
X123469924Y-96491500D01*
X123401803Y-96471498D01*
X123380829Y-96454595D01*
X123274829Y-96348595D01*
X123240803Y-96286283D01*
X123245868Y-96215468D01*
X123288415Y-96158632D01*
X123354935Y-96133821D01*
X123363924Y-96133500D01*
X126218232Y-96133500D01*
X126286353Y-96153502D01*
G37*
%TD.AperFunction*%
%TA.AperFunction,Conductor*%
G36*
X130933621Y-65378512D02*
G01*
X130980114Y-65432168D01*
X130991500Y-65484510D01*
X130991500Y-65586502D01*
X130994438Y-65623831D01*
X131012794Y-65687012D01*
X131034556Y-65761918D01*
X131040855Y-65783601D01*
X131125547Y-65926807D01*
X131128229Y-65929489D01*
X131153502Y-65993861D01*
X131139600Y-66063484D01*
X131129428Y-66079312D01*
X131125547Y-66083193D01*
X131040855Y-66226399D01*
X130994438Y-66386169D01*
X130991500Y-66423498D01*
X130991500Y-66856502D01*
X130994438Y-66893831D01*
X131040855Y-67053601D01*
X131125547Y-67196807D01*
X131128229Y-67199489D01*
X131153502Y-67263861D01*
X131139600Y-67333484D01*
X131129428Y-67349312D01*
X131125547Y-67353193D01*
X131040855Y-67496399D01*
X130994438Y-67656169D01*
X130991500Y-67693498D01*
X130991500Y-68126502D01*
X130994438Y-68163831D01*
X131040855Y-68323601D01*
X131044892Y-68330427D01*
X131121509Y-68459980D01*
X131121511Y-68459983D01*
X131125547Y-68466807D01*
X131243193Y-68584453D01*
X131250017Y-68588489D01*
X131250020Y-68588491D01*
X131322672Y-68631457D01*
X131386399Y-68669145D01*
X131394010Y-68671356D01*
X131394012Y-68671357D01*
X131435813Y-68683501D01*
X131546169Y-68715562D01*
X131552574Y-68716066D01*
X131552579Y-68716067D01*
X131581042Y-68718307D01*
X131581050Y-68718307D01*
X131583498Y-68718500D01*
X133366502Y-68718500D01*
X133368950Y-68718307D01*
X133368958Y-68718307D01*
X133397421Y-68716067D01*
X133397426Y-68716066D01*
X133403831Y-68715562D01*
X133514187Y-68683501D01*
X133555988Y-68671357D01*
X133555990Y-68671356D01*
X133563601Y-68669145D01*
X133627328Y-68631457D01*
X133699980Y-68588491D01*
X133699983Y-68588489D01*
X133706807Y-68584453D01*
X133788906Y-68502354D01*
X133851218Y-68468328D01*
X133922033Y-68473393D01*
X133978869Y-68515940D01*
X134003680Y-68582460D01*
X134004001Y-68591445D01*
X134004001Y-68667656D01*
X134014884Y-68772555D01*
X134017063Y-68779086D01*
X134017064Y-68779091D01*
X134056026Y-68895875D01*
X134070398Y-68938952D01*
X134162703Y-69088115D01*
X134286847Y-69212043D01*
X134293077Y-69215883D01*
X134293078Y-69215884D01*
X134306615Y-69224228D01*
X134354109Y-69277000D01*
X134366500Y-69331488D01*
X134366500Y-70821233D01*
X134365973Y-70832416D01*
X134364298Y-70839909D01*
X134364547Y-70847835D01*
X134364547Y-70847836D01*
X134366438Y-70907986D01*
X134366500Y-70911945D01*
X134366500Y-70939856D01*
X134366997Y-70943790D01*
X134366997Y-70943791D01*
X134367005Y-70943856D01*
X134367938Y-70955693D01*
X134369327Y-70999889D01*
X134374978Y-71019339D01*
X134378987Y-71038700D01*
X134381526Y-71058797D01*
X134384445Y-71066168D01*
X134384445Y-71066170D01*
X134397804Y-71099912D01*
X134401649Y-71111142D01*
X134406166Y-71126689D01*
X134413982Y-71153593D01*
X134418015Y-71160412D01*
X134418017Y-71160417D01*
X134424293Y-71171028D01*
X134432988Y-71188776D01*
X134440448Y-71207617D01*
X134445110Y-71214033D01*
X134445110Y-71214034D01*
X134466436Y-71243387D01*
X134472952Y-71253307D01*
X134495458Y-71291362D01*
X134509779Y-71305683D01*
X134522619Y-71320716D01*
X134534528Y-71337107D01*
X134540634Y-71342158D01*
X134568605Y-71365298D01*
X134577384Y-71373288D01*
X136305501Y-73101405D01*
X136339527Y-73163717D01*
X136334462Y-73234532D01*
X136291915Y-73291368D01*
X136225395Y-73316179D01*
X136216406Y-73316500D01*
X134374600Y-73316500D01*
X134371354Y-73316837D01*
X134371350Y-73316837D01*
X134275692Y-73326762D01*
X134275688Y-73326763D01*
X134268834Y-73327474D01*
X134262298Y-73329655D01*
X134262296Y-73329655D01*
X134222968Y-73342776D01*
X134101054Y-73383450D01*
X133956919Y-73472644D01*
X133890616Y-73491500D01*
X131609658Y-73491500D01*
X131543542Y-73472760D01*
X131403968Y-73386725D01*
X131403966Y-73386724D01*
X131397738Y-73382885D01*
X131300600Y-73350666D01*
X131236389Y-73329368D01*
X131236387Y-73329368D01*
X131229861Y-73327203D01*
X131223025Y-73326503D01*
X131223022Y-73326502D01*
X131175420Y-73321625D01*
X131125400Y-73316500D01*
X128874600Y-73316500D01*
X128871354Y-73316837D01*
X128871350Y-73316837D01*
X128775692Y-73326762D01*
X128775688Y-73326763D01*
X128768834Y-73327474D01*
X128762298Y-73329655D01*
X128762296Y-73329655D01*
X128722968Y-73342776D01*
X128601054Y-73383450D01*
X128456919Y-73472644D01*
X128390616Y-73491500D01*
X126109658Y-73491500D01*
X126043542Y-73472760D01*
X125903968Y-73386725D01*
X125903966Y-73386724D01*
X125897738Y-73382885D01*
X125800600Y-73350666D01*
X125736389Y-73329368D01*
X125736387Y-73329368D01*
X125729861Y-73327203D01*
X125723025Y-73326503D01*
X125723022Y-73326502D01*
X125675420Y-73321625D01*
X125625400Y-73316500D01*
X123646141Y-73316500D01*
X123578020Y-73296498D01*
X123531527Y-73242842D01*
X123521423Y-73172568D01*
X123550917Y-73107988D01*
X123557046Y-73101405D01*
X124388046Y-72270405D01*
X124450358Y-72236379D01*
X124477141Y-72233500D01*
X125757643Y-72233500D01*
X125768826Y-72234027D01*
X125776319Y-72235702D01*
X125784245Y-72235453D01*
X125784246Y-72235453D01*
X125844396Y-72233562D01*
X125848355Y-72233500D01*
X125876266Y-72233500D01*
X125880201Y-72233003D01*
X125880266Y-72232995D01*
X125892103Y-72232062D01*
X125924361Y-72231048D01*
X125928380Y-72230922D01*
X125936299Y-72230673D01*
X125955753Y-72225021D01*
X125975110Y-72221013D01*
X125987340Y-72219468D01*
X125987341Y-72219468D01*
X125995207Y-72218474D01*
X126002578Y-72215555D01*
X126002580Y-72215555D01*
X126036322Y-72202196D01*
X126047552Y-72198351D01*
X126082393Y-72188229D01*
X126082394Y-72188229D01*
X126090003Y-72186018D01*
X126096822Y-72181985D01*
X126096827Y-72181983D01*
X126107438Y-72175707D01*
X126125186Y-72167012D01*
X126144027Y-72159552D01*
X126179797Y-72133564D01*
X126189717Y-72127048D01*
X126220945Y-72108580D01*
X126220948Y-72108578D01*
X126227772Y-72104542D01*
X126242093Y-72090221D01*
X126257127Y-72077380D01*
X126267104Y-72070131D01*
X126273517Y-72065472D01*
X126301708Y-72031395D01*
X126309698Y-72022616D01*
X129217257Y-69115057D01*
X129225547Y-69107513D01*
X129232028Y-69103400D01*
X129246382Y-69088115D01*
X129278668Y-69053733D01*
X129281423Y-69050891D01*
X129301145Y-69031169D01*
X129303622Y-69027976D01*
X129311327Y-69018955D01*
X129336169Y-68992500D01*
X129341596Y-68986721D01*
X129345417Y-68979771D01*
X129351356Y-68968968D01*
X129362212Y-68952441D01*
X129369767Y-68942702D01*
X129369768Y-68942700D01*
X129374624Y-68936440D01*
X129392184Y-68895860D01*
X129397401Y-68885212D01*
X129414885Y-68853409D01*
X129414886Y-68853407D01*
X129418705Y-68846460D01*
X129423743Y-68826837D01*
X129430147Y-68808134D01*
X129435043Y-68796820D01*
X129435043Y-68796819D01*
X129438191Y-68789545D01*
X129439430Y-68781722D01*
X129439433Y-68781712D01*
X129445109Y-68745876D01*
X129447515Y-68734256D01*
X129456538Y-68699111D01*
X129456538Y-68699110D01*
X129458510Y-68691430D01*
X129458510Y-68671176D01*
X129460061Y-68651465D01*
X129461990Y-68639286D01*
X129463230Y-68631457D01*
X129459069Y-68587438D01*
X129458510Y-68575581D01*
X129458510Y-65773778D01*
X129459037Y-65762595D01*
X129460712Y-65755102D01*
X129458572Y-65687011D01*
X129458510Y-65683054D01*
X129458510Y-65655154D01*
X129458006Y-65651163D01*
X129457073Y-65639321D01*
X129456781Y-65630008D01*
X129455684Y-65595121D01*
X129450031Y-65575662D01*
X129446022Y-65556303D01*
X129445856Y-65554993D01*
X129443484Y-65536213D01*
X129440566Y-65528843D01*
X129438594Y-65521161D01*
X129440443Y-65520686D01*
X129434898Y-65460195D01*
X129467670Y-65397214D01*
X129529290Y-65361950D01*
X129558530Y-65358510D01*
X130865500Y-65358510D01*
X130933621Y-65378512D01*
G37*
%TD.AperFunction*%
%TA.AperFunction,Conductor*%
G36*
X126204012Y-68495726D02*
G01*
X126210595Y-68501855D01*
X126293193Y-68584453D01*
X126300017Y-68588489D01*
X126300020Y-68588491D01*
X126372672Y-68631457D01*
X126436399Y-68669145D01*
X126444010Y-68671356D01*
X126444012Y-68671357D01*
X126485813Y-68683501D01*
X126596169Y-68715562D01*
X126602574Y-68716066D01*
X126602579Y-68716067D01*
X126631042Y-68718307D01*
X126631050Y-68718307D01*
X126633498Y-68718500D01*
X126765500Y-68718500D01*
X126833621Y-68738502D01*
X126880114Y-68792158D01*
X126891500Y-68844500D01*
X126891500Y-68960405D01*
X126871498Y-69028526D01*
X126854595Y-69049501D01*
X126374499Y-69529596D01*
X126312187Y-69563621D01*
X126285404Y-69566500D01*
X126068444Y-69566500D01*
X126000323Y-69546498D01*
X125953830Y-69492842D01*
X125948921Y-69480377D01*
X125931922Y-69429427D01*
X125931921Y-69429425D01*
X125929602Y-69422474D01*
X125837297Y-69273311D01*
X125832115Y-69268138D01*
X125827568Y-69262401D01*
X125828961Y-69261297D01*
X125799333Y-69207153D01*
X125804334Y-69136333D01*
X125828746Y-69098272D01*
X125828013Y-69097693D01*
X125841563Y-69080536D01*
X125925865Y-68943772D01*
X125932009Y-68930594D01*
X125982727Y-68777686D01*
X125985593Y-68764320D01*
X125995172Y-68670825D01*
X125995500Y-68664410D01*
X125995500Y-68590950D01*
X126015502Y-68522829D01*
X126069158Y-68476336D01*
X126139432Y-68466232D01*
X126204012Y-68495726D01*
G37*
%TD.AperFunction*%
%TA.AperFunction,Conductor*%
G36*
X125196121Y-63940286D02*
G01*
X125242614Y-63993942D01*
X125254000Y-64046284D01*
X125254000Y-68289426D01*
X125233998Y-68357547D01*
X125180342Y-68404040D01*
X125128000Y-68415426D01*
X124872000Y-68415426D01*
X124803879Y-68395424D01*
X124757386Y-68341768D01*
X124746000Y-68289426D01*
X124746000Y-64046284D01*
X124766002Y-63978163D01*
X124819658Y-63931670D01*
X124872000Y-63920284D01*
X125128000Y-63920284D01*
X125196121Y-63940286D01*
G37*
%TD.AperFunction*%
%TA.AperFunction,Conductor*%
G36*
X138434121Y-42528002D02*
G01*
X138480614Y-42581658D01*
X138492000Y-42634000D01*
X138492000Y-62332511D01*
X138471998Y-62400632D01*
X138418342Y-62447125D01*
X138348068Y-62457229D01*
X138291939Y-62434447D01*
X138262094Y-62412763D01*
X138262093Y-62412762D01*
X138256752Y-62408882D01*
X138250724Y-62406198D01*
X138250722Y-62406197D01*
X138088319Y-62333891D01*
X138088318Y-62333891D01*
X138082288Y-62331206D01*
X137970803Y-62307509D01*
X137908330Y-62273780D01*
X137874008Y-62211631D01*
X137871000Y-62184262D01*
X137870999Y-61667037D01*
X137870999Y-61663770D01*
X137860116Y-61558871D01*
X137857937Y-61552340D01*
X137857936Y-61552335D01*
X137806920Y-61399422D01*
X137804602Y-61392474D01*
X137712297Y-61243311D01*
X137588153Y-61119383D01*
X137581919Y-61115540D01*
X137578630Y-61112943D01*
X137537567Y-61055026D01*
X137534334Y-60984103D01*
X137569958Y-60922691D01*
X137596013Y-60903686D01*
X137604205Y-60900615D01*
X137611384Y-60895235D01*
X137611387Y-60895233D01*
X137713581Y-60818642D01*
X137720761Y-60813261D01*
X137808115Y-60696705D01*
X137859245Y-60560316D01*
X137866000Y-60498134D01*
X137866000Y-59501866D01*
X137859245Y-59439684D01*
X137808115Y-59303295D01*
X137720761Y-59186739D01*
X137604205Y-59099385D01*
X137467816Y-59048255D01*
X137405634Y-59041500D01*
X136843607Y-59041500D01*
X136775486Y-59021498D01*
X136728993Y-58967842D01*
X136718889Y-58897568D01*
X136748383Y-58832988D01*
X136757103Y-58824864D01*
X136756874Y-58824635D01*
X136775785Y-58805724D01*
X136852286Y-58703649D01*
X136860824Y-58688054D01*
X136905978Y-58567606D01*
X136909605Y-58552351D01*
X136915131Y-58501486D01*
X136915500Y-58494672D01*
X136915500Y-58272115D01*
X136911025Y-58256876D01*
X136909635Y-58255671D01*
X136901952Y-58254000D01*
X136279615Y-58254000D01*
X136264376Y-58258475D01*
X136263171Y-58259865D01*
X136261500Y-58267548D01*
X136261500Y-58939884D01*
X136268972Y-58965331D01*
X136296319Y-59007885D01*
X136296319Y-59078882D01*
X136257934Y-59138607D01*
X136250989Y-59144207D01*
X136194239Y-59186739D01*
X136188858Y-59193919D01*
X136188857Y-59193920D01*
X136108326Y-59301372D01*
X136051467Y-59343887D01*
X135980648Y-59348913D01*
X135918355Y-59314853D01*
X135906674Y-59301372D01*
X135826143Y-59193920D01*
X135826142Y-59193919D01*
X135820761Y-59186739D01*
X135763956Y-59144166D01*
X135721441Y-59087307D01*
X135716415Y-59016488D01*
X135744297Y-58960827D01*
X135751829Y-58952135D01*
X135753500Y-58944452D01*
X135753500Y-58272115D01*
X135749025Y-58256876D01*
X135747635Y-58255671D01*
X135739952Y-58254000D01*
X135117616Y-58254000D01*
X135102377Y-58258475D01*
X135101172Y-58259865D01*
X135099501Y-58267548D01*
X135099501Y-58494669D01*
X135099871Y-58501490D01*
X135105395Y-58552352D01*
X135109021Y-58567604D01*
X135154176Y-58688054D01*
X135162714Y-58703649D01*
X135239215Y-58805724D01*
X135258126Y-58824635D01*
X135255997Y-58826764D01*
X135289470Y-58871526D01*
X135294500Y-58942344D01*
X135260444Y-59004640D01*
X135198115Y-59038634D01*
X135171393Y-59041500D01*
X134609366Y-59041500D01*
X134547184Y-59048255D01*
X134410795Y-59099385D01*
X134294239Y-59186739D01*
X134206885Y-59303295D01*
X134155755Y-59439684D01*
X134149000Y-59501866D01*
X134149000Y-59826012D01*
X134128998Y-59894133D01*
X134075342Y-59940626D01*
X134005068Y-59950730D01*
X133940488Y-59921236D01*
X133907363Y-59876052D01*
X133904649Y-59869781D01*
X133828089Y-59740322D01*
X133818449Y-59727896D01*
X133712104Y-59621551D01*
X133699678Y-59611911D01*
X133570221Y-59535352D01*
X133555790Y-59529107D01*
X133409935Y-59486731D01*
X133397333Y-59484430D01*
X133368916Y-59482193D01*
X133363986Y-59482000D01*
X132747115Y-59482000D01*
X132731876Y-59486475D01*
X132730671Y-59487865D01*
X132729000Y-59495548D01*
X132729000Y-60418000D01*
X132708998Y-60486121D01*
X132655342Y-60532614D01*
X132603000Y-60544000D01*
X132347000Y-60544000D01*
X132278879Y-60523998D01*
X132232386Y-60470342D01*
X132221000Y-60418000D01*
X132221000Y-59500116D01*
X132216525Y-59484877D01*
X132215135Y-59483672D01*
X132207452Y-59482001D01*
X131778093Y-59482001D01*
X131709972Y-59461999D01*
X131663479Y-59408343D01*
X131653375Y-59338069D01*
X131682869Y-59273489D01*
X131688998Y-59266906D01*
X131960499Y-58995405D01*
X132022811Y-58961379D01*
X132049594Y-58958500D01*
X133148134Y-58958500D01*
X133210316Y-58951745D01*
X133346705Y-58900615D01*
X133463261Y-58813261D01*
X133550615Y-58696705D01*
X133601745Y-58560316D01*
X133608500Y-58498134D01*
X133608500Y-56959500D01*
X133628502Y-56891379D01*
X133682158Y-56844886D01*
X133734500Y-56833500D01*
X133931556Y-56833500D01*
X133999677Y-56853502D01*
X134046170Y-56907158D01*
X134051079Y-56919623D01*
X134067680Y-56969380D01*
X134070398Y-56977526D01*
X134162703Y-57126689D01*
X134286847Y-57250617D01*
X134293077Y-57254457D01*
X134293078Y-57254458D01*
X134322340Y-57272495D01*
X134436171Y-57342661D01*
X134443119Y-57344966D01*
X134443120Y-57344966D01*
X134596134Y-57395719D01*
X134596136Y-57395719D01*
X134602665Y-57397885D01*
X134706269Y-57408500D01*
X134973502Y-57408500D01*
X135041620Y-57428501D01*
X135088113Y-57482156D01*
X135099500Y-57534499D01*
X135099500Y-57727885D01*
X135103975Y-57743124D01*
X135105365Y-57744329D01*
X135113048Y-57746000D01*
X136897384Y-57746000D01*
X136912623Y-57741525D01*
X136913828Y-57740135D01*
X136915499Y-57732452D01*
X136915499Y-57533999D01*
X136935501Y-57465878D01*
X136989157Y-57419385D01*
X137041499Y-57407999D01*
X137165433Y-57407999D01*
X137171952Y-57407662D01*
X137266670Y-57397834D01*
X137280064Y-57394942D01*
X137432865Y-57343964D01*
X137446043Y-57337790D01*
X137582649Y-57253256D01*
X137594050Y-57244220D01*
X137707551Y-57130521D01*
X137716563Y-57119110D01*
X137800865Y-56982346D01*
X137807009Y-56969168D01*
X137857727Y-56816260D01*
X137860593Y-56802894D01*
X137870172Y-56709399D01*
X137870500Y-56702984D01*
X137870500Y-56472115D01*
X137866025Y-56456876D01*
X137864635Y-56455671D01*
X137856952Y-56454000D01*
X136747000Y-56454000D01*
X136678879Y-56433998D01*
X136632386Y-56380342D01*
X136621000Y-56328000D01*
X136621000Y-55927885D01*
X137129000Y-55927885D01*
X137133475Y-55943124D01*
X137134865Y-55944329D01*
X137142548Y-55946000D01*
X137852384Y-55946000D01*
X137867623Y-55941525D01*
X137868828Y-55940135D01*
X137870499Y-55932452D01*
X137870499Y-55697067D01*
X137870162Y-55690548D01*
X137860334Y-55595830D01*
X137857442Y-55582436D01*
X137806464Y-55429635D01*
X137800290Y-55416457D01*
X137715756Y-55279851D01*
X137706720Y-55268450D01*
X137593021Y-55154949D01*
X137581610Y-55145937D01*
X137444846Y-55061635D01*
X137431668Y-55055491D01*
X137278760Y-55004773D01*
X137265394Y-55001907D01*
X137171899Y-54992328D01*
X137165484Y-54992000D01*
X137147115Y-54992000D01*
X137131876Y-54996475D01*
X137130671Y-54997865D01*
X137129000Y-55005548D01*
X137129000Y-55927885D01*
X136621000Y-55927885D01*
X136621000Y-55010116D01*
X136616525Y-54994877D01*
X136615135Y-54993672D01*
X136607452Y-54992001D01*
X136584567Y-54992001D01*
X136578048Y-54992338D01*
X136483330Y-55002166D01*
X136469936Y-55005058D01*
X136317135Y-55056036D01*
X136303957Y-55062210D01*
X136167351Y-55146744D01*
X136155950Y-55155780D01*
X136042449Y-55269479D01*
X136036706Y-55276751D01*
X135978789Y-55317814D01*
X135907866Y-55321046D01*
X135846454Y-55285421D01*
X135840660Y-55278746D01*
X135837297Y-55273311D01*
X135713153Y-55149383D01*
X135563829Y-55057339D01*
X135556880Y-55055034D01*
X135403866Y-55004281D01*
X135403864Y-55004281D01*
X135397335Y-55002115D01*
X135293731Y-54991500D01*
X135002266Y-54991500D01*
X134706270Y-54991501D01*
X134601371Y-55002384D01*
X134594840Y-55004563D01*
X134594835Y-55004564D01*
X134446689Y-55053990D01*
X134434974Y-55057898D01*
X134285811Y-55150203D01*
X134161883Y-55274347D01*
X134069839Y-55423671D01*
X134067535Y-55430618D01*
X134051099Y-55480169D01*
X134010667Y-55538528D01*
X133945103Y-55565764D01*
X133931506Y-55566500D01*
X133281826Y-55566500D01*
X133237596Y-55558482D01*
X133210316Y-55548255D01*
X133148134Y-55541500D01*
X131051866Y-55541500D01*
X130989684Y-55548255D01*
X130895311Y-55583634D01*
X130881368Y-55588861D01*
X130810560Y-55594044D01*
X130748191Y-55560123D01*
X130714062Y-55497868D01*
X130711828Y-55484050D01*
X130694232Y-55316635D01*
X130694232Y-55316633D01*
X130693542Y-55310072D01*
X130634527Y-55128444D01*
X130539040Y-54963056D01*
X130411253Y-54821134D01*
X130256752Y-54708882D01*
X130250724Y-54706198D01*
X130250722Y-54706197D01*
X130088319Y-54633891D01*
X130088318Y-54633891D01*
X130082288Y-54631206D01*
X129988888Y-54611353D01*
X129901944Y-54592872D01*
X129901939Y-54592872D01*
X129895487Y-54591500D01*
X129704513Y-54591500D01*
X129698706Y-54592734D01*
X129629113Y-54580007D01*
X129577266Y-54531505D01*
X129559871Y-54462673D01*
X129582452Y-54395363D01*
X129593929Y-54381218D01*
X129611155Y-54362873D01*
X129611157Y-54362871D01*
X129616586Y-54357089D01*
X129620405Y-54350143D01*
X129620407Y-54350140D01*
X129626348Y-54339334D01*
X129637199Y-54322815D01*
X129637559Y-54322351D01*
X129649614Y-54306809D01*
X129652759Y-54299540D01*
X129652762Y-54299536D01*
X129667174Y-54266231D01*
X129672391Y-54255581D01*
X129693695Y-54216828D01*
X129698733Y-54197205D01*
X129705137Y-54178502D01*
X129710033Y-54167188D01*
X129710033Y-54167187D01*
X129713181Y-54159913D01*
X129714420Y-54152090D01*
X129714423Y-54152080D01*
X129720099Y-54116244D01*
X129722505Y-54104624D01*
X129723307Y-54101502D01*
X131866500Y-54101502D01*
X131866693Y-54103950D01*
X131866693Y-54103958D01*
X131867199Y-54110379D01*
X131869438Y-54138831D01*
X131915855Y-54298601D01*
X131923677Y-54311827D01*
X131996509Y-54434980D01*
X131996511Y-54434983D01*
X132000547Y-54441807D01*
X132118193Y-54559453D01*
X132125017Y-54563489D01*
X132125020Y-54563491D01*
X132172381Y-54591500D01*
X132261399Y-54644145D01*
X132269010Y-54646356D01*
X132269012Y-54646357D01*
X132321231Y-54661528D01*
X132421169Y-54690562D01*
X132427574Y-54691066D01*
X132427579Y-54691067D01*
X132456042Y-54693307D01*
X132456050Y-54693307D01*
X132458498Y-54693500D01*
X133916502Y-54693500D01*
X133918950Y-54693307D01*
X133918958Y-54693307D01*
X133947421Y-54691067D01*
X133947426Y-54691066D01*
X133953831Y-54690562D01*
X134053769Y-54661528D01*
X134105988Y-54646357D01*
X134105990Y-54646356D01*
X134113601Y-54644145D01*
X134202619Y-54591500D01*
X134249980Y-54563491D01*
X134249983Y-54563489D01*
X134256807Y-54559453D01*
X134374453Y-54441807D01*
X134378491Y-54434980D01*
X134410363Y-54381086D01*
X134431805Y-54354324D01*
X134437107Y-54350472D01*
X134465298Y-54316395D01*
X134473288Y-54307616D01*
X135642253Y-53138652D01*
X135650539Y-53131112D01*
X135657018Y-53127000D01*
X135703644Y-53077348D01*
X135706398Y-53074507D01*
X135726135Y-53054770D01*
X135728615Y-53051573D01*
X135736320Y-53042551D01*
X135761159Y-53016100D01*
X135766586Y-53010321D01*
X135770405Y-53003375D01*
X135770407Y-53003372D01*
X135776348Y-52992566D01*
X135787199Y-52976047D01*
X135794758Y-52966301D01*
X135799614Y-52960041D01*
X135802759Y-52952772D01*
X135802762Y-52952768D01*
X135817174Y-52919463D01*
X135822391Y-52908813D01*
X135843695Y-52870060D01*
X135848733Y-52850437D01*
X135855137Y-52831734D01*
X135860033Y-52820420D01*
X135860033Y-52820419D01*
X135863181Y-52813145D01*
X135864420Y-52805322D01*
X135864423Y-52805312D01*
X135870099Y-52769476D01*
X135872505Y-52757856D01*
X135881528Y-52722711D01*
X135881528Y-52722710D01*
X135883500Y-52715030D01*
X135883500Y-52694776D01*
X135885051Y-52675065D01*
X135886980Y-52662886D01*
X135888220Y-52655057D01*
X135884059Y-52611038D01*
X135883500Y-52599181D01*
X135883500Y-50411781D01*
X135903502Y-50343660D01*
X135943197Y-50304637D01*
X136068120Y-50227332D01*
X136074348Y-50223478D01*
X136199305Y-50098303D01*
X136233444Y-50042920D01*
X136288275Y-49953968D01*
X136288276Y-49953966D01*
X136292115Y-49947738D01*
X136347797Y-49779861D01*
X136358500Y-49675400D01*
X136358500Y-48324600D01*
X136347526Y-48218834D01*
X136343749Y-48207511D01*
X136293868Y-48058002D01*
X136291550Y-48051054D01*
X136198478Y-47900652D01*
X136073303Y-47775695D01*
X135970826Y-47712527D01*
X135928968Y-47686725D01*
X135928966Y-47686724D01*
X135922738Y-47682885D01*
X135762254Y-47629655D01*
X135761389Y-47629368D01*
X135761387Y-47629368D01*
X135754861Y-47627203D01*
X135748025Y-47626503D01*
X135748022Y-47626502D01*
X135704969Y-47622091D01*
X135650400Y-47616500D01*
X134849600Y-47616500D01*
X134846354Y-47616837D01*
X134846350Y-47616837D01*
X134750692Y-47626762D01*
X134750688Y-47626763D01*
X134743834Y-47627474D01*
X134737298Y-47629655D01*
X134737296Y-47629655D01*
X134614213Y-47670719D01*
X134576054Y-47683450D01*
X134425652Y-47776522D01*
X134300695Y-47901697D01*
X134296855Y-47907927D01*
X134296854Y-47907928D01*
X134268926Y-47953236D01*
X134216154Y-48000729D01*
X134146082Y-48012153D01*
X134080958Y-47983879D01*
X134062582Y-47964955D01*
X134056396Y-47957080D01*
X134051865Y-47953148D01*
X134051862Y-47953145D01*
X133901167Y-47822379D01*
X133896637Y-47818448D01*
X133891451Y-47815448D01*
X133891447Y-47815445D01*
X133718742Y-47715533D01*
X133713546Y-47712527D01*
X133513729Y-47643139D01*
X133507794Y-47642278D01*
X133507792Y-47642278D01*
X133310336Y-47613648D01*
X133310333Y-47613648D01*
X133304396Y-47612787D01*
X133093101Y-47622567D01*
X132961923Y-47654181D01*
X132893299Y-47670719D01*
X132893297Y-47670720D01*
X132887466Y-47672125D01*
X132882008Y-47674607D01*
X132882004Y-47674608D01*
X132766959Y-47726916D01*
X132694913Y-47759674D01*
X132522389Y-47882054D01*
X132376119Y-48034850D01*
X132261380Y-48212548D01*
X132182314Y-48408737D01*
X132141772Y-48616337D01*
X132141500Y-48621899D01*
X132141500Y-49327846D01*
X132156548Y-49485566D01*
X132216092Y-49688534D01*
X132218836Y-49693861D01*
X132218836Y-49693862D01*
X132266491Y-49786389D01*
X132312942Y-49876580D01*
X132316646Y-49881295D01*
X132439898Y-50038203D01*
X132439902Y-50038207D01*
X132443604Y-50042920D01*
X132448134Y-50046851D01*
X132448135Y-50046852D01*
X132510581Y-50101040D01*
X132548922Y-50160793D01*
X132554000Y-50196205D01*
X132554000Y-51682510D01*
X132533998Y-51750631D01*
X132480342Y-51797124D01*
X132437888Y-51808121D01*
X132427589Y-51808932D01*
X132427582Y-51808933D01*
X132421169Y-51809438D01*
X132321231Y-51838472D01*
X132269012Y-51853643D01*
X132269010Y-51853644D01*
X132261399Y-51855855D01*
X132254572Y-51859892D01*
X132254573Y-51859892D01*
X132125020Y-51936509D01*
X132125017Y-51936511D01*
X132118193Y-51940547D01*
X132000547Y-52058193D01*
X131996511Y-52065017D01*
X131996509Y-52065020D01*
X131974569Y-52102119D01*
X131915855Y-52201399D01*
X131869438Y-52361169D01*
X131868934Y-52367574D01*
X131868933Y-52367579D01*
X131866693Y-52396042D01*
X131866500Y-52398498D01*
X131866500Y-52831502D01*
X131866693Y-52833950D01*
X131866693Y-52833958D01*
X131868931Y-52862384D01*
X131869438Y-52868831D01*
X131915855Y-53028601D01*
X132000547Y-53171807D01*
X132003229Y-53174489D01*
X132028502Y-53238861D01*
X132014600Y-53308484D01*
X132004428Y-53324312D01*
X132000547Y-53328193D01*
X131915855Y-53471399D01*
X131913644Y-53479010D01*
X131913643Y-53479012D01*
X131898472Y-53531231D01*
X131869438Y-53631169D01*
X131868934Y-53637574D01*
X131868933Y-53637579D01*
X131866693Y-53666042D01*
X131866500Y-53668498D01*
X131866500Y-54101502D01*
X129723307Y-54101502D01*
X129731528Y-54069479D01*
X129731528Y-54069478D01*
X129733500Y-54061798D01*
X129733500Y-54041544D01*
X129735051Y-54021833D01*
X129736980Y-54009654D01*
X129738220Y-54001825D01*
X129734059Y-53957806D01*
X129733500Y-53945949D01*
X129733500Y-50678768D01*
X129734027Y-50667585D01*
X129735702Y-50660092D01*
X129733562Y-50592001D01*
X129733500Y-50588044D01*
X129733500Y-50560144D01*
X129732996Y-50556153D01*
X129732063Y-50544311D01*
X129730923Y-50508036D01*
X129730674Y-50500111D01*
X129728462Y-50492497D01*
X129728461Y-50492492D01*
X129725023Y-50480659D01*
X129721012Y-50461295D01*
X129719467Y-50449064D01*
X129718474Y-50441203D01*
X129715557Y-50433836D01*
X129715556Y-50433831D01*
X129702198Y-50400092D01*
X129698354Y-50388865D01*
X129693889Y-50373498D01*
X129686018Y-50346407D01*
X129676341Y-50330044D01*
X129675707Y-50328972D01*
X129667012Y-50311224D01*
X129659552Y-50292383D01*
X129633564Y-50256613D01*
X129627048Y-50246693D01*
X129608580Y-50215465D01*
X129608578Y-50215462D01*
X129604542Y-50208638D01*
X129590221Y-50194317D01*
X129577380Y-50179283D01*
X129565472Y-50162893D01*
X129531395Y-50134702D01*
X129522616Y-50126712D01*
X128003652Y-48607747D01*
X127996112Y-48599461D01*
X127992000Y-48592982D01*
X127942348Y-48546356D01*
X127939507Y-48543602D01*
X127919770Y-48523865D01*
X127916573Y-48521385D01*
X127907551Y-48513680D01*
X127898247Y-48504943D01*
X127862282Y-48443731D01*
X127858500Y-48413093D01*
X127858500Y-48324600D01*
X127847526Y-48218834D01*
X127843749Y-48207511D01*
X127793868Y-48058002D01*
X127791550Y-48051054D01*
X127698478Y-47900652D01*
X127573303Y-47775695D01*
X127470826Y-47712527D01*
X127428968Y-47686725D01*
X127428966Y-47686724D01*
X127422738Y-47682885D01*
X127262254Y-47629655D01*
X127261389Y-47629368D01*
X127261387Y-47629368D01*
X127254861Y-47627203D01*
X127248025Y-47626503D01*
X127248022Y-47626502D01*
X127204969Y-47622091D01*
X127150400Y-47616500D01*
X126349600Y-47616500D01*
X126346354Y-47616837D01*
X126346350Y-47616837D01*
X126250692Y-47626762D01*
X126250688Y-47626763D01*
X126243834Y-47627474D01*
X126237298Y-47629655D01*
X126237296Y-47629655D01*
X126114213Y-47670719D01*
X126076054Y-47683450D01*
X125925652Y-47776522D01*
X125800695Y-47901697D01*
X125796855Y-47907927D01*
X125796854Y-47907928D01*
X125768926Y-47953236D01*
X125716154Y-48000729D01*
X125646082Y-48012153D01*
X125580958Y-47983879D01*
X125562582Y-47964955D01*
X125556396Y-47957080D01*
X125551865Y-47953148D01*
X125551862Y-47953145D01*
X125401167Y-47822379D01*
X125396637Y-47818448D01*
X125391451Y-47815448D01*
X125391447Y-47815445D01*
X125218742Y-47715533D01*
X125213546Y-47712527D01*
X125013729Y-47643139D01*
X125007794Y-47642278D01*
X125007792Y-47642278D01*
X124810336Y-47613648D01*
X124810333Y-47613648D01*
X124804396Y-47612787D01*
X124593101Y-47622567D01*
X124461923Y-47654181D01*
X124393299Y-47670719D01*
X124393297Y-47670720D01*
X124387466Y-47672125D01*
X124382008Y-47674607D01*
X124382004Y-47674608D01*
X124266959Y-47726916D01*
X124194913Y-47759674D01*
X124022389Y-47882054D01*
X123876119Y-48034850D01*
X123761380Y-48212548D01*
X123682314Y-48408737D01*
X123641772Y-48616337D01*
X123641500Y-48621899D01*
X123641500Y-49327846D01*
X123656548Y-49485566D01*
X123716092Y-49688534D01*
X123718836Y-49693861D01*
X123718836Y-49693862D01*
X123766491Y-49786389D01*
X123812942Y-49876580D01*
X123943604Y-50042920D01*
X123948135Y-50046852D01*
X123948138Y-50046855D01*
X124076040Y-50157842D01*
X124103363Y-50181552D01*
X124108549Y-50184552D01*
X124108553Y-50184555D01*
X124270665Y-50278339D01*
X124286454Y-50287473D01*
X124486271Y-50356861D01*
X124492206Y-50357722D01*
X124492208Y-50357722D01*
X124689664Y-50386352D01*
X124689667Y-50386352D01*
X124695604Y-50387213D01*
X124906899Y-50377433D01*
X125047036Y-50343660D01*
X125106701Y-50329281D01*
X125106703Y-50329280D01*
X125112534Y-50327875D01*
X125117992Y-50325393D01*
X125117996Y-50325392D01*
X125233041Y-50273084D01*
X125305087Y-50240326D01*
X125477611Y-50117946D01*
X125481753Y-50113619D01*
X125481759Y-50113614D01*
X125568806Y-50022683D01*
X125630361Y-49987306D01*
X125701270Y-49990825D01*
X125759021Y-50032121D01*
X125766965Y-50043504D01*
X125801522Y-50099348D01*
X125926697Y-50224305D01*
X125932927Y-50228145D01*
X125932928Y-50228146D01*
X126070090Y-50312694D01*
X126077262Y-50317115D01*
X126144995Y-50339581D01*
X126238611Y-50370632D01*
X126238613Y-50370632D01*
X126245139Y-50372797D01*
X126251975Y-50373497D01*
X126251978Y-50373498D01*
X126290386Y-50377433D01*
X126349600Y-50383500D01*
X127150400Y-50383500D01*
X127153646Y-50383163D01*
X127153650Y-50383163D01*
X127249308Y-50373238D01*
X127249312Y-50373237D01*
X127256166Y-50372526D01*
X127262702Y-50370345D01*
X127262704Y-50370345D01*
X127412295Y-50320437D01*
X127423946Y-50316550D01*
X127574348Y-50223478D01*
X127589162Y-50208638D01*
X127611756Y-50186005D01*
X127674039Y-50151926D01*
X127744859Y-50156929D01*
X127790024Y-50185928D01*
X128429595Y-50825499D01*
X128463621Y-50887811D01*
X128466500Y-50914594D01*
X128466500Y-53667173D01*
X128446498Y-53735294D01*
X128429595Y-53756269D01*
X128348094Y-53837769D01*
X128285781Y-53871794D01*
X128214966Y-53866728D01*
X128158130Y-53824181D01*
X128133320Y-53757661D01*
X128132999Y-53748673D01*
X128132999Y-53671017D01*
X128132805Y-53666080D01*
X128130570Y-53637664D01*
X128128270Y-53625069D01*
X128085893Y-53479210D01*
X128079648Y-53464779D01*
X128003089Y-53335323D01*
X127997129Y-53327640D01*
X127971180Y-53261556D01*
X127985078Y-53191933D01*
X127995421Y-53175839D01*
X127999453Y-53171807D01*
X128084145Y-53028601D01*
X128130562Y-52868831D01*
X128131070Y-52862384D01*
X128133307Y-52833958D01*
X128133307Y-52833950D01*
X128133500Y-52831502D01*
X128133500Y-52398498D01*
X128133307Y-52396042D01*
X128131067Y-52367579D01*
X128131066Y-52367574D01*
X128130562Y-52361169D01*
X128084145Y-52201399D01*
X128025431Y-52102119D01*
X128003491Y-52065020D01*
X128003489Y-52065017D01*
X127999453Y-52058193D01*
X127881807Y-51940547D01*
X127874983Y-51936511D01*
X127874980Y-51936509D01*
X127745427Y-51859892D01*
X127745428Y-51859892D01*
X127738601Y-51855855D01*
X127730990Y-51853644D01*
X127730988Y-51853643D01*
X127678769Y-51838472D01*
X127578831Y-51809438D01*
X127572426Y-51808934D01*
X127572421Y-51808933D01*
X127543958Y-51806693D01*
X127543950Y-51806693D01*
X127541502Y-51806500D01*
X126083498Y-51806500D01*
X126081050Y-51806693D01*
X126081042Y-51806693D01*
X126052579Y-51808933D01*
X126052574Y-51808934D01*
X126046169Y-51809438D01*
X125946231Y-51838472D01*
X125894012Y-51853643D01*
X125894010Y-51853644D01*
X125886399Y-51855855D01*
X125879572Y-51859892D01*
X125879573Y-51859892D01*
X125750020Y-51936509D01*
X125750017Y-51936511D01*
X125743193Y-51940547D01*
X125625547Y-52058193D01*
X125573163Y-52146769D01*
X125561801Y-52162935D01*
X125544701Y-52183605D01*
X125536712Y-52192384D01*
X122747903Y-54981192D01*
X122698684Y-55011621D01*
X122559974Y-55057898D01*
X122410811Y-55150203D01*
X122286883Y-55274347D01*
X122194839Y-55423671D01*
X122192535Y-55430618D01*
X122192534Y-55430620D01*
X122142179Y-55582436D01*
X122139615Y-55590165D01*
X122129000Y-55693769D01*
X122129001Y-56706230D01*
X122139884Y-56811129D01*
X122142063Y-56817660D01*
X122142064Y-56817665D01*
X122176080Y-56919623D01*
X122195398Y-56977526D01*
X122285740Y-57123517D01*
X122287703Y-57126689D01*
X122287160Y-57127025D01*
X122311823Y-57187958D01*
X122298652Y-57257722D01*
X122285319Y-57278508D01*
X122283435Y-57280893D01*
X122199135Y-57417654D01*
X122192991Y-57430832D01*
X122142273Y-57583740D01*
X122139407Y-57597106D01*
X122129828Y-57690601D01*
X122129500Y-57697016D01*
X122129500Y-57927885D01*
X122133975Y-57943124D01*
X122135365Y-57944329D01*
X122143048Y-57946000D01*
X123253000Y-57946000D01*
X123321121Y-57966002D01*
X123367614Y-58019658D01*
X123379000Y-58072000D01*
X123379000Y-60315142D01*
X123358998Y-60383263D01*
X123305342Y-60429756D01*
X123253000Y-60441142D01*
X122147616Y-60441142D01*
X122132377Y-60445617D01*
X122131172Y-60447007D01*
X122129501Y-60454690D01*
X122129501Y-60690075D01*
X122129838Y-60696594D01*
X122139666Y-60791312D01*
X122142558Y-60804706D01*
X122193536Y-60957507D01*
X122199710Y-60970685D01*
X122288098Y-61113519D01*
X122286405Y-61114566D01*
X122309279Y-61171081D01*
X122296107Y-61240845D01*
X122287178Y-61254764D01*
X122286883Y-61255060D01*
X122284291Y-61259266D01*
X122284275Y-61259290D01*
X122264950Y-61290642D01*
X122194839Y-61404384D01*
X122192534Y-61411332D01*
X122192534Y-61411333D01*
X122143598Y-61558871D01*
X122139615Y-61570878D01*
X122129000Y-61674482D01*
X122129000Y-62005451D01*
X122128215Y-62019495D01*
X122116500Y-62123940D01*
X122116500Y-65308190D01*
X122096498Y-65376311D01*
X122069111Y-65406660D01*
X122059172Y-65414594D01*
X122056681Y-65417085D01*
X122055954Y-65417735D01*
X122051608Y-65421447D01*
X122032733Y-65436842D01*
X122018083Y-65448790D01*
X122014160Y-65453532D01*
X122014158Y-65453534D01*
X121988848Y-65484128D01*
X121980858Y-65492908D01*
X121723095Y-65750671D01*
X121660783Y-65784697D01*
X121589968Y-65779632D01*
X121533132Y-65737085D01*
X121508321Y-65670565D01*
X121508000Y-65661576D01*
X121508000Y-59915027D01*
X122129500Y-59915027D01*
X122133975Y-59930266D01*
X122135365Y-59931471D01*
X122143048Y-59933142D01*
X122852885Y-59933142D01*
X122868124Y-59928667D01*
X122869329Y-59927277D01*
X122871000Y-59919594D01*
X122871000Y-58472115D01*
X122866525Y-58456876D01*
X122865135Y-58455671D01*
X122857452Y-58454000D01*
X122147616Y-58454000D01*
X122132377Y-58458475D01*
X122131172Y-58459865D01*
X122129501Y-58467548D01*
X122129501Y-58702933D01*
X122129838Y-58709452D01*
X122139666Y-58804170D01*
X122142558Y-58817564D01*
X122193536Y-58970365D01*
X122199710Y-58983543D01*
X122288098Y-59126377D01*
X122285531Y-59127965D01*
X122307054Y-59181106D01*
X122293899Y-59250873D01*
X122287001Y-59261630D01*
X122287278Y-59261801D01*
X122199135Y-59404796D01*
X122192991Y-59417974D01*
X122142273Y-59570882D01*
X122139407Y-59584248D01*
X122129828Y-59677743D01*
X122129500Y-59684158D01*
X122129500Y-59915027D01*
X121508000Y-59915027D01*
X121508000Y-42634000D01*
X121528002Y-42565879D01*
X121581658Y-42519386D01*
X121634000Y-42508000D01*
X138366000Y-42508000D01*
X138434121Y-42528002D01*
G37*
%TD.AperFunction*%
%TD*%
M02*
