M48
; DRILL file {KiCad (6.0.2)} date Wed Feb 16 12:53:41 2022
; FORMAT={-:-/ absolute / inch / decimal}
; #@! TF.CreationDate,2022-02-16T12:53:41-05:00
; #@! TF.GenerationSoftware,Kicad,Pcbnew,(6.0.2)
; #@! TF.FileFunction,Plated,1,2,PTH
FMAT,2
INCH
; #@! TA.AperFunction,Plated,PTH,ViaDrill
T1C0.0157
; #@! TA.AperFunction,Plated,PTH,ComponentDrill
T2C0.0295
%
G90
G05
T1
X4.8031Y-2.6339
X4.8031Y-3.7992
X4.8622Y-3.002
X4.9134Y-1.7618
X4.9449Y-2.0118
X4.9685Y-2.2913
X4.9685Y-2.7165
X5.0079Y-3.0236
X5.0079Y-3.3189
X5.0079Y-3.5984
X5.0098Y-2.9331
X5.0098Y-3.7008
X5.0118Y-3.8858
X5.0118Y-4.1142
X5.0541Y-2.0945
X5.0984Y-2.4882
X5.1063Y-2.3307
X5.1102Y-2.185
X5.1181Y-1.7618
X5.1181Y-1.9213
X5.122Y-4.1142
X5.1299Y-2.6457
X5.1535Y-2.3976
X5.1575Y-2.065
X5.1575Y-2.1299
X5.2244Y-3.5984
X5.2244Y-3.5984
X5.2264Y-2.9331
X5.2264Y-3.7008
X5.2559Y-4.1142
X5.2717Y-3.311
X5.2835Y-2.2913
X5.3248Y-1.7618
X5.3445Y-3.7579
X5.3504Y-3.3228
X5.3661Y-2.7598
X5.3701Y-4.0512
X5.3898Y-2.1142
X5.4173Y-2.2874
X5.4213Y-3.0315
X5.4252Y-2.4882
T2
X4.9114Y-1.9291
X4.9902Y-1.9291
X5.0787Y-3.937
X5.1575Y-3.937
X5.2461Y-1.9291
X5.3248Y-1.9291
T0
M30
