%TF.GenerationSoftware,KiCad,Pcbnew,(5.1.10)-1*%
%TF.CreationDate,2021-07-04T19:20:50-04:00*%
%TF.ProjectId,SensorBoard,53656e73-6f72-4426-9f61-72642e6b6963,rev?*%
%TF.SameCoordinates,Original*%
%TF.FileFunction,Soldermask,Bot*%
%TF.FilePolarity,Negative*%
%FSLAX46Y46*%
G04 Gerber Fmt 4.6, Leading zero omitted, Abs format (unit mm)*
G04 Created by KiCad (PCBNEW (5.1.10)-1) date 2021-07-04 19:20:50*
%MOMM*%
%LPD*%
G01*
G04 APERTURE LIST*
%ADD10O,1.700000X1.700000*%
%ADD11R,1.700000X1.700000*%
%ADD12C,6.400000*%
%ADD13C,0.800000*%
%ADD14C,1.700000*%
%ADD15C,1.500000*%
G04 APERTURE END LIST*
D10*
%TO.C,J1*%
X114000000Y-95080000D03*
X111460000Y-95080000D03*
X114000000Y-92540000D03*
X111460000Y-92540000D03*
X114000000Y-90000000D03*
D11*
X111460000Y-90000000D03*
%TD*%
%TO.C,J2*%
X186000000Y-90000000D03*
D10*
X188540000Y-90000000D03*
X186000000Y-92540000D03*
X188540000Y-92540000D03*
X186000000Y-95080000D03*
X188540000Y-95080000D03*
%TD*%
D12*
%TO.C,REF\u002A\u002A*%
X177000000Y-73000000D03*
D13*
X179400000Y-73000000D03*
X178697056Y-74697056D03*
X177000000Y-75400000D03*
X175302944Y-74697056D03*
X174600000Y-73000000D03*
X175302944Y-71302944D03*
X177000000Y-70600000D03*
X178697056Y-71302944D03*
%TD*%
%TO.C,REF\u002A\u002A*%
X124697056Y-71302944D03*
X123000000Y-70600000D03*
X121302944Y-71302944D03*
X120600000Y-73000000D03*
X121302944Y-74697056D03*
X123000000Y-75400000D03*
X124697056Y-74697056D03*
X125400000Y-73000000D03*
D12*
X123000000Y-73000000D03*
%TD*%
%TO.C,REF\u002A\u002A*%
X150000000Y-114000000D03*
D13*
X152400000Y-114000000D03*
X151697056Y-115697056D03*
X150000000Y-116400000D03*
X148302944Y-115697056D03*
X147600000Y-114000000D03*
X148302944Y-112302944D03*
X150000000Y-111600000D03*
X151697056Y-112302944D03*
%TD*%
D14*
%TO.C,J4*%
X176400000Y-116880000D03*
X186400000Y-116880000D03*
X176400000Y-109700000D03*
X178900000Y-109700000D03*
X181400000Y-109700000D03*
X183900000Y-109700000D03*
X186400000Y-109700000D03*
X176400000Y-107200000D03*
X178900000Y-107200000D03*
X181400000Y-107200000D03*
X183900000Y-107200000D03*
G36*
G01*
X185800000Y-106350000D02*
X187000000Y-106350000D01*
G75*
G02*
X187250000Y-106600000I0J-250000D01*
G01*
X187250000Y-107800000D01*
G75*
G02*
X187000000Y-108050000I-250000J0D01*
G01*
X185800000Y-108050000D01*
G75*
G02*
X185550000Y-107800000I0J250000D01*
G01*
X185550000Y-106600000D01*
G75*
G02*
X185800000Y-106350000I250000J0D01*
G01*
G37*
%TD*%
%TO.C,J5*%
X161800000Y-116880000D03*
X171800000Y-116880000D03*
X161800000Y-109700000D03*
X164300000Y-109700000D03*
X166800000Y-109700000D03*
X169300000Y-109700000D03*
X171800000Y-109700000D03*
X161800000Y-107200000D03*
X164300000Y-107200000D03*
X166800000Y-107200000D03*
X169300000Y-107200000D03*
G36*
G01*
X171200000Y-106350000D02*
X172400000Y-106350000D01*
G75*
G02*
X172650000Y-106600000I0J-250000D01*
G01*
X172650000Y-107800000D01*
G75*
G02*
X172400000Y-108050000I-250000J0D01*
G01*
X171200000Y-108050000D01*
G75*
G02*
X170950000Y-107800000I0J250000D01*
G01*
X170950000Y-106600000D01*
G75*
G02*
X171200000Y-106350000I250000J0D01*
G01*
G37*
%TD*%
%TO.C,J6*%
X128200000Y-116880000D03*
X138200000Y-116880000D03*
X128200000Y-109700000D03*
X130700000Y-109700000D03*
X133200000Y-109700000D03*
X135700000Y-109700000D03*
X138200000Y-109700000D03*
X128200000Y-107200000D03*
X130700000Y-107200000D03*
X133200000Y-107200000D03*
X135700000Y-107200000D03*
G36*
G01*
X137600000Y-106350000D02*
X138800000Y-106350000D01*
G75*
G02*
X139050000Y-106600000I0J-250000D01*
G01*
X139050000Y-107800000D01*
G75*
G02*
X138800000Y-108050000I-250000J0D01*
G01*
X137600000Y-108050000D01*
G75*
G02*
X137350000Y-107800000I0J250000D01*
G01*
X137350000Y-106600000D01*
G75*
G02*
X137600000Y-106350000I250000J0D01*
G01*
G37*
%TD*%
%TO.C,J7*%
X113600000Y-116880000D03*
X123600000Y-116880000D03*
X113600000Y-109700000D03*
X116100000Y-109700000D03*
X118600000Y-109700000D03*
X121100000Y-109700000D03*
X123600000Y-109700000D03*
X113600000Y-107200000D03*
X116100000Y-107200000D03*
X118600000Y-107200000D03*
X121100000Y-107200000D03*
G36*
G01*
X123000000Y-106350000D02*
X124200000Y-106350000D01*
G75*
G02*
X124450000Y-106600000I0J-250000D01*
G01*
X124450000Y-107800000D01*
G75*
G02*
X124200000Y-108050000I-250000J0D01*
G01*
X123000000Y-108050000D01*
G75*
G02*
X122750000Y-107800000I0J250000D01*
G01*
X122750000Y-106600000D01*
G75*
G02*
X123000000Y-106350000I250000J0D01*
G01*
G37*
%TD*%
D15*
%TO.C,CRYS1*%
X177700000Y-90470000D03*
X177700000Y-95350000D03*
%TD*%
M02*
