%TF.GenerationSoftware,KiCad,Pcbnew,(5.1.10)-1*%
%TF.CreationDate,2021-07-04T19:20:50-04:00*%
%TF.ProjectId,SensorBoard,53656e73-6f72-4426-9f61-72642e6b6963,rev?*%
%TF.SameCoordinates,Original*%
%TF.FileFunction,Legend,Top*%
%TF.FilePolarity,Positive*%
%FSLAX46Y46*%
G04 Gerber Fmt 4.6, Leading zero omitted, Abs format (unit mm)*
G04 Created by KiCad (PCBNEW (5.1.10)-1) date 2021-07-04 19:20:50*
%MOMM*%
%LPD*%
G01*
G04 APERTURE LIST*
%ADD10C,0.300000*%
%ADD11C,0.120000*%
%ADD12C,0.150000*%
G04 APERTURE END LIST*
D10*
X176614285Y-105307142D02*
X176828571Y-105378571D01*
X177185714Y-105378571D01*
X177328571Y-105307142D01*
X177400000Y-105235714D01*
X177471428Y-105092857D01*
X177471428Y-104950000D01*
X177400000Y-104807142D01*
X177328571Y-104735714D01*
X177185714Y-104664285D01*
X176900000Y-104592857D01*
X176757142Y-104521428D01*
X176685714Y-104450000D01*
X176614285Y-104307142D01*
X176614285Y-104164285D01*
X176685714Y-104021428D01*
X176757142Y-103950000D01*
X176900000Y-103878571D01*
X177257142Y-103878571D01*
X177471428Y-103950000D01*
X178685714Y-105307142D02*
X178542857Y-105378571D01*
X178257142Y-105378571D01*
X178114285Y-105307142D01*
X178042857Y-105164285D01*
X178042857Y-104592857D01*
X178114285Y-104450000D01*
X178257142Y-104378571D01*
X178542857Y-104378571D01*
X178685714Y-104450000D01*
X178757142Y-104592857D01*
X178757142Y-104735714D01*
X178042857Y-104878571D01*
X179400000Y-104378571D02*
X179400000Y-105378571D01*
X179400000Y-104521428D02*
X179471428Y-104450000D01*
X179614285Y-104378571D01*
X179828571Y-104378571D01*
X179971428Y-104450000D01*
X180042857Y-104592857D01*
X180042857Y-105378571D01*
X180685714Y-105307142D02*
X180828571Y-105378571D01*
X181114285Y-105378571D01*
X181257142Y-105307142D01*
X181328571Y-105164285D01*
X181328571Y-105092857D01*
X181257142Y-104950000D01*
X181114285Y-104878571D01*
X180900000Y-104878571D01*
X180757142Y-104807142D01*
X180685714Y-104664285D01*
X180685714Y-104592857D01*
X180757142Y-104450000D01*
X180900000Y-104378571D01*
X181114285Y-104378571D01*
X181257142Y-104450000D01*
X182185714Y-105378571D02*
X182042857Y-105307142D01*
X181971428Y-105235714D01*
X181900000Y-105092857D01*
X181900000Y-104664285D01*
X181971428Y-104521428D01*
X182042857Y-104450000D01*
X182185714Y-104378571D01*
X182400000Y-104378571D01*
X182542857Y-104450000D01*
X182614285Y-104521428D01*
X182685714Y-104664285D01*
X182685714Y-105092857D01*
X182614285Y-105235714D01*
X182542857Y-105307142D01*
X182400000Y-105378571D01*
X182185714Y-105378571D01*
X183328571Y-105378571D02*
X183328571Y-104378571D01*
X183328571Y-104664285D02*
X183400000Y-104521428D01*
X183471428Y-104450000D01*
X183614285Y-104378571D01*
X183757142Y-104378571D01*
X185685714Y-103878571D02*
X185828571Y-103878571D01*
X185971428Y-103950000D01*
X186042857Y-104021428D01*
X186114285Y-104164285D01*
X186185714Y-104450000D01*
X186185714Y-104807142D01*
X186114285Y-105092857D01*
X186042857Y-105235714D01*
X185971428Y-105307142D01*
X185828571Y-105378571D01*
X185685714Y-105378571D01*
X185542857Y-105307142D01*
X185471428Y-105235714D01*
X185400000Y-105092857D01*
X185328571Y-104807142D01*
X185328571Y-104450000D01*
X185400000Y-104164285D01*
X185471428Y-104021428D01*
X185542857Y-103950000D01*
X185685714Y-103878571D01*
X162014285Y-105307142D02*
X162228571Y-105378571D01*
X162585714Y-105378571D01*
X162728571Y-105307142D01*
X162800000Y-105235714D01*
X162871428Y-105092857D01*
X162871428Y-104950000D01*
X162800000Y-104807142D01*
X162728571Y-104735714D01*
X162585714Y-104664285D01*
X162300000Y-104592857D01*
X162157142Y-104521428D01*
X162085714Y-104450000D01*
X162014285Y-104307142D01*
X162014285Y-104164285D01*
X162085714Y-104021428D01*
X162157142Y-103950000D01*
X162300000Y-103878571D01*
X162657142Y-103878571D01*
X162871428Y-103950000D01*
X164085714Y-105307142D02*
X163942857Y-105378571D01*
X163657142Y-105378571D01*
X163514285Y-105307142D01*
X163442857Y-105164285D01*
X163442857Y-104592857D01*
X163514285Y-104450000D01*
X163657142Y-104378571D01*
X163942857Y-104378571D01*
X164085714Y-104450000D01*
X164157142Y-104592857D01*
X164157142Y-104735714D01*
X163442857Y-104878571D01*
X164800000Y-104378571D02*
X164800000Y-105378571D01*
X164800000Y-104521428D02*
X164871428Y-104450000D01*
X165014285Y-104378571D01*
X165228571Y-104378571D01*
X165371428Y-104450000D01*
X165442857Y-104592857D01*
X165442857Y-105378571D01*
X166085714Y-105307142D02*
X166228571Y-105378571D01*
X166514285Y-105378571D01*
X166657142Y-105307142D01*
X166728571Y-105164285D01*
X166728571Y-105092857D01*
X166657142Y-104950000D01*
X166514285Y-104878571D01*
X166300000Y-104878571D01*
X166157142Y-104807142D01*
X166085714Y-104664285D01*
X166085714Y-104592857D01*
X166157142Y-104450000D01*
X166300000Y-104378571D01*
X166514285Y-104378571D01*
X166657142Y-104450000D01*
X167585714Y-105378571D02*
X167442857Y-105307142D01*
X167371428Y-105235714D01*
X167300000Y-105092857D01*
X167300000Y-104664285D01*
X167371428Y-104521428D01*
X167442857Y-104450000D01*
X167585714Y-104378571D01*
X167800000Y-104378571D01*
X167942857Y-104450000D01*
X168014285Y-104521428D01*
X168085714Y-104664285D01*
X168085714Y-105092857D01*
X168014285Y-105235714D01*
X167942857Y-105307142D01*
X167800000Y-105378571D01*
X167585714Y-105378571D01*
X168728571Y-105378571D02*
X168728571Y-104378571D01*
X168728571Y-104664285D02*
X168800000Y-104521428D01*
X168871428Y-104450000D01*
X169014285Y-104378571D01*
X169157142Y-104378571D01*
X171585714Y-105378571D02*
X170728571Y-105378571D01*
X171157142Y-105378571D02*
X171157142Y-103878571D01*
X171014285Y-104092857D01*
X170871428Y-104235714D01*
X170728571Y-104307142D01*
X128414285Y-105307142D02*
X128628571Y-105378571D01*
X128985714Y-105378571D01*
X129128571Y-105307142D01*
X129200000Y-105235714D01*
X129271428Y-105092857D01*
X129271428Y-104950000D01*
X129200000Y-104807142D01*
X129128571Y-104735714D01*
X128985714Y-104664285D01*
X128700000Y-104592857D01*
X128557142Y-104521428D01*
X128485714Y-104450000D01*
X128414285Y-104307142D01*
X128414285Y-104164285D01*
X128485714Y-104021428D01*
X128557142Y-103950000D01*
X128700000Y-103878571D01*
X129057142Y-103878571D01*
X129271428Y-103950000D01*
X130485714Y-105307142D02*
X130342857Y-105378571D01*
X130057142Y-105378571D01*
X129914285Y-105307142D01*
X129842857Y-105164285D01*
X129842857Y-104592857D01*
X129914285Y-104450000D01*
X130057142Y-104378571D01*
X130342857Y-104378571D01*
X130485714Y-104450000D01*
X130557142Y-104592857D01*
X130557142Y-104735714D01*
X129842857Y-104878571D01*
X131200000Y-104378571D02*
X131200000Y-105378571D01*
X131200000Y-104521428D02*
X131271428Y-104450000D01*
X131414285Y-104378571D01*
X131628571Y-104378571D01*
X131771428Y-104450000D01*
X131842857Y-104592857D01*
X131842857Y-105378571D01*
X132485714Y-105307142D02*
X132628571Y-105378571D01*
X132914285Y-105378571D01*
X133057142Y-105307142D01*
X133128571Y-105164285D01*
X133128571Y-105092857D01*
X133057142Y-104950000D01*
X132914285Y-104878571D01*
X132700000Y-104878571D01*
X132557142Y-104807142D01*
X132485714Y-104664285D01*
X132485714Y-104592857D01*
X132557142Y-104450000D01*
X132700000Y-104378571D01*
X132914285Y-104378571D01*
X133057142Y-104450000D01*
X133985714Y-105378571D02*
X133842857Y-105307142D01*
X133771428Y-105235714D01*
X133700000Y-105092857D01*
X133700000Y-104664285D01*
X133771428Y-104521428D01*
X133842857Y-104450000D01*
X133985714Y-104378571D01*
X134200000Y-104378571D01*
X134342857Y-104450000D01*
X134414285Y-104521428D01*
X134485714Y-104664285D01*
X134485714Y-105092857D01*
X134414285Y-105235714D01*
X134342857Y-105307142D01*
X134200000Y-105378571D01*
X133985714Y-105378571D01*
X135128571Y-105378571D02*
X135128571Y-104378571D01*
X135128571Y-104664285D02*
X135200000Y-104521428D01*
X135271428Y-104450000D01*
X135414285Y-104378571D01*
X135557142Y-104378571D01*
X137128571Y-104021428D02*
X137200000Y-103950000D01*
X137342857Y-103878571D01*
X137700000Y-103878571D01*
X137842857Y-103950000D01*
X137914285Y-104021428D01*
X137985714Y-104164285D01*
X137985714Y-104307142D01*
X137914285Y-104521428D01*
X137057142Y-105378571D01*
X137985714Y-105378571D01*
X113814285Y-105307142D02*
X114028571Y-105378571D01*
X114385714Y-105378571D01*
X114528571Y-105307142D01*
X114600000Y-105235714D01*
X114671428Y-105092857D01*
X114671428Y-104950000D01*
X114600000Y-104807142D01*
X114528571Y-104735714D01*
X114385714Y-104664285D01*
X114100000Y-104592857D01*
X113957142Y-104521428D01*
X113885714Y-104450000D01*
X113814285Y-104307142D01*
X113814285Y-104164285D01*
X113885714Y-104021428D01*
X113957142Y-103950000D01*
X114100000Y-103878571D01*
X114457142Y-103878571D01*
X114671428Y-103950000D01*
X115885714Y-105307142D02*
X115742857Y-105378571D01*
X115457142Y-105378571D01*
X115314285Y-105307142D01*
X115242857Y-105164285D01*
X115242857Y-104592857D01*
X115314285Y-104450000D01*
X115457142Y-104378571D01*
X115742857Y-104378571D01*
X115885714Y-104450000D01*
X115957142Y-104592857D01*
X115957142Y-104735714D01*
X115242857Y-104878571D01*
X116600000Y-104378571D02*
X116600000Y-105378571D01*
X116600000Y-104521428D02*
X116671428Y-104450000D01*
X116814285Y-104378571D01*
X117028571Y-104378571D01*
X117171428Y-104450000D01*
X117242857Y-104592857D01*
X117242857Y-105378571D01*
X117885714Y-105307142D02*
X118028571Y-105378571D01*
X118314285Y-105378571D01*
X118457142Y-105307142D01*
X118528571Y-105164285D01*
X118528571Y-105092857D01*
X118457142Y-104950000D01*
X118314285Y-104878571D01*
X118100000Y-104878571D01*
X117957142Y-104807142D01*
X117885714Y-104664285D01*
X117885714Y-104592857D01*
X117957142Y-104450000D01*
X118100000Y-104378571D01*
X118314285Y-104378571D01*
X118457142Y-104450000D01*
X119385714Y-105378571D02*
X119242857Y-105307142D01*
X119171428Y-105235714D01*
X119100000Y-105092857D01*
X119100000Y-104664285D01*
X119171428Y-104521428D01*
X119242857Y-104450000D01*
X119385714Y-104378571D01*
X119600000Y-104378571D01*
X119742857Y-104450000D01*
X119814285Y-104521428D01*
X119885714Y-104664285D01*
X119885714Y-105092857D01*
X119814285Y-105235714D01*
X119742857Y-105307142D01*
X119600000Y-105378571D01*
X119385714Y-105378571D01*
X120528571Y-105378571D02*
X120528571Y-104378571D01*
X120528571Y-104664285D02*
X120600000Y-104521428D01*
X120671428Y-104450000D01*
X120814285Y-104378571D01*
X120957142Y-104378571D01*
X122457142Y-103878571D02*
X123385714Y-103878571D01*
X122885714Y-104450000D01*
X123100000Y-104450000D01*
X123242857Y-104521428D01*
X123314285Y-104592857D01*
X123385714Y-104735714D01*
X123385714Y-105092857D01*
X123314285Y-105235714D01*
X123242857Y-105307142D01*
X123100000Y-105378571D01*
X122671428Y-105378571D01*
X122528571Y-105307142D01*
X122457142Y-105235714D01*
D11*
%TO.C,C8*%
X126410000Y-87971267D02*
X126410000Y-87628733D01*
X125390000Y-87971267D02*
X125390000Y-87628733D01*
%TO.C,C7*%
X154410000Y-87971267D02*
X154410000Y-87628733D01*
X153390000Y-87971267D02*
X153390000Y-87628733D01*
%TO.C,C6*%
X142828733Y-71210000D02*
X143171267Y-71210000D01*
X142828733Y-70190000D02*
X143171267Y-70190000D01*
%TO.C,C5*%
X150171267Y-102940000D02*
X149828733Y-102940000D01*
X150171267Y-103960000D02*
X149828733Y-103960000D01*
%TO.C,C4*%
X167390000Y-87971267D02*
X167390000Y-87628733D01*
X168410000Y-87971267D02*
X168410000Y-87628733D01*
%TO.C,C3*%
X140410000Y-87971267D02*
X140410000Y-87628733D01*
X139390000Y-87971267D02*
X139390000Y-87628733D01*
%TO.C,J1*%
X110130000Y-96410000D02*
X115330000Y-96410000D01*
X110130000Y-91270000D02*
X110130000Y-96410000D01*
X115330000Y-88670000D02*
X115330000Y-96410000D01*
X110130000Y-91270000D02*
X112730000Y-91270000D01*
X112730000Y-91270000D02*
X112730000Y-88670000D01*
X112730000Y-88670000D02*
X115330000Y-88670000D01*
X110130000Y-90000000D02*
X110130000Y-88670000D01*
X110130000Y-88670000D02*
X111460000Y-88670000D01*
%TO.C,J2*%
X184670000Y-88670000D02*
X186000000Y-88670000D01*
X184670000Y-90000000D02*
X184670000Y-88670000D01*
X187270000Y-88670000D02*
X189870000Y-88670000D01*
X187270000Y-91270000D02*
X187270000Y-88670000D01*
X184670000Y-91270000D02*
X187270000Y-91270000D01*
X189870000Y-88670000D02*
X189870000Y-96410000D01*
X184670000Y-91270000D02*
X184670000Y-96410000D01*
X184670000Y-96410000D02*
X189870000Y-96410000D01*
%TO.C,U6*%
X132235000Y-90000000D02*
X132235000Y-86400000D01*
X132235000Y-90000000D02*
X132235000Y-92200000D01*
X126765000Y-90000000D02*
X126765000Y-87800000D01*
X126765000Y-90000000D02*
X126765000Y-92200000D01*
%TO.C,U5*%
X146235000Y-90000000D02*
X146235000Y-86400000D01*
X146235000Y-90000000D02*
X146235000Y-92200000D01*
X140765000Y-90000000D02*
X140765000Y-87800000D01*
X140765000Y-90000000D02*
X140765000Y-92200000D01*
%TO.C,U4*%
X160235000Y-90000000D02*
X160235000Y-86400000D01*
X160235000Y-90000000D02*
X160235000Y-92200000D01*
X154765000Y-90000000D02*
X154765000Y-87800000D01*
X154765000Y-90000000D02*
X154765000Y-92200000D01*
%TO.C,U3*%
X174235000Y-90000000D02*
X174235000Y-86400000D01*
X174235000Y-90000000D02*
X174235000Y-92200000D01*
X168765000Y-90000000D02*
X168765000Y-87800000D01*
X168765000Y-90000000D02*
X168765000Y-92200000D01*
%TO.C,U2*%
X150000000Y-108110000D02*
X152925000Y-108110000D01*
X150000000Y-108110000D02*
X148500000Y-108110000D01*
X150000000Y-104890000D02*
X151500000Y-104890000D01*
X150000000Y-104890000D02*
X148500000Y-104890000D01*
D12*
%TO.C,U1*%
X147125000Y-65300000D02*
X145525000Y-65300000D01*
X147125000Y-75375000D02*
X152875000Y-75375000D01*
X147125000Y-64725000D02*
X152875000Y-64725000D01*
X147125000Y-75375000D02*
X147125000Y-74725000D01*
X152875000Y-75375000D02*
X152875000Y-74725000D01*
X152875000Y-64725000D02*
X152875000Y-65375000D01*
X147125000Y-64725000D02*
X147125000Y-65300000D01*
D11*
%TO.C,RLY4*%
X152010000Y-102105000D02*
X153475000Y-102105000D01*
X152010000Y-102460000D02*
X152010000Y-102105000D01*
X150000000Y-102460000D02*
X152010000Y-102460000D01*
X147990000Y-102460000D02*
X147990000Y-102105000D01*
X150000000Y-102460000D02*
X147990000Y-102460000D01*
X152010000Y-98140000D02*
X152010000Y-98495000D01*
X150000000Y-98140000D02*
X152010000Y-98140000D01*
X147990000Y-98140000D02*
X147990000Y-98495000D01*
X150000000Y-98140000D02*
X147990000Y-98140000D01*
%TO.C,RLY3*%
X124405000Y-87990000D02*
X124405000Y-86525000D01*
X124760000Y-87990000D02*
X124405000Y-87990000D01*
X124760000Y-90000000D02*
X124760000Y-87990000D01*
X124760000Y-92010000D02*
X124405000Y-92010000D01*
X124760000Y-90000000D02*
X124760000Y-92010000D01*
X120440000Y-87990000D02*
X120795000Y-87990000D01*
X120440000Y-90000000D02*
X120440000Y-87990000D01*
X120440000Y-92010000D02*
X120795000Y-92010000D01*
X120440000Y-90000000D02*
X120440000Y-92010000D01*
%TO.C,RLY2*%
X138405000Y-87990000D02*
X138405000Y-86525000D01*
X138760000Y-87990000D02*
X138405000Y-87990000D01*
X138760000Y-90000000D02*
X138760000Y-87990000D01*
X138760000Y-92010000D02*
X138405000Y-92010000D01*
X138760000Y-90000000D02*
X138760000Y-92010000D01*
X134440000Y-87990000D02*
X134795000Y-87990000D01*
X134440000Y-90000000D02*
X134440000Y-87990000D01*
X134440000Y-92010000D02*
X134795000Y-92010000D01*
X134440000Y-90000000D02*
X134440000Y-92010000D01*
%TO.C,RLY1*%
X152405000Y-87990000D02*
X152405000Y-86525000D01*
X152760000Y-87990000D02*
X152405000Y-87990000D01*
X152760000Y-90000000D02*
X152760000Y-87990000D01*
X152760000Y-92010000D02*
X152405000Y-92010000D01*
X152760000Y-90000000D02*
X152760000Y-92010000D01*
X148440000Y-87990000D02*
X148795000Y-87990000D01*
X148440000Y-90000000D02*
X148440000Y-87990000D01*
X148440000Y-92010000D02*
X148795000Y-92010000D01*
X148440000Y-90000000D02*
X148440000Y-92010000D01*
%TO.C,RLY0*%
X166405000Y-87990000D02*
X166405000Y-86525000D01*
X166760000Y-87990000D02*
X166405000Y-87990000D01*
X166760000Y-90000000D02*
X166760000Y-87990000D01*
X166760000Y-92010000D02*
X166405000Y-92010000D01*
X166760000Y-90000000D02*
X166760000Y-92010000D01*
X162440000Y-87990000D02*
X162795000Y-87990000D01*
X162440000Y-90000000D02*
X162440000Y-87990000D01*
X162440000Y-92010000D02*
X162795000Y-92010000D01*
X162440000Y-90000000D02*
X162440000Y-92010000D01*
%TO.C,R12*%
X155560000Y-100811252D02*
X155560000Y-100288748D01*
X154140000Y-100811252D02*
X154140000Y-100288748D01*
%TO.C,R11*%
X126561252Y-84190000D02*
X126038748Y-84190000D01*
X126561252Y-85610000D02*
X126038748Y-85610000D01*
%TO.C,R10*%
X154561252Y-84190000D02*
X154038748Y-84190000D01*
X154561252Y-85610000D02*
X154038748Y-85610000D01*
%TO.C,R9*%
X168561252Y-84190000D02*
X168038748Y-84190000D01*
X168561252Y-85610000D02*
X168038748Y-85610000D01*
%TO.C,R8*%
X140561252Y-84190000D02*
X140038748Y-84190000D01*
X140561252Y-85610000D02*
X140038748Y-85610000D01*
%TO.C,R4*%
X144910000Y-64561252D02*
X144910000Y-64038748D01*
X143490000Y-64561252D02*
X143490000Y-64038748D01*
%TO.C,R3*%
X122361252Y-84190000D02*
X121838748Y-84190000D01*
X122361252Y-85610000D02*
X121838748Y-85610000D01*
%TO.C,R2*%
X136361252Y-84190000D02*
X135838748Y-84190000D01*
X136361252Y-85610000D02*
X135838748Y-85610000D01*
%TO.C,R1*%
X150361252Y-84190000D02*
X149838748Y-84190000D01*
X150361252Y-85610000D02*
X149838748Y-85610000D01*
%TO.C,R0*%
X164361252Y-84190000D02*
X163838748Y-84190000D01*
X164361252Y-85610000D02*
X163838748Y-85610000D01*
%TO.C,J4*%
X187934264Y-106900000D02*
X187510000Y-107200000D01*
X187934264Y-107500000D02*
X187934264Y-106900000D01*
X187510000Y-107200000D02*
X187934264Y-107500000D01*
X176250000Y-110810000D02*
X176250000Y-111510000D01*
X176550000Y-110810000D02*
X176250000Y-110810000D01*
X176550000Y-111510000D02*
X176550000Y-110810000D01*
X176250000Y-111510000D02*
X176550000Y-111510000D01*
X178750000Y-110810000D02*
X178750000Y-111510000D01*
X179050000Y-110810000D02*
X178750000Y-110810000D01*
X179050000Y-111510000D02*
X179050000Y-110810000D01*
X178750000Y-111510000D02*
X179050000Y-111510000D01*
X181250000Y-110810000D02*
X181250000Y-111510000D01*
X181550000Y-110810000D02*
X181250000Y-110810000D01*
X181550000Y-111510000D02*
X181550000Y-110810000D01*
X181250000Y-111510000D02*
X181550000Y-111510000D01*
X183750000Y-110810000D02*
X183750000Y-111510000D01*
X184050000Y-110810000D02*
X183750000Y-110810000D01*
X184050000Y-111510000D02*
X184050000Y-110810000D01*
X183750000Y-111510000D02*
X184050000Y-111510000D01*
X186250000Y-110810000D02*
X186250000Y-111510000D01*
X186550000Y-110810000D02*
X186250000Y-110810000D01*
X186550000Y-111510000D02*
X186550000Y-110810000D01*
X186250000Y-111510000D02*
X186550000Y-111510000D01*
X188230000Y-120190000D02*
X188230000Y-111510000D01*
X174570000Y-120190000D02*
X188230000Y-120190000D01*
X174570000Y-111510000D02*
X174570000Y-120190000D01*
X188230000Y-111510000D02*
X174570000Y-111510000D01*
%TO.C,J5*%
X173334264Y-106900000D02*
X172910000Y-107200000D01*
X173334264Y-107500000D02*
X173334264Y-106900000D01*
X172910000Y-107200000D02*
X173334264Y-107500000D01*
X161650000Y-110810000D02*
X161650000Y-111510000D01*
X161950000Y-110810000D02*
X161650000Y-110810000D01*
X161950000Y-111510000D02*
X161950000Y-110810000D01*
X161650000Y-111510000D02*
X161950000Y-111510000D01*
X164150000Y-110810000D02*
X164150000Y-111510000D01*
X164450000Y-110810000D02*
X164150000Y-110810000D01*
X164450000Y-111510000D02*
X164450000Y-110810000D01*
X164150000Y-111510000D02*
X164450000Y-111510000D01*
X166650000Y-110810000D02*
X166650000Y-111510000D01*
X166950000Y-110810000D02*
X166650000Y-110810000D01*
X166950000Y-111510000D02*
X166950000Y-110810000D01*
X166650000Y-111510000D02*
X166950000Y-111510000D01*
X169150000Y-110810000D02*
X169150000Y-111510000D01*
X169450000Y-110810000D02*
X169150000Y-110810000D01*
X169450000Y-111510000D02*
X169450000Y-110810000D01*
X169150000Y-111510000D02*
X169450000Y-111510000D01*
X171650000Y-110810000D02*
X171650000Y-111510000D01*
X171950000Y-110810000D02*
X171650000Y-110810000D01*
X171950000Y-111510000D02*
X171950000Y-110810000D01*
X171650000Y-111510000D02*
X171950000Y-111510000D01*
X173630000Y-120190000D02*
X173630000Y-111510000D01*
X159970000Y-120190000D02*
X173630000Y-120190000D01*
X159970000Y-111510000D02*
X159970000Y-120190000D01*
X173630000Y-111510000D02*
X159970000Y-111510000D01*
%TO.C,J6*%
X139734264Y-106900000D02*
X139310000Y-107200000D01*
X139734264Y-107500000D02*
X139734264Y-106900000D01*
X139310000Y-107200000D02*
X139734264Y-107500000D01*
X128050000Y-110810000D02*
X128050000Y-111510000D01*
X128350000Y-110810000D02*
X128050000Y-110810000D01*
X128350000Y-111510000D02*
X128350000Y-110810000D01*
X128050000Y-111510000D02*
X128350000Y-111510000D01*
X130550000Y-110810000D02*
X130550000Y-111510000D01*
X130850000Y-110810000D02*
X130550000Y-110810000D01*
X130850000Y-111510000D02*
X130850000Y-110810000D01*
X130550000Y-111510000D02*
X130850000Y-111510000D01*
X133050000Y-110810000D02*
X133050000Y-111510000D01*
X133350000Y-110810000D02*
X133050000Y-110810000D01*
X133350000Y-111510000D02*
X133350000Y-110810000D01*
X133050000Y-111510000D02*
X133350000Y-111510000D01*
X135550000Y-110810000D02*
X135550000Y-111510000D01*
X135850000Y-110810000D02*
X135550000Y-110810000D01*
X135850000Y-111510000D02*
X135850000Y-110810000D01*
X135550000Y-111510000D02*
X135850000Y-111510000D01*
X138050000Y-110810000D02*
X138050000Y-111510000D01*
X138350000Y-110810000D02*
X138050000Y-110810000D01*
X138350000Y-111510000D02*
X138350000Y-110810000D01*
X138050000Y-111510000D02*
X138350000Y-111510000D01*
X140030000Y-120190000D02*
X140030000Y-111510000D01*
X126370000Y-120190000D02*
X140030000Y-120190000D01*
X126370000Y-111510000D02*
X126370000Y-120190000D01*
X140030000Y-111510000D02*
X126370000Y-111510000D01*
%TO.C,J7*%
X125134264Y-106900000D02*
X124710000Y-107200000D01*
X125134264Y-107500000D02*
X125134264Y-106900000D01*
X124710000Y-107200000D02*
X125134264Y-107500000D01*
X113450000Y-110810000D02*
X113450000Y-111510000D01*
X113750000Y-110810000D02*
X113450000Y-110810000D01*
X113750000Y-111510000D02*
X113750000Y-110810000D01*
X113450000Y-111510000D02*
X113750000Y-111510000D01*
X115950000Y-110810000D02*
X115950000Y-111510000D01*
X116250000Y-110810000D02*
X115950000Y-110810000D01*
X116250000Y-111510000D02*
X116250000Y-110810000D01*
X115950000Y-111510000D02*
X116250000Y-111510000D01*
X118450000Y-110810000D02*
X118450000Y-111510000D01*
X118750000Y-110810000D02*
X118450000Y-110810000D01*
X118750000Y-111510000D02*
X118750000Y-110810000D01*
X118450000Y-111510000D02*
X118750000Y-111510000D01*
X120950000Y-110810000D02*
X120950000Y-111510000D01*
X121250000Y-110810000D02*
X120950000Y-110810000D01*
X121250000Y-111510000D02*
X121250000Y-110810000D01*
X120950000Y-111510000D02*
X121250000Y-111510000D01*
X123450000Y-110810000D02*
X123450000Y-111510000D01*
X123750000Y-110810000D02*
X123450000Y-110810000D01*
X123750000Y-111510000D02*
X123750000Y-110810000D01*
X123450000Y-111510000D02*
X123750000Y-111510000D01*
X125430000Y-120190000D02*
X125430000Y-111510000D01*
X111770000Y-120190000D02*
X125430000Y-120190000D01*
X111770000Y-111510000D02*
X111770000Y-120190000D01*
X125430000Y-111510000D02*
X111770000Y-111510000D01*
%TO.C,CRYS1*%
X180225000Y-96035000D02*
X180225000Y-89785000D01*
X175175000Y-96035000D02*
X175175000Y-89785000D01*
X180225000Y-89785000D02*
G75*
G03*
X175175000Y-89785000I-2525000J0D01*
G01*
X180225000Y-96035000D02*
G75*
G02*
X175175000Y-96035000I-2525000J0D01*
G01*
%TO.C,C2*%
X180840000Y-89428733D02*
X180840000Y-89771267D01*
X181860000Y-89428733D02*
X181860000Y-89771267D01*
%TO.C,C1*%
X181860000Y-96371267D02*
X181860000Y-96028733D01*
X180840000Y-96371267D02*
X180840000Y-96028733D01*
%TO.C,C8*%
D12*
X126257142Y-90666666D02*
X126304761Y-90714285D01*
X126352380Y-90857142D01*
X126352380Y-90952380D01*
X126304761Y-91095238D01*
X126209523Y-91190476D01*
X126114285Y-91238095D01*
X125923809Y-91285714D01*
X125780952Y-91285714D01*
X125590476Y-91238095D01*
X125495238Y-91190476D01*
X125400000Y-91095238D01*
X125352380Y-90952380D01*
X125352380Y-90857142D01*
X125400000Y-90714285D01*
X125447619Y-90666666D01*
X125780952Y-90095238D02*
X125733333Y-90190476D01*
X125685714Y-90238095D01*
X125590476Y-90285714D01*
X125542857Y-90285714D01*
X125447619Y-90238095D01*
X125400000Y-90190476D01*
X125352380Y-90095238D01*
X125352380Y-89904761D01*
X125400000Y-89809523D01*
X125447619Y-89761904D01*
X125542857Y-89714285D01*
X125590476Y-89714285D01*
X125685714Y-89761904D01*
X125733333Y-89809523D01*
X125780952Y-89904761D01*
X125780952Y-90095238D01*
X125828571Y-90190476D01*
X125876190Y-90238095D01*
X125971428Y-90285714D01*
X126161904Y-90285714D01*
X126257142Y-90238095D01*
X126304761Y-90190476D01*
X126352380Y-90095238D01*
X126352380Y-89904761D01*
X126304761Y-89809523D01*
X126257142Y-89761904D01*
X126161904Y-89714285D01*
X125971428Y-89714285D01*
X125876190Y-89761904D01*
X125828571Y-89809523D01*
X125780952Y-89904761D01*
%TO.C,C7*%
X154257142Y-90666666D02*
X154304761Y-90714285D01*
X154352380Y-90857142D01*
X154352380Y-90952380D01*
X154304761Y-91095238D01*
X154209523Y-91190476D01*
X154114285Y-91238095D01*
X153923809Y-91285714D01*
X153780952Y-91285714D01*
X153590476Y-91238095D01*
X153495238Y-91190476D01*
X153400000Y-91095238D01*
X153352380Y-90952380D01*
X153352380Y-90857142D01*
X153400000Y-90714285D01*
X153447619Y-90666666D01*
X153352380Y-90333333D02*
X153352380Y-89666666D01*
X154352380Y-90095238D01*
%TO.C,C6*%
X142833333Y-69627142D02*
X142785714Y-69674761D01*
X142642857Y-69722380D01*
X142547619Y-69722380D01*
X142404761Y-69674761D01*
X142309523Y-69579523D01*
X142261904Y-69484285D01*
X142214285Y-69293809D01*
X142214285Y-69150952D01*
X142261904Y-68960476D01*
X142309523Y-68865238D01*
X142404761Y-68770000D01*
X142547619Y-68722380D01*
X142642857Y-68722380D01*
X142785714Y-68770000D01*
X142833333Y-68817619D01*
X143690476Y-68722380D02*
X143500000Y-68722380D01*
X143404761Y-68770000D01*
X143357142Y-68817619D01*
X143261904Y-68960476D01*
X143214285Y-69150952D01*
X143214285Y-69531904D01*
X143261904Y-69627142D01*
X143309523Y-69674761D01*
X143404761Y-69722380D01*
X143595238Y-69722380D01*
X143690476Y-69674761D01*
X143738095Y-69627142D01*
X143785714Y-69531904D01*
X143785714Y-69293809D01*
X143738095Y-69198571D01*
X143690476Y-69150952D01*
X143595238Y-69103333D01*
X143404761Y-69103333D01*
X143309523Y-69150952D01*
X143261904Y-69198571D01*
X143214285Y-69293809D01*
%TO.C,C5*%
X147133333Y-103857142D02*
X147085714Y-103904761D01*
X146942857Y-103952380D01*
X146847619Y-103952380D01*
X146704761Y-103904761D01*
X146609523Y-103809523D01*
X146561904Y-103714285D01*
X146514285Y-103523809D01*
X146514285Y-103380952D01*
X146561904Y-103190476D01*
X146609523Y-103095238D01*
X146704761Y-103000000D01*
X146847619Y-102952380D01*
X146942857Y-102952380D01*
X147085714Y-103000000D01*
X147133333Y-103047619D01*
X148038095Y-102952380D02*
X147561904Y-102952380D01*
X147514285Y-103428571D01*
X147561904Y-103380952D01*
X147657142Y-103333333D01*
X147895238Y-103333333D01*
X147990476Y-103380952D01*
X148038095Y-103428571D01*
X148085714Y-103523809D01*
X148085714Y-103761904D01*
X148038095Y-103857142D01*
X147990476Y-103904761D01*
X147895238Y-103952380D01*
X147657142Y-103952380D01*
X147561904Y-103904761D01*
X147514285Y-103857142D01*
%TO.C,C4*%
X168257142Y-90666666D02*
X168304761Y-90714285D01*
X168352380Y-90857142D01*
X168352380Y-90952380D01*
X168304761Y-91095238D01*
X168209523Y-91190476D01*
X168114285Y-91238095D01*
X167923809Y-91285714D01*
X167780952Y-91285714D01*
X167590476Y-91238095D01*
X167495238Y-91190476D01*
X167400000Y-91095238D01*
X167352380Y-90952380D01*
X167352380Y-90857142D01*
X167400000Y-90714285D01*
X167447619Y-90666666D01*
X167685714Y-89809523D02*
X168352380Y-89809523D01*
X167304761Y-90047619D02*
X168019047Y-90285714D01*
X168019047Y-89666666D01*
%TO.C,C3*%
X140257142Y-90666666D02*
X140304761Y-90714285D01*
X140352380Y-90857142D01*
X140352380Y-90952380D01*
X140304761Y-91095238D01*
X140209523Y-91190476D01*
X140114285Y-91238095D01*
X139923809Y-91285714D01*
X139780952Y-91285714D01*
X139590476Y-91238095D01*
X139495238Y-91190476D01*
X139400000Y-91095238D01*
X139352380Y-90952380D01*
X139352380Y-90857142D01*
X139400000Y-90714285D01*
X139447619Y-90666666D01*
X139352380Y-90333333D02*
X139352380Y-89714285D01*
X139733333Y-90047619D01*
X139733333Y-89904761D01*
X139780952Y-89809523D01*
X139828571Y-89761904D01*
X139923809Y-89714285D01*
X140161904Y-89714285D01*
X140257142Y-89761904D01*
X140304761Y-89809523D01*
X140352380Y-89904761D01*
X140352380Y-90190476D01*
X140304761Y-90285714D01*
X140257142Y-90333333D01*
%TO.C,J1*%
X112396666Y-87122380D02*
X112396666Y-87836666D01*
X112349047Y-87979523D01*
X112253809Y-88074761D01*
X112110952Y-88122380D01*
X112015714Y-88122380D01*
X113396666Y-88122380D02*
X112825238Y-88122380D01*
X113110952Y-88122380D02*
X113110952Y-87122380D01*
X113015714Y-87265238D01*
X112920476Y-87360476D01*
X112825238Y-87408095D01*
%TO.C,J2*%
X186936666Y-87122380D02*
X186936666Y-87836666D01*
X186889047Y-87979523D01*
X186793809Y-88074761D01*
X186650952Y-88122380D01*
X186555714Y-88122380D01*
X187365238Y-87217619D02*
X187412857Y-87170000D01*
X187508095Y-87122380D01*
X187746190Y-87122380D01*
X187841428Y-87170000D01*
X187889047Y-87217619D01*
X187936666Y-87312857D01*
X187936666Y-87408095D01*
X187889047Y-87550952D01*
X187317619Y-88122380D01*
X187936666Y-88122380D01*
%TO.C,U6*%
X128738095Y-94152380D02*
X128738095Y-94961904D01*
X128785714Y-95057142D01*
X128833333Y-95104761D01*
X128928571Y-95152380D01*
X129119047Y-95152380D01*
X129214285Y-95104761D01*
X129261904Y-95057142D01*
X129309523Y-94961904D01*
X129309523Y-94152380D01*
X130214285Y-94152380D02*
X130023809Y-94152380D01*
X129928571Y-94200000D01*
X129880952Y-94247619D01*
X129785714Y-94390476D01*
X129738095Y-94580952D01*
X129738095Y-94961904D01*
X129785714Y-95057142D01*
X129833333Y-95104761D01*
X129928571Y-95152380D01*
X130119047Y-95152380D01*
X130214285Y-95104761D01*
X130261904Y-95057142D01*
X130309523Y-94961904D01*
X130309523Y-94723809D01*
X130261904Y-94628571D01*
X130214285Y-94580952D01*
X130119047Y-94533333D01*
X129928571Y-94533333D01*
X129833333Y-94580952D01*
X129785714Y-94628571D01*
X129738095Y-94723809D01*
%TO.C,U5*%
X142738095Y-94152380D02*
X142738095Y-94961904D01*
X142785714Y-95057142D01*
X142833333Y-95104761D01*
X142928571Y-95152380D01*
X143119047Y-95152380D01*
X143214285Y-95104761D01*
X143261904Y-95057142D01*
X143309523Y-94961904D01*
X143309523Y-94152380D01*
X144261904Y-94152380D02*
X143785714Y-94152380D01*
X143738095Y-94628571D01*
X143785714Y-94580952D01*
X143880952Y-94533333D01*
X144119047Y-94533333D01*
X144214285Y-94580952D01*
X144261904Y-94628571D01*
X144309523Y-94723809D01*
X144309523Y-94961904D01*
X144261904Y-95057142D01*
X144214285Y-95104761D01*
X144119047Y-95152380D01*
X143880952Y-95152380D01*
X143785714Y-95104761D01*
X143738095Y-95057142D01*
%TO.C,U4*%
X156738095Y-94152380D02*
X156738095Y-94961904D01*
X156785714Y-95057142D01*
X156833333Y-95104761D01*
X156928571Y-95152380D01*
X157119047Y-95152380D01*
X157214285Y-95104761D01*
X157261904Y-95057142D01*
X157309523Y-94961904D01*
X157309523Y-94152380D01*
X158214285Y-94485714D02*
X158214285Y-95152380D01*
X157976190Y-94104761D02*
X157738095Y-94819047D01*
X158357142Y-94819047D01*
%TO.C,U3*%
X170738095Y-94152380D02*
X170738095Y-94961904D01*
X170785714Y-95057142D01*
X170833333Y-95104761D01*
X170928571Y-95152380D01*
X171119047Y-95152380D01*
X171214285Y-95104761D01*
X171261904Y-95057142D01*
X171309523Y-94961904D01*
X171309523Y-94152380D01*
X171690476Y-94152380D02*
X172309523Y-94152380D01*
X171976190Y-94533333D01*
X172119047Y-94533333D01*
X172214285Y-94580952D01*
X172261904Y-94628571D01*
X172309523Y-94723809D01*
X172309523Y-94961904D01*
X172261904Y-95057142D01*
X172214285Y-95104761D01*
X172119047Y-95152380D01*
X171833333Y-95152380D01*
X171738095Y-95104761D01*
X171690476Y-95057142D01*
%TO.C,U2*%
X149238095Y-108402380D02*
X149238095Y-109211904D01*
X149285714Y-109307142D01*
X149333333Y-109354761D01*
X149428571Y-109402380D01*
X149619047Y-109402380D01*
X149714285Y-109354761D01*
X149761904Y-109307142D01*
X149809523Y-109211904D01*
X149809523Y-108402380D01*
X150238095Y-108497619D02*
X150285714Y-108450000D01*
X150380952Y-108402380D01*
X150619047Y-108402380D01*
X150714285Y-108450000D01*
X150761904Y-108497619D01*
X150809523Y-108592857D01*
X150809523Y-108688095D01*
X150761904Y-108830952D01*
X150190476Y-109402380D01*
X150809523Y-109402380D01*
%TO.C,U1*%
X149238095Y-63252380D02*
X149238095Y-64061904D01*
X149285714Y-64157142D01*
X149333333Y-64204761D01*
X149428571Y-64252380D01*
X149619047Y-64252380D01*
X149714285Y-64204761D01*
X149761904Y-64157142D01*
X149809523Y-64061904D01*
X149809523Y-63252380D01*
X150809523Y-64252380D02*
X150238095Y-64252380D01*
X150523809Y-64252380D02*
X150523809Y-63252380D01*
X150428571Y-63395238D01*
X150333333Y-63490476D01*
X150238095Y-63538095D01*
%TO.C,RLY4*%
X149000000Y-97752380D02*
X148666666Y-97276190D01*
X148428571Y-97752380D02*
X148428571Y-96752380D01*
X148809523Y-96752380D01*
X148904761Y-96800000D01*
X148952380Y-96847619D01*
X149000000Y-96942857D01*
X149000000Y-97085714D01*
X148952380Y-97180952D01*
X148904761Y-97228571D01*
X148809523Y-97276190D01*
X148428571Y-97276190D01*
X149904761Y-97752380D02*
X149428571Y-97752380D01*
X149428571Y-96752380D01*
X150428571Y-97276190D02*
X150428571Y-97752380D01*
X150095238Y-96752380D02*
X150428571Y-97276190D01*
X150761904Y-96752380D01*
X151523809Y-97085714D02*
X151523809Y-97752380D01*
X151285714Y-96704761D02*
X151047619Y-97419047D01*
X151666666Y-97419047D01*
%TO.C,RLY3*%
X121600000Y-95052380D02*
X121266666Y-94576190D01*
X121028571Y-95052380D02*
X121028571Y-94052380D01*
X121409523Y-94052380D01*
X121504761Y-94100000D01*
X121552380Y-94147619D01*
X121600000Y-94242857D01*
X121600000Y-94385714D01*
X121552380Y-94480952D01*
X121504761Y-94528571D01*
X121409523Y-94576190D01*
X121028571Y-94576190D01*
X122504761Y-95052380D02*
X122028571Y-95052380D01*
X122028571Y-94052380D01*
X123028571Y-94576190D02*
X123028571Y-95052380D01*
X122695238Y-94052380D02*
X123028571Y-94576190D01*
X123361904Y-94052380D01*
X123600000Y-94052380D02*
X124219047Y-94052380D01*
X123885714Y-94433333D01*
X124028571Y-94433333D01*
X124123809Y-94480952D01*
X124171428Y-94528571D01*
X124219047Y-94623809D01*
X124219047Y-94861904D01*
X124171428Y-94957142D01*
X124123809Y-95004761D01*
X124028571Y-95052380D01*
X123742857Y-95052380D01*
X123647619Y-95004761D01*
X123600000Y-94957142D01*
%TO.C,RLY2*%
X135600000Y-95052380D02*
X135266666Y-94576190D01*
X135028571Y-95052380D02*
X135028571Y-94052380D01*
X135409523Y-94052380D01*
X135504761Y-94100000D01*
X135552380Y-94147619D01*
X135600000Y-94242857D01*
X135600000Y-94385714D01*
X135552380Y-94480952D01*
X135504761Y-94528571D01*
X135409523Y-94576190D01*
X135028571Y-94576190D01*
X136504761Y-95052380D02*
X136028571Y-95052380D01*
X136028571Y-94052380D01*
X137028571Y-94576190D02*
X137028571Y-95052380D01*
X136695238Y-94052380D02*
X137028571Y-94576190D01*
X137361904Y-94052380D01*
X137647619Y-94147619D02*
X137695238Y-94100000D01*
X137790476Y-94052380D01*
X138028571Y-94052380D01*
X138123809Y-94100000D01*
X138171428Y-94147619D01*
X138219047Y-94242857D01*
X138219047Y-94338095D01*
X138171428Y-94480952D01*
X137600000Y-95052380D01*
X138219047Y-95052380D01*
%TO.C,RLY1*%
X149700000Y-95052380D02*
X149366666Y-94576190D01*
X149128571Y-95052380D02*
X149128571Y-94052380D01*
X149509523Y-94052380D01*
X149604761Y-94100000D01*
X149652380Y-94147619D01*
X149700000Y-94242857D01*
X149700000Y-94385714D01*
X149652380Y-94480952D01*
X149604761Y-94528571D01*
X149509523Y-94576190D01*
X149128571Y-94576190D01*
X150604761Y-95052380D02*
X150128571Y-95052380D01*
X150128571Y-94052380D01*
X151128571Y-94576190D02*
X151128571Y-95052380D01*
X150795238Y-94052380D02*
X151128571Y-94576190D01*
X151461904Y-94052380D01*
X152319047Y-95052380D02*
X151747619Y-95052380D01*
X152033333Y-95052380D02*
X152033333Y-94052380D01*
X151938095Y-94195238D01*
X151842857Y-94290476D01*
X151747619Y-94338095D01*
%TO.C,RLY0*%
X163600000Y-95052380D02*
X163266666Y-94576190D01*
X163028571Y-95052380D02*
X163028571Y-94052380D01*
X163409523Y-94052380D01*
X163504761Y-94100000D01*
X163552380Y-94147619D01*
X163600000Y-94242857D01*
X163600000Y-94385714D01*
X163552380Y-94480952D01*
X163504761Y-94528571D01*
X163409523Y-94576190D01*
X163028571Y-94576190D01*
X164504761Y-95052380D02*
X164028571Y-95052380D01*
X164028571Y-94052380D01*
X165028571Y-94576190D02*
X165028571Y-95052380D01*
X164695238Y-94052380D02*
X165028571Y-94576190D01*
X165361904Y-94052380D01*
X165885714Y-94052380D02*
X165980952Y-94052380D01*
X166076190Y-94100000D01*
X166123809Y-94147619D01*
X166171428Y-94242857D01*
X166219047Y-94433333D01*
X166219047Y-94671428D01*
X166171428Y-94861904D01*
X166123809Y-94957142D01*
X166076190Y-95004761D01*
X165980952Y-95052380D01*
X165885714Y-95052380D01*
X165790476Y-95004761D01*
X165742857Y-94957142D01*
X165695238Y-94861904D01*
X165647619Y-94671428D01*
X165647619Y-94433333D01*
X165695238Y-94242857D01*
X165742857Y-94147619D01*
X165790476Y-94100000D01*
X165885714Y-94052380D01*
%TO.C,R12*%
X157052380Y-101192857D02*
X156576190Y-101526190D01*
X157052380Y-101764285D02*
X156052380Y-101764285D01*
X156052380Y-101383333D01*
X156100000Y-101288095D01*
X156147619Y-101240476D01*
X156242857Y-101192857D01*
X156385714Y-101192857D01*
X156480952Y-101240476D01*
X156528571Y-101288095D01*
X156576190Y-101383333D01*
X156576190Y-101764285D01*
X157052380Y-100240476D02*
X157052380Y-100811904D01*
X157052380Y-100526190D02*
X156052380Y-100526190D01*
X156195238Y-100621428D01*
X156290476Y-100716666D01*
X156338095Y-100811904D01*
X156147619Y-99859523D02*
X156100000Y-99811904D01*
X156052380Y-99716666D01*
X156052380Y-99478571D01*
X156100000Y-99383333D01*
X156147619Y-99335714D01*
X156242857Y-99288095D01*
X156338095Y-99288095D01*
X156480952Y-99335714D01*
X157052380Y-99907142D01*
X157052380Y-99288095D01*
%TO.C,R11*%
X125557142Y-83652380D02*
X125223809Y-83176190D01*
X124985714Y-83652380D02*
X124985714Y-82652380D01*
X125366666Y-82652380D01*
X125461904Y-82700000D01*
X125509523Y-82747619D01*
X125557142Y-82842857D01*
X125557142Y-82985714D01*
X125509523Y-83080952D01*
X125461904Y-83128571D01*
X125366666Y-83176190D01*
X124985714Y-83176190D01*
X126509523Y-83652380D02*
X125938095Y-83652380D01*
X126223809Y-83652380D02*
X126223809Y-82652380D01*
X126128571Y-82795238D01*
X126033333Y-82890476D01*
X125938095Y-82938095D01*
X127461904Y-83652380D02*
X126890476Y-83652380D01*
X127176190Y-83652380D02*
X127176190Y-82652380D01*
X127080952Y-82795238D01*
X126985714Y-82890476D01*
X126890476Y-82938095D01*
%TO.C,R10*%
X153657142Y-83752380D02*
X153323809Y-83276190D01*
X153085714Y-83752380D02*
X153085714Y-82752380D01*
X153466666Y-82752380D01*
X153561904Y-82800000D01*
X153609523Y-82847619D01*
X153657142Y-82942857D01*
X153657142Y-83085714D01*
X153609523Y-83180952D01*
X153561904Y-83228571D01*
X153466666Y-83276190D01*
X153085714Y-83276190D01*
X154609523Y-83752380D02*
X154038095Y-83752380D01*
X154323809Y-83752380D02*
X154323809Y-82752380D01*
X154228571Y-82895238D01*
X154133333Y-82990476D01*
X154038095Y-83038095D01*
X155228571Y-82752380D02*
X155323809Y-82752380D01*
X155419047Y-82800000D01*
X155466666Y-82847619D01*
X155514285Y-82942857D01*
X155561904Y-83133333D01*
X155561904Y-83371428D01*
X155514285Y-83561904D01*
X155466666Y-83657142D01*
X155419047Y-83704761D01*
X155323809Y-83752380D01*
X155228571Y-83752380D01*
X155133333Y-83704761D01*
X155085714Y-83657142D01*
X155038095Y-83561904D01*
X154990476Y-83371428D01*
X154990476Y-83133333D01*
X155038095Y-82942857D01*
X155085714Y-82847619D01*
X155133333Y-82800000D01*
X155228571Y-82752380D01*
%TO.C,R9*%
X168133333Y-83752380D02*
X167800000Y-83276190D01*
X167561904Y-83752380D02*
X167561904Y-82752380D01*
X167942857Y-82752380D01*
X168038095Y-82800000D01*
X168085714Y-82847619D01*
X168133333Y-82942857D01*
X168133333Y-83085714D01*
X168085714Y-83180952D01*
X168038095Y-83228571D01*
X167942857Y-83276190D01*
X167561904Y-83276190D01*
X168609523Y-83752380D02*
X168800000Y-83752380D01*
X168895238Y-83704761D01*
X168942857Y-83657142D01*
X169038095Y-83514285D01*
X169085714Y-83323809D01*
X169085714Y-82942857D01*
X169038095Y-82847619D01*
X168990476Y-82800000D01*
X168895238Y-82752380D01*
X168704761Y-82752380D01*
X168609523Y-82800000D01*
X168561904Y-82847619D01*
X168514285Y-82942857D01*
X168514285Y-83180952D01*
X168561904Y-83276190D01*
X168609523Y-83323809D01*
X168704761Y-83371428D01*
X168895238Y-83371428D01*
X168990476Y-83323809D01*
X169038095Y-83276190D01*
X169085714Y-83180952D01*
%TO.C,R8*%
X140133333Y-83652380D02*
X139800000Y-83176190D01*
X139561904Y-83652380D02*
X139561904Y-82652380D01*
X139942857Y-82652380D01*
X140038095Y-82700000D01*
X140085714Y-82747619D01*
X140133333Y-82842857D01*
X140133333Y-82985714D01*
X140085714Y-83080952D01*
X140038095Y-83128571D01*
X139942857Y-83176190D01*
X139561904Y-83176190D01*
X140704761Y-83080952D02*
X140609523Y-83033333D01*
X140561904Y-82985714D01*
X140514285Y-82890476D01*
X140514285Y-82842857D01*
X140561904Y-82747619D01*
X140609523Y-82700000D01*
X140704761Y-82652380D01*
X140895238Y-82652380D01*
X140990476Y-82700000D01*
X141038095Y-82747619D01*
X141085714Y-82842857D01*
X141085714Y-82890476D01*
X141038095Y-82985714D01*
X140990476Y-83033333D01*
X140895238Y-83080952D01*
X140704761Y-83080952D01*
X140609523Y-83128571D01*
X140561904Y-83176190D01*
X140514285Y-83271428D01*
X140514285Y-83461904D01*
X140561904Y-83557142D01*
X140609523Y-83604761D01*
X140704761Y-83652380D01*
X140895238Y-83652380D01*
X140990476Y-83604761D01*
X141038095Y-83557142D01*
X141085714Y-83461904D01*
X141085714Y-83271428D01*
X141038095Y-83176190D01*
X140990476Y-83128571D01*
X140895238Y-83080952D01*
%TO.C,R4*%
X143002380Y-64466666D02*
X142526190Y-64800000D01*
X143002380Y-65038095D02*
X142002380Y-65038095D01*
X142002380Y-64657142D01*
X142050000Y-64561904D01*
X142097619Y-64514285D01*
X142192857Y-64466666D01*
X142335714Y-64466666D01*
X142430952Y-64514285D01*
X142478571Y-64561904D01*
X142526190Y-64657142D01*
X142526190Y-65038095D01*
X142335714Y-63609523D02*
X143002380Y-63609523D01*
X141954761Y-63847619D02*
X142669047Y-64085714D01*
X142669047Y-63466666D01*
%TO.C,R3*%
X121833333Y-83652380D02*
X121500000Y-83176190D01*
X121261904Y-83652380D02*
X121261904Y-82652380D01*
X121642857Y-82652380D01*
X121738095Y-82700000D01*
X121785714Y-82747619D01*
X121833333Y-82842857D01*
X121833333Y-82985714D01*
X121785714Y-83080952D01*
X121738095Y-83128571D01*
X121642857Y-83176190D01*
X121261904Y-83176190D01*
X122166666Y-82652380D02*
X122785714Y-82652380D01*
X122452380Y-83033333D01*
X122595238Y-83033333D01*
X122690476Y-83080952D01*
X122738095Y-83128571D01*
X122785714Y-83223809D01*
X122785714Y-83461904D01*
X122738095Y-83557142D01*
X122690476Y-83604761D01*
X122595238Y-83652380D01*
X122309523Y-83652380D01*
X122214285Y-83604761D01*
X122166666Y-83557142D01*
%TO.C,R2*%
X135933333Y-83652380D02*
X135600000Y-83176190D01*
X135361904Y-83652380D02*
X135361904Y-82652380D01*
X135742857Y-82652380D01*
X135838095Y-82700000D01*
X135885714Y-82747619D01*
X135933333Y-82842857D01*
X135933333Y-82985714D01*
X135885714Y-83080952D01*
X135838095Y-83128571D01*
X135742857Y-83176190D01*
X135361904Y-83176190D01*
X136314285Y-82747619D02*
X136361904Y-82700000D01*
X136457142Y-82652380D01*
X136695238Y-82652380D01*
X136790476Y-82700000D01*
X136838095Y-82747619D01*
X136885714Y-82842857D01*
X136885714Y-82938095D01*
X136838095Y-83080952D01*
X136266666Y-83652380D01*
X136885714Y-83652380D01*
%TO.C,R1*%
X149933333Y-83752380D02*
X149600000Y-83276190D01*
X149361904Y-83752380D02*
X149361904Y-82752380D01*
X149742857Y-82752380D01*
X149838095Y-82800000D01*
X149885714Y-82847619D01*
X149933333Y-82942857D01*
X149933333Y-83085714D01*
X149885714Y-83180952D01*
X149838095Y-83228571D01*
X149742857Y-83276190D01*
X149361904Y-83276190D01*
X150885714Y-83752380D02*
X150314285Y-83752380D01*
X150600000Y-83752380D02*
X150600000Y-82752380D01*
X150504761Y-82895238D01*
X150409523Y-82990476D01*
X150314285Y-83038095D01*
%TO.C,R0*%
X163933333Y-83752380D02*
X163600000Y-83276190D01*
X163361904Y-83752380D02*
X163361904Y-82752380D01*
X163742857Y-82752380D01*
X163838095Y-82800000D01*
X163885714Y-82847619D01*
X163933333Y-82942857D01*
X163933333Y-83085714D01*
X163885714Y-83180952D01*
X163838095Y-83228571D01*
X163742857Y-83276190D01*
X163361904Y-83276190D01*
X164552380Y-82752380D02*
X164647619Y-82752380D01*
X164742857Y-82800000D01*
X164790476Y-82847619D01*
X164838095Y-82942857D01*
X164885714Y-83133333D01*
X164885714Y-83371428D01*
X164838095Y-83561904D01*
X164790476Y-83657142D01*
X164742857Y-83704761D01*
X164647619Y-83752380D01*
X164552380Y-83752380D01*
X164457142Y-83704761D01*
X164409523Y-83657142D01*
X164361904Y-83561904D01*
X164314285Y-83371428D01*
X164314285Y-83133333D01*
X164361904Y-82942857D01*
X164409523Y-82847619D01*
X164457142Y-82800000D01*
X164552380Y-82752380D01*
%TO.C,J4*%
X174666666Y-104652380D02*
X174666666Y-105366666D01*
X174619047Y-105509523D01*
X174523809Y-105604761D01*
X174380952Y-105652380D01*
X174285714Y-105652380D01*
X175571428Y-104985714D02*
X175571428Y-105652380D01*
X175333333Y-104604761D02*
X175095238Y-105319047D01*
X175714285Y-105319047D01*
%TO.C,J5*%
X160066666Y-104652380D02*
X160066666Y-105366666D01*
X160019047Y-105509523D01*
X159923809Y-105604761D01*
X159780952Y-105652380D01*
X159685714Y-105652380D01*
X161019047Y-104652380D02*
X160542857Y-104652380D01*
X160495238Y-105128571D01*
X160542857Y-105080952D01*
X160638095Y-105033333D01*
X160876190Y-105033333D01*
X160971428Y-105080952D01*
X161019047Y-105128571D01*
X161066666Y-105223809D01*
X161066666Y-105461904D01*
X161019047Y-105557142D01*
X160971428Y-105604761D01*
X160876190Y-105652380D01*
X160638095Y-105652380D01*
X160542857Y-105604761D01*
X160495238Y-105557142D01*
%TO.C,J6*%
X126466666Y-104652380D02*
X126466666Y-105366666D01*
X126419047Y-105509523D01*
X126323809Y-105604761D01*
X126180952Y-105652380D01*
X126085714Y-105652380D01*
X127371428Y-104652380D02*
X127180952Y-104652380D01*
X127085714Y-104700000D01*
X127038095Y-104747619D01*
X126942857Y-104890476D01*
X126895238Y-105080952D01*
X126895238Y-105461904D01*
X126942857Y-105557142D01*
X126990476Y-105604761D01*
X127085714Y-105652380D01*
X127276190Y-105652380D01*
X127371428Y-105604761D01*
X127419047Y-105557142D01*
X127466666Y-105461904D01*
X127466666Y-105223809D01*
X127419047Y-105128571D01*
X127371428Y-105080952D01*
X127276190Y-105033333D01*
X127085714Y-105033333D01*
X126990476Y-105080952D01*
X126942857Y-105128571D01*
X126895238Y-105223809D01*
%TO.C,J7*%
X111866666Y-104552380D02*
X111866666Y-105266666D01*
X111819047Y-105409523D01*
X111723809Y-105504761D01*
X111580952Y-105552380D01*
X111485714Y-105552380D01*
X112247619Y-104552380D02*
X112914285Y-104552380D01*
X112485714Y-105552380D01*
%TO.C,CRYS1*%
X176128571Y-86657142D02*
X176080952Y-86704761D01*
X175938095Y-86752380D01*
X175842857Y-86752380D01*
X175700000Y-86704761D01*
X175604761Y-86609523D01*
X175557142Y-86514285D01*
X175509523Y-86323809D01*
X175509523Y-86180952D01*
X175557142Y-85990476D01*
X175604761Y-85895238D01*
X175700000Y-85800000D01*
X175842857Y-85752380D01*
X175938095Y-85752380D01*
X176080952Y-85800000D01*
X176128571Y-85847619D01*
X177128571Y-86752380D02*
X176795238Y-86276190D01*
X176557142Y-86752380D02*
X176557142Y-85752380D01*
X176938095Y-85752380D01*
X177033333Y-85800000D01*
X177080952Y-85847619D01*
X177128571Y-85942857D01*
X177128571Y-86085714D01*
X177080952Y-86180952D01*
X177033333Y-86228571D01*
X176938095Y-86276190D01*
X176557142Y-86276190D01*
X177747619Y-86276190D02*
X177747619Y-86752380D01*
X177414285Y-85752380D02*
X177747619Y-86276190D01*
X178080952Y-85752380D01*
X178366666Y-86704761D02*
X178509523Y-86752380D01*
X178747619Y-86752380D01*
X178842857Y-86704761D01*
X178890476Y-86657142D01*
X178938095Y-86561904D01*
X178938095Y-86466666D01*
X178890476Y-86371428D01*
X178842857Y-86323809D01*
X178747619Y-86276190D01*
X178557142Y-86228571D01*
X178461904Y-86180952D01*
X178414285Y-86133333D01*
X178366666Y-86038095D01*
X178366666Y-85942857D01*
X178414285Y-85847619D01*
X178461904Y-85800000D01*
X178557142Y-85752380D01*
X178795238Y-85752380D01*
X178938095Y-85800000D01*
X179890476Y-86752380D02*
X179319047Y-86752380D01*
X179604761Y-86752380D02*
X179604761Y-85752380D01*
X179509523Y-85895238D01*
X179414285Y-85990476D01*
X179319047Y-86038095D01*
%TO.C,C2*%
X183257142Y-89766666D02*
X183304761Y-89814285D01*
X183352380Y-89957142D01*
X183352380Y-90052380D01*
X183304761Y-90195238D01*
X183209523Y-90290476D01*
X183114285Y-90338095D01*
X182923809Y-90385714D01*
X182780952Y-90385714D01*
X182590476Y-90338095D01*
X182495238Y-90290476D01*
X182400000Y-90195238D01*
X182352380Y-90052380D01*
X182352380Y-89957142D01*
X182400000Y-89814285D01*
X182447619Y-89766666D01*
X182447619Y-89385714D02*
X182400000Y-89338095D01*
X182352380Y-89242857D01*
X182352380Y-89004761D01*
X182400000Y-88909523D01*
X182447619Y-88861904D01*
X182542857Y-88814285D01*
X182638095Y-88814285D01*
X182780952Y-88861904D01*
X183352380Y-89433333D01*
X183352380Y-88814285D01*
%TO.C,C1*%
X183257142Y-96366666D02*
X183304761Y-96414285D01*
X183352380Y-96557142D01*
X183352380Y-96652380D01*
X183304761Y-96795238D01*
X183209523Y-96890476D01*
X183114285Y-96938095D01*
X182923809Y-96985714D01*
X182780952Y-96985714D01*
X182590476Y-96938095D01*
X182495238Y-96890476D01*
X182400000Y-96795238D01*
X182352380Y-96652380D01*
X182352380Y-96557142D01*
X182400000Y-96414285D01*
X182447619Y-96366666D01*
X183352380Y-95414285D02*
X183352380Y-95985714D01*
X183352380Y-95700000D02*
X182352380Y-95700000D01*
X182495238Y-95795238D01*
X182590476Y-95890476D01*
X182638095Y-95985714D01*
%TD*%
M02*
