M48
; DRILL file {KiCad (5.1.10)-1} date 07/04/21 19:20:47
; FORMAT={-:-/ absolute / inch / decimal}
; #@! TF.CreationDate,2021-07-04T19:20:47-04:00
; #@! TF.GenerationSoftware,Kicad,Pcbnew,(5.1.10)-1
FMAT,2
INCH
T1C0.0157
T2C0.0197
T3C0.0315
T4C0.0394
T5C0.0472
T6C0.1260
T7C0.0669
%
G90
G05
T1
X4.6201Y-4.4409
X4.6654Y-3.9961
X4.6673Y-3.4646
X4.6693Y-4.4724
X4.7185Y-4.1594
X4.8169Y-4.5039
X4.8661Y-4.5354
X4.9154Y-3.4213
X5.1356Y-3.3265
X5.1378Y-3.6024
X5.1614Y-3.3563
X5.1634Y-3.7539
X5.1949Y-4.4409
X5.2362Y-3.9961
X5.2441Y-4.4724
X5.2953Y-4.1594
X5.3012Y-2.8996
X5.374Y-3.2264
X5.3917Y-4.5039
X5.4409Y-4.5354
X5.4646Y-3.4252
X5.5315Y-2.872
X5.5413Y-2.7835
X5.563Y-2.8996
X5.565Y-3.2874
X5.5906Y-3.5236
X5.6142Y-3.3268
X5.6437Y-3.3563
X5.6594Y-3.1476
X5.6772Y-2.6358
X5.689Y-3.6024
X5.7126Y-3.3848
X5.7146Y-3.7539
X5.7559Y-4.2126
X5.7559Y-4.2559
X5.7677Y-3.7992
X5.8071Y-3.1929
X5.8071Y-3.7992
X5.8268Y-2.8346
X5.8484Y-3.4291
X5.8524Y-2.5906
X5.8553Y-2.8068
X5.8791Y-3.5224
X5.8819Y-2.6929
X5.8819Y-2.7343
X5.8842Y-2.7736
X5.9783Y-3.7913
X6.0157Y-3.4232
X6.0531Y-4.2185
X6.0965Y-3.8563
X6.1161Y-3.2874
X6.1201Y-2.8996
X6.1634Y-3.3268
X6.1929Y-3.3563
X6.2402Y-3.6024
X6.3268Y-3.7539
X6.3701Y-4.0748
X6.5177Y-4.4409
X6.5295Y-3.7913
X6.5669Y-3.4232
X6.5669Y-4.4724
X6.6654Y-3.2854
X6.7146Y-3.3268
X6.7146Y-4.5039
X6.7441Y-3.3563
X6.7638Y-4.5354
X6.7913Y-3.6024
X6.878Y-3.7539
X6.9449Y-4.0748
X7.0925Y-4.4409
X7.2894Y-4.5039
X7.3386Y-4.5354
T2
X4.748Y-2.874
X4.7757Y-2.8072
X4.7757Y-2.9408
X4.8425Y-2.7795
X4.8425Y-2.9685
X4.9093Y-2.8072
X4.9093Y-2.9408
X4.937Y-2.874
X5.811Y-4.4882
X5.8387Y-4.4214
X5.8387Y-4.555
X5.9055Y-4.3937
X5.9055Y-4.5827
X5.9723Y-4.4214
X5.9723Y-4.555
X6.0Y-4.4882
X6.874Y-2.874
X6.9017Y-2.8072
X6.9017Y-2.9408
X6.9685Y-2.7795
X6.9685Y-2.9685
X7.0353Y-2.8072
X7.0353Y-2.9408
X7.063Y-2.874
T3
X6.9961Y-3.5618
X6.9961Y-3.7539
T4
X4.3882Y-3.5433
X4.3882Y-3.6433
X4.3882Y-3.7433
X4.4882Y-3.5433
X4.4882Y-3.6433
X4.4882Y-3.7433
X7.3228Y-3.5433
X7.3228Y-3.6433
X7.3228Y-3.7433
X7.4228Y-3.5433
X7.4228Y-3.6433
X7.4228Y-3.7433
T5
X4.4724Y-4.2205
X4.4724Y-4.3189
X4.5709Y-4.2205
X4.5709Y-4.3189
X4.6693Y-4.2205
X4.6693Y-4.3189
X4.7677Y-4.2205
X4.7677Y-4.3189
X4.8661Y-4.2205
X4.8661Y-4.3189
X5.0472Y-4.2205
X5.0472Y-4.3189
X5.1457Y-4.2205
X5.1457Y-4.3189
X5.2441Y-4.2205
X5.2441Y-4.3189
X5.3425Y-4.2205
X5.3425Y-4.3189
X5.4409Y-4.2205
X5.4409Y-4.3189
X6.3701Y-4.2205
X6.3701Y-4.3189
X6.4685Y-4.2205
X6.4685Y-4.3189
X6.5669Y-4.2205
X6.5669Y-4.3189
X6.6654Y-4.2205
X6.6654Y-4.3189
X6.7638Y-4.2205
X6.7638Y-4.3189
X6.9449Y-4.2205
X6.9449Y-4.3189
X7.0433Y-4.2205
X7.0433Y-4.3189
X7.1417Y-4.2205
X7.1417Y-4.3189
X7.2402Y-4.2205
X7.2402Y-4.3189
X7.3386Y-4.2205
X7.3386Y-4.3189
T6
X4.8425Y-2.874
X5.9055Y-4.4882
X6.9685Y-2.874
T7
X4.4724Y-4.6016
X4.8661Y-4.6016
X5.0472Y-4.6016
X5.4409Y-4.6016
X6.3701Y-4.6016
X6.7638Y-4.6016
X6.9449Y-4.6016
X7.3386Y-4.6016
T0
M30
