%TF.GenerationSoftware,KiCad,Pcbnew,(5.1.10)-1*%
%TF.CreationDate,2021-07-04T19:20:50-04:00*%
%TF.ProjectId,SensorBoard,53656e73-6f72-4426-9f61-72642e6b6963,rev?*%
%TF.SameCoordinates,Original*%
%TF.FileFunction,Paste,Top*%
%TF.FilePolarity,Positive*%
%FSLAX46Y46*%
G04 Gerber Fmt 4.6, Leading zero omitted, Abs format (unit mm)*
G04 Created by KiCad (PCBNEW (5.1.10)-1) date 2021-07-04 19:20:50*
%MOMM*%
%LPD*%
G01*
G04 APERTURE LIST*
%ADD10R,1.750000X0.450000*%
G04 APERTURE END LIST*
%TO.C,C8*%
G36*
G01*
X126137500Y-87450000D02*
X125662500Y-87450000D01*
G75*
G02*
X125425000Y-87212500I0J237500D01*
G01*
X125425000Y-86637500D01*
G75*
G02*
X125662500Y-86400000I237500J0D01*
G01*
X126137500Y-86400000D01*
G75*
G02*
X126375000Y-86637500I0J-237500D01*
G01*
X126375000Y-87212500D01*
G75*
G02*
X126137500Y-87450000I-237500J0D01*
G01*
G37*
G36*
G01*
X126137500Y-89200000D02*
X125662500Y-89200000D01*
G75*
G02*
X125425000Y-88962500I0J237500D01*
G01*
X125425000Y-88387500D01*
G75*
G02*
X125662500Y-88150000I237500J0D01*
G01*
X126137500Y-88150000D01*
G75*
G02*
X126375000Y-88387500I0J-237500D01*
G01*
X126375000Y-88962500D01*
G75*
G02*
X126137500Y-89200000I-237500J0D01*
G01*
G37*
%TD*%
%TO.C,C7*%
G36*
G01*
X154137500Y-87450000D02*
X153662500Y-87450000D01*
G75*
G02*
X153425000Y-87212500I0J237500D01*
G01*
X153425000Y-86637500D01*
G75*
G02*
X153662500Y-86400000I237500J0D01*
G01*
X154137500Y-86400000D01*
G75*
G02*
X154375000Y-86637500I0J-237500D01*
G01*
X154375000Y-87212500D01*
G75*
G02*
X154137500Y-87450000I-237500J0D01*
G01*
G37*
G36*
G01*
X154137500Y-89200000D02*
X153662500Y-89200000D01*
G75*
G02*
X153425000Y-88962500I0J237500D01*
G01*
X153425000Y-88387500D01*
G75*
G02*
X153662500Y-88150000I237500J0D01*
G01*
X154137500Y-88150000D01*
G75*
G02*
X154375000Y-88387500I0J-237500D01*
G01*
X154375000Y-88962500D01*
G75*
G02*
X154137500Y-89200000I-237500J0D01*
G01*
G37*
%TD*%
%TO.C,C6*%
G36*
G01*
X143350000Y-70937500D02*
X143350000Y-70462500D01*
G75*
G02*
X143587500Y-70225000I237500J0D01*
G01*
X144162500Y-70225000D01*
G75*
G02*
X144400000Y-70462500I0J-237500D01*
G01*
X144400000Y-70937500D01*
G75*
G02*
X144162500Y-71175000I-237500J0D01*
G01*
X143587500Y-71175000D01*
G75*
G02*
X143350000Y-70937500I0J237500D01*
G01*
G37*
G36*
G01*
X141600000Y-70937500D02*
X141600000Y-70462500D01*
G75*
G02*
X141837500Y-70225000I237500J0D01*
G01*
X142412500Y-70225000D01*
G75*
G02*
X142650000Y-70462500I0J-237500D01*
G01*
X142650000Y-70937500D01*
G75*
G02*
X142412500Y-71175000I-237500J0D01*
G01*
X141837500Y-71175000D01*
G75*
G02*
X141600000Y-70937500I0J237500D01*
G01*
G37*
%TD*%
%TO.C,C5*%
G36*
G01*
X149650000Y-103212500D02*
X149650000Y-103687500D01*
G75*
G02*
X149412500Y-103925000I-237500J0D01*
G01*
X148837500Y-103925000D01*
G75*
G02*
X148600000Y-103687500I0J237500D01*
G01*
X148600000Y-103212500D01*
G75*
G02*
X148837500Y-102975000I237500J0D01*
G01*
X149412500Y-102975000D01*
G75*
G02*
X149650000Y-103212500I0J-237500D01*
G01*
G37*
G36*
G01*
X151400000Y-103212500D02*
X151400000Y-103687500D01*
G75*
G02*
X151162500Y-103925000I-237500J0D01*
G01*
X150587500Y-103925000D01*
G75*
G02*
X150350000Y-103687500I0J237500D01*
G01*
X150350000Y-103212500D01*
G75*
G02*
X150587500Y-102975000I237500J0D01*
G01*
X151162500Y-102975000D01*
G75*
G02*
X151400000Y-103212500I0J-237500D01*
G01*
G37*
%TD*%
%TO.C,C4*%
G36*
G01*
X168137500Y-89200000D02*
X167662500Y-89200000D01*
G75*
G02*
X167425000Y-88962500I0J237500D01*
G01*
X167425000Y-88387500D01*
G75*
G02*
X167662500Y-88150000I237500J0D01*
G01*
X168137500Y-88150000D01*
G75*
G02*
X168375000Y-88387500I0J-237500D01*
G01*
X168375000Y-88962500D01*
G75*
G02*
X168137500Y-89200000I-237500J0D01*
G01*
G37*
G36*
G01*
X168137500Y-87450000D02*
X167662500Y-87450000D01*
G75*
G02*
X167425000Y-87212500I0J237500D01*
G01*
X167425000Y-86637500D01*
G75*
G02*
X167662500Y-86400000I237500J0D01*
G01*
X168137500Y-86400000D01*
G75*
G02*
X168375000Y-86637500I0J-237500D01*
G01*
X168375000Y-87212500D01*
G75*
G02*
X168137500Y-87450000I-237500J0D01*
G01*
G37*
%TD*%
%TO.C,C3*%
G36*
G01*
X140137500Y-87450000D02*
X139662500Y-87450000D01*
G75*
G02*
X139425000Y-87212500I0J237500D01*
G01*
X139425000Y-86637500D01*
G75*
G02*
X139662500Y-86400000I237500J0D01*
G01*
X140137500Y-86400000D01*
G75*
G02*
X140375000Y-86637500I0J-237500D01*
G01*
X140375000Y-87212500D01*
G75*
G02*
X140137500Y-87450000I-237500J0D01*
G01*
G37*
G36*
G01*
X140137500Y-89200000D02*
X139662500Y-89200000D01*
G75*
G02*
X139425000Y-88962500I0J237500D01*
G01*
X139425000Y-88387500D01*
G75*
G02*
X139662500Y-88150000I237500J0D01*
G01*
X140137500Y-88150000D01*
G75*
G02*
X140375000Y-88387500I0J-237500D01*
G01*
X140375000Y-88962500D01*
G75*
G02*
X140137500Y-89200000I-237500J0D01*
G01*
G37*
%TD*%
%TO.C,U6*%
G36*
G01*
X131675000Y-92125000D02*
X131875000Y-92125000D01*
G75*
G02*
X131975000Y-92225000I0J-100000D01*
G01*
X131975000Y-93500000D01*
G75*
G02*
X131875000Y-93600000I-100000J0D01*
G01*
X131675000Y-93600000D01*
G75*
G02*
X131575000Y-93500000I0J100000D01*
G01*
X131575000Y-92225000D01*
G75*
G02*
X131675000Y-92125000I100000J0D01*
G01*
G37*
G36*
G01*
X131025000Y-92125000D02*
X131225000Y-92125000D01*
G75*
G02*
X131325000Y-92225000I0J-100000D01*
G01*
X131325000Y-93500000D01*
G75*
G02*
X131225000Y-93600000I-100000J0D01*
G01*
X131025000Y-93600000D01*
G75*
G02*
X130925000Y-93500000I0J100000D01*
G01*
X130925000Y-92225000D01*
G75*
G02*
X131025000Y-92125000I100000J0D01*
G01*
G37*
G36*
G01*
X130375000Y-92125000D02*
X130575000Y-92125000D01*
G75*
G02*
X130675000Y-92225000I0J-100000D01*
G01*
X130675000Y-93500000D01*
G75*
G02*
X130575000Y-93600000I-100000J0D01*
G01*
X130375000Y-93600000D01*
G75*
G02*
X130275000Y-93500000I0J100000D01*
G01*
X130275000Y-92225000D01*
G75*
G02*
X130375000Y-92125000I100000J0D01*
G01*
G37*
G36*
G01*
X129725000Y-92125000D02*
X129925000Y-92125000D01*
G75*
G02*
X130025000Y-92225000I0J-100000D01*
G01*
X130025000Y-93500000D01*
G75*
G02*
X129925000Y-93600000I-100000J0D01*
G01*
X129725000Y-93600000D01*
G75*
G02*
X129625000Y-93500000I0J100000D01*
G01*
X129625000Y-92225000D01*
G75*
G02*
X129725000Y-92125000I100000J0D01*
G01*
G37*
G36*
G01*
X129075000Y-92125000D02*
X129275000Y-92125000D01*
G75*
G02*
X129375000Y-92225000I0J-100000D01*
G01*
X129375000Y-93500000D01*
G75*
G02*
X129275000Y-93600000I-100000J0D01*
G01*
X129075000Y-93600000D01*
G75*
G02*
X128975000Y-93500000I0J100000D01*
G01*
X128975000Y-92225000D01*
G75*
G02*
X129075000Y-92125000I100000J0D01*
G01*
G37*
G36*
G01*
X128425000Y-92125000D02*
X128625000Y-92125000D01*
G75*
G02*
X128725000Y-92225000I0J-100000D01*
G01*
X128725000Y-93500000D01*
G75*
G02*
X128625000Y-93600000I-100000J0D01*
G01*
X128425000Y-93600000D01*
G75*
G02*
X128325000Y-93500000I0J100000D01*
G01*
X128325000Y-92225000D01*
G75*
G02*
X128425000Y-92125000I100000J0D01*
G01*
G37*
G36*
G01*
X127775000Y-92125000D02*
X127975000Y-92125000D01*
G75*
G02*
X128075000Y-92225000I0J-100000D01*
G01*
X128075000Y-93500000D01*
G75*
G02*
X127975000Y-93600000I-100000J0D01*
G01*
X127775000Y-93600000D01*
G75*
G02*
X127675000Y-93500000I0J100000D01*
G01*
X127675000Y-92225000D01*
G75*
G02*
X127775000Y-92125000I100000J0D01*
G01*
G37*
G36*
G01*
X127125000Y-92125000D02*
X127325000Y-92125000D01*
G75*
G02*
X127425000Y-92225000I0J-100000D01*
G01*
X127425000Y-93500000D01*
G75*
G02*
X127325000Y-93600000I-100000J0D01*
G01*
X127125000Y-93600000D01*
G75*
G02*
X127025000Y-93500000I0J100000D01*
G01*
X127025000Y-92225000D01*
G75*
G02*
X127125000Y-92125000I100000J0D01*
G01*
G37*
G36*
G01*
X127125000Y-86400000D02*
X127325000Y-86400000D01*
G75*
G02*
X127425000Y-86500000I0J-100000D01*
G01*
X127425000Y-87775000D01*
G75*
G02*
X127325000Y-87875000I-100000J0D01*
G01*
X127125000Y-87875000D01*
G75*
G02*
X127025000Y-87775000I0J100000D01*
G01*
X127025000Y-86500000D01*
G75*
G02*
X127125000Y-86400000I100000J0D01*
G01*
G37*
G36*
G01*
X127775000Y-86400000D02*
X127975000Y-86400000D01*
G75*
G02*
X128075000Y-86500000I0J-100000D01*
G01*
X128075000Y-87775000D01*
G75*
G02*
X127975000Y-87875000I-100000J0D01*
G01*
X127775000Y-87875000D01*
G75*
G02*
X127675000Y-87775000I0J100000D01*
G01*
X127675000Y-86500000D01*
G75*
G02*
X127775000Y-86400000I100000J0D01*
G01*
G37*
G36*
G01*
X128425000Y-86400000D02*
X128625000Y-86400000D01*
G75*
G02*
X128725000Y-86500000I0J-100000D01*
G01*
X128725000Y-87775000D01*
G75*
G02*
X128625000Y-87875000I-100000J0D01*
G01*
X128425000Y-87875000D01*
G75*
G02*
X128325000Y-87775000I0J100000D01*
G01*
X128325000Y-86500000D01*
G75*
G02*
X128425000Y-86400000I100000J0D01*
G01*
G37*
G36*
G01*
X129075000Y-86400000D02*
X129275000Y-86400000D01*
G75*
G02*
X129375000Y-86500000I0J-100000D01*
G01*
X129375000Y-87775000D01*
G75*
G02*
X129275000Y-87875000I-100000J0D01*
G01*
X129075000Y-87875000D01*
G75*
G02*
X128975000Y-87775000I0J100000D01*
G01*
X128975000Y-86500000D01*
G75*
G02*
X129075000Y-86400000I100000J0D01*
G01*
G37*
G36*
G01*
X129725000Y-86400000D02*
X129925000Y-86400000D01*
G75*
G02*
X130025000Y-86500000I0J-100000D01*
G01*
X130025000Y-87775000D01*
G75*
G02*
X129925000Y-87875000I-100000J0D01*
G01*
X129725000Y-87875000D01*
G75*
G02*
X129625000Y-87775000I0J100000D01*
G01*
X129625000Y-86500000D01*
G75*
G02*
X129725000Y-86400000I100000J0D01*
G01*
G37*
G36*
G01*
X130375000Y-86400000D02*
X130575000Y-86400000D01*
G75*
G02*
X130675000Y-86500000I0J-100000D01*
G01*
X130675000Y-87775000D01*
G75*
G02*
X130575000Y-87875000I-100000J0D01*
G01*
X130375000Y-87875000D01*
G75*
G02*
X130275000Y-87775000I0J100000D01*
G01*
X130275000Y-86500000D01*
G75*
G02*
X130375000Y-86400000I100000J0D01*
G01*
G37*
G36*
G01*
X131025000Y-86400000D02*
X131225000Y-86400000D01*
G75*
G02*
X131325000Y-86500000I0J-100000D01*
G01*
X131325000Y-87775000D01*
G75*
G02*
X131225000Y-87875000I-100000J0D01*
G01*
X131025000Y-87875000D01*
G75*
G02*
X130925000Y-87775000I0J100000D01*
G01*
X130925000Y-86500000D01*
G75*
G02*
X131025000Y-86400000I100000J0D01*
G01*
G37*
G36*
G01*
X131675000Y-86400000D02*
X131875000Y-86400000D01*
G75*
G02*
X131975000Y-86500000I0J-100000D01*
G01*
X131975000Y-87775000D01*
G75*
G02*
X131875000Y-87875000I-100000J0D01*
G01*
X131675000Y-87875000D01*
G75*
G02*
X131575000Y-87775000I0J100000D01*
G01*
X131575000Y-86500000D01*
G75*
G02*
X131675000Y-86400000I100000J0D01*
G01*
G37*
%TD*%
%TO.C,U5*%
G36*
G01*
X145675000Y-92125000D02*
X145875000Y-92125000D01*
G75*
G02*
X145975000Y-92225000I0J-100000D01*
G01*
X145975000Y-93500000D01*
G75*
G02*
X145875000Y-93600000I-100000J0D01*
G01*
X145675000Y-93600000D01*
G75*
G02*
X145575000Y-93500000I0J100000D01*
G01*
X145575000Y-92225000D01*
G75*
G02*
X145675000Y-92125000I100000J0D01*
G01*
G37*
G36*
G01*
X145025000Y-92125000D02*
X145225000Y-92125000D01*
G75*
G02*
X145325000Y-92225000I0J-100000D01*
G01*
X145325000Y-93500000D01*
G75*
G02*
X145225000Y-93600000I-100000J0D01*
G01*
X145025000Y-93600000D01*
G75*
G02*
X144925000Y-93500000I0J100000D01*
G01*
X144925000Y-92225000D01*
G75*
G02*
X145025000Y-92125000I100000J0D01*
G01*
G37*
G36*
G01*
X144375000Y-92125000D02*
X144575000Y-92125000D01*
G75*
G02*
X144675000Y-92225000I0J-100000D01*
G01*
X144675000Y-93500000D01*
G75*
G02*
X144575000Y-93600000I-100000J0D01*
G01*
X144375000Y-93600000D01*
G75*
G02*
X144275000Y-93500000I0J100000D01*
G01*
X144275000Y-92225000D01*
G75*
G02*
X144375000Y-92125000I100000J0D01*
G01*
G37*
G36*
G01*
X143725000Y-92125000D02*
X143925000Y-92125000D01*
G75*
G02*
X144025000Y-92225000I0J-100000D01*
G01*
X144025000Y-93500000D01*
G75*
G02*
X143925000Y-93600000I-100000J0D01*
G01*
X143725000Y-93600000D01*
G75*
G02*
X143625000Y-93500000I0J100000D01*
G01*
X143625000Y-92225000D01*
G75*
G02*
X143725000Y-92125000I100000J0D01*
G01*
G37*
G36*
G01*
X143075000Y-92125000D02*
X143275000Y-92125000D01*
G75*
G02*
X143375000Y-92225000I0J-100000D01*
G01*
X143375000Y-93500000D01*
G75*
G02*
X143275000Y-93600000I-100000J0D01*
G01*
X143075000Y-93600000D01*
G75*
G02*
X142975000Y-93500000I0J100000D01*
G01*
X142975000Y-92225000D01*
G75*
G02*
X143075000Y-92125000I100000J0D01*
G01*
G37*
G36*
G01*
X142425000Y-92125000D02*
X142625000Y-92125000D01*
G75*
G02*
X142725000Y-92225000I0J-100000D01*
G01*
X142725000Y-93500000D01*
G75*
G02*
X142625000Y-93600000I-100000J0D01*
G01*
X142425000Y-93600000D01*
G75*
G02*
X142325000Y-93500000I0J100000D01*
G01*
X142325000Y-92225000D01*
G75*
G02*
X142425000Y-92125000I100000J0D01*
G01*
G37*
G36*
G01*
X141775000Y-92125000D02*
X141975000Y-92125000D01*
G75*
G02*
X142075000Y-92225000I0J-100000D01*
G01*
X142075000Y-93500000D01*
G75*
G02*
X141975000Y-93600000I-100000J0D01*
G01*
X141775000Y-93600000D01*
G75*
G02*
X141675000Y-93500000I0J100000D01*
G01*
X141675000Y-92225000D01*
G75*
G02*
X141775000Y-92125000I100000J0D01*
G01*
G37*
G36*
G01*
X141125000Y-92125000D02*
X141325000Y-92125000D01*
G75*
G02*
X141425000Y-92225000I0J-100000D01*
G01*
X141425000Y-93500000D01*
G75*
G02*
X141325000Y-93600000I-100000J0D01*
G01*
X141125000Y-93600000D01*
G75*
G02*
X141025000Y-93500000I0J100000D01*
G01*
X141025000Y-92225000D01*
G75*
G02*
X141125000Y-92125000I100000J0D01*
G01*
G37*
G36*
G01*
X141125000Y-86400000D02*
X141325000Y-86400000D01*
G75*
G02*
X141425000Y-86500000I0J-100000D01*
G01*
X141425000Y-87775000D01*
G75*
G02*
X141325000Y-87875000I-100000J0D01*
G01*
X141125000Y-87875000D01*
G75*
G02*
X141025000Y-87775000I0J100000D01*
G01*
X141025000Y-86500000D01*
G75*
G02*
X141125000Y-86400000I100000J0D01*
G01*
G37*
G36*
G01*
X141775000Y-86400000D02*
X141975000Y-86400000D01*
G75*
G02*
X142075000Y-86500000I0J-100000D01*
G01*
X142075000Y-87775000D01*
G75*
G02*
X141975000Y-87875000I-100000J0D01*
G01*
X141775000Y-87875000D01*
G75*
G02*
X141675000Y-87775000I0J100000D01*
G01*
X141675000Y-86500000D01*
G75*
G02*
X141775000Y-86400000I100000J0D01*
G01*
G37*
G36*
G01*
X142425000Y-86400000D02*
X142625000Y-86400000D01*
G75*
G02*
X142725000Y-86500000I0J-100000D01*
G01*
X142725000Y-87775000D01*
G75*
G02*
X142625000Y-87875000I-100000J0D01*
G01*
X142425000Y-87875000D01*
G75*
G02*
X142325000Y-87775000I0J100000D01*
G01*
X142325000Y-86500000D01*
G75*
G02*
X142425000Y-86400000I100000J0D01*
G01*
G37*
G36*
G01*
X143075000Y-86400000D02*
X143275000Y-86400000D01*
G75*
G02*
X143375000Y-86500000I0J-100000D01*
G01*
X143375000Y-87775000D01*
G75*
G02*
X143275000Y-87875000I-100000J0D01*
G01*
X143075000Y-87875000D01*
G75*
G02*
X142975000Y-87775000I0J100000D01*
G01*
X142975000Y-86500000D01*
G75*
G02*
X143075000Y-86400000I100000J0D01*
G01*
G37*
G36*
G01*
X143725000Y-86400000D02*
X143925000Y-86400000D01*
G75*
G02*
X144025000Y-86500000I0J-100000D01*
G01*
X144025000Y-87775000D01*
G75*
G02*
X143925000Y-87875000I-100000J0D01*
G01*
X143725000Y-87875000D01*
G75*
G02*
X143625000Y-87775000I0J100000D01*
G01*
X143625000Y-86500000D01*
G75*
G02*
X143725000Y-86400000I100000J0D01*
G01*
G37*
G36*
G01*
X144375000Y-86400000D02*
X144575000Y-86400000D01*
G75*
G02*
X144675000Y-86500000I0J-100000D01*
G01*
X144675000Y-87775000D01*
G75*
G02*
X144575000Y-87875000I-100000J0D01*
G01*
X144375000Y-87875000D01*
G75*
G02*
X144275000Y-87775000I0J100000D01*
G01*
X144275000Y-86500000D01*
G75*
G02*
X144375000Y-86400000I100000J0D01*
G01*
G37*
G36*
G01*
X145025000Y-86400000D02*
X145225000Y-86400000D01*
G75*
G02*
X145325000Y-86500000I0J-100000D01*
G01*
X145325000Y-87775000D01*
G75*
G02*
X145225000Y-87875000I-100000J0D01*
G01*
X145025000Y-87875000D01*
G75*
G02*
X144925000Y-87775000I0J100000D01*
G01*
X144925000Y-86500000D01*
G75*
G02*
X145025000Y-86400000I100000J0D01*
G01*
G37*
G36*
G01*
X145675000Y-86400000D02*
X145875000Y-86400000D01*
G75*
G02*
X145975000Y-86500000I0J-100000D01*
G01*
X145975000Y-87775000D01*
G75*
G02*
X145875000Y-87875000I-100000J0D01*
G01*
X145675000Y-87875000D01*
G75*
G02*
X145575000Y-87775000I0J100000D01*
G01*
X145575000Y-86500000D01*
G75*
G02*
X145675000Y-86400000I100000J0D01*
G01*
G37*
%TD*%
%TO.C,U4*%
G36*
G01*
X159675000Y-92125000D02*
X159875000Y-92125000D01*
G75*
G02*
X159975000Y-92225000I0J-100000D01*
G01*
X159975000Y-93500000D01*
G75*
G02*
X159875000Y-93600000I-100000J0D01*
G01*
X159675000Y-93600000D01*
G75*
G02*
X159575000Y-93500000I0J100000D01*
G01*
X159575000Y-92225000D01*
G75*
G02*
X159675000Y-92125000I100000J0D01*
G01*
G37*
G36*
G01*
X159025000Y-92125000D02*
X159225000Y-92125000D01*
G75*
G02*
X159325000Y-92225000I0J-100000D01*
G01*
X159325000Y-93500000D01*
G75*
G02*
X159225000Y-93600000I-100000J0D01*
G01*
X159025000Y-93600000D01*
G75*
G02*
X158925000Y-93500000I0J100000D01*
G01*
X158925000Y-92225000D01*
G75*
G02*
X159025000Y-92125000I100000J0D01*
G01*
G37*
G36*
G01*
X158375000Y-92125000D02*
X158575000Y-92125000D01*
G75*
G02*
X158675000Y-92225000I0J-100000D01*
G01*
X158675000Y-93500000D01*
G75*
G02*
X158575000Y-93600000I-100000J0D01*
G01*
X158375000Y-93600000D01*
G75*
G02*
X158275000Y-93500000I0J100000D01*
G01*
X158275000Y-92225000D01*
G75*
G02*
X158375000Y-92125000I100000J0D01*
G01*
G37*
G36*
G01*
X157725000Y-92125000D02*
X157925000Y-92125000D01*
G75*
G02*
X158025000Y-92225000I0J-100000D01*
G01*
X158025000Y-93500000D01*
G75*
G02*
X157925000Y-93600000I-100000J0D01*
G01*
X157725000Y-93600000D01*
G75*
G02*
X157625000Y-93500000I0J100000D01*
G01*
X157625000Y-92225000D01*
G75*
G02*
X157725000Y-92125000I100000J0D01*
G01*
G37*
G36*
G01*
X157075000Y-92125000D02*
X157275000Y-92125000D01*
G75*
G02*
X157375000Y-92225000I0J-100000D01*
G01*
X157375000Y-93500000D01*
G75*
G02*
X157275000Y-93600000I-100000J0D01*
G01*
X157075000Y-93600000D01*
G75*
G02*
X156975000Y-93500000I0J100000D01*
G01*
X156975000Y-92225000D01*
G75*
G02*
X157075000Y-92125000I100000J0D01*
G01*
G37*
G36*
G01*
X156425000Y-92125000D02*
X156625000Y-92125000D01*
G75*
G02*
X156725000Y-92225000I0J-100000D01*
G01*
X156725000Y-93500000D01*
G75*
G02*
X156625000Y-93600000I-100000J0D01*
G01*
X156425000Y-93600000D01*
G75*
G02*
X156325000Y-93500000I0J100000D01*
G01*
X156325000Y-92225000D01*
G75*
G02*
X156425000Y-92125000I100000J0D01*
G01*
G37*
G36*
G01*
X155775000Y-92125000D02*
X155975000Y-92125000D01*
G75*
G02*
X156075000Y-92225000I0J-100000D01*
G01*
X156075000Y-93500000D01*
G75*
G02*
X155975000Y-93600000I-100000J0D01*
G01*
X155775000Y-93600000D01*
G75*
G02*
X155675000Y-93500000I0J100000D01*
G01*
X155675000Y-92225000D01*
G75*
G02*
X155775000Y-92125000I100000J0D01*
G01*
G37*
G36*
G01*
X155125000Y-92125000D02*
X155325000Y-92125000D01*
G75*
G02*
X155425000Y-92225000I0J-100000D01*
G01*
X155425000Y-93500000D01*
G75*
G02*
X155325000Y-93600000I-100000J0D01*
G01*
X155125000Y-93600000D01*
G75*
G02*
X155025000Y-93500000I0J100000D01*
G01*
X155025000Y-92225000D01*
G75*
G02*
X155125000Y-92125000I100000J0D01*
G01*
G37*
G36*
G01*
X155125000Y-86400000D02*
X155325000Y-86400000D01*
G75*
G02*
X155425000Y-86500000I0J-100000D01*
G01*
X155425000Y-87775000D01*
G75*
G02*
X155325000Y-87875000I-100000J0D01*
G01*
X155125000Y-87875000D01*
G75*
G02*
X155025000Y-87775000I0J100000D01*
G01*
X155025000Y-86500000D01*
G75*
G02*
X155125000Y-86400000I100000J0D01*
G01*
G37*
G36*
G01*
X155775000Y-86400000D02*
X155975000Y-86400000D01*
G75*
G02*
X156075000Y-86500000I0J-100000D01*
G01*
X156075000Y-87775000D01*
G75*
G02*
X155975000Y-87875000I-100000J0D01*
G01*
X155775000Y-87875000D01*
G75*
G02*
X155675000Y-87775000I0J100000D01*
G01*
X155675000Y-86500000D01*
G75*
G02*
X155775000Y-86400000I100000J0D01*
G01*
G37*
G36*
G01*
X156425000Y-86400000D02*
X156625000Y-86400000D01*
G75*
G02*
X156725000Y-86500000I0J-100000D01*
G01*
X156725000Y-87775000D01*
G75*
G02*
X156625000Y-87875000I-100000J0D01*
G01*
X156425000Y-87875000D01*
G75*
G02*
X156325000Y-87775000I0J100000D01*
G01*
X156325000Y-86500000D01*
G75*
G02*
X156425000Y-86400000I100000J0D01*
G01*
G37*
G36*
G01*
X157075000Y-86400000D02*
X157275000Y-86400000D01*
G75*
G02*
X157375000Y-86500000I0J-100000D01*
G01*
X157375000Y-87775000D01*
G75*
G02*
X157275000Y-87875000I-100000J0D01*
G01*
X157075000Y-87875000D01*
G75*
G02*
X156975000Y-87775000I0J100000D01*
G01*
X156975000Y-86500000D01*
G75*
G02*
X157075000Y-86400000I100000J0D01*
G01*
G37*
G36*
G01*
X157725000Y-86400000D02*
X157925000Y-86400000D01*
G75*
G02*
X158025000Y-86500000I0J-100000D01*
G01*
X158025000Y-87775000D01*
G75*
G02*
X157925000Y-87875000I-100000J0D01*
G01*
X157725000Y-87875000D01*
G75*
G02*
X157625000Y-87775000I0J100000D01*
G01*
X157625000Y-86500000D01*
G75*
G02*
X157725000Y-86400000I100000J0D01*
G01*
G37*
G36*
G01*
X158375000Y-86400000D02*
X158575000Y-86400000D01*
G75*
G02*
X158675000Y-86500000I0J-100000D01*
G01*
X158675000Y-87775000D01*
G75*
G02*
X158575000Y-87875000I-100000J0D01*
G01*
X158375000Y-87875000D01*
G75*
G02*
X158275000Y-87775000I0J100000D01*
G01*
X158275000Y-86500000D01*
G75*
G02*
X158375000Y-86400000I100000J0D01*
G01*
G37*
G36*
G01*
X159025000Y-86400000D02*
X159225000Y-86400000D01*
G75*
G02*
X159325000Y-86500000I0J-100000D01*
G01*
X159325000Y-87775000D01*
G75*
G02*
X159225000Y-87875000I-100000J0D01*
G01*
X159025000Y-87875000D01*
G75*
G02*
X158925000Y-87775000I0J100000D01*
G01*
X158925000Y-86500000D01*
G75*
G02*
X159025000Y-86400000I100000J0D01*
G01*
G37*
G36*
G01*
X159675000Y-86400000D02*
X159875000Y-86400000D01*
G75*
G02*
X159975000Y-86500000I0J-100000D01*
G01*
X159975000Y-87775000D01*
G75*
G02*
X159875000Y-87875000I-100000J0D01*
G01*
X159675000Y-87875000D01*
G75*
G02*
X159575000Y-87775000I0J100000D01*
G01*
X159575000Y-86500000D01*
G75*
G02*
X159675000Y-86400000I100000J0D01*
G01*
G37*
%TD*%
%TO.C,U3*%
G36*
G01*
X173675000Y-92125000D02*
X173875000Y-92125000D01*
G75*
G02*
X173975000Y-92225000I0J-100000D01*
G01*
X173975000Y-93500000D01*
G75*
G02*
X173875000Y-93600000I-100000J0D01*
G01*
X173675000Y-93600000D01*
G75*
G02*
X173575000Y-93500000I0J100000D01*
G01*
X173575000Y-92225000D01*
G75*
G02*
X173675000Y-92125000I100000J0D01*
G01*
G37*
G36*
G01*
X173025000Y-92125000D02*
X173225000Y-92125000D01*
G75*
G02*
X173325000Y-92225000I0J-100000D01*
G01*
X173325000Y-93500000D01*
G75*
G02*
X173225000Y-93600000I-100000J0D01*
G01*
X173025000Y-93600000D01*
G75*
G02*
X172925000Y-93500000I0J100000D01*
G01*
X172925000Y-92225000D01*
G75*
G02*
X173025000Y-92125000I100000J0D01*
G01*
G37*
G36*
G01*
X172375000Y-92125000D02*
X172575000Y-92125000D01*
G75*
G02*
X172675000Y-92225000I0J-100000D01*
G01*
X172675000Y-93500000D01*
G75*
G02*
X172575000Y-93600000I-100000J0D01*
G01*
X172375000Y-93600000D01*
G75*
G02*
X172275000Y-93500000I0J100000D01*
G01*
X172275000Y-92225000D01*
G75*
G02*
X172375000Y-92125000I100000J0D01*
G01*
G37*
G36*
G01*
X171725000Y-92125000D02*
X171925000Y-92125000D01*
G75*
G02*
X172025000Y-92225000I0J-100000D01*
G01*
X172025000Y-93500000D01*
G75*
G02*
X171925000Y-93600000I-100000J0D01*
G01*
X171725000Y-93600000D01*
G75*
G02*
X171625000Y-93500000I0J100000D01*
G01*
X171625000Y-92225000D01*
G75*
G02*
X171725000Y-92125000I100000J0D01*
G01*
G37*
G36*
G01*
X171075000Y-92125000D02*
X171275000Y-92125000D01*
G75*
G02*
X171375000Y-92225000I0J-100000D01*
G01*
X171375000Y-93500000D01*
G75*
G02*
X171275000Y-93600000I-100000J0D01*
G01*
X171075000Y-93600000D01*
G75*
G02*
X170975000Y-93500000I0J100000D01*
G01*
X170975000Y-92225000D01*
G75*
G02*
X171075000Y-92125000I100000J0D01*
G01*
G37*
G36*
G01*
X170425000Y-92125000D02*
X170625000Y-92125000D01*
G75*
G02*
X170725000Y-92225000I0J-100000D01*
G01*
X170725000Y-93500000D01*
G75*
G02*
X170625000Y-93600000I-100000J0D01*
G01*
X170425000Y-93600000D01*
G75*
G02*
X170325000Y-93500000I0J100000D01*
G01*
X170325000Y-92225000D01*
G75*
G02*
X170425000Y-92125000I100000J0D01*
G01*
G37*
G36*
G01*
X169775000Y-92125000D02*
X169975000Y-92125000D01*
G75*
G02*
X170075000Y-92225000I0J-100000D01*
G01*
X170075000Y-93500000D01*
G75*
G02*
X169975000Y-93600000I-100000J0D01*
G01*
X169775000Y-93600000D01*
G75*
G02*
X169675000Y-93500000I0J100000D01*
G01*
X169675000Y-92225000D01*
G75*
G02*
X169775000Y-92125000I100000J0D01*
G01*
G37*
G36*
G01*
X169125000Y-92125000D02*
X169325000Y-92125000D01*
G75*
G02*
X169425000Y-92225000I0J-100000D01*
G01*
X169425000Y-93500000D01*
G75*
G02*
X169325000Y-93600000I-100000J0D01*
G01*
X169125000Y-93600000D01*
G75*
G02*
X169025000Y-93500000I0J100000D01*
G01*
X169025000Y-92225000D01*
G75*
G02*
X169125000Y-92125000I100000J0D01*
G01*
G37*
G36*
G01*
X169125000Y-86400000D02*
X169325000Y-86400000D01*
G75*
G02*
X169425000Y-86500000I0J-100000D01*
G01*
X169425000Y-87775000D01*
G75*
G02*
X169325000Y-87875000I-100000J0D01*
G01*
X169125000Y-87875000D01*
G75*
G02*
X169025000Y-87775000I0J100000D01*
G01*
X169025000Y-86500000D01*
G75*
G02*
X169125000Y-86400000I100000J0D01*
G01*
G37*
G36*
G01*
X169775000Y-86400000D02*
X169975000Y-86400000D01*
G75*
G02*
X170075000Y-86500000I0J-100000D01*
G01*
X170075000Y-87775000D01*
G75*
G02*
X169975000Y-87875000I-100000J0D01*
G01*
X169775000Y-87875000D01*
G75*
G02*
X169675000Y-87775000I0J100000D01*
G01*
X169675000Y-86500000D01*
G75*
G02*
X169775000Y-86400000I100000J0D01*
G01*
G37*
G36*
G01*
X170425000Y-86400000D02*
X170625000Y-86400000D01*
G75*
G02*
X170725000Y-86500000I0J-100000D01*
G01*
X170725000Y-87775000D01*
G75*
G02*
X170625000Y-87875000I-100000J0D01*
G01*
X170425000Y-87875000D01*
G75*
G02*
X170325000Y-87775000I0J100000D01*
G01*
X170325000Y-86500000D01*
G75*
G02*
X170425000Y-86400000I100000J0D01*
G01*
G37*
G36*
G01*
X171075000Y-86400000D02*
X171275000Y-86400000D01*
G75*
G02*
X171375000Y-86500000I0J-100000D01*
G01*
X171375000Y-87775000D01*
G75*
G02*
X171275000Y-87875000I-100000J0D01*
G01*
X171075000Y-87875000D01*
G75*
G02*
X170975000Y-87775000I0J100000D01*
G01*
X170975000Y-86500000D01*
G75*
G02*
X171075000Y-86400000I100000J0D01*
G01*
G37*
G36*
G01*
X171725000Y-86400000D02*
X171925000Y-86400000D01*
G75*
G02*
X172025000Y-86500000I0J-100000D01*
G01*
X172025000Y-87775000D01*
G75*
G02*
X171925000Y-87875000I-100000J0D01*
G01*
X171725000Y-87875000D01*
G75*
G02*
X171625000Y-87775000I0J100000D01*
G01*
X171625000Y-86500000D01*
G75*
G02*
X171725000Y-86400000I100000J0D01*
G01*
G37*
G36*
G01*
X172375000Y-86400000D02*
X172575000Y-86400000D01*
G75*
G02*
X172675000Y-86500000I0J-100000D01*
G01*
X172675000Y-87775000D01*
G75*
G02*
X172575000Y-87875000I-100000J0D01*
G01*
X172375000Y-87875000D01*
G75*
G02*
X172275000Y-87775000I0J100000D01*
G01*
X172275000Y-86500000D01*
G75*
G02*
X172375000Y-86400000I100000J0D01*
G01*
G37*
G36*
G01*
X173025000Y-86400000D02*
X173225000Y-86400000D01*
G75*
G02*
X173325000Y-86500000I0J-100000D01*
G01*
X173325000Y-87775000D01*
G75*
G02*
X173225000Y-87875000I-100000J0D01*
G01*
X173025000Y-87875000D01*
G75*
G02*
X172925000Y-87775000I0J100000D01*
G01*
X172925000Y-86500000D01*
G75*
G02*
X173025000Y-86400000I100000J0D01*
G01*
G37*
G36*
G01*
X173675000Y-86400000D02*
X173875000Y-86400000D01*
G75*
G02*
X173975000Y-86500000I0J-100000D01*
G01*
X173975000Y-87775000D01*
G75*
G02*
X173875000Y-87875000I-100000J0D01*
G01*
X173675000Y-87875000D01*
G75*
G02*
X173575000Y-87775000I0J100000D01*
G01*
X173575000Y-86500000D01*
G75*
G02*
X173675000Y-86400000I100000J0D01*
G01*
G37*
%TD*%
%TO.C,U2*%
G36*
G01*
X148525000Y-107425000D02*
X148525000Y-107575000D01*
G75*
G02*
X148450000Y-107650000I-75000J0D01*
G01*
X147150000Y-107650000D01*
G75*
G02*
X147075000Y-107575000I0J75000D01*
G01*
X147075000Y-107425000D01*
G75*
G02*
X147150000Y-107350000I75000J0D01*
G01*
X148450000Y-107350000D01*
G75*
G02*
X148525000Y-107425000I0J-75000D01*
G01*
G37*
G36*
G01*
X148525000Y-106925000D02*
X148525000Y-107075000D01*
G75*
G02*
X148450000Y-107150000I-75000J0D01*
G01*
X147150000Y-107150000D01*
G75*
G02*
X147075000Y-107075000I0J75000D01*
G01*
X147075000Y-106925000D01*
G75*
G02*
X147150000Y-106850000I75000J0D01*
G01*
X148450000Y-106850000D01*
G75*
G02*
X148525000Y-106925000I0J-75000D01*
G01*
G37*
G36*
G01*
X148525000Y-106425000D02*
X148525000Y-106575000D01*
G75*
G02*
X148450000Y-106650000I-75000J0D01*
G01*
X147150000Y-106650000D01*
G75*
G02*
X147075000Y-106575000I0J75000D01*
G01*
X147075000Y-106425000D01*
G75*
G02*
X147150000Y-106350000I75000J0D01*
G01*
X148450000Y-106350000D01*
G75*
G02*
X148525000Y-106425000I0J-75000D01*
G01*
G37*
G36*
G01*
X148525000Y-105925000D02*
X148525000Y-106075000D01*
G75*
G02*
X148450000Y-106150000I-75000J0D01*
G01*
X147150000Y-106150000D01*
G75*
G02*
X147075000Y-106075000I0J75000D01*
G01*
X147075000Y-105925000D01*
G75*
G02*
X147150000Y-105850000I75000J0D01*
G01*
X148450000Y-105850000D01*
G75*
G02*
X148525000Y-105925000I0J-75000D01*
G01*
G37*
G36*
G01*
X148525000Y-105425000D02*
X148525000Y-105575000D01*
G75*
G02*
X148450000Y-105650000I-75000J0D01*
G01*
X147150000Y-105650000D01*
G75*
G02*
X147075000Y-105575000I0J75000D01*
G01*
X147075000Y-105425000D01*
G75*
G02*
X147150000Y-105350000I75000J0D01*
G01*
X148450000Y-105350000D01*
G75*
G02*
X148525000Y-105425000I0J-75000D01*
G01*
G37*
G36*
G01*
X152925000Y-105425000D02*
X152925000Y-105575000D01*
G75*
G02*
X152850000Y-105650000I-75000J0D01*
G01*
X151550000Y-105650000D01*
G75*
G02*
X151475000Y-105575000I0J75000D01*
G01*
X151475000Y-105425000D01*
G75*
G02*
X151550000Y-105350000I75000J0D01*
G01*
X152850000Y-105350000D01*
G75*
G02*
X152925000Y-105425000I0J-75000D01*
G01*
G37*
G36*
G01*
X152925000Y-105925000D02*
X152925000Y-106075000D01*
G75*
G02*
X152850000Y-106150000I-75000J0D01*
G01*
X151550000Y-106150000D01*
G75*
G02*
X151475000Y-106075000I0J75000D01*
G01*
X151475000Y-105925000D01*
G75*
G02*
X151550000Y-105850000I75000J0D01*
G01*
X152850000Y-105850000D01*
G75*
G02*
X152925000Y-105925000I0J-75000D01*
G01*
G37*
G36*
G01*
X152925000Y-106425000D02*
X152925000Y-106575000D01*
G75*
G02*
X152850000Y-106650000I-75000J0D01*
G01*
X151550000Y-106650000D01*
G75*
G02*
X151475000Y-106575000I0J75000D01*
G01*
X151475000Y-106425000D01*
G75*
G02*
X151550000Y-106350000I75000J0D01*
G01*
X152850000Y-106350000D01*
G75*
G02*
X152925000Y-106425000I0J-75000D01*
G01*
G37*
G36*
G01*
X152925000Y-106925000D02*
X152925000Y-107075000D01*
G75*
G02*
X152850000Y-107150000I-75000J0D01*
G01*
X151550000Y-107150000D01*
G75*
G02*
X151475000Y-107075000I0J75000D01*
G01*
X151475000Y-106925000D01*
G75*
G02*
X151550000Y-106850000I75000J0D01*
G01*
X152850000Y-106850000D01*
G75*
G02*
X152925000Y-106925000I0J-75000D01*
G01*
G37*
G36*
G01*
X152925000Y-107425000D02*
X152925000Y-107575000D01*
G75*
G02*
X152850000Y-107650000I-75000J0D01*
G01*
X151550000Y-107650000D01*
G75*
G02*
X151475000Y-107575000I0J75000D01*
G01*
X151475000Y-107425000D01*
G75*
G02*
X151550000Y-107350000I75000J0D01*
G01*
X152850000Y-107350000D01*
G75*
G02*
X152925000Y-107425000I0J-75000D01*
G01*
G37*
%TD*%
D10*
%TO.C,U1*%
X153600000Y-65825000D03*
X153600000Y-66475000D03*
X153600000Y-67125000D03*
X153600000Y-67775000D03*
X153600000Y-68425000D03*
X153600000Y-69075000D03*
X153600000Y-69725000D03*
X153600000Y-70375000D03*
X153600000Y-71025000D03*
X153600000Y-71675000D03*
X153600000Y-72325000D03*
X153600000Y-72975000D03*
X153600000Y-73625000D03*
X153600000Y-74275000D03*
X146400000Y-74275000D03*
X146400000Y-73625000D03*
X146400000Y-72975000D03*
X146400000Y-72325000D03*
X146400000Y-71675000D03*
X146400000Y-71025000D03*
X146400000Y-70375000D03*
X146400000Y-69725000D03*
X146400000Y-69075000D03*
X146400000Y-68425000D03*
X146400000Y-67775000D03*
X146400000Y-67125000D03*
X146400000Y-66475000D03*
X146400000Y-65825000D03*
%TD*%
%TO.C,RLY4*%
G36*
G01*
X147975000Y-101432500D02*
X147975000Y-101707500D01*
G75*
G02*
X147837500Y-101845000I-137500J0D01*
G01*
X146662500Y-101845000D01*
G75*
G02*
X146525000Y-101707500I0J137500D01*
G01*
X146525000Y-101432500D01*
G75*
G02*
X146662500Y-101295000I137500J0D01*
G01*
X147837500Y-101295000D01*
G75*
G02*
X147975000Y-101432500I0J-137500D01*
G01*
G37*
G36*
G01*
X147975000Y-98892500D02*
X147975000Y-99167500D01*
G75*
G02*
X147837500Y-99305000I-137500J0D01*
G01*
X146662500Y-99305000D01*
G75*
G02*
X146525000Y-99167500I0J137500D01*
G01*
X146525000Y-98892500D01*
G75*
G02*
X146662500Y-98755000I137500J0D01*
G01*
X147837500Y-98755000D01*
G75*
G02*
X147975000Y-98892500I0J-137500D01*
G01*
G37*
G36*
G01*
X153475000Y-98892500D02*
X153475000Y-99167500D01*
G75*
G02*
X153337500Y-99305000I-137500J0D01*
G01*
X152162500Y-99305000D01*
G75*
G02*
X152025000Y-99167500I0J137500D01*
G01*
X152025000Y-98892500D01*
G75*
G02*
X152162500Y-98755000I137500J0D01*
G01*
X153337500Y-98755000D01*
G75*
G02*
X153475000Y-98892500I0J-137500D01*
G01*
G37*
G36*
G01*
X153475000Y-101432500D02*
X153475000Y-101707500D01*
G75*
G02*
X153337500Y-101845000I-137500J0D01*
G01*
X152162500Y-101845000D01*
G75*
G02*
X152025000Y-101707500I0J137500D01*
G01*
X152025000Y-101432500D01*
G75*
G02*
X152162500Y-101295000I137500J0D01*
G01*
X153337500Y-101295000D01*
G75*
G02*
X153475000Y-101432500I0J-137500D01*
G01*
G37*
%TD*%
%TO.C,RLY3*%
G36*
G01*
X123732500Y-92025000D02*
X124007500Y-92025000D01*
G75*
G02*
X124145000Y-92162500I0J-137500D01*
G01*
X124145000Y-93337500D01*
G75*
G02*
X124007500Y-93475000I-137500J0D01*
G01*
X123732500Y-93475000D01*
G75*
G02*
X123595000Y-93337500I0J137500D01*
G01*
X123595000Y-92162500D01*
G75*
G02*
X123732500Y-92025000I137500J0D01*
G01*
G37*
G36*
G01*
X121192500Y-92025000D02*
X121467500Y-92025000D01*
G75*
G02*
X121605000Y-92162500I0J-137500D01*
G01*
X121605000Y-93337500D01*
G75*
G02*
X121467500Y-93475000I-137500J0D01*
G01*
X121192500Y-93475000D01*
G75*
G02*
X121055000Y-93337500I0J137500D01*
G01*
X121055000Y-92162500D01*
G75*
G02*
X121192500Y-92025000I137500J0D01*
G01*
G37*
G36*
G01*
X121192500Y-86525000D02*
X121467500Y-86525000D01*
G75*
G02*
X121605000Y-86662500I0J-137500D01*
G01*
X121605000Y-87837500D01*
G75*
G02*
X121467500Y-87975000I-137500J0D01*
G01*
X121192500Y-87975000D01*
G75*
G02*
X121055000Y-87837500I0J137500D01*
G01*
X121055000Y-86662500D01*
G75*
G02*
X121192500Y-86525000I137500J0D01*
G01*
G37*
G36*
G01*
X123732500Y-86525000D02*
X124007500Y-86525000D01*
G75*
G02*
X124145000Y-86662500I0J-137500D01*
G01*
X124145000Y-87837500D01*
G75*
G02*
X124007500Y-87975000I-137500J0D01*
G01*
X123732500Y-87975000D01*
G75*
G02*
X123595000Y-87837500I0J137500D01*
G01*
X123595000Y-86662500D01*
G75*
G02*
X123732500Y-86525000I137500J0D01*
G01*
G37*
%TD*%
%TO.C,RLY2*%
G36*
G01*
X137732500Y-92025000D02*
X138007500Y-92025000D01*
G75*
G02*
X138145000Y-92162500I0J-137500D01*
G01*
X138145000Y-93337500D01*
G75*
G02*
X138007500Y-93475000I-137500J0D01*
G01*
X137732500Y-93475000D01*
G75*
G02*
X137595000Y-93337500I0J137500D01*
G01*
X137595000Y-92162500D01*
G75*
G02*
X137732500Y-92025000I137500J0D01*
G01*
G37*
G36*
G01*
X135192500Y-92025000D02*
X135467500Y-92025000D01*
G75*
G02*
X135605000Y-92162500I0J-137500D01*
G01*
X135605000Y-93337500D01*
G75*
G02*
X135467500Y-93475000I-137500J0D01*
G01*
X135192500Y-93475000D01*
G75*
G02*
X135055000Y-93337500I0J137500D01*
G01*
X135055000Y-92162500D01*
G75*
G02*
X135192500Y-92025000I137500J0D01*
G01*
G37*
G36*
G01*
X135192500Y-86525000D02*
X135467500Y-86525000D01*
G75*
G02*
X135605000Y-86662500I0J-137500D01*
G01*
X135605000Y-87837500D01*
G75*
G02*
X135467500Y-87975000I-137500J0D01*
G01*
X135192500Y-87975000D01*
G75*
G02*
X135055000Y-87837500I0J137500D01*
G01*
X135055000Y-86662500D01*
G75*
G02*
X135192500Y-86525000I137500J0D01*
G01*
G37*
G36*
G01*
X137732500Y-86525000D02*
X138007500Y-86525000D01*
G75*
G02*
X138145000Y-86662500I0J-137500D01*
G01*
X138145000Y-87837500D01*
G75*
G02*
X138007500Y-87975000I-137500J0D01*
G01*
X137732500Y-87975000D01*
G75*
G02*
X137595000Y-87837500I0J137500D01*
G01*
X137595000Y-86662500D01*
G75*
G02*
X137732500Y-86525000I137500J0D01*
G01*
G37*
%TD*%
%TO.C,RLY1*%
G36*
G01*
X151732500Y-92025000D02*
X152007500Y-92025000D01*
G75*
G02*
X152145000Y-92162500I0J-137500D01*
G01*
X152145000Y-93337500D01*
G75*
G02*
X152007500Y-93475000I-137500J0D01*
G01*
X151732500Y-93475000D01*
G75*
G02*
X151595000Y-93337500I0J137500D01*
G01*
X151595000Y-92162500D01*
G75*
G02*
X151732500Y-92025000I137500J0D01*
G01*
G37*
G36*
G01*
X149192500Y-92025000D02*
X149467500Y-92025000D01*
G75*
G02*
X149605000Y-92162500I0J-137500D01*
G01*
X149605000Y-93337500D01*
G75*
G02*
X149467500Y-93475000I-137500J0D01*
G01*
X149192500Y-93475000D01*
G75*
G02*
X149055000Y-93337500I0J137500D01*
G01*
X149055000Y-92162500D01*
G75*
G02*
X149192500Y-92025000I137500J0D01*
G01*
G37*
G36*
G01*
X149192500Y-86525000D02*
X149467500Y-86525000D01*
G75*
G02*
X149605000Y-86662500I0J-137500D01*
G01*
X149605000Y-87837500D01*
G75*
G02*
X149467500Y-87975000I-137500J0D01*
G01*
X149192500Y-87975000D01*
G75*
G02*
X149055000Y-87837500I0J137500D01*
G01*
X149055000Y-86662500D01*
G75*
G02*
X149192500Y-86525000I137500J0D01*
G01*
G37*
G36*
G01*
X151732500Y-86525000D02*
X152007500Y-86525000D01*
G75*
G02*
X152145000Y-86662500I0J-137500D01*
G01*
X152145000Y-87837500D01*
G75*
G02*
X152007500Y-87975000I-137500J0D01*
G01*
X151732500Y-87975000D01*
G75*
G02*
X151595000Y-87837500I0J137500D01*
G01*
X151595000Y-86662500D01*
G75*
G02*
X151732500Y-86525000I137500J0D01*
G01*
G37*
%TD*%
%TO.C,RLY0*%
G36*
G01*
X165732500Y-92025000D02*
X166007500Y-92025000D01*
G75*
G02*
X166145000Y-92162500I0J-137500D01*
G01*
X166145000Y-93337500D01*
G75*
G02*
X166007500Y-93475000I-137500J0D01*
G01*
X165732500Y-93475000D01*
G75*
G02*
X165595000Y-93337500I0J137500D01*
G01*
X165595000Y-92162500D01*
G75*
G02*
X165732500Y-92025000I137500J0D01*
G01*
G37*
G36*
G01*
X163192500Y-92025000D02*
X163467500Y-92025000D01*
G75*
G02*
X163605000Y-92162500I0J-137500D01*
G01*
X163605000Y-93337500D01*
G75*
G02*
X163467500Y-93475000I-137500J0D01*
G01*
X163192500Y-93475000D01*
G75*
G02*
X163055000Y-93337500I0J137500D01*
G01*
X163055000Y-92162500D01*
G75*
G02*
X163192500Y-92025000I137500J0D01*
G01*
G37*
G36*
G01*
X163192500Y-86525000D02*
X163467500Y-86525000D01*
G75*
G02*
X163605000Y-86662500I0J-137500D01*
G01*
X163605000Y-87837500D01*
G75*
G02*
X163467500Y-87975000I-137500J0D01*
G01*
X163192500Y-87975000D01*
G75*
G02*
X163055000Y-87837500I0J137500D01*
G01*
X163055000Y-86662500D01*
G75*
G02*
X163192500Y-86525000I137500J0D01*
G01*
G37*
G36*
G01*
X165732500Y-86525000D02*
X166007500Y-86525000D01*
G75*
G02*
X166145000Y-86662500I0J-137500D01*
G01*
X166145000Y-87837500D01*
G75*
G02*
X166007500Y-87975000I-137500J0D01*
G01*
X165732500Y-87975000D01*
G75*
G02*
X165595000Y-87837500I0J137500D01*
G01*
X165595000Y-86662500D01*
G75*
G02*
X165732500Y-86525000I137500J0D01*
G01*
G37*
%TD*%
%TO.C,R12*%
G36*
G01*
X155300001Y-100100000D02*
X154399999Y-100100000D01*
G75*
G02*
X154150000Y-99850001I0J249999D01*
G01*
X154150000Y-99199999D01*
G75*
G02*
X154399999Y-98950000I249999J0D01*
G01*
X155300001Y-98950000D01*
G75*
G02*
X155550000Y-99199999I0J-249999D01*
G01*
X155550000Y-99850001D01*
G75*
G02*
X155300001Y-100100000I-249999J0D01*
G01*
G37*
G36*
G01*
X155300001Y-102150000D02*
X154399999Y-102150000D01*
G75*
G02*
X154150000Y-101900001I0J249999D01*
G01*
X154150000Y-101249999D01*
G75*
G02*
X154399999Y-101000000I249999J0D01*
G01*
X155300001Y-101000000D01*
G75*
G02*
X155550000Y-101249999I0J-249999D01*
G01*
X155550000Y-101900001D01*
G75*
G02*
X155300001Y-102150000I-249999J0D01*
G01*
G37*
%TD*%
%TO.C,R11*%
G36*
G01*
X125850000Y-84449999D02*
X125850000Y-85350001D01*
G75*
G02*
X125600001Y-85600000I-249999J0D01*
G01*
X124949999Y-85600000D01*
G75*
G02*
X124700000Y-85350001I0J249999D01*
G01*
X124700000Y-84449999D01*
G75*
G02*
X124949999Y-84200000I249999J0D01*
G01*
X125600001Y-84200000D01*
G75*
G02*
X125850000Y-84449999I0J-249999D01*
G01*
G37*
G36*
G01*
X127900000Y-84449999D02*
X127900000Y-85350001D01*
G75*
G02*
X127650001Y-85600000I-249999J0D01*
G01*
X126999999Y-85600000D01*
G75*
G02*
X126750000Y-85350001I0J249999D01*
G01*
X126750000Y-84449999D01*
G75*
G02*
X126999999Y-84200000I249999J0D01*
G01*
X127650001Y-84200000D01*
G75*
G02*
X127900000Y-84449999I0J-249999D01*
G01*
G37*
%TD*%
%TO.C,R10*%
G36*
G01*
X153850000Y-84449999D02*
X153850000Y-85350001D01*
G75*
G02*
X153600001Y-85600000I-249999J0D01*
G01*
X152949999Y-85600000D01*
G75*
G02*
X152700000Y-85350001I0J249999D01*
G01*
X152700000Y-84449999D01*
G75*
G02*
X152949999Y-84200000I249999J0D01*
G01*
X153600001Y-84200000D01*
G75*
G02*
X153850000Y-84449999I0J-249999D01*
G01*
G37*
G36*
G01*
X155900000Y-84449999D02*
X155900000Y-85350001D01*
G75*
G02*
X155650001Y-85600000I-249999J0D01*
G01*
X154999999Y-85600000D01*
G75*
G02*
X154750000Y-85350001I0J249999D01*
G01*
X154750000Y-84449999D01*
G75*
G02*
X154999999Y-84200000I249999J0D01*
G01*
X155650001Y-84200000D01*
G75*
G02*
X155900000Y-84449999I0J-249999D01*
G01*
G37*
%TD*%
%TO.C,R9*%
G36*
G01*
X167850000Y-84449999D02*
X167850000Y-85350001D01*
G75*
G02*
X167600001Y-85600000I-249999J0D01*
G01*
X166949999Y-85600000D01*
G75*
G02*
X166700000Y-85350001I0J249999D01*
G01*
X166700000Y-84449999D01*
G75*
G02*
X166949999Y-84200000I249999J0D01*
G01*
X167600001Y-84200000D01*
G75*
G02*
X167850000Y-84449999I0J-249999D01*
G01*
G37*
G36*
G01*
X169900000Y-84449999D02*
X169900000Y-85350001D01*
G75*
G02*
X169650001Y-85600000I-249999J0D01*
G01*
X168999999Y-85600000D01*
G75*
G02*
X168750000Y-85350001I0J249999D01*
G01*
X168750000Y-84449999D01*
G75*
G02*
X168999999Y-84200000I249999J0D01*
G01*
X169650001Y-84200000D01*
G75*
G02*
X169900000Y-84449999I0J-249999D01*
G01*
G37*
%TD*%
%TO.C,R8*%
G36*
G01*
X139850000Y-84449999D02*
X139850000Y-85350001D01*
G75*
G02*
X139600001Y-85600000I-249999J0D01*
G01*
X138949999Y-85600000D01*
G75*
G02*
X138700000Y-85350001I0J249999D01*
G01*
X138700000Y-84449999D01*
G75*
G02*
X138949999Y-84200000I249999J0D01*
G01*
X139600001Y-84200000D01*
G75*
G02*
X139850000Y-84449999I0J-249999D01*
G01*
G37*
G36*
G01*
X141900000Y-84449999D02*
X141900000Y-85350001D01*
G75*
G02*
X141650001Y-85600000I-249999J0D01*
G01*
X140999999Y-85600000D01*
G75*
G02*
X140750000Y-85350001I0J249999D01*
G01*
X140750000Y-84449999D01*
G75*
G02*
X140999999Y-84200000I249999J0D01*
G01*
X141650001Y-84200000D01*
G75*
G02*
X141900000Y-84449999I0J-249999D01*
G01*
G37*
%TD*%
%TO.C,R4*%
G36*
G01*
X144650001Y-63850000D02*
X143749999Y-63850000D01*
G75*
G02*
X143500000Y-63600001I0J249999D01*
G01*
X143500000Y-62949999D01*
G75*
G02*
X143749999Y-62700000I249999J0D01*
G01*
X144650001Y-62700000D01*
G75*
G02*
X144900000Y-62949999I0J-249999D01*
G01*
X144900000Y-63600001D01*
G75*
G02*
X144650001Y-63850000I-249999J0D01*
G01*
G37*
G36*
G01*
X144650001Y-65900000D02*
X143749999Y-65900000D01*
G75*
G02*
X143500000Y-65650001I0J249999D01*
G01*
X143500000Y-64999999D01*
G75*
G02*
X143749999Y-64750000I249999J0D01*
G01*
X144650001Y-64750000D01*
G75*
G02*
X144900000Y-64999999I0J-249999D01*
G01*
X144900000Y-65650001D01*
G75*
G02*
X144650001Y-65900000I-249999J0D01*
G01*
G37*
%TD*%
%TO.C,R3*%
G36*
G01*
X121650000Y-84449999D02*
X121650000Y-85350001D01*
G75*
G02*
X121400001Y-85600000I-249999J0D01*
G01*
X120749999Y-85600000D01*
G75*
G02*
X120500000Y-85350001I0J249999D01*
G01*
X120500000Y-84449999D01*
G75*
G02*
X120749999Y-84200000I249999J0D01*
G01*
X121400001Y-84200000D01*
G75*
G02*
X121650000Y-84449999I0J-249999D01*
G01*
G37*
G36*
G01*
X123700000Y-84449999D02*
X123700000Y-85350001D01*
G75*
G02*
X123450001Y-85600000I-249999J0D01*
G01*
X122799999Y-85600000D01*
G75*
G02*
X122550000Y-85350001I0J249999D01*
G01*
X122550000Y-84449999D01*
G75*
G02*
X122799999Y-84200000I249999J0D01*
G01*
X123450001Y-84200000D01*
G75*
G02*
X123700000Y-84449999I0J-249999D01*
G01*
G37*
%TD*%
%TO.C,R2*%
G36*
G01*
X135650000Y-84449999D02*
X135650000Y-85350001D01*
G75*
G02*
X135400001Y-85600000I-249999J0D01*
G01*
X134749999Y-85600000D01*
G75*
G02*
X134500000Y-85350001I0J249999D01*
G01*
X134500000Y-84449999D01*
G75*
G02*
X134749999Y-84200000I249999J0D01*
G01*
X135400001Y-84200000D01*
G75*
G02*
X135650000Y-84449999I0J-249999D01*
G01*
G37*
G36*
G01*
X137700000Y-84449999D02*
X137700000Y-85350001D01*
G75*
G02*
X137450001Y-85600000I-249999J0D01*
G01*
X136799999Y-85600000D01*
G75*
G02*
X136550000Y-85350001I0J249999D01*
G01*
X136550000Y-84449999D01*
G75*
G02*
X136799999Y-84200000I249999J0D01*
G01*
X137450001Y-84200000D01*
G75*
G02*
X137700000Y-84449999I0J-249999D01*
G01*
G37*
%TD*%
%TO.C,R1*%
G36*
G01*
X149650000Y-84449999D02*
X149650000Y-85350001D01*
G75*
G02*
X149400001Y-85600000I-249999J0D01*
G01*
X148749999Y-85600000D01*
G75*
G02*
X148500000Y-85350001I0J249999D01*
G01*
X148500000Y-84449999D01*
G75*
G02*
X148749999Y-84200000I249999J0D01*
G01*
X149400001Y-84200000D01*
G75*
G02*
X149650000Y-84449999I0J-249999D01*
G01*
G37*
G36*
G01*
X151700000Y-84449999D02*
X151700000Y-85350001D01*
G75*
G02*
X151450001Y-85600000I-249999J0D01*
G01*
X150799999Y-85600000D01*
G75*
G02*
X150550000Y-85350001I0J249999D01*
G01*
X150550000Y-84449999D01*
G75*
G02*
X150799999Y-84200000I249999J0D01*
G01*
X151450001Y-84200000D01*
G75*
G02*
X151700000Y-84449999I0J-249999D01*
G01*
G37*
%TD*%
%TO.C,R0*%
G36*
G01*
X163650000Y-84449999D02*
X163650000Y-85350001D01*
G75*
G02*
X163400001Y-85600000I-249999J0D01*
G01*
X162749999Y-85600000D01*
G75*
G02*
X162500000Y-85350001I0J249999D01*
G01*
X162500000Y-84449999D01*
G75*
G02*
X162749999Y-84200000I249999J0D01*
G01*
X163400001Y-84200000D01*
G75*
G02*
X163650000Y-84449999I0J-249999D01*
G01*
G37*
G36*
G01*
X165700000Y-84449999D02*
X165700000Y-85350001D01*
G75*
G02*
X165450001Y-85600000I-249999J0D01*
G01*
X164799999Y-85600000D01*
G75*
G02*
X164550000Y-85350001I0J249999D01*
G01*
X164550000Y-84449999D01*
G75*
G02*
X164799999Y-84200000I249999J0D01*
G01*
X165450001Y-84200000D01*
G75*
G02*
X165700000Y-84449999I0J-249999D01*
G01*
G37*
%TD*%
%TO.C,C2*%
G36*
G01*
X181112500Y-89950000D02*
X181587500Y-89950000D01*
G75*
G02*
X181825000Y-90187500I0J-237500D01*
G01*
X181825000Y-90762500D01*
G75*
G02*
X181587500Y-91000000I-237500J0D01*
G01*
X181112500Y-91000000D01*
G75*
G02*
X180875000Y-90762500I0J237500D01*
G01*
X180875000Y-90187500D01*
G75*
G02*
X181112500Y-89950000I237500J0D01*
G01*
G37*
G36*
G01*
X181112500Y-88200000D02*
X181587500Y-88200000D01*
G75*
G02*
X181825000Y-88437500I0J-237500D01*
G01*
X181825000Y-89012500D01*
G75*
G02*
X181587500Y-89250000I-237500J0D01*
G01*
X181112500Y-89250000D01*
G75*
G02*
X180875000Y-89012500I0J237500D01*
G01*
X180875000Y-88437500D01*
G75*
G02*
X181112500Y-88200000I237500J0D01*
G01*
G37*
%TD*%
%TO.C,C1*%
G36*
G01*
X181587500Y-95850000D02*
X181112500Y-95850000D01*
G75*
G02*
X180875000Y-95612500I0J237500D01*
G01*
X180875000Y-95037500D01*
G75*
G02*
X181112500Y-94800000I237500J0D01*
G01*
X181587500Y-94800000D01*
G75*
G02*
X181825000Y-95037500I0J-237500D01*
G01*
X181825000Y-95612500D01*
G75*
G02*
X181587500Y-95850000I-237500J0D01*
G01*
G37*
G36*
G01*
X181587500Y-97600000D02*
X181112500Y-97600000D01*
G75*
G02*
X180875000Y-97362500I0J237500D01*
G01*
X180875000Y-96787500D01*
G75*
G02*
X181112500Y-96550000I237500J0D01*
G01*
X181587500Y-96550000D01*
G75*
G02*
X181825000Y-96787500I0J-237500D01*
G01*
X181825000Y-97362500D01*
G75*
G02*
X181587500Y-97600000I-237500J0D01*
G01*
G37*
%TD*%
M02*
