%TF.GenerationSoftware,KiCad,Pcbnew,(5.1.10)-1*%
%TF.CreationDate,2021-07-09T14:19:08-04:00*%
%TF.ProjectId,ControlBoard,436f6e74-726f-46c4-926f-6172642e6b69,rev?*%
%TF.SameCoordinates,Original*%
%TF.FileFunction,Paste,Bot*%
%TF.FilePolarity,Positive*%
%FSLAX46Y46*%
G04 Gerber Fmt 4.6, Leading zero omitted, Abs format (unit mm)*
G04 Created by KiCad (PCBNEW (5.1.10)-1) date 2021-07-09 14:19:08*
%MOMM*%
%LPD*%
G01*
G04 APERTURE LIST*
%ADD10R,1.450000X2.000000*%
%ADD11R,0.800000X1.500000*%
%ADD12R,0.800000X0.900000*%
%ADD13R,0.500000X0.350000*%
%ADD14R,1.100000X0.400000*%
%ADD15R,1.060000X0.650000*%
G04 APERTURE END LIST*
%TO.C,C8*%
G36*
G01*
X127837500Y-103543750D02*
X127837500Y-104056250D01*
G75*
G02*
X127618750Y-104275000I-218750J0D01*
G01*
X127181250Y-104275000D01*
G75*
G02*
X126962500Y-104056250I0J218750D01*
G01*
X126962500Y-103543750D01*
G75*
G02*
X127181250Y-103325000I218750J0D01*
G01*
X127618750Y-103325000D01*
G75*
G02*
X127837500Y-103543750I0J-218750D01*
G01*
G37*
G36*
G01*
X126262500Y-103543750D02*
X126262500Y-104056250D01*
G75*
G02*
X126043750Y-104275000I-218750J0D01*
G01*
X125606250Y-104275000D01*
G75*
G02*
X125387500Y-104056250I0J218750D01*
G01*
X125387500Y-103543750D01*
G75*
G02*
X125606250Y-103325000I218750J0D01*
G01*
X126043750Y-103325000D01*
G75*
G02*
X126262500Y-103543750I0J-218750D01*
G01*
G37*
%TD*%
%TO.C,C9*%
G36*
G01*
X130856250Y-98612500D02*
X130343750Y-98612500D01*
G75*
G02*
X130125000Y-98393750I0J218750D01*
G01*
X130125000Y-97956250D01*
G75*
G02*
X130343750Y-97737500I218750J0D01*
G01*
X130856250Y-97737500D01*
G75*
G02*
X131075000Y-97956250I0J-218750D01*
G01*
X131075000Y-98393750D01*
G75*
G02*
X130856250Y-98612500I-218750J0D01*
G01*
G37*
G36*
G01*
X130856250Y-100187500D02*
X130343750Y-100187500D01*
G75*
G02*
X130125000Y-99968750I0J218750D01*
G01*
X130125000Y-99531250D01*
G75*
G02*
X130343750Y-99312500I218750J0D01*
G01*
X130856250Y-99312500D01*
G75*
G02*
X131075000Y-99531250I0J-218750D01*
G01*
X131075000Y-99968750D01*
G75*
G02*
X130856250Y-100187500I-218750J0D01*
G01*
G37*
%TD*%
%TO.C,C13*%
G36*
G01*
X130343750Y-102462500D02*
X130856250Y-102462500D01*
G75*
G02*
X131075000Y-102681250I0J-218750D01*
G01*
X131075000Y-103118750D01*
G75*
G02*
X130856250Y-103337500I-218750J0D01*
G01*
X130343750Y-103337500D01*
G75*
G02*
X130125000Y-103118750I0J218750D01*
G01*
X130125000Y-102681250D01*
G75*
G02*
X130343750Y-102462500I218750J0D01*
G01*
G37*
G36*
G01*
X130343750Y-100887500D02*
X130856250Y-100887500D01*
G75*
G02*
X131075000Y-101106250I0J-218750D01*
G01*
X131075000Y-101543750D01*
G75*
G02*
X130856250Y-101762500I-218750J0D01*
G01*
X130343750Y-101762500D01*
G75*
G02*
X130125000Y-101543750I0J218750D01*
G01*
X130125000Y-101106250D01*
G75*
G02*
X130343750Y-100887500I218750J0D01*
G01*
G37*
%TD*%
%TO.C,C21*%
G36*
G01*
X152043750Y-97587500D02*
X152556250Y-97587500D01*
G75*
G02*
X152775000Y-97806250I0J-218750D01*
G01*
X152775000Y-98243750D01*
G75*
G02*
X152556250Y-98462500I-218750J0D01*
G01*
X152043750Y-98462500D01*
G75*
G02*
X151825000Y-98243750I0J218750D01*
G01*
X151825000Y-97806250D01*
G75*
G02*
X152043750Y-97587500I218750J0D01*
G01*
G37*
G36*
G01*
X152043750Y-96012500D02*
X152556250Y-96012500D01*
G75*
G02*
X152775000Y-96231250I0J-218750D01*
G01*
X152775000Y-96668750D01*
G75*
G02*
X152556250Y-96887500I-218750J0D01*
G01*
X152043750Y-96887500D01*
G75*
G02*
X151825000Y-96668750I0J218750D01*
G01*
X151825000Y-96231250D01*
G75*
G02*
X152043750Y-96012500I218750J0D01*
G01*
G37*
%TD*%
%TO.C,C23*%
G36*
G01*
X150443750Y-97587500D02*
X150956250Y-97587500D01*
G75*
G02*
X151175000Y-97806250I0J-218750D01*
G01*
X151175000Y-98243750D01*
G75*
G02*
X150956250Y-98462500I-218750J0D01*
G01*
X150443750Y-98462500D01*
G75*
G02*
X150225000Y-98243750I0J218750D01*
G01*
X150225000Y-97806250D01*
G75*
G02*
X150443750Y-97587500I218750J0D01*
G01*
G37*
G36*
G01*
X150443750Y-96012500D02*
X150956250Y-96012500D01*
G75*
G02*
X151175000Y-96231250I0J-218750D01*
G01*
X151175000Y-96668750D01*
G75*
G02*
X150956250Y-96887500I-218750J0D01*
G01*
X150443750Y-96887500D01*
G75*
G02*
X150225000Y-96668750I0J218750D01*
G01*
X150225000Y-96231250D01*
G75*
G02*
X150443750Y-96012500I218750J0D01*
G01*
G37*
%TD*%
%TO.C,C42*%
G36*
G01*
X123050000Y-86443750D02*
X123050000Y-86956250D01*
G75*
G02*
X122831250Y-87175000I-218750J0D01*
G01*
X122393750Y-87175000D01*
G75*
G02*
X122175000Y-86956250I0J218750D01*
G01*
X122175000Y-86443750D01*
G75*
G02*
X122393750Y-86225000I218750J0D01*
G01*
X122831250Y-86225000D01*
G75*
G02*
X123050000Y-86443750I0J-218750D01*
G01*
G37*
G36*
G01*
X124625000Y-86443750D02*
X124625000Y-86956250D01*
G75*
G02*
X124406250Y-87175000I-218750J0D01*
G01*
X123968750Y-87175000D01*
G75*
G02*
X123750000Y-86956250I0J218750D01*
G01*
X123750000Y-86443750D01*
G75*
G02*
X123968750Y-86225000I218750J0D01*
G01*
X124406250Y-86225000D01*
G75*
G02*
X124625000Y-86443750I0J-218750D01*
G01*
G37*
%TD*%
%TO.C,C44*%
G36*
G01*
X126143750Y-81675000D02*
X126656250Y-81675000D01*
G75*
G02*
X126875000Y-81893750I0J-218750D01*
G01*
X126875000Y-82331250D01*
G75*
G02*
X126656250Y-82550000I-218750J0D01*
G01*
X126143750Y-82550000D01*
G75*
G02*
X125925000Y-82331250I0J218750D01*
G01*
X125925000Y-81893750D01*
G75*
G02*
X126143750Y-81675000I218750J0D01*
G01*
G37*
G36*
G01*
X126143750Y-83250000D02*
X126656250Y-83250000D01*
G75*
G02*
X126875000Y-83468750I0J-218750D01*
G01*
X126875000Y-83906250D01*
G75*
G02*
X126656250Y-84125000I-218750J0D01*
G01*
X126143750Y-84125000D01*
G75*
G02*
X125925000Y-83906250I0J218750D01*
G01*
X125925000Y-83468750D01*
G75*
G02*
X126143750Y-83250000I218750J0D01*
G01*
G37*
%TD*%
%TO.C,FB1*%
G36*
G01*
X123050000Y-88043750D02*
X123050000Y-88556250D01*
G75*
G02*
X122831250Y-88775000I-218750J0D01*
G01*
X122393750Y-88775000D01*
G75*
G02*
X122175000Y-88556250I0J218750D01*
G01*
X122175000Y-88043750D01*
G75*
G02*
X122393750Y-87825000I218750J0D01*
G01*
X122831250Y-87825000D01*
G75*
G02*
X123050000Y-88043750I0J-218750D01*
G01*
G37*
G36*
G01*
X124625000Y-88043750D02*
X124625000Y-88556250D01*
G75*
G02*
X124406250Y-88775000I-218750J0D01*
G01*
X123968750Y-88775000D01*
G75*
G02*
X123750000Y-88556250I0J218750D01*
G01*
X123750000Y-88043750D01*
G75*
G02*
X123968750Y-87825000I218750J0D01*
G01*
X124406250Y-87825000D01*
G75*
G02*
X124625000Y-88043750I0J-218750D01*
G01*
G37*
%TD*%
%TO.C,FB2*%
G36*
G01*
X128256250Y-84125000D02*
X127743750Y-84125000D01*
G75*
G02*
X127525000Y-83906250I0J218750D01*
G01*
X127525000Y-83468750D01*
G75*
G02*
X127743750Y-83250000I218750J0D01*
G01*
X128256250Y-83250000D01*
G75*
G02*
X128475000Y-83468750I0J-218750D01*
G01*
X128475000Y-83906250D01*
G75*
G02*
X128256250Y-84125000I-218750J0D01*
G01*
G37*
G36*
G01*
X128256250Y-82550000D02*
X127743750Y-82550000D01*
G75*
G02*
X127525000Y-82331250I0J218750D01*
G01*
X127525000Y-81893750D01*
G75*
G02*
X127743750Y-81675000I218750J0D01*
G01*
X128256250Y-81675000D01*
G75*
G02*
X128475000Y-81893750I0J-218750D01*
G01*
X128475000Y-82331250D01*
G75*
G02*
X128256250Y-82550000I-218750J0D01*
G01*
G37*
%TD*%
D10*
%TO.C,J9*%
X143125000Y-67850000D03*
X156875000Y-67850000D03*
X156875000Y-76150000D03*
X143125000Y-76150000D03*
D11*
X145500000Y-70450000D03*
X146600000Y-70450000D03*
X147700000Y-70450000D03*
X148800000Y-70450000D03*
X149900000Y-70450000D03*
X151000000Y-70450000D03*
X152100000Y-70450000D03*
X153200000Y-70450000D03*
%TD*%
D12*
%TO.C,Q2*%
X156550000Y-96000000D03*
X155600000Y-98000000D03*
X157500000Y-98000000D03*
%TD*%
%TO.C,R12*%
G36*
G01*
X123756250Y-100537500D02*
X123243750Y-100537500D01*
G75*
G02*
X123025000Y-100318750I0J218750D01*
G01*
X123025000Y-99881250D01*
G75*
G02*
X123243750Y-99662500I218750J0D01*
G01*
X123756250Y-99662500D01*
G75*
G02*
X123975000Y-99881250I0J-218750D01*
G01*
X123975000Y-100318750D01*
G75*
G02*
X123756250Y-100537500I-218750J0D01*
G01*
G37*
G36*
G01*
X123756250Y-98962500D02*
X123243750Y-98962500D01*
G75*
G02*
X123025000Y-98743750I0J218750D01*
G01*
X123025000Y-98306250D01*
G75*
G02*
X123243750Y-98087500I218750J0D01*
G01*
X123756250Y-98087500D01*
G75*
G02*
X123975000Y-98306250I0J-218750D01*
G01*
X123975000Y-98743750D01*
G75*
G02*
X123756250Y-98962500I-218750J0D01*
G01*
G37*
%TD*%
%TO.C,R13*%
G36*
G01*
X123243750Y-101312500D02*
X123756250Y-101312500D01*
G75*
G02*
X123975000Y-101531250I0J-218750D01*
G01*
X123975000Y-101968750D01*
G75*
G02*
X123756250Y-102187500I-218750J0D01*
G01*
X123243750Y-102187500D01*
G75*
G02*
X123025000Y-101968750I0J218750D01*
G01*
X123025000Y-101531250D01*
G75*
G02*
X123243750Y-101312500I218750J0D01*
G01*
G37*
G36*
G01*
X123243750Y-102887500D02*
X123756250Y-102887500D01*
G75*
G02*
X123975000Y-103106250I0J-218750D01*
G01*
X123975000Y-103543750D01*
G75*
G02*
X123756250Y-103762500I-218750J0D01*
G01*
X123243750Y-103762500D01*
G75*
G02*
X123025000Y-103543750I0J218750D01*
G01*
X123025000Y-103106250D01*
G75*
G02*
X123243750Y-102887500I218750J0D01*
G01*
G37*
%TD*%
%TO.C,R14*%
G36*
G01*
X115262500Y-98293750D02*
X115262500Y-98806250D01*
G75*
G02*
X115043750Y-99025000I-218750J0D01*
G01*
X114606250Y-99025000D01*
G75*
G02*
X114387500Y-98806250I0J218750D01*
G01*
X114387500Y-98293750D01*
G75*
G02*
X114606250Y-98075000I218750J0D01*
G01*
X115043750Y-98075000D01*
G75*
G02*
X115262500Y-98293750I0J-218750D01*
G01*
G37*
G36*
G01*
X113687500Y-98293750D02*
X113687500Y-98806250D01*
G75*
G02*
X113468750Y-99025000I-218750J0D01*
G01*
X113031250Y-99025000D01*
G75*
G02*
X112812500Y-98806250I0J218750D01*
G01*
X112812500Y-98293750D01*
G75*
G02*
X113031250Y-98075000I218750J0D01*
G01*
X113468750Y-98075000D01*
G75*
G02*
X113687500Y-98293750I0J-218750D01*
G01*
G37*
%TD*%
%TO.C,R15*%
G36*
G01*
X114493750Y-99787500D02*
X115006250Y-99787500D01*
G75*
G02*
X115225000Y-100006250I0J-218750D01*
G01*
X115225000Y-100443750D01*
G75*
G02*
X115006250Y-100662500I-218750J0D01*
G01*
X114493750Y-100662500D01*
G75*
G02*
X114275000Y-100443750I0J218750D01*
G01*
X114275000Y-100006250D01*
G75*
G02*
X114493750Y-99787500I218750J0D01*
G01*
G37*
G36*
G01*
X114493750Y-101362500D02*
X115006250Y-101362500D01*
G75*
G02*
X115225000Y-101581250I0J-218750D01*
G01*
X115225000Y-102018750D01*
G75*
G02*
X115006250Y-102237500I-218750J0D01*
G01*
X114493750Y-102237500D01*
G75*
G02*
X114275000Y-102018750I0J218750D01*
G01*
X114275000Y-101581250D01*
G75*
G02*
X114493750Y-101362500I218750J0D01*
G01*
G37*
%TD*%
%TO.C,R16*%
G36*
G01*
X112743750Y-101362500D02*
X113256250Y-101362500D01*
G75*
G02*
X113475000Y-101581250I0J-218750D01*
G01*
X113475000Y-102018750D01*
G75*
G02*
X113256250Y-102237500I-218750J0D01*
G01*
X112743750Y-102237500D01*
G75*
G02*
X112525000Y-102018750I0J218750D01*
G01*
X112525000Y-101581250D01*
G75*
G02*
X112743750Y-101362500I218750J0D01*
G01*
G37*
G36*
G01*
X112743750Y-99787500D02*
X113256250Y-99787500D01*
G75*
G02*
X113475000Y-100006250I0J-218750D01*
G01*
X113475000Y-100443750D01*
G75*
G02*
X113256250Y-100662500I-218750J0D01*
G01*
X112743750Y-100662500D01*
G75*
G02*
X112525000Y-100443750I0J218750D01*
G01*
X112525000Y-100006250D01*
G75*
G02*
X112743750Y-99787500I218750J0D01*
G01*
G37*
%TD*%
%TO.C,R19*%
G36*
G01*
X144256250Y-84012500D02*
X143743750Y-84012500D01*
G75*
G02*
X143525000Y-83793750I0J218750D01*
G01*
X143525000Y-83356250D01*
G75*
G02*
X143743750Y-83137500I218750J0D01*
G01*
X144256250Y-83137500D01*
G75*
G02*
X144475000Y-83356250I0J-218750D01*
G01*
X144475000Y-83793750D01*
G75*
G02*
X144256250Y-84012500I-218750J0D01*
G01*
G37*
G36*
G01*
X144256250Y-82437500D02*
X143743750Y-82437500D01*
G75*
G02*
X143525000Y-82218750I0J218750D01*
G01*
X143525000Y-81781250D01*
G75*
G02*
X143743750Y-81562500I218750J0D01*
G01*
X144256250Y-81562500D01*
G75*
G02*
X144475000Y-81781250I0J-218750D01*
G01*
X144475000Y-82218750D01*
G75*
G02*
X144256250Y-82437500I-218750J0D01*
G01*
G37*
%TD*%
%TO.C,R20*%
G36*
G01*
X146256250Y-84012500D02*
X145743750Y-84012500D01*
G75*
G02*
X145525000Y-83793750I0J218750D01*
G01*
X145525000Y-83356250D01*
G75*
G02*
X145743750Y-83137500I218750J0D01*
G01*
X146256250Y-83137500D01*
G75*
G02*
X146475000Y-83356250I0J-218750D01*
G01*
X146475000Y-83793750D01*
G75*
G02*
X146256250Y-84012500I-218750J0D01*
G01*
G37*
G36*
G01*
X146256250Y-82437500D02*
X145743750Y-82437500D01*
G75*
G02*
X145525000Y-82218750I0J218750D01*
G01*
X145525000Y-81781250D01*
G75*
G02*
X145743750Y-81562500I218750J0D01*
G01*
X146256250Y-81562500D01*
G75*
G02*
X146475000Y-81781250I0J-218750D01*
G01*
X146475000Y-82218750D01*
G75*
G02*
X146256250Y-82437500I-218750J0D01*
G01*
G37*
%TD*%
%TO.C,R23*%
G36*
G01*
X148256250Y-82437500D02*
X147743750Y-82437500D01*
G75*
G02*
X147525000Y-82218750I0J218750D01*
G01*
X147525000Y-81781250D01*
G75*
G02*
X147743750Y-81562500I218750J0D01*
G01*
X148256250Y-81562500D01*
G75*
G02*
X148475000Y-81781250I0J-218750D01*
G01*
X148475000Y-82218750D01*
G75*
G02*
X148256250Y-82437500I-218750J0D01*
G01*
G37*
G36*
G01*
X148256250Y-84012500D02*
X147743750Y-84012500D01*
G75*
G02*
X147525000Y-83793750I0J218750D01*
G01*
X147525000Y-83356250D01*
G75*
G02*
X147743750Y-83137500I218750J0D01*
G01*
X148256250Y-83137500D01*
G75*
G02*
X148475000Y-83356250I0J-218750D01*
G01*
X148475000Y-83793750D01*
G75*
G02*
X148256250Y-84012500I-218750J0D01*
G01*
G37*
%TD*%
%TO.C,R24*%
G36*
G01*
X123750000Y-79456250D02*
X123750000Y-78943750D01*
G75*
G02*
X123968750Y-78725000I218750J0D01*
G01*
X124406250Y-78725000D01*
G75*
G02*
X124625000Y-78943750I0J-218750D01*
G01*
X124625000Y-79456250D01*
G75*
G02*
X124406250Y-79675000I-218750J0D01*
G01*
X123968750Y-79675000D01*
G75*
G02*
X123750000Y-79456250I0J218750D01*
G01*
G37*
G36*
G01*
X122175000Y-79456250D02*
X122175000Y-78943750D01*
G75*
G02*
X122393750Y-78725000I218750J0D01*
G01*
X122831250Y-78725000D01*
G75*
G02*
X123050000Y-78943750I0J-218750D01*
G01*
X123050000Y-79456250D01*
G75*
G02*
X122831250Y-79675000I-218750J0D01*
G01*
X122393750Y-79675000D01*
G75*
G02*
X122175000Y-79456250I0J218750D01*
G01*
G37*
%TD*%
%TO.C,R25*%
G36*
G01*
X124625000Y-84743750D02*
X124625000Y-85256250D01*
G75*
G02*
X124406250Y-85475000I-218750J0D01*
G01*
X123968750Y-85475000D01*
G75*
G02*
X123750000Y-85256250I0J218750D01*
G01*
X123750000Y-84743750D01*
G75*
G02*
X123968750Y-84525000I218750J0D01*
G01*
X124406250Y-84525000D01*
G75*
G02*
X124625000Y-84743750I0J-218750D01*
G01*
G37*
G36*
G01*
X123050000Y-84743750D02*
X123050000Y-85256250D01*
G75*
G02*
X122831250Y-85475000I-218750J0D01*
G01*
X122393750Y-85475000D01*
G75*
G02*
X122175000Y-85256250I0J218750D01*
G01*
X122175000Y-84743750D01*
G75*
G02*
X122393750Y-84525000I218750J0D01*
G01*
X122831250Y-84525000D01*
G75*
G02*
X123050000Y-84743750I0J-218750D01*
G01*
G37*
%TD*%
%TO.C,R26*%
G36*
G01*
X150256250Y-84012500D02*
X149743750Y-84012500D01*
G75*
G02*
X149525000Y-83793750I0J218750D01*
G01*
X149525000Y-83356250D01*
G75*
G02*
X149743750Y-83137500I218750J0D01*
G01*
X150256250Y-83137500D01*
G75*
G02*
X150475000Y-83356250I0J-218750D01*
G01*
X150475000Y-83793750D01*
G75*
G02*
X150256250Y-84012500I-218750J0D01*
G01*
G37*
G36*
G01*
X150256250Y-82437500D02*
X149743750Y-82437500D01*
G75*
G02*
X149525000Y-82218750I0J218750D01*
G01*
X149525000Y-81781250D01*
G75*
G02*
X149743750Y-81562500I218750J0D01*
G01*
X150256250Y-81562500D01*
G75*
G02*
X150475000Y-81781250I0J-218750D01*
G01*
X150475000Y-82218750D01*
G75*
G02*
X150256250Y-82437500I-218750J0D01*
G01*
G37*
%TD*%
%TO.C,R27*%
G36*
G01*
X152256250Y-84012500D02*
X151743750Y-84012500D01*
G75*
G02*
X151525000Y-83793750I0J218750D01*
G01*
X151525000Y-83356250D01*
G75*
G02*
X151743750Y-83137500I218750J0D01*
G01*
X152256250Y-83137500D01*
G75*
G02*
X152475000Y-83356250I0J-218750D01*
G01*
X152475000Y-83793750D01*
G75*
G02*
X152256250Y-84012500I-218750J0D01*
G01*
G37*
G36*
G01*
X152256250Y-82437500D02*
X151743750Y-82437500D01*
G75*
G02*
X151525000Y-82218750I0J218750D01*
G01*
X151525000Y-81781250D01*
G75*
G02*
X151743750Y-81562500I218750J0D01*
G01*
X152256250Y-81562500D01*
G75*
G02*
X152475000Y-81781250I0J-218750D01*
G01*
X152475000Y-82218750D01*
G75*
G02*
X152256250Y-82437500I-218750J0D01*
G01*
G37*
%TD*%
%TO.C,R28*%
G36*
G01*
X154256250Y-82437500D02*
X153743750Y-82437500D01*
G75*
G02*
X153525000Y-82218750I0J218750D01*
G01*
X153525000Y-81781250D01*
G75*
G02*
X153743750Y-81562500I218750J0D01*
G01*
X154256250Y-81562500D01*
G75*
G02*
X154475000Y-81781250I0J-218750D01*
G01*
X154475000Y-82218750D01*
G75*
G02*
X154256250Y-82437500I-218750J0D01*
G01*
G37*
G36*
G01*
X154256250Y-84012500D02*
X153743750Y-84012500D01*
G75*
G02*
X153525000Y-83793750I0J218750D01*
G01*
X153525000Y-83356250D01*
G75*
G02*
X153743750Y-83137500I218750J0D01*
G01*
X154256250Y-83137500D01*
G75*
G02*
X154475000Y-83356250I0J-218750D01*
G01*
X154475000Y-83793750D01*
G75*
G02*
X154256250Y-84012500I-218750J0D01*
G01*
G37*
%TD*%
%TO.C,R32*%
G36*
G01*
X159093750Y-97550000D02*
X159606250Y-97550000D01*
G75*
G02*
X159825000Y-97768750I0J-218750D01*
G01*
X159825000Y-98206250D01*
G75*
G02*
X159606250Y-98425000I-218750J0D01*
G01*
X159093750Y-98425000D01*
G75*
G02*
X158875000Y-98206250I0J218750D01*
G01*
X158875000Y-97768750D01*
G75*
G02*
X159093750Y-97550000I218750J0D01*
G01*
G37*
G36*
G01*
X159093750Y-95975000D02*
X159606250Y-95975000D01*
G75*
G02*
X159825000Y-96193750I0J-218750D01*
G01*
X159825000Y-96631250D01*
G75*
G02*
X159606250Y-96850000I-218750J0D01*
G01*
X159093750Y-96850000D01*
G75*
G02*
X158875000Y-96631250I0J218750D01*
G01*
X158875000Y-96193750D01*
G75*
G02*
X159093750Y-95975000I218750J0D01*
G01*
G37*
%TD*%
%TO.C,R33*%
G36*
G01*
X158175000Y-93893750D02*
X158175000Y-94406250D01*
G75*
G02*
X157956250Y-94625000I-218750J0D01*
G01*
X157518750Y-94625000D01*
G75*
G02*
X157300000Y-94406250I0J218750D01*
G01*
X157300000Y-93893750D01*
G75*
G02*
X157518750Y-93675000I218750J0D01*
G01*
X157956250Y-93675000D01*
G75*
G02*
X158175000Y-93893750I0J-218750D01*
G01*
G37*
G36*
G01*
X156600000Y-93893750D02*
X156600000Y-94406250D01*
G75*
G02*
X156381250Y-94625000I-218750J0D01*
G01*
X155943750Y-94625000D01*
G75*
G02*
X155725000Y-94406250I0J218750D01*
G01*
X155725000Y-93893750D01*
G75*
G02*
X155943750Y-93675000I218750J0D01*
G01*
X156381250Y-93675000D01*
G75*
G02*
X156600000Y-93893750I0J-218750D01*
G01*
G37*
%TD*%
%TO.C,R34*%
G36*
G01*
X153693750Y-97562500D02*
X154206250Y-97562500D01*
G75*
G02*
X154425000Y-97781250I0J-218750D01*
G01*
X154425000Y-98218750D01*
G75*
G02*
X154206250Y-98437500I-218750J0D01*
G01*
X153693750Y-98437500D01*
G75*
G02*
X153475000Y-98218750I0J218750D01*
G01*
X153475000Y-97781250D01*
G75*
G02*
X153693750Y-97562500I218750J0D01*
G01*
G37*
G36*
G01*
X153693750Y-95987500D02*
X154206250Y-95987500D01*
G75*
G02*
X154425000Y-96206250I0J-218750D01*
G01*
X154425000Y-96643750D01*
G75*
G02*
X154206250Y-96862500I-218750J0D01*
G01*
X153693750Y-96862500D01*
G75*
G02*
X153475000Y-96643750I0J218750D01*
G01*
X153475000Y-96206250D01*
G75*
G02*
X153693750Y-95987500I218750J0D01*
G01*
G37*
%TD*%
%TO.C,U4*%
G36*
G01*
X126500000Y-99025000D02*
X126600000Y-99025000D01*
G75*
G02*
X126650000Y-99075000I0J-50000D01*
G01*
X126650000Y-99525000D01*
G75*
G02*
X126600000Y-99575000I-50000J0D01*
G01*
X126500000Y-99575000D01*
G75*
G02*
X126450000Y-99525000I0J50000D01*
G01*
X126450000Y-99075000D01*
G75*
G02*
X126500000Y-99025000I50000J0D01*
G01*
G37*
G36*
G01*
X126900000Y-99025000D02*
X127000000Y-99025000D01*
G75*
G02*
X127050000Y-99075000I0J-50000D01*
G01*
X127050000Y-99525000D01*
G75*
G02*
X127000000Y-99575000I-50000J0D01*
G01*
X126900000Y-99575000D01*
G75*
G02*
X126850000Y-99525000I0J50000D01*
G01*
X126850000Y-99075000D01*
G75*
G02*
X126900000Y-99025000I50000J0D01*
G01*
G37*
G36*
G01*
X127300000Y-99025000D02*
X127400000Y-99025000D01*
G75*
G02*
X127450000Y-99075000I0J-50000D01*
G01*
X127450000Y-99525000D01*
G75*
G02*
X127400000Y-99575000I-50000J0D01*
G01*
X127300000Y-99575000D01*
G75*
G02*
X127250000Y-99525000I0J50000D01*
G01*
X127250000Y-99075000D01*
G75*
G02*
X127300000Y-99025000I50000J0D01*
G01*
G37*
G36*
G01*
X127700000Y-99025000D02*
X127800000Y-99025000D01*
G75*
G02*
X127850000Y-99075000I0J-50000D01*
G01*
X127850000Y-99525000D01*
G75*
G02*
X127800000Y-99575000I-50000J0D01*
G01*
X127700000Y-99575000D01*
G75*
G02*
X127650000Y-99525000I0J50000D01*
G01*
X127650000Y-99075000D01*
G75*
G02*
X127700000Y-99025000I50000J0D01*
G01*
G37*
G36*
G01*
X128100000Y-99025000D02*
X128200000Y-99025000D01*
G75*
G02*
X128250000Y-99075000I0J-50000D01*
G01*
X128250000Y-99525000D01*
G75*
G02*
X128200000Y-99575000I-50000J0D01*
G01*
X128100000Y-99575000D01*
G75*
G02*
X128050000Y-99525000I0J50000D01*
G01*
X128050000Y-99075000D01*
G75*
G02*
X128100000Y-99025000I50000J0D01*
G01*
G37*
G36*
G01*
X128500000Y-99025000D02*
X128600000Y-99025000D01*
G75*
G02*
X128650000Y-99075000I0J-50000D01*
G01*
X128650000Y-99525000D01*
G75*
G02*
X128600000Y-99575000I-50000J0D01*
G01*
X128500000Y-99575000D01*
G75*
G02*
X128450000Y-99525000I0J50000D01*
G01*
X128450000Y-99075000D01*
G75*
G02*
X128500000Y-99025000I50000J0D01*
G01*
G37*
G36*
G01*
X129325000Y-99750000D02*
X129325000Y-99850000D01*
G75*
G02*
X129275000Y-99900000I-50000J0D01*
G01*
X128825000Y-99900000D01*
G75*
G02*
X128775000Y-99850000I0J50000D01*
G01*
X128775000Y-99750000D01*
G75*
G02*
X128825000Y-99700000I50000J0D01*
G01*
X129275000Y-99700000D01*
G75*
G02*
X129325000Y-99750000I0J-50000D01*
G01*
G37*
G36*
G01*
X129325000Y-100150000D02*
X129325000Y-100250000D01*
G75*
G02*
X129275000Y-100300000I-50000J0D01*
G01*
X128825000Y-100300000D01*
G75*
G02*
X128775000Y-100250000I0J50000D01*
G01*
X128775000Y-100150000D01*
G75*
G02*
X128825000Y-100100000I50000J0D01*
G01*
X129275000Y-100100000D01*
G75*
G02*
X129325000Y-100150000I0J-50000D01*
G01*
G37*
G36*
G01*
X129325000Y-100550000D02*
X129325000Y-100650000D01*
G75*
G02*
X129275000Y-100700000I-50000J0D01*
G01*
X128825000Y-100700000D01*
G75*
G02*
X128775000Y-100650000I0J50000D01*
G01*
X128775000Y-100550000D01*
G75*
G02*
X128825000Y-100500000I50000J0D01*
G01*
X129275000Y-100500000D01*
G75*
G02*
X129325000Y-100550000I0J-50000D01*
G01*
G37*
G36*
G01*
X129325000Y-100950000D02*
X129325000Y-101050000D01*
G75*
G02*
X129275000Y-101100000I-50000J0D01*
G01*
X128825000Y-101100000D01*
G75*
G02*
X128775000Y-101050000I0J50000D01*
G01*
X128775000Y-100950000D01*
G75*
G02*
X128825000Y-100900000I50000J0D01*
G01*
X129275000Y-100900000D01*
G75*
G02*
X129325000Y-100950000I0J-50000D01*
G01*
G37*
G36*
G01*
X129325000Y-101350000D02*
X129325000Y-101450000D01*
G75*
G02*
X129275000Y-101500000I-50000J0D01*
G01*
X128825000Y-101500000D01*
G75*
G02*
X128775000Y-101450000I0J50000D01*
G01*
X128775000Y-101350000D01*
G75*
G02*
X128825000Y-101300000I50000J0D01*
G01*
X129275000Y-101300000D01*
G75*
G02*
X129325000Y-101350000I0J-50000D01*
G01*
G37*
G36*
G01*
X129325000Y-101750000D02*
X129325000Y-101850000D01*
G75*
G02*
X129275000Y-101900000I-50000J0D01*
G01*
X128825000Y-101900000D01*
G75*
G02*
X128775000Y-101850000I0J50000D01*
G01*
X128775000Y-101750000D01*
G75*
G02*
X128825000Y-101700000I50000J0D01*
G01*
X129275000Y-101700000D01*
G75*
G02*
X129325000Y-101750000I0J-50000D01*
G01*
G37*
G36*
G01*
X128500000Y-102025000D02*
X128600000Y-102025000D01*
G75*
G02*
X128650000Y-102075000I0J-50000D01*
G01*
X128650000Y-102525000D01*
G75*
G02*
X128600000Y-102575000I-50000J0D01*
G01*
X128500000Y-102575000D01*
G75*
G02*
X128450000Y-102525000I0J50000D01*
G01*
X128450000Y-102075000D01*
G75*
G02*
X128500000Y-102025000I50000J0D01*
G01*
G37*
G36*
G01*
X128100000Y-102025000D02*
X128200000Y-102025000D01*
G75*
G02*
X128250000Y-102075000I0J-50000D01*
G01*
X128250000Y-102525000D01*
G75*
G02*
X128200000Y-102575000I-50000J0D01*
G01*
X128100000Y-102575000D01*
G75*
G02*
X128050000Y-102525000I0J50000D01*
G01*
X128050000Y-102075000D01*
G75*
G02*
X128100000Y-102025000I50000J0D01*
G01*
G37*
G36*
G01*
X127700000Y-102025000D02*
X127800000Y-102025000D01*
G75*
G02*
X127850000Y-102075000I0J-50000D01*
G01*
X127850000Y-102525000D01*
G75*
G02*
X127800000Y-102575000I-50000J0D01*
G01*
X127700000Y-102575000D01*
G75*
G02*
X127650000Y-102525000I0J50000D01*
G01*
X127650000Y-102075000D01*
G75*
G02*
X127700000Y-102025000I50000J0D01*
G01*
G37*
G36*
G01*
X127300000Y-102025000D02*
X127400000Y-102025000D01*
G75*
G02*
X127450000Y-102075000I0J-50000D01*
G01*
X127450000Y-102525000D01*
G75*
G02*
X127400000Y-102575000I-50000J0D01*
G01*
X127300000Y-102575000D01*
G75*
G02*
X127250000Y-102525000I0J50000D01*
G01*
X127250000Y-102075000D01*
G75*
G02*
X127300000Y-102025000I50000J0D01*
G01*
G37*
G36*
G01*
X126900000Y-102025000D02*
X127000000Y-102025000D01*
G75*
G02*
X127050000Y-102075000I0J-50000D01*
G01*
X127050000Y-102525000D01*
G75*
G02*
X127000000Y-102575000I-50000J0D01*
G01*
X126900000Y-102575000D01*
G75*
G02*
X126850000Y-102525000I0J50000D01*
G01*
X126850000Y-102075000D01*
G75*
G02*
X126900000Y-102025000I50000J0D01*
G01*
G37*
G36*
G01*
X126500000Y-102025000D02*
X126600000Y-102025000D01*
G75*
G02*
X126650000Y-102075000I0J-50000D01*
G01*
X126650000Y-102525000D01*
G75*
G02*
X126600000Y-102575000I-50000J0D01*
G01*
X126500000Y-102575000D01*
G75*
G02*
X126450000Y-102525000I0J50000D01*
G01*
X126450000Y-102075000D01*
G75*
G02*
X126500000Y-102025000I50000J0D01*
G01*
G37*
G36*
G01*
X126325000Y-101750000D02*
X126325000Y-101850000D01*
G75*
G02*
X126275000Y-101900000I-50000J0D01*
G01*
X125825000Y-101900000D01*
G75*
G02*
X125775000Y-101850000I0J50000D01*
G01*
X125775000Y-101750000D01*
G75*
G02*
X125825000Y-101700000I50000J0D01*
G01*
X126275000Y-101700000D01*
G75*
G02*
X126325000Y-101750000I0J-50000D01*
G01*
G37*
G36*
G01*
X126325000Y-101350000D02*
X126325000Y-101450000D01*
G75*
G02*
X126275000Y-101500000I-50000J0D01*
G01*
X125825000Y-101500000D01*
G75*
G02*
X125775000Y-101450000I0J50000D01*
G01*
X125775000Y-101350000D01*
G75*
G02*
X125825000Y-101300000I50000J0D01*
G01*
X126275000Y-101300000D01*
G75*
G02*
X126325000Y-101350000I0J-50000D01*
G01*
G37*
G36*
G01*
X126325000Y-100950000D02*
X126325000Y-101050000D01*
G75*
G02*
X126275000Y-101100000I-50000J0D01*
G01*
X125825000Y-101100000D01*
G75*
G02*
X125775000Y-101050000I0J50000D01*
G01*
X125775000Y-100950000D01*
G75*
G02*
X125825000Y-100900000I50000J0D01*
G01*
X126275000Y-100900000D01*
G75*
G02*
X126325000Y-100950000I0J-50000D01*
G01*
G37*
G36*
G01*
X126325000Y-100550000D02*
X126325000Y-100650000D01*
G75*
G02*
X126275000Y-100700000I-50000J0D01*
G01*
X125825000Y-100700000D01*
G75*
G02*
X125775000Y-100650000I0J50000D01*
G01*
X125775000Y-100550000D01*
G75*
G02*
X125825000Y-100500000I50000J0D01*
G01*
X126275000Y-100500000D01*
G75*
G02*
X126325000Y-100550000I0J-50000D01*
G01*
G37*
G36*
G01*
X126325000Y-100150000D02*
X126325000Y-100250000D01*
G75*
G02*
X126275000Y-100300000I-50000J0D01*
G01*
X125825000Y-100300000D01*
G75*
G02*
X125775000Y-100250000I0J50000D01*
G01*
X125775000Y-100150000D01*
G75*
G02*
X125825000Y-100100000I50000J0D01*
G01*
X126275000Y-100100000D01*
G75*
G02*
X126325000Y-100150000I0J-50000D01*
G01*
G37*
G36*
G01*
X126325000Y-99750000D02*
X126325000Y-99850000D01*
G75*
G02*
X126275000Y-99900000I-50000J0D01*
G01*
X125825000Y-99900000D01*
G75*
G02*
X125775000Y-99850000I0J50000D01*
G01*
X125775000Y-99750000D01*
G75*
G02*
X125825000Y-99700000I50000J0D01*
G01*
X126275000Y-99700000D01*
G75*
G02*
X126325000Y-99750000I0J-50000D01*
G01*
G37*
%TD*%
D13*
%TO.C,U8*%
X146875000Y-98225000D03*
X146875000Y-97575000D03*
X146875000Y-96925000D03*
X146875000Y-96275000D03*
X148925000Y-96275000D03*
X148925000Y-96925000D03*
X148925000Y-97575000D03*
X148925000Y-98225000D03*
%TD*%
D14*
%TO.C,U10*%
X116550000Y-100025000D03*
X116550000Y-100675000D03*
X116550000Y-101325000D03*
X116550000Y-101975000D03*
X120850000Y-101975000D03*
X120850000Y-101325000D03*
X120850000Y-100675000D03*
X120850000Y-100025000D03*
%TD*%
D15*
%TO.C,U13*%
X122400000Y-83050000D03*
X122400000Y-82100000D03*
X122400000Y-81150000D03*
X124600000Y-81150000D03*
X124600000Y-83050000D03*
X124600000Y-82100000D03*
%TD*%
M02*
