M48
; DRILL file {KiCad (5.1.10)-1} date 07/09/21 14:19:01
; FORMAT={-:-/ absolute / inch / decimal}
; #@! TF.CreationDate,2021-07-09T14:19:01-04:00
; #@! TF.GenerationSoftware,Kicad,Pcbnew,(5.1.10)-1
FMAT,2
INCH
T1C0.0079
T2C0.0157
T3C0.0197
T4C0.0236
T5C0.0315
T6C0.0394
T7C0.0472
T8C0.1260
T9C0.0256
T10C0.0669
%
G90
G05
T1
X6.4484Y-3.9295
X6.4484Y-3.9689
X6.4878Y-3.9295
X6.4878Y-3.9689
X6.5272Y-3.9295
X6.5272Y-3.9689
X6.9882Y-3.1437
X6.9882Y-3.1831
X6.9882Y-3.2224
X7.0276Y-3.1437
X7.0276Y-3.1831
X7.0276Y-3.2224
T2
X4.4803Y-3.9213
X4.6004Y-3.2343
X4.687Y-3.6339
X4.8031Y-3.1575
X4.8078Y-3.3075
X4.8091Y-3.8957
X4.8189Y-3.1949
X4.8189Y-3.2697
X4.8622Y-4.1083
X4.9055Y-3.2323
X4.9114Y-3.8917
X4.9135Y-2.6851
X4.9291Y-3.5394
X4.9291Y-3.5906
X4.9843Y-2.6693
X5.0669Y-3.4508
X5.0669Y-4.0866
X5.0886Y-3.3091
X5.128Y-2.4587
X5.1378Y-3.5709
X5.1476Y-2.7303
X5.1732Y-3.4449
X5.185Y-4.1102
X5.1988Y-3.8976
X5.2283Y-3.9409
X5.2343Y-3.3327
X5.25Y-4.063
X5.2736Y-2.4587
X5.2795Y-3.3327
X5.3189Y-3.3327
X5.3268Y-3.7874
X5.3563Y-3.3327
X5.3661Y-3.189
X5.3809Y-2.8967
X5.3898Y-3.3406
X5.3917Y-2.6988
X5.4016Y-3.7677
X5.4227Y-4.467
X5.4587Y-3.8701
X5.4606Y-3.3159
X5.4941Y-2.8622
X5.4941Y-2.9252
X5.4961Y-2.9783
X5.5079Y-4.4803
X5.5118Y-2.5925
X5.5276Y-3.5551
X5.5276Y-4.5974
X5.6083Y-3.8701
X5.6142Y-3.1161
X5.6161Y-3.2756
X5.6181Y-3.3976
X5.626Y-3.062
X5.6575Y-4.3976
X5.6713Y-3.3366
X5.6791Y-3.6752
X5.6811Y-3.7697
X5.6969Y-2.628
X5.7067Y-3.2913
X5.7126Y-3.8583
X5.7185Y-3.6752
X5.7382Y-3.939
X5.748Y-3.8406
X5.7578Y-3.6774
X5.7638Y-4.5453
X5.7717Y-3.3543
X5.7835Y-3.7559
X5.7972Y-3.5157
X5.815Y-2.7185
X5.8465Y-3.3937
X5.8898Y-4.0472
X5.8957Y-3.7913
X5.8976Y-3.9764
X5.9016Y-2.7185
X5.9429Y-3.689
X5.9843Y-3.689
X6.0236Y-3.2894
X6.0472Y-3.9439
X6.0512Y-3.7539
X6.0669Y-4.4547
X6.0748Y-3.3563
X6.0768Y-2.8425
X6.0965Y-2.9665
X6.1024Y-4.3622
X6.1083Y-3.9803
X6.1181Y-3.5512
X6.1201Y-3.7559
X6.124Y-2.5394
X6.1299Y-4.4764
X6.1378Y-4.0295
X6.1437Y-4.3622
X6.1476Y-2.9272
X6.1496Y-3.5138
X6.1604Y-4.6024
X6.189Y-2.9213
X6.189Y-3.0728
X6.189Y-3.1575
X6.1909Y-2.813
X6.1949Y-2.8681
X6.1949Y-3.9528
X6.2677Y-4.0886
X6.3012Y-2.5807
X6.311Y-3.3799
X6.311Y-3.4311
X6.3169Y-3.315
X6.3209Y-3.2008
X6.3209Y-3.2618
X6.3858Y-3.7736
X6.3917Y-3.811
X6.3957Y-4.4508
X6.3996Y-4.5039
X6.4311Y-3.1417
X6.435Y-2.6122
X6.5433Y-2.4291
X6.626Y-2.5492
X6.6437Y-4.6457
X6.6456Y-3.8898
X6.6673Y-3.9134
X6.7067Y-3.498
X6.7972Y-3.1811
X6.8012Y-3.8819
X6.8031Y-3.8484
X6.8504Y-3.1319
X6.878Y-3.2953
X6.8957Y-4.6093
X6.9508Y-3.8484
X6.9567Y-3.2795
X7.0039Y-3.6083
X7.0039Y-3.6457
X7.0039Y-3.6831
X7.063Y-3.6083
X7.063Y-3.6457
X7.063Y-3.6831
X7.0925Y-3.9213
X7.0935Y-3.3888
X7.122Y-3.6083
X7.122Y-3.6457
X7.122Y-3.6831
X7.1299Y-3.3878
X7.185Y-3.374
X7.2441Y-3.2756
X7.2441Y-3.3169
X7.2441Y-3.8622
X7.3819Y-4.4902
X7.3839Y-3.8612
X7.4291Y-3.2756
X7.5039Y-3.9508
T3
X4.748Y-2.874
X4.7757Y-2.8072
X4.7757Y-2.9408
X4.8425Y-2.7795
X4.8425Y-2.9685
X4.9093Y-2.8072
X4.9093Y-2.9408
X4.937Y-2.874
X5.811Y-4.4882
X5.8387Y-4.4214
X5.8387Y-4.555
X5.9055Y-4.3937
X5.9055Y-4.5827
X5.9723Y-4.4214
X5.9723Y-4.555
X6.0Y-4.4882
X6.874Y-2.874
X6.9017Y-2.8072
X6.9017Y-2.9408
X6.9685Y-2.7795
X6.9685Y-2.9685
X7.0353Y-2.8072
X7.0353Y-2.9408
X7.063Y-2.874
T5
X6.7087Y-3.1969
X6.7087Y-3.7953
T6
X4.3882Y-3.5433
X4.3882Y-3.6433
X4.3882Y-3.7433
X4.4882Y-3.5433
X4.4882Y-3.6433
X4.4882Y-3.7433
X7.3228Y-3.5433
X7.3228Y-3.6433
X7.3228Y-3.7433
X7.4228Y-3.5433
X7.4228Y-3.6433
X7.4228Y-3.7433
T7
X4.5079Y-4.2205
X4.5079Y-4.3189
X4.6063Y-4.2205
X4.6063Y-4.3189
X4.7047Y-4.2205
X4.7047Y-4.3189
X4.8031Y-4.2205
X4.8031Y-4.3189
X5.0197Y-4.2205
X5.0197Y-4.3189
X5.1181Y-4.2205
X5.1181Y-4.3189
X5.2165Y-4.2205
X5.2165Y-4.3189
X5.315Y-4.2205
X5.315Y-4.3189
X6.4961Y-4.2205
X6.4961Y-4.3189
X6.5945Y-4.2205
X6.5945Y-4.3189
X6.6929Y-4.2205
X6.6929Y-4.3189
X6.7913Y-4.2205
X6.7913Y-4.3189
X7.0079Y-4.2205
X7.0079Y-4.3189
X7.1063Y-4.2205
X7.1063Y-4.3189
X7.2047Y-4.2205
X7.2047Y-4.3189
X7.3031Y-4.2205
X7.3031Y-4.3189
T8
X4.8425Y-2.874
X5.9055Y-4.4882
X6.9685Y-2.874
T9
X4.689Y-3.1165
X4.689Y-3.3441
T10
X4.5079Y-4.6016
X4.8031Y-4.6016
X5.0197Y-4.6016
X5.315Y-4.6016
X6.4961Y-4.6016
X6.7913Y-4.6016
X7.0079Y-4.6016
X7.3031Y-4.6016
T4
G00X4.5571Y-3.0602
M15
G01X4.5335Y-3.0602
M16
G05
G00X4.5571Y-3.4004
M15
G01X4.5335Y-3.4004
M16
G05
G00X4.7315Y-3.0602
M15
G01X4.6882Y-3.0602
M16
G05
G00X4.7315Y-3.4004
M15
G01X4.6882Y-3.4004
M16
G05
T0
M30
