%TF.GenerationSoftware,KiCad,Pcbnew,(5.1.10)-1*%
%TF.CreationDate,2021-07-09T14:19:08-04:00*%
%TF.ProjectId,ControlBoard,436f6e74-726f-46c4-926f-6172642e6b69,rev?*%
%TF.SameCoordinates,Original*%
%TF.FileFunction,Legend,Top*%
%TF.FilePolarity,Positive*%
%FSLAX46Y46*%
G04 Gerber Fmt 4.6, Leading zero omitted, Abs format (unit mm)*
G04 Created by KiCad (PCBNEW (5.1.10)-1) date 2021-07-09 14:19:08*
%MOMM*%
%LPD*%
G01*
G04 APERTURE LIST*
%ADD10C,0.150000*%
%ADD11C,0.120000*%
%ADD12C,0.127000*%
%ADD13C,0.200000*%
%ADD14C,0.050000*%
%ADD15C,0.100000*%
%ADD16C,0.015000*%
%ADD17C,0.060800*%
G04 APERTURE END LIST*
D10*
X131542857Y-66395238D02*
X131580952Y-66280952D01*
X131619047Y-66242857D01*
X131695238Y-66204761D01*
X131809523Y-66204761D01*
X131885714Y-66242857D01*
X131923809Y-66280952D01*
X131961904Y-66357142D01*
X131961904Y-66661904D01*
X131161904Y-66661904D01*
X131161904Y-66395238D01*
X131200000Y-66319047D01*
X131238095Y-66280952D01*
X131314285Y-66242857D01*
X131390476Y-66242857D01*
X131466666Y-66280952D01*
X131504761Y-66319047D01*
X131542857Y-66395238D01*
X131542857Y-66661904D01*
X131961904Y-65747619D02*
X131923809Y-65823809D01*
X131885714Y-65861904D01*
X131809523Y-65900000D01*
X131580952Y-65900000D01*
X131504761Y-65861904D01*
X131466666Y-65823809D01*
X131428571Y-65747619D01*
X131428571Y-65633333D01*
X131466666Y-65557142D01*
X131504761Y-65519047D01*
X131580952Y-65480952D01*
X131809523Y-65480952D01*
X131885714Y-65519047D01*
X131923809Y-65557142D01*
X131961904Y-65633333D01*
X131961904Y-65747619D01*
X131961904Y-65023809D02*
X131923809Y-65100000D01*
X131885714Y-65138095D01*
X131809523Y-65176190D01*
X131580952Y-65176190D01*
X131504761Y-65138095D01*
X131466666Y-65100000D01*
X131428571Y-65023809D01*
X131428571Y-64909523D01*
X131466666Y-64833333D01*
X131504761Y-64795238D01*
X131580952Y-64757142D01*
X131809523Y-64757142D01*
X131885714Y-64795238D01*
X131923809Y-64833333D01*
X131961904Y-64909523D01*
X131961904Y-65023809D01*
X131428571Y-64528571D02*
X131428571Y-64223809D01*
X131161904Y-64414285D02*
X131847619Y-64414285D01*
X131923809Y-64376190D01*
X131961904Y-64300000D01*
X131961904Y-64223809D01*
X126961904Y-66490476D02*
X126580952Y-66757142D01*
X126961904Y-66947619D02*
X126161904Y-66947619D01*
X126161904Y-66642857D01*
X126200000Y-66566666D01*
X126238095Y-66528571D01*
X126314285Y-66490476D01*
X126428571Y-66490476D01*
X126504761Y-66528571D01*
X126542857Y-66566666D01*
X126580952Y-66642857D01*
X126580952Y-66947619D01*
X126923809Y-65842857D02*
X126961904Y-65919047D01*
X126961904Y-66071428D01*
X126923809Y-66147619D01*
X126847619Y-66185714D01*
X126542857Y-66185714D01*
X126466666Y-66147619D01*
X126428571Y-66071428D01*
X126428571Y-65919047D01*
X126466666Y-65842857D01*
X126542857Y-65804761D01*
X126619047Y-65804761D01*
X126695238Y-66185714D01*
X126923809Y-65500000D02*
X126961904Y-65423809D01*
X126961904Y-65271428D01*
X126923809Y-65195238D01*
X126847619Y-65157142D01*
X126809523Y-65157142D01*
X126733333Y-65195238D01*
X126695238Y-65271428D01*
X126695238Y-65385714D01*
X126657142Y-65461904D01*
X126580952Y-65500000D01*
X126542857Y-65500000D01*
X126466666Y-65461904D01*
X126428571Y-65385714D01*
X126428571Y-65271428D01*
X126466666Y-65195238D01*
X126923809Y-64509523D02*
X126961904Y-64585714D01*
X126961904Y-64738095D01*
X126923809Y-64814285D01*
X126847619Y-64852380D01*
X126542857Y-64852380D01*
X126466666Y-64814285D01*
X126428571Y-64738095D01*
X126428571Y-64585714D01*
X126466666Y-64509523D01*
X126542857Y-64471428D01*
X126619047Y-64471428D01*
X126695238Y-64852380D01*
X126428571Y-64242857D02*
X126428571Y-63938095D01*
X126161904Y-64128571D02*
X126847619Y-64128571D01*
X126923809Y-64090476D01*
X126961904Y-64014285D01*
X126961904Y-63938095D01*
X109004761Y-94942857D02*
X109052380Y-94800000D01*
X109052380Y-94561904D01*
X109004761Y-94466666D01*
X108957142Y-94419047D01*
X108861904Y-94371428D01*
X108766666Y-94371428D01*
X108671428Y-94419047D01*
X108623809Y-94466666D01*
X108576190Y-94561904D01*
X108528571Y-94752380D01*
X108480952Y-94847619D01*
X108433333Y-94895238D01*
X108338095Y-94942857D01*
X108242857Y-94942857D01*
X108147619Y-94895238D01*
X108100000Y-94847619D01*
X108052380Y-94752380D01*
X108052380Y-94514285D01*
X108100000Y-94371428D01*
X109052380Y-93942857D02*
X108385714Y-93942857D01*
X108052380Y-93942857D02*
X108100000Y-93990476D01*
X108147619Y-93942857D01*
X108100000Y-93895238D01*
X108052380Y-93942857D01*
X108147619Y-93942857D01*
X108385714Y-93038095D02*
X109195238Y-93038095D01*
X109290476Y-93085714D01*
X109338095Y-93133333D01*
X109385714Y-93228571D01*
X109385714Y-93371428D01*
X109338095Y-93466666D01*
X109004761Y-93038095D02*
X109052380Y-93133333D01*
X109052380Y-93323809D01*
X109004761Y-93419047D01*
X108957142Y-93466666D01*
X108861904Y-93514285D01*
X108576190Y-93514285D01*
X108480952Y-93466666D01*
X108433333Y-93419047D01*
X108385714Y-93323809D01*
X108385714Y-93133333D01*
X108433333Y-93038095D01*
X108385714Y-92561904D02*
X109052380Y-92561904D01*
X108480952Y-92561904D02*
X108433333Y-92514285D01*
X108385714Y-92419047D01*
X108385714Y-92276190D01*
X108433333Y-92180952D01*
X108528571Y-92133333D01*
X109052380Y-92133333D01*
X109052380Y-91228571D02*
X108528571Y-91228571D01*
X108433333Y-91276190D01*
X108385714Y-91371428D01*
X108385714Y-91561904D01*
X108433333Y-91657142D01*
X109004761Y-91228571D02*
X109052380Y-91323809D01*
X109052380Y-91561904D01*
X109004761Y-91657142D01*
X108909523Y-91704761D01*
X108814285Y-91704761D01*
X108719047Y-91657142D01*
X108671428Y-91561904D01*
X108671428Y-91323809D01*
X108623809Y-91228571D01*
X109052380Y-90609523D02*
X109004761Y-90704761D01*
X108909523Y-90752380D01*
X108052380Y-90752380D01*
X190847619Y-91123809D02*
X191847619Y-91123809D01*
X191847619Y-91504761D01*
X191800000Y-91600000D01*
X191752380Y-91647619D01*
X191657142Y-91695238D01*
X191514285Y-91695238D01*
X191419047Y-91647619D01*
X191371428Y-91600000D01*
X191323809Y-91504761D01*
X191323809Y-91123809D01*
X190847619Y-92266666D02*
X190895238Y-92171428D01*
X190942857Y-92123809D01*
X191038095Y-92076190D01*
X191323809Y-92076190D01*
X191419047Y-92123809D01*
X191466666Y-92171428D01*
X191514285Y-92266666D01*
X191514285Y-92409523D01*
X191466666Y-92504761D01*
X191419047Y-92552380D01*
X191323809Y-92600000D01*
X191038095Y-92600000D01*
X190942857Y-92552380D01*
X190895238Y-92504761D01*
X190847619Y-92409523D01*
X190847619Y-92266666D01*
X191514285Y-92933333D02*
X190847619Y-93123809D01*
X191323809Y-93314285D01*
X190847619Y-93504761D01*
X191514285Y-93695238D01*
X190895238Y-94457142D02*
X190847619Y-94361904D01*
X190847619Y-94171428D01*
X190895238Y-94076190D01*
X190990476Y-94028571D01*
X191371428Y-94028571D01*
X191466666Y-94076190D01*
X191514285Y-94171428D01*
X191514285Y-94361904D01*
X191466666Y-94457142D01*
X191371428Y-94504761D01*
X191276190Y-94504761D01*
X191180952Y-94028571D01*
X190847619Y-94933333D02*
X191514285Y-94933333D01*
X191323809Y-94933333D02*
X191419047Y-94980952D01*
X191466666Y-95028571D01*
X191514285Y-95123809D01*
X191514285Y-95219047D01*
D11*
%TO.C,R29*%
X154910000Y-115362779D02*
X154910000Y-115037221D01*
X153890000Y-115362779D02*
X153890000Y-115037221D01*
%TO.C,U14*%
X157800000Y-119810000D02*
X160110000Y-119810000D01*
X160110000Y-119810000D02*
X160110000Y-119595000D01*
X157800000Y-119810000D02*
X155490000Y-119810000D01*
X155490000Y-119810000D02*
X155490000Y-119595000D01*
X157800000Y-116990000D02*
X160110000Y-116990000D01*
X160110000Y-116990000D02*
X160110000Y-117205000D01*
X157800000Y-116990000D02*
X155490000Y-116990000D01*
X155490000Y-116990000D02*
X155490000Y-117205000D01*
X155490000Y-117205000D02*
X153800000Y-117205000D01*
%TO.C,R31*%
X160110000Y-115037221D02*
X160110000Y-115362779D01*
X159090000Y-115037221D02*
X159090000Y-115362779D01*
%TO.C,R30*%
X161710000Y-115037221D02*
X161710000Y-115362779D01*
X160690000Y-115037221D02*
X160690000Y-115362779D01*
%TO.C,Q1*%
X156240000Y-113220000D02*
X157700000Y-113220000D01*
X156240000Y-116380000D02*
X158400000Y-116380000D01*
X156240000Y-116380000D02*
X156240000Y-115450000D01*
X156240000Y-113220000D02*
X156240000Y-114150000D01*
%TO.C,D1*%
X159115000Y-113535000D02*
X161400000Y-113535000D01*
X159115000Y-112065000D02*
X159115000Y-113535000D01*
X161400000Y-112065000D02*
X159115000Y-112065000D01*
%TO.C,J2*%
X184670000Y-88670000D02*
X186000000Y-88670000D01*
X184670000Y-90000000D02*
X184670000Y-88670000D01*
X187270000Y-88670000D02*
X189870000Y-88670000D01*
X187270000Y-91270000D02*
X187270000Y-88670000D01*
X184670000Y-91270000D02*
X187270000Y-91270000D01*
X189870000Y-88670000D02*
X189870000Y-96410000D01*
X184670000Y-91270000D02*
X184670000Y-96410000D01*
X184670000Y-96410000D02*
X189870000Y-96410000D01*
%TO.C,J7*%
X110130000Y-96410000D02*
X115330000Y-96410000D01*
X110130000Y-91270000D02*
X110130000Y-96410000D01*
X115330000Y-88670000D02*
X115330000Y-96410000D01*
X110130000Y-91270000D02*
X112730000Y-91270000D01*
X112730000Y-91270000D02*
X112730000Y-88670000D01*
X112730000Y-88670000D02*
X115330000Y-88670000D01*
X110130000Y-90000000D02*
X110130000Y-88670000D01*
X110130000Y-88670000D02*
X111460000Y-88670000D01*
%TO.C,C1*%
X178962779Y-84460000D02*
X178637221Y-84460000D01*
X178962779Y-83440000D02*
X178637221Y-83440000D01*
%TO.C,C2*%
X138625279Y-64490000D02*
X138299721Y-64490000D01*
X138625279Y-65510000D02*
X138299721Y-65510000D01*
%TO.C,C3*%
X134837221Y-98210000D02*
X135162779Y-98210000D01*
X134837221Y-97190000D02*
X135162779Y-97190000D01*
%TO.C,C4*%
X141874721Y-92560000D02*
X142200279Y-92560000D01*
X141874721Y-91540000D02*
X142200279Y-91540000D01*
%TO.C,C5*%
X145037221Y-91540000D02*
X145362779Y-91540000D01*
X145037221Y-92560000D02*
X145362779Y-92560000D01*
%TO.C,C6*%
X128524721Y-70710000D02*
X128850279Y-70710000D01*
X128524721Y-69690000D02*
X128850279Y-69690000D01*
%TO.C,C7*%
X138612779Y-67110000D02*
X138287221Y-67110000D01*
X138612779Y-66090000D02*
X138287221Y-66090000D01*
%TO.C,C10*%
X133524721Y-69690000D02*
X133850279Y-69690000D01*
X133524721Y-70710000D02*
X133850279Y-70710000D01*
%TO.C,C11*%
X131790000Y-102262779D02*
X131790000Y-101937221D01*
X132810000Y-102262779D02*
X132810000Y-101937221D01*
%TO.C,C12*%
X174510000Y-81437221D02*
X174510000Y-81762779D01*
X173490000Y-81437221D02*
X173490000Y-81762779D01*
%TO.C,C14*%
X154812779Y-92560000D02*
X154487221Y-92560000D01*
X154812779Y-91540000D02*
X154487221Y-91540000D01*
%TO.C,C15*%
X148475279Y-91540000D02*
X148149721Y-91540000D01*
X148475279Y-92560000D02*
X148149721Y-92560000D01*
%TO.C,C16*%
X161462779Y-65060000D02*
X161137221Y-65060000D01*
X161462779Y-64040000D02*
X161137221Y-64040000D01*
%TO.C,C17*%
X181197936Y-88310000D02*
X182402064Y-88310000D01*
X181197936Y-86490000D02*
X182402064Y-86490000D01*
%TO.C,C18*%
X161090000Y-98862779D02*
X161090000Y-98537221D01*
X162110000Y-98862779D02*
X162110000Y-98537221D01*
%TO.C,C19*%
X161890000Y-81424721D02*
X161890000Y-81750279D01*
X162910000Y-81424721D02*
X162910000Y-81750279D01*
%TO.C,C22*%
X166210000Y-81437221D02*
X166210000Y-81762779D01*
X165190000Y-81437221D02*
X165190000Y-81762779D01*
%TO.C,C24*%
X164610000Y-81437221D02*
X164610000Y-81762779D01*
X163590000Y-81437221D02*
X163590000Y-81762779D01*
%TO.C,C26*%
X123612779Y-91010000D02*
X123287221Y-91010000D01*
X123612779Y-89990000D02*
X123287221Y-89990000D01*
%TO.C,C27*%
X164775279Y-95790000D02*
X164449721Y-95790000D01*
X164775279Y-96810000D02*
X164449721Y-96810000D01*
%TO.C,C29*%
X123612779Y-88390000D02*
X123287221Y-88390000D01*
X123612779Y-89410000D02*
X123287221Y-89410000D01*
%TO.C,C31*%
X123612779Y-92710000D02*
X123287221Y-92710000D01*
X123612779Y-91690000D02*
X123287221Y-91690000D01*
%TO.C,C33*%
X191202064Y-104490000D02*
X189997936Y-104490000D01*
X191202064Y-106310000D02*
X189997936Y-106310000D01*
%TO.C,C34*%
X186437221Y-105510000D02*
X186762779Y-105510000D01*
X186437221Y-104490000D02*
X186762779Y-104490000D01*
%TO.C,C35*%
X188762779Y-98890000D02*
X188437221Y-98890000D01*
X188762779Y-99910000D02*
X188437221Y-99910000D01*
%TO.C,C36*%
X170040000Y-103952064D02*
X170040000Y-102747936D01*
X171860000Y-103952064D02*
X171860000Y-102747936D01*
%TO.C,C37*%
X172540000Y-103952064D02*
X172540000Y-102747936D01*
X174360000Y-103952064D02*
X174360000Y-102747936D01*
%TO.C,C38*%
X157352064Y-110160000D02*
X156147936Y-110160000D01*
X157352064Y-108340000D02*
X156147936Y-108340000D01*
%TO.C,C39*%
X156990000Y-102187221D02*
X156990000Y-102512779D01*
X158010000Y-102187221D02*
X158010000Y-102512779D01*
%TO.C,C40*%
X161810000Y-105491422D02*
X161810000Y-106008578D01*
X160390000Y-105491422D02*
X160390000Y-106008578D01*
D12*
%TO.C,C41*%
X138050000Y-97920000D02*
X138050000Y-100480000D01*
X143550000Y-97920000D02*
X143550000Y-100480000D01*
%TO.C,C43*%
X138050000Y-108480000D02*
X138050000Y-105920000D01*
X143550000Y-108480000D02*
X143550000Y-105920000D01*
D11*
%TO.C,D2*%
X143115000Y-113735000D02*
X145400000Y-113735000D01*
X143115000Y-112265000D02*
X143115000Y-113735000D01*
X145400000Y-112265000D02*
X143115000Y-112265000D01*
%TO.C,F1*%
X177690000Y-86287221D02*
X177690000Y-86612779D01*
X178710000Y-86287221D02*
X178710000Y-86612779D01*
%TO.C,F2*%
X167490000Y-98862779D02*
X167490000Y-98537221D01*
X168510000Y-98862779D02*
X168510000Y-98537221D01*
%TO.C,F3*%
X174460000Y-98537221D02*
X174460000Y-98862779D01*
X173440000Y-98537221D02*
X173440000Y-98862779D01*
%TO.C,F4*%
X144490000Y-110362779D02*
X144490000Y-110037221D01*
X145510000Y-110362779D02*
X145510000Y-110037221D01*
%TO.C,J1*%
X131050000Y-72315000D02*
X133750000Y-72315000D01*
X131640000Y-75035000D02*
X131640000Y-75665000D01*
X133800000Y-75035000D02*
X133160000Y-75035000D01*
X131000000Y-75035000D02*
X131640000Y-75035000D01*
%TO.C,J3*%
X136830000Y-111510000D02*
X125670000Y-111510000D01*
X125670000Y-111510000D02*
X125670000Y-120190000D01*
X125670000Y-120190000D02*
X136830000Y-120190000D01*
X136830000Y-120190000D02*
X136830000Y-111510000D01*
X134850000Y-111510000D02*
X135150000Y-111510000D01*
X135150000Y-111510000D02*
X135150000Y-110810000D01*
X135150000Y-110810000D02*
X134850000Y-110810000D01*
X134850000Y-110810000D02*
X134850000Y-111510000D01*
X132350000Y-111510000D02*
X132650000Y-111510000D01*
X132650000Y-111510000D02*
X132650000Y-110810000D01*
X132650000Y-110810000D02*
X132350000Y-110810000D01*
X132350000Y-110810000D02*
X132350000Y-111510000D01*
X129850000Y-111510000D02*
X130150000Y-111510000D01*
X130150000Y-111510000D02*
X130150000Y-110810000D01*
X130150000Y-110810000D02*
X129850000Y-110810000D01*
X129850000Y-110810000D02*
X129850000Y-111510000D01*
X127350000Y-111510000D02*
X127650000Y-111510000D01*
X127650000Y-111510000D02*
X127650000Y-110810000D01*
X127650000Y-110810000D02*
X127350000Y-110810000D01*
X127350000Y-110810000D02*
X127350000Y-111510000D01*
X136110000Y-107200000D02*
X136534264Y-107500000D01*
X136534264Y-107500000D02*
X136534264Y-106900000D01*
X136534264Y-106900000D02*
X136110000Y-107200000D01*
%TO.C,J4*%
X123830000Y-111510000D02*
X112670000Y-111510000D01*
X112670000Y-111510000D02*
X112670000Y-120190000D01*
X112670000Y-120190000D02*
X123830000Y-120190000D01*
X123830000Y-120190000D02*
X123830000Y-111510000D01*
X121850000Y-111510000D02*
X122150000Y-111510000D01*
X122150000Y-111510000D02*
X122150000Y-110810000D01*
X122150000Y-110810000D02*
X121850000Y-110810000D01*
X121850000Y-110810000D02*
X121850000Y-111510000D01*
X119350000Y-111510000D02*
X119650000Y-111510000D01*
X119650000Y-111510000D02*
X119650000Y-110810000D01*
X119650000Y-110810000D02*
X119350000Y-110810000D01*
X119350000Y-110810000D02*
X119350000Y-111510000D01*
X116850000Y-111510000D02*
X117150000Y-111510000D01*
X117150000Y-111510000D02*
X117150000Y-110810000D01*
X117150000Y-110810000D02*
X116850000Y-110810000D01*
X116850000Y-110810000D02*
X116850000Y-111510000D01*
X114350000Y-111510000D02*
X114650000Y-111510000D01*
X114650000Y-111510000D02*
X114650000Y-110810000D01*
X114650000Y-110810000D02*
X114350000Y-110810000D01*
X114350000Y-110810000D02*
X114350000Y-111510000D01*
X123110000Y-107200000D02*
X123534264Y-107500000D01*
X123534264Y-107500000D02*
X123534264Y-106900000D01*
X123534264Y-106900000D02*
X123110000Y-107200000D01*
%TO.C,J5*%
X174034264Y-106900000D02*
X173610000Y-107200000D01*
X174034264Y-107500000D02*
X174034264Y-106900000D01*
X173610000Y-107200000D02*
X174034264Y-107500000D01*
X164850000Y-110810000D02*
X164850000Y-111510000D01*
X165150000Y-110810000D02*
X164850000Y-110810000D01*
X165150000Y-111510000D02*
X165150000Y-110810000D01*
X164850000Y-111510000D02*
X165150000Y-111510000D01*
X167350000Y-110810000D02*
X167350000Y-111510000D01*
X167650000Y-110810000D02*
X167350000Y-110810000D01*
X167650000Y-111510000D02*
X167650000Y-110810000D01*
X167350000Y-111510000D02*
X167650000Y-111510000D01*
X169850000Y-110810000D02*
X169850000Y-111510000D01*
X170150000Y-110810000D02*
X169850000Y-110810000D01*
X170150000Y-111510000D02*
X170150000Y-110810000D01*
X169850000Y-111510000D02*
X170150000Y-111510000D01*
X172350000Y-110810000D02*
X172350000Y-111510000D01*
X172650000Y-110810000D02*
X172350000Y-110810000D01*
X172650000Y-111510000D02*
X172650000Y-110810000D01*
X172350000Y-111510000D02*
X172650000Y-111510000D01*
X174330000Y-120190000D02*
X174330000Y-111510000D01*
X163170000Y-120190000D02*
X174330000Y-120190000D01*
X163170000Y-111510000D02*
X163170000Y-120190000D01*
X174330000Y-111510000D02*
X163170000Y-111510000D01*
%TO.C,J6*%
X187034264Y-106900000D02*
X186610000Y-107200000D01*
X187034264Y-107500000D02*
X187034264Y-106900000D01*
X186610000Y-107200000D02*
X187034264Y-107500000D01*
X177850000Y-110810000D02*
X177850000Y-111510000D01*
X178150000Y-110810000D02*
X177850000Y-110810000D01*
X178150000Y-111510000D02*
X178150000Y-110810000D01*
X177850000Y-111510000D02*
X178150000Y-111510000D01*
X180350000Y-110810000D02*
X180350000Y-111510000D01*
X180650000Y-110810000D02*
X180350000Y-110810000D01*
X180650000Y-111510000D02*
X180650000Y-110810000D01*
X180350000Y-111510000D02*
X180650000Y-111510000D01*
X182850000Y-110810000D02*
X182850000Y-111510000D01*
X183150000Y-110810000D02*
X182850000Y-110810000D01*
X183150000Y-111510000D02*
X183150000Y-110810000D01*
X182850000Y-111510000D02*
X183150000Y-111510000D01*
X185350000Y-110810000D02*
X185350000Y-111510000D01*
X185650000Y-110810000D02*
X185350000Y-110810000D01*
X185650000Y-111510000D02*
X185650000Y-110810000D01*
X185350000Y-111510000D02*
X185650000Y-111510000D01*
X187330000Y-120190000D02*
X187330000Y-111510000D01*
X176170000Y-120190000D02*
X187330000Y-120190000D01*
X176170000Y-111510000D02*
X176170000Y-120190000D01*
X187330000Y-111510000D02*
X176170000Y-111510000D01*
%TO.C,J8*%
X114500000Y-77350000D02*
X112600000Y-77350000D01*
X118400000Y-77350000D02*
X116400000Y-77350000D01*
X114500000Y-86750000D02*
X112600000Y-86750000D01*
X118400000Y-86750000D02*
X116400000Y-86750000D01*
X112600000Y-77350000D02*
X112600000Y-86750000D01*
%TO.C,L1*%
X135158578Y-104660000D02*
X134641422Y-104660000D01*
X135158578Y-103240000D02*
X134641422Y-103240000D01*
D10*
%TO.C,L3*%
X183928000Y-105528000D02*
X175672000Y-105528000D01*
X175672000Y-97272000D02*
X175672000Y-98358000D01*
X175672000Y-104442000D02*
X175672000Y-105528000D01*
X183928000Y-97272000D02*
X175672000Y-97272000D01*
X183928000Y-97272000D02*
X183928000Y-98358000D01*
X183928000Y-104442000D02*
X183928000Y-105528000D01*
D11*
%TO.C,L4*%
X149700000Y-100800000D02*
X148900000Y-100800000D01*
X149700000Y-108400000D02*
X148850000Y-108400000D01*
%TO.C,Q3*%
X140440000Y-113420000D02*
X140440000Y-114350000D01*
X140440000Y-116580000D02*
X140440000Y-115650000D01*
X140440000Y-116580000D02*
X142600000Y-116580000D01*
X140440000Y-113420000D02*
X141900000Y-113420000D01*
%TO.C,R1*%
X181490000Y-82875279D02*
X181490000Y-82549721D01*
X182510000Y-82875279D02*
X182510000Y-82549721D01*
%TO.C,R2*%
X181490000Y-79437221D02*
X181490000Y-79762779D01*
X182510000Y-79437221D02*
X182510000Y-79762779D01*
%TO.C,R3*%
X148475279Y-89940000D02*
X148149721Y-89940000D01*
X148475279Y-90960000D02*
X148149721Y-90960000D01*
%TO.C,R4*%
X151790000Y-91137221D02*
X151790000Y-91462779D01*
X152810000Y-91137221D02*
X152810000Y-91462779D01*
%TO.C,R5*%
X151160000Y-91137221D02*
X151160000Y-91462779D01*
X150140000Y-91137221D02*
X150140000Y-91462779D01*
%TO.C,R6*%
X161137221Y-66860000D02*
X161462779Y-66860000D01*
X161137221Y-65840000D02*
X161462779Y-65840000D01*
%TO.C,R8*%
X161090000Y-101749721D02*
X161090000Y-102075279D01*
X162110000Y-101749721D02*
X162110000Y-102075279D01*
%TO.C,R9*%
X168510000Y-101737221D02*
X168510000Y-102062779D01*
X167490000Y-101737221D02*
X167490000Y-102062779D01*
%TO.C,R17*%
X190090000Y-102437221D02*
X190090000Y-102762779D01*
X191110000Y-102437221D02*
X191110000Y-102762779D01*
%TO.C,R18*%
X191690000Y-102762779D02*
X191690000Y-102437221D01*
X192710000Y-102762779D02*
X192710000Y-102437221D01*
%TO.C,R21*%
X159710000Y-105787221D02*
X159710000Y-106112779D01*
X158690000Y-105787221D02*
X158690000Y-106112779D01*
%TO.C,R22*%
X159590000Y-109212779D02*
X159590000Y-108887221D01*
X160610000Y-109212779D02*
X160610000Y-108887221D01*
%TO.C,R36*%
X139110000Y-115550279D02*
X139110000Y-115224721D01*
X138090000Y-115550279D02*
X138090000Y-115224721D01*
%TO.C,R37*%
X144890000Y-115237221D02*
X144890000Y-115562779D01*
X145910000Y-115237221D02*
X145910000Y-115562779D01*
%TO.C,R38*%
X144310000Y-115237221D02*
X144310000Y-115562779D01*
X143290000Y-115237221D02*
X143290000Y-115562779D01*
%TO.C,SW1*%
X127330000Y-64130000D02*
X127630000Y-64130000D01*
X130470000Y-68270000D02*
X130170000Y-68270000D01*
X127630000Y-68270000D02*
X127330000Y-68270000D01*
X130470000Y-64130000D02*
X130470000Y-68270000D01*
X130170000Y-64130000D02*
X130470000Y-64130000D01*
X127330000Y-68270000D02*
X127330000Y-64130000D01*
%TO.C,SW2*%
X132330000Y-68270000D02*
X132330000Y-64130000D01*
X135170000Y-64130000D02*
X135470000Y-64130000D01*
X135470000Y-64130000D02*
X135470000Y-68270000D01*
X132630000Y-68270000D02*
X132330000Y-68270000D01*
X135470000Y-68270000D02*
X135170000Y-68270000D01*
X132330000Y-64130000D02*
X132630000Y-64130000D01*
%TO.C,SW3*%
X173770000Y-85785000D02*
X173770000Y-92605000D01*
X161930000Y-85785000D02*
X161930000Y-92605000D01*
X173770000Y-85785000D02*
X172460000Y-85785000D01*
X170860000Y-85785000D02*
X169920000Y-85785000D01*
X168320000Y-85785000D02*
X167380000Y-85785000D01*
X165780000Y-85785000D02*
X164840000Y-85785000D01*
X163240000Y-85785000D02*
X161930000Y-85785000D01*
X163240000Y-92605000D02*
X161930000Y-92605000D01*
X165780000Y-92605000D02*
X164840000Y-92605000D01*
X168320000Y-92605000D02*
X167380000Y-92605000D01*
X173770000Y-92605000D02*
X172460000Y-92605000D01*
X170860000Y-92605000D02*
X169920000Y-92605000D01*
X174010000Y-85545000D02*
X174010000Y-86928000D01*
X174010000Y-85545000D02*
X172627000Y-85545000D01*
X172295000Y-87385000D02*
X171025000Y-87385000D01*
X171025000Y-87385000D02*
X171025000Y-91005000D01*
X171025000Y-91005000D02*
X172295000Y-91005000D01*
X172295000Y-91005000D02*
X172295000Y-87385000D01*
X172175000Y-87385000D02*
X172175000Y-88591667D01*
X172055000Y-87385000D02*
X172055000Y-88591667D01*
X171935000Y-87385000D02*
X171935000Y-88591667D01*
X171815000Y-87385000D02*
X171815000Y-88591667D01*
X171695000Y-87385000D02*
X171695000Y-88591667D01*
X171575000Y-87385000D02*
X171575000Y-88591667D01*
X171455000Y-87385000D02*
X171455000Y-88591667D01*
X171335000Y-87385000D02*
X171335000Y-88591667D01*
X171215000Y-87385000D02*
X171215000Y-88591667D01*
X171095000Y-87385000D02*
X171095000Y-88591667D01*
X172295000Y-88591667D02*
X171025000Y-88591667D01*
X169755000Y-87385000D02*
X168485000Y-87385000D01*
X168485000Y-87385000D02*
X168485000Y-91005000D01*
X168485000Y-91005000D02*
X169755000Y-91005000D01*
X169755000Y-91005000D02*
X169755000Y-87385000D01*
X169635000Y-87385000D02*
X169635000Y-88591667D01*
X169515000Y-87385000D02*
X169515000Y-88591667D01*
X169395000Y-87385000D02*
X169395000Y-88591667D01*
X169275000Y-87385000D02*
X169275000Y-88591667D01*
X169155000Y-87385000D02*
X169155000Y-88591667D01*
X169035000Y-87385000D02*
X169035000Y-88591667D01*
X168915000Y-87385000D02*
X168915000Y-88591667D01*
X168795000Y-87385000D02*
X168795000Y-88591667D01*
X168675000Y-87385000D02*
X168675000Y-88591667D01*
X168555000Y-87385000D02*
X168555000Y-88591667D01*
X169755000Y-88591667D02*
X168485000Y-88591667D01*
X167215000Y-87385000D02*
X165945000Y-87385000D01*
X165945000Y-87385000D02*
X165945000Y-91005000D01*
X165945000Y-91005000D02*
X167215000Y-91005000D01*
X167215000Y-91005000D02*
X167215000Y-87385000D01*
X167095000Y-87385000D02*
X167095000Y-88591667D01*
X166975000Y-87385000D02*
X166975000Y-88591667D01*
X166855000Y-87385000D02*
X166855000Y-88591667D01*
X166735000Y-87385000D02*
X166735000Y-88591667D01*
X166615000Y-87385000D02*
X166615000Y-88591667D01*
X166495000Y-87385000D02*
X166495000Y-88591667D01*
X166375000Y-87385000D02*
X166375000Y-88591667D01*
X166255000Y-87385000D02*
X166255000Y-88591667D01*
X166135000Y-87385000D02*
X166135000Y-88591667D01*
X166015000Y-87385000D02*
X166015000Y-88591667D01*
X167215000Y-88591667D02*
X165945000Y-88591667D01*
X164675000Y-87385000D02*
X163405000Y-87385000D01*
X163405000Y-87385000D02*
X163405000Y-91005000D01*
X163405000Y-91005000D02*
X164675000Y-91005000D01*
X164675000Y-91005000D02*
X164675000Y-87385000D01*
X164555000Y-87385000D02*
X164555000Y-88591667D01*
X164435000Y-87385000D02*
X164435000Y-88591667D01*
X164315000Y-87385000D02*
X164315000Y-88591667D01*
X164195000Y-87385000D02*
X164195000Y-88591667D01*
X164075000Y-87385000D02*
X164075000Y-88591667D01*
X163955000Y-87385000D02*
X163955000Y-88591667D01*
X163835000Y-87385000D02*
X163835000Y-88591667D01*
X163715000Y-87385000D02*
X163715000Y-88591667D01*
X163595000Y-87385000D02*
X163595000Y-88591667D01*
X163475000Y-87385000D02*
X163475000Y-88591667D01*
X164675000Y-88591667D02*
X163405000Y-88591667D01*
%TO.C,U1*%
X133340000Y-99820000D02*
X133340000Y-101580000D01*
X136410000Y-101580000D02*
X136410000Y-99150000D01*
%TO.C,U2*%
X178000000Y-78740000D02*
X176500000Y-78740000D01*
X178000000Y-78740000D02*
X179500000Y-78740000D01*
X178000000Y-82960000D02*
X176500000Y-82960000D01*
X178000000Y-82960000D02*
X180875000Y-82960000D01*
%TO.C,U3*%
X141000000Y-57000000D02*
X159000000Y-57000000D01*
X159000000Y-57000000D02*
X159000000Y-88000000D01*
X159000000Y-88000000D02*
X141000000Y-88000000D01*
X141000000Y-88000000D02*
X141000000Y-57000000D01*
X141000000Y-63300000D02*
X159000000Y-63300000D01*
%TO.C,U6*%
X166900000Y-100310000D02*
X166900000Y-98810000D01*
X166900000Y-100310000D02*
X166900000Y-101810000D01*
X162680000Y-100310000D02*
X162680000Y-98810000D01*
X162680000Y-100310000D02*
X162680000Y-103185000D01*
%TO.C,U7*%
X138910000Y-84440000D02*
X138910000Y-82760000D01*
X126490000Y-84440000D02*
X126490000Y-82760000D01*
X138910000Y-76590000D02*
X126490000Y-76590000D01*
X138910000Y-92810000D02*
X126490000Y-92810000D01*
X138910000Y-77040000D02*
X138910000Y-76590000D01*
X126490000Y-92810000D02*
X126490000Y-92360000D01*
X126490000Y-77040000D02*
X126490000Y-76600000D01*
X138910000Y-92810000D02*
X138910000Y-92360000D01*
X139600000Y-92360000D02*
X138910000Y-92360000D01*
D12*
%TO.C,U9*%
X165550000Y-67200000D02*
G75*
G03*
X165550000Y-67200000I-250000J0D01*
G01*
D11*
%TO.C,U11*%
X186700000Y-103810000D02*
X188500000Y-103810000D01*
X188500000Y-100590000D02*
X186050000Y-100590000D01*
%TO.C,U12*%
X157300000Y-104190000D02*
X154850000Y-104190000D01*
X155500000Y-107410000D02*
X157300000Y-107410000D01*
%TO.C,U15*%
X142000000Y-120010000D02*
X144310000Y-120010000D01*
X144310000Y-120010000D02*
X144310000Y-119795000D01*
X142000000Y-120010000D02*
X139690000Y-120010000D01*
X139690000Y-120010000D02*
X139690000Y-119795000D01*
X142000000Y-117190000D02*
X144310000Y-117190000D01*
X144310000Y-117190000D02*
X144310000Y-117405000D01*
X142000000Y-117190000D02*
X139690000Y-117190000D01*
X139690000Y-117190000D02*
X139690000Y-117405000D01*
X139690000Y-117405000D02*
X138000000Y-117405000D01*
%TO.C,Y1*%
X144625000Y-89125000D02*
X143275000Y-89125000D01*
X144625000Y-90875000D02*
X143275000Y-90875000D01*
%TO.C,C25*%
X175090000Y-85597936D02*
X175090000Y-86802064D01*
X176910000Y-85597936D02*
X176910000Y-86802064D01*
D12*
%TO.C,U5*%
X175950000Y-90400000D02*
X175950000Y-94800000D01*
X182850000Y-90400000D02*
X182850000Y-94800000D01*
D13*
X182835000Y-88275000D02*
G75*
G03*
X182835000Y-88275000I-100000J0D01*
G01*
%TO.C,R29*%
D10*
X152660714Y-116817857D02*
X153017857Y-116567857D01*
X152660714Y-116389285D02*
X153410714Y-116389285D01*
X153410714Y-116675000D01*
X153375000Y-116746428D01*
X153339285Y-116782142D01*
X153267857Y-116817857D01*
X153160714Y-116817857D01*
X153089285Y-116782142D01*
X153053571Y-116746428D01*
X153017857Y-116675000D01*
X153017857Y-116389285D01*
X153339285Y-117103571D02*
X153375000Y-117139285D01*
X153410714Y-117210714D01*
X153410714Y-117389285D01*
X153375000Y-117460714D01*
X153339285Y-117496428D01*
X153267857Y-117532142D01*
X153196428Y-117532142D01*
X153089285Y-117496428D01*
X152660714Y-117067857D01*
X152660714Y-117532142D01*
X152660714Y-117889285D02*
X152660714Y-118032142D01*
X152696428Y-118103571D01*
X152732142Y-118139285D01*
X152839285Y-118210714D01*
X152982142Y-118246428D01*
X153267857Y-118246428D01*
X153339285Y-118210714D01*
X153375000Y-118175000D01*
X153410714Y-118103571D01*
X153410714Y-117960714D01*
X153375000Y-117889285D01*
X153339285Y-117853571D01*
X153267857Y-117817857D01*
X153089285Y-117817857D01*
X153017857Y-117853571D01*
X152982142Y-117889285D01*
X152946428Y-117960714D01*
X152946428Y-118103571D01*
X152982142Y-118175000D01*
X153017857Y-118210714D01*
X153089285Y-118246428D01*
%TO.C,U14*%
X156561904Y-117852380D02*
X156561904Y-118661904D01*
X156609523Y-118757142D01*
X156657142Y-118804761D01*
X156752380Y-118852380D01*
X156942857Y-118852380D01*
X157038095Y-118804761D01*
X157085714Y-118757142D01*
X157133333Y-118661904D01*
X157133333Y-117852380D01*
X158133333Y-118852380D02*
X157561904Y-118852380D01*
X157847619Y-118852380D02*
X157847619Y-117852380D01*
X157752380Y-117995238D01*
X157657142Y-118090476D01*
X157561904Y-118138095D01*
X158990476Y-118185714D02*
X158990476Y-118852380D01*
X158752380Y-117804761D02*
X158514285Y-118519047D01*
X159133333Y-118519047D01*
%TO.C,R31*%
D14*
X159690476Y-115328571D02*
X159595238Y-115395238D01*
X159690476Y-115442857D02*
X159490476Y-115442857D01*
X159490476Y-115366666D01*
X159500000Y-115347619D01*
X159509523Y-115338095D01*
X159528571Y-115328571D01*
X159557142Y-115328571D01*
X159576190Y-115338095D01*
X159585714Y-115347619D01*
X159595238Y-115366666D01*
X159595238Y-115442857D01*
X159490476Y-115261904D02*
X159490476Y-115138095D01*
X159566666Y-115204761D01*
X159566666Y-115176190D01*
X159576190Y-115157142D01*
X159585714Y-115147619D01*
X159604761Y-115138095D01*
X159652380Y-115138095D01*
X159671428Y-115147619D01*
X159680952Y-115157142D01*
X159690476Y-115176190D01*
X159690476Y-115233333D01*
X159680952Y-115252380D01*
X159671428Y-115261904D01*
X159690476Y-114947619D02*
X159690476Y-115061904D01*
X159690476Y-115004761D02*
X159490476Y-115004761D01*
X159519047Y-115023809D01*
X159538095Y-115042857D01*
X159547619Y-115061904D01*
%TO.C,R30*%
D10*
X163082380Y-115842857D02*
X162606190Y-116176190D01*
X163082380Y-116414285D02*
X162082380Y-116414285D01*
X162082380Y-116033333D01*
X162130000Y-115938095D01*
X162177619Y-115890476D01*
X162272857Y-115842857D01*
X162415714Y-115842857D01*
X162510952Y-115890476D01*
X162558571Y-115938095D01*
X162606190Y-116033333D01*
X162606190Y-116414285D01*
X162082380Y-115509523D02*
X162082380Y-114890476D01*
X162463333Y-115223809D01*
X162463333Y-115080952D01*
X162510952Y-114985714D01*
X162558571Y-114938095D01*
X162653809Y-114890476D01*
X162891904Y-114890476D01*
X162987142Y-114938095D01*
X163034761Y-114985714D01*
X163082380Y-115080952D01*
X163082380Y-115366666D01*
X163034761Y-115461904D01*
X162987142Y-115509523D01*
X162082380Y-114271428D02*
X162082380Y-114176190D01*
X162130000Y-114080952D01*
X162177619Y-114033333D01*
X162272857Y-113985714D01*
X162463333Y-113938095D01*
X162701428Y-113938095D01*
X162891904Y-113985714D01*
X162987142Y-114033333D01*
X163034761Y-114080952D01*
X163082380Y-114176190D01*
X163082380Y-114271428D01*
X163034761Y-114366666D01*
X162987142Y-114414285D01*
X162891904Y-114461904D01*
X162701428Y-114509523D01*
X162463333Y-114509523D01*
X162272857Y-114461904D01*
X162177619Y-114414285D01*
X162130000Y-114366666D01*
X162082380Y-114271428D01*
%TO.C,Q1*%
D15*
X157273809Y-114847619D02*
X157250000Y-114895238D01*
X157202380Y-114942857D01*
X157130952Y-115014285D01*
X157107142Y-115061904D01*
X157107142Y-115109523D01*
X157226190Y-115085714D02*
X157202380Y-115133333D01*
X157154761Y-115180952D01*
X157059523Y-115204761D01*
X156892857Y-115204761D01*
X156797619Y-115180952D01*
X156750000Y-115133333D01*
X156726190Y-115085714D01*
X156726190Y-114990476D01*
X156750000Y-114942857D01*
X156797619Y-114895238D01*
X156892857Y-114871428D01*
X157059523Y-114871428D01*
X157154761Y-114895238D01*
X157202380Y-114942857D01*
X157226190Y-114990476D01*
X157226190Y-115085714D01*
X157226190Y-114395238D02*
X157226190Y-114680952D01*
X157226190Y-114538095D02*
X156726190Y-114538095D01*
X156797619Y-114585714D01*
X156845238Y-114633333D01*
X156869047Y-114680952D01*
%TO.C,D1*%
D10*
X159861904Y-111822380D02*
X159861904Y-110822380D01*
X160100000Y-110822380D01*
X160242857Y-110870000D01*
X160338095Y-110965238D01*
X160385714Y-111060476D01*
X160433333Y-111250952D01*
X160433333Y-111393809D01*
X160385714Y-111584285D01*
X160338095Y-111679523D01*
X160242857Y-111774761D01*
X160100000Y-111822380D01*
X159861904Y-111822380D01*
X161385714Y-111822380D02*
X160814285Y-111822380D01*
X161100000Y-111822380D02*
X161100000Y-110822380D01*
X161004761Y-110965238D01*
X160909523Y-111060476D01*
X160814285Y-111108095D01*
%TO.C,J2*%
X191066666Y-88152380D02*
X191066666Y-88866666D01*
X191019047Y-89009523D01*
X190923809Y-89104761D01*
X190780952Y-89152380D01*
X190685714Y-89152380D01*
X191495238Y-88247619D02*
X191542857Y-88200000D01*
X191638095Y-88152380D01*
X191876190Y-88152380D01*
X191971428Y-88200000D01*
X192019047Y-88247619D01*
X192066666Y-88342857D01*
X192066666Y-88438095D01*
X192019047Y-88580952D01*
X191447619Y-89152380D01*
X192066666Y-89152380D01*
%TO.C,J7*%
X108166666Y-88252380D02*
X108166666Y-88966666D01*
X108119047Y-89109523D01*
X108023809Y-89204761D01*
X107880952Y-89252380D01*
X107785714Y-89252380D01*
X108547619Y-88252380D02*
X109214285Y-88252380D01*
X108785714Y-89252380D01*
%TO.C,C1*%
D15*
X176741666Y-83678571D02*
X176717857Y-83702380D01*
X176646428Y-83726190D01*
X176598809Y-83726190D01*
X176527380Y-83702380D01*
X176479761Y-83654761D01*
X176455952Y-83607142D01*
X176432142Y-83511904D01*
X176432142Y-83440476D01*
X176455952Y-83345238D01*
X176479761Y-83297619D01*
X176527380Y-83250000D01*
X176598809Y-83226190D01*
X176646428Y-83226190D01*
X176717857Y-83250000D01*
X176741666Y-83273809D01*
X177217857Y-83726190D02*
X176932142Y-83726190D01*
X177075000Y-83726190D02*
X177075000Y-83226190D01*
X177027380Y-83297619D01*
X176979761Y-83345238D01*
X176932142Y-83369047D01*
%TO.C,C2*%
D10*
X136175000Y-65267857D02*
X136139285Y-65303571D01*
X136032142Y-65339285D01*
X135960714Y-65339285D01*
X135853571Y-65303571D01*
X135782142Y-65232142D01*
X135746428Y-65160714D01*
X135710714Y-65017857D01*
X135710714Y-64910714D01*
X135746428Y-64767857D01*
X135782142Y-64696428D01*
X135853571Y-64625000D01*
X135960714Y-64589285D01*
X136032142Y-64589285D01*
X136139285Y-64625000D01*
X136175000Y-64660714D01*
X136460714Y-64660714D02*
X136496428Y-64625000D01*
X136567857Y-64589285D01*
X136746428Y-64589285D01*
X136817857Y-64625000D01*
X136853571Y-64660714D01*
X136889285Y-64732142D01*
X136889285Y-64803571D01*
X136853571Y-64910714D01*
X136425000Y-65339285D01*
X136889285Y-65339285D01*
%TO.C,C3*%
X134833333Y-96627142D02*
X134785714Y-96674761D01*
X134642857Y-96722380D01*
X134547619Y-96722380D01*
X134404761Y-96674761D01*
X134309523Y-96579523D01*
X134261904Y-96484285D01*
X134214285Y-96293809D01*
X134214285Y-96150952D01*
X134261904Y-95960476D01*
X134309523Y-95865238D01*
X134404761Y-95770000D01*
X134547619Y-95722380D01*
X134642857Y-95722380D01*
X134785714Y-95770000D01*
X134833333Y-95817619D01*
X135166666Y-95722380D02*
X135785714Y-95722380D01*
X135452380Y-96103333D01*
X135595238Y-96103333D01*
X135690476Y-96150952D01*
X135738095Y-96198571D01*
X135785714Y-96293809D01*
X135785714Y-96531904D01*
X135738095Y-96627142D01*
X135690476Y-96674761D01*
X135595238Y-96722380D01*
X135309523Y-96722380D01*
X135214285Y-96674761D01*
X135166666Y-96627142D01*
%TO.C,C4*%
X141833333Y-93957142D02*
X141785714Y-94004761D01*
X141642857Y-94052380D01*
X141547619Y-94052380D01*
X141404761Y-94004761D01*
X141309523Y-93909523D01*
X141261904Y-93814285D01*
X141214285Y-93623809D01*
X141214285Y-93480952D01*
X141261904Y-93290476D01*
X141309523Y-93195238D01*
X141404761Y-93100000D01*
X141547619Y-93052380D01*
X141642857Y-93052380D01*
X141785714Y-93100000D01*
X141833333Y-93147619D01*
X142690476Y-93385714D02*
X142690476Y-94052380D01*
X142452380Y-93004761D02*
X142214285Y-93719047D01*
X142833333Y-93719047D01*
%TO.C,C5*%
X145033333Y-93857142D02*
X144985714Y-93904761D01*
X144842857Y-93952380D01*
X144747619Y-93952380D01*
X144604761Y-93904761D01*
X144509523Y-93809523D01*
X144461904Y-93714285D01*
X144414285Y-93523809D01*
X144414285Y-93380952D01*
X144461904Y-93190476D01*
X144509523Y-93095238D01*
X144604761Y-93000000D01*
X144747619Y-92952380D01*
X144842857Y-92952380D01*
X144985714Y-93000000D01*
X145033333Y-93047619D01*
X145938095Y-92952380D02*
X145461904Y-92952380D01*
X145414285Y-93428571D01*
X145461904Y-93380952D01*
X145557142Y-93333333D01*
X145795238Y-93333333D01*
X145890476Y-93380952D01*
X145938095Y-93428571D01*
X145985714Y-93523809D01*
X145985714Y-93761904D01*
X145938095Y-93857142D01*
X145890476Y-93904761D01*
X145795238Y-93952380D01*
X145557142Y-93952380D01*
X145461904Y-93904761D01*
X145414285Y-93857142D01*
%TO.C,C6*%
X126400000Y-70314285D02*
X126371428Y-70342857D01*
X126285714Y-70371428D01*
X126228571Y-70371428D01*
X126142857Y-70342857D01*
X126085714Y-70285714D01*
X126057142Y-70228571D01*
X126028571Y-70114285D01*
X126028571Y-70028571D01*
X126057142Y-69914285D01*
X126085714Y-69857142D01*
X126142857Y-69800000D01*
X126228571Y-69771428D01*
X126285714Y-69771428D01*
X126371428Y-69800000D01*
X126400000Y-69828571D01*
X126914285Y-69771428D02*
X126800000Y-69771428D01*
X126742857Y-69800000D01*
X126714285Y-69828571D01*
X126657142Y-69914285D01*
X126628571Y-70028571D01*
X126628571Y-70257142D01*
X126657142Y-70314285D01*
X126685714Y-70342857D01*
X126742857Y-70371428D01*
X126857142Y-70371428D01*
X126914285Y-70342857D01*
X126942857Y-70314285D01*
X126971428Y-70257142D01*
X126971428Y-70114285D01*
X126942857Y-70057142D01*
X126914285Y-70028571D01*
X126857142Y-70000000D01*
X126742857Y-70000000D01*
X126685714Y-70028571D01*
X126657142Y-70057142D01*
X126628571Y-70114285D01*
%TO.C,C7*%
X136175000Y-66867857D02*
X136139285Y-66903571D01*
X136032142Y-66939285D01*
X135960714Y-66939285D01*
X135853571Y-66903571D01*
X135782142Y-66832142D01*
X135746428Y-66760714D01*
X135710714Y-66617857D01*
X135710714Y-66510714D01*
X135746428Y-66367857D01*
X135782142Y-66296428D01*
X135853571Y-66225000D01*
X135960714Y-66189285D01*
X136032142Y-66189285D01*
X136139285Y-66225000D01*
X136175000Y-66260714D01*
X136425000Y-66189285D02*
X136925000Y-66189285D01*
X136603571Y-66939285D01*
%TO.C,C10*%
X130914285Y-70414285D02*
X130885714Y-70442857D01*
X130800000Y-70471428D01*
X130742857Y-70471428D01*
X130657142Y-70442857D01*
X130600000Y-70385714D01*
X130571428Y-70328571D01*
X130542857Y-70214285D01*
X130542857Y-70128571D01*
X130571428Y-70014285D01*
X130600000Y-69957142D01*
X130657142Y-69900000D01*
X130742857Y-69871428D01*
X130800000Y-69871428D01*
X130885714Y-69900000D01*
X130914285Y-69928571D01*
X131485714Y-70471428D02*
X131142857Y-70471428D01*
X131314285Y-70471428D02*
X131314285Y-69871428D01*
X131257142Y-69957142D01*
X131200000Y-70014285D01*
X131142857Y-70042857D01*
X131857142Y-69871428D02*
X131914285Y-69871428D01*
X131971428Y-69900000D01*
X132000000Y-69928571D01*
X132028571Y-69985714D01*
X132057142Y-70100000D01*
X132057142Y-70242857D01*
X132028571Y-70357142D01*
X132000000Y-70414285D01*
X131971428Y-70442857D01*
X131914285Y-70471428D01*
X131857142Y-70471428D01*
X131800000Y-70442857D01*
X131771428Y-70414285D01*
X131742857Y-70357142D01*
X131714285Y-70242857D01*
X131714285Y-70100000D01*
X131742857Y-69985714D01*
X131771428Y-69928571D01*
X131800000Y-69900000D01*
X131857142Y-69871428D01*
%TO.C,C11*%
X131227142Y-102742857D02*
X131274761Y-102790476D01*
X131322380Y-102933333D01*
X131322380Y-103028571D01*
X131274761Y-103171428D01*
X131179523Y-103266666D01*
X131084285Y-103314285D01*
X130893809Y-103361904D01*
X130750952Y-103361904D01*
X130560476Y-103314285D01*
X130465238Y-103266666D01*
X130370000Y-103171428D01*
X130322380Y-103028571D01*
X130322380Y-102933333D01*
X130370000Y-102790476D01*
X130417619Y-102742857D01*
X131322380Y-101790476D02*
X131322380Y-102361904D01*
X131322380Y-102076190D02*
X130322380Y-102076190D01*
X130465238Y-102171428D01*
X130560476Y-102266666D01*
X130608095Y-102361904D01*
X131322380Y-100838095D02*
X131322380Y-101409523D01*
X131322380Y-101123809D02*
X130322380Y-101123809D01*
X130465238Y-101219047D01*
X130560476Y-101314285D01*
X130608095Y-101409523D01*
%TO.C,C12*%
X171157142Y-82957142D02*
X171109523Y-83004761D01*
X170966666Y-83052380D01*
X170871428Y-83052380D01*
X170728571Y-83004761D01*
X170633333Y-82909523D01*
X170585714Y-82814285D01*
X170538095Y-82623809D01*
X170538095Y-82480952D01*
X170585714Y-82290476D01*
X170633333Y-82195238D01*
X170728571Y-82100000D01*
X170871428Y-82052380D01*
X170966666Y-82052380D01*
X171109523Y-82100000D01*
X171157142Y-82147619D01*
X172109523Y-83052380D02*
X171538095Y-83052380D01*
X171823809Y-83052380D02*
X171823809Y-82052380D01*
X171728571Y-82195238D01*
X171633333Y-82290476D01*
X171538095Y-82338095D01*
X172490476Y-82147619D02*
X172538095Y-82100000D01*
X172633333Y-82052380D01*
X172871428Y-82052380D01*
X172966666Y-82100000D01*
X173014285Y-82147619D01*
X173061904Y-82242857D01*
X173061904Y-82338095D01*
X173014285Y-82480952D01*
X172442857Y-83052380D01*
X173061904Y-83052380D01*
%TO.C,C14*%
X154007142Y-93837142D02*
X153959523Y-93884761D01*
X153816666Y-93932380D01*
X153721428Y-93932380D01*
X153578571Y-93884761D01*
X153483333Y-93789523D01*
X153435714Y-93694285D01*
X153388095Y-93503809D01*
X153388095Y-93360952D01*
X153435714Y-93170476D01*
X153483333Y-93075238D01*
X153578571Y-92980000D01*
X153721428Y-92932380D01*
X153816666Y-92932380D01*
X153959523Y-92980000D01*
X154007142Y-93027619D01*
X154959523Y-93932380D02*
X154388095Y-93932380D01*
X154673809Y-93932380D02*
X154673809Y-92932380D01*
X154578571Y-93075238D01*
X154483333Y-93170476D01*
X154388095Y-93218095D01*
X155816666Y-93265714D02*
X155816666Y-93932380D01*
X155578571Y-92884761D02*
X155340476Y-93599047D01*
X155959523Y-93599047D01*
%TO.C,C15*%
X147669642Y-93837142D02*
X147622023Y-93884761D01*
X147479166Y-93932380D01*
X147383928Y-93932380D01*
X147241071Y-93884761D01*
X147145833Y-93789523D01*
X147098214Y-93694285D01*
X147050595Y-93503809D01*
X147050595Y-93360952D01*
X147098214Y-93170476D01*
X147145833Y-93075238D01*
X147241071Y-92980000D01*
X147383928Y-92932380D01*
X147479166Y-92932380D01*
X147622023Y-92980000D01*
X147669642Y-93027619D01*
X148622023Y-93932380D02*
X148050595Y-93932380D01*
X148336309Y-93932380D02*
X148336309Y-92932380D01*
X148241071Y-93075238D01*
X148145833Y-93170476D01*
X148050595Y-93218095D01*
X149526785Y-92932380D02*
X149050595Y-92932380D01*
X149002976Y-93408571D01*
X149050595Y-93360952D01*
X149145833Y-93313333D01*
X149383928Y-93313333D01*
X149479166Y-93360952D01*
X149526785Y-93408571D01*
X149574404Y-93503809D01*
X149574404Y-93741904D01*
X149526785Y-93837142D01*
X149479166Y-93884761D01*
X149383928Y-93932380D01*
X149145833Y-93932380D01*
X149050595Y-93884761D01*
X149002976Y-93837142D01*
%TO.C,C16*%
X163657142Y-64457142D02*
X163609523Y-64504761D01*
X163466666Y-64552380D01*
X163371428Y-64552380D01*
X163228571Y-64504761D01*
X163133333Y-64409523D01*
X163085714Y-64314285D01*
X163038095Y-64123809D01*
X163038095Y-63980952D01*
X163085714Y-63790476D01*
X163133333Y-63695238D01*
X163228571Y-63600000D01*
X163371428Y-63552380D01*
X163466666Y-63552380D01*
X163609523Y-63600000D01*
X163657142Y-63647619D01*
X164609523Y-64552380D02*
X164038095Y-64552380D01*
X164323809Y-64552380D02*
X164323809Y-63552380D01*
X164228571Y-63695238D01*
X164133333Y-63790476D01*
X164038095Y-63838095D01*
X165466666Y-63552380D02*
X165276190Y-63552380D01*
X165180952Y-63600000D01*
X165133333Y-63647619D01*
X165038095Y-63790476D01*
X164990476Y-63980952D01*
X164990476Y-64361904D01*
X165038095Y-64457142D01*
X165085714Y-64504761D01*
X165180952Y-64552380D01*
X165371428Y-64552380D01*
X165466666Y-64504761D01*
X165514285Y-64457142D01*
X165561904Y-64361904D01*
X165561904Y-64123809D01*
X165514285Y-64028571D01*
X165466666Y-63980952D01*
X165371428Y-63933333D01*
X165180952Y-63933333D01*
X165085714Y-63980952D01*
X165038095Y-64028571D01*
X164990476Y-64123809D01*
%TO.C,C17*%
X181292857Y-86017857D02*
X181257142Y-86053571D01*
X181150000Y-86089285D01*
X181078571Y-86089285D01*
X180971428Y-86053571D01*
X180900000Y-85982142D01*
X180864285Y-85910714D01*
X180828571Y-85767857D01*
X180828571Y-85660714D01*
X180864285Y-85517857D01*
X180900000Y-85446428D01*
X180971428Y-85375000D01*
X181078571Y-85339285D01*
X181150000Y-85339285D01*
X181257142Y-85375000D01*
X181292857Y-85410714D01*
X182007142Y-86089285D02*
X181578571Y-86089285D01*
X181792857Y-86089285D02*
X181792857Y-85339285D01*
X181721428Y-85446428D01*
X181650000Y-85517857D01*
X181578571Y-85553571D01*
X182257142Y-85339285D02*
X182757142Y-85339285D01*
X182435714Y-86089285D01*
%TO.C,C18*%
X158857142Y-98457142D02*
X158809523Y-98504761D01*
X158666666Y-98552380D01*
X158571428Y-98552380D01*
X158428571Y-98504761D01*
X158333333Y-98409523D01*
X158285714Y-98314285D01*
X158238095Y-98123809D01*
X158238095Y-97980952D01*
X158285714Y-97790476D01*
X158333333Y-97695238D01*
X158428571Y-97600000D01*
X158571428Y-97552380D01*
X158666666Y-97552380D01*
X158809523Y-97600000D01*
X158857142Y-97647619D01*
X159809523Y-98552380D02*
X159238095Y-98552380D01*
X159523809Y-98552380D02*
X159523809Y-97552380D01*
X159428571Y-97695238D01*
X159333333Y-97790476D01*
X159238095Y-97838095D01*
X160380952Y-97980952D02*
X160285714Y-97933333D01*
X160238095Y-97885714D01*
X160190476Y-97790476D01*
X160190476Y-97742857D01*
X160238095Y-97647619D01*
X160285714Y-97600000D01*
X160380952Y-97552380D01*
X160571428Y-97552380D01*
X160666666Y-97600000D01*
X160714285Y-97647619D01*
X160761904Y-97742857D01*
X160761904Y-97790476D01*
X160714285Y-97885714D01*
X160666666Y-97933333D01*
X160571428Y-97980952D01*
X160380952Y-97980952D01*
X160285714Y-98028571D01*
X160238095Y-98076190D01*
X160190476Y-98171428D01*
X160190476Y-98361904D01*
X160238095Y-98457142D01*
X160285714Y-98504761D01*
X160380952Y-98552380D01*
X160571428Y-98552380D01*
X160666666Y-98504761D01*
X160714285Y-98457142D01*
X160761904Y-98361904D01*
X160761904Y-98171428D01*
X160714285Y-98076190D01*
X160666666Y-98028571D01*
X160571428Y-97980952D01*
%TO.C,C19*%
X160457142Y-79657142D02*
X160409523Y-79704761D01*
X160266666Y-79752380D01*
X160171428Y-79752380D01*
X160028571Y-79704761D01*
X159933333Y-79609523D01*
X159885714Y-79514285D01*
X159838095Y-79323809D01*
X159838095Y-79180952D01*
X159885714Y-78990476D01*
X159933333Y-78895238D01*
X160028571Y-78800000D01*
X160171428Y-78752380D01*
X160266666Y-78752380D01*
X160409523Y-78800000D01*
X160457142Y-78847619D01*
X161409523Y-79752380D02*
X160838095Y-79752380D01*
X161123809Y-79752380D02*
X161123809Y-78752380D01*
X161028571Y-78895238D01*
X160933333Y-78990476D01*
X160838095Y-79038095D01*
X161885714Y-79752380D02*
X162076190Y-79752380D01*
X162171428Y-79704761D01*
X162219047Y-79657142D01*
X162314285Y-79514285D01*
X162361904Y-79323809D01*
X162361904Y-78942857D01*
X162314285Y-78847619D01*
X162266666Y-78800000D01*
X162171428Y-78752380D01*
X161980952Y-78752380D01*
X161885714Y-78800000D01*
X161838095Y-78847619D01*
X161790476Y-78942857D01*
X161790476Y-79180952D01*
X161838095Y-79276190D01*
X161885714Y-79323809D01*
X161980952Y-79371428D01*
X162171428Y-79371428D01*
X162266666Y-79323809D01*
X162314285Y-79276190D01*
X162361904Y-79180952D01*
%TO.C,C22*%
X167557142Y-82242857D02*
X167604761Y-82290476D01*
X167652380Y-82433333D01*
X167652380Y-82528571D01*
X167604761Y-82671428D01*
X167509523Y-82766666D01*
X167414285Y-82814285D01*
X167223809Y-82861904D01*
X167080952Y-82861904D01*
X166890476Y-82814285D01*
X166795238Y-82766666D01*
X166700000Y-82671428D01*
X166652380Y-82528571D01*
X166652380Y-82433333D01*
X166700000Y-82290476D01*
X166747619Y-82242857D01*
X166747619Y-81861904D02*
X166700000Y-81814285D01*
X166652380Y-81719047D01*
X166652380Y-81480952D01*
X166700000Y-81385714D01*
X166747619Y-81338095D01*
X166842857Y-81290476D01*
X166938095Y-81290476D01*
X167080952Y-81338095D01*
X167652380Y-81909523D01*
X167652380Y-81290476D01*
X166747619Y-80909523D02*
X166700000Y-80861904D01*
X166652380Y-80766666D01*
X166652380Y-80528571D01*
X166700000Y-80433333D01*
X166747619Y-80385714D01*
X166842857Y-80338095D01*
X166938095Y-80338095D01*
X167080952Y-80385714D01*
X167652380Y-80957142D01*
X167652380Y-80338095D01*
%TO.C,C24*%
D14*
X164171428Y-81728571D02*
X164180952Y-81738095D01*
X164190476Y-81766666D01*
X164190476Y-81785714D01*
X164180952Y-81814285D01*
X164161904Y-81833333D01*
X164142857Y-81842857D01*
X164104761Y-81852380D01*
X164076190Y-81852380D01*
X164038095Y-81842857D01*
X164019047Y-81833333D01*
X164000000Y-81814285D01*
X163990476Y-81785714D01*
X163990476Y-81766666D01*
X164000000Y-81738095D01*
X164009523Y-81728571D01*
X164009523Y-81652380D02*
X164000000Y-81642857D01*
X163990476Y-81623809D01*
X163990476Y-81576190D01*
X164000000Y-81557142D01*
X164009523Y-81547619D01*
X164028571Y-81538095D01*
X164047619Y-81538095D01*
X164076190Y-81547619D01*
X164190476Y-81661904D01*
X164190476Y-81538095D01*
X164057142Y-81366666D02*
X164190476Y-81366666D01*
X163980952Y-81414285D02*
X164123809Y-81461904D01*
X164123809Y-81338095D01*
%TO.C,C26*%
D10*
X119757142Y-90957142D02*
X119709523Y-91004761D01*
X119566666Y-91052380D01*
X119471428Y-91052380D01*
X119328571Y-91004761D01*
X119233333Y-90909523D01*
X119185714Y-90814285D01*
X119138095Y-90623809D01*
X119138095Y-90480952D01*
X119185714Y-90290476D01*
X119233333Y-90195238D01*
X119328571Y-90100000D01*
X119471428Y-90052380D01*
X119566666Y-90052380D01*
X119709523Y-90100000D01*
X119757142Y-90147619D01*
X120138095Y-90147619D02*
X120185714Y-90100000D01*
X120280952Y-90052380D01*
X120519047Y-90052380D01*
X120614285Y-90100000D01*
X120661904Y-90147619D01*
X120709523Y-90242857D01*
X120709523Y-90338095D01*
X120661904Y-90480952D01*
X120090476Y-91052380D01*
X120709523Y-91052380D01*
X121566666Y-90052380D02*
X121376190Y-90052380D01*
X121280952Y-90100000D01*
X121233333Y-90147619D01*
X121138095Y-90290476D01*
X121090476Y-90480952D01*
X121090476Y-90861904D01*
X121138095Y-90957142D01*
X121185714Y-91004761D01*
X121280952Y-91052380D01*
X121471428Y-91052380D01*
X121566666Y-91004761D01*
X121614285Y-90957142D01*
X121661904Y-90861904D01*
X121661904Y-90623809D01*
X121614285Y-90528571D01*
X121566666Y-90480952D01*
X121471428Y-90433333D01*
X121280952Y-90433333D01*
X121185714Y-90480952D01*
X121138095Y-90528571D01*
X121090476Y-90623809D01*
%TO.C,C27*%
X160957142Y-96557142D02*
X160909523Y-96604761D01*
X160766666Y-96652380D01*
X160671428Y-96652380D01*
X160528571Y-96604761D01*
X160433333Y-96509523D01*
X160385714Y-96414285D01*
X160338095Y-96223809D01*
X160338095Y-96080952D01*
X160385714Y-95890476D01*
X160433333Y-95795238D01*
X160528571Y-95700000D01*
X160671428Y-95652380D01*
X160766666Y-95652380D01*
X160909523Y-95700000D01*
X160957142Y-95747619D01*
X161338095Y-95747619D02*
X161385714Y-95700000D01*
X161480952Y-95652380D01*
X161719047Y-95652380D01*
X161814285Y-95700000D01*
X161861904Y-95747619D01*
X161909523Y-95842857D01*
X161909523Y-95938095D01*
X161861904Y-96080952D01*
X161290476Y-96652380D01*
X161909523Y-96652380D01*
X162242857Y-95652380D02*
X162909523Y-95652380D01*
X162480952Y-96652380D01*
%TO.C,C29*%
X119757142Y-89357142D02*
X119709523Y-89404761D01*
X119566666Y-89452380D01*
X119471428Y-89452380D01*
X119328571Y-89404761D01*
X119233333Y-89309523D01*
X119185714Y-89214285D01*
X119138095Y-89023809D01*
X119138095Y-88880952D01*
X119185714Y-88690476D01*
X119233333Y-88595238D01*
X119328571Y-88500000D01*
X119471428Y-88452380D01*
X119566666Y-88452380D01*
X119709523Y-88500000D01*
X119757142Y-88547619D01*
X120138095Y-88547619D02*
X120185714Y-88500000D01*
X120280952Y-88452380D01*
X120519047Y-88452380D01*
X120614285Y-88500000D01*
X120661904Y-88547619D01*
X120709523Y-88642857D01*
X120709523Y-88738095D01*
X120661904Y-88880952D01*
X120090476Y-89452380D01*
X120709523Y-89452380D01*
X121185714Y-89452380D02*
X121376190Y-89452380D01*
X121471428Y-89404761D01*
X121519047Y-89357142D01*
X121614285Y-89214285D01*
X121661904Y-89023809D01*
X121661904Y-88642857D01*
X121614285Y-88547619D01*
X121566666Y-88500000D01*
X121471428Y-88452380D01*
X121280952Y-88452380D01*
X121185714Y-88500000D01*
X121138095Y-88547619D01*
X121090476Y-88642857D01*
X121090476Y-88880952D01*
X121138095Y-88976190D01*
X121185714Y-89023809D01*
X121280952Y-89071428D01*
X121471428Y-89071428D01*
X121566666Y-89023809D01*
X121614285Y-88976190D01*
X121661904Y-88880952D01*
%TO.C,C31*%
X119957142Y-92557142D02*
X119909523Y-92604761D01*
X119766666Y-92652380D01*
X119671428Y-92652380D01*
X119528571Y-92604761D01*
X119433333Y-92509523D01*
X119385714Y-92414285D01*
X119338095Y-92223809D01*
X119338095Y-92080952D01*
X119385714Y-91890476D01*
X119433333Y-91795238D01*
X119528571Y-91700000D01*
X119671428Y-91652380D01*
X119766666Y-91652380D01*
X119909523Y-91700000D01*
X119957142Y-91747619D01*
X120290476Y-91652380D02*
X120909523Y-91652380D01*
X120576190Y-92033333D01*
X120719047Y-92033333D01*
X120814285Y-92080952D01*
X120861904Y-92128571D01*
X120909523Y-92223809D01*
X120909523Y-92461904D01*
X120861904Y-92557142D01*
X120814285Y-92604761D01*
X120719047Y-92652380D01*
X120433333Y-92652380D01*
X120338095Y-92604761D01*
X120290476Y-92557142D01*
X121861904Y-92652380D02*
X121290476Y-92652380D01*
X121576190Y-92652380D02*
X121576190Y-91652380D01*
X121480952Y-91795238D01*
X121385714Y-91890476D01*
X121290476Y-91938095D01*
%TO.C,C33*%
X189957142Y-107577142D02*
X189909523Y-107624761D01*
X189766666Y-107672380D01*
X189671428Y-107672380D01*
X189528571Y-107624761D01*
X189433333Y-107529523D01*
X189385714Y-107434285D01*
X189338095Y-107243809D01*
X189338095Y-107100952D01*
X189385714Y-106910476D01*
X189433333Y-106815238D01*
X189528571Y-106720000D01*
X189671428Y-106672380D01*
X189766666Y-106672380D01*
X189909523Y-106720000D01*
X189957142Y-106767619D01*
X190290476Y-106672380D02*
X190909523Y-106672380D01*
X190576190Y-107053333D01*
X190719047Y-107053333D01*
X190814285Y-107100952D01*
X190861904Y-107148571D01*
X190909523Y-107243809D01*
X190909523Y-107481904D01*
X190861904Y-107577142D01*
X190814285Y-107624761D01*
X190719047Y-107672380D01*
X190433333Y-107672380D01*
X190338095Y-107624761D01*
X190290476Y-107577142D01*
X191242857Y-106672380D02*
X191861904Y-106672380D01*
X191528571Y-107053333D01*
X191671428Y-107053333D01*
X191766666Y-107100952D01*
X191814285Y-107148571D01*
X191861904Y-107243809D01*
X191861904Y-107481904D01*
X191814285Y-107577142D01*
X191766666Y-107624761D01*
X191671428Y-107672380D01*
X191385714Y-107672380D01*
X191290476Y-107624761D01*
X191242857Y-107577142D01*
%TO.C,C34*%
X182957142Y-105357142D02*
X182909523Y-105404761D01*
X182766666Y-105452380D01*
X182671428Y-105452380D01*
X182528571Y-105404761D01*
X182433333Y-105309523D01*
X182385714Y-105214285D01*
X182338095Y-105023809D01*
X182338095Y-104880952D01*
X182385714Y-104690476D01*
X182433333Y-104595238D01*
X182528571Y-104500000D01*
X182671428Y-104452380D01*
X182766666Y-104452380D01*
X182909523Y-104500000D01*
X182957142Y-104547619D01*
X183290476Y-104452380D02*
X183909523Y-104452380D01*
X183576190Y-104833333D01*
X183719047Y-104833333D01*
X183814285Y-104880952D01*
X183861904Y-104928571D01*
X183909523Y-105023809D01*
X183909523Y-105261904D01*
X183861904Y-105357142D01*
X183814285Y-105404761D01*
X183719047Y-105452380D01*
X183433333Y-105452380D01*
X183338095Y-105404761D01*
X183290476Y-105357142D01*
X184766666Y-104785714D02*
X184766666Y-105452380D01*
X184528571Y-104404761D02*
X184290476Y-105119047D01*
X184909523Y-105119047D01*
%TO.C,C35*%
X188557142Y-97957142D02*
X188509523Y-98004761D01*
X188366666Y-98052380D01*
X188271428Y-98052380D01*
X188128571Y-98004761D01*
X188033333Y-97909523D01*
X187985714Y-97814285D01*
X187938095Y-97623809D01*
X187938095Y-97480952D01*
X187985714Y-97290476D01*
X188033333Y-97195238D01*
X188128571Y-97100000D01*
X188271428Y-97052380D01*
X188366666Y-97052380D01*
X188509523Y-97100000D01*
X188557142Y-97147619D01*
X188890476Y-97052380D02*
X189509523Y-97052380D01*
X189176190Y-97433333D01*
X189319047Y-97433333D01*
X189414285Y-97480952D01*
X189461904Y-97528571D01*
X189509523Y-97623809D01*
X189509523Y-97861904D01*
X189461904Y-97957142D01*
X189414285Y-98004761D01*
X189319047Y-98052380D01*
X189033333Y-98052380D01*
X188938095Y-98004761D01*
X188890476Y-97957142D01*
X190414285Y-97052380D02*
X189938095Y-97052380D01*
X189890476Y-97528571D01*
X189938095Y-97480952D01*
X190033333Y-97433333D01*
X190271428Y-97433333D01*
X190366666Y-97480952D01*
X190414285Y-97528571D01*
X190461904Y-97623809D01*
X190461904Y-97861904D01*
X190414285Y-97957142D01*
X190366666Y-98004761D01*
X190271428Y-98052380D01*
X190033333Y-98052380D01*
X189938095Y-98004761D01*
X189890476Y-97957142D01*
%TO.C,C36*%
D15*
X170678571Y-100878571D02*
X170654761Y-100902380D01*
X170583333Y-100926190D01*
X170535714Y-100926190D01*
X170464285Y-100902380D01*
X170416666Y-100854761D01*
X170392857Y-100807142D01*
X170369047Y-100711904D01*
X170369047Y-100640476D01*
X170392857Y-100545238D01*
X170416666Y-100497619D01*
X170464285Y-100450000D01*
X170535714Y-100426190D01*
X170583333Y-100426190D01*
X170654761Y-100450000D01*
X170678571Y-100473809D01*
X170845238Y-100426190D02*
X171154761Y-100426190D01*
X170988095Y-100616666D01*
X171059523Y-100616666D01*
X171107142Y-100640476D01*
X171130952Y-100664285D01*
X171154761Y-100711904D01*
X171154761Y-100830952D01*
X171130952Y-100878571D01*
X171107142Y-100902380D01*
X171059523Y-100926190D01*
X170916666Y-100926190D01*
X170869047Y-100902380D01*
X170845238Y-100878571D01*
X171583333Y-100426190D02*
X171488095Y-100426190D01*
X171440476Y-100450000D01*
X171416666Y-100473809D01*
X171369047Y-100545238D01*
X171345238Y-100640476D01*
X171345238Y-100830952D01*
X171369047Y-100878571D01*
X171392857Y-100902380D01*
X171440476Y-100926190D01*
X171535714Y-100926190D01*
X171583333Y-100902380D01*
X171607142Y-100878571D01*
X171630952Y-100830952D01*
X171630952Y-100711904D01*
X171607142Y-100664285D01*
X171583333Y-100640476D01*
X171535714Y-100616666D01*
X171440476Y-100616666D01*
X171392857Y-100640476D01*
X171369047Y-100664285D01*
X171345238Y-100711904D01*
%TO.C,C37*%
X173178571Y-100878571D02*
X173154761Y-100902380D01*
X173083333Y-100926190D01*
X173035714Y-100926190D01*
X172964285Y-100902380D01*
X172916666Y-100854761D01*
X172892857Y-100807142D01*
X172869047Y-100711904D01*
X172869047Y-100640476D01*
X172892857Y-100545238D01*
X172916666Y-100497619D01*
X172964285Y-100450000D01*
X173035714Y-100426190D01*
X173083333Y-100426190D01*
X173154761Y-100450000D01*
X173178571Y-100473809D01*
X173345238Y-100426190D02*
X173654761Y-100426190D01*
X173488095Y-100616666D01*
X173559523Y-100616666D01*
X173607142Y-100640476D01*
X173630952Y-100664285D01*
X173654761Y-100711904D01*
X173654761Y-100830952D01*
X173630952Y-100878571D01*
X173607142Y-100902380D01*
X173559523Y-100926190D01*
X173416666Y-100926190D01*
X173369047Y-100902380D01*
X173345238Y-100878571D01*
X173821428Y-100426190D02*
X174154761Y-100426190D01*
X173940476Y-100926190D01*
%TO.C,C38*%
D10*
X156107142Y-111427142D02*
X156059523Y-111474761D01*
X155916666Y-111522380D01*
X155821428Y-111522380D01*
X155678571Y-111474761D01*
X155583333Y-111379523D01*
X155535714Y-111284285D01*
X155488095Y-111093809D01*
X155488095Y-110950952D01*
X155535714Y-110760476D01*
X155583333Y-110665238D01*
X155678571Y-110570000D01*
X155821428Y-110522380D01*
X155916666Y-110522380D01*
X156059523Y-110570000D01*
X156107142Y-110617619D01*
X156440476Y-110522380D02*
X157059523Y-110522380D01*
X156726190Y-110903333D01*
X156869047Y-110903333D01*
X156964285Y-110950952D01*
X157011904Y-110998571D01*
X157059523Y-111093809D01*
X157059523Y-111331904D01*
X157011904Y-111427142D01*
X156964285Y-111474761D01*
X156869047Y-111522380D01*
X156583333Y-111522380D01*
X156488095Y-111474761D01*
X156440476Y-111427142D01*
X157630952Y-110950952D02*
X157535714Y-110903333D01*
X157488095Y-110855714D01*
X157440476Y-110760476D01*
X157440476Y-110712857D01*
X157488095Y-110617619D01*
X157535714Y-110570000D01*
X157630952Y-110522380D01*
X157821428Y-110522380D01*
X157916666Y-110570000D01*
X157964285Y-110617619D01*
X158011904Y-110712857D01*
X158011904Y-110760476D01*
X157964285Y-110855714D01*
X157916666Y-110903333D01*
X157821428Y-110950952D01*
X157630952Y-110950952D01*
X157535714Y-110998571D01*
X157488095Y-111046190D01*
X157440476Y-111141428D01*
X157440476Y-111331904D01*
X157488095Y-111427142D01*
X157535714Y-111474761D01*
X157630952Y-111522380D01*
X157821428Y-111522380D01*
X157916666Y-111474761D01*
X157964285Y-111427142D01*
X158011904Y-111331904D01*
X158011904Y-111141428D01*
X157964285Y-111046190D01*
X157916666Y-110998571D01*
X157821428Y-110950952D01*
%TO.C,C39*%
X156457142Y-102642857D02*
X156504761Y-102690476D01*
X156552380Y-102833333D01*
X156552380Y-102928571D01*
X156504761Y-103071428D01*
X156409523Y-103166666D01*
X156314285Y-103214285D01*
X156123809Y-103261904D01*
X155980952Y-103261904D01*
X155790476Y-103214285D01*
X155695238Y-103166666D01*
X155600000Y-103071428D01*
X155552380Y-102928571D01*
X155552380Y-102833333D01*
X155600000Y-102690476D01*
X155647619Y-102642857D01*
X155552380Y-102309523D02*
X155552380Y-101690476D01*
X155933333Y-102023809D01*
X155933333Y-101880952D01*
X155980952Y-101785714D01*
X156028571Y-101738095D01*
X156123809Y-101690476D01*
X156361904Y-101690476D01*
X156457142Y-101738095D01*
X156504761Y-101785714D01*
X156552380Y-101880952D01*
X156552380Y-102166666D01*
X156504761Y-102261904D01*
X156457142Y-102309523D01*
X156552380Y-101214285D02*
X156552380Y-101023809D01*
X156504761Y-100928571D01*
X156457142Y-100880952D01*
X156314285Y-100785714D01*
X156123809Y-100738095D01*
X155742857Y-100738095D01*
X155647619Y-100785714D01*
X155600000Y-100833333D01*
X155552380Y-100928571D01*
X155552380Y-101119047D01*
X155600000Y-101214285D01*
X155647619Y-101261904D01*
X155742857Y-101309523D01*
X155980952Y-101309523D01*
X156076190Y-101261904D01*
X156123809Y-101214285D01*
X156171428Y-101119047D01*
X156171428Y-100928571D01*
X156123809Y-100833333D01*
X156076190Y-100785714D01*
X155980952Y-100738095D01*
%TO.C,C40*%
X163107142Y-106392857D02*
X163154761Y-106440476D01*
X163202380Y-106583333D01*
X163202380Y-106678571D01*
X163154761Y-106821428D01*
X163059523Y-106916666D01*
X162964285Y-106964285D01*
X162773809Y-107011904D01*
X162630952Y-107011904D01*
X162440476Y-106964285D01*
X162345238Y-106916666D01*
X162250000Y-106821428D01*
X162202380Y-106678571D01*
X162202380Y-106583333D01*
X162250000Y-106440476D01*
X162297619Y-106392857D01*
X162535714Y-105535714D02*
X163202380Y-105535714D01*
X162154761Y-105773809D02*
X162869047Y-106011904D01*
X162869047Y-105392857D01*
X162202380Y-104821428D02*
X162202380Y-104726190D01*
X162250000Y-104630952D01*
X162297619Y-104583333D01*
X162392857Y-104535714D01*
X162583333Y-104488095D01*
X162821428Y-104488095D01*
X163011904Y-104535714D01*
X163107142Y-104583333D01*
X163154761Y-104630952D01*
X163202380Y-104726190D01*
X163202380Y-104821428D01*
X163154761Y-104916666D01*
X163107142Y-104964285D01*
X163011904Y-105011904D01*
X162821428Y-105059523D01*
X162583333Y-105059523D01*
X162392857Y-105011904D01*
X162297619Y-104964285D01*
X162250000Y-104916666D01*
X162202380Y-104821428D01*
%TO.C,C41*%
D16*
X144290607Y-96853093D02*
X144309355Y-96871841D01*
X144328102Y-96928084D01*
X144328102Y-96965579D01*
X144309355Y-97021822D01*
X144271859Y-97059317D01*
X144234364Y-97078065D01*
X144159373Y-97096813D01*
X144103130Y-97096813D01*
X144028140Y-97078065D01*
X143990644Y-97059317D01*
X143953149Y-97021822D01*
X143934401Y-96965579D01*
X143934401Y-96928084D01*
X143953149Y-96871841D01*
X143971897Y-96853093D01*
X144065635Y-96515635D02*
X144328102Y-96515635D01*
X143915654Y-96609373D02*
X144196869Y-96703112D01*
X144196869Y-96459392D01*
X144328102Y-96103186D02*
X144328102Y-96328158D01*
X144328102Y-96215672D02*
X143934401Y-96215672D01*
X143990644Y-96253168D01*
X144028140Y-96290663D01*
X144046887Y-96328158D01*
%TO.C,C43*%
X137590607Y-110053093D02*
X137609355Y-110071841D01*
X137628102Y-110128084D01*
X137628102Y-110165579D01*
X137609355Y-110221822D01*
X137571859Y-110259317D01*
X137534364Y-110278065D01*
X137459373Y-110296813D01*
X137403130Y-110296813D01*
X137328140Y-110278065D01*
X137290644Y-110259317D01*
X137253149Y-110221822D01*
X137234401Y-110165579D01*
X137234401Y-110128084D01*
X137253149Y-110071841D01*
X137271897Y-110053093D01*
X137365635Y-109715635D02*
X137628102Y-109715635D01*
X137215654Y-109809373D02*
X137496869Y-109903112D01*
X137496869Y-109659392D01*
X137234401Y-109546906D02*
X137234401Y-109303186D01*
X137384383Y-109434420D01*
X137384383Y-109378177D01*
X137403130Y-109340682D01*
X137421878Y-109321934D01*
X137459373Y-109303186D01*
X137553112Y-109303186D01*
X137590607Y-109321934D01*
X137609355Y-109340682D01*
X137628102Y-109378177D01*
X137628102Y-109490663D01*
X137609355Y-109528158D01*
X137590607Y-109546906D01*
%TO.C,D2*%
D10*
X145846428Y-112139285D02*
X145846428Y-111389285D01*
X146025000Y-111389285D01*
X146132142Y-111425000D01*
X146203571Y-111496428D01*
X146239285Y-111567857D01*
X146275000Y-111710714D01*
X146275000Y-111817857D01*
X146239285Y-111960714D01*
X146203571Y-112032142D01*
X146132142Y-112103571D01*
X146025000Y-112139285D01*
X145846428Y-112139285D01*
X146560714Y-111460714D02*
X146596428Y-111425000D01*
X146667857Y-111389285D01*
X146846428Y-111389285D01*
X146917857Y-111425000D01*
X146953571Y-111460714D01*
X146989285Y-111532142D01*
X146989285Y-111603571D01*
X146953571Y-111710714D01*
X146525000Y-112139285D01*
X146989285Y-112139285D01*
%TO.C,F1*%
D15*
X179258333Y-85164285D02*
X179091666Y-85164285D01*
X179091666Y-85426190D02*
X179091666Y-84926190D01*
X179329761Y-84926190D01*
X179782142Y-85426190D02*
X179496428Y-85426190D01*
X179639285Y-85426190D02*
X179639285Y-84926190D01*
X179591666Y-84997619D01*
X179544047Y-85045238D01*
X179496428Y-85069047D01*
%TO.C,F2*%
D10*
X169266666Y-97928571D02*
X168933333Y-97928571D01*
X168933333Y-98452380D02*
X168933333Y-97452380D01*
X169409523Y-97452380D01*
X169742857Y-97547619D02*
X169790476Y-97500000D01*
X169885714Y-97452380D01*
X170123809Y-97452380D01*
X170219047Y-97500000D01*
X170266666Y-97547619D01*
X170314285Y-97642857D01*
X170314285Y-97738095D01*
X170266666Y-97880952D01*
X169695238Y-98452380D01*
X170314285Y-98452380D01*
%TO.C,F3*%
X171766666Y-97328571D02*
X171433333Y-97328571D01*
X171433333Y-97852380D02*
X171433333Y-96852380D01*
X171909523Y-96852380D01*
X172195238Y-96852380D02*
X172814285Y-96852380D01*
X172480952Y-97233333D01*
X172623809Y-97233333D01*
X172719047Y-97280952D01*
X172766666Y-97328571D01*
X172814285Y-97423809D01*
X172814285Y-97661904D01*
X172766666Y-97757142D01*
X172719047Y-97804761D01*
X172623809Y-97852380D01*
X172338095Y-97852380D01*
X172242857Y-97804761D01*
X172195238Y-97757142D01*
%TO.C,F4*%
X146428571Y-110433333D02*
X146428571Y-110766666D01*
X146952380Y-110766666D02*
X145952380Y-110766666D01*
X145952380Y-110290476D01*
X146285714Y-109480952D02*
X146952380Y-109480952D01*
X145904761Y-109719047D02*
X146619047Y-109957142D01*
X146619047Y-109338095D01*
%TO.C,J1*%
X128666666Y-73152380D02*
X128666666Y-73866666D01*
X128619047Y-74009523D01*
X128523809Y-74104761D01*
X128380952Y-74152380D01*
X128285714Y-74152380D01*
X129666666Y-74152380D02*
X129095238Y-74152380D01*
X129380952Y-74152380D02*
X129380952Y-73152380D01*
X129285714Y-73295238D01*
X129190476Y-73390476D01*
X129095238Y-73438095D01*
%TO.C,J3*%
X126066666Y-104652380D02*
X126066666Y-105366666D01*
X126019047Y-105509523D01*
X125923809Y-105604761D01*
X125780952Y-105652380D01*
X125685714Y-105652380D01*
X126447619Y-104652380D02*
X127066666Y-104652380D01*
X126733333Y-105033333D01*
X126876190Y-105033333D01*
X126971428Y-105080952D01*
X127019047Y-105128571D01*
X127066666Y-105223809D01*
X127066666Y-105461904D01*
X127019047Y-105557142D01*
X126971428Y-105604761D01*
X126876190Y-105652380D01*
X126590476Y-105652380D01*
X126495238Y-105604761D01*
X126447619Y-105557142D01*
%TO.C,J4*%
X112866666Y-104652380D02*
X112866666Y-105366666D01*
X112819047Y-105509523D01*
X112723809Y-105604761D01*
X112580952Y-105652380D01*
X112485714Y-105652380D01*
X113771428Y-104985714D02*
X113771428Y-105652380D01*
X113533333Y-104604761D02*
X113295238Y-105319047D01*
X113914285Y-105319047D01*
%TO.C,J5*%
X164566666Y-104552380D02*
X164566666Y-105266666D01*
X164519047Y-105409523D01*
X164423809Y-105504761D01*
X164280952Y-105552380D01*
X164185714Y-105552380D01*
X165519047Y-104552380D02*
X165042857Y-104552380D01*
X164995238Y-105028571D01*
X165042857Y-104980952D01*
X165138095Y-104933333D01*
X165376190Y-104933333D01*
X165471428Y-104980952D01*
X165519047Y-105028571D01*
X165566666Y-105123809D01*
X165566666Y-105361904D01*
X165519047Y-105457142D01*
X165471428Y-105504761D01*
X165376190Y-105552380D01*
X165138095Y-105552380D01*
X165042857Y-105504761D01*
X164995238Y-105457142D01*
%TO.C,J6*%
X188266666Y-114652380D02*
X188266666Y-115366666D01*
X188219047Y-115509523D01*
X188123809Y-115604761D01*
X187980952Y-115652380D01*
X187885714Y-115652380D01*
X189171428Y-114652380D02*
X188980952Y-114652380D01*
X188885714Y-114700000D01*
X188838095Y-114747619D01*
X188742857Y-114890476D01*
X188695238Y-115080952D01*
X188695238Y-115461904D01*
X188742857Y-115557142D01*
X188790476Y-115604761D01*
X188885714Y-115652380D01*
X189076190Y-115652380D01*
X189171428Y-115604761D01*
X189219047Y-115557142D01*
X189266666Y-115461904D01*
X189266666Y-115223809D01*
X189219047Y-115128571D01*
X189171428Y-115080952D01*
X189076190Y-115033333D01*
X188885714Y-115033333D01*
X188790476Y-115080952D01*
X188742857Y-115128571D01*
X188695238Y-115223809D01*
%TO.C,J8*%
X116466666Y-80252380D02*
X116466666Y-80966666D01*
X116419047Y-81109523D01*
X116323809Y-81204761D01*
X116180952Y-81252380D01*
X116085714Y-81252380D01*
X117085714Y-80680952D02*
X116990476Y-80633333D01*
X116942857Y-80585714D01*
X116895238Y-80490476D01*
X116895238Y-80442857D01*
X116942857Y-80347619D01*
X116990476Y-80300000D01*
X117085714Y-80252380D01*
X117276190Y-80252380D01*
X117371428Y-80300000D01*
X117419047Y-80347619D01*
X117466666Y-80442857D01*
X117466666Y-80490476D01*
X117419047Y-80585714D01*
X117371428Y-80633333D01*
X117276190Y-80680952D01*
X117085714Y-80680952D01*
X116990476Y-80728571D01*
X116942857Y-80776190D01*
X116895238Y-80871428D01*
X116895238Y-81061904D01*
X116942857Y-81157142D01*
X116990476Y-81204761D01*
X117085714Y-81252380D01*
X117276190Y-81252380D01*
X117371428Y-81204761D01*
X117419047Y-81157142D01*
X117466666Y-81061904D01*
X117466666Y-80871428D01*
X117419047Y-80776190D01*
X117371428Y-80728571D01*
X117276190Y-80680952D01*
%TO.C,L1*%
X137539285Y-104025000D02*
X137539285Y-104382142D01*
X136789285Y-104382142D01*
X137539285Y-103382142D02*
X137539285Y-103810714D01*
X137539285Y-103596428D02*
X136789285Y-103596428D01*
X136896428Y-103667857D01*
X136967857Y-103739285D01*
X137003571Y-103810714D01*
%TO.C,L3*%
X179654880Y-101852380D02*
X179178690Y-101852380D01*
X179178690Y-100852380D01*
X179892976Y-100852380D02*
X180512023Y-100852380D01*
X180178690Y-101233333D01*
X180321547Y-101233333D01*
X180416785Y-101280952D01*
X180464404Y-101328571D01*
X180512023Y-101423809D01*
X180512023Y-101661904D01*
X180464404Y-101757142D01*
X180416785Y-101804761D01*
X180321547Y-101852380D01*
X180035833Y-101852380D01*
X179940595Y-101804761D01*
X179892976Y-101757142D01*
%TO.C,L4*%
X149133333Y-105052380D02*
X148657142Y-105052380D01*
X148657142Y-104052380D01*
X149895238Y-104385714D02*
X149895238Y-105052380D01*
X149657142Y-104004761D02*
X149419047Y-104719047D01*
X150038095Y-104719047D01*
%TO.C,Q3*%
D15*
X141473809Y-115047619D02*
X141450000Y-115095238D01*
X141402380Y-115142857D01*
X141330952Y-115214285D01*
X141307142Y-115261904D01*
X141307142Y-115309523D01*
X141426190Y-115285714D02*
X141402380Y-115333333D01*
X141354761Y-115380952D01*
X141259523Y-115404761D01*
X141092857Y-115404761D01*
X140997619Y-115380952D01*
X140950000Y-115333333D01*
X140926190Y-115285714D01*
X140926190Y-115190476D01*
X140950000Y-115142857D01*
X140997619Y-115095238D01*
X141092857Y-115071428D01*
X141259523Y-115071428D01*
X141354761Y-115095238D01*
X141402380Y-115142857D01*
X141426190Y-115190476D01*
X141426190Y-115285714D01*
X140926190Y-114904761D02*
X140926190Y-114595238D01*
X141116666Y-114761904D01*
X141116666Y-114690476D01*
X141140476Y-114642857D01*
X141164285Y-114619047D01*
X141211904Y-114595238D01*
X141330952Y-114595238D01*
X141378571Y-114619047D01*
X141402380Y-114642857D01*
X141426190Y-114690476D01*
X141426190Y-114833333D01*
X141402380Y-114880952D01*
X141378571Y-114904761D01*
%TO.C,R1*%
D10*
X183533333Y-82152380D02*
X183200000Y-81676190D01*
X182961904Y-82152380D02*
X182961904Y-81152380D01*
X183342857Y-81152380D01*
X183438095Y-81200000D01*
X183485714Y-81247619D01*
X183533333Y-81342857D01*
X183533333Y-81485714D01*
X183485714Y-81580952D01*
X183438095Y-81628571D01*
X183342857Y-81676190D01*
X182961904Y-81676190D01*
X184485714Y-82152380D02*
X183914285Y-82152380D01*
X184200000Y-82152380D02*
X184200000Y-81152380D01*
X184104761Y-81295238D01*
X184009523Y-81390476D01*
X183914285Y-81438095D01*
%TO.C,R2*%
X183533333Y-80052380D02*
X183200000Y-79576190D01*
X182961904Y-80052380D02*
X182961904Y-79052380D01*
X183342857Y-79052380D01*
X183438095Y-79100000D01*
X183485714Y-79147619D01*
X183533333Y-79242857D01*
X183533333Y-79385714D01*
X183485714Y-79480952D01*
X183438095Y-79528571D01*
X183342857Y-79576190D01*
X182961904Y-79576190D01*
X183914285Y-79147619D02*
X183961904Y-79100000D01*
X184057142Y-79052380D01*
X184295238Y-79052380D01*
X184390476Y-79100000D01*
X184438095Y-79147619D01*
X184485714Y-79242857D01*
X184485714Y-79338095D01*
X184438095Y-79480952D01*
X183866666Y-80052380D01*
X184485714Y-80052380D01*
%TO.C,R3*%
D15*
X148229166Y-89626190D02*
X148062500Y-89388095D01*
X147943452Y-89626190D02*
X147943452Y-89126190D01*
X148133928Y-89126190D01*
X148181547Y-89150000D01*
X148205357Y-89173809D01*
X148229166Y-89221428D01*
X148229166Y-89292857D01*
X148205357Y-89340476D01*
X148181547Y-89364285D01*
X148133928Y-89388095D01*
X147943452Y-89388095D01*
X148395833Y-89126190D02*
X148705357Y-89126190D01*
X148538690Y-89316666D01*
X148610119Y-89316666D01*
X148657738Y-89340476D01*
X148681547Y-89364285D01*
X148705357Y-89411904D01*
X148705357Y-89530952D01*
X148681547Y-89578571D01*
X148657738Y-89602380D01*
X148610119Y-89626190D01*
X148467261Y-89626190D01*
X148419642Y-89602380D01*
X148395833Y-89578571D01*
%TO.C,R4*%
D10*
X151847619Y-93533333D02*
X152323809Y-93200000D01*
X151847619Y-92961904D02*
X152847619Y-92961904D01*
X152847619Y-93342857D01*
X152800000Y-93438095D01*
X152752380Y-93485714D01*
X152657142Y-93533333D01*
X152514285Y-93533333D01*
X152419047Y-93485714D01*
X152371428Y-93438095D01*
X152323809Y-93342857D01*
X152323809Y-92961904D01*
X152514285Y-94390476D02*
X151847619Y-94390476D01*
X152895238Y-94152380D02*
X152180952Y-93914285D01*
X152180952Y-94533333D01*
%TO.C,R5*%
X150147619Y-93533333D02*
X150623809Y-93200000D01*
X150147619Y-92961904D02*
X151147619Y-92961904D01*
X151147619Y-93342857D01*
X151100000Y-93438095D01*
X151052380Y-93485714D01*
X150957142Y-93533333D01*
X150814285Y-93533333D01*
X150719047Y-93485714D01*
X150671428Y-93438095D01*
X150623809Y-93342857D01*
X150623809Y-92961904D01*
X151147619Y-94438095D02*
X151147619Y-93961904D01*
X150671428Y-93914285D01*
X150719047Y-93961904D01*
X150766666Y-94057142D01*
X150766666Y-94295238D01*
X150719047Y-94390476D01*
X150671428Y-94438095D01*
X150576190Y-94485714D01*
X150338095Y-94485714D01*
X150242857Y-94438095D01*
X150195238Y-94390476D01*
X150147619Y-94295238D01*
X150147619Y-94057142D01*
X150195238Y-93961904D01*
X150242857Y-93914285D01*
%TO.C,R6*%
X161133333Y-68252380D02*
X160800000Y-67776190D01*
X160561904Y-68252380D02*
X160561904Y-67252380D01*
X160942857Y-67252380D01*
X161038095Y-67300000D01*
X161085714Y-67347619D01*
X161133333Y-67442857D01*
X161133333Y-67585714D01*
X161085714Y-67680952D01*
X161038095Y-67728571D01*
X160942857Y-67776190D01*
X160561904Y-67776190D01*
X161990476Y-67252380D02*
X161800000Y-67252380D01*
X161704761Y-67300000D01*
X161657142Y-67347619D01*
X161561904Y-67490476D01*
X161514285Y-67680952D01*
X161514285Y-68061904D01*
X161561904Y-68157142D01*
X161609523Y-68204761D01*
X161704761Y-68252380D01*
X161895238Y-68252380D01*
X161990476Y-68204761D01*
X162038095Y-68157142D01*
X162085714Y-68061904D01*
X162085714Y-67823809D01*
X162038095Y-67728571D01*
X161990476Y-67680952D01*
X161895238Y-67633333D01*
X161704761Y-67633333D01*
X161609523Y-67680952D01*
X161561904Y-67728571D01*
X161514285Y-67823809D01*
%TO.C,R8*%
X159733333Y-101252380D02*
X159400000Y-100776190D01*
X159161904Y-101252380D02*
X159161904Y-100252380D01*
X159542857Y-100252380D01*
X159638095Y-100300000D01*
X159685714Y-100347619D01*
X159733333Y-100442857D01*
X159733333Y-100585714D01*
X159685714Y-100680952D01*
X159638095Y-100728571D01*
X159542857Y-100776190D01*
X159161904Y-100776190D01*
X160304761Y-100680952D02*
X160209523Y-100633333D01*
X160161904Y-100585714D01*
X160114285Y-100490476D01*
X160114285Y-100442857D01*
X160161904Y-100347619D01*
X160209523Y-100300000D01*
X160304761Y-100252380D01*
X160495238Y-100252380D01*
X160590476Y-100300000D01*
X160638095Y-100347619D01*
X160685714Y-100442857D01*
X160685714Y-100490476D01*
X160638095Y-100585714D01*
X160590476Y-100633333D01*
X160495238Y-100680952D01*
X160304761Y-100680952D01*
X160209523Y-100728571D01*
X160161904Y-100776190D01*
X160114285Y-100871428D01*
X160114285Y-101061904D01*
X160161904Y-101157142D01*
X160209523Y-101204761D01*
X160304761Y-101252380D01*
X160495238Y-101252380D01*
X160590476Y-101204761D01*
X160638095Y-101157142D01*
X160685714Y-101061904D01*
X160685714Y-100871428D01*
X160638095Y-100776190D01*
X160590476Y-100728571D01*
X160495238Y-100680952D01*
%TO.C,R9*%
X167933333Y-104652380D02*
X167600000Y-104176190D01*
X167361904Y-104652380D02*
X167361904Y-103652380D01*
X167742857Y-103652380D01*
X167838095Y-103700000D01*
X167885714Y-103747619D01*
X167933333Y-103842857D01*
X167933333Y-103985714D01*
X167885714Y-104080952D01*
X167838095Y-104128571D01*
X167742857Y-104176190D01*
X167361904Y-104176190D01*
X168409523Y-104652380D02*
X168600000Y-104652380D01*
X168695238Y-104604761D01*
X168742857Y-104557142D01*
X168838095Y-104414285D01*
X168885714Y-104223809D01*
X168885714Y-103842857D01*
X168838095Y-103747619D01*
X168790476Y-103700000D01*
X168695238Y-103652380D01*
X168504761Y-103652380D01*
X168409523Y-103700000D01*
X168361904Y-103747619D01*
X168314285Y-103842857D01*
X168314285Y-104080952D01*
X168361904Y-104176190D01*
X168409523Y-104223809D01*
X168504761Y-104271428D01*
X168695238Y-104271428D01*
X168790476Y-104223809D01*
X168838095Y-104176190D01*
X168885714Y-104080952D01*
%TO.C,R17*%
X191252380Y-100342857D02*
X190776190Y-100676190D01*
X191252380Y-100914285D02*
X190252380Y-100914285D01*
X190252380Y-100533333D01*
X190300000Y-100438095D01*
X190347619Y-100390476D01*
X190442857Y-100342857D01*
X190585714Y-100342857D01*
X190680952Y-100390476D01*
X190728571Y-100438095D01*
X190776190Y-100533333D01*
X190776190Y-100914285D01*
X191252380Y-99390476D02*
X191252380Y-99961904D01*
X191252380Y-99676190D02*
X190252380Y-99676190D01*
X190395238Y-99771428D01*
X190490476Y-99866666D01*
X190538095Y-99961904D01*
X190252380Y-99057142D02*
X190252380Y-98390476D01*
X191252380Y-98819047D01*
%TO.C,R18*%
X192652380Y-100242857D02*
X192176190Y-100576190D01*
X192652380Y-100814285D02*
X191652380Y-100814285D01*
X191652380Y-100433333D01*
X191700000Y-100338095D01*
X191747619Y-100290476D01*
X191842857Y-100242857D01*
X191985714Y-100242857D01*
X192080952Y-100290476D01*
X192128571Y-100338095D01*
X192176190Y-100433333D01*
X192176190Y-100814285D01*
X192652380Y-99290476D02*
X192652380Y-99861904D01*
X192652380Y-99576190D02*
X191652380Y-99576190D01*
X191795238Y-99671428D01*
X191890476Y-99766666D01*
X191938095Y-99861904D01*
X192080952Y-98719047D02*
X192033333Y-98814285D01*
X191985714Y-98861904D01*
X191890476Y-98909523D01*
X191842857Y-98909523D01*
X191747619Y-98861904D01*
X191700000Y-98814285D01*
X191652380Y-98719047D01*
X191652380Y-98528571D01*
X191700000Y-98433333D01*
X191747619Y-98385714D01*
X191842857Y-98338095D01*
X191890476Y-98338095D01*
X191985714Y-98385714D01*
X192033333Y-98433333D01*
X192080952Y-98528571D01*
X192080952Y-98719047D01*
X192128571Y-98814285D01*
X192176190Y-98861904D01*
X192271428Y-98909523D01*
X192461904Y-98909523D01*
X192557142Y-98861904D01*
X192604761Y-98814285D01*
X192652380Y-98719047D01*
X192652380Y-98528571D01*
X192604761Y-98433333D01*
X192557142Y-98385714D01*
X192461904Y-98338095D01*
X192271428Y-98338095D01*
X192176190Y-98385714D01*
X192128571Y-98433333D01*
X192080952Y-98528571D01*
%TO.C,R21*%
X158747619Y-102457142D02*
X159223809Y-102123809D01*
X158747619Y-101885714D02*
X159747619Y-101885714D01*
X159747619Y-102266666D01*
X159700000Y-102361904D01*
X159652380Y-102409523D01*
X159557142Y-102457142D01*
X159414285Y-102457142D01*
X159319047Y-102409523D01*
X159271428Y-102361904D01*
X159223809Y-102266666D01*
X159223809Y-101885714D01*
X159652380Y-102838095D02*
X159700000Y-102885714D01*
X159747619Y-102980952D01*
X159747619Y-103219047D01*
X159700000Y-103314285D01*
X159652380Y-103361904D01*
X159557142Y-103409523D01*
X159461904Y-103409523D01*
X159319047Y-103361904D01*
X158747619Y-102790476D01*
X158747619Y-103409523D01*
X158747619Y-104361904D02*
X158747619Y-103790476D01*
X158747619Y-104076190D02*
X159747619Y-104076190D01*
X159604761Y-103980952D01*
X159509523Y-103885714D01*
X159461904Y-103790476D01*
%TO.C,R22*%
X162052380Y-109692857D02*
X161576190Y-110026190D01*
X162052380Y-110264285D02*
X161052380Y-110264285D01*
X161052380Y-109883333D01*
X161100000Y-109788095D01*
X161147619Y-109740476D01*
X161242857Y-109692857D01*
X161385714Y-109692857D01*
X161480952Y-109740476D01*
X161528571Y-109788095D01*
X161576190Y-109883333D01*
X161576190Y-110264285D01*
X161147619Y-109311904D02*
X161100000Y-109264285D01*
X161052380Y-109169047D01*
X161052380Y-108930952D01*
X161100000Y-108835714D01*
X161147619Y-108788095D01*
X161242857Y-108740476D01*
X161338095Y-108740476D01*
X161480952Y-108788095D01*
X162052380Y-109359523D01*
X162052380Y-108740476D01*
X161147619Y-108359523D02*
X161100000Y-108311904D01*
X161052380Y-108216666D01*
X161052380Y-107978571D01*
X161100000Y-107883333D01*
X161147619Y-107835714D01*
X161242857Y-107788095D01*
X161338095Y-107788095D01*
X161480952Y-107835714D01*
X162052380Y-108407142D01*
X162052380Y-107788095D01*
%TO.C,R36*%
X137622380Y-116030357D02*
X137146190Y-116363690D01*
X137622380Y-116601785D02*
X136622380Y-116601785D01*
X136622380Y-116220833D01*
X136670000Y-116125595D01*
X136717619Y-116077976D01*
X136812857Y-116030357D01*
X136955714Y-116030357D01*
X137050952Y-116077976D01*
X137098571Y-116125595D01*
X137146190Y-116220833D01*
X137146190Y-116601785D01*
X136622380Y-115697023D02*
X136622380Y-115077976D01*
X137003333Y-115411309D01*
X137003333Y-115268452D01*
X137050952Y-115173214D01*
X137098571Y-115125595D01*
X137193809Y-115077976D01*
X137431904Y-115077976D01*
X137527142Y-115125595D01*
X137574761Y-115173214D01*
X137622380Y-115268452D01*
X137622380Y-115554166D01*
X137574761Y-115649404D01*
X137527142Y-115697023D01*
X136622380Y-114220833D02*
X136622380Y-114411309D01*
X136670000Y-114506547D01*
X136717619Y-114554166D01*
X136860476Y-114649404D01*
X137050952Y-114697023D01*
X137431904Y-114697023D01*
X137527142Y-114649404D01*
X137574761Y-114601785D01*
X137622380Y-114506547D01*
X137622380Y-114316071D01*
X137574761Y-114220833D01*
X137527142Y-114173214D01*
X137431904Y-114125595D01*
X137193809Y-114125595D01*
X137098571Y-114173214D01*
X137050952Y-114220833D01*
X137003333Y-114316071D01*
X137003333Y-114506547D01*
X137050952Y-114601785D01*
X137098571Y-114649404D01*
X137193809Y-114697023D01*
%TO.C,R37*%
X146360714Y-116617857D02*
X146717857Y-116367857D01*
X146360714Y-116189285D02*
X147110714Y-116189285D01*
X147110714Y-116475000D01*
X147075000Y-116546428D01*
X147039285Y-116582142D01*
X146967857Y-116617857D01*
X146860714Y-116617857D01*
X146789285Y-116582142D01*
X146753571Y-116546428D01*
X146717857Y-116475000D01*
X146717857Y-116189285D01*
X147110714Y-116867857D02*
X147110714Y-117332142D01*
X146825000Y-117082142D01*
X146825000Y-117189285D01*
X146789285Y-117260714D01*
X146753571Y-117296428D01*
X146682142Y-117332142D01*
X146503571Y-117332142D01*
X146432142Y-117296428D01*
X146396428Y-117260714D01*
X146360714Y-117189285D01*
X146360714Y-116975000D01*
X146396428Y-116903571D01*
X146432142Y-116867857D01*
X147110714Y-117582142D02*
X147110714Y-118082142D01*
X146360714Y-117760714D01*
%TO.C,R38*%
D14*
X143890476Y-115528571D02*
X143795238Y-115595238D01*
X143890476Y-115642857D02*
X143690476Y-115642857D01*
X143690476Y-115566666D01*
X143700000Y-115547619D01*
X143709523Y-115538095D01*
X143728571Y-115528571D01*
X143757142Y-115528571D01*
X143776190Y-115538095D01*
X143785714Y-115547619D01*
X143795238Y-115566666D01*
X143795238Y-115642857D01*
X143690476Y-115461904D02*
X143690476Y-115338095D01*
X143766666Y-115404761D01*
X143766666Y-115376190D01*
X143776190Y-115357142D01*
X143785714Y-115347619D01*
X143804761Y-115338095D01*
X143852380Y-115338095D01*
X143871428Y-115347619D01*
X143880952Y-115357142D01*
X143890476Y-115376190D01*
X143890476Y-115433333D01*
X143880952Y-115452380D01*
X143871428Y-115461904D01*
X143776190Y-115223809D02*
X143766666Y-115242857D01*
X143757142Y-115252380D01*
X143738095Y-115261904D01*
X143728571Y-115261904D01*
X143709523Y-115252380D01*
X143700000Y-115242857D01*
X143690476Y-115223809D01*
X143690476Y-115185714D01*
X143700000Y-115166666D01*
X143709523Y-115157142D01*
X143728571Y-115147619D01*
X143738095Y-115147619D01*
X143757142Y-115157142D01*
X143766666Y-115166666D01*
X143776190Y-115185714D01*
X143776190Y-115223809D01*
X143785714Y-115242857D01*
X143795238Y-115252380D01*
X143814285Y-115261904D01*
X143852380Y-115261904D01*
X143871428Y-115252380D01*
X143880952Y-115242857D01*
X143890476Y-115223809D01*
X143890476Y-115185714D01*
X143880952Y-115166666D01*
X143871428Y-115157142D01*
X143852380Y-115147619D01*
X143814285Y-115147619D01*
X143795238Y-115157142D01*
X143785714Y-115166666D01*
X143776190Y-115185714D01*
%TO.C,U1*%
D10*
X136789285Y-101271428D02*
X137396428Y-101271428D01*
X137467857Y-101235714D01*
X137503571Y-101200000D01*
X137539285Y-101128571D01*
X137539285Y-100985714D01*
X137503571Y-100914285D01*
X137467857Y-100878571D01*
X137396428Y-100842857D01*
X136789285Y-100842857D01*
X137539285Y-100092857D02*
X137539285Y-100521428D01*
X137539285Y-100307142D02*
X136789285Y-100307142D01*
X136896428Y-100378571D01*
X136967857Y-100450000D01*
X137003571Y-100521428D01*
%TO.C,U2*%
X177238095Y-77452380D02*
X177238095Y-78261904D01*
X177285714Y-78357142D01*
X177333333Y-78404761D01*
X177428571Y-78452380D01*
X177619047Y-78452380D01*
X177714285Y-78404761D01*
X177761904Y-78357142D01*
X177809523Y-78261904D01*
X177809523Y-77452380D01*
X178238095Y-77547619D02*
X178285714Y-77500000D01*
X178380952Y-77452380D01*
X178619047Y-77452380D01*
X178714285Y-77500000D01*
X178761904Y-77547619D01*
X178809523Y-77642857D01*
X178809523Y-77738095D01*
X178761904Y-77880952D01*
X178190476Y-78452380D01*
X178809523Y-78452380D01*
%TO.C,U7*%
X131938095Y-93152380D02*
X131938095Y-93961904D01*
X131985714Y-94057142D01*
X132033333Y-94104761D01*
X132128571Y-94152380D01*
X132319047Y-94152380D01*
X132414285Y-94104761D01*
X132461904Y-94057142D01*
X132509523Y-93961904D01*
X132509523Y-93152380D01*
X132890476Y-93152380D02*
X133557142Y-93152380D01*
X133128571Y-94152380D01*
%TO.C,U9*%
D17*
X167920472Y-70903809D02*
X167920472Y-71519047D01*
X167956662Y-71591428D01*
X167992853Y-71627619D01*
X168065234Y-71663809D01*
X168209996Y-71663809D01*
X168282377Y-71627619D01*
X168318567Y-71591428D01*
X168354758Y-71519047D01*
X168354758Y-70903809D01*
X168752853Y-71663809D02*
X168897615Y-71663809D01*
X168969996Y-71627619D01*
X169006186Y-71591428D01*
X169078567Y-71482857D01*
X169114758Y-71338095D01*
X169114758Y-71048571D01*
X169078567Y-70976190D01*
X169042377Y-70940000D01*
X168969996Y-70903809D01*
X168825234Y-70903809D01*
X168752853Y-70940000D01*
X168716662Y-70976190D01*
X168680472Y-71048571D01*
X168680472Y-71229523D01*
X168716662Y-71301904D01*
X168752853Y-71338095D01*
X168825234Y-71374285D01*
X168969996Y-71374285D01*
X169042377Y-71338095D01*
X169078567Y-71301904D01*
X169114758Y-71229523D01*
%TO.C,U11*%
D10*
X185071428Y-99289285D02*
X185071428Y-99896428D01*
X185107142Y-99967857D01*
X185142857Y-100003571D01*
X185214285Y-100039285D01*
X185357142Y-100039285D01*
X185428571Y-100003571D01*
X185464285Y-99967857D01*
X185500000Y-99896428D01*
X185500000Y-99289285D01*
X186250000Y-100039285D02*
X185821428Y-100039285D01*
X186035714Y-100039285D02*
X186035714Y-99289285D01*
X185964285Y-99396428D01*
X185892857Y-99467857D01*
X185821428Y-99503571D01*
X186964285Y-100039285D02*
X186535714Y-100039285D01*
X186750000Y-100039285D02*
X186750000Y-99289285D01*
X186678571Y-99396428D01*
X186607142Y-99467857D01*
X186535714Y-99503571D01*
%TO.C,U12*%
D15*
X156126190Y-106519047D02*
X156530952Y-106519047D01*
X156578571Y-106495238D01*
X156602380Y-106471428D01*
X156626190Y-106423809D01*
X156626190Y-106328571D01*
X156602380Y-106280952D01*
X156578571Y-106257142D01*
X156530952Y-106233333D01*
X156126190Y-106233333D01*
X156626190Y-105733333D02*
X156626190Y-106019047D01*
X156626190Y-105876190D02*
X156126190Y-105876190D01*
X156197619Y-105923809D01*
X156245238Y-105971428D01*
X156269047Y-106019047D01*
X156173809Y-105542857D02*
X156150000Y-105519047D01*
X156126190Y-105471428D01*
X156126190Y-105352380D01*
X156150000Y-105304761D01*
X156173809Y-105280952D01*
X156221428Y-105257142D01*
X156269047Y-105257142D01*
X156340476Y-105280952D01*
X156626190Y-105566666D01*
X156626190Y-105257142D01*
%TO.C,U15*%
D10*
X140761904Y-118052380D02*
X140761904Y-118861904D01*
X140809523Y-118957142D01*
X140857142Y-119004761D01*
X140952380Y-119052380D01*
X141142857Y-119052380D01*
X141238095Y-119004761D01*
X141285714Y-118957142D01*
X141333333Y-118861904D01*
X141333333Y-118052380D01*
X142333333Y-119052380D02*
X141761904Y-119052380D01*
X142047619Y-119052380D02*
X142047619Y-118052380D01*
X141952380Y-118195238D01*
X141857142Y-118290476D01*
X141761904Y-118338095D01*
X143238095Y-118052380D02*
X142761904Y-118052380D01*
X142714285Y-118528571D01*
X142761904Y-118480952D01*
X142857142Y-118433333D01*
X143095238Y-118433333D01*
X143190476Y-118480952D01*
X143238095Y-118528571D01*
X143285714Y-118623809D01*
X143285714Y-118861904D01*
X143238095Y-118957142D01*
X143190476Y-119004761D01*
X143095238Y-119052380D01*
X142857142Y-119052380D01*
X142761904Y-119004761D01*
X142714285Y-118957142D01*
%TO.C,Y1*%
X140942857Y-89582142D02*
X140942857Y-89939285D01*
X140692857Y-89189285D02*
X140942857Y-89582142D01*
X141192857Y-89189285D01*
X141835714Y-89939285D02*
X141407142Y-89939285D01*
X141621428Y-89939285D02*
X141621428Y-89189285D01*
X141550000Y-89296428D01*
X141478571Y-89367857D01*
X141407142Y-89403571D01*
%TO.C,C25*%
X175332142Y-90542857D02*
X175379761Y-90590476D01*
X175427380Y-90733333D01*
X175427380Y-90828571D01*
X175379761Y-90971428D01*
X175284523Y-91066666D01*
X175189285Y-91114285D01*
X174998809Y-91161904D01*
X174855952Y-91161904D01*
X174665476Y-91114285D01*
X174570238Y-91066666D01*
X174475000Y-90971428D01*
X174427380Y-90828571D01*
X174427380Y-90733333D01*
X174475000Y-90590476D01*
X174522619Y-90542857D01*
X174522619Y-90161904D02*
X174475000Y-90114285D01*
X174427380Y-90019047D01*
X174427380Y-89780952D01*
X174475000Y-89685714D01*
X174522619Y-89638095D01*
X174617857Y-89590476D01*
X174713095Y-89590476D01*
X174855952Y-89638095D01*
X175427380Y-90209523D01*
X175427380Y-89590476D01*
X174427380Y-88685714D02*
X174427380Y-89161904D01*
X174903571Y-89209523D01*
X174855952Y-89161904D01*
X174808333Y-89066666D01*
X174808333Y-88828571D01*
X174855952Y-88733333D01*
X174903571Y-88685714D01*
X174998809Y-88638095D01*
X175236904Y-88638095D01*
X175332142Y-88685714D01*
X175379761Y-88733333D01*
X175427380Y-88828571D01*
X175427380Y-89066666D01*
X175379761Y-89161904D01*
X175332142Y-89209523D01*
%TO.C,U5*%
X174627380Y-93361904D02*
X175436904Y-93361904D01*
X175532142Y-93314285D01*
X175579761Y-93266666D01*
X175627380Y-93171428D01*
X175627380Y-92980952D01*
X175579761Y-92885714D01*
X175532142Y-92838095D01*
X175436904Y-92790476D01*
X174627380Y-92790476D01*
X174627380Y-91838095D02*
X174627380Y-92314285D01*
X175103571Y-92361904D01*
X175055952Y-92314285D01*
X175008333Y-92219047D01*
X175008333Y-91980952D01*
X175055952Y-91885714D01*
X175103571Y-91838095D01*
X175198809Y-91790476D01*
X175436904Y-91790476D01*
X175532142Y-91838095D01*
X175579761Y-91885714D01*
X175627380Y-91980952D01*
X175627380Y-92219047D01*
X175579761Y-92314285D01*
X175532142Y-92361904D01*
%TD*%
M02*
