%TF.GenerationSoftware,KiCad,Pcbnew,(5.1.10)-1*%
%TF.CreationDate,2021-07-09T14:19:08-04:00*%
%TF.ProjectId,ControlBoard,436f6e74-726f-46c4-926f-6172642e6b69,rev?*%
%TF.SameCoordinates,Original*%
%TF.FileFunction,Paste,Top*%
%TF.FilePolarity,Positive*%
%FSLAX46Y46*%
G04 Gerber Fmt 4.6, Leading zero omitted, Abs format (unit mm)*
G04 Created by KiCad (PCBNEW (5.1.10)-1) date 2021-07-09 14:19:08*
%MOMM*%
%LPD*%
G01*
G04 APERTURE LIST*
%ADD10C,0.010000*%
%ADD11R,0.900000X0.800000*%
%ADD12R,5.520000X2.000000*%
%ADD13R,1.050000X2.200000*%
%ADD14R,1.000000X1.050000*%
%ADD15R,1.450000X0.300000*%
%ADD16R,1.450000X0.600000*%
%ADD17R,2.413000X5.334000*%
%ADD18R,2.400000X7.500000*%
%ADD19R,1.120000X2.440000*%
%ADD20R,0.650000X1.220000*%
%ADD21R,1.100000X1.100000*%
%ADD22R,1.500000X0.900000*%
%ADD23R,0.900000X1.500000*%
%ADD24R,1.000000X0.800000*%
%ADD25R,1.060000X0.650000*%
%ADD26R,1.000000X1.800000*%
%ADD27R,0.410000X1.440000*%
G04 APERTURE END LIST*
D10*
%TO.C,U5*%
G36*
X180450000Y-91850000D02*
G01*
X180450000Y-93350000D01*
X178350000Y-93350000D01*
X178350000Y-91850000D01*
X180450000Y-91850000D01*
G37*
X180450000Y-91850000D02*
X180450000Y-93350000D01*
X178350000Y-93350000D01*
X178350000Y-91850000D01*
X180450000Y-91850000D01*
%TD*%
%TO.C,R29*%
G36*
G01*
X154656250Y-114850000D02*
X154143750Y-114850000D01*
G75*
G02*
X153925000Y-114631250I0J218750D01*
G01*
X153925000Y-114193750D01*
G75*
G02*
X154143750Y-113975000I218750J0D01*
G01*
X154656250Y-113975000D01*
G75*
G02*
X154875000Y-114193750I0J-218750D01*
G01*
X154875000Y-114631250D01*
G75*
G02*
X154656250Y-114850000I-218750J0D01*
G01*
G37*
G36*
G01*
X154656250Y-116425000D02*
X154143750Y-116425000D01*
G75*
G02*
X153925000Y-116206250I0J218750D01*
G01*
X153925000Y-115768750D01*
G75*
G02*
X154143750Y-115550000I218750J0D01*
G01*
X154656250Y-115550000D01*
G75*
G02*
X154875000Y-115768750I0J-218750D01*
G01*
X154875000Y-116206250D01*
G75*
G02*
X154656250Y-116425000I-218750J0D01*
G01*
G37*
%TD*%
%TO.C,U14*%
G36*
G01*
X153800000Y-117915000D02*
X153800000Y-117615000D01*
G75*
G02*
X153950000Y-117465000I150000J0D01*
G01*
X155275000Y-117465000D01*
G75*
G02*
X155425000Y-117615000I0J-150000D01*
G01*
X155425000Y-117915000D01*
G75*
G02*
X155275000Y-118065000I-150000J0D01*
G01*
X153950000Y-118065000D01*
G75*
G02*
X153800000Y-117915000I0J150000D01*
G01*
G37*
G36*
G01*
X153800000Y-119185000D02*
X153800000Y-118885000D01*
G75*
G02*
X153950000Y-118735000I150000J0D01*
G01*
X155275000Y-118735000D01*
G75*
G02*
X155425000Y-118885000I0J-150000D01*
G01*
X155425000Y-119185000D01*
G75*
G02*
X155275000Y-119335000I-150000J0D01*
G01*
X153950000Y-119335000D01*
G75*
G02*
X153800000Y-119185000I0J150000D01*
G01*
G37*
G36*
G01*
X160175000Y-119185000D02*
X160175000Y-118885000D01*
G75*
G02*
X160325000Y-118735000I150000J0D01*
G01*
X161650000Y-118735000D01*
G75*
G02*
X161800000Y-118885000I0J-150000D01*
G01*
X161800000Y-119185000D01*
G75*
G02*
X161650000Y-119335000I-150000J0D01*
G01*
X160325000Y-119335000D01*
G75*
G02*
X160175000Y-119185000I0J150000D01*
G01*
G37*
G36*
G01*
X160175000Y-117915000D02*
X160175000Y-117615000D01*
G75*
G02*
X160325000Y-117465000I150000J0D01*
G01*
X161650000Y-117465000D01*
G75*
G02*
X161800000Y-117615000I0J-150000D01*
G01*
X161800000Y-117915000D01*
G75*
G02*
X161650000Y-118065000I-150000J0D01*
G01*
X160325000Y-118065000D01*
G75*
G02*
X160175000Y-117915000I0J150000D01*
G01*
G37*
%TD*%
%TO.C,R31*%
G36*
G01*
X159343750Y-113975000D02*
X159856250Y-113975000D01*
G75*
G02*
X160075000Y-114193750I0J-218750D01*
G01*
X160075000Y-114631250D01*
G75*
G02*
X159856250Y-114850000I-218750J0D01*
G01*
X159343750Y-114850000D01*
G75*
G02*
X159125000Y-114631250I0J218750D01*
G01*
X159125000Y-114193750D01*
G75*
G02*
X159343750Y-113975000I218750J0D01*
G01*
G37*
G36*
G01*
X159343750Y-115550000D02*
X159856250Y-115550000D01*
G75*
G02*
X160075000Y-115768750I0J-218750D01*
G01*
X160075000Y-116206250D01*
G75*
G02*
X159856250Y-116425000I-218750J0D01*
G01*
X159343750Y-116425000D01*
G75*
G02*
X159125000Y-116206250I0J218750D01*
G01*
X159125000Y-115768750D01*
G75*
G02*
X159343750Y-115550000I218750J0D01*
G01*
G37*
%TD*%
%TO.C,R30*%
G36*
G01*
X160943750Y-113975000D02*
X161456250Y-113975000D01*
G75*
G02*
X161675000Y-114193750I0J-218750D01*
G01*
X161675000Y-114631250D01*
G75*
G02*
X161456250Y-114850000I-218750J0D01*
G01*
X160943750Y-114850000D01*
G75*
G02*
X160725000Y-114631250I0J218750D01*
G01*
X160725000Y-114193750D01*
G75*
G02*
X160943750Y-113975000I218750J0D01*
G01*
G37*
G36*
G01*
X160943750Y-115550000D02*
X161456250Y-115550000D01*
G75*
G02*
X161675000Y-115768750I0J-218750D01*
G01*
X161675000Y-116206250D01*
G75*
G02*
X161456250Y-116425000I-218750J0D01*
G01*
X160943750Y-116425000D01*
G75*
G02*
X160725000Y-116206250I0J218750D01*
G01*
X160725000Y-115768750D01*
G75*
G02*
X160943750Y-115550000I218750J0D01*
G01*
G37*
%TD*%
D11*
%TO.C,Q1*%
X156000000Y-114800000D03*
X158000000Y-113850000D03*
X158000000Y-115750000D03*
%TD*%
%TO.C,D1*%
G36*
G01*
X160950000Y-113056250D02*
X160950000Y-112543750D01*
G75*
G02*
X161168750Y-112325000I218750J0D01*
G01*
X161606250Y-112325000D01*
G75*
G02*
X161825000Y-112543750I0J-218750D01*
G01*
X161825000Y-113056250D01*
G75*
G02*
X161606250Y-113275000I-218750J0D01*
G01*
X161168750Y-113275000D01*
G75*
G02*
X160950000Y-113056250I0J218750D01*
G01*
G37*
G36*
G01*
X159375000Y-113056250D02*
X159375000Y-112543750D01*
G75*
G02*
X159593750Y-112325000I218750J0D01*
G01*
X160031250Y-112325000D01*
G75*
G02*
X160250000Y-112543750I0J-218750D01*
G01*
X160250000Y-113056250D01*
G75*
G02*
X160031250Y-113275000I-218750J0D01*
G01*
X159593750Y-113275000D01*
G75*
G02*
X159375000Y-113056250I0J218750D01*
G01*
G37*
%TD*%
%TO.C,C1*%
G36*
G01*
X180025000Y-83693750D02*
X180025000Y-84206250D01*
G75*
G02*
X179806250Y-84425000I-218750J0D01*
G01*
X179368750Y-84425000D01*
G75*
G02*
X179150000Y-84206250I0J218750D01*
G01*
X179150000Y-83693750D01*
G75*
G02*
X179368750Y-83475000I218750J0D01*
G01*
X179806250Y-83475000D01*
G75*
G02*
X180025000Y-83693750I0J-218750D01*
G01*
G37*
G36*
G01*
X178450000Y-83693750D02*
X178450000Y-84206250D01*
G75*
G02*
X178231250Y-84425000I-218750J0D01*
G01*
X177793750Y-84425000D01*
G75*
G02*
X177575000Y-84206250I0J218750D01*
G01*
X177575000Y-83693750D01*
G75*
G02*
X177793750Y-83475000I218750J0D01*
G01*
X178231250Y-83475000D01*
G75*
G02*
X178450000Y-83693750I0J-218750D01*
G01*
G37*
%TD*%
%TO.C,C2*%
G36*
G01*
X138112500Y-64743750D02*
X138112500Y-65256250D01*
G75*
G02*
X137893750Y-65475000I-218750J0D01*
G01*
X137456250Y-65475000D01*
G75*
G02*
X137237500Y-65256250I0J218750D01*
G01*
X137237500Y-64743750D01*
G75*
G02*
X137456250Y-64525000I218750J0D01*
G01*
X137893750Y-64525000D01*
G75*
G02*
X138112500Y-64743750I0J-218750D01*
G01*
G37*
G36*
G01*
X139687500Y-64743750D02*
X139687500Y-65256250D01*
G75*
G02*
X139468750Y-65475000I-218750J0D01*
G01*
X139031250Y-65475000D01*
G75*
G02*
X138812500Y-65256250I0J218750D01*
G01*
X138812500Y-64743750D01*
G75*
G02*
X139031250Y-64525000I218750J0D01*
G01*
X139468750Y-64525000D01*
G75*
G02*
X139687500Y-64743750I0J-218750D01*
G01*
G37*
%TD*%
%TO.C,C3*%
G36*
G01*
X135350000Y-97956250D02*
X135350000Y-97443750D01*
G75*
G02*
X135568750Y-97225000I218750J0D01*
G01*
X136006250Y-97225000D01*
G75*
G02*
X136225000Y-97443750I0J-218750D01*
G01*
X136225000Y-97956250D01*
G75*
G02*
X136006250Y-98175000I-218750J0D01*
G01*
X135568750Y-98175000D01*
G75*
G02*
X135350000Y-97956250I0J218750D01*
G01*
G37*
G36*
G01*
X133775000Y-97956250D02*
X133775000Y-97443750D01*
G75*
G02*
X133993750Y-97225000I218750J0D01*
G01*
X134431250Y-97225000D01*
G75*
G02*
X134650000Y-97443750I0J-218750D01*
G01*
X134650000Y-97956250D01*
G75*
G02*
X134431250Y-98175000I-218750J0D01*
G01*
X133993750Y-98175000D01*
G75*
G02*
X133775000Y-97956250I0J218750D01*
G01*
G37*
%TD*%
%TO.C,C4*%
G36*
G01*
X142387500Y-92306250D02*
X142387500Y-91793750D01*
G75*
G02*
X142606250Y-91575000I218750J0D01*
G01*
X143043750Y-91575000D01*
G75*
G02*
X143262500Y-91793750I0J-218750D01*
G01*
X143262500Y-92306250D01*
G75*
G02*
X143043750Y-92525000I-218750J0D01*
G01*
X142606250Y-92525000D01*
G75*
G02*
X142387500Y-92306250I0J218750D01*
G01*
G37*
G36*
G01*
X140812500Y-92306250D02*
X140812500Y-91793750D01*
G75*
G02*
X141031250Y-91575000I218750J0D01*
G01*
X141468750Y-91575000D01*
G75*
G02*
X141687500Y-91793750I0J-218750D01*
G01*
X141687500Y-92306250D01*
G75*
G02*
X141468750Y-92525000I-218750J0D01*
G01*
X141031250Y-92525000D01*
G75*
G02*
X140812500Y-92306250I0J218750D01*
G01*
G37*
%TD*%
%TO.C,C5*%
G36*
G01*
X143975000Y-92306250D02*
X143975000Y-91793750D01*
G75*
G02*
X144193750Y-91575000I218750J0D01*
G01*
X144631250Y-91575000D01*
G75*
G02*
X144850000Y-91793750I0J-218750D01*
G01*
X144850000Y-92306250D01*
G75*
G02*
X144631250Y-92525000I-218750J0D01*
G01*
X144193750Y-92525000D01*
G75*
G02*
X143975000Y-92306250I0J218750D01*
G01*
G37*
G36*
G01*
X145550000Y-92306250D02*
X145550000Y-91793750D01*
G75*
G02*
X145768750Y-91575000I218750J0D01*
G01*
X146206250Y-91575000D01*
G75*
G02*
X146425000Y-91793750I0J-218750D01*
G01*
X146425000Y-92306250D01*
G75*
G02*
X146206250Y-92525000I-218750J0D01*
G01*
X145768750Y-92525000D01*
G75*
G02*
X145550000Y-92306250I0J218750D01*
G01*
G37*
%TD*%
%TO.C,C6*%
G36*
G01*
X129037500Y-70456250D02*
X129037500Y-69943750D01*
G75*
G02*
X129256250Y-69725000I218750J0D01*
G01*
X129693750Y-69725000D01*
G75*
G02*
X129912500Y-69943750I0J-218750D01*
G01*
X129912500Y-70456250D01*
G75*
G02*
X129693750Y-70675000I-218750J0D01*
G01*
X129256250Y-70675000D01*
G75*
G02*
X129037500Y-70456250I0J218750D01*
G01*
G37*
G36*
G01*
X127462500Y-70456250D02*
X127462500Y-69943750D01*
G75*
G02*
X127681250Y-69725000I218750J0D01*
G01*
X128118750Y-69725000D01*
G75*
G02*
X128337500Y-69943750I0J-218750D01*
G01*
X128337500Y-70456250D01*
G75*
G02*
X128118750Y-70675000I-218750J0D01*
G01*
X127681250Y-70675000D01*
G75*
G02*
X127462500Y-70456250I0J218750D01*
G01*
G37*
%TD*%
%TO.C,C7*%
G36*
G01*
X139675000Y-66343750D02*
X139675000Y-66856250D01*
G75*
G02*
X139456250Y-67075000I-218750J0D01*
G01*
X139018750Y-67075000D01*
G75*
G02*
X138800000Y-66856250I0J218750D01*
G01*
X138800000Y-66343750D01*
G75*
G02*
X139018750Y-66125000I218750J0D01*
G01*
X139456250Y-66125000D01*
G75*
G02*
X139675000Y-66343750I0J-218750D01*
G01*
G37*
G36*
G01*
X138100000Y-66343750D02*
X138100000Y-66856250D01*
G75*
G02*
X137881250Y-67075000I-218750J0D01*
G01*
X137443750Y-67075000D01*
G75*
G02*
X137225000Y-66856250I0J218750D01*
G01*
X137225000Y-66343750D01*
G75*
G02*
X137443750Y-66125000I218750J0D01*
G01*
X137881250Y-66125000D01*
G75*
G02*
X138100000Y-66343750I0J-218750D01*
G01*
G37*
%TD*%
%TO.C,C10*%
G36*
G01*
X132462500Y-70456250D02*
X132462500Y-69943750D01*
G75*
G02*
X132681250Y-69725000I218750J0D01*
G01*
X133118750Y-69725000D01*
G75*
G02*
X133337500Y-69943750I0J-218750D01*
G01*
X133337500Y-70456250D01*
G75*
G02*
X133118750Y-70675000I-218750J0D01*
G01*
X132681250Y-70675000D01*
G75*
G02*
X132462500Y-70456250I0J218750D01*
G01*
G37*
G36*
G01*
X134037500Y-70456250D02*
X134037500Y-69943750D01*
G75*
G02*
X134256250Y-69725000I218750J0D01*
G01*
X134693750Y-69725000D01*
G75*
G02*
X134912500Y-69943750I0J-218750D01*
G01*
X134912500Y-70456250D01*
G75*
G02*
X134693750Y-70675000I-218750J0D01*
G01*
X134256250Y-70675000D01*
G75*
G02*
X134037500Y-70456250I0J218750D01*
G01*
G37*
%TD*%
%TO.C,C11*%
G36*
G01*
X132556250Y-103325000D02*
X132043750Y-103325000D01*
G75*
G02*
X131825000Y-103106250I0J218750D01*
G01*
X131825000Y-102668750D01*
G75*
G02*
X132043750Y-102450000I218750J0D01*
G01*
X132556250Y-102450000D01*
G75*
G02*
X132775000Y-102668750I0J-218750D01*
G01*
X132775000Y-103106250D01*
G75*
G02*
X132556250Y-103325000I-218750J0D01*
G01*
G37*
G36*
G01*
X132556250Y-101750000D02*
X132043750Y-101750000D01*
G75*
G02*
X131825000Y-101531250I0J218750D01*
G01*
X131825000Y-101093750D01*
G75*
G02*
X132043750Y-100875000I218750J0D01*
G01*
X132556250Y-100875000D01*
G75*
G02*
X132775000Y-101093750I0J-218750D01*
G01*
X132775000Y-101531250D01*
G75*
G02*
X132556250Y-101750000I-218750J0D01*
G01*
G37*
%TD*%
%TO.C,C12*%
G36*
G01*
X173743750Y-80375000D02*
X174256250Y-80375000D01*
G75*
G02*
X174475000Y-80593750I0J-218750D01*
G01*
X174475000Y-81031250D01*
G75*
G02*
X174256250Y-81250000I-218750J0D01*
G01*
X173743750Y-81250000D01*
G75*
G02*
X173525000Y-81031250I0J218750D01*
G01*
X173525000Y-80593750D01*
G75*
G02*
X173743750Y-80375000I218750J0D01*
G01*
G37*
G36*
G01*
X173743750Y-81950000D02*
X174256250Y-81950000D01*
G75*
G02*
X174475000Y-82168750I0J-218750D01*
G01*
X174475000Y-82606250D01*
G75*
G02*
X174256250Y-82825000I-218750J0D01*
G01*
X173743750Y-82825000D01*
G75*
G02*
X173525000Y-82606250I0J218750D01*
G01*
X173525000Y-82168750D01*
G75*
G02*
X173743750Y-81950000I218750J0D01*
G01*
G37*
%TD*%
%TO.C,C14*%
G36*
G01*
X155875000Y-91793750D02*
X155875000Y-92306250D01*
G75*
G02*
X155656250Y-92525000I-218750J0D01*
G01*
X155218750Y-92525000D01*
G75*
G02*
X155000000Y-92306250I0J218750D01*
G01*
X155000000Y-91793750D01*
G75*
G02*
X155218750Y-91575000I218750J0D01*
G01*
X155656250Y-91575000D01*
G75*
G02*
X155875000Y-91793750I0J-218750D01*
G01*
G37*
G36*
G01*
X154300000Y-91793750D02*
X154300000Y-92306250D01*
G75*
G02*
X154081250Y-92525000I-218750J0D01*
G01*
X153643750Y-92525000D01*
G75*
G02*
X153425000Y-92306250I0J218750D01*
G01*
X153425000Y-91793750D01*
G75*
G02*
X153643750Y-91575000I218750J0D01*
G01*
X154081250Y-91575000D01*
G75*
G02*
X154300000Y-91793750I0J-218750D01*
G01*
G37*
%TD*%
%TO.C,C15*%
G36*
G01*
X147962500Y-91793750D02*
X147962500Y-92306250D01*
G75*
G02*
X147743750Y-92525000I-218750J0D01*
G01*
X147306250Y-92525000D01*
G75*
G02*
X147087500Y-92306250I0J218750D01*
G01*
X147087500Y-91793750D01*
G75*
G02*
X147306250Y-91575000I218750J0D01*
G01*
X147743750Y-91575000D01*
G75*
G02*
X147962500Y-91793750I0J-218750D01*
G01*
G37*
G36*
G01*
X149537500Y-91793750D02*
X149537500Y-92306250D01*
G75*
G02*
X149318750Y-92525000I-218750J0D01*
G01*
X148881250Y-92525000D01*
G75*
G02*
X148662500Y-92306250I0J218750D01*
G01*
X148662500Y-91793750D01*
G75*
G02*
X148881250Y-91575000I218750J0D01*
G01*
X149318750Y-91575000D01*
G75*
G02*
X149537500Y-91793750I0J-218750D01*
G01*
G37*
%TD*%
%TO.C,C16*%
G36*
G01*
X162525000Y-64293750D02*
X162525000Y-64806250D01*
G75*
G02*
X162306250Y-65025000I-218750J0D01*
G01*
X161868750Y-65025000D01*
G75*
G02*
X161650000Y-64806250I0J218750D01*
G01*
X161650000Y-64293750D01*
G75*
G02*
X161868750Y-64075000I218750J0D01*
G01*
X162306250Y-64075000D01*
G75*
G02*
X162525000Y-64293750I0J-218750D01*
G01*
G37*
G36*
G01*
X160950000Y-64293750D02*
X160950000Y-64806250D01*
G75*
G02*
X160731250Y-65025000I-218750J0D01*
G01*
X160293750Y-65025000D01*
G75*
G02*
X160075000Y-64806250I0J218750D01*
G01*
X160075000Y-64293750D01*
G75*
G02*
X160293750Y-64075000I218750J0D01*
G01*
X160731250Y-64075000D01*
G75*
G02*
X160950000Y-64293750I0J-218750D01*
G01*
G37*
%TD*%
%TO.C,C17*%
G36*
G01*
X182575000Y-88025000D02*
X182575000Y-86775000D01*
G75*
G02*
X182825000Y-86525000I250000J0D01*
G01*
X183575000Y-86525000D01*
G75*
G02*
X183825000Y-86775000I0J-250000D01*
G01*
X183825000Y-88025000D01*
G75*
G02*
X183575000Y-88275000I-250000J0D01*
G01*
X182825000Y-88275000D01*
G75*
G02*
X182575000Y-88025000I0J250000D01*
G01*
G37*
G36*
G01*
X179775000Y-88025000D02*
X179775000Y-86775000D01*
G75*
G02*
X180025000Y-86525000I250000J0D01*
G01*
X180775000Y-86525000D01*
G75*
G02*
X181025000Y-86775000I0J-250000D01*
G01*
X181025000Y-88025000D01*
G75*
G02*
X180775000Y-88275000I-250000J0D01*
G01*
X180025000Y-88275000D01*
G75*
G02*
X179775000Y-88025000I0J250000D01*
G01*
G37*
%TD*%
%TO.C,C18*%
G36*
G01*
X161856250Y-99925000D02*
X161343750Y-99925000D01*
G75*
G02*
X161125000Y-99706250I0J218750D01*
G01*
X161125000Y-99268750D01*
G75*
G02*
X161343750Y-99050000I218750J0D01*
G01*
X161856250Y-99050000D01*
G75*
G02*
X162075000Y-99268750I0J-218750D01*
G01*
X162075000Y-99706250D01*
G75*
G02*
X161856250Y-99925000I-218750J0D01*
G01*
G37*
G36*
G01*
X161856250Y-98350000D02*
X161343750Y-98350000D01*
G75*
G02*
X161125000Y-98131250I0J218750D01*
G01*
X161125000Y-97693750D01*
G75*
G02*
X161343750Y-97475000I218750J0D01*
G01*
X161856250Y-97475000D01*
G75*
G02*
X162075000Y-97693750I0J-218750D01*
G01*
X162075000Y-98131250D01*
G75*
G02*
X161856250Y-98350000I-218750J0D01*
G01*
G37*
%TD*%
%TO.C,C19*%
G36*
G01*
X162143750Y-81937500D02*
X162656250Y-81937500D01*
G75*
G02*
X162875000Y-82156250I0J-218750D01*
G01*
X162875000Y-82593750D01*
G75*
G02*
X162656250Y-82812500I-218750J0D01*
G01*
X162143750Y-82812500D01*
G75*
G02*
X161925000Y-82593750I0J218750D01*
G01*
X161925000Y-82156250D01*
G75*
G02*
X162143750Y-81937500I218750J0D01*
G01*
G37*
G36*
G01*
X162143750Y-80362500D02*
X162656250Y-80362500D01*
G75*
G02*
X162875000Y-80581250I0J-218750D01*
G01*
X162875000Y-81018750D01*
G75*
G02*
X162656250Y-81237500I-218750J0D01*
G01*
X162143750Y-81237500D01*
G75*
G02*
X161925000Y-81018750I0J218750D01*
G01*
X161925000Y-80581250D01*
G75*
G02*
X162143750Y-80362500I218750J0D01*
G01*
G37*
%TD*%
%TO.C,C22*%
G36*
G01*
X165443750Y-80375000D02*
X165956250Y-80375000D01*
G75*
G02*
X166175000Y-80593750I0J-218750D01*
G01*
X166175000Y-81031250D01*
G75*
G02*
X165956250Y-81250000I-218750J0D01*
G01*
X165443750Y-81250000D01*
G75*
G02*
X165225000Y-81031250I0J218750D01*
G01*
X165225000Y-80593750D01*
G75*
G02*
X165443750Y-80375000I218750J0D01*
G01*
G37*
G36*
G01*
X165443750Y-81950000D02*
X165956250Y-81950000D01*
G75*
G02*
X166175000Y-82168750I0J-218750D01*
G01*
X166175000Y-82606250D01*
G75*
G02*
X165956250Y-82825000I-218750J0D01*
G01*
X165443750Y-82825000D01*
G75*
G02*
X165225000Y-82606250I0J218750D01*
G01*
X165225000Y-82168750D01*
G75*
G02*
X165443750Y-81950000I218750J0D01*
G01*
G37*
%TD*%
%TO.C,C24*%
G36*
G01*
X163843750Y-80375000D02*
X164356250Y-80375000D01*
G75*
G02*
X164575000Y-80593750I0J-218750D01*
G01*
X164575000Y-81031250D01*
G75*
G02*
X164356250Y-81250000I-218750J0D01*
G01*
X163843750Y-81250000D01*
G75*
G02*
X163625000Y-81031250I0J218750D01*
G01*
X163625000Y-80593750D01*
G75*
G02*
X163843750Y-80375000I218750J0D01*
G01*
G37*
G36*
G01*
X163843750Y-81950000D02*
X164356250Y-81950000D01*
G75*
G02*
X164575000Y-82168750I0J-218750D01*
G01*
X164575000Y-82606250D01*
G75*
G02*
X164356250Y-82825000I-218750J0D01*
G01*
X163843750Y-82825000D01*
G75*
G02*
X163625000Y-82606250I0J218750D01*
G01*
X163625000Y-82168750D01*
G75*
G02*
X163843750Y-81950000I218750J0D01*
G01*
G37*
%TD*%
%TO.C,C26*%
G36*
G01*
X124675000Y-90243750D02*
X124675000Y-90756250D01*
G75*
G02*
X124456250Y-90975000I-218750J0D01*
G01*
X124018750Y-90975000D01*
G75*
G02*
X123800000Y-90756250I0J218750D01*
G01*
X123800000Y-90243750D01*
G75*
G02*
X124018750Y-90025000I218750J0D01*
G01*
X124456250Y-90025000D01*
G75*
G02*
X124675000Y-90243750I0J-218750D01*
G01*
G37*
G36*
G01*
X123100000Y-90243750D02*
X123100000Y-90756250D01*
G75*
G02*
X122881250Y-90975000I-218750J0D01*
G01*
X122443750Y-90975000D01*
G75*
G02*
X122225000Y-90756250I0J218750D01*
G01*
X122225000Y-90243750D01*
G75*
G02*
X122443750Y-90025000I218750J0D01*
G01*
X122881250Y-90025000D01*
G75*
G02*
X123100000Y-90243750I0J-218750D01*
G01*
G37*
%TD*%
%TO.C,C27*%
G36*
G01*
X164262500Y-96043750D02*
X164262500Y-96556250D01*
G75*
G02*
X164043750Y-96775000I-218750J0D01*
G01*
X163606250Y-96775000D01*
G75*
G02*
X163387500Y-96556250I0J218750D01*
G01*
X163387500Y-96043750D01*
G75*
G02*
X163606250Y-95825000I218750J0D01*
G01*
X164043750Y-95825000D01*
G75*
G02*
X164262500Y-96043750I0J-218750D01*
G01*
G37*
G36*
G01*
X165837500Y-96043750D02*
X165837500Y-96556250D01*
G75*
G02*
X165618750Y-96775000I-218750J0D01*
G01*
X165181250Y-96775000D01*
G75*
G02*
X164962500Y-96556250I0J218750D01*
G01*
X164962500Y-96043750D01*
G75*
G02*
X165181250Y-95825000I218750J0D01*
G01*
X165618750Y-95825000D01*
G75*
G02*
X165837500Y-96043750I0J-218750D01*
G01*
G37*
%TD*%
%TO.C,C29*%
G36*
G01*
X123100000Y-88643750D02*
X123100000Y-89156250D01*
G75*
G02*
X122881250Y-89375000I-218750J0D01*
G01*
X122443750Y-89375000D01*
G75*
G02*
X122225000Y-89156250I0J218750D01*
G01*
X122225000Y-88643750D01*
G75*
G02*
X122443750Y-88425000I218750J0D01*
G01*
X122881250Y-88425000D01*
G75*
G02*
X123100000Y-88643750I0J-218750D01*
G01*
G37*
G36*
G01*
X124675000Y-88643750D02*
X124675000Y-89156250D01*
G75*
G02*
X124456250Y-89375000I-218750J0D01*
G01*
X124018750Y-89375000D01*
G75*
G02*
X123800000Y-89156250I0J218750D01*
G01*
X123800000Y-88643750D01*
G75*
G02*
X124018750Y-88425000I218750J0D01*
G01*
X124456250Y-88425000D01*
G75*
G02*
X124675000Y-88643750I0J-218750D01*
G01*
G37*
%TD*%
%TO.C,C31*%
G36*
G01*
X124675000Y-91943750D02*
X124675000Y-92456250D01*
G75*
G02*
X124456250Y-92675000I-218750J0D01*
G01*
X124018750Y-92675000D01*
G75*
G02*
X123800000Y-92456250I0J218750D01*
G01*
X123800000Y-91943750D01*
G75*
G02*
X124018750Y-91725000I218750J0D01*
G01*
X124456250Y-91725000D01*
G75*
G02*
X124675000Y-91943750I0J-218750D01*
G01*
G37*
G36*
G01*
X123100000Y-91943750D02*
X123100000Y-92456250D01*
G75*
G02*
X122881250Y-92675000I-218750J0D01*
G01*
X122443750Y-92675000D01*
G75*
G02*
X122225000Y-92456250I0J218750D01*
G01*
X122225000Y-91943750D01*
G75*
G02*
X122443750Y-91725000I218750J0D01*
G01*
X122881250Y-91725000D01*
G75*
G02*
X123100000Y-91943750I0J-218750D01*
G01*
G37*
%TD*%
%TO.C,C33*%
G36*
G01*
X189825000Y-104775000D02*
X189825000Y-106025000D01*
G75*
G02*
X189575000Y-106275000I-250000J0D01*
G01*
X188825000Y-106275000D01*
G75*
G02*
X188575000Y-106025000I0J250000D01*
G01*
X188575000Y-104775000D01*
G75*
G02*
X188825000Y-104525000I250000J0D01*
G01*
X189575000Y-104525000D01*
G75*
G02*
X189825000Y-104775000I0J-250000D01*
G01*
G37*
G36*
G01*
X192625000Y-104775000D02*
X192625000Y-106025000D01*
G75*
G02*
X192375000Y-106275000I-250000J0D01*
G01*
X191625000Y-106275000D01*
G75*
G02*
X191375000Y-106025000I0J250000D01*
G01*
X191375000Y-104775000D01*
G75*
G02*
X191625000Y-104525000I250000J0D01*
G01*
X192375000Y-104525000D01*
G75*
G02*
X192625000Y-104775000I0J-250000D01*
G01*
G37*
%TD*%
%TO.C,C34*%
G36*
G01*
X186950000Y-105256250D02*
X186950000Y-104743750D01*
G75*
G02*
X187168750Y-104525000I218750J0D01*
G01*
X187606250Y-104525000D01*
G75*
G02*
X187825000Y-104743750I0J-218750D01*
G01*
X187825000Y-105256250D01*
G75*
G02*
X187606250Y-105475000I-218750J0D01*
G01*
X187168750Y-105475000D01*
G75*
G02*
X186950000Y-105256250I0J218750D01*
G01*
G37*
G36*
G01*
X185375000Y-105256250D02*
X185375000Y-104743750D01*
G75*
G02*
X185593750Y-104525000I218750J0D01*
G01*
X186031250Y-104525000D01*
G75*
G02*
X186250000Y-104743750I0J-218750D01*
G01*
X186250000Y-105256250D01*
G75*
G02*
X186031250Y-105475000I-218750J0D01*
G01*
X185593750Y-105475000D01*
G75*
G02*
X185375000Y-105256250I0J218750D01*
G01*
G37*
%TD*%
%TO.C,C35*%
G36*
G01*
X188250000Y-99143750D02*
X188250000Y-99656250D01*
G75*
G02*
X188031250Y-99875000I-218750J0D01*
G01*
X187593750Y-99875000D01*
G75*
G02*
X187375000Y-99656250I0J218750D01*
G01*
X187375000Y-99143750D01*
G75*
G02*
X187593750Y-98925000I218750J0D01*
G01*
X188031250Y-98925000D01*
G75*
G02*
X188250000Y-99143750I0J-218750D01*
G01*
G37*
G36*
G01*
X189825000Y-99143750D02*
X189825000Y-99656250D01*
G75*
G02*
X189606250Y-99875000I-218750J0D01*
G01*
X189168750Y-99875000D01*
G75*
G02*
X188950000Y-99656250I0J218750D01*
G01*
X188950000Y-99143750D01*
G75*
G02*
X189168750Y-98925000I218750J0D01*
G01*
X189606250Y-98925000D01*
G75*
G02*
X189825000Y-99143750I0J-218750D01*
G01*
G37*
%TD*%
%TO.C,C36*%
G36*
G01*
X171575000Y-105375000D02*
X170325000Y-105375000D01*
G75*
G02*
X170075000Y-105125000I0J250000D01*
G01*
X170075000Y-104375000D01*
G75*
G02*
X170325000Y-104125000I250000J0D01*
G01*
X171575000Y-104125000D01*
G75*
G02*
X171825000Y-104375000I0J-250000D01*
G01*
X171825000Y-105125000D01*
G75*
G02*
X171575000Y-105375000I-250000J0D01*
G01*
G37*
G36*
G01*
X171575000Y-102575000D02*
X170325000Y-102575000D01*
G75*
G02*
X170075000Y-102325000I0J250000D01*
G01*
X170075000Y-101575000D01*
G75*
G02*
X170325000Y-101325000I250000J0D01*
G01*
X171575000Y-101325000D01*
G75*
G02*
X171825000Y-101575000I0J-250000D01*
G01*
X171825000Y-102325000D01*
G75*
G02*
X171575000Y-102575000I-250000J0D01*
G01*
G37*
%TD*%
%TO.C,C37*%
G36*
G01*
X174075000Y-105375000D02*
X172825000Y-105375000D01*
G75*
G02*
X172575000Y-105125000I0J250000D01*
G01*
X172575000Y-104375000D01*
G75*
G02*
X172825000Y-104125000I250000J0D01*
G01*
X174075000Y-104125000D01*
G75*
G02*
X174325000Y-104375000I0J-250000D01*
G01*
X174325000Y-105125000D01*
G75*
G02*
X174075000Y-105375000I-250000J0D01*
G01*
G37*
G36*
G01*
X174075000Y-102575000D02*
X172825000Y-102575000D01*
G75*
G02*
X172575000Y-102325000I0J250000D01*
G01*
X172575000Y-101575000D01*
G75*
G02*
X172825000Y-101325000I250000J0D01*
G01*
X174075000Y-101325000D01*
G75*
G02*
X174325000Y-101575000I0J-250000D01*
G01*
X174325000Y-102325000D01*
G75*
G02*
X174075000Y-102575000I-250000J0D01*
G01*
G37*
%TD*%
%TO.C,C38*%
G36*
G01*
X158775000Y-108625000D02*
X158775000Y-109875000D01*
G75*
G02*
X158525000Y-110125000I-250000J0D01*
G01*
X157775000Y-110125000D01*
G75*
G02*
X157525000Y-109875000I0J250000D01*
G01*
X157525000Y-108625000D01*
G75*
G02*
X157775000Y-108375000I250000J0D01*
G01*
X158525000Y-108375000D01*
G75*
G02*
X158775000Y-108625000I0J-250000D01*
G01*
G37*
G36*
G01*
X155975000Y-108625000D02*
X155975000Y-109875000D01*
G75*
G02*
X155725000Y-110125000I-250000J0D01*
G01*
X154975000Y-110125000D01*
G75*
G02*
X154725000Y-109875000I0J250000D01*
G01*
X154725000Y-108625000D01*
G75*
G02*
X154975000Y-108375000I250000J0D01*
G01*
X155725000Y-108375000D01*
G75*
G02*
X155975000Y-108625000I0J-250000D01*
G01*
G37*
%TD*%
%TO.C,C39*%
G36*
G01*
X157243750Y-102700000D02*
X157756250Y-102700000D01*
G75*
G02*
X157975000Y-102918750I0J-218750D01*
G01*
X157975000Y-103356250D01*
G75*
G02*
X157756250Y-103575000I-218750J0D01*
G01*
X157243750Y-103575000D01*
G75*
G02*
X157025000Y-103356250I0J218750D01*
G01*
X157025000Y-102918750D01*
G75*
G02*
X157243750Y-102700000I218750J0D01*
G01*
G37*
G36*
G01*
X157243750Y-101125000D02*
X157756250Y-101125000D01*
G75*
G02*
X157975000Y-101343750I0J-218750D01*
G01*
X157975000Y-101781250D01*
G75*
G02*
X157756250Y-102000000I-218750J0D01*
G01*
X157243750Y-102000000D01*
G75*
G02*
X157025000Y-101781250I0J218750D01*
G01*
X157025000Y-101343750D01*
G75*
G02*
X157243750Y-101125000I218750J0D01*
G01*
G37*
%TD*%
%TO.C,C40*%
G36*
G01*
X160643750Y-104325000D02*
X161556250Y-104325000D01*
G75*
G02*
X161800000Y-104568750I0J-243750D01*
G01*
X161800000Y-105056250D01*
G75*
G02*
X161556250Y-105300000I-243750J0D01*
G01*
X160643750Y-105300000D01*
G75*
G02*
X160400000Y-105056250I0J243750D01*
G01*
X160400000Y-104568750D01*
G75*
G02*
X160643750Y-104325000I243750J0D01*
G01*
G37*
G36*
G01*
X160643750Y-106200000D02*
X161556250Y-106200000D01*
G75*
G02*
X161800000Y-106443750I0J-243750D01*
G01*
X161800000Y-106931250D01*
G75*
G02*
X161556250Y-107175000I-243750J0D01*
G01*
X160643750Y-107175000D01*
G75*
G02*
X160400000Y-106931250I0J243750D01*
G01*
X160400000Y-106443750D01*
G75*
G02*
X160643750Y-106200000I243750J0D01*
G01*
G37*
%TD*%
D12*
%TO.C,C41*%
X140800000Y-101803000D03*
X140800000Y-96597000D03*
%TD*%
%TO.C,C43*%
X140800000Y-109803000D03*
X140800000Y-104597000D03*
%TD*%
%TO.C,D2*%
G36*
G01*
X144950000Y-113256250D02*
X144950000Y-112743750D01*
G75*
G02*
X145168750Y-112525000I218750J0D01*
G01*
X145606250Y-112525000D01*
G75*
G02*
X145825000Y-112743750I0J-218750D01*
G01*
X145825000Y-113256250D01*
G75*
G02*
X145606250Y-113475000I-218750J0D01*
G01*
X145168750Y-113475000D01*
G75*
G02*
X144950000Y-113256250I0J218750D01*
G01*
G37*
G36*
G01*
X143375000Y-113256250D02*
X143375000Y-112743750D01*
G75*
G02*
X143593750Y-112525000I218750J0D01*
G01*
X144031250Y-112525000D01*
G75*
G02*
X144250000Y-112743750I0J-218750D01*
G01*
X144250000Y-113256250D01*
G75*
G02*
X144031250Y-113475000I-218750J0D01*
G01*
X143593750Y-113475000D01*
G75*
G02*
X143375000Y-113256250I0J218750D01*
G01*
G37*
%TD*%
%TO.C,F1*%
G36*
G01*
X177943750Y-86800000D02*
X178456250Y-86800000D01*
G75*
G02*
X178675000Y-87018750I0J-218750D01*
G01*
X178675000Y-87456250D01*
G75*
G02*
X178456250Y-87675000I-218750J0D01*
G01*
X177943750Y-87675000D01*
G75*
G02*
X177725000Y-87456250I0J218750D01*
G01*
X177725000Y-87018750D01*
G75*
G02*
X177943750Y-86800000I218750J0D01*
G01*
G37*
G36*
G01*
X177943750Y-85225000D02*
X178456250Y-85225000D01*
G75*
G02*
X178675000Y-85443750I0J-218750D01*
G01*
X178675000Y-85881250D01*
G75*
G02*
X178456250Y-86100000I-218750J0D01*
G01*
X177943750Y-86100000D01*
G75*
G02*
X177725000Y-85881250I0J218750D01*
G01*
X177725000Y-85443750D01*
G75*
G02*
X177943750Y-85225000I218750J0D01*
G01*
G37*
%TD*%
%TO.C,F2*%
G36*
G01*
X168256250Y-99925000D02*
X167743750Y-99925000D01*
G75*
G02*
X167525000Y-99706250I0J218750D01*
G01*
X167525000Y-99268750D01*
G75*
G02*
X167743750Y-99050000I218750J0D01*
G01*
X168256250Y-99050000D01*
G75*
G02*
X168475000Y-99268750I0J-218750D01*
G01*
X168475000Y-99706250D01*
G75*
G02*
X168256250Y-99925000I-218750J0D01*
G01*
G37*
G36*
G01*
X168256250Y-98350000D02*
X167743750Y-98350000D01*
G75*
G02*
X167525000Y-98131250I0J218750D01*
G01*
X167525000Y-97693750D01*
G75*
G02*
X167743750Y-97475000I218750J0D01*
G01*
X168256250Y-97475000D01*
G75*
G02*
X168475000Y-97693750I0J-218750D01*
G01*
X168475000Y-98131250D01*
G75*
G02*
X168256250Y-98350000I-218750J0D01*
G01*
G37*
%TD*%
%TO.C,F3*%
G36*
G01*
X173693750Y-97475000D02*
X174206250Y-97475000D01*
G75*
G02*
X174425000Y-97693750I0J-218750D01*
G01*
X174425000Y-98131250D01*
G75*
G02*
X174206250Y-98350000I-218750J0D01*
G01*
X173693750Y-98350000D01*
G75*
G02*
X173475000Y-98131250I0J218750D01*
G01*
X173475000Y-97693750D01*
G75*
G02*
X173693750Y-97475000I218750J0D01*
G01*
G37*
G36*
G01*
X173693750Y-99050000D02*
X174206250Y-99050000D01*
G75*
G02*
X174425000Y-99268750I0J-218750D01*
G01*
X174425000Y-99706250D01*
G75*
G02*
X174206250Y-99925000I-218750J0D01*
G01*
X173693750Y-99925000D01*
G75*
G02*
X173475000Y-99706250I0J218750D01*
G01*
X173475000Y-99268750D01*
G75*
G02*
X173693750Y-99050000I218750J0D01*
G01*
G37*
%TD*%
%TO.C,F4*%
G36*
G01*
X145256250Y-111425000D02*
X144743750Y-111425000D01*
G75*
G02*
X144525000Y-111206250I0J218750D01*
G01*
X144525000Y-110768750D01*
G75*
G02*
X144743750Y-110550000I218750J0D01*
G01*
X145256250Y-110550000D01*
G75*
G02*
X145475000Y-110768750I0J-218750D01*
G01*
X145475000Y-111206250D01*
G75*
G02*
X145256250Y-111425000I-218750J0D01*
G01*
G37*
G36*
G01*
X145256250Y-109850000D02*
X144743750Y-109850000D01*
G75*
G02*
X144525000Y-109631250I0J218750D01*
G01*
X144525000Y-109193750D01*
G75*
G02*
X144743750Y-108975000I218750J0D01*
G01*
X145256250Y-108975000D01*
G75*
G02*
X145475000Y-109193750I0J-218750D01*
G01*
X145475000Y-109631250D01*
G75*
G02*
X145256250Y-109850000I-218750J0D01*
G01*
G37*
%TD*%
D13*
%TO.C,J1*%
X133875000Y-73675000D03*
D14*
X132400000Y-75200000D03*
D13*
X130925000Y-73675000D03*
%TD*%
D15*
%TO.C,J8*%
X120545000Y-81800000D03*
X120545000Y-83800000D03*
X120545000Y-83300000D03*
X120545000Y-82800000D03*
X120545000Y-82300000D03*
X120545000Y-81300000D03*
X120545000Y-80800000D03*
X120545000Y-80300000D03*
D16*
X120545000Y-85300000D03*
X120545000Y-84500000D03*
X120545000Y-79600000D03*
X120545000Y-78800000D03*
X120545000Y-78800000D03*
X120545000Y-79600000D03*
X120545000Y-84500000D03*
X120545000Y-85300000D03*
%TD*%
%TO.C,L1*%
G36*
G01*
X136325000Y-103493750D02*
X136325000Y-104406250D01*
G75*
G02*
X136081250Y-104650000I-243750J0D01*
G01*
X135593750Y-104650000D01*
G75*
G02*
X135350000Y-104406250I0J243750D01*
G01*
X135350000Y-103493750D01*
G75*
G02*
X135593750Y-103250000I243750J0D01*
G01*
X136081250Y-103250000D01*
G75*
G02*
X136325000Y-103493750I0J-243750D01*
G01*
G37*
G36*
G01*
X134450000Y-103493750D02*
X134450000Y-104406250D01*
G75*
G02*
X134206250Y-104650000I-243750J0D01*
G01*
X133718750Y-104650000D01*
G75*
G02*
X133475000Y-104406250I0J243750D01*
G01*
X133475000Y-103493750D01*
G75*
G02*
X133718750Y-103250000I243750J0D01*
G01*
X134206250Y-103250000D01*
G75*
G02*
X134450000Y-103493750I0J-243750D01*
G01*
G37*
%TD*%
D17*
%TO.C,L3*%
X176180500Y-101400000D03*
X183419500Y-101400000D03*
%TD*%
D18*
%TO.C,L4*%
X153000000Y-104600000D03*
X145600000Y-104600000D03*
%TD*%
D11*
%TO.C,Q3*%
X142200000Y-115950000D03*
X142200000Y-114050000D03*
X140200000Y-115000000D03*
%TD*%
%TO.C,R1*%
G36*
G01*
X182256250Y-83937500D02*
X181743750Y-83937500D01*
G75*
G02*
X181525000Y-83718750I0J218750D01*
G01*
X181525000Y-83281250D01*
G75*
G02*
X181743750Y-83062500I218750J0D01*
G01*
X182256250Y-83062500D01*
G75*
G02*
X182475000Y-83281250I0J-218750D01*
G01*
X182475000Y-83718750D01*
G75*
G02*
X182256250Y-83937500I-218750J0D01*
G01*
G37*
G36*
G01*
X182256250Y-82362500D02*
X181743750Y-82362500D01*
G75*
G02*
X181525000Y-82143750I0J218750D01*
G01*
X181525000Y-81706250D01*
G75*
G02*
X181743750Y-81487500I218750J0D01*
G01*
X182256250Y-81487500D01*
G75*
G02*
X182475000Y-81706250I0J-218750D01*
G01*
X182475000Y-82143750D01*
G75*
G02*
X182256250Y-82362500I-218750J0D01*
G01*
G37*
%TD*%
%TO.C,R2*%
G36*
G01*
X181743750Y-79950000D02*
X182256250Y-79950000D01*
G75*
G02*
X182475000Y-80168750I0J-218750D01*
G01*
X182475000Y-80606250D01*
G75*
G02*
X182256250Y-80825000I-218750J0D01*
G01*
X181743750Y-80825000D01*
G75*
G02*
X181525000Y-80606250I0J218750D01*
G01*
X181525000Y-80168750D01*
G75*
G02*
X181743750Y-79950000I218750J0D01*
G01*
G37*
G36*
G01*
X181743750Y-78375000D02*
X182256250Y-78375000D01*
G75*
G02*
X182475000Y-78593750I0J-218750D01*
G01*
X182475000Y-79031250D01*
G75*
G02*
X182256250Y-79250000I-218750J0D01*
G01*
X181743750Y-79250000D01*
G75*
G02*
X181525000Y-79031250I0J218750D01*
G01*
X181525000Y-78593750D01*
G75*
G02*
X181743750Y-78375000I218750J0D01*
G01*
G37*
%TD*%
%TO.C,R3*%
G36*
G01*
X147962500Y-90193750D02*
X147962500Y-90706250D01*
G75*
G02*
X147743750Y-90925000I-218750J0D01*
G01*
X147306250Y-90925000D01*
G75*
G02*
X147087500Y-90706250I0J218750D01*
G01*
X147087500Y-90193750D01*
G75*
G02*
X147306250Y-89975000I218750J0D01*
G01*
X147743750Y-89975000D01*
G75*
G02*
X147962500Y-90193750I0J-218750D01*
G01*
G37*
G36*
G01*
X149537500Y-90193750D02*
X149537500Y-90706250D01*
G75*
G02*
X149318750Y-90925000I-218750J0D01*
G01*
X148881250Y-90925000D01*
G75*
G02*
X148662500Y-90706250I0J218750D01*
G01*
X148662500Y-90193750D01*
G75*
G02*
X148881250Y-89975000I218750J0D01*
G01*
X149318750Y-89975000D01*
G75*
G02*
X149537500Y-90193750I0J-218750D01*
G01*
G37*
%TD*%
%TO.C,R4*%
G36*
G01*
X152043750Y-91650000D02*
X152556250Y-91650000D01*
G75*
G02*
X152775000Y-91868750I0J-218750D01*
G01*
X152775000Y-92306250D01*
G75*
G02*
X152556250Y-92525000I-218750J0D01*
G01*
X152043750Y-92525000D01*
G75*
G02*
X151825000Y-92306250I0J218750D01*
G01*
X151825000Y-91868750D01*
G75*
G02*
X152043750Y-91650000I218750J0D01*
G01*
G37*
G36*
G01*
X152043750Y-90075000D02*
X152556250Y-90075000D01*
G75*
G02*
X152775000Y-90293750I0J-218750D01*
G01*
X152775000Y-90731250D01*
G75*
G02*
X152556250Y-90950000I-218750J0D01*
G01*
X152043750Y-90950000D01*
G75*
G02*
X151825000Y-90731250I0J218750D01*
G01*
X151825000Y-90293750D01*
G75*
G02*
X152043750Y-90075000I218750J0D01*
G01*
G37*
%TD*%
%TO.C,R5*%
G36*
G01*
X150393750Y-90075000D02*
X150906250Y-90075000D01*
G75*
G02*
X151125000Y-90293750I0J-218750D01*
G01*
X151125000Y-90731250D01*
G75*
G02*
X150906250Y-90950000I-218750J0D01*
G01*
X150393750Y-90950000D01*
G75*
G02*
X150175000Y-90731250I0J218750D01*
G01*
X150175000Y-90293750D01*
G75*
G02*
X150393750Y-90075000I218750J0D01*
G01*
G37*
G36*
G01*
X150393750Y-91650000D02*
X150906250Y-91650000D01*
G75*
G02*
X151125000Y-91868750I0J-218750D01*
G01*
X151125000Y-92306250D01*
G75*
G02*
X150906250Y-92525000I-218750J0D01*
G01*
X150393750Y-92525000D01*
G75*
G02*
X150175000Y-92306250I0J218750D01*
G01*
X150175000Y-91868750D01*
G75*
G02*
X150393750Y-91650000I218750J0D01*
G01*
G37*
%TD*%
%TO.C,R6*%
G36*
G01*
X161650000Y-66606250D02*
X161650000Y-66093750D01*
G75*
G02*
X161868750Y-65875000I218750J0D01*
G01*
X162306250Y-65875000D01*
G75*
G02*
X162525000Y-66093750I0J-218750D01*
G01*
X162525000Y-66606250D01*
G75*
G02*
X162306250Y-66825000I-218750J0D01*
G01*
X161868750Y-66825000D01*
G75*
G02*
X161650000Y-66606250I0J218750D01*
G01*
G37*
G36*
G01*
X160075000Y-66606250D02*
X160075000Y-66093750D01*
G75*
G02*
X160293750Y-65875000I218750J0D01*
G01*
X160731250Y-65875000D01*
G75*
G02*
X160950000Y-66093750I0J-218750D01*
G01*
X160950000Y-66606250D01*
G75*
G02*
X160731250Y-66825000I-218750J0D01*
G01*
X160293750Y-66825000D01*
G75*
G02*
X160075000Y-66606250I0J218750D01*
G01*
G37*
%TD*%
%TO.C,R8*%
G36*
G01*
X161343750Y-102262500D02*
X161856250Y-102262500D01*
G75*
G02*
X162075000Y-102481250I0J-218750D01*
G01*
X162075000Y-102918750D01*
G75*
G02*
X161856250Y-103137500I-218750J0D01*
G01*
X161343750Y-103137500D01*
G75*
G02*
X161125000Y-102918750I0J218750D01*
G01*
X161125000Y-102481250D01*
G75*
G02*
X161343750Y-102262500I218750J0D01*
G01*
G37*
G36*
G01*
X161343750Y-100687500D02*
X161856250Y-100687500D01*
G75*
G02*
X162075000Y-100906250I0J-218750D01*
G01*
X162075000Y-101343750D01*
G75*
G02*
X161856250Y-101562500I-218750J0D01*
G01*
X161343750Y-101562500D01*
G75*
G02*
X161125000Y-101343750I0J218750D01*
G01*
X161125000Y-100906250D01*
G75*
G02*
X161343750Y-100687500I218750J0D01*
G01*
G37*
%TD*%
%TO.C,R9*%
G36*
G01*
X167743750Y-100675000D02*
X168256250Y-100675000D01*
G75*
G02*
X168475000Y-100893750I0J-218750D01*
G01*
X168475000Y-101331250D01*
G75*
G02*
X168256250Y-101550000I-218750J0D01*
G01*
X167743750Y-101550000D01*
G75*
G02*
X167525000Y-101331250I0J218750D01*
G01*
X167525000Y-100893750D01*
G75*
G02*
X167743750Y-100675000I218750J0D01*
G01*
G37*
G36*
G01*
X167743750Y-102250000D02*
X168256250Y-102250000D01*
G75*
G02*
X168475000Y-102468750I0J-218750D01*
G01*
X168475000Y-102906250D01*
G75*
G02*
X168256250Y-103125000I-218750J0D01*
G01*
X167743750Y-103125000D01*
G75*
G02*
X167525000Y-102906250I0J218750D01*
G01*
X167525000Y-102468750D01*
G75*
G02*
X167743750Y-102250000I218750J0D01*
G01*
G37*
%TD*%
%TO.C,R17*%
G36*
G01*
X190343750Y-102950000D02*
X190856250Y-102950000D01*
G75*
G02*
X191075000Y-103168750I0J-218750D01*
G01*
X191075000Y-103606250D01*
G75*
G02*
X190856250Y-103825000I-218750J0D01*
G01*
X190343750Y-103825000D01*
G75*
G02*
X190125000Y-103606250I0J218750D01*
G01*
X190125000Y-103168750D01*
G75*
G02*
X190343750Y-102950000I218750J0D01*
G01*
G37*
G36*
G01*
X190343750Y-101375000D02*
X190856250Y-101375000D01*
G75*
G02*
X191075000Y-101593750I0J-218750D01*
G01*
X191075000Y-102031250D01*
G75*
G02*
X190856250Y-102250000I-218750J0D01*
G01*
X190343750Y-102250000D01*
G75*
G02*
X190125000Y-102031250I0J218750D01*
G01*
X190125000Y-101593750D01*
G75*
G02*
X190343750Y-101375000I218750J0D01*
G01*
G37*
%TD*%
%TO.C,R18*%
G36*
G01*
X192456250Y-103825000D02*
X191943750Y-103825000D01*
G75*
G02*
X191725000Y-103606250I0J218750D01*
G01*
X191725000Y-103168750D01*
G75*
G02*
X191943750Y-102950000I218750J0D01*
G01*
X192456250Y-102950000D01*
G75*
G02*
X192675000Y-103168750I0J-218750D01*
G01*
X192675000Y-103606250D01*
G75*
G02*
X192456250Y-103825000I-218750J0D01*
G01*
G37*
G36*
G01*
X192456250Y-102250000D02*
X191943750Y-102250000D01*
G75*
G02*
X191725000Y-102031250I0J218750D01*
G01*
X191725000Y-101593750D01*
G75*
G02*
X191943750Y-101375000I218750J0D01*
G01*
X192456250Y-101375000D01*
G75*
G02*
X192675000Y-101593750I0J-218750D01*
G01*
X192675000Y-102031250D01*
G75*
G02*
X192456250Y-102250000I-218750J0D01*
G01*
G37*
%TD*%
%TO.C,R21*%
G36*
G01*
X158943750Y-104725000D02*
X159456250Y-104725000D01*
G75*
G02*
X159675000Y-104943750I0J-218750D01*
G01*
X159675000Y-105381250D01*
G75*
G02*
X159456250Y-105600000I-218750J0D01*
G01*
X158943750Y-105600000D01*
G75*
G02*
X158725000Y-105381250I0J218750D01*
G01*
X158725000Y-104943750D01*
G75*
G02*
X158943750Y-104725000I218750J0D01*
G01*
G37*
G36*
G01*
X158943750Y-106300000D02*
X159456250Y-106300000D01*
G75*
G02*
X159675000Y-106518750I0J-218750D01*
G01*
X159675000Y-106956250D01*
G75*
G02*
X159456250Y-107175000I-218750J0D01*
G01*
X158943750Y-107175000D01*
G75*
G02*
X158725000Y-106956250I0J218750D01*
G01*
X158725000Y-106518750D01*
G75*
G02*
X158943750Y-106300000I218750J0D01*
G01*
G37*
%TD*%
%TO.C,R22*%
G36*
G01*
X160356250Y-110275000D02*
X159843750Y-110275000D01*
G75*
G02*
X159625000Y-110056250I0J218750D01*
G01*
X159625000Y-109618750D01*
G75*
G02*
X159843750Y-109400000I218750J0D01*
G01*
X160356250Y-109400000D01*
G75*
G02*
X160575000Y-109618750I0J-218750D01*
G01*
X160575000Y-110056250D01*
G75*
G02*
X160356250Y-110275000I-218750J0D01*
G01*
G37*
G36*
G01*
X160356250Y-108700000D02*
X159843750Y-108700000D01*
G75*
G02*
X159625000Y-108481250I0J218750D01*
G01*
X159625000Y-108043750D01*
G75*
G02*
X159843750Y-107825000I218750J0D01*
G01*
X160356250Y-107825000D01*
G75*
G02*
X160575000Y-108043750I0J-218750D01*
G01*
X160575000Y-108481250D01*
G75*
G02*
X160356250Y-108700000I-218750J0D01*
G01*
G37*
%TD*%
%TO.C,R36*%
G36*
G01*
X138856250Y-115037500D02*
X138343750Y-115037500D01*
G75*
G02*
X138125000Y-114818750I0J218750D01*
G01*
X138125000Y-114381250D01*
G75*
G02*
X138343750Y-114162500I218750J0D01*
G01*
X138856250Y-114162500D01*
G75*
G02*
X139075000Y-114381250I0J-218750D01*
G01*
X139075000Y-114818750D01*
G75*
G02*
X138856250Y-115037500I-218750J0D01*
G01*
G37*
G36*
G01*
X138856250Y-116612500D02*
X138343750Y-116612500D01*
G75*
G02*
X138125000Y-116393750I0J218750D01*
G01*
X138125000Y-115956250D01*
G75*
G02*
X138343750Y-115737500I218750J0D01*
G01*
X138856250Y-115737500D01*
G75*
G02*
X139075000Y-115956250I0J-218750D01*
G01*
X139075000Y-116393750D01*
G75*
G02*
X138856250Y-116612500I-218750J0D01*
G01*
G37*
%TD*%
%TO.C,R37*%
G36*
G01*
X145143750Y-115750000D02*
X145656250Y-115750000D01*
G75*
G02*
X145875000Y-115968750I0J-218750D01*
G01*
X145875000Y-116406250D01*
G75*
G02*
X145656250Y-116625000I-218750J0D01*
G01*
X145143750Y-116625000D01*
G75*
G02*
X144925000Y-116406250I0J218750D01*
G01*
X144925000Y-115968750D01*
G75*
G02*
X145143750Y-115750000I218750J0D01*
G01*
G37*
G36*
G01*
X145143750Y-114175000D02*
X145656250Y-114175000D01*
G75*
G02*
X145875000Y-114393750I0J-218750D01*
G01*
X145875000Y-114831250D01*
G75*
G02*
X145656250Y-115050000I-218750J0D01*
G01*
X145143750Y-115050000D01*
G75*
G02*
X144925000Y-114831250I0J218750D01*
G01*
X144925000Y-114393750D01*
G75*
G02*
X145143750Y-114175000I218750J0D01*
G01*
G37*
%TD*%
%TO.C,R38*%
G36*
G01*
X143543750Y-114175000D02*
X144056250Y-114175000D01*
G75*
G02*
X144275000Y-114393750I0J-218750D01*
G01*
X144275000Y-114831250D01*
G75*
G02*
X144056250Y-115050000I-218750J0D01*
G01*
X143543750Y-115050000D01*
G75*
G02*
X143325000Y-114831250I0J218750D01*
G01*
X143325000Y-114393750D01*
G75*
G02*
X143543750Y-114175000I218750J0D01*
G01*
G37*
G36*
G01*
X143543750Y-115750000D02*
X144056250Y-115750000D01*
G75*
G02*
X144275000Y-115968750I0J-218750D01*
G01*
X144275000Y-116406250D01*
G75*
G02*
X144056250Y-116625000I-218750J0D01*
G01*
X143543750Y-116625000D01*
G75*
G02*
X143325000Y-116406250I0J218750D01*
G01*
X143325000Y-115968750D01*
G75*
G02*
X143543750Y-115750000I218750J0D01*
G01*
G37*
%TD*%
%TO.C,SW1*%
G36*
G01*
X129700000Y-68700000D02*
X128100000Y-68700000D01*
G75*
G02*
X127900000Y-68500000I0J200000D01*
G01*
X127900000Y-68100000D01*
G75*
G02*
X128100000Y-67900000I200000J0D01*
G01*
X129700000Y-67900000D01*
G75*
G02*
X129900000Y-68100000I0J-200000D01*
G01*
X129900000Y-68500000D01*
G75*
G02*
X129700000Y-68700000I-200000J0D01*
G01*
G37*
G36*
G01*
X129700000Y-64500000D02*
X128100000Y-64500000D01*
G75*
G02*
X127900000Y-64300000I0J200000D01*
G01*
X127900000Y-63900000D01*
G75*
G02*
X128100000Y-63700000I200000J0D01*
G01*
X129700000Y-63700000D01*
G75*
G02*
X129900000Y-63900000I0J-200000D01*
G01*
X129900000Y-64300000D01*
G75*
G02*
X129700000Y-64500000I-200000J0D01*
G01*
G37*
%TD*%
%TO.C,SW2*%
G36*
G01*
X134700000Y-64500000D02*
X133100000Y-64500000D01*
G75*
G02*
X132900000Y-64300000I0J200000D01*
G01*
X132900000Y-63900000D01*
G75*
G02*
X133100000Y-63700000I200000J0D01*
G01*
X134700000Y-63700000D01*
G75*
G02*
X134900000Y-63900000I0J-200000D01*
G01*
X134900000Y-64300000D01*
G75*
G02*
X134700000Y-64500000I-200000J0D01*
G01*
G37*
G36*
G01*
X134700000Y-68700000D02*
X133100000Y-68700000D01*
G75*
G02*
X132900000Y-68500000I0J200000D01*
G01*
X132900000Y-68100000D01*
G75*
G02*
X133100000Y-67900000I200000J0D01*
G01*
X134700000Y-67900000D01*
G75*
G02*
X134900000Y-68100000I0J-200000D01*
G01*
X134900000Y-68500000D01*
G75*
G02*
X134700000Y-68700000I-200000J0D01*
G01*
G37*
%TD*%
D19*
%TO.C,SW3*%
X171660000Y-84890000D03*
X164040000Y-93500000D03*
X169120000Y-84890000D03*
X166580000Y-93500000D03*
X166580000Y-84890000D03*
X169120000Y-93500000D03*
X164040000Y-84890000D03*
X171660000Y-93500000D03*
%TD*%
D20*
%TO.C,U1*%
X135850000Y-99390000D03*
X134900000Y-99390000D03*
X133950000Y-99390000D03*
X133950000Y-102010000D03*
X135850000Y-102010000D03*
%TD*%
%TO.C,U2*%
G36*
G01*
X180875000Y-82375000D02*
X180875000Y-82575000D01*
G75*
G02*
X180775000Y-82675000I-100000J0D01*
G01*
X179525000Y-82675000D01*
G75*
G02*
X179425000Y-82575000I0J100000D01*
G01*
X179425000Y-82375000D01*
G75*
G02*
X179525000Y-82275000I100000J0D01*
G01*
X180775000Y-82275000D01*
G75*
G02*
X180875000Y-82375000I0J-100000D01*
G01*
G37*
G36*
G01*
X180875000Y-81725000D02*
X180875000Y-81925000D01*
G75*
G02*
X180775000Y-82025000I-100000J0D01*
G01*
X179525000Y-82025000D01*
G75*
G02*
X179425000Y-81925000I0J100000D01*
G01*
X179425000Y-81725000D01*
G75*
G02*
X179525000Y-81625000I100000J0D01*
G01*
X180775000Y-81625000D01*
G75*
G02*
X180875000Y-81725000I0J-100000D01*
G01*
G37*
G36*
G01*
X180875000Y-81075000D02*
X180875000Y-81275000D01*
G75*
G02*
X180775000Y-81375000I-100000J0D01*
G01*
X179525000Y-81375000D01*
G75*
G02*
X179425000Y-81275000I0J100000D01*
G01*
X179425000Y-81075000D01*
G75*
G02*
X179525000Y-80975000I100000J0D01*
G01*
X180775000Y-80975000D01*
G75*
G02*
X180875000Y-81075000I0J-100000D01*
G01*
G37*
G36*
G01*
X180875000Y-80425000D02*
X180875000Y-80625000D01*
G75*
G02*
X180775000Y-80725000I-100000J0D01*
G01*
X179525000Y-80725000D01*
G75*
G02*
X179425000Y-80625000I0J100000D01*
G01*
X179425000Y-80425000D01*
G75*
G02*
X179525000Y-80325000I100000J0D01*
G01*
X180775000Y-80325000D01*
G75*
G02*
X180875000Y-80425000I0J-100000D01*
G01*
G37*
G36*
G01*
X180875000Y-79775000D02*
X180875000Y-79975000D01*
G75*
G02*
X180775000Y-80075000I-100000J0D01*
G01*
X179525000Y-80075000D01*
G75*
G02*
X179425000Y-79975000I0J100000D01*
G01*
X179425000Y-79775000D01*
G75*
G02*
X179525000Y-79675000I100000J0D01*
G01*
X180775000Y-79675000D01*
G75*
G02*
X180875000Y-79775000I0J-100000D01*
G01*
G37*
G36*
G01*
X180875000Y-79125000D02*
X180875000Y-79325000D01*
G75*
G02*
X180775000Y-79425000I-100000J0D01*
G01*
X179525000Y-79425000D01*
G75*
G02*
X179425000Y-79325000I0J100000D01*
G01*
X179425000Y-79125000D01*
G75*
G02*
X179525000Y-79025000I100000J0D01*
G01*
X180775000Y-79025000D01*
G75*
G02*
X180875000Y-79125000I0J-100000D01*
G01*
G37*
G36*
G01*
X176575000Y-79125000D02*
X176575000Y-79325000D01*
G75*
G02*
X176475000Y-79425000I-100000J0D01*
G01*
X175225000Y-79425000D01*
G75*
G02*
X175125000Y-79325000I0J100000D01*
G01*
X175125000Y-79125000D01*
G75*
G02*
X175225000Y-79025000I100000J0D01*
G01*
X176475000Y-79025000D01*
G75*
G02*
X176575000Y-79125000I0J-100000D01*
G01*
G37*
G36*
G01*
X176575000Y-79775000D02*
X176575000Y-79975000D01*
G75*
G02*
X176475000Y-80075000I-100000J0D01*
G01*
X175225000Y-80075000D01*
G75*
G02*
X175125000Y-79975000I0J100000D01*
G01*
X175125000Y-79775000D01*
G75*
G02*
X175225000Y-79675000I100000J0D01*
G01*
X176475000Y-79675000D01*
G75*
G02*
X176575000Y-79775000I0J-100000D01*
G01*
G37*
G36*
G01*
X176575000Y-80425000D02*
X176575000Y-80625000D01*
G75*
G02*
X176475000Y-80725000I-100000J0D01*
G01*
X175225000Y-80725000D01*
G75*
G02*
X175125000Y-80625000I0J100000D01*
G01*
X175125000Y-80425000D01*
G75*
G02*
X175225000Y-80325000I100000J0D01*
G01*
X176475000Y-80325000D01*
G75*
G02*
X176575000Y-80425000I0J-100000D01*
G01*
G37*
G36*
G01*
X176575000Y-81075000D02*
X176575000Y-81275000D01*
G75*
G02*
X176475000Y-81375000I-100000J0D01*
G01*
X175225000Y-81375000D01*
G75*
G02*
X175125000Y-81275000I0J100000D01*
G01*
X175125000Y-81075000D01*
G75*
G02*
X175225000Y-80975000I100000J0D01*
G01*
X176475000Y-80975000D01*
G75*
G02*
X176575000Y-81075000I0J-100000D01*
G01*
G37*
G36*
G01*
X176575000Y-81725000D02*
X176575000Y-81925000D01*
G75*
G02*
X176475000Y-82025000I-100000J0D01*
G01*
X175225000Y-82025000D01*
G75*
G02*
X175125000Y-81925000I0J100000D01*
G01*
X175125000Y-81725000D01*
G75*
G02*
X175225000Y-81625000I100000J0D01*
G01*
X176475000Y-81625000D01*
G75*
G02*
X176575000Y-81725000I0J-100000D01*
G01*
G37*
G36*
G01*
X176575000Y-82375000D02*
X176575000Y-82575000D01*
G75*
G02*
X176475000Y-82675000I-100000J0D01*
G01*
X175225000Y-82675000D01*
G75*
G02*
X175125000Y-82575000I0J100000D01*
G01*
X175125000Y-82375000D01*
G75*
G02*
X175225000Y-82275000I100000J0D01*
G01*
X176475000Y-82275000D01*
G75*
G02*
X176575000Y-82375000I0J-100000D01*
G01*
G37*
G36*
G01*
X178755000Y-81137500D02*
X178755000Y-81982500D01*
G75*
G02*
X178582500Y-82155000I-172500J0D01*
G01*
X178237500Y-82155000D01*
G75*
G02*
X178065000Y-81982500I0J172500D01*
G01*
X178065000Y-81137500D01*
G75*
G02*
X178237500Y-80965000I172500J0D01*
G01*
X178582500Y-80965000D01*
G75*
G02*
X178755000Y-81137500I0J-172500D01*
G01*
G37*
G36*
G01*
X178755000Y-79717500D02*
X178755000Y-80562500D01*
G75*
G02*
X178582500Y-80735000I-172500J0D01*
G01*
X178237500Y-80735000D01*
G75*
G02*
X178065000Y-80562500I0J172500D01*
G01*
X178065000Y-79717500D01*
G75*
G02*
X178237500Y-79545000I172500J0D01*
G01*
X178582500Y-79545000D01*
G75*
G02*
X178755000Y-79717500I0J-172500D01*
G01*
G37*
G36*
G01*
X177935000Y-81137500D02*
X177935000Y-81982500D01*
G75*
G02*
X177762500Y-82155000I-172500J0D01*
G01*
X177417500Y-82155000D01*
G75*
G02*
X177245000Y-81982500I0J172500D01*
G01*
X177245000Y-81137500D01*
G75*
G02*
X177417500Y-80965000I172500J0D01*
G01*
X177762500Y-80965000D01*
G75*
G02*
X177935000Y-81137500I0J-172500D01*
G01*
G37*
G36*
G01*
X177935000Y-79717500D02*
X177935000Y-80562500D01*
G75*
G02*
X177762500Y-80735000I-172500J0D01*
G01*
X177417500Y-80735000D01*
G75*
G02*
X177245000Y-80562500I0J172500D01*
G01*
X177245000Y-79717500D01*
G75*
G02*
X177417500Y-79545000I172500J0D01*
G01*
X177762500Y-79545000D01*
G75*
G02*
X177935000Y-79717500I0J-172500D01*
G01*
G37*
%TD*%
D21*
%TO.C,U3*%
X147310000Y-71050000D03*
X147310000Y-72550000D03*
X147310000Y-74050000D03*
X150310000Y-71050000D03*
X150310000Y-72550000D03*
X150310000Y-74050000D03*
X148810000Y-74050000D03*
X148810000Y-71050000D03*
X148810000Y-72550000D03*
D22*
X158750000Y-81000000D03*
X158750000Y-64500000D03*
X158750000Y-87000000D03*
X158750000Y-66000000D03*
X158750000Y-82500000D03*
X158750000Y-76500000D03*
X158750000Y-85500000D03*
X158750000Y-79500000D03*
X158750000Y-72000000D03*
X158750000Y-84000000D03*
X158750000Y-70500000D03*
X158750000Y-73500000D03*
X158750000Y-78000000D03*
X158750000Y-75000000D03*
X158750000Y-69000000D03*
X158750000Y-67500000D03*
D23*
X155250000Y-87750000D03*
X156750000Y-87750000D03*
X152250000Y-87750000D03*
X153750000Y-87750000D03*
X149250000Y-87750000D03*
X150750000Y-87750000D03*
X146250000Y-87750000D03*
X147750000Y-87750000D03*
X144750000Y-87750000D03*
X143250000Y-87750000D03*
D22*
X141250000Y-85500000D03*
X141250000Y-87000000D03*
X141250000Y-82500000D03*
X141250000Y-84000000D03*
X141250000Y-79500000D03*
X141250000Y-81000000D03*
X141250000Y-76500000D03*
X141250000Y-78000000D03*
X141250000Y-73500000D03*
X141250000Y-75000000D03*
X141250000Y-70500000D03*
X141250000Y-72000000D03*
X141250000Y-67500000D03*
X141250000Y-69000000D03*
X141250000Y-66000000D03*
X141250000Y-64500000D03*
%TD*%
%TO.C,U6*%
G36*
G01*
X163265000Y-103185000D02*
X163065000Y-103185000D01*
G75*
G02*
X162965000Y-103085000I0J100000D01*
G01*
X162965000Y-101835000D01*
G75*
G02*
X163065000Y-101735000I100000J0D01*
G01*
X163265000Y-101735000D01*
G75*
G02*
X163365000Y-101835000I0J-100000D01*
G01*
X163365000Y-103085000D01*
G75*
G02*
X163265000Y-103185000I-100000J0D01*
G01*
G37*
G36*
G01*
X163915000Y-103185000D02*
X163715000Y-103185000D01*
G75*
G02*
X163615000Y-103085000I0J100000D01*
G01*
X163615000Y-101835000D01*
G75*
G02*
X163715000Y-101735000I100000J0D01*
G01*
X163915000Y-101735000D01*
G75*
G02*
X164015000Y-101835000I0J-100000D01*
G01*
X164015000Y-103085000D01*
G75*
G02*
X163915000Y-103185000I-100000J0D01*
G01*
G37*
G36*
G01*
X164565000Y-103185000D02*
X164365000Y-103185000D01*
G75*
G02*
X164265000Y-103085000I0J100000D01*
G01*
X164265000Y-101835000D01*
G75*
G02*
X164365000Y-101735000I100000J0D01*
G01*
X164565000Y-101735000D01*
G75*
G02*
X164665000Y-101835000I0J-100000D01*
G01*
X164665000Y-103085000D01*
G75*
G02*
X164565000Y-103185000I-100000J0D01*
G01*
G37*
G36*
G01*
X165215000Y-103185000D02*
X165015000Y-103185000D01*
G75*
G02*
X164915000Y-103085000I0J100000D01*
G01*
X164915000Y-101835000D01*
G75*
G02*
X165015000Y-101735000I100000J0D01*
G01*
X165215000Y-101735000D01*
G75*
G02*
X165315000Y-101835000I0J-100000D01*
G01*
X165315000Y-103085000D01*
G75*
G02*
X165215000Y-103185000I-100000J0D01*
G01*
G37*
G36*
G01*
X165865000Y-103185000D02*
X165665000Y-103185000D01*
G75*
G02*
X165565000Y-103085000I0J100000D01*
G01*
X165565000Y-101835000D01*
G75*
G02*
X165665000Y-101735000I100000J0D01*
G01*
X165865000Y-101735000D01*
G75*
G02*
X165965000Y-101835000I0J-100000D01*
G01*
X165965000Y-103085000D01*
G75*
G02*
X165865000Y-103185000I-100000J0D01*
G01*
G37*
G36*
G01*
X166515000Y-103185000D02*
X166315000Y-103185000D01*
G75*
G02*
X166215000Y-103085000I0J100000D01*
G01*
X166215000Y-101835000D01*
G75*
G02*
X166315000Y-101735000I100000J0D01*
G01*
X166515000Y-101735000D01*
G75*
G02*
X166615000Y-101835000I0J-100000D01*
G01*
X166615000Y-103085000D01*
G75*
G02*
X166515000Y-103185000I-100000J0D01*
G01*
G37*
G36*
G01*
X166515000Y-98885000D02*
X166315000Y-98885000D01*
G75*
G02*
X166215000Y-98785000I0J100000D01*
G01*
X166215000Y-97535000D01*
G75*
G02*
X166315000Y-97435000I100000J0D01*
G01*
X166515000Y-97435000D01*
G75*
G02*
X166615000Y-97535000I0J-100000D01*
G01*
X166615000Y-98785000D01*
G75*
G02*
X166515000Y-98885000I-100000J0D01*
G01*
G37*
G36*
G01*
X165865000Y-98885000D02*
X165665000Y-98885000D01*
G75*
G02*
X165565000Y-98785000I0J100000D01*
G01*
X165565000Y-97535000D01*
G75*
G02*
X165665000Y-97435000I100000J0D01*
G01*
X165865000Y-97435000D01*
G75*
G02*
X165965000Y-97535000I0J-100000D01*
G01*
X165965000Y-98785000D01*
G75*
G02*
X165865000Y-98885000I-100000J0D01*
G01*
G37*
G36*
G01*
X165215000Y-98885000D02*
X165015000Y-98885000D01*
G75*
G02*
X164915000Y-98785000I0J100000D01*
G01*
X164915000Y-97535000D01*
G75*
G02*
X165015000Y-97435000I100000J0D01*
G01*
X165215000Y-97435000D01*
G75*
G02*
X165315000Y-97535000I0J-100000D01*
G01*
X165315000Y-98785000D01*
G75*
G02*
X165215000Y-98885000I-100000J0D01*
G01*
G37*
G36*
G01*
X164565000Y-98885000D02*
X164365000Y-98885000D01*
G75*
G02*
X164265000Y-98785000I0J100000D01*
G01*
X164265000Y-97535000D01*
G75*
G02*
X164365000Y-97435000I100000J0D01*
G01*
X164565000Y-97435000D01*
G75*
G02*
X164665000Y-97535000I0J-100000D01*
G01*
X164665000Y-98785000D01*
G75*
G02*
X164565000Y-98885000I-100000J0D01*
G01*
G37*
G36*
G01*
X163915000Y-98885000D02*
X163715000Y-98885000D01*
G75*
G02*
X163615000Y-98785000I0J100000D01*
G01*
X163615000Y-97535000D01*
G75*
G02*
X163715000Y-97435000I100000J0D01*
G01*
X163915000Y-97435000D01*
G75*
G02*
X164015000Y-97535000I0J-100000D01*
G01*
X164015000Y-98785000D01*
G75*
G02*
X163915000Y-98885000I-100000J0D01*
G01*
G37*
G36*
G01*
X163265000Y-98885000D02*
X163065000Y-98885000D01*
G75*
G02*
X162965000Y-98785000I0J100000D01*
G01*
X162965000Y-97535000D01*
G75*
G02*
X163065000Y-97435000I100000J0D01*
G01*
X163265000Y-97435000D01*
G75*
G02*
X163365000Y-97535000I0J-100000D01*
G01*
X163365000Y-98785000D01*
G75*
G02*
X163265000Y-98885000I-100000J0D01*
G01*
G37*
G36*
G01*
X164502500Y-101065000D02*
X163657500Y-101065000D01*
G75*
G02*
X163485000Y-100892500I0J172500D01*
G01*
X163485000Y-100547500D01*
G75*
G02*
X163657500Y-100375000I172500J0D01*
G01*
X164502500Y-100375000D01*
G75*
G02*
X164675000Y-100547500I0J-172500D01*
G01*
X164675000Y-100892500D01*
G75*
G02*
X164502500Y-101065000I-172500J0D01*
G01*
G37*
G36*
G01*
X165922500Y-101065000D02*
X165077500Y-101065000D01*
G75*
G02*
X164905000Y-100892500I0J172500D01*
G01*
X164905000Y-100547500D01*
G75*
G02*
X165077500Y-100375000I172500J0D01*
G01*
X165922500Y-100375000D01*
G75*
G02*
X166095000Y-100547500I0J-172500D01*
G01*
X166095000Y-100892500D01*
G75*
G02*
X165922500Y-101065000I-172500J0D01*
G01*
G37*
G36*
G01*
X164502500Y-100245000D02*
X163657500Y-100245000D01*
G75*
G02*
X163485000Y-100072500I0J172500D01*
G01*
X163485000Y-99727500D01*
G75*
G02*
X163657500Y-99555000I172500J0D01*
G01*
X164502500Y-99555000D01*
G75*
G02*
X164675000Y-99727500I0J-172500D01*
G01*
X164675000Y-100072500D01*
G75*
G02*
X164502500Y-100245000I-172500J0D01*
G01*
G37*
G36*
G01*
X165922500Y-100245000D02*
X165077500Y-100245000D01*
G75*
G02*
X164905000Y-100072500I0J172500D01*
G01*
X164905000Y-99727500D01*
G75*
G02*
X165077500Y-99555000I172500J0D01*
G01*
X165922500Y-99555000D01*
G75*
G02*
X166095000Y-99727500I0J-172500D01*
G01*
X166095000Y-100072500D01*
G75*
G02*
X165922500Y-100245000I-172500J0D01*
G01*
G37*
%TD*%
%TO.C,U7*%
G36*
G01*
X139600000Y-91500000D02*
X139600000Y-91900000D01*
G75*
G02*
X139400000Y-92100000I-200000J0D01*
G01*
X138000000Y-92100000D01*
G75*
G02*
X137800000Y-91900000I0J200000D01*
G01*
X137800000Y-91500000D01*
G75*
G02*
X138000000Y-91300000I200000J0D01*
G01*
X139400000Y-91300000D01*
G75*
G02*
X139600000Y-91500000I0J-200000D01*
G01*
G37*
G36*
G01*
X139600000Y-90400000D02*
X139600000Y-90800000D01*
G75*
G02*
X139400000Y-91000000I-200000J0D01*
G01*
X138000000Y-91000000D01*
G75*
G02*
X137800000Y-90800000I0J200000D01*
G01*
X137800000Y-90400000D01*
G75*
G02*
X138000000Y-90200000I200000J0D01*
G01*
X139400000Y-90200000D01*
G75*
G02*
X139600000Y-90400000I0J-200000D01*
G01*
G37*
G36*
G01*
X139600000Y-89300000D02*
X139600000Y-89700000D01*
G75*
G02*
X139400000Y-89900000I-200000J0D01*
G01*
X138000000Y-89900000D01*
G75*
G02*
X137800000Y-89700000I0J200000D01*
G01*
X137800000Y-89300000D01*
G75*
G02*
X138000000Y-89100000I200000J0D01*
G01*
X139400000Y-89100000D01*
G75*
G02*
X139600000Y-89300000I0J-200000D01*
G01*
G37*
G36*
G01*
X139600000Y-88200000D02*
X139600000Y-88600000D01*
G75*
G02*
X139400000Y-88800000I-200000J0D01*
G01*
X138000000Y-88800000D01*
G75*
G02*
X137800000Y-88600000I0J200000D01*
G01*
X137800000Y-88200000D01*
G75*
G02*
X138000000Y-88000000I200000J0D01*
G01*
X139400000Y-88000000D01*
G75*
G02*
X139600000Y-88200000I0J-200000D01*
G01*
G37*
G36*
G01*
X139600000Y-87100000D02*
X139600000Y-87500000D01*
G75*
G02*
X139400000Y-87700000I-200000J0D01*
G01*
X138000000Y-87700000D01*
G75*
G02*
X137800000Y-87500000I0J200000D01*
G01*
X137800000Y-87100000D01*
G75*
G02*
X138000000Y-86900000I200000J0D01*
G01*
X139400000Y-86900000D01*
G75*
G02*
X139600000Y-87100000I0J-200000D01*
G01*
G37*
G36*
G01*
X139600000Y-86000000D02*
X139600000Y-86400000D01*
G75*
G02*
X139400000Y-86600000I-200000J0D01*
G01*
X138000000Y-86600000D01*
G75*
G02*
X137800000Y-86400000I0J200000D01*
G01*
X137800000Y-86000000D01*
G75*
G02*
X138000000Y-85800000I200000J0D01*
G01*
X139400000Y-85800000D01*
G75*
G02*
X139600000Y-86000000I0J-200000D01*
G01*
G37*
G36*
G01*
X139600000Y-84900000D02*
X139600000Y-85300000D01*
G75*
G02*
X139400000Y-85500000I-200000J0D01*
G01*
X138000000Y-85500000D01*
G75*
G02*
X137800000Y-85300000I0J200000D01*
G01*
X137800000Y-84900000D01*
G75*
G02*
X138000000Y-84700000I200000J0D01*
G01*
X139400000Y-84700000D01*
G75*
G02*
X139600000Y-84900000I0J-200000D01*
G01*
G37*
G36*
G01*
X139600000Y-81900000D02*
X139600000Y-82300000D01*
G75*
G02*
X139400000Y-82500000I-200000J0D01*
G01*
X138000000Y-82500000D01*
G75*
G02*
X137800000Y-82300000I0J200000D01*
G01*
X137800000Y-81900000D01*
G75*
G02*
X138000000Y-81700000I200000J0D01*
G01*
X139400000Y-81700000D01*
G75*
G02*
X139600000Y-81900000I0J-200000D01*
G01*
G37*
G36*
G01*
X139600000Y-80800000D02*
X139600000Y-81200000D01*
G75*
G02*
X139400000Y-81400000I-200000J0D01*
G01*
X138000000Y-81400000D01*
G75*
G02*
X137800000Y-81200000I0J200000D01*
G01*
X137800000Y-80800000D01*
G75*
G02*
X138000000Y-80600000I200000J0D01*
G01*
X139400000Y-80600000D01*
G75*
G02*
X139600000Y-80800000I0J-200000D01*
G01*
G37*
G36*
G01*
X139600000Y-79700000D02*
X139600000Y-80100000D01*
G75*
G02*
X139400000Y-80300000I-200000J0D01*
G01*
X138000000Y-80300000D01*
G75*
G02*
X137800000Y-80100000I0J200000D01*
G01*
X137800000Y-79700000D01*
G75*
G02*
X138000000Y-79500000I200000J0D01*
G01*
X139400000Y-79500000D01*
G75*
G02*
X139600000Y-79700000I0J-200000D01*
G01*
G37*
G36*
G01*
X139600000Y-78600000D02*
X139600000Y-79000000D01*
G75*
G02*
X139400000Y-79200000I-200000J0D01*
G01*
X138000000Y-79200000D01*
G75*
G02*
X137800000Y-79000000I0J200000D01*
G01*
X137800000Y-78600000D01*
G75*
G02*
X138000000Y-78400000I200000J0D01*
G01*
X139400000Y-78400000D01*
G75*
G02*
X139600000Y-78600000I0J-200000D01*
G01*
G37*
G36*
G01*
X139600000Y-77500000D02*
X139600000Y-77900000D01*
G75*
G02*
X139400000Y-78100000I-200000J0D01*
G01*
X138000000Y-78100000D01*
G75*
G02*
X137800000Y-77900000I0J200000D01*
G01*
X137800000Y-77500000D01*
G75*
G02*
X138000000Y-77300000I200000J0D01*
G01*
X139400000Y-77300000D01*
G75*
G02*
X139600000Y-77500000I0J-200000D01*
G01*
G37*
G36*
G01*
X127600000Y-77500000D02*
X127600000Y-77900000D01*
G75*
G02*
X127400000Y-78100000I-200000J0D01*
G01*
X126000000Y-78100000D01*
G75*
G02*
X125800000Y-77900000I0J200000D01*
G01*
X125800000Y-77500000D01*
G75*
G02*
X126000000Y-77300000I200000J0D01*
G01*
X127400000Y-77300000D01*
G75*
G02*
X127600000Y-77500000I0J-200000D01*
G01*
G37*
G36*
G01*
X127600000Y-78600000D02*
X127600000Y-79000000D01*
G75*
G02*
X127400000Y-79200000I-200000J0D01*
G01*
X126000000Y-79200000D01*
G75*
G02*
X125800000Y-79000000I0J200000D01*
G01*
X125800000Y-78600000D01*
G75*
G02*
X126000000Y-78400000I200000J0D01*
G01*
X127400000Y-78400000D01*
G75*
G02*
X127600000Y-78600000I0J-200000D01*
G01*
G37*
G36*
G01*
X127600000Y-79700000D02*
X127600000Y-80100000D01*
G75*
G02*
X127400000Y-80300000I-200000J0D01*
G01*
X126000000Y-80300000D01*
G75*
G02*
X125800000Y-80100000I0J200000D01*
G01*
X125800000Y-79700000D01*
G75*
G02*
X126000000Y-79500000I200000J0D01*
G01*
X127400000Y-79500000D01*
G75*
G02*
X127600000Y-79700000I0J-200000D01*
G01*
G37*
G36*
G01*
X127600000Y-80800000D02*
X127600000Y-81200000D01*
G75*
G02*
X127400000Y-81400000I-200000J0D01*
G01*
X126000000Y-81400000D01*
G75*
G02*
X125800000Y-81200000I0J200000D01*
G01*
X125800000Y-80800000D01*
G75*
G02*
X126000000Y-80600000I200000J0D01*
G01*
X127400000Y-80600000D01*
G75*
G02*
X127600000Y-80800000I0J-200000D01*
G01*
G37*
G36*
G01*
X127600000Y-81900000D02*
X127600000Y-82300000D01*
G75*
G02*
X127400000Y-82500000I-200000J0D01*
G01*
X126000000Y-82500000D01*
G75*
G02*
X125800000Y-82300000I0J200000D01*
G01*
X125800000Y-81900000D01*
G75*
G02*
X126000000Y-81700000I200000J0D01*
G01*
X127400000Y-81700000D01*
G75*
G02*
X127600000Y-81900000I0J-200000D01*
G01*
G37*
G36*
G01*
X127600000Y-84900000D02*
X127600000Y-85300000D01*
G75*
G02*
X127400000Y-85500000I-200000J0D01*
G01*
X126000000Y-85500000D01*
G75*
G02*
X125800000Y-85300000I0J200000D01*
G01*
X125800000Y-84900000D01*
G75*
G02*
X126000000Y-84700000I200000J0D01*
G01*
X127400000Y-84700000D01*
G75*
G02*
X127600000Y-84900000I0J-200000D01*
G01*
G37*
G36*
G01*
X127600000Y-86000000D02*
X127600000Y-86400000D01*
G75*
G02*
X127400000Y-86600000I-200000J0D01*
G01*
X126000000Y-86600000D01*
G75*
G02*
X125800000Y-86400000I0J200000D01*
G01*
X125800000Y-86000000D01*
G75*
G02*
X126000000Y-85800000I200000J0D01*
G01*
X127400000Y-85800000D01*
G75*
G02*
X127600000Y-86000000I0J-200000D01*
G01*
G37*
G36*
G01*
X127600000Y-87100000D02*
X127600000Y-87500000D01*
G75*
G02*
X127400000Y-87700000I-200000J0D01*
G01*
X126000000Y-87700000D01*
G75*
G02*
X125800000Y-87500000I0J200000D01*
G01*
X125800000Y-87100000D01*
G75*
G02*
X126000000Y-86900000I200000J0D01*
G01*
X127400000Y-86900000D01*
G75*
G02*
X127600000Y-87100000I0J-200000D01*
G01*
G37*
G36*
G01*
X127600000Y-88200000D02*
X127600000Y-88600000D01*
G75*
G02*
X127400000Y-88800000I-200000J0D01*
G01*
X126000000Y-88800000D01*
G75*
G02*
X125800000Y-88600000I0J200000D01*
G01*
X125800000Y-88200000D01*
G75*
G02*
X126000000Y-88000000I200000J0D01*
G01*
X127400000Y-88000000D01*
G75*
G02*
X127600000Y-88200000I0J-200000D01*
G01*
G37*
G36*
G01*
X127600000Y-89300000D02*
X127600000Y-89700000D01*
G75*
G02*
X127400000Y-89900000I-200000J0D01*
G01*
X126000000Y-89900000D01*
G75*
G02*
X125800000Y-89700000I0J200000D01*
G01*
X125800000Y-89300000D01*
G75*
G02*
X126000000Y-89100000I200000J0D01*
G01*
X127400000Y-89100000D01*
G75*
G02*
X127600000Y-89300000I0J-200000D01*
G01*
G37*
G36*
G01*
X127600000Y-90400000D02*
X127600000Y-90800000D01*
G75*
G02*
X127400000Y-91000000I-200000J0D01*
G01*
X126000000Y-91000000D01*
G75*
G02*
X125800000Y-90800000I0J200000D01*
G01*
X125800000Y-90400000D01*
G75*
G02*
X126000000Y-90200000I200000J0D01*
G01*
X127400000Y-90200000D01*
G75*
G02*
X127600000Y-90400000I0J-200000D01*
G01*
G37*
G36*
G01*
X127600000Y-91500000D02*
X127600000Y-91900000D01*
G75*
G02*
X127400000Y-92100000I-200000J0D01*
G01*
X126000000Y-92100000D01*
G75*
G02*
X125800000Y-91900000I0J200000D01*
G01*
X125800000Y-91500000D01*
G75*
G02*
X126000000Y-91300000I200000J0D01*
G01*
X127400000Y-91300000D01*
G75*
G02*
X127600000Y-91500000I0J-200000D01*
G01*
G37*
%TD*%
D24*
%TO.C,U9*%
X163350000Y-74300000D03*
X163350000Y-75400000D03*
X163350000Y-76500000D03*
X163350000Y-77600000D03*
X163350000Y-78700000D03*
X172850000Y-78700000D03*
X172850000Y-77600000D03*
X172850000Y-76500000D03*
X172850000Y-75400000D03*
X172850000Y-74300000D03*
%TD*%
D25*
%TO.C,U11*%
X186500000Y-101250000D03*
X186500000Y-102200000D03*
X186500000Y-103150000D03*
X188700000Y-103150000D03*
X188700000Y-101250000D03*
X188700000Y-102200000D03*
%TD*%
%TO.C,U12*%
X157500000Y-105800000D03*
X157500000Y-104850000D03*
X157500000Y-106750000D03*
X155300000Y-106750000D03*
X155300000Y-105800000D03*
X155300000Y-104850000D03*
%TD*%
%TO.C,U15*%
G36*
G01*
X138000000Y-118115000D02*
X138000000Y-117815000D01*
G75*
G02*
X138150000Y-117665000I150000J0D01*
G01*
X139475000Y-117665000D01*
G75*
G02*
X139625000Y-117815000I0J-150000D01*
G01*
X139625000Y-118115000D01*
G75*
G02*
X139475000Y-118265000I-150000J0D01*
G01*
X138150000Y-118265000D01*
G75*
G02*
X138000000Y-118115000I0J150000D01*
G01*
G37*
G36*
G01*
X138000000Y-119385000D02*
X138000000Y-119085000D01*
G75*
G02*
X138150000Y-118935000I150000J0D01*
G01*
X139475000Y-118935000D01*
G75*
G02*
X139625000Y-119085000I0J-150000D01*
G01*
X139625000Y-119385000D01*
G75*
G02*
X139475000Y-119535000I-150000J0D01*
G01*
X138150000Y-119535000D01*
G75*
G02*
X138000000Y-119385000I0J150000D01*
G01*
G37*
G36*
G01*
X144375000Y-119385000D02*
X144375000Y-119085000D01*
G75*
G02*
X144525000Y-118935000I150000J0D01*
G01*
X145850000Y-118935000D01*
G75*
G02*
X146000000Y-119085000I0J-150000D01*
G01*
X146000000Y-119385000D01*
G75*
G02*
X145850000Y-119535000I-150000J0D01*
G01*
X144525000Y-119535000D01*
G75*
G02*
X144375000Y-119385000I0J150000D01*
G01*
G37*
G36*
G01*
X144375000Y-118115000D02*
X144375000Y-117815000D01*
G75*
G02*
X144525000Y-117665000I150000J0D01*
G01*
X145850000Y-117665000D01*
G75*
G02*
X146000000Y-117815000I0J-150000D01*
G01*
X146000000Y-118115000D01*
G75*
G02*
X145850000Y-118265000I-150000J0D01*
G01*
X144525000Y-118265000D01*
G75*
G02*
X144375000Y-118115000I0J150000D01*
G01*
G37*
%TD*%
D26*
%TO.C,Y1*%
X142700000Y-90000000D03*
X145200000Y-90000000D03*
%TD*%
%TO.C,C25*%
G36*
G01*
X175375000Y-84175000D02*
X176625000Y-84175000D01*
G75*
G02*
X176875000Y-84425000I0J-250000D01*
G01*
X176875000Y-85175000D01*
G75*
G02*
X176625000Y-85425000I-250000J0D01*
G01*
X175375000Y-85425000D01*
G75*
G02*
X175125000Y-85175000I0J250000D01*
G01*
X175125000Y-84425000D01*
G75*
G02*
X175375000Y-84175000I250000J0D01*
G01*
G37*
G36*
G01*
X175375000Y-86975000D02*
X176625000Y-86975000D01*
G75*
G02*
X176875000Y-87225000I0J-250000D01*
G01*
X176875000Y-87975000D01*
G75*
G02*
X176625000Y-88225000I-250000J0D01*
G01*
X175375000Y-88225000D01*
G75*
G02*
X175125000Y-87975000I0J250000D01*
G01*
X175125000Y-87225000D01*
G75*
G02*
X175375000Y-86975000I250000J0D01*
G01*
G37*
%TD*%
D27*
%TO.C,U5*%
X182325000Y-95485000D03*
X181675000Y-95485000D03*
X181025000Y-95485000D03*
X180375000Y-95485000D03*
X179725000Y-95485000D03*
X179075000Y-95485000D03*
X178425000Y-95485000D03*
X177775000Y-95485000D03*
X177125000Y-95485000D03*
X176475000Y-95485000D03*
X176475000Y-89715000D03*
X177125000Y-89715000D03*
X177775000Y-89715000D03*
X178425000Y-89715000D03*
X179075000Y-89715000D03*
X179725000Y-89715000D03*
X180375000Y-89715000D03*
X181025000Y-89715000D03*
X181675000Y-89715000D03*
X182325000Y-89715000D03*
%TD*%
M02*
