%TF.GenerationSoftware,KiCad,Pcbnew,(6.0.2)*%
%TF.CreationDate,2022-02-16T12:52:40-05:00*%
%TF.ProjectId,aquabotsBMSModule,61717561-626f-4747-9342-4d534d6f6475,rev?*%
%TF.SameCoordinates,Original*%
%TF.FileFunction,Legend,Bot*%
%TF.FilePolarity,Positive*%
%FSLAX46Y46*%
G04 Gerber Fmt 4.6, Leading zero omitted, Abs format (unit mm)*
G04 Created by KiCad (PCBNEW (6.0.2)) date 2022-02-16 12:52:40*
%MOMM*%
%LPD*%
G01*
G04 APERTURE LIST*
%ADD10C,0.150000*%
%ADD11C,0.120000*%
G04 APERTURE END LIST*
D10*
%TO.C,R32*%
X122672380Y-83607142D02*
X122196190Y-83273809D01*
X122672380Y-83035714D02*
X121672380Y-83035714D01*
X121672380Y-83416666D01*
X121720000Y-83511904D01*
X121767619Y-83559523D01*
X121862857Y-83607142D01*
X122005714Y-83607142D01*
X122100952Y-83559523D01*
X122148571Y-83511904D01*
X122196190Y-83416666D01*
X122196190Y-83035714D01*
X121672380Y-83940476D02*
X121672380Y-84559523D01*
X122053333Y-84226190D01*
X122053333Y-84369047D01*
X122100952Y-84464285D01*
X122148571Y-84511904D01*
X122243809Y-84559523D01*
X122481904Y-84559523D01*
X122577142Y-84511904D01*
X122624761Y-84464285D01*
X122672380Y-84369047D01*
X122672380Y-84083333D01*
X122624761Y-83988095D01*
X122577142Y-83940476D01*
X121767619Y-84940476D02*
X121720000Y-84988095D01*
X121672380Y-85083333D01*
X121672380Y-85321428D01*
X121720000Y-85416666D01*
X121767619Y-85464285D01*
X121862857Y-85511904D01*
X121958095Y-85511904D01*
X122100952Y-85464285D01*
X122672380Y-84892857D01*
X122672380Y-85511904D01*
%TO.C,R39*%
X133672380Y-76107142D02*
X133196190Y-75773809D01*
X133672380Y-75535714D02*
X132672380Y-75535714D01*
X132672380Y-75916666D01*
X132720000Y-76011904D01*
X132767619Y-76059523D01*
X132862857Y-76107142D01*
X133005714Y-76107142D01*
X133100952Y-76059523D01*
X133148571Y-76011904D01*
X133196190Y-75916666D01*
X133196190Y-75535714D01*
X132672380Y-76440476D02*
X132672380Y-77059523D01*
X133053333Y-76726190D01*
X133053333Y-76869047D01*
X133100952Y-76964285D01*
X133148571Y-77011904D01*
X133243809Y-77059523D01*
X133481904Y-77059523D01*
X133577142Y-77011904D01*
X133624761Y-76964285D01*
X133672380Y-76869047D01*
X133672380Y-76583333D01*
X133624761Y-76488095D01*
X133577142Y-76440476D01*
X133672380Y-77535714D02*
X133672380Y-77726190D01*
X133624761Y-77821428D01*
X133577142Y-77869047D01*
X133434285Y-77964285D01*
X133243809Y-78011904D01*
X132862857Y-78011904D01*
X132767619Y-77964285D01*
X132720000Y-77916666D01*
X132672380Y-77821428D01*
X132672380Y-77630952D01*
X132720000Y-77535714D01*
X132767619Y-77488095D01*
X132862857Y-77440476D01*
X133100952Y-77440476D01*
X133196190Y-77488095D01*
X133243809Y-77535714D01*
X133291428Y-77630952D01*
X133291428Y-77821428D01*
X133243809Y-77916666D01*
X133196190Y-77964285D01*
X133100952Y-78011904D01*
%TO.C,R33*%
X122672380Y-76107142D02*
X122196190Y-75773809D01*
X122672380Y-75535714D02*
X121672380Y-75535714D01*
X121672380Y-75916666D01*
X121720000Y-76011904D01*
X121767619Y-76059523D01*
X121862857Y-76107142D01*
X122005714Y-76107142D01*
X122100952Y-76059523D01*
X122148571Y-76011904D01*
X122196190Y-75916666D01*
X122196190Y-75535714D01*
X121672380Y-76440476D02*
X121672380Y-77059523D01*
X122053333Y-76726190D01*
X122053333Y-76869047D01*
X122100952Y-76964285D01*
X122148571Y-77011904D01*
X122243809Y-77059523D01*
X122481904Y-77059523D01*
X122577142Y-77011904D01*
X122624761Y-76964285D01*
X122672380Y-76869047D01*
X122672380Y-76583333D01*
X122624761Y-76488095D01*
X122577142Y-76440476D01*
X121672380Y-77392857D02*
X121672380Y-78011904D01*
X122053333Y-77678571D01*
X122053333Y-77821428D01*
X122100952Y-77916666D01*
X122148571Y-77964285D01*
X122243809Y-78011904D01*
X122481904Y-78011904D01*
X122577142Y-77964285D01*
X122624761Y-77916666D01*
X122672380Y-77821428D01*
X122672380Y-77535714D01*
X122624761Y-77440476D01*
X122577142Y-77392857D01*
%TO.C,R31*%
X122672380Y-91107142D02*
X122196190Y-90773809D01*
X122672380Y-90535714D02*
X121672380Y-90535714D01*
X121672380Y-90916666D01*
X121720000Y-91011904D01*
X121767619Y-91059523D01*
X121862857Y-91107142D01*
X122005714Y-91107142D01*
X122100952Y-91059523D01*
X122148571Y-91011904D01*
X122196190Y-90916666D01*
X122196190Y-90535714D01*
X121672380Y-91440476D02*
X121672380Y-92059523D01*
X122053333Y-91726190D01*
X122053333Y-91869047D01*
X122100952Y-91964285D01*
X122148571Y-92011904D01*
X122243809Y-92059523D01*
X122481904Y-92059523D01*
X122577142Y-92011904D01*
X122624761Y-91964285D01*
X122672380Y-91869047D01*
X122672380Y-91583333D01*
X122624761Y-91488095D01*
X122577142Y-91440476D01*
X122672380Y-93011904D02*
X122672380Y-92440476D01*
X122672380Y-92726190D02*
X121672380Y-92726190D01*
X121815238Y-92630952D01*
X121910476Y-92535714D01*
X121958095Y-92440476D01*
%TO.C,R36*%
X128172380Y-76107142D02*
X127696190Y-75773809D01*
X128172380Y-75535714D02*
X127172380Y-75535714D01*
X127172380Y-75916666D01*
X127220000Y-76011904D01*
X127267619Y-76059523D01*
X127362857Y-76107142D01*
X127505714Y-76107142D01*
X127600952Y-76059523D01*
X127648571Y-76011904D01*
X127696190Y-75916666D01*
X127696190Y-75535714D01*
X127172380Y-76440476D02*
X127172380Y-77059523D01*
X127553333Y-76726190D01*
X127553333Y-76869047D01*
X127600952Y-76964285D01*
X127648571Y-77011904D01*
X127743809Y-77059523D01*
X127981904Y-77059523D01*
X128077142Y-77011904D01*
X128124761Y-76964285D01*
X128172380Y-76869047D01*
X128172380Y-76583333D01*
X128124761Y-76488095D01*
X128077142Y-76440476D01*
X127172380Y-77916666D02*
X127172380Y-77726190D01*
X127220000Y-77630952D01*
X127267619Y-77583333D01*
X127410476Y-77488095D01*
X127600952Y-77440476D01*
X127981904Y-77440476D01*
X128077142Y-77488095D01*
X128124761Y-77535714D01*
X128172380Y-77630952D01*
X128172380Y-77821428D01*
X128124761Y-77916666D01*
X128077142Y-77964285D01*
X127981904Y-78011904D01*
X127743809Y-78011904D01*
X127648571Y-77964285D01*
X127600952Y-77916666D01*
X127553333Y-77821428D01*
X127553333Y-77630952D01*
X127600952Y-77535714D01*
X127648571Y-77488095D01*
X127743809Y-77440476D01*
%TO.C,R38*%
X133672380Y-83607142D02*
X133196190Y-83273809D01*
X133672380Y-83035714D02*
X132672380Y-83035714D01*
X132672380Y-83416666D01*
X132720000Y-83511904D01*
X132767619Y-83559523D01*
X132862857Y-83607142D01*
X133005714Y-83607142D01*
X133100952Y-83559523D01*
X133148571Y-83511904D01*
X133196190Y-83416666D01*
X133196190Y-83035714D01*
X132672380Y-83940476D02*
X132672380Y-84559523D01*
X133053333Y-84226190D01*
X133053333Y-84369047D01*
X133100952Y-84464285D01*
X133148571Y-84511904D01*
X133243809Y-84559523D01*
X133481904Y-84559523D01*
X133577142Y-84511904D01*
X133624761Y-84464285D01*
X133672380Y-84369047D01*
X133672380Y-84083333D01*
X133624761Y-83988095D01*
X133577142Y-83940476D01*
X133100952Y-85130952D02*
X133053333Y-85035714D01*
X133005714Y-84988095D01*
X132910476Y-84940476D01*
X132862857Y-84940476D01*
X132767619Y-84988095D01*
X132720000Y-85035714D01*
X132672380Y-85130952D01*
X132672380Y-85321428D01*
X132720000Y-85416666D01*
X132767619Y-85464285D01*
X132862857Y-85511904D01*
X132910476Y-85511904D01*
X133005714Y-85464285D01*
X133053333Y-85416666D01*
X133100952Y-85321428D01*
X133100952Y-85130952D01*
X133148571Y-85035714D01*
X133196190Y-84988095D01*
X133291428Y-84940476D01*
X133481904Y-84940476D01*
X133577142Y-84988095D01*
X133624761Y-85035714D01*
X133672380Y-85130952D01*
X133672380Y-85321428D01*
X133624761Y-85416666D01*
X133577142Y-85464285D01*
X133481904Y-85511904D01*
X133291428Y-85511904D01*
X133196190Y-85464285D01*
X133148571Y-85416666D01*
X133100952Y-85321428D01*
%TO.C,R35*%
X128172380Y-83607142D02*
X127696190Y-83273809D01*
X128172380Y-83035714D02*
X127172380Y-83035714D01*
X127172380Y-83416666D01*
X127220000Y-83511904D01*
X127267619Y-83559523D01*
X127362857Y-83607142D01*
X127505714Y-83607142D01*
X127600952Y-83559523D01*
X127648571Y-83511904D01*
X127696190Y-83416666D01*
X127696190Y-83035714D01*
X127172380Y-83940476D02*
X127172380Y-84559523D01*
X127553333Y-84226190D01*
X127553333Y-84369047D01*
X127600952Y-84464285D01*
X127648571Y-84511904D01*
X127743809Y-84559523D01*
X127981904Y-84559523D01*
X128077142Y-84511904D01*
X128124761Y-84464285D01*
X128172380Y-84369047D01*
X128172380Y-84083333D01*
X128124761Y-83988095D01*
X128077142Y-83940476D01*
X127172380Y-85464285D02*
X127172380Y-84988095D01*
X127648571Y-84940476D01*
X127600952Y-84988095D01*
X127553333Y-85083333D01*
X127553333Y-85321428D01*
X127600952Y-85416666D01*
X127648571Y-85464285D01*
X127743809Y-85511904D01*
X127981904Y-85511904D01*
X128077142Y-85464285D01*
X128124761Y-85416666D01*
X128172380Y-85321428D01*
X128172380Y-85083333D01*
X128124761Y-84988095D01*
X128077142Y-84940476D01*
%TO.C,R34*%
X128172380Y-91107142D02*
X127696190Y-90773809D01*
X128172380Y-90535714D02*
X127172380Y-90535714D01*
X127172380Y-90916666D01*
X127220000Y-91011904D01*
X127267619Y-91059523D01*
X127362857Y-91107142D01*
X127505714Y-91107142D01*
X127600952Y-91059523D01*
X127648571Y-91011904D01*
X127696190Y-90916666D01*
X127696190Y-90535714D01*
X127172380Y-91440476D02*
X127172380Y-92059523D01*
X127553333Y-91726190D01*
X127553333Y-91869047D01*
X127600952Y-91964285D01*
X127648571Y-92011904D01*
X127743809Y-92059523D01*
X127981904Y-92059523D01*
X128077142Y-92011904D01*
X128124761Y-91964285D01*
X128172380Y-91869047D01*
X128172380Y-91583333D01*
X128124761Y-91488095D01*
X128077142Y-91440476D01*
X127505714Y-92916666D02*
X128172380Y-92916666D01*
X127124761Y-92678571D02*
X127839047Y-92440476D01*
X127839047Y-93059523D01*
%TO.C,R37*%
X133672380Y-91107142D02*
X133196190Y-90773809D01*
X133672380Y-90535714D02*
X132672380Y-90535714D01*
X132672380Y-90916666D01*
X132720000Y-91011904D01*
X132767619Y-91059523D01*
X132862857Y-91107142D01*
X133005714Y-91107142D01*
X133100952Y-91059523D01*
X133148571Y-91011904D01*
X133196190Y-90916666D01*
X133196190Y-90535714D01*
X132672380Y-91440476D02*
X132672380Y-92059523D01*
X133053333Y-91726190D01*
X133053333Y-91869047D01*
X133100952Y-91964285D01*
X133148571Y-92011904D01*
X133243809Y-92059523D01*
X133481904Y-92059523D01*
X133577142Y-92011904D01*
X133624761Y-91964285D01*
X133672380Y-91869047D01*
X133672380Y-91583333D01*
X133624761Y-91488095D01*
X133577142Y-91440476D01*
X132672380Y-92392857D02*
X132672380Y-93059523D01*
X133672380Y-92630952D01*
D11*
%TO.C,R32*%
X125860000Y-82847936D02*
X125860000Y-85652064D01*
X123140000Y-82847936D02*
X123140000Y-85652064D01*
%TO.C,R39*%
X134140000Y-75347936D02*
X134140000Y-78152064D01*
X136860000Y-75347936D02*
X136860000Y-78152064D01*
%TO.C,R33*%
X123140000Y-75347936D02*
X123140000Y-78152064D01*
X125860000Y-75347936D02*
X125860000Y-78152064D01*
%TO.C,R31*%
X123140000Y-90347936D02*
X123140000Y-93152064D01*
X125860000Y-90347936D02*
X125860000Y-93152064D01*
%TO.C,R36*%
X128640000Y-75347936D02*
X128640000Y-78152064D01*
X131360000Y-75347936D02*
X131360000Y-78152064D01*
%TO.C,R38*%
X136860000Y-82847936D02*
X136860000Y-85652064D01*
X134140000Y-82847936D02*
X134140000Y-85652064D01*
%TO.C,R35*%
X128640000Y-82847936D02*
X128640000Y-85652064D01*
X131360000Y-82847936D02*
X131360000Y-85652064D01*
%TO.C,R34*%
X131360000Y-90347936D02*
X131360000Y-93152064D01*
X128640000Y-90347936D02*
X128640000Y-93152064D01*
%TO.C,R37*%
X136860000Y-90347936D02*
X136860000Y-93152064D01*
X134140000Y-90347936D02*
X134140000Y-93152064D01*
%TD*%
M02*
