%TF.GenerationSoftware,KiCad,Pcbnew,(6.0.2)*%
%TF.CreationDate,2022-02-16T12:52:40-05:00*%
%TF.ProjectId,aquabotsBMSModule,61717561-626f-4747-9342-4d534d6f6475,rev?*%
%TF.SameCoordinates,Original*%
%TF.FileFunction,Soldermask,Top*%
%TF.FilePolarity,Negative*%
%FSLAX46Y46*%
G04 Gerber Fmt 4.6, Leading zero omitted, Abs format (unit mm)*
G04 Created by KiCad (PCBNEW (6.0.2)) date 2022-02-16 12:52:40*
%MOMM*%
%LPD*%
G01*
G04 APERTURE LIST*
G04 Aperture macros list*
%AMRoundRect*
0 Rectangle with rounded corners*
0 $1 Rounding radius*
0 $2 $3 $4 $5 $6 $7 $8 $9 X,Y pos of 4 corners*
0 Add a 4 corners polygon primitive as box body*
4,1,4,$2,$3,$4,$5,$6,$7,$8,$9,$2,$3,0*
0 Add four circle primitives for the rounded corners*
1,1,$1+$1,$2,$3*
1,1,$1+$1,$4,$5*
1,1,$1+$1,$6,$7*
1,1,$1+$1,$8,$9*
0 Add four rect primitives between the rounded corners*
20,1,$1+$1,$2,$3,$4,$5,0*
20,1,$1+$1,$4,$5,$6,$7,0*
20,1,$1+$1,$6,$7,$8,$9,0*
20,1,$1+$1,$8,$9,$2,$3,0*%
G04 Aperture macros list end*
%ADD10RoundRect,0.150000X-0.825000X-0.150000X0.825000X-0.150000X0.825000X0.150000X-0.825000X0.150000X0*%
%ADD11RoundRect,0.243750X-0.243750X-0.456250X0.243750X-0.456250X0.243750X0.456250X-0.243750X0.456250X0*%
%ADD12RoundRect,0.243750X0.243750X0.456250X-0.243750X0.456250X-0.243750X-0.456250X0.243750X-0.456250X0*%
%ADD13R,2.300000X2.500000*%
%ADD14RoundRect,0.250000X-1.450000X0.312500X-1.450000X-0.312500X1.450000X-0.312500X1.450000X0.312500X0*%
%ADD15RoundRect,0.250000X-0.350000X-0.625000X0.350000X-0.625000X0.350000X0.625000X-0.350000X0.625000X0*%
%ADD16O,1.200000X1.750000*%
%ADD17R,0.800000X0.900000*%
%ADD18RoundRect,0.250000X-1.075000X0.425000X-1.075000X-0.425000X1.075000X-0.425000X1.075000X0.425000X0*%
%ADD19RoundRect,0.243750X0.456250X-0.243750X0.456250X0.243750X-0.456250X0.243750X-0.456250X-0.243750X0*%
%ADD20RoundRect,0.250000X0.350000X0.625000X-0.350000X0.625000X-0.350000X-0.625000X0.350000X-0.625000X0*%
%ADD21R,2.000000X2.400000*%
%ADD22RoundRect,0.150000X-0.662500X-0.150000X0.662500X-0.150000X0.662500X0.150000X-0.662500X0.150000X0*%
G04 APERTURE END LIST*
D10*
%TO.C,ATTINY841*%
X127525000Y-60290000D03*
X127525000Y-61560000D03*
X127525000Y-62830000D03*
X127525000Y-64100000D03*
X127525000Y-65370000D03*
X127525000Y-66640000D03*
X127525000Y-67910000D03*
X132475000Y-67910000D03*
X132475000Y-66640000D03*
X132475000Y-65370000D03*
X132475000Y-64100000D03*
X132475000Y-62830000D03*
X132475000Y-61560000D03*
X132475000Y-60290000D03*
%TD*%
D11*
%TO.C,C2*%
X123125000Y-66167855D03*
X125000000Y-66167855D03*
%TD*%
D12*
%TO.C,C5*%
X125000000Y-60187142D03*
X123125000Y-60187142D03*
%TD*%
D13*
%TO.C,D2*%
X124000000Y-98350000D03*
X124000000Y-102650000D03*
%TD*%
D14*
%TO.C,F1*%
X136000000Y-100612500D03*
X136000000Y-104887500D03*
%TD*%
D15*
%TO.C,POWER1*%
X129000000Y-100000000D03*
D16*
X131000000Y-100000000D03*
%TD*%
D17*
%TO.C,Q1*%
X134800000Y-98750000D03*
X136700000Y-98750000D03*
X135750000Y-96750000D03*
%TD*%
D11*
%TO.C,R3*%
X135000000Y-64200000D03*
X136875000Y-64200000D03*
%TD*%
%TO.C,R4*%
X135000000Y-66200000D03*
X136875000Y-66200000D03*
%TD*%
%TO.C,R5*%
X123125000Y-56200000D03*
X125000000Y-56200000D03*
%TD*%
D18*
%TO.C,R8*%
X135500000Y-82000000D03*
X135500000Y-86500000D03*
%TD*%
%TO.C,R12*%
X135500000Y-89500000D03*
X135500000Y-94000000D03*
%TD*%
D11*
%TO.C,R16*%
X123125000Y-58200000D03*
X125000000Y-58200000D03*
%TD*%
D12*
%TO.C,R18*%
X125000000Y-68161426D03*
X123125000Y-68161426D03*
%TD*%
D19*
%TO.C,R19*%
X132750000Y-85125000D03*
X132750000Y-83250000D03*
%TD*%
D11*
%TO.C,R20*%
X135000000Y-68161426D03*
X136875000Y-68161426D03*
%TD*%
D18*
%TO.C,R25*%
X130000000Y-82000000D03*
X130000000Y-86500000D03*
%TD*%
%TO.C,R26*%
X124500000Y-82000000D03*
X124500000Y-86500000D03*
%TD*%
%TO.C,R29*%
X130000000Y-89500000D03*
X130000000Y-94000000D03*
%TD*%
%TO.C,R30*%
X124500000Y-89500000D03*
X124500000Y-94000000D03*
%TD*%
D20*
%TO.C,RX1*%
X126750000Y-49000000D03*
D16*
X124750000Y-49000000D03*
%TD*%
D20*
%TO.C,TX1*%
X135250000Y-49000000D03*
D16*
X133250000Y-49000000D03*
%TD*%
D21*
%TO.C,Y1*%
X128150000Y-57250000D03*
X131850000Y-57250000D03*
%TD*%
D11*
%TO.C,D4*%
X123125000Y-70200000D03*
X125000000Y-70200000D03*
%TD*%
D18*
%TO.C,R24*%
X124500000Y-74500000D03*
X124500000Y-79000000D03*
%TD*%
%TO.C,R6*%
X135500000Y-74500000D03*
X135500000Y-79000000D03*
%TD*%
%TO.C,R22*%
X130000000Y-74500000D03*
X130000000Y-79000000D03*
%TD*%
D11*
%TO.C,C4*%
X135000000Y-56200000D03*
X136875000Y-56200000D03*
%TD*%
%TO.C,C1*%
X123125000Y-64174284D03*
X125000000Y-64174284D03*
%TD*%
D22*
%TO.C,U1*%
X126812500Y-52615000D03*
X126812500Y-53885000D03*
X133187500Y-53885000D03*
X133187500Y-52615000D03*
%TD*%
D11*
%TO.C,R1*%
X123125000Y-62180713D03*
X125000000Y-62180713D03*
%TD*%
%TO.C,R2*%
X135000000Y-62170000D03*
X136875000Y-62170000D03*
%TD*%
D17*
%TO.C,D1*%
X135057500Y-60000000D03*
X136957500Y-60000000D03*
X136007500Y-58000000D03*
%TD*%
D11*
%TO.C,R14*%
X130832500Y-97000000D03*
X132707500Y-97000000D03*
%TD*%
D12*
%TO.C,R15*%
X129167500Y-97000000D03*
X127292500Y-97000000D03*
%TD*%
M02*
