%TF.GenerationSoftware,KiCad,Pcbnew,(6.0.2)*%
%TF.CreationDate,2022-04-01T12:33:14-04:00*%
%TF.ProjectId,ControlBoard,436f6e74-726f-46c4-926f-6172642e6b69,rev?*%
%TF.SameCoordinates,Original*%
%TF.FileFunction,Soldermask,Top*%
%TF.FilePolarity,Negative*%
%FSLAX46Y46*%
G04 Gerber Fmt 4.6, Leading zero omitted, Abs format (unit mm)*
G04 Created by KiCad (PCBNEW (6.0.2)) date 2022-04-01 12:33:14*
%MOMM*%
%LPD*%
G01*
G04 APERTURE LIST*
G04 Aperture macros list*
%AMRoundRect*
0 Rectangle with rounded corners*
0 $1 Rounding radius*
0 $2 $3 $4 $5 $6 $7 $8 $9 X,Y pos of 4 corners*
0 Add a 4 corners polygon primitive as box body*
4,1,4,$2,$3,$4,$5,$6,$7,$8,$9,$2,$3,0*
0 Add four circle primitives for the rounded corners*
1,1,$1+$1,$2,$3*
1,1,$1+$1,$4,$5*
1,1,$1+$1,$6,$7*
1,1,$1+$1,$8,$9*
0 Add four rect primitives between the rounded corners*
20,1,$1+$1,$2,$3,$4,$5,0*
20,1,$1+$1,$4,$5,$6,$7,0*
20,1,$1+$1,$6,$7,$8,$9,0*
20,1,$1+$1,$8,$9,$2,$3,0*%
G04 Aperture macros list end*
%ADD10C,0.800000*%
%ADD11C,6.400000*%
%ADD12R,1.700000X1.700000*%
%ADD13O,1.700000X1.700000*%
%ADD14RoundRect,0.225000X0.225000X0.250000X-0.225000X0.250000X-0.225000X-0.250000X0.225000X-0.250000X0*%
%ADD15RoundRect,0.225000X-0.225000X-0.250000X0.225000X-0.250000X0.225000X0.250000X-0.225000X0.250000X0*%
%ADD16RoundRect,0.225000X0.250000X-0.225000X0.250000X0.225000X-0.250000X0.225000X-0.250000X-0.225000X0*%
%ADD17RoundRect,0.250000X-0.325000X-0.650000X0.325000X-0.650000X0.325000X0.650000X-0.325000X0.650000X0*%
%ADD18RoundRect,0.250000X0.650000X-0.325000X0.650000X0.325000X-0.650000X0.325000X-0.650000X-0.325000X0*%
%ADD19R,5.520000X2.000000*%
%ADD20RoundRect,0.218750X-0.218750X-0.256250X0.218750X-0.256250X0.218750X0.256250X-0.218750X0.256250X0*%
%ADD21RoundRect,0.218750X-0.256250X0.218750X-0.256250X-0.218750X0.256250X-0.218750X0.256250X0.218750X0*%
%ADD22C,1.700000*%
%ADD23RoundRect,0.250000X-0.600000X0.600000X-0.600000X-0.600000X0.600000X-0.600000X0.600000X0.600000X0*%
%ADD24C,0.650000*%
%ADD25R,1.450000X0.600000*%
%ADD26R,1.450000X0.300000*%
%ADD27O,2.100000X1.000000*%
%ADD28O,1.600000X1.000000*%
%ADD29RoundRect,0.218750X0.218750X0.381250X-0.218750X0.381250X-0.218750X-0.381250X0.218750X-0.381250X0*%
%ADD30R,2.413000X5.334000*%
%ADD31R,2.400000X7.500000*%
%ADD32RoundRect,0.200000X-0.275000X0.200000X-0.275000X-0.200000X0.275000X-0.200000X0.275000X0.200000X0*%
%ADD33RoundRect,0.200000X0.275000X-0.200000X0.275000X0.200000X-0.275000X0.200000X-0.275000X-0.200000X0*%
%ADD34RoundRect,0.200000X0.800000X-0.200000X0.800000X0.200000X-0.800000X0.200000X-0.800000X-0.200000X0*%
%ADD35RoundRect,0.150000X-0.150000X0.512500X-0.150000X-0.512500X0.150000X-0.512500X0.150000X0.512500X0*%
%ADD36R,1.500000X0.900000*%
%ADD37R,0.900000X1.500000*%
%ADD38R,1.100000X1.100000*%
%ADD39RoundRect,0.150000X-0.512500X-0.150000X0.512500X-0.150000X0.512500X0.150000X-0.512500X0.150000X0*%
%ADD40RoundRect,0.150000X-0.662500X-0.150000X0.662500X-0.150000X0.662500X0.150000X-0.662500X0.150000X0*%
%ADD41RoundRect,0.200000X-0.200000X-0.275000X0.200000X-0.275000X0.200000X0.275000X-0.200000X0.275000X0*%
%ADD42R,1.000000X1.050000*%
%ADD43R,1.050000X2.200000*%
%ADD44R,1.120000X2.440000*%
%ADD45RoundRect,0.250000X0.325000X0.650000X-0.325000X0.650000X-0.325000X-0.650000X0.325000X-0.650000X0*%
%ADD46RoundRect,0.150000X0.587500X0.150000X-0.587500X0.150000X-0.587500X-0.150000X0.587500X-0.150000X0*%
%ADD47RoundRect,0.225000X-0.250000X0.225000X-0.250000X-0.225000X0.250000X-0.225000X0.250000X0.225000X0*%
%ADD48RoundRect,0.218750X0.256250X-0.218750X0.256250X0.218750X-0.256250X0.218750X-0.256250X-0.218750X0*%
%ADD49RoundRect,0.152400X0.500000X0.400000X-0.500000X0.400000X-0.500000X-0.400000X0.500000X-0.400000X0*%
%ADD50RoundRect,0.152400X-0.500000X-0.400000X0.500000X-0.400000X0.500000X0.400000X-0.500000X0.400000X0*%
%ADD51RoundRect,0.100000X0.100000X-0.625000X0.100000X0.625000X-0.100000X0.625000X-0.100000X-0.625000X0*%
%ADD52R,2.850000X1.650000*%
%ADD53RoundRect,0.250000X-0.475000X0.250000X-0.475000X-0.250000X0.475000X-0.250000X0.475000X0.250000X0*%
%ADD54R,1.000000X1.800000*%
%ADD55RoundRect,0.200000X0.200000X0.275000X-0.200000X0.275000X-0.200000X-0.275000X0.200000X-0.275000X0*%
%ADD56RoundRect,0.200000X0.700000X0.200000X-0.700000X0.200000X-0.700000X-0.200000X0.700000X-0.200000X0*%
%ADD57R,0.410000X1.440000*%
%ADD58R,4.200000X3.000000*%
%ADD59RoundRect,0.250000X-0.650000X0.325000X-0.650000X-0.325000X0.650000X-0.325000X0.650000X0.325000X0*%
%ADD60RoundRect,0.100000X0.625000X0.100000X-0.625000X0.100000X-0.625000X-0.100000X0.625000X-0.100000X0*%
%ADD61R,1.650000X2.850000*%
%ADD62R,1.000000X1.500000*%
G04 APERTURE END LIST*
D10*
%TO.C,H1*%
X123000000Y-75400000D03*
X121302944Y-71302944D03*
X123000000Y-70600000D03*
X124697056Y-74697056D03*
X124697056Y-71302944D03*
X121302944Y-74697056D03*
X120600000Y-73000000D03*
X125400000Y-73000000D03*
D11*
X123000000Y-73000000D03*
%TD*%
D10*
%TO.C,H3*%
X150000000Y-116400000D03*
X148302944Y-115697056D03*
D11*
X150000000Y-114000000D03*
D10*
X151697056Y-115697056D03*
X148302944Y-112302944D03*
X151697056Y-112302944D03*
X147600000Y-114000000D03*
X150000000Y-111600000D03*
X152400000Y-114000000D03*
%TD*%
D12*
%TO.C,J7*%
X111460000Y-90000000D03*
D13*
X114000000Y-90000000D03*
X111460000Y-92540000D03*
X114000000Y-92540000D03*
X111460000Y-95080000D03*
X114000000Y-95080000D03*
%TD*%
D12*
%TO.C,J2*%
X186000000Y-90000000D03*
D13*
X188540000Y-90000000D03*
X186000000Y-92540000D03*
X188540000Y-92540000D03*
X186000000Y-95080000D03*
X188540000Y-95080000D03*
%TD*%
D14*
%TO.C,C2*%
X139237500Y-65000000D03*
X137687500Y-65000000D03*
%TD*%
D15*
%TO.C,C3*%
X134225000Y-97700000D03*
X135775000Y-97700000D03*
%TD*%
%TO.C,C4*%
X141262500Y-92050000D03*
X142812500Y-92050000D03*
%TD*%
%TO.C,C6*%
X127912500Y-70200000D03*
X129462500Y-70200000D03*
%TD*%
D14*
%TO.C,C7*%
X139225000Y-66600000D03*
X137675000Y-66600000D03*
%TD*%
D16*
%TO.C,C11*%
X132300000Y-102875000D03*
X132300000Y-101325000D03*
%TD*%
D14*
%TO.C,C14*%
X154125000Y-92290000D03*
X152575000Y-92290000D03*
%TD*%
%TO.C,C15*%
X149087500Y-92050000D03*
X147537500Y-92050000D03*
%TD*%
D17*
%TO.C,C17*%
X180325000Y-87400000D03*
X183275000Y-87400000D03*
%TD*%
D14*
%TO.C,C26*%
X124225000Y-90500000D03*
X122675000Y-90500000D03*
%TD*%
%TO.C,C27*%
X165387500Y-96300000D03*
X163837500Y-96300000D03*
%TD*%
%TO.C,C29*%
X124225000Y-88900000D03*
X122675000Y-88900000D03*
%TD*%
%TO.C,C31*%
X124225000Y-92200000D03*
X122675000Y-92200000D03*
%TD*%
D18*
%TO.C,C36*%
X170950000Y-104825000D03*
X170950000Y-101875000D03*
%TD*%
D19*
%TO.C,C41*%
X140800000Y-96597000D03*
X140800000Y-101803000D03*
%TD*%
%TO.C,C43*%
X140800000Y-109803000D03*
X140800000Y-104597000D03*
%TD*%
D20*
%TO.C,D2*%
X144012500Y-112600000D03*
X145587500Y-112600000D03*
%TD*%
D21*
%TO.C,F3*%
X173950000Y-97912500D03*
X173950000Y-99487500D03*
%TD*%
D22*
%TO.C,J3*%
X127500000Y-116880000D03*
X135000000Y-116880000D03*
D23*
X135000000Y-107200000D03*
D22*
X132500000Y-107200000D03*
X130000000Y-107200000D03*
X127500000Y-107200000D03*
X135000000Y-109700000D03*
X132500000Y-109700000D03*
X130000000Y-109700000D03*
X127500000Y-109700000D03*
%TD*%
%TO.C,J4*%
X114500000Y-116880000D03*
X122000000Y-116880000D03*
D23*
X122000000Y-107200000D03*
D22*
X119500000Y-107200000D03*
X117000000Y-107200000D03*
X114500000Y-107200000D03*
X122000000Y-109700000D03*
X119500000Y-109700000D03*
X117000000Y-109700000D03*
X114500000Y-109700000D03*
%TD*%
%TO.C,J5*%
X165000000Y-116880000D03*
X172500000Y-116880000D03*
D23*
X172500000Y-107200000D03*
D22*
X170000000Y-107200000D03*
X167500000Y-107200000D03*
X165000000Y-107200000D03*
X172500000Y-109700000D03*
X170000000Y-109700000D03*
X167500000Y-109700000D03*
X165000000Y-109700000D03*
%TD*%
%TO.C,J6*%
X185500000Y-116880000D03*
X178000000Y-116880000D03*
D23*
X185500000Y-107200000D03*
D22*
X183000000Y-107200000D03*
X180500000Y-107200000D03*
X178000000Y-107200000D03*
X185500000Y-109700000D03*
X183000000Y-109700000D03*
X180500000Y-109700000D03*
X178000000Y-109700000D03*
%TD*%
D24*
%TO.C,J8*%
X119100000Y-79160000D03*
X119100000Y-84940000D03*
D25*
X120545000Y-78800000D03*
X120545000Y-79600000D03*
D26*
X120545000Y-80800000D03*
X120545000Y-81800000D03*
X120545000Y-82300000D03*
X120545000Y-83300000D03*
D25*
X120545000Y-84500000D03*
X120545000Y-85300000D03*
X120545000Y-85300000D03*
X120545000Y-84500000D03*
D26*
X120545000Y-83800000D03*
X120545000Y-82800000D03*
X120545000Y-81300000D03*
X120545000Y-80300000D03*
D25*
X120545000Y-79600000D03*
X120545000Y-78800000D03*
D27*
X119630000Y-77730000D03*
D28*
X115450000Y-86370000D03*
D27*
X119630000Y-86370000D03*
D28*
X115450000Y-77730000D03*
%TD*%
D29*
%TO.C,L1*%
X135962500Y-103950000D03*
X133837500Y-103950000D03*
%TD*%
D30*
%TO.C,L3*%
X183419500Y-101400000D03*
X176180500Y-101400000D03*
%TD*%
D31*
%TO.C,L4*%
X153000000Y-104600000D03*
X145600000Y-104600000D03*
%TD*%
D32*
%TO.C,R4*%
X152260000Y-89195000D03*
X152260000Y-90845000D03*
%TD*%
%TO.C,R5*%
X150740000Y-89195000D03*
X150740000Y-90845000D03*
%TD*%
D33*
%TO.C,R36*%
X138176000Y-115825000D03*
X138176000Y-114175000D03*
%TD*%
D32*
%TO.C,R37*%
X145400000Y-114175000D03*
X145400000Y-115825000D03*
%TD*%
%TO.C,R38*%
X143800000Y-114175000D03*
X143800000Y-115825000D03*
%TD*%
D34*
%TO.C,SW1*%
X128900000Y-68300000D03*
X128900000Y-64100000D03*
%TD*%
%TO.C,SW2*%
X133900000Y-68300000D03*
X133900000Y-64100000D03*
%TD*%
D35*
%TO.C,U1*%
X135850000Y-99562500D03*
X134900000Y-99562500D03*
X133950000Y-99562500D03*
X133950000Y-101837500D03*
X135850000Y-101837500D03*
%TD*%
D36*
%TO.C,U3*%
X141250000Y-64500000D03*
X141250000Y-66000000D03*
X141250000Y-67500000D03*
X141250000Y-69000000D03*
X141250000Y-70500000D03*
X141250000Y-72000000D03*
X141250000Y-73500000D03*
X141250000Y-75000000D03*
X141250000Y-76500000D03*
X141250000Y-78000000D03*
X141250000Y-79500000D03*
X141250000Y-81000000D03*
X141250000Y-82500000D03*
X141250000Y-84000000D03*
X141250000Y-85500000D03*
X141250000Y-87000000D03*
D37*
X143250000Y-87750000D03*
X144750000Y-87750000D03*
X146250000Y-87750000D03*
X147750000Y-87750000D03*
X149250000Y-87750000D03*
X150750000Y-87750000D03*
X152250000Y-87750000D03*
X153750000Y-87750000D03*
X155250000Y-87750000D03*
X156750000Y-87750000D03*
D36*
X158750000Y-87000000D03*
X158750000Y-85500000D03*
X158750000Y-84000000D03*
X158750000Y-82500000D03*
X158750000Y-81000000D03*
X158750000Y-79500000D03*
X158750000Y-78000000D03*
X158750000Y-76500000D03*
X158750000Y-75000000D03*
X158750000Y-73500000D03*
X158750000Y-72000000D03*
X158750000Y-70500000D03*
X158750000Y-69000000D03*
X158750000Y-67500000D03*
X158750000Y-66000000D03*
X158750000Y-64500000D03*
D38*
X150310000Y-71050000D03*
X150310000Y-72550000D03*
X147310000Y-72550000D03*
X148810000Y-71050000D03*
X148810000Y-74050000D03*
X148810000Y-72550000D03*
X147310000Y-71050000D03*
X147310000Y-74050000D03*
X150310000Y-74050000D03*
%TD*%
D39*
%TO.C,U12*%
X155262500Y-104850000D03*
X155262500Y-105800000D03*
X155262500Y-106750000D03*
X157537500Y-106750000D03*
X157537500Y-105800000D03*
X157537500Y-104850000D03*
%TD*%
D40*
%TO.C,U15*%
X138812500Y-117435000D03*
X138812500Y-118705000D03*
X145187500Y-118705000D03*
X145187500Y-117435000D03*
%TD*%
D18*
%TO.C,C37*%
X173450000Y-104825000D03*
X173450000Y-101875000D03*
%TD*%
D41*
%TO.C,R6*%
X160475000Y-66350000D03*
X162125000Y-66350000D03*
%TD*%
D14*
%TO.C,C16*%
X162075000Y-64550000D03*
X160525000Y-64550000D03*
%TD*%
D42*
%TO.C,J1*%
X129910000Y-75270000D03*
D43*
X131385000Y-73745000D03*
X128435000Y-73745000D03*
%TD*%
D44*
%TO.C,SW3*%
X171660000Y-84890000D03*
X169120000Y-84890000D03*
X166580000Y-84890000D03*
X164040000Y-84890000D03*
X164040000Y-93500000D03*
X166580000Y-93500000D03*
X169120000Y-93500000D03*
X171660000Y-93500000D03*
%TD*%
D10*
%TO.C,H2*%
X179400000Y-73000000D03*
X174600000Y-73000000D03*
X175302944Y-71302944D03*
X177000000Y-70600000D03*
X178697056Y-74697056D03*
X178697056Y-71302944D03*
X177000000Y-75400000D03*
X175302944Y-74697056D03*
D11*
X177000000Y-73000000D03*
%TD*%
D32*
%TO.C,R17*%
X190600000Y-101775000D03*
X190600000Y-103425000D03*
%TD*%
D39*
%TO.C,U11*%
X186462500Y-101250000D03*
X186462500Y-102200000D03*
X186462500Y-103150000D03*
X188737500Y-103150000D03*
X188737500Y-102200000D03*
X188737500Y-101250000D03*
%TD*%
D33*
%TO.C,R18*%
X192200000Y-103425000D03*
X192200000Y-101775000D03*
%TD*%
D15*
%TO.C,C34*%
X185825000Y-105000000D03*
X187375000Y-105000000D03*
%TD*%
D14*
%TO.C,C35*%
X189375000Y-99400000D03*
X187825000Y-99400000D03*
%TD*%
D45*
%TO.C,C33*%
X192075000Y-105400000D03*
X189125000Y-105400000D03*
%TD*%
D20*
%TO.C,D1*%
X159912500Y-111870000D03*
X161487500Y-111870000D03*
%TD*%
D46*
%TO.C,Q1*%
X157987500Y-114580000D03*
X157987500Y-112680000D03*
X156112500Y-113630000D03*
%TD*%
D32*
%TO.C,R30*%
X161220000Y-113915000D03*
X161220000Y-115565000D03*
%TD*%
%TO.C,R31*%
X159750000Y-113525000D03*
X159750000Y-115175000D03*
%TD*%
D40*
%TO.C,U14*%
X154622500Y-117145000D03*
X154622500Y-118415000D03*
X160997500Y-118415000D03*
X160997500Y-117145000D03*
%TD*%
D33*
%TO.C,R29*%
X154390000Y-115135000D03*
X154390000Y-113485000D03*
%TD*%
D32*
%TO.C,R21*%
X159200000Y-105125000D03*
X159200000Y-106775000D03*
%TD*%
D33*
%TO.C,R22*%
X160100000Y-109875000D03*
X160100000Y-108225000D03*
%TD*%
D47*
%TO.C,C39*%
X157500000Y-101575000D03*
X157500000Y-103125000D03*
%TD*%
D45*
%TO.C,C38*%
X158225000Y-109250000D03*
X155275000Y-109250000D03*
%TD*%
D16*
%TO.C,C18*%
X161600000Y-99475000D03*
X161600000Y-97925000D03*
%TD*%
D32*
%TO.C,R8*%
X161600000Y-101087500D03*
X161600000Y-102737500D03*
%TD*%
%TO.C,R9*%
X168000000Y-101075000D03*
X168000000Y-102725000D03*
%TD*%
D48*
%TO.C,F2*%
X168000000Y-99487500D03*
X168000000Y-97912500D03*
%TD*%
%TO.C,F4*%
X145000000Y-110987500D03*
X145000000Y-109412500D03*
%TD*%
D47*
%TO.C,C22*%
X165700000Y-80825000D03*
X165700000Y-82375000D03*
%TD*%
%TO.C,C19*%
X162400000Y-80812500D03*
X162400000Y-82362500D03*
%TD*%
%TO.C,C24*%
X164100000Y-80825000D03*
X164100000Y-82375000D03*
%TD*%
D49*
%TO.C,U9*%
X162890000Y-74300000D03*
D50*
X162890000Y-75400000D03*
D49*
X162890000Y-76500000D03*
D50*
X162890000Y-77600000D03*
X162890000Y-78700000D03*
X172390000Y-78700000D03*
X172390000Y-77600000D03*
X172390000Y-76500000D03*
X172390000Y-75400000D03*
X172390000Y-74300000D03*
%TD*%
D51*
%TO.C,U6*%
X163165000Y-102460000D03*
X163815000Y-102460000D03*
X164465000Y-102460000D03*
X165115000Y-102460000D03*
X165765000Y-102460000D03*
X166415000Y-102460000D03*
X166415000Y-98160000D03*
X165765000Y-98160000D03*
X165115000Y-98160000D03*
X164465000Y-98160000D03*
X163815000Y-98160000D03*
X163165000Y-98160000D03*
D52*
X164790000Y-100310000D03*
%TD*%
D46*
%TO.C,Q3*%
X141907500Y-114350000D03*
X141907500Y-112450000D03*
X140032500Y-113400000D03*
%TD*%
D15*
%TO.C,C10*%
X132912500Y-70200000D03*
X134462500Y-70200000D03*
%TD*%
D53*
%TO.C,C40*%
X161100000Y-104800000D03*
X161100000Y-106700000D03*
%TD*%
D15*
%TO.C,C5*%
X144425000Y-92050000D03*
X145975000Y-92050000D03*
%TD*%
D54*
%TO.C,Y1*%
X142700000Y-90000000D03*
X145200000Y-90000000D03*
%TD*%
D55*
%TO.C,R3*%
X149137500Y-90450000D03*
X147487500Y-90450000D03*
%TD*%
D56*
%TO.C,U7*%
X138700000Y-91700000D03*
X138700000Y-90600000D03*
X138700000Y-89500000D03*
X138700000Y-88400000D03*
X138700000Y-87300000D03*
X138700000Y-86200000D03*
X138700000Y-85100000D03*
X138700000Y-82100000D03*
X138700000Y-81000000D03*
X138700000Y-79900000D03*
X138700000Y-78800000D03*
X138700000Y-77700000D03*
X126700000Y-77700000D03*
X126700000Y-78800000D03*
X126700000Y-79900000D03*
X126700000Y-81000000D03*
X126700000Y-82100000D03*
X126700000Y-85100000D03*
X126700000Y-86200000D03*
X126700000Y-87300000D03*
X126700000Y-88400000D03*
X126700000Y-89500000D03*
X126700000Y-90600000D03*
X126700000Y-91700000D03*
%TD*%
D57*
%TO.C,U5*%
X182325000Y-89715000D03*
X181675000Y-89715000D03*
X181025000Y-89715000D03*
X180375000Y-89715000D03*
X179725000Y-89715000D03*
X179075000Y-89715000D03*
X178425000Y-89715000D03*
X177775000Y-89715000D03*
X177125000Y-89715000D03*
X176475000Y-89715000D03*
X176475000Y-95485000D03*
X177125000Y-95485000D03*
X177775000Y-95485000D03*
X178425000Y-95485000D03*
X179075000Y-95485000D03*
X179725000Y-95485000D03*
X180375000Y-95485000D03*
X181025000Y-95485000D03*
X181675000Y-95485000D03*
X182325000Y-95485000D03*
D58*
X179400000Y-92600000D03*
%TD*%
D59*
%TO.C,C25*%
X176000000Y-84725000D03*
X176000000Y-87675000D03*
%TD*%
D33*
%TO.C,R1*%
X182000000Y-83537500D03*
X182000000Y-81887500D03*
%TD*%
D32*
%TO.C,R2*%
X182000000Y-78775000D03*
X182000000Y-80425000D03*
%TD*%
D21*
%TO.C,F1*%
X178200000Y-85662500D03*
X178200000Y-87237500D03*
%TD*%
D47*
%TO.C,C12*%
X174000000Y-80825000D03*
X174000000Y-82375000D03*
%TD*%
D14*
%TO.C,C1*%
X179575000Y-83950000D03*
X178025000Y-83950000D03*
%TD*%
D60*
%TO.C,U2*%
X180150000Y-82475000D03*
X180150000Y-81825000D03*
X180150000Y-81175000D03*
X180150000Y-80525000D03*
X180150000Y-79875000D03*
X180150000Y-79225000D03*
X175850000Y-79225000D03*
X175850000Y-79875000D03*
X175850000Y-80525000D03*
X175850000Y-81175000D03*
X175850000Y-81825000D03*
X175850000Y-82475000D03*
D61*
X178000000Y-80850000D03*
%TD*%
D12*
%TO.C,J11*%
X134405000Y-73840000D03*
D13*
X136945000Y-73840000D03*
%TD*%
D12*
%TO.C,J10*%
X156905000Y-91890000D03*
D13*
X159445000Y-91890000D03*
%TD*%
D62*
%TO.C,JP2*%
X183022000Y-74168000D03*
X181722000Y-74168000D03*
%TD*%
%TO.C,JP1*%
X183022000Y-76708000D03*
X181722000Y-76708000D03*
%TD*%
M02*
