M48
; DRILL file {KiCad (6.0.2)} date Fri Apr  1 12:32:54 2022
; FORMAT={-:-/ absolute / inch / decimal}
; #@! TF.CreationDate,2022-04-01T12:32:54-04:00
; #@! TF.GenerationSoftware,Kicad,Pcbnew,(6.0.2)
; #@! TF.FileFunction,Plated,1,4,PTH
FMAT,2
INCH
; #@! TA.AperFunction,Plated,PTH,ComponentDrill
T1C0.0079
; #@! TA.AperFunction,Plated,PTH,ViaDrill
T2C0.0157
; #@! TA.AperFunction,Plated,PTH,ComponentDrill
T3C0.0197
; #@! TA.AperFunction,Plated,PTH,ComponentDrill
T4C0.0236
; #@! TA.AperFunction,Plated,PTH,ComponentDrill
T5C0.0394
; #@! TA.AperFunction,Plated,PTH,ComponentDrill
T6C0.0472
; #@! TA.AperFunction,Plated,PTH,ComponentDrill
T7C0.1260
%
G90
G05
T1
X6.4484Y-3.9295
X6.4484Y-3.9689
X6.4878Y-3.9295
X6.4878Y-3.9689
X6.5272Y-3.9295
X6.5272Y-3.9689
X6.9882Y-3.1437
X6.9882Y-3.1831
X6.9882Y-3.2224
X7.0276Y-3.1437
X7.0276Y-3.1831
X7.0276Y-3.2224
T2
X4.4803Y-3.9213
X4.6004Y-3.2343
X4.64Y-3.505
X4.645Y-3.555
X4.687Y-3.6339
X4.8031Y-3.1575
X4.8078Y-3.3075
X4.8091Y-3.8957
X4.8189Y-3.1949
X4.8189Y-3.2697
X4.8622Y-4.1083
X4.9055Y-3.2323
X4.9114Y-3.8917
X4.9135Y-2.6851
X4.9291Y-3.5394
X4.9291Y-3.5906
X4.9843Y-2.6693
X5.055Y-3.46
X5.0669Y-4.0866
X5.0886Y-3.3091
X5.1142Y-2.9024
X5.128Y-2.4587
X5.1378Y-3.5709
X5.1476Y-2.7303
X5.1505Y-3.2905
X5.175Y-3.445
X5.185Y-4.1102
X5.1931Y-3.2931
X5.1988Y-3.8976
X5.2343Y-3.3327
X5.25Y-4.063
X5.2736Y-2.4587
X5.28Y-3.3159
X5.325Y-3.3159
X5.3268Y-3.7874
X5.3661Y-3.189
X5.37Y-3.3159
X5.3917Y-2.6988
X5.4Y-3.35
X5.4016Y-3.7677
X5.4227Y-4.4464
X5.4587Y-3.8701
X5.4606Y-3.3159
X5.4724Y-4.4458
X5.5039Y-2.8803
X5.5047Y-2.9331
X5.5091Y-2.9803
X5.5118Y-2.5925
X5.5197Y-4.5906
X5.5276Y-3.5551
X5.6083Y-3.8701
X5.6161Y-3.2756
X5.6181Y-3.3976
X5.636Y-3.2189
X5.6713Y-3.3366
X5.6791Y-3.6752
X5.6811Y-3.7697
X5.6846Y-3.052
X5.6866Y-3.0913
X5.6969Y-2.628
X5.7126Y-3.8583
X5.7185Y-3.6752
X5.7382Y-3.939
X5.748Y-3.8406
X5.7578Y-3.6774
X5.7705Y-4.5657
X5.7717Y-3.3543
X5.7835Y-3.7559
X5.7862Y-3.2909
X5.7972Y-3.5157
X5.8031Y-4.3632
X5.815Y-2.7185
X5.8465Y-3.3937
X5.8898Y-4.0472
X5.8957Y-3.7913
X5.8976Y-3.9764
X5.9016Y-2.7185
X5.9331Y-3.6248
X5.9617Y-3.6518
X6.0224Y-4.3173
X6.0236Y-3.2894
X6.0472Y-3.1327
X6.0472Y-3.9439
X6.0476Y-3.7047
X6.0512Y-3.7539
X6.0567Y-4.4386
X6.0748Y-3.3563
X6.1024Y-4.3622
X6.1083Y-3.9803
X6.1122Y-3.0394
X6.1133Y-3.5289
X6.1134Y-2.9626
X6.1201Y-3.7559
X6.124Y-2.5394
X6.1244Y-4.4185
X6.1378Y-4.0295
X6.1437Y-4.3622
X6.144Y-4.076
X6.1496Y-3.5138
X6.185Y-2.9236
X6.1902Y-3.0724
X6.1949Y-3.9528
X6.205Y-3.8
X6.2287Y-3.4799
X6.245Y-3.6925
X6.2677Y-4.0886
X6.278Y-3.4853
X6.28Y-3.715
X6.3Y-3.07
X6.3Y-3.68
X6.3009Y-2.9804
X6.3012Y-2.5807
X6.305Y-2.69
X6.305Y-2.755
X6.305Y-2.8
X6.305Y-2.87
X6.311Y-3.3799
X6.311Y-3.4311
X6.3169Y-3.315
X6.345Y-3.2
X6.3858Y-3.7736
X6.39Y-3.32
X6.3917Y-3.811
X6.3957Y-4.4508
X6.3996Y-4.5039
X6.4311Y-3.1417
X6.435Y-2.6122
X6.525Y-2.39
X6.525Y-3.42
X6.55Y-3.575
X6.605Y-3.22
X6.63Y-3.4225
X6.6437Y-4.6457
X6.6445Y-3.8887
X6.6704Y-3.9146
X6.7Y-3.09
X6.7285Y-3.225
X6.7285Y-3.225
X6.7285Y-3.225
X6.7325Y-3.4225
X6.7382Y-3.8982
X6.7972Y-3.1811
X6.8012Y-3.8819
X6.8031Y-3.8484
X6.84Y-3.43
X6.84Y-3.665
X6.85Y-3.02
X6.8504Y-3.1319
X6.878Y-3.2953
X6.8957Y-4.6093
X6.9508Y-3.8484
X6.9567Y-3.2795
X7.0039Y-3.6083
X7.0039Y-3.6457
X7.0039Y-3.6831
X7.063Y-3.6083
X7.063Y-3.6457
X7.063Y-3.6831
X7.0935Y-3.3888
X7.122Y-3.6083
X7.122Y-3.6457
X7.122Y-3.6831
X7.1299Y-3.3878
X7.185Y-3.374
X7.2441Y-3.2756
X7.2441Y-3.3169
X7.2441Y-3.8622
X7.3819Y-4.4902
X7.3839Y-3.8612
X7.4291Y-3.2756
X7.5039Y-3.9508
T3
X4.748Y-2.874
X4.7757Y-2.8072
X4.7757Y-2.9408
X4.8425Y-2.7795
X4.8425Y-2.9685
X4.9093Y-2.8072
X4.9093Y-2.9408
X4.937Y-2.874
X5.811Y-4.4882
X5.8387Y-4.4214
X5.8387Y-4.555
X5.9055Y-4.3937
X5.9055Y-4.5827
X5.9723Y-4.4214
X5.9723Y-4.555
X6.0Y-4.4882
X6.874Y-2.874
X6.9017Y-2.8072
X6.9017Y-2.9408
X6.9685Y-2.7795
X6.9685Y-2.9685
X7.0353Y-2.8072
X7.0353Y-2.9408
X7.063Y-2.874
T5
X4.3882Y-3.5433
X4.3882Y-3.6433
X4.3882Y-3.7433
X4.4882Y-3.5433
X4.4882Y-3.6433
X4.4882Y-3.7433
X5.2915Y-2.9071
X5.3915Y-2.9071
X6.1774Y-3.6177
X6.2774Y-3.6177
X7.3228Y-3.5433
X7.3228Y-3.6433
X7.3228Y-3.7433
X7.4228Y-3.5433
X7.4228Y-3.6433
X7.4228Y-3.7433
T6
X4.5079Y-4.2205
X4.5079Y-4.3189
X4.6063Y-4.2205
X4.6063Y-4.3189
X4.7047Y-4.2205
X4.7047Y-4.3189
X4.8031Y-4.2205
X4.8031Y-4.3189
X5.0197Y-4.2205
X5.0197Y-4.3189
X5.1181Y-4.2205
X5.1181Y-4.3189
X5.2165Y-4.2205
X5.2165Y-4.3189
X5.315Y-4.2205
X5.315Y-4.3189
X6.4961Y-4.2205
X6.4961Y-4.3189
X6.5945Y-4.2205
X6.5945Y-4.3189
X6.6929Y-4.2205
X6.6929Y-4.3189
X6.7913Y-4.2205
X6.7913Y-4.3189
X7.0079Y-4.2205
X7.0079Y-4.3189
X7.1063Y-4.2205
X7.1063Y-4.3189
X7.2047Y-4.2205
X7.2047Y-4.3189
X7.3031Y-4.2205
X7.3031Y-4.3189
T7
X4.8425Y-2.874
X5.9055Y-4.4882
X6.9685Y-2.874
T4
G00X4.5571Y-3.0602
M15
G01X4.5335Y-3.0602
M16
G05
G00X4.5571Y-3.4004
M15
G01X4.5335Y-3.4004
M16
G05
G00X4.7315Y-3.0602
M15
G01X4.6882Y-3.0602
M16
G05
G00X4.7315Y-3.4004
M15
G01X4.6882Y-3.4004
M16
G05
T0
M30
