%TF.GenerationSoftware,KiCad,Pcbnew,(6.0.2)*%
%TF.CreationDate,2022-04-01T12:33:14-04:00*%
%TF.ProjectId,ControlBoard,436f6e74-726f-46c4-926f-6172642e6b69,rev?*%
%TF.SameCoordinates,Original*%
%TF.FileFunction,Legend,Bot*%
%TF.FilePolarity,Positive*%
%FSLAX46Y46*%
G04 Gerber Fmt 4.6, Leading zero omitted, Abs format (unit mm)*
G04 Created by KiCad (PCBNEW (6.0.2)) date 2022-04-01 12:33:14*
%MOMM*%
%LPD*%
G01*
G04 APERTURE LIST*
%ADD10C,0.150000*%
%ADD11C,0.120000*%
%ADD12C,0.100000*%
G04 APERTURE END LIST*
D10*
X186466666Y-114528571D02*
X186323809Y-114576190D01*
X186276190Y-114623809D01*
X186228571Y-114719047D01*
X186228571Y-114861904D01*
X186276190Y-114957142D01*
X186323809Y-115004761D01*
X186419047Y-115052380D01*
X186800000Y-115052380D01*
X186800000Y-114052380D01*
X186466666Y-114052380D01*
X186371428Y-114100000D01*
X186323809Y-114147619D01*
X186276190Y-114242857D01*
X186276190Y-114338095D01*
X186323809Y-114433333D01*
X186371428Y-114480952D01*
X186466666Y-114528571D01*
X186800000Y-114528571D01*
X185371428Y-115052380D02*
X185371428Y-114528571D01*
X185419047Y-114433333D01*
X185514285Y-114385714D01*
X185704761Y-114385714D01*
X185800000Y-114433333D01*
X185371428Y-115004761D02*
X185466666Y-115052380D01*
X185704761Y-115052380D01*
X185800000Y-115004761D01*
X185847619Y-114909523D01*
X185847619Y-114814285D01*
X185800000Y-114719047D01*
X185704761Y-114671428D01*
X185466666Y-114671428D01*
X185371428Y-114623809D01*
X185038095Y-114385714D02*
X184657142Y-114385714D01*
X184895238Y-114052380D02*
X184895238Y-114909523D01*
X184847619Y-115004761D01*
X184752380Y-115052380D01*
X184657142Y-115052380D01*
X184466666Y-114385714D02*
X184085714Y-114385714D01*
X184323809Y-114052380D02*
X184323809Y-114909523D01*
X184276190Y-115004761D01*
X184180952Y-115052380D01*
X184085714Y-115052380D01*
X183371428Y-115004761D02*
X183466666Y-115052380D01*
X183657142Y-115052380D01*
X183752380Y-115004761D01*
X183800000Y-114909523D01*
X183800000Y-114528571D01*
X183752380Y-114433333D01*
X183657142Y-114385714D01*
X183466666Y-114385714D01*
X183371428Y-114433333D01*
X183323809Y-114528571D01*
X183323809Y-114623809D01*
X183800000Y-114719047D01*
X182895238Y-115052380D02*
X182895238Y-114385714D01*
X182895238Y-114576190D02*
X182847619Y-114480952D01*
X182800000Y-114433333D01*
X182704761Y-114385714D01*
X182609523Y-114385714D01*
X182371428Y-114385714D02*
X182133333Y-115052380D01*
X181895238Y-114385714D02*
X182133333Y-115052380D01*
X182228571Y-115290476D01*
X182276190Y-115338095D01*
X182371428Y-115385714D01*
X180800000Y-114004761D02*
X181657142Y-115290476D01*
X180466666Y-115052380D02*
X180466666Y-114052380D01*
X180133333Y-114766666D01*
X179800000Y-114052380D01*
X179800000Y-115052380D01*
X179180952Y-115052380D02*
X179276190Y-115004761D01*
X179323809Y-114957142D01*
X179371428Y-114861904D01*
X179371428Y-114576190D01*
X179323809Y-114480952D01*
X179276190Y-114433333D01*
X179180952Y-114385714D01*
X179038095Y-114385714D01*
X178942857Y-114433333D01*
X178895238Y-114480952D01*
X178847619Y-114576190D01*
X178847619Y-114861904D01*
X178895238Y-114957142D01*
X178942857Y-115004761D01*
X179038095Y-115052380D01*
X179180952Y-115052380D01*
X178561904Y-114385714D02*
X178180952Y-114385714D01*
X178419047Y-114052380D02*
X178419047Y-114909523D01*
X178371428Y-115004761D01*
X178276190Y-115052380D01*
X178180952Y-115052380D01*
X177704761Y-115052380D02*
X177800000Y-115004761D01*
X177847619Y-114957142D01*
X177895238Y-114861904D01*
X177895238Y-114576190D01*
X177847619Y-114480952D01*
X177800000Y-114433333D01*
X177704761Y-114385714D01*
X177561904Y-114385714D01*
X177466666Y-114433333D01*
X177419047Y-114480952D01*
X177371428Y-114576190D01*
X177371428Y-114861904D01*
X177419047Y-114957142D01*
X177466666Y-115004761D01*
X177561904Y-115052380D01*
X177704761Y-115052380D01*
X176942857Y-115052380D02*
X176942857Y-114385714D01*
X176942857Y-114576190D02*
X176895238Y-114480952D01*
X176847619Y-114433333D01*
X176752380Y-114385714D01*
X176657142Y-114385714D01*
X139419047Y-70252380D02*
X139419047Y-70966666D01*
X139466666Y-71109523D01*
X139561904Y-71204761D01*
X139704761Y-71252380D01*
X139800000Y-71252380D01*
X138466666Y-71252380D02*
X138942857Y-71252380D01*
X138942857Y-70252380D01*
X137561904Y-71157142D02*
X137609523Y-71204761D01*
X137752380Y-71252380D01*
X137847619Y-71252380D01*
X137990476Y-71204761D01*
X138085714Y-71109523D01*
X138133333Y-71014285D01*
X138180952Y-70823809D01*
X138180952Y-70680952D01*
X138133333Y-70490476D01*
X138085714Y-70395238D01*
X137990476Y-70300000D01*
X137847619Y-70252380D01*
X137752380Y-70252380D01*
X137609523Y-70300000D01*
X137561904Y-70347619D01*
X136847619Y-70252380D02*
X136847619Y-70966666D01*
X136895238Y-71109523D01*
X136990476Y-71204761D01*
X137133333Y-71252380D01*
X137228571Y-71252380D01*
X135895238Y-71252380D02*
X136371428Y-71252380D01*
X136371428Y-70252380D01*
X134990476Y-71157142D02*
X135038095Y-71204761D01*
X135180952Y-71252380D01*
X135276190Y-71252380D01*
X135419047Y-71204761D01*
X135514285Y-71109523D01*
X135561904Y-71014285D01*
X135609523Y-70823809D01*
X135609523Y-70680952D01*
X135561904Y-70490476D01*
X135514285Y-70395238D01*
X135419047Y-70300000D01*
X135276190Y-70252380D01*
X135180952Y-70252380D01*
X135038095Y-70300000D01*
X134990476Y-70347619D01*
X134276190Y-70252380D02*
X134276190Y-70966666D01*
X134323809Y-71109523D01*
X134419047Y-71204761D01*
X134561904Y-71252380D01*
X134657142Y-71252380D01*
X133323809Y-71252380D02*
X133800000Y-71252380D01*
X133800000Y-70252380D01*
X132419047Y-71157142D02*
X132466666Y-71204761D01*
X132609523Y-71252380D01*
X132704761Y-71252380D01*
X132847619Y-71204761D01*
X132942857Y-71109523D01*
X132990476Y-71014285D01*
X133038095Y-70823809D01*
X133038095Y-70680952D01*
X132990476Y-70490476D01*
X132942857Y-70395238D01*
X132847619Y-70300000D01*
X132704761Y-70252380D01*
X132609523Y-70252380D01*
X132466666Y-70300000D01*
X132419047Y-70347619D01*
X131704761Y-70252380D02*
X131704761Y-70966666D01*
X131752380Y-71109523D01*
X131847619Y-71204761D01*
X131990476Y-71252380D01*
X132085714Y-71252380D01*
X130752380Y-71252380D02*
X131228571Y-71252380D01*
X131228571Y-70252380D01*
X129847619Y-71157142D02*
X129895238Y-71204761D01*
X130038095Y-71252380D01*
X130133333Y-71252380D01*
X130276190Y-71204761D01*
X130371428Y-71109523D01*
X130419047Y-71014285D01*
X130466666Y-70823809D01*
X130466666Y-70680952D01*
X130419047Y-70490476D01*
X130371428Y-70395238D01*
X130276190Y-70300000D01*
X130133333Y-70252380D01*
X130038095Y-70252380D01*
X129895238Y-70300000D01*
X129847619Y-70347619D01*
X133442857Y-113818571D02*
X133300000Y-113866190D01*
X133252380Y-113913809D01*
X133204761Y-114009047D01*
X133204761Y-114151904D01*
X133252380Y-114247142D01*
X133300000Y-114294761D01*
X133395238Y-114342380D01*
X133776190Y-114342380D01*
X133776190Y-113342380D01*
X133442857Y-113342380D01*
X133347619Y-113390000D01*
X133300000Y-113437619D01*
X133252380Y-113532857D01*
X133252380Y-113628095D01*
X133300000Y-113723333D01*
X133347619Y-113770952D01*
X133442857Y-113818571D01*
X133776190Y-113818571D01*
X132395238Y-114294761D02*
X132490476Y-114342380D01*
X132680952Y-114342380D01*
X132776190Y-114294761D01*
X132823809Y-114199523D01*
X132823809Y-113818571D01*
X132776190Y-113723333D01*
X132680952Y-113675714D01*
X132490476Y-113675714D01*
X132395238Y-113723333D01*
X132347619Y-113818571D01*
X132347619Y-113913809D01*
X132823809Y-114009047D01*
X131490476Y-114342380D02*
X131490476Y-113818571D01*
X131538095Y-113723333D01*
X131633333Y-113675714D01*
X131823809Y-113675714D01*
X131919047Y-113723333D01*
X131490476Y-114294761D02*
X131585714Y-114342380D01*
X131823809Y-114342380D01*
X131919047Y-114294761D01*
X131966666Y-114199523D01*
X131966666Y-114104285D01*
X131919047Y-114009047D01*
X131823809Y-113961428D01*
X131585714Y-113961428D01*
X131490476Y-113913809D01*
X130585714Y-114294761D02*
X130680952Y-114342380D01*
X130871428Y-114342380D01*
X130966666Y-114294761D01*
X131014285Y-114247142D01*
X131061904Y-114151904D01*
X131061904Y-113866190D01*
X131014285Y-113770952D01*
X130966666Y-113723333D01*
X130871428Y-113675714D01*
X130680952Y-113675714D01*
X130585714Y-113723333D01*
X130014285Y-114342380D02*
X130109523Y-114294761D01*
X130157142Y-114247142D01*
X130204761Y-114151904D01*
X130204761Y-113866190D01*
X130157142Y-113770952D01*
X130109523Y-113723333D01*
X130014285Y-113675714D01*
X129871428Y-113675714D01*
X129776190Y-113723333D01*
X129728571Y-113770952D01*
X129680952Y-113866190D01*
X129680952Y-114151904D01*
X129728571Y-114247142D01*
X129776190Y-114294761D01*
X129871428Y-114342380D01*
X130014285Y-114342380D01*
X129252380Y-113675714D02*
X129252380Y-114342380D01*
X129252380Y-113770952D02*
X129204761Y-113723333D01*
X129109523Y-113675714D01*
X128966666Y-113675714D01*
X128871428Y-113723333D01*
X128823809Y-113818571D01*
X128823809Y-114342380D01*
X131680952Y-115571428D02*
X130919047Y-115571428D01*
X131300000Y-115952380D02*
X131300000Y-115190476D01*
X131871428Y-117467142D02*
X131919047Y-117514761D01*
X132061904Y-117562380D01*
X132157142Y-117562380D01*
X132300000Y-117514761D01*
X132395238Y-117419523D01*
X132442857Y-117324285D01*
X132490476Y-117133809D01*
X132490476Y-116990952D01*
X132442857Y-116800476D01*
X132395238Y-116705238D01*
X132300000Y-116610000D01*
X132157142Y-116562380D01*
X132061904Y-116562380D01*
X131919047Y-116610000D01*
X131871428Y-116657619D01*
X131585714Y-116562380D02*
X131014285Y-116562380D01*
X131300000Y-117562380D02*
X131300000Y-116562380D01*
X130680952Y-117562380D02*
X130680952Y-116562380D01*
X130442857Y-116562380D01*
X130300000Y-116610000D01*
X130204761Y-116705238D01*
X130157142Y-116800476D01*
X130109523Y-116990952D01*
X130109523Y-117133809D01*
X130157142Y-117324285D01*
X130204761Y-117419523D01*
X130300000Y-117514761D01*
X130442857Y-117562380D01*
X130680952Y-117562380D01*
X122509523Y-113952380D02*
X122509523Y-114761904D01*
X122461904Y-114857142D01*
X122414285Y-114904761D01*
X122319047Y-114952380D01*
X122128571Y-114952380D01*
X122033333Y-114904761D01*
X121985714Y-114857142D01*
X121938095Y-114761904D01*
X121938095Y-113952380D01*
X120890476Y-114857142D02*
X120938095Y-114904761D01*
X121080952Y-114952380D01*
X121176190Y-114952380D01*
X121319047Y-114904761D01*
X121414285Y-114809523D01*
X121461904Y-114714285D01*
X121509523Y-114523809D01*
X121509523Y-114380952D01*
X121461904Y-114190476D01*
X121414285Y-114095238D01*
X121319047Y-114000000D01*
X121176190Y-113952380D01*
X121080952Y-113952380D01*
X120938095Y-114000000D01*
X120890476Y-114047619D01*
X120461904Y-114952380D02*
X120461904Y-113952380D01*
X120128571Y-114666666D01*
X119795238Y-113952380D01*
X119795238Y-114952380D01*
X118557142Y-114952380D02*
X118557142Y-113952380D01*
X118223809Y-114666666D01*
X117890476Y-113952380D01*
X117890476Y-114952380D01*
X117271428Y-114952380D02*
X117366666Y-114904761D01*
X117414285Y-114857142D01*
X117461904Y-114761904D01*
X117461904Y-114476190D01*
X117414285Y-114380952D01*
X117366666Y-114333333D01*
X117271428Y-114285714D01*
X117128571Y-114285714D01*
X117033333Y-114333333D01*
X116985714Y-114380952D01*
X116938095Y-114476190D01*
X116938095Y-114761904D01*
X116985714Y-114857142D01*
X117033333Y-114904761D01*
X117128571Y-114952380D01*
X117271428Y-114952380D01*
X116080952Y-114952380D02*
X116080952Y-113952380D01*
X116080952Y-114904761D02*
X116176190Y-114952380D01*
X116366666Y-114952380D01*
X116461904Y-114904761D01*
X116509523Y-114857142D01*
X116557142Y-114761904D01*
X116557142Y-114476190D01*
X116509523Y-114380952D01*
X116461904Y-114333333D01*
X116366666Y-114285714D01*
X116176190Y-114285714D01*
X116080952Y-114333333D01*
X115223809Y-114904761D02*
X115319047Y-114952380D01*
X115509523Y-114952380D01*
X115604761Y-114904761D01*
X115652380Y-114809523D01*
X115652380Y-114428571D01*
X115604761Y-114333333D01*
X115509523Y-114285714D01*
X115319047Y-114285714D01*
X115223809Y-114333333D01*
X115176190Y-114428571D01*
X115176190Y-114523809D01*
X115652380Y-114619047D01*
X114747619Y-114952380D02*
X114747619Y-114285714D01*
X114747619Y-114380952D02*
X114700000Y-114333333D01*
X114604761Y-114285714D01*
X114461904Y-114285714D01*
X114366666Y-114333333D01*
X114319047Y-114428571D01*
X114319047Y-114952380D01*
X114319047Y-114428571D02*
X114271428Y-114333333D01*
X114176190Y-114285714D01*
X114033333Y-114285714D01*
X113938095Y-114333333D01*
X113890476Y-114428571D01*
X113890476Y-114952380D01*
X175214285Y-69542380D02*
X175214285Y-68542380D01*
X174880952Y-69256666D01*
X174547619Y-68542380D01*
X174547619Y-69542380D01*
X174071428Y-69542380D02*
X174071428Y-68875714D01*
X174071428Y-68542380D02*
X174119047Y-68590000D01*
X174071428Y-68637619D01*
X174023809Y-68590000D01*
X174071428Y-68542380D01*
X174071428Y-68637619D01*
X173166666Y-69494761D02*
X173261904Y-69542380D01*
X173452380Y-69542380D01*
X173547619Y-69494761D01*
X173595238Y-69447142D01*
X173642857Y-69351904D01*
X173642857Y-69066190D01*
X173595238Y-68970952D01*
X173547619Y-68923333D01*
X173452380Y-68875714D01*
X173261904Y-68875714D01*
X173166666Y-68923333D01*
X172738095Y-69542380D02*
X172738095Y-68875714D01*
X172738095Y-69066190D02*
X172690476Y-68970952D01*
X172642857Y-68923333D01*
X172547619Y-68875714D01*
X172452380Y-68875714D01*
X171976190Y-69542380D02*
X172071428Y-69494761D01*
X172119047Y-69447142D01*
X172166666Y-69351904D01*
X172166666Y-69066190D01*
X172119047Y-68970952D01*
X172071428Y-68923333D01*
X171976190Y-68875714D01*
X171833333Y-68875714D01*
X171738095Y-68923333D01*
X171690476Y-68970952D01*
X171642857Y-69066190D01*
X171642857Y-69351904D01*
X171690476Y-69447142D01*
X171738095Y-69494761D01*
X171833333Y-69542380D01*
X171976190Y-69542380D01*
X171357142Y-68875714D02*
X170976190Y-68875714D01*
X171214285Y-69542380D02*
X171214285Y-68685238D01*
X171166666Y-68590000D01*
X171071428Y-68542380D01*
X170976190Y-68542380D01*
X170500000Y-69542380D02*
X170595238Y-69494761D01*
X170642857Y-69399523D01*
X170642857Y-68542380D01*
X169976190Y-69542380D02*
X170071428Y-69494761D01*
X170119047Y-69447142D01*
X170166666Y-69351904D01*
X170166666Y-69066190D01*
X170119047Y-68970952D01*
X170071428Y-68923333D01*
X169976190Y-68875714D01*
X169833333Y-68875714D01*
X169738095Y-68923333D01*
X169690476Y-68970952D01*
X169642857Y-69066190D01*
X169642857Y-69351904D01*
X169690476Y-69447142D01*
X169738095Y-69494761D01*
X169833333Y-69542380D01*
X169976190Y-69542380D01*
X168785714Y-69542380D02*
X168785714Y-69018571D01*
X168833333Y-68923333D01*
X168928571Y-68875714D01*
X169119047Y-68875714D01*
X169214285Y-68923333D01*
X168785714Y-69494761D02*
X168880952Y-69542380D01*
X169119047Y-69542380D01*
X169214285Y-69494761D01*
X169261904Y-69399523D01*
X169261904Y-69304285D01*
X169214285Y-69209047D01*
X169119047Y-69161428D01*
X168880952Y-69161428D01*
X168785714Y-69113809D01*
X168452380Y-68875714D02*
X168071428Y-68875714D01*
X168309523Y-68542380D02*
X168309523Y-69399523D01*
X168261904Y-69494761D01*
X168166666Y-69542380D01*
X168071428Y-69542380D01*
X167785714Y-69494761D02*
X167690476Y-69542380D01*
X167500000Y-69542380D01*
X167404761Y-69494761D01*
X167357142Y-69399523D01*
X167357142Y-69351904D01*
X167404761Y-69256666D01*
X167500000Y-69209047D01*
X167642857Y-69209047D01*
X167738095Y-69161428D01*
X167785714Y-69066190D01*
X167785714Y-69018571D01*
X167738095Y-68923333D01*
X167642857Y-68875714D01*
X167500000Y-68875714D01*
X167404761Y-68923333D01*
X166166666Y-69542380D02*
X166166666Y-68542380D01*
X165785714Y-68542380D01*
X165690476Y-68590000D01*
X165642857Y-68637619D01*
X165595238Y-68732857D01*
X165595238Y-68875714D01*
X165642857Y-68970952D01*
X165690476Y-69018571D01*
X165785714Y-69066190D01*
X166166666Y-69066190D01*
X165166666Y-69542380D02*
X165166666Y-68875714D01*
X165166666Y-69066190D02*
X165119047Y-68970952D01*
X165071428Y-68923333D01*
X164976190Y-68875714D01*
X164880952Y-68875714D01*
X164404761Y-69542380D02*
X164500000Y-69494761D01*
X164547619Y-69447142D01*
X164595238Y-69351904D01*
X164595238Y-69066190D01*
X164547619Y-68970952D01*
X164500000Y-68923333D01*
X164404761Y-68875714D01*
X164261904Y-68875714D01*
X164166666Y-68923333D01*
X164119047Y-68970952D01*
X164071428Y-69066190D01*
X164071428Y-69351904D01*
X164119047Y-69447142D01*
X164166666Y-69494761D01*
X164261904Y-69542380D01*
X164404761Y-69542380D01*
X163785714Y-68875714D02*
X163404761Y-68875714D01*
X163642857Y-68542380D02*
X163642857Y-69399523D01*
X163595238Y-69494761D01*
X163500000Y-69542380D01*
X163404761Y-69542380D01*
X162928571Y-69542380D02*
X163023809Y-69494761D01*
X163071428Y-69447142D01*
X163119047Y-69351904D01*
X163119047Y-69066190D01*
X163071428Y-68970952D01*
X163023809Y-68923333D01*
X162928571Y-68875714D01*
X162785714Y-68875714D01*
X162690476Y-68923333D01*
X162642857Y-68970952D01*
X162595238Y-69066190D01*
X162595238Y-69351904D01*
X162642857Y-69447142D01*
X162690476Y-69494761D01*
X162785714Y-69542380D01*
X162928571Y-69542380D01*
X162309523Y-68875714D02*
X161928571Y-68875714D01*
X162166666Y-68542380D02*
X162166666Y-69399523D01*
X162119047Y-69494761D01*
X162023809Y-69542380D01*
X161928571Y-69542380D01*
X161690476Y-68875714D02*
X161452380Y-69542380D01*
X161214285Y-68875714D02*
X161452380Y-69542380D01*
X161547619Y-69780476D01*
X161595238Y-69828095D01*
X161690476Y-69875714D01*
X160833333Y-68875714D02*
X160833333Y-69875714D01*
X160833333Y-68923333D02*
X160738095Y-68875714D01*
X160547619Y-68875714D01*
X160452380Y-68923333D01*
X160404761Y-68970952D01*
X160357142Y-69066190D01*
X160357142Y-69351904D01*
X160404761Y-69447142D01*
X160452380Y-69494761D01*
X160547619Y-69542380D01*
X160738095Y-69542380D01*
X160833333Y-69494761D01*
X159547619Y-69494761D02*
X159642857Y-69542380D01*
X159833333Y-69542380D01*
X159928571Y-69494761D01*
X159976190Y-69399523D01*
X159976190Y-69018571D01*
X159928571Y-68923333D01*
X159833333Y-68875714D01*
X159642857Y-68875714D01*
X159547619Y-68923333D01*
X159500000Y-69018571D01*
X159500000Y-69113809D01*
X159976190Y-69209047D01*
X171452380Y-71057142D02*
X171500000Y-71104761D01*
X171642857Y-71152380D01*
X171738095Y-71152380D01*
X171880952Y-71104761D01*
X171976190Y-71009523D01*
X172023809Y-70914285D01*
X172071428Y-70723809D01*
X172071428Y-70580952D01*
X172023809Y-70390476D01*
X171976190Y-70295238D01*
X171880952Y-70200000D01*
X171738095Y-70152380D01*
X171642857Y-70152380D01*
X171500000Y-70200000D01*
X171452380Y-70247619D01*
X170880952Y-71152380D02*
X170976190Y-71104761D01*
X171023809Y-71057142D01*
X171071428Y-70961904D01*
X171071428Y-70676190D01*
X171023809Y-70580952D01*
X170976190Y-70533333D01*
X170880952Y-70485714D01*
X170738095Y-70485714D01*
X170642857Y-70533333D01*
X170595238Y-70580952D01*
X170547619Y-70676190D01*
X170547619Y-70961904D01*
X170595238Y-71057142D01*
X170642857Y-71104761D01*
X170738095Y-71152380D01*
X170880952Y-71152380D01*
X170119047Y-70485714D02*
X170119047Y-71152380D01*
X170119047Y-70580952D02*
X170071428Y-70533333D01*
X169976190Y-70485714D01*
X169833333Y-70485714D01*
X169738095Y-70533333D01*
X169690476Y-70628571D01*
X169690476Y-71152380D01*
X169357142Y-70485714D02*
X168976190Y-70485714D01*
X169214285Y-70152380D02*
X169214285Y-71009523D01*
X169166666Y-71104761D01*
X169071428Y-71152380D01*
X168976190Y-71152380D01*
X168642857Y-71152380D02*
X168642857Y-70485714D01*
X168642857Y-70676190D02*
X168595238Y-70580952D01*
X168547619Y-70533333D01*
X168452380Y-70485714D01*
X168357142Y-70485714D01*
X167880952Y-71152380D02*
X167976190Y-71104761D01*
X168023809Y-71057142D01*
X168071428Y-70961904D01*
X168071428Y-70676190D01*
X168023809Y-70580952D01*
X167976190Y-70533333D01*
X167880952Y-70485714D01*
X167738095Y-70485714D01*
X167642857Y-70533333D01*
X167595238Y-70580952D01*
X167547619Y-70676190D01*
X167547619Y-70961904D01*
X167595238Y-71057142D01*
X167642857Y-71104761D01*
X167738095Y-71152380D01*
X167880952Y-71152380D01*
X166976190Y-71152380D02*
X167071428Y-71104761D01*
X167119047Y-71009523D01*
X167119047Y-70152380D01*
X165500000Y-70628571D02*
X165357142Y-70676190D01*
X165309523Y-70723809D01*
X165261904Y-70819047D01*
X165261904Y-70961904D01*
X165309523Y-71057142D01*
X165357142Y-71104761D01*
X165452380Y-71152380D01*
X165833333Y-71152380D01*
X165833333Y-70152380D01*
X165500000Y-70152380D01*
X165404761Y-70200000D01*
X165357142Y-70247619D01*
X165309523Y-70342857D01*
X165309523Y-70438095D01*
X165357142Y-70533333D01*
X165404761Y-70580952D01*
X165500000Y-70628571D01*
X165833333Y-70628571D01*
X164690476Y-71152380D02*
X164785714Y-71104761D01*
X164833333Y-71057142D01*
X164880952Y-70961904D01*
X164880952Y-70676190D01*
X164833333Y-70580952D01*
X164785714Y-70533333D01*
X164690476Y-70485714D01*
X164547619Y-70485714D01*
X164452380Y-70533333D01*
X164404761Y-70580952D01*
X164357142Y-70676190D01*
X164357142Y-70961904D01*
X164404761Y-71057142D01*
X164452380Y-71104761D01*
X164547619Y-71152380D01*
X164690476Y-71152380D01*
X163500000Y-71152380D02*
X163500000Y-70628571D01*
X163547619Y-70533333D01*
X163642857Y-70485714D01*
X163833333Y-70485714D01*
X163928571Y-70533333D01*
X163500000Y-71104761D02*
X163595238Y-71152380D01*
X163833333Y-71152380D01*
X163928571Y-71104761D01*
X163976190Y-71009523D01*
X163976190Y-70914285D01*
X163928571Y-70819047D01*
X163833333Y-70771428D01*
X163595238Y-70771428D01*
X163500000Y-70723809D01*
X163023809Y-71152380D02*
X163023809Y-70485714D01*
X163023809Y-70676190D02*
X162976190Y-70580952D01*
X162928571Y-70533333D01*
X162833333Y-70485714D01*
X162738095Y-70485714D01*
X161976190Y-71152380D02*
X161976190Y-70152380D01*
X161976190Y-71104761D02*
X162071428Y-71152380D01*
X162261904Y-71152380D01*
X162357142Y-71104761D01*
X162404761Y-71057142D01*
X162452380Y-70961904D01*
X162452380Y-70676190D01*
X162404761Y-70580952D01*
X162357142Y-70533333D01*
X162261904Y-70485714D01*
X162071428Y-70485714D01*
X161976190Y-70533333D01*
X167809523Y-71762380D02*
X167476190Y-72762380D01*
X167142857Y-71762380D01*
X166857142Y-71857619D02*
X166809523Y-71810000D01*
X166714285Y-71762380D01*
X166476190Y-71762380D01*
X166380952Y-71810000D01*
X166333333Y-71857619D01*
X166285714Y-71952857D01*
X166285714Y-72048095D01*
X166333333Y-72190952D01*
X166904761Y-72762380D01*
X166285714Y-72762380D01*
X172409523Y-114142380D02*
X172885714Y-114142380D01*
X172885714Y-113142380D01*
X172076190Y-114142380D02*
X172076190Y-113475714D01*
X172076190Y-113142380D02*
X172123809Y-113190000D01*
X172076190Y-113237619D01*
X172028571Y-113190000D01*
X172076190Y-113142380D01*
X172076190Y-113237619D01*
X171171428Y-113475714D02*
X171171428Y-114475714D01*
X171171428Y-114094761D02*
X171266666Y-114142380D01*
X171457142Y-114142380D01*
X171552380Y-114094761D01*
X171600000Y-114047142D01*
X171647619Y-113951904D01*
X171647619Y-113666190D01*
X171600000Y-113570952D01*
X171552380Y-113523333D01*
X171457142Y-113475714D01*
X171266666Y-113475714D01*
X171171428Y-113523333D01*
X170266666Y-113475714D02*
X170266666Y-114142380D01*
X170695238Y-113475714D02*
X170695238Y-113999523D01*
X170647619Y-114094761D01*
X170552380Y-114142380D01*
X170409523Y-114142380D01*
X170314285Y-114094761D01*
X170266666Y-114047142D01*
X169790476Y-114142380D02*
X169790476Y-113475714D01*
X169790476Y-113142380D02*
X169838095Y-113190000D01*
X169790476Y-113237619D01*
X169742857Y-113190000D01*
X169790476Y-113142380D01*
X169790476Y-113237619D01*
X168885714Y-114142380D02*
X168885714Y-113142380D01*
X168885714Y-114094761D02*
X168980952Y-114142380D01*
X169171428Y-114142380D01*
X169266666Y-114094761D01*
X169314285Y-114047142D01*
X169361904Y-113951904D01*
X169361904Y-113666190D01*
X169314285Y-113570952D01*
X169266666Y-113523333D01*
X169171428Y-113475714D01*
X168980952Y-113475714D01*
X168885714Y-113523333D01*
X167171428Y-114142380D02*
X167647619Y-114142380D01*
X167647619Y-113142380D01*
X166457142Y-114094761D02*
X166552380Y-114142380D01*
X166742857Y-114142380D01*
X166838095Y-114094761D01*
X166885714Y-113999523D01*
X166885714Y-113618571D01*
X166838095Y-113523333D01*
X166742857Y-113475714D01*
X166552380Y-113475714D01*
X166457142Y-113523333D01*
X166409523Y-113618571D01*
X166409523Y-113713809D01*
X166885714Y-113809047D01*
X166076190Y-113475714D02*
X165838095Y-114142380D01*
X165600000Y-113475714D01*
X164838095Y-114094761D02*
X164933333Y-114142380D01*
X165123809Y-114142380D01*
X165219047Y-114094761D01*
X165266666Y-113999523D01*
X165266666Y-113618571D01*
X165219047Y-113523333D01*
X165123809Y-113475714D01*
X164933333Y-113475714D01*
X164838095Y-113523333D01*
X164790476Y-113618571D01*
X164790476Y-113713809D01*
X165266666Y-113809047D01*
X164219047Y-114142380D02*
X164314285Y-114094761D01*
X164361904Y-113999523D01*
X164361904Y-113142380D01*
X168980952Y-115371428D02*
X168219047Y-115371428D01*
X168600000Y-115752380D02*
X168600000Y-114990476D01*
X169576190Y-117362380D02*
X170052380Y-117362380D01*
X170052380Y-116362380D01*
X168861904Y-117314761D02*
X168957142Y-117362380D01*
X169147619Y-117362380D01*
X169242857Y-117314761D01*
X169290476Y-117219523D01*
X169290476Y-116838571D01*
X169242857Y-116743333D01*
X169147619Y-116695714D01*
X168957142Y-116695714D01*
X168861904Y-116743333D01*
X168814285Y-116838571D01*
X168814285Y-116933809D01*
X169290476Y-117029047D01*
X167957142Y-117362380D02*
X167957142Y-116838571D01*
X168004761Y-116743333D01*
X168100000Y-116695714D01*
X168290476Y-116695714D01*
X168385714Y-116743333D01*
X167957142Y-117314761D02*
X168052380Y-117362380D01*
X168290476Y-117362380D01*
X168385714Y-117314761D01*
X168433333Y-117219523D01*
X168433333Y-117124285D01*
X168385714Y-117029047D01*
X168290476Y-116981428D01*
X168052380Y-116981428D01*
X167957142Y-116933809D01*
X167480952Y-117362380D02*
X167480952Y-116362380D01*
X167385714Y-116981428D02*
X167100000Y-117362380D01*
X167100000Y-116695714D02*
X167480952Y-117076666D01*
%TO.C,C8*%
X126779166Y-105557142D02*
X126826785Y-105604761D01*
X126969642Y-105652380D01*
X127064880Y-105652380D01*
X127207738Y-105604761D01*
X127302976Y-105509523D01*
X127350595Y-105414285D01*
X127398214Y-105223809D01*
X127398214Y-105080952D01*
X127350595Y-104890476D01*
X127302976Y-104795238D01*
X127207738Y-104700000D01*
X127064880Y-104652380D01*
X126969642Y-104652380D01*
X126826785Y-104700000D01*
X126779166Y-104747619D01*
X126207738Y-105080952D02*
X126302976Y-105033333D01*
X126350595Y-104985714D01*
X126398214Y-104890476D01*
X126398214Y-104842857D01*
X126350595Y-104747619D01*
X126302976Y-104700000D01*
X126207738Y-104652380D01*
X126017261Y-104652380D01*
X125922023Y-104700000D01*
X125874404Y-104747619D01*
X125826785Y-104842857D01*
X125826785Y-104890476D01*
X125874404Y-104985714D01*
X125922023Y-105033333D01*
X126017261Y-105080952D01*
X126207738Y-105080952D01*
X126302976Y-105128571D01*
X126350595Y-105176190D01*
X126398214Y-105271428D01*
X126398214Y-105461904D01*
X126350595Y-105557142D01*
X126302976Y-105604761D01*
X126207738Y-105652380D01*
X126017261Y-105652380D01*
X125922023Y-105604761D01*
X125874404Y-105557142D01*
X125826785Y-105461904D01*
X125826785Y-105271428D01*
X125874404Y-105176190D01*
X125922023Y-105128571D01*
X126017261Y-105080952D01*
%TO.C,C9*%
X130766666Y-97157142D02*
X130814285Y-97204761D01*
X130957142Y-97252380D01*
X131052380Y-97252380D01*
X131195238Y-97204761D01*
X131290476Y-97109523D01*
X131338095Y-97014285D01*
X131385714Y-96823809D01*
X131385714Y-96680952D01*
X131338095Y-96490476D01*
X131290476Y-96395238D01*
X131195238Y-96300000D01*
X131052380Y-96252380D01*
X130957142Y-96252380D01*
X130814285Y-96300000D01*
X130766666Y-96347619D01*
X130290476Y-97252380D02*
X130100000Y-97252380D01*
X130004761Y-97204761D01*
X129957142Y-97157142D01*
X129861904Y-97014285D01*
X129814285Y-96823809D01*
X129814285Y-96442857D01*
X129861904Y-96347619D01*
X129909523Y-96300000D01*
X130004761Y-96252380D01*
X130195238Y-96252380D01*
X130290476Y-96300000D01*
X130338095Y-96347619D01*
X130385714Y-96442857D01*
X130385714Y-96680952D01*
X130338095Y-96776190D01*
X130290476Y-96823809D01*
X130195238Y-96871428D01*
X130004761Y-96871428D01*
X129909523Y-96823809D01*
X129861904Y-96776190D01*
X129814285Y-96680952D01*
%TO.C,C13*%
X131242857Y-104757142D02*
X131290476Y-104804761D01*
X131433333Y-104852380D01*
X131528571Y-104852380D01*
X131671428Y-104804761D01*
X131766666Y-104709523D01*
X131814285Y-104614285D01*
X131861904Y-104423809D01*
X131861904Y-104280952D01*
X131814285Y-104090476D01*
X131766666Y-103995238D01*
X131671428Y-103900000D01*
X131528571Y-103852380D01*
X131433333Y-103852380D01*
X131290476Y-103900000D01*
X131242857Y-103947619D01*
X130290476Y-104852380D02*
X130861904Y-104852380D01*
X130576190Y-104852380D02*
X130576190Y-103852380D01*
X130671428Y-103995238D01*
X130766666Y-104090476D01*
X130861904Y-104138095D01*
X129957142Y-103852380D02*
X129338095Y-103852380D01*
X129671428Y-104233333D01*
X129528571Y-104233333D01*
X129433333Y-104280952D01*
X129385714Y-104328571D01*
X129338095Y-104423809D01*
X129338095Y-104661904D01*
X129385714Y-104757142D01*
X129433333Y-104804761D01*
X129528571Y-104852380D01*
X129814285Y-104852380D01*
X129909523Y-104804761D01*
X129957142Y-104757142D01*
%TO.C,C44*%
X126757142Y-79157142D02*
X126804761Y-79109523D01*
X126852380Y-78966666D01*
X126852380Y-78871428D01*
X126804761Y-78728571D01*
X126709523Y-78633333D01*
X126614285Y-78585714D01*
X126423809Y-78538095D01*
X126280952Y-78538095D01*
X126090476Y-78585714D01*
X125995238Y-78633333D01*
X125900000Y-78728571D01*
X125852380Y-78871428D01*
X125852380Y-78966666D01*
X125900000Y-79109523D01*
X125947619Y-79157142D01*
X126185714Y-80014285D02*
X126852380Y-80014285D01*
X125804761Y-79776190D02*
X126519047Y-79538095D01*
X126519047Y-80157142D01*
X126185714Y-80966666D02*
X126852380Y-80966666D01*
X125804761Y-80728571D02*
X126519047Y-80490476D01*
X126519047Y-81109523D01*
%TO.C,FB1*%
X127033333Y-88328571D02*
X127366666Y-88328571D01*
X127366666Y-88852380D02*
X127366666Y-87852380D01*
X126890476Y-87852380D01*
X126176190Y-88328571D02*
X126033333Y-88376190D01*
X125985714Y-88423809D01*
X125938095Y-88519047D01*
X125938095Y-88661904D01*
X125985714Y-88757142D01*
X126033333Y-88804761D01*
X126128571Y-88852380D01*
X126509523Y-88852380D01*
X126509523Y-87852380D01*
X126176190Y-87852380D01*
X126080952Y-87900000D01*
X126033333Y-87947619D01*
X125985714Y-88042857D01*
X125985714Y-88138095D01*
X126033333Y-88233333D01*
X126080952Y-88280952D01*
X126176190Y-88328571D01*
X126509523Y-88328571D01*
X124985714Y-88852380D02*
X125557142Y-88852380D01*
X125271428Y-88852380D02*
X125271428Y-87852380D01*
X125366666Y-87995238D01*
X125461904Y-88090476D01*
X125557142Y-88138095D01*
%TO.C,FB2*%
X127928571Y-78966666D02*
X127928571Y-78633333D01*
X128452380Y-78633333D02*
X127452380Y-78633333D01*
X127452380Y-79109523D01*
X127928571Y-79823809D02*
X127976190Y-79966666D01*
X128023809Y-80014285D01*
X128119047Y-80061904D01*
X128261904Y-80061904D01*
X128357142Y-80014285D01*
X128404761Y-79966666D01*
X128452380Y-79871428D01*
X128452380Y-79490476D01*
X127452380Y-79490476D01*
X127452380Y-79823809D01*
X127500000Y-79919047D01*
X127547619Y-79966666D01*
X127642857Y-80014285D01*
X127738095Y-80014285D01*
X127833333Y-79966666D01*
X127880952Y-79919047D01*
X127928571Y-79823809D01*
X127928571Y-79490476D01*
X127547619Y-80442857D02*
X127500000Y-80490476D01*
X127452380Y-80585714D01*
X127452380Y-80823809D01*
X127500000Y-80919047D01*
X127547619Y-80966666D01*
X127642857Y-81014285D01*
X127738095Y-81014285D01*
X127880952Y-80966666D01*
X128452380Y-80395238D01*
X128452380Y-81014285D01*
%TO.C,Q2*%
X156695238Y-99947619D02*
X156790476Y-99900000D01*
X156885714Y-99804761D01*
X157028571Y-99661904D01*
X157123809Y-99614285D01*
X157219047Y-99614285D01*
X157171428Y-99852380D02*
X157266666Y-99804761D01*
X157361904Y-99709523D01*
X157409523Y-99519047D01*
X157409523Y-99185714D01*
X157361904Y-98995238D01*
X157266666Y-98900000D01*
X157171428Y-98852380D01*
X156980952Y-98852380D01*
X156885714Y-98900000D01*
X156790476Y-98995238D01*
X156742857Y-99185714D01*
X156742857Y-99519047D01*
X156790476Y-99709523D01*
X156885714Y-99804761D01*
X156980952Y-99852380D01*
X157171428Y-99852380D01*
X156361904Y-98947619D02*
X156314285Y-98900000D01*
X156219047Y-98852380D01*
X155980952Y-98852380D01*
X155885714Y-98900000D01*
X155838095Y-98947619D01*
X155790476Y-99042857D01*
X155790476Y-99138095D01*
X155838095Y-99280952D01*
X156409523Y-99852380D01*
X155790476Y-99852380D01*
%TO.C,R14*%
X114680357Y-97572380D02*
X115013690Y-97096190D01*
X115251785Y-97572380D02*
X115251785Y-96572380D01*
X114870833Y-96572380D01*
X114775595Y-96620000D01*
X114727976Y-96667619D01*
X114680357Y-96762857D01*
X114680357Y-96905714D01*
X114727976Y-97000952D01*
X114775595Y-97048571D01*
X114870833Y-97096190D01*
X115251785Y-97096190D01*
X113727976Y-97572380D02*
X114299404Y-97572380D01*
X114013690Y-97572380D02*
X114013690Y-96572380D01*
X114108928Y-96715238D01*
X114204166Y-96810476D01*
X114299404Y-96858095D01*
X112870833Y-96905714D02*
X112870833Y-97572380D01*
X113108928Y-96524761D02*
X113347023Y-97239047D01*
X112727976Y-97239047D01*
%TO.C,R15*%
X115252380Y-103557142D02*
X114776190Y-103223809D01*
X115252380Y-102985714D02*
X114252380Y-102985714D01*
X114252380Y-103366666D01*
X114300000Y-103461904D01*
X114347619Y-103509523D01*
X114442857Y-103557142D01*
X114585714Y-103557142D01*
X114680952Y-103509523D01*
X114728571Y-103461904D01*
X114776190Y-103366666D01*
X114776190Y-102985714D01*
X115252380Y-104509523D02*
X115252380Y-103938095D01*
X115252380Y-104223809D02*
X114252380Y-104223809D01*
X114395238Y-104128571D01*
X114490476Y-104033333D01*
X114538095Y-103938095D01*
X114252380Y-105414285D02*
X114252380Y-104938095D01*
X114728571Y-104890476D01*
X114680952Y-104938095D01*
X114633333Y-105033333D01*
X114633333Y-105271428D01*
X114680952Y-105366666D01*
X114728571Y-105414285D01*
X114823809Y-105461904D01*
X115061904Y-105461904D01*
X115157142Y-105414285D01*
X115204761Y-105366666D01*
X115252380Y-105271428D01*
X115252380Y-105033333D01*
X115204761Y-104938095D01*
X115157142Y-104890476D01*
%TO.C,R16*%
X113452380Y-103557142D02*
X112976190Y-103223809D01*
X113452380Y-102985714D02*
X112452380Y-102985714D01*
X112452380Y-103366666D01*
X112500000Y-103461904D01*
X112547619Y-103509523D01*
X112642857Y-103557142D01*
X112785714Y-103557142D01*
X112880952Y-103509523D01*
X112928571Y-103461904D01*
X112976190Y-103366666D01*
X112976190Y-102985714D01*
X113452380Y-104509523D02*
X113452380Y-103938095D01*
X113452380Y-104223809D02*
X112452380Y-104223809D01*
X112595238Y-104128571D01*
X112690476Y-104033333D01*
X112738095Y-103938095D01*
X112452380Y-105366666D02*
X112452380Y-105176190D01*
X112500000Y-105080952D01*
X112547619Y-105033333D01*
X112690476Y-104938095D01*
X112880952Y-104890476D01*
X113261904Y-104890476D01*
X113357142Y-104938095D01*
X113404761Y-104985714D01*
X113452380Y-105080952D01*
X113452380Y-105271428D01*
X113404761Y-105366666D01*
X113357142Y-105414285D01*
X113261904Y-105461904D01*
X113023809Y-105461904D01*
X112928571Y-105414285D01*
X112880952Y-105366666D01*
X112833333Y-105271428D01*
X112833333Y-105080952D01*
X112880952Y-104985714D01*
X112928571Y-104938095D01*
X113023809Y-104890476D01*
%TO.C,R20*%
X146339285Y-84917857D02*
X145982142Y-84667857D01*
X146339285Y-84489285D02*
X145589285Y-84489285D01*
X145589285Y-84775000D01*
X145625000Y-84846428D01*
X145660714Y-84882142D01*
X145732142Y-84917857D01*
X145839285Y-84917857D01*
X145910714Y-84882142D01*
X145946428Y-84846428D01*
X145982142Y-84775000D01*
X145982142Y-84489285D01*
X145660714Y-85203571D02*
X145625000Y-85239285D01*
X145589285Y-85310714D01*
X145589285Y-85489285D01*
X145625000Y-85560714D01*
X145660714Y-85596428D01*
X145732142Y-85632142D01*
X145803571Y-85632142D01*
X145910714Y-85596428D01*
X146339285Y-85167857D01*
X146339285Y-85632142D01*
X145589285Y-86096428D02*
X145589285Y-86167857D01*
X145625000Y-86239285D01*
X145660714Y-86275000D01*
X145732142Y-86310714D01*
X145875000Y-86346428D01*
X146053571Y-86346428D01*
X146196428Y-86310714D01*
X146267857Y-86275000D01*
X146303571Y-86239285D01*
X146339285Y-86167857D01*
X146339285Y-86096428D01*
X146303571Y-86025000D01*
X146267857Y-85989285D01*
X146196428Y-85953571D01*
X146053571Y-85917857D01*
X145875000Y-85917857D01*
X145732142Y-85953571D01*
X145660714Y-85989285D01*
X145625000Y-86025000D01*
X145589285Y-86096428D01*
%TO.C,R23*%
X148339285Y-84917857D02*
X147982142Y-84667857D01*
X148339285Y-84489285D02*
X147589285Y-84489285D01*
X147589285Y-84775000D01*
X147625000Y-84846428D01*
X147660714Y-84882142D01*
X147732142Y-84917857D01*
X147839285Y-84917857D01*
X147910714Y-84882142D01*
X147946428Y-84846428D01*
X147982142Y-84775000D01*
X147982142Y-84489285D01*
X147660714Y-85203571D02*
X147625000Y-85239285D01*
X147589285Y-85310714D01*
X147589285Y-85489285D01*
X147625000Y-85560714D01*
X147660714Y-85596428D01*
X147732142Y-85632142D01*
X147803571Y-85632142D01*
X147910714Y-85596428D01*
X148339285Y-85167857D01*
X148339285Y-85632142D01*
X147589285Y-85882142D02*
X147589285Y-86346428D01*
X147875000Y-86096428D01*
X147875000Y-86203571D01*
X147910714Y-86275000D01*
X147946428Y-86310714D01*
X148017857Y-86346428D01*
X148196428Y-86346428D01*
X148267857Y-86310714D01*
X148303571Y-86275000D01*
X148339285Y-86203571D01*
X148339285Y-85989285D01*
X148303571Y-85917857D01*
X148267857Y-85882142D01*
%TO.C,R24*%
X124042857Y-78252380D02*
X124376190Y-77776190D01*
X124614285Y-78252380D02*
X124614285Y-77252380D01*
X124233333Y-77252380D01*
X124138095Y-77300000D01*
X124090476Y-77347619D01*
X124042857Y-77442857D01*
X124042857Y-77585714D01*
X124090476Y-77680952D01*
X124138095Y-77728571D01*
X124233333Y-77776190D01*
X124614285Y-77776190D01*
X123661904Y-77347619D02*
X123614285Y-77300000D01*
X123519047Y-77252380D01*
X123280952Y-77252380D01*
X123185714Y-77300000D01*
X123138095Y-77347619D01*
X123090476Y-77442857D01*
X123090476Y-77538095D01*
X123138095Y-77680952D01*
X123709523Y-78252380D01*
X123090476Y-78252380D01*
X122233333Y-77585714D02*
X122233333Y-78252380D01*
X122471428Y-77204761D02*
X122709523Y-77919047D01*
X122090476Y-77919047D01*
%TO.C,R25*%
X127042857Y-85652380D02*
X127376190Y-85176190D01*
X127614285Y-85652380D02*
X127614285Y-84652380D01*
X127233333Y-84652380D01*
X127138095Y-84700000D01*
X127090476Y-84747619D01*
X127042857Y-84842857D01*
X127042857Y-84985714D01*
X127090476Y-85080952D01*
X127138095Y-85128571D01*
X127233333Y-85176190D01*
X127614285Y-85176190D01*
X126661904Y-84747619D02*
X126614285Y-84700000D01*
X126519047Y-84652380D01*
X126280952Y-84652380D01*
X126185714Y-84700000D01*
X126138095Y-84747619D01*
X126090476Y-84842857D01*
X126090476Y-84938095D01*
X126138095Y-85080952D01*
X126709523Y-85652380D01*
X126090476Y-85652380D01*
X125185714Y-84652380D02*
X125661904Y-84652380D01*
X125709523Y-85128571D01*
X125661904Y-85080952D01*
X125566666Y-85033333D01*
X125328571Y-85033333D01*
X125233333Y-85080952D01*
X125185714Y-85128571D01*
X125138095Y-85223809D01*
X125138095Y-85461904D01*
X125185714Y-85557142D01*
X125233333Y-85604761D01*
X125328571Y-85652380D01*
X125566666Y-85652380D01*
X125661904Y-85604761D01*
X125709523Y-85557142D01*
%TO.C,R26*%
X150339285Y-84917857D02*
X149982142Y-84667857D01*
X150339285Y-84489285D02*
X149589285Y-84489285D01*
X149589285Y-84775000D01*
X149625000Y-84846428D01*
X149660714Y-84882142D01*
X149732142Y-84917857D01*
X149839285Y-84917857D01*
X149910714Y-84882142D01*
X149946428Y-84846428D01*
X149982142Y-84775000D01*
X149982142Y-84489285D01*
X149660714Y-85203571D02*
X149625000Y-85239285D01*
X149589285Y-85310714D01*
X149589285Y-85489285D01*
X149625000Y-85560714D01*
X149660714Y-85596428D01*
X149732142Y-85632142D01*
X149803571Y-85632142D01*
X149910714Y-85596428D01*
X150339285Y-85167857D01*
X150339285Y-85632142D01*
X149589285Y-86275000D02*
X149589285Y-86132142D01*
X149625000Y-86060714D01*
X149660714Y-86025000D01*
X149767857Y-85953571D01*
X149910714Y-85917857D01*
X150196428Y-85917857D01*
X150267857Y-85953571D01*
X150303571Y-85989285D01*
X150339285Y-86060714D01*
X150339285Y-86203571D01*
X150303571Y-86275000D01*
X150267857Y-86310714D01*
X150196428Y-86346428D01*
X150017857Y-86346428D01*
X149946428Y-86310714D01*
X149910714Y-86275000D01*
X149875000Y-86203571D01*
X149875000Y-86060714D01*
X149910714Y-85989285D01*
X149946428Y-85953571D01*
X150017857Y-85917857D01*
%TO.C,R27*%
X152139285Y-84917857D02*
X151782142Y-84667857D01*
X152139285Y-84489285D02*
X151389285Y-84489285D01*
X151389285Y-84775000D01*
X151425000Y-84846428D01*
X151460714Y-84882142D01*
X151532142Y-84917857D01*
X151639285Y-84917857D01*
X151710714Y-84882142D01*
X151746428Y-84846428D01*
X151782142Y-84775000D01*
X151782142Y-84489285D01*
X151460714Y-85203571D02*
X151425000Y-85239285D01*
X151389285Y-85310714D01*
X151389285Y-85489285D01*
X151425000Y-85560714D01*
X151460714Y-85596428D01*
X151532142Y-85632142D01*
X151603571Y-85632142D01*
X151710714Y-85596428D01*
X152139285Y-85167857D01*
X152139285Y-85632142D01*
X151389285Y-85882142D02*
X151389285Y-86382142D01*
X152139285Y-86060714D01*
%TO.C,R33*%
X157592857Y-93172380D02*
X157926190Y-92696190D01*
X158164285Y-93172380D02*
X158164285Y-92172380D01*
X157783333Y-92172380D01*
X157688095Y-92220000D01*
X157640476Y-92267619D01*
X157592857Y-92362857D01*
X157592857Y-92505714D01*
X157640476Y-92600952D01*
X157688095Y-92648571D01*
X157783333Y-92696190D01*
X158164285Y-92696190D01*
X157259523Y-92172380D02*
X156640476Y-92172380D01*
X156973809Y-92553333D01*
X156830952Y-92553333D01*
X156735714Y-92600952D01*
X156688095Y-92648571D01*
X156640476Y-92743809D01*
X156640476Y-92981904D01*
X156688095Y-93077142D01*
X156735714Y-93124761D01*
X156830952Y-93172380D01*
X157116666Y-93172380D01*
X157211904Y-93124761D01*
X157259523Y-93077142D01*
X156307142Y-92172380D02*
X155688095Y-92172380D01*
X156021428Y-92553333D01*
X155878571Y-92553333D01*
X155783333Y-92600952D01*
X155735714Y-92648571D01*
X155688095Y-92743809D01*
X155688095Y-92981904D01*
X155735714Y-93077142D01*
X155783333Y-93124761D01*
X155878571Y-93172380D01*
X156164285Y-93172380D01*
X156259523Y-93124761D01*
X156307142Y-93077142D01*
%TO.C,R34*%
X154252380Y-93557142D02*
X153776190Y-93223809D01*
X154252380Y-92985714D02*
X153252380Y-92985714D01*
X153252380Y-93366666D01*
X153300000Y-93461904D01*
X153347619Y-93509523D01*
X153442857Y-93557142D01*
X153585714Y-93557142D01*
X153680952Y-93509523D01*
X153728571Y-93461904D01*
X153776190Y-93366666D01*
X153776190Y-92985714D01*
X153252380Y-93890476D02*
X153252380Y-94509523D01*
X153633333Y-94176190D01*
X153633333Y-94319047D01*
X153680952Y-94414285D01*
X153728571Y-94461904D01*
X153823809Y-94509523D01*
X154061904Y-94509523D01*
X154157142Y-94461904D01*
X154204761Y-94414285D01*
X154252380Y-94319047D01*
X154252380Y-94033333D01*
X154204761Y-93938095D01*
X154157142Y-93890476D01*
X153585714Y-95366666D02*
X154252380Y-95366666D01*
X153204761Y-95128571D02*
X153919047Y-94890476D01*
X153919047Y-95509523D01*
%TO.C,U4*%
X128361904Y-97452380D02*
X128361904Y-98261904D01*
X128314285Y-98357142D01*
X128266666Y-98404761D01*
X128171428Y-98452380D01*
X127980952Y-98452380D01*
X127885714Y-98404761D01*
X127838095Y-98357142D01*
X127790476Y-98261904D01*
X127790476Y-97452380D01*
X126885714Y-97785714D02*
X126885714Y-98452380D01*
X127123809Y-97404761D02*
X127361904Y-98119047D01*
X126742857Y-98119047D01*
%TO.C,U10*%
X119938095Y-97902380D02*
X119938095Y-98711904D01*
X119890476Y-98807142D01*
X119842857Y-98854761D01*
X119747619Y-98902380D01*
X119557142Y-98902380D01*
X119461904Y-98854761D01*
X119414285Y-98807142D01*
X119366666Y-98711904D01*
X119366666Y-97902380D01*
X118366666Y-98902380D02*
X118938095Y-98902380D01*
X118652380Y-98902380D02*
X118652380Y-97902380D01*
X118747619Y-98045238D01*
X118842857Y-98140476D01*
X118938095Y-98188095D01*
X117747619Y-97902380D02*
X117652380Y-97902380D01*
X117557142Y-97950000D01*
X117509523Y-97997619D01*
X117461904Y-98092857D01*
X117414285Y-98283333D01*
X117414285Y-98521428D01*
X117461904Y-98711904D01*
X117509523Y-98807142D01*
X117557142Y-98854761D01*
X117652380Y-98902380D01*
X117747619Y-98902380D01*
X117842857Y-98854761D01*
X117890476Y-98807142D01*
X117938095Y-98711904D01*
X117985714Y-98521428D01*
X117985714Y-98283333D01*
X117938095Y-98092857D01*
X117890476Y-97997619D01*
X117842857Y-97950000D01*
X117747619Y-97902380D01*
%TO.C,U13*%
X121438095Y-80852380D02*
X121438095Y-81661904D01*
X121390476Y-81757142D01*
X121342857Y-81804761D01*
X121247619Y-81852380D01*
X121057142Y-81852380D01*
X120961904Y-81804761D01*
X120914285Y-81757142D01*
X120866666Y-81661904D01*
X120866666Y-80852380D01*
X119866666Y-81852380D02*
X120438095Y-81852380D01*
X120152380Y-81852380D02*
X120152380Y-80852380D01*
X120247619Y-80995238D01*
X120342857Y-81090476D01*
X120438095Y-81138095D01*
X119533333Y-80852380D02*
X118914285Y-80852380D01*
X119247619Y-81233333D01*
X119104761Y-81233333D01*
X119009523Y-81280952D01*
X118961904Y-81328571D01*
X118914285Y-81423809D01*
X118914285Y-81661904D01*
X118961904Y-81757142D01*
X119009523Y-81804761D01*
X119104761Y-81852380D01*
X119390476Y-81852380D01*
X119485714Y-81804761D01*
X119533333Y-81757142D01*
%TO.C,R13*%
X124042857Y-105652380D02*
X124376190Y-105176190D01*
X124614285Y-105652380D02*
X124614285Y-104652380D01*
X124233333Y-104652380D01*
X124138095Y-104700000D01*
X124090476Y-104747619D01*
X124042857Y-104842857D01*
X124042857Y-104985714D01*
X124090476Y-105080952D01*
X124138095Y-105128571D01*
X124233333Y-105176190D01*
X124614285Y-105176190D01*
X123090476Y-105652380D02*
X123661904Y-105652380D01*
X123376190Y-105652380D02*
X123376190Y-104652380D01*
X123471428Y-104795238D01*
X123566666Y-104890476D01*
X123661904Y-104938095D01*
X122757142Y-104652380D02*
X122138095Y-104652380D01*
X122471428Y-105033333D01*
X122328571Y-105033333D01*
X122233333Y-105080952D01*
X122185714Y-105128571D01*
X122138095Y-105223809D01*
X122138095Y-105461904D01*
X122185714Y-105557142D01*
X122233333Y-105604761D01*
X122328571Y-105652380D01*
X122614285Y-105652380D01*
X122709523Y-105604761D01*
X122757142Y-105557142D01*
%TO.C,R12*%
X124042857Y-97652380D02*
X124376190Y-97176190D01*
X124614285Y-97652380D02*
X124614285Y-96652380D01*
X124233333Y-96652380D01*
X124138095Y-96700000D01*
X124090476Y-96747619D01*
X124042857Y-96842857D01*
X124042857Y-96985714D01*
X124090476Y-97080952D01*
X124138095Y-97128571D01*
X124233333Y-97176190D01*
X124614285Y-97176190D01*
X123090476Y-97652380D02*
X123661904Y-97652380D01*
X123376190Y-97652380D02*
X123376190Y-96652380D01*
X123471428Y-96795238D01*
X123566666Y-96890476D01*
X123661904Y-96938095D01*
X122709523Y-96747619D02*
X122661904Y-96700000D01*
X122566666Y-96652380D01*
X122328571Y-96652380D01*
X122233333Y-96700000D01*
X122185714Y-96747619D01*
X122138095Y-96842857D01*
X122138095Y-96938095D01*
X122185714Y-97080952D01*
X122757142Y-97652380D01*
X122138095Y-97652380D01*
%TO.C,BT1*%
X159609571Y-70461285D02*
X159657190Y-70604142D01*
X159704809Y-70651761D01*
X159800047Y-70699380D01*
X159942904Y-70699380D01*
X160038142Y-70651761D01*
X160085761Y-70604142D01*
X160133380Y-70508904D01*
X160133380Y-70127952D01*
X159133380Y-70127952D01*
X159133380Y-70461285D01*
X159181000Y-70556523D01*
X159228619Y-70604142D01*
X159323857Y-70651761D01*
X159419095Y-70651761D01*
X159514333Y-70604142D01*
X159561952Y-70556523D01*
X159609571Y-70461285D01*
X159609571Y-70127952D01*
X159133380Y-70985095D02*
X159133380Y-71556523D01*
X160133380Y-71270809D02*
X159133380Y-71270809D01*
X160133380Y-72413666D02*
X160133380Y-71842238D01*
X160133380Y-72127952D02*
X159133380Y-72127952D01*
X159276238Y-72032714D01*
X159371476Y-71937476D01*
X159419095Y-71842238D01*
%TO.C,R32*%
X160027857Y-97607380D02*
X160361190Y-97131190D01*
X160599285Y-97607380D02*
X160599285Y-96607380D01*
X160218333Y-96607380D01*
X160123095Y-96655000D01*
X160075476Y-96702619D01*
X160027857Y-96797857D01*
X160027857Y-96940714D01*
X160075476Y-97035952D01*
X160123095Y-97083571D01*
X160218333Y-97131190D01*
X160599285Y-97131190D01*
X159694523Y-96607380D02*
X159075476Y-96607380D01*
X159408809Y-96988333D01*
X159265952Y-96988333D01*
X159170714Y-97035952D01*
X159123095Y-97083571D01*
X159075476Y-97178809D01*
X159075476Y-97416904D01*
X159123095Y-97512142D01*
X159170714Y-97559761D01*
X159265952Y-97607380D01*
X159551666Y-97607380D01*
X159646904Y-97559761D01*
X159694523Y-97512142D01*
X158694523Y-96702619D02*
X158646904Y-96655000D01*
X158551666Y-96607380D01*
X158313571Y-96607380D01*
X158218333Y-96655000D01*
X158170714Y-96702619D01*
X158123095Y-96797857D01*
X158123095Y-96893095D01*
X158170714Y-97035952D01*
X158742142Y-97607380D01*
X158123095Y-97607380D01*
%TO.C,C42*%
X127042857Y-87157142D02*
X127090476Y-87204761D01*
X127233333Y-87252380D01*
X127328571Y-87252380D01*
X127471428Y-87204761D01*
X127566666Y-87109523D01*
X127614285Y-87014285D01*
X127661904Y-86823809D01*
X127661904Y-86680952D01*
X127614285Y-86490476D01*
X127566666Y-86395238D01*
X127471428Y-86300000D01*
X127328571Y-86252380D01*
X127233333Y-86252380D01*
X127090476Y-86300000D01*
X127042857Y-86347619D01*
X126185714Y-86585714D02*
X126185714Y-87252380D01*
X126423809Y-86204761D02*
X126661904Y-86919047D01*
X126042857Y-86919047D01*
X125709523Y-86347619D02*
X125661904Y-86300000D01*
X125566666Y-86252380D01*
X125328571Y-86252380D01*
X125233333Y-86300000D01*
X125185714Y-86347619D01*
X125138095Y-86442857D01*
X125138095Y-86538095D01*
X125185714Y-86680952D01*
X125757142Y-87252380D01*
X125138095Y-87252380D01*
%TO.C,C21*%
X152757142Y-93557142D02*
X152804761Y-93509523D01*
X152852380Y-93366666D01*
X152852380Y-93271428D01*
X152804761Y-93128571D01*
X152709523Y-93033333D01*
X152614285Y-92985714D01*
X152423809Y-92938095D01*
X152280952Y-92938095D01*
X152090476Y-92985714D01*
X151995238Y-93033333D01*
X151900000Y-93128571D01*
X151852380Y-93271428D01*
X151852380Y-93366666D01*
X151900000Y-93509523D01*
X151947619Y-93557142D01*
X151947619Y-93938095D02*
X151900000Y-93985714D01*
X151852380Y-94080952D01*
X151852380Y-94319047D01*
X151900000Y-94414285D01*
X151947619Y-94461904D01*
X152042857Y-94509523D01*
X152138095Y-94509523D01*
X152280952Y-94461904D01*
X152852380Y-93890476D01*
X152852380Y-94509523D01*
X152852380Y-95461904D02*
X152852380Y-94890476D01*
X152852380Y-95176190D02*
X151852380Y-95176190D01*
X151995238Y-95080952D01*
X152090476Y-94985714D01*
X152138095Y-94890476D01*
%TO.C,U8*%
X148961904Y-94652380D02*
X148961904Y-95461904D01*
X148914285Y-95557142D01*
X148866666Y-95604761D01*
X148771428Y-95652380D01*
X148580952Y-95652380D01*
X148485714Y-95604761D01*
X148438095Y-95557142D01*
X148390476Y-95461904D01*
X148390476Y-94652380D01*
X147771428Y-95080952D02*
X147866666Y-95033333D01*
X147914285Y-94985714D01*
X147961904Y-94890476D01*
X147961904Y-94842857D01*
X147914285Y-94747619D01*
X147866666Y-94700000D01*
X147771428Y-94652380D01*
X147580952Y-94652380D01*
X147485714Y-94700000D01*
X147438095Y-94747619D01*
X147390476Y-94842857D01*
X147390476Y-94890476D01*
X147438095Y-94985714D01*
X147485714Y-95033333D01*
X147580952Y-95080952D01*
X147771428Y-95080952D01*
X147866666Y-95128571D01*
X147914285Y-95176190D01*
X147961904Y-95271428D01*
X147961904Y-95461904D01*
X147914285Y-95557142D01*
X147866666Y-95604761D01*
X147771428Y-95652380D01*
X147580952Y-95652380D01*
X147485714Y-95604761D01*
X147438095Y-95557142D01*
X147390476Y-95461904D01*
X147390476Y-95271428D01*
X147438095Y-95176190D01*
X147485714Y-95128571D01*
X147580952Y-95080952D01*
%TO.C,C23*%
X151157142Y-93557142D02*
X151204761Y-93509523D01*
X151252380Y-93366666D01*
X151252380Y-93271428D01*
X151204761Y-93128571D01*
X151109523Y-93033333D01*
X151014285Y-92985714D01*
X150823809Y-92938095D01*
X150680952Y-92938095D01*
X150490476Y-92985714D01*
X150395238Y-93033333D01*
X150300000Y-93128571D01*
X150252380Y-93271428D01*
X150252380Y-93366666D01*
X150300000Y-93509523D01*
X150347619Y-93557142D01*
X150347619Y-93938095D02*
X150300000Y-93985714D01*
X150252380Y-94080952D01*
X150252380Y-94319047D01*
X150300000Y-94414285D01*
X150347619Y-94461904D01*
X150442857Y-94509523D01*
X150538095Y-94509523D01*
X150680952Y-94461904D01*
X151252380Y-93890476D01*
X151252380Y-94509523D01*
X150252380Y-94842857D02*
X150252380Y-95461904D01*
X150633333Y-95128571D01*
X150633333Y-95271428D01*
X150680952Y-95366666D01*
X150728571Y-95414285D01*
X150823809Y-95461904D01*
X151061904Y-95461904D01*
X151157142Y-95414285D01*
X151204761Y-95366666D01*
X151252380Y-95271428D01*
X151252380Y-94985714D01*
X151204761Y-94890476D01*
X151157142Y-94842857D01*
%TO.C,J9*%
X150333333Y-63462380D02*
X150333333Y-64176666D01*
X150380952Y-64319523D01*
X150476190Y-64414761D01*
X150619047Y-64462380D01*
X150714285Y-64462380D01*
X149809523Y-64462380D02*
X149619047Y-64462380D01*
X149523809Y-64414761D01*
X149476190Y-64367142D01*
X149380952Y-64224285D01*
X149333333Y-64033809D01*
X149333333Y-63652857D01*
X149380952Y-63557619D01*
X149428571Y-63510000D01*
X149523809Y-63462380D01*
X149714285Y-63462380D01*
X149809523Y-63510000D01*
X149857142Y-63557619D01*
X149904761Y-63652857D01*
X149904761Y-63890952D01*
X149857142Y-63986190D01*
X149809523Y-64033809D01*
X149714285Y-64081428D01*
X149523809Y-64081428D01*
X149428571Y-64033809D01*
X149380952Y-63986190D01*
X149333333Y-63890952D01*
%TO.C,R39*%
X144792380Y-84947142D02*
X144316190Y-84613809D01*
X144792380Y-84375714D02*
X143792380Y-84375714D01*
X143792380Y-84756666D01*
X143840000Y-84851904D01*
X143887619Y-84899523D01*
X143982857Y-84947142D01*
X144125714Y-84947142D01*
X144220952Y-84899523D01*
X144268571Y-84851904D01*
X144316190Y-84756666D01*
X144316190Y-84375714D01*
X143792380Y-85280476D02*
X143792380Y-85899523D01*
X144173333Y-85566190D01*
X144173333Y-85709047D01*
X144220952Y-85804285D01*
X144268571Y-85851904D01*
X144363809Y-85899523D01*
X144601904Y-85899523D01*
X144697142Y-85851904D01*
X144744761Y-85804285D01*
X144792380Y-85709047D01*
X144792380Y-85423333D01*
X144744761Y-85328095D01*
X144697142Y-85280476D01*
X144792380Y-86375714D02*
X144792380Y-86566190D01*
X144744761Y-86661428D01*
X144697142Y-86709047D01*
X144554285Y-86804285D01*
X144363809Y-86851904D01*
X143982857Y-86851904D01*
X143887619Y-86804285D01*
X143840000Y-86756666D01*
X143792380Y-86661428D01*
X143792380Y-86470952D01*
X143840000Y-86375714D01*
X143887619Y-86328095D01*
X143982857Y-86280476D01*
X144220952Y-86280476D01*
X144316190Y-86328095D01*
X144363809Y-86375714D01*
X144411428Y-86470952D01*
X144411428Y-86661428D01*
X144363809Y-86756666D01*
X144316190Y-86804285D01*
X144220952Y-86851904D01*
D11*
%TO.C,C8*%
X126753080Y-104310000D02*
X126471920Y-104310000D01*
X126753080Y-103290000D02*
X126471920Y-103290000D01*
%TO.C,C9*%
X131110000Y-99103080D02*
X131110000Y-98821920D01*
X130090000Y-99103080D02*
X130090000Y-98821920D01*
%TO.C,C13*%
X130090000Y-101971920D02*
X130090000Y-102253080D01*
X131110000Y-101971920D02*
X131110000Y-102253080D01*
%TO.C,C44*%
X126910000Y-82759420D02*
X126910000Y-83040580D01*
X125890000Y-82759420D02*
X125890000Y-83040580D01*
%TO.C,FB1*%
X123562779Y-88810000D02*
X123237221Y-88810000D01*
X123562779Y-87790000D02*
X123237221Y-87790000D01*
%TO.C,FB2*%
X128510000Y-83062779D02*
X128510000Y-82737221D01*
X127490000Y-83062779D02*
X127490000Y-82737221D01*
%TO.C,Q2*%
X158110000Y-97000000D02*
X158110000Y-96350000D01*
X154990000Y-97000000D02*
X154990000Y-96350000D01*
X154990000Y-97000000D02*
X154990000Y-97650000D01*
X158110000Y-97000000D02*
X158110000Y-98675000D01*
%TO.C,R14*%
X114274758Y-99072500D02*
X113800242Y-99072500D01*
X114274758Y-98027500D02*
X113800242Y-98027500D01*
%TO.C,R15*%
X114227500Y-100775242D02*
X114227500Y-101249758D01*
X115272500Y-100775242D02*
X115272500Y-101249758D01*
%TO.C,R16*%
X112477500Y-100775242D02*
X112477500Y-101249758D01*
X113522500Y-100775242D02*
X113522500Y-101249758D01*
%TO.C,R20*%
X145477500Y-83024758D02*
X145477500Y-82550242D01*
X146522500Y-83024758D02*
X146522500Y-82550242D01*
%TO.C,R23*%
X148522500Y-83024758D02*
X148522500Y-82550242D01*
X147477500Y-83024758D02*
X147477500Y-82550242D01*
%TO.C,R24*%
X123162742Y-79722500D02*
X123637258Y-79722500D01*
X123162742Y-78677500D02*
X123637258Y-78677500D01*
%TO.C,R25*%
X123637258Y-84477500D02*
X123162742Y-84477500D01*
X123637258Y-85522500D02*
X123162742Y-85522500D01*
%TO.C,R26*%
X150522500Y-83024758D02*
X150522500Y-82550242D01*
X149477500Y-83024758D02*
X149477500Y-82550242D01*
%TO.C,R27*%
X151477500Y-83024758D02*
X151477500Y-82550242D01*
X152522500Y-83024758D02*
X152522500Y-82550242D01*
%TO.C,R33*%
X157187258Y-93627500D02*
X156712742Y-93627500D01*
X157187258Y-94672500D02*
X156712742Y-94672500D01*
%TO.C,R34*%
X153427500Y-96975242D02*
X153427500Y-97449758D01*
X154472500Y-96975242D02*
X154472500Y-97449758D01*
D10*
%TO.C,U4*%
X129150000Y-102400000D02*
X129150000Y-102000000D01*
X125950000Y-102400000D02*
X126350000Y-102400000D01*
X125950000Y-99200000D02*
X125950000Y-99600000D01*
X129150000Y-102400000D02*
X128750000Y-102400000D01*
X129150000Y-99200000D02*
X128750000Y-99200000D01*
X125950000Y-102400000D02*
X125950000Y-102000000D01*
X129150000Y-99200000D02*
X129150000Y-99600000D01*
%TO.C,U10*%
X120325000Y-99375000D02*
X120325000Y-99500000D01*
X120325000Y-102625000D02*
X120325000Y-102400000D01*
X117075000Y-102625000D02*
X117075000Y-102400000D01*
X120325000Y-102625000D02*
X117075000Y-102625000D01*
X120325000Y-99500000D02*
X121400000Y-99500000D01*
X117075000Y-99375000D02*
X117075000Y-99600000D01*
X120325000Y-99375000D02*
X117075000Y-99375000D01*
D11*
%TO.C,U13*%
X123500000Y-83660000D02*
X121700000Y-83660000D01*
X123500000Y-83660000D02*
X124300000Y-83660000D01*
X123500000Y-80540000D02*
X122700000Y-80540000D01*
X123500000Y-80540000D02*
X124300000Y-80540000D01*
%TO.C,R13*%
X122977500Y-102300242D02*
X122977500Y-102774758D01*
X124022500Y-102300242D02*
X124022500Y-102774758D01*
%TO.C,R12*%
X124022500Y-99549758D02*
X124022500Y-99075242D01*
X122977500Y-99549758D02*
X122977500Y-99075242D01*
%TO.C,BT1*%
X169681000Y-64497000D02*
X171781000Y-64497000D01*
X169681000Y-77997000D02*
X171781000Y-77997000D01*
X164231000Y-64497000D02*
X161631000Y-67097000D01*
X165681000Y-64497000D02*
X164231000Y-64497000D01*
X164231000Y-77997000D02*
X165681000Y-77997000D01*
X161631000Y-67097000D02*
X160831000Y-67097000D01*
X161631000Y-75397000D02*
X164231000Y-77997000D01*
X160831000Y-75397000D02*
X161631000Y-75397000D01*
X160831000Y-67097000D02*
X160831000Y-75397000D01*
X172881000Y-66747000D02*
G75*
G03*
X173265160Y-65832385I-600001J790000D01*
G01*
X173281000Y-65947000D02*
G75*
G03*
X171731000Y-64497000I-1499999J-49999D01*
G01*
X173265160Y-76661615D02*
G75*
G03*
X172881000Y-75747000I-984161J124615D01*
G01*
X171731000Y-77997000D02*
G75*
G03*
X173281000Y-76547000I50001J1499999D01*
G01*
%TO.C,R32*%
X159872500Y-96962742D02*
X159872500Y-97437258D01*
X158827500Y-96962742D02*
X158827500Y-97437258D01*
%TO.C,C42*%
X123540580Y-86190000D02*
X123259420Y-86190000D01*
X123540580Y-87210000D02*
X123259420Y-87210000D01*
%TO.C,C21*%
X151790000Y-97096920D02*
X151790000Y-97378080D01*
X152810000Y-97096920D02*
X152810000Y-97378080D01*
D12*
%TO.C,U8*%
X146700000Y-95900000D02*
X146450000Y-95900000D01*
X149250000Y-95900000D02*
X149100000Y-95900000D01*
X146550000Y-98600000D02*
X146700000Y-98600000D01*
X149250000Y-98600000D02*
X149250000Y-98450000D01*
X149260000Y-95900000D02*
X149260000Y-96050000D01*
X146550000Y-98450000D02*
X146550000Y-98600000D01*
X149250000Y-98600000D02*
X149100000Y-98600000D01*
D11*
%TO.C,C23*%
X150190000Y-97096920D02*
X150190000Y-97378080D01*
X151210000Y-97096920D02*
X151210000Y-97378080D01*
%TO.C,J9*%
X144500000Y-66190000D02*
X144500000Y-65190000D01*
X149100000Y-65990000D02*
X147800000Y-65890000D01*
X156910000Y-69110000D02*
X156910000Y-74890000D01*
X155500000Y-66190000D02*
X155500000Y-65190000D01*
X152200000Y-65890000D02*
X150900000Y-65990000D01*
X145000000Y-65390000D02*
X144500000Y-65290000D01*
X143090000Y-77410000D02*
X143090000Y-80110000D01*
X143090000Y-69110000D02*
X143090000Y-74890000D01*
X156910000Y-66190000D02*
X156910000Y-66590000D01*
X147800000Y-65890000D02*
X146300000Y-65690000D01*
X153000000Y-65790000D02*
X152200000Y-65890000D01*
X154700000Y-65490000D02*
X153000000Y-65790000D01*
X155500000Y-65290000D02*
X154700000Y-65490000D01*
X146300000Y-65690000D02*
X145000000Y-65390000D01*
X143090000Y-66190000D02*
X143090000Y-66590000D01*
X156910000Y-66190000D02*
X143090000Y-66190000D01*
X150900000Y-65990000D02*
X149100000Y-65990000D01*
X156910000Y-77410000D02*
X156910000Y-80110000D01*
X155000000Y-64690000D02*
X145000000Y-64690000D01*
X143090000Y-80110000D02*
X156910000Y-80110000D01*
X155500000Y-65190000D02*
G75*
G03*
X155000000Y-64690000I-500001J-1D01*
G01*
X145000000Y-64690000D02*
G75*
G03*
X144500000Y-65190000I1J-500001D01*
G01*
%TO.C,R39*%
X144752500Y-83007258D02*
X144752500Y-82532742D01*
X143707500Y-83007258D02*
X143707500Y-82532742D01*
%TD*%
M02*
