%TF.GenerationSoftware,KiCad,Pcbnew,(6.0.2)*%
%TF.CreationDate,2022-04-01T12:33:14-04:00*%
%TF.ProjectId,ControlBoard,436f6e74-726f-46c4-926f-6172642e6b69,rev?*%
%TF.SameCoordinates,Original*%
%TF.FileFunction,Soldermask,Bot*%
%TF.FilePolarity,Negative*%
%FSLAX46Y46*%
G04 Gerber Fmt 4.6, Leading zero omitted, Abs format (unit mm)*
G04 Created by KiCad (PCBNEW (6.0.2)) date 2022-04-01 12:33:14*
%MOMM*%
%LPD*%
G01*
G04 APERTURE LIST*
G04 Aperture macros list*
%AMRoundRect*
0 Rectangle with rounded corners*
0 $1 Rounding radius*
0 $2 $3 $4 $5 $6 $7 $8 $9 X,Y pos of 4 corners*
0 Add a 4 corners polygon primitive as box body*
4,1,4,$2,$3,$4,$5,$6,$7,$8,$9,$2,$3,0*
0 Add four circle primitives for the rounded corners*
1,1,$1+$1,$2,$3*
1,1,$1+$1,$4,$5*
1,1,$1+$1,$6,$7*
1,1,$1+$1,$8,$9*
0 Add four rect primitives between the rounded corners*
20,1,$1+$1,$2,$3,$4,$5,0*
20,1,$1+$1,$4,$5,$6,$7,0*
20,1,$1+$1,$6,$7,$8,$9,0*
20,1,$1+$1,$8,$9,$2,$3,0*%
G04 Aperture macros list end*
%ADD10C,0.800000*%
%ADD11C,6.400000*%
%ADD12R,1.700000X1.700000*%
%ADD13O,1.700000X1.700000*%
%ADD14C,1.700000*%
%ADD15RoundRect,0.250000X-0.600000X0.600000X-0.600000X-0.600000X0.600000X-0.600000X0.600000X0.600000X0*%
%ADD16C,0.650000*%
%ADD17O,2.100000X1.000000*%
%ADD18O,1.600000X1.000000*%
%ADD19RoundRect,0.225000X0.225000X0.250000X-0.225000X0.250000X-0.225000X-0.250000X0.225000X-0.250000X0*%
%ADD20RoundRect,0.225000X0.250000X-0.225000X0.250000X0.225000X-0.250000X0.225000X-0.250000X-0.225000X0*%
%ADD21RoundRect,0.225000X-0.250000X0.225000X-0.250000X-0.225000X0.250000X-0.225000X0.250000X0.225000X0*%
%ADD22RoundRect,0.218750X0.218750X0.256250X-0.218750X0.256250X-0.218750X-0.256250X0.218750X-0.256250X0*%
%ADD23RoundRect,0.218750X0.256250X-0.218750X0.256250X0.218750X-0.256250X0.218750X-0.256250X-0.218750X0*%
%ADD24RoundRect,0.150000X0.150000X-0.587500X0.150000X0.587500X-0.150000X0.587500X-0.150000X-0.587500X0*%
%ADD25RoundRect,0.200000X0.200000X0.275000X-0.200000X0.275000X-0.200000X-0.275000X0.200000X-0.275000X0*%
%ADD26RoundRect,0.200000X-0.275000X0.200000X-0.275000X-0.200000X0.275000X-0.200000X0.275000X0.200000X0*%
%ADD27RoundRect,0.200000X0.275000X-0.200000X0.275000X0.200000X-0.275000X0.200000X-0.275000X-0.200000X0*%
%ADD28RoundRect,0.200000X-0.200000X-0.275000X0.200000X-0.275000X0.200000X0.275000X-0.200000X0.275000X0*%
%ADD29RoundRect,0.050000X-0.050000X0.225000X-0.050000X-0.225000X0.050000X-0.225000X0.050000X0.225000X0*%
%ADD30RoundRect,0.050000X0.225000X0.050000X-0.225000X0.050000X-0.225000X-0.050000X0.225000X-0.050000X0*%
%ADD31R,1.100000X0.400000*%
%ADD32RoundRect,0.150000X-0.512500X-0.150000X0.512500X-0.150000X0.512500X0.150000X-0.512500X0.150000X0*%
%ADD33R,3.300000X3.500000*%
%ADD34C,10.200000*%
%ADD35R,0.500000X0.350000*%
%ADD36R,0.800000X1.500000*%
%ADD37R,1.450000X2.000000*%
G04 APERTURE END LIST*
D10*
%TO.C,H1*%
X123000000Y-75400000D03*
X121302944Y-71302944D03*
X123000000Y-70600000D03*
X124697056Y-74697056D03*
X124697056Y-71302944D03*
X121302944Y-74697056D03*
X120600000Y-73000000D03*
X125400000Y-73000000D03*
D11*
X123000000Y-73000000D03*
%TD*%
D10*
%TO.C,H3*%
X150000000Y-116400000D03*
X148302944Y-115697056D03*
D11*
X150000000Y-114000000D03*
D10*
X151697056Y-115697056D03*
X148302944Y-112302944D03*
X151697056Y-112302944D03*
X147600000Y-114000000D03*
X150000000Y-111600000D03*
X152400000Y-114000000D03*
%TD*%
D12*
%TO.C,J7*%
X111460000Y-90000000D03*
D13*
X114000000Y-90000000D03*
X111460000Y-92540000D03*
X114000000Y-92540000D03*
X111460000Y-95080000D03*
X114000000Y-95080000D03*
%TD*%
D12*
%TO.C,J2*%
X186000000Y-90000000D03*
D13*
X188540000Y-90000000D03*
X186000000Y-92540000D03*
X188540000Y-92540000D03*
X186000000Y-95080000D03*
X188540000Y-95080000D03*
%TD*%
D14*
%TO.C,J3*%
X127500000Y-116880000D03*
X135000000Y-116880000D03*
D15*
X135000000Y-107200000D03*
D14*
X132500000Y-107200000D03*
X130000000Y-107200000D03*
X127500000Y-107200000D03*
X135000000Y-109700000D03*
X132500000Y-109700000D03*
X130000000Y-109700000D03*
X127500000Y-109700000D03*
%TD*%
%TO.C,J4*%
X114500000Y-116880000D03*
X122000000Y-116880000D03*
D15*
X122000000Y-107200000D03*
D14*
X119500000Y-107200000D03*
X117000000Y-107200000D03*
X114500000Y-107200000D03*
X122000000Y-109700000D03*
X119500000Y-109700000D03*
X117000000Y-109700000D03*
X114500000Y-109700000D03*
%TD*%
%TO.C,J5*%
X165000000Y-116880000D03*
X172500000Y-116880000D03*
D15*
X172500000Y-107200000D03*
D14*
X170000000Y-107200000D03*
X167500000Y-107200000D03*
X165000000Y-107200000D03*
X172500000Y-109700000D03*
X170000000Y-109700000D03*
X167500000Y-109700000D03*
X165000000Y-109700000D03*
%TD*%
%TO.C,J6*%
X185500000Y-116880000D03*
X178000000Y-116880000D03*
D15*
X185500000Y-107200000D03*
D14*
X183000000Y-107200000D03*
X180500000Y-107200000D03*
X178000000Y-107200000D03*
X185500000Y-109700000D03*
X183000000Y-109700000D03*
X180500000Y-109700000D03*
X178000000Y-109700000D03*
%TD*%
D16*
%TO.C,J8*%
X119100000Y-79160000D03*
X119100000Y-84940000D03*
D17*
X119630000Y-77730000D03*
D18*
X115450000Y-86370000D03*
D17*
X119630000Y-86370000D03*
D18*
X115450000Y-77730000D03*
%TD*%
D10*
%TO.C,H2*%
X179400000Y-73000000D03*
X174600000Y-73000000D03*
X175302944Y-71302944D03*
X177000000Y-70600000D03*
X178697056Y-74697056D03*
X178697056Y-71302944D03*
X177000000Y-75400000D03*
X175302944Y-74697056D03*
D11*
X177000000Y-73000000D03*
%TD*%
D12*
%TO.C,J11*%
X134405000Y-73840000D03*
D13*
X136945000Y-73840000D03*
%TD*%
D12*
%TO.C,J10*%
X156905000Y-91890000D03*
D13*
X159445000Y-91890000D03*
%TD*%
D19*
%TO.C,C8*%
X127387500Y-103800000D03*
X125837500Y-103800000D03*
%TD*%
D20*
%TO.C,C9*%
X130600000Y-99737500D03*
X130600000Y-98187500D03*
%TD*%
D21*
%TO.C,C13*%
X130600000Y-101337500D03*
X130600000Y-102887500D03*
%TD*%
%TO.C,C44*%
X126400000Y-82125000D03*
X126400000Y-83675000D03*
%TD*%
D22*
%TO.C,FB1*%
X124187500Y-88300000D03*
X122612500Y-88300000D03*
%TD*%
D23*
%TO.C,FB2*%
X128000000Y-83687500D03*
X128000000Y-82112500D03*
%TD*%
D24*
%TO.C,Q2*%
X157500000Y-97937500D03*
X155600000Y-97937500D03*
X156550000Y-96062500D03*
%TD*%
D25*
%TO.C,R14*%
X114862500Y-98550000D03*
X113212500Y-98550000D03*
%TD*%
D26*
%TO.C,R15*%
X114750000Y-100187500D03*
X114750000Y-101837500D03*
%TD*%
%TO.C,R16*%
X113000000Y-100187500D03*
X113000000Y-101837500D03*
%TD*%
D27*
%TO.C,R20*%
X146000000Y-83612500D03*
X146000000Y-81962500D03*
%TD*%
%TO.C,R23*%
X148000000Y-83612500D03*
X148000000Y-81962500D03*
%TD*%
D28*
%TO.C,R24*%
X122575000Y-79200000D03*
X124225000Y-79200000D03*
%TD*%
D25*
%TO.C,R25*%
X124225000Y-85000000D03*
X122575000Y-85000000D03*
%TD*%
D27*
%TO.C,R26*%
X150000000Y-83612500D03*
X150000000Y-81962500D03*
%TD*%
%TO.C,R27*%
X152000000Y-83612500D03*
X152000000Y-81962500D03*
%TD*%
D25*
%TO.C,R33*%
X157775000Y-94150000D03*
X156125000Y-94150000D03*
%TD*%
D26*
%TO.C,R34*%
X153950000Y-96387500D03*
X153950000Y-98037500D03*
%TD*%
D29*
%TO.C,U4*%
X126550000Y-99300000D03*
X126950000Y-99300000D03*
X127350000Y-99300000D03*
X127750000Y-99300000D03*
X128150000Y-99300000D03*
X128550000Y-99300000D03*
D30*
X129050000Y-99800000D03*
X129050000Y-100200000D03*
X129050000Y-100600000D03*
X129050000Y-101000000D03*
X129050000Y-101400000D03*
X129050000Y-101800000D03*
D29*
X128550000Y-102300000D03*
X128150000Y-102300000D03*
X127750000Y-102300000D03*
X127350000Y-102300000D03*
X126950000Y-102300000D03*
X126550000Y-102300000D03*
D30*
X126050000Y-101800000D03*
X126050000Y-101400000D03*
X126050000Y-101000000D03*
X126050000Y-100600000D03*
X126050000Y-100200000D03*
X126050000Y-99800000D03*
%TD*%
D31*
%TO.C,U10*%
X120850000Y-100025000D03*
X120850000Y-100675000D03*
X120850000Y-101325000D03*
X120850000Y-101975000D03*
X116550000Y-101975000D03*
X116550000Y-101325000D03*
X116550000Y-100675000D03*
X116550000Y-100025000D03*
%TD*%
D32*
%TO.C,U13*%
X122362500Y-83050000D03*
X122362500Y-82100000D03*
X122362500Y-81150000D03*
X124637500Y-81150000D03*
X124637500Y-82100000D03*
X124637500Y-83050000D03*
%TD*%
D26*
%TO.C,R13*%
X123500000Y-101712500D03*
X123500000Y-103362500D03*
%TD*%
D27*
%TO.C,R12*%
X123500000Y-100137500D03*
X123500000Y-98487500D03*
%TD*%
D33*
%TO.C,BT1*%
X167681000Y-79147000D03*
X167681000Y-63347000D03*
D34*
X167681000Y-71247000D03*
%TD*%
D26*
%TO.C,R32*%
X159350000Y-96375000D03*
X159350000Y-98025000D03*
%TD*%
D19*
%TO.C,C42*%
X124175000Y-86700000D03*
X122625000Y-86700000D03*
%TD*%
D21*
%TO.C,C21*%
X152300000Y-96462500D03*
X152300000Y-98012500D03*
%TD*%
D35*
%TO.C,U8*%
X146875000Y-96275000D03*
X146875000Y-96925000D03*
X146875000Y-97575000D03*
X146875000Y-98225000D03*
X148925000Y-98225000D03*
X148925000Y-97575000D03*
X148925000Y-96925000D03*
X148925000Y-96275000D03*
%TD*%
D21*
%TO.C,C23*%
X150700000Y-96462500D03*
X150700000Y-98012500D03*
%TD*%
D36*
%TO.C,J9*%
X153200000Y-70450000D03*
X152100000Y-70450000D03*
X151000000Y-70450000D03*
X149900000Y-70450000D03*
X148800000Y-70450000D03*
X147700000Y-70450000D03*
X146600000Y-70450000D03*
X145500000Y-70450000D03*
D37*
X156875000Y-76150000D03*
X143125000Y-67850000D03*
X156875000Y-67850000D03*
X143125000Y-76150000D03*
%TD*%
D27*
%TO.C,R39*%
X144230000Y-83595000D03*
X144230000Y-81945000D03*
%TD*%
M02*
